<svg id="Grupo_53579" data-name="Grupo 53579" xmlns="http://www.w3.org/2000/svg" width="167" height="167" viewBox="0 0 167 167">
  <rect id="Rectángulo_5053" data-name="Rectángulo 5053" width="167" height="167" fill="none"/>
  <g id="Grupo_53578" data-name="Grupo 53578" transform="translate(10.344 9.28)">
    <g id="Grupo_53573" data-name="Grupo 53573">
      <g id="Grupo_53572" data-name="Grupo 53572">
        <circle id="Elipse_3952" data-name="Elipse 3952" cx="62.408" cy="62.408" r="62.408" transform="translate(11.817 11.812)" fill="#732be5" opacity="0.5"/>
        <g id="Grupo_53571" data-name="Grupo 53571">
          <path id="Trazado_100259" data-name="Trazado 100259" d="M232.28,149.386a68.313,68.313,0,0,1,67.946-68.311V75.166a74.221,74.221,0,0,0,0,148.44V217.7A68.313,68.313,0,0,1,232.28,149.386Z" transform="translate(-226.371 -75.166)" fill="#732be5"/>
        </g>
      </g>
      <circle id="Elipse_3953" data-name="Elipse 3953" cx="72.088" cy="72.088" r="72.088" transform="translate(2.137 2.132)" fill="none" stroke="#732be5" stroke-miterlimit="10" stroke-width="1" stroke-dasharray="12"/>
    </g>
    <g id="Grupo_53577" data-name="Grupo 53577" transform="translate(38.336 8.569)">
      <g id="Grupo_53574" data-name="Grupo 53574">
        <path id="Trazado_100260" data-name="Trazado 100260" d="M324.159,90.24q6.72,56.794,13.44,112.4a2.869,2.869,0,0,1-2.554,3.269q-27.008,2.562-54.015,5.236c-3.211.156-4.975-1.639-5.181-3.435q-6.917-60.032-13.834-121.32c-.207-1.835,1.348-3.412,4.559-3.255q27.14,1.935,54.281,3.819A3.8,3.8,0,0,1,324.159,90.24Z" transform="translate(-261.996 -83.129)" fill="#360d75"/>
        <path id="Trazado_100261" data-name="Trazado 100261" d="M326.511,90.162q6.762,57.043,13.525,112.886a2.887,2.887,0,0,1-2.571,3.284q-28.043,2.374-56.087,4.844a3.326,3.326,0,0,1-3.482-3q-6.96-60.307-13.921-121.885a2.63,2.63,0,0,1,2.745-3.141q28.233,1.884,56.465,3.721A3.818,3.818,0,0,1,326.511,90.162Z" transform="translate(-261.847 -83.128)" fill="#5515ba"/>
        <path id="Trazado_100262" data-name="Trazado 100262" d="M325.233,95.879q6.265,52.851,12.527,104.67a2.686,2.686,0,0,1-2.4,3.063q-26.372,2.158-52.746,4.4a3.111,3.111,0,0,1-3.243-2.805Q272.932,149.5,266.5,92.711a2.47,2.47,0,0,1,2.556-2.944q26.537,1.545,53.076,3.058A3.526,3.526,0,0,1,325.233,95.879Z" transform="translate(-261.655 -82.624)" fill="#e8b210"/>
        <path id="Trazado_100263" data-name="Trazado 100263" d="M321.9,92.822q-26.224-1.495-52.447-3.022a40.1,40.1,0,0,0,3.071,9.936c5.8,12.581,14.319,13.274,17.651,24.237,3.434,11.295-4.31,14.83-.527,25.027,4.105,11.067,14.173,9.464,19.495,21.6,4.587,10.462-1.317,15.245,3.425,21.6,5.2,6.969,14.816,4.606,24.8,6.966q-6.181-51.146-12.361-103.3A3.526,3.526,0,0,0,321.9,92.822Z" transform="translate(-261.428 -82.621)" fill="#cf9e0e"/>
      </g>
      <path id="Trazado_100264" data-name="Trazado 100264" d="M294.611,88.375a.879.879,0,0,1-.919,1.048,1.345,1.345,0,0,1-1.178-1.177.877.877,0,0,1,.92-1.047A1.345,1.345,0,0,1,294.611,88.375Z" transform="translate(-259.674 -82.819)" fill="#ff73b5"/>
      <ellipse id="Elipse_3954" data-name="Elipse 3954" cx="4.046" cy="4.774" rx="4.046" ry="4.774" transform="translate(37.207 30.057)" fill="#ff73b5"/>
      <ellipse id="Elipse_3955" data-name="Elipse 3955" cx="4.046" cy="4.774" rx="4.046" ry="4.774" transform="translate(53.314 30.057)" fill="#ff73b5"/>
      <ellipse id="Elipse_3956" data-name="Elipse 3956" cx="4.104" cy="4.774" rx="4.104" ry="4.774" transform="translate(45.158 30.057)" fill="#d8dce6"/>
      <ellipse id="Elipse_3957" data-name="Elipse 3957" cx="4.046" cy="4.774" rx="4.046" ry="4.774" transform="translate(69.421 30.057)" fill="#ff73b5"/>
      <ellipse id="Elipse_3958" data-name="Elipse 3958" cx="4.104" cy="4.774" rx="4.104" ry="4.774" transform="translate(61.265 30.057)" fill="#d8dce6"/>
      <ellipse id="Elipse_3959" data-name="Elipse 3959" cx="4.104" cy="4.774" rx="4.104" ry="4.774" transform="translate(77.372 30.057)" fill="#d8dce6"/>
      <ellipse id="Elipse_3960" data-name="Elipse 3960" cx="4.104" cy="4.774" rx="4.104" ry="4.774" transform="translate(29.051 30.057)" fill="#d8dce6"/>
      <path id="Trazado_100265" data-name="Trazado 100265" d="M265.74,89.327l25.109,28.808h64.808l-31.4-25.159Z" transform="translate(-261.711 -82.657)" fill="#ff73b5"/>
      <g id="Grupo_53575" data-name="Grupo 53575" transform="translate(4.029 6.67)">
        <path id="Trazado_100266" data-name="Trazado 100266" d="M265.74,89.327l25.109,28.808h8.12L272.495,89.748Z" transform="translate(-265.74 -89.327)" fill="#f4f6f9"/>
        <path id="Trazado_100267" data-name="Trazado 100267" d="M278.756,90.138l27.225,27.934H314L286.062,90.594Z" transform="translate(-264.75 -89.265)" fill="#f4f6f9"/>
        <path id="Trazado_100268" data-name="Trazado 100268" d="M292.385,90.988l28.621,27.02h8.06L299.8,91.451Z" transform="translate(-263.713 -89.2)" fill="#f4f6f9"/>
        <path id="Trazado_100269" data-name="Trazado 100269" d="M313.75,92.32l-7.53-.469,29.872,26.091h8.1Z" transform="translate(-262.66 -89.135)" fill="#f4f6f9"/>
      </g>
      <path id="Trazado_100270" data-name="Trazado 100270" d="M341.514,116.1a4.007,4.007,0,1,0,8.009,0Z" transform="translate(-255.944 -80.62)" fill="#ff73b5"/>
      <path id="Trazado_100271" data-name="Trazado 100271" d="M314.9,133.52c-3.5-8.077-12.4-12-19.861-8.762s-10.673,12.412-7.168,20.489,12.4,12,19.861,8.763S318.407,141.6,314.9,133.52ZM303.9,145.031l.3,2.275-2.187.287-.279-2.119a9.066,9.066,0,0,1-3.918-.461l.326-2.7a7.938,7.938,0,0,0,3.832.494c1.272-.167,2.077-.772,1.96-1.664-.111-.848-.9-1.289-2.619-1.63-2.492-.49-4.268-1.391-4.552-3.554-.258-1.963.923-3.685,3.248-4.467l-.278-2.119,2.186-.287.258,1.964a8.108,8.108,0,0,1,3.332.31l-.316,2.606a7.466,7.466,0,0,0-3.312-.337c-1.45.19-1.836.877-1.754,1.5.1.736.939,1.1,2.929,1.566,2.779.589,4.01,1.674,4.274,3.682C307.586,142.368,306.4,144.248,303.9,145.031Z" transform="translate(-260.135 -80.047)" fill="#f4f6f9" opacity="0.63"/>
      <g id="Grupo_53576" data-name="Grupo 53576" transform="translate(24.725 83.611)" opacity="0.63">
        <path id="Trazado_100272" data-name="Trazado 100272" d="M323.023,174.548l-34.163,1.035a2.428,2.428,0,0,1-2.475-2.063L285,164.413a2.43,2.43,0,0,1,2.346-2.794l34.2-.792A2.43,2.43,0,0,1,324,162.891l1.347,8.865A2.428,2.428,0,0,1,323.023,174.548Z" transform="translate(-284.972 -160.826)" fill="#f4f6f9"/>
        <path id="Trazado_100273" data-name="Trazado 100273" d="M323.991,180.88l-34.142,1.168a2.43,2.43,0,0,1-2.486-2.063l-.013-.085a2.43,2.43,0,0,1,2.326-2.794l34.156-1.083a2.429,2.429,0,0,1,2.478,2.063h0A2.43,2.43,0,0,1,323.991,180.88Z" transform="translate(-284.793 -159.67)" fill="#f4f6f9"/>
      </g>
    </g>
  </g>
</svg>
