<svg xmlns="http://www.w3.org/2000/svg" width="148.275" height="150.172" viewBox="0 0 148.275 150.172">
  <g id="Grupo_53585" data-name="Grupo 53585" transform="translate(0.5)">
    <g id="Grupo_53582" data-name="Grupo 53582" transform="translate(0 0.42)">
      <g id="Grupo_53581" data-name="Grupo 53581" transform="translate(8.995)">
        <circle id="Elipse_3961" data-name="Elipse 3961" cx="63.899" cy="63.899" r="63.899" transform="translate(0 10.976)" fill="#732be5" opacity="0.5"/>
        <g id="Grupo_53580" data-name="Grupo 53580" transform="translate(70.148)">
          <path id="Trazado_100274" data-name="Trazado 100274" d="M941.42,337.93c0-37.939-28.238-68.715-63.141-68.915v-5.96c37.936.2,68.632,33.645,68.632,74.875s-30.7,74.676-68.632,74.877v-5.961C913.182,406.645,941.42,375.87,941.42,337.93Z" transform="translate(-878.279 -263.055)" fill="#732be5"/>
        </g>
      </g>
      <circle id="Elipse_3962" data-name="Elipse 3962" cx="72.895" cy="72.895" r="72.895" transform="translate(0 1.981)" fill="none" stroke="#732be5" stroke-miterlimit="10" stroke-width="1" stroke-dasharray="12"/>
    </g>
    <g id="Grupo_53584" data-name="Grupo 53584" transform="translate(26.22)">
      <path id="Trazado_100275" data-name="Trazado 100275" d="M832.343,286.631v38.455c0,13.465,8.524,29.838,19.043,36.57,1.485.952,2.962,1.894,4.447,2.845l10.57,28.209,10.569-14.671q2.227,1.413,4.447,2.844c.429.275.858.531,1.279.759,4.752,2.644,9.026,2.745,12.2.714l.247-.164c3.3-2.269,5.33-6.934,5.33-13.5V330.245c0-13.473-8.531-29.848-19.051-36.58q-15.012-9.6-30.033-19.218c-5.156-3.3-9.835-3.677-13.259-1.61-.066.037-.14.082-.206.127C834.472,275.17,832.343,279.9,832.343,286.631Z" transform="translate(-832.343 -262.635)" fill="#02cddb"/>
      <path id="Trazado_100276" data-name="Trazado 100276" d="M910.338,373.489c3.449-2.2,5.577-6.946,5.577-13.673V321.342c0-13.472-8.523-29.854-19.042-36.59q-15.013-9.61-30.033-19.237c-5.264-3.368-10.025-3.678-13.465-1.473q-7.637,4.874-15.248,9.766c3.424-2.069,8.1-1.693,13.259,1.611q15.012,9.61,30.033,19.227c10.52,6.736,19.051,23.118,19.051,36.6V369.71c0,6.571-2.03,11.238-5.33,13.508Q902.739,378.357,910.338,373.489Z" transform="translate(-832.343 -262.635)" fill="#02b8c4"/>
      <path id="Trazado_100277" data-name="Trazado 100277" d="M876.972,367.659,866.4,380.9l15.453-8.924.842-1.065c-.421-.206-.85-.437-1.279-.685Q879.2,368.939,876.972,367.659Z" transform="translate(-832.343 -250.824)" fill="#02b8c4"/>
      <g id="Grupo_53583" data-name="Grupo 53583" transform="translate(17.764 49.221)">
        <path id="Trazado_100278" data-name="Trazado 100278" d="M863.9,308.549a1.026,1.026,0,0,0-.887-.144l-.886.375-4.828-2.79c-1.86-1.074-3.456-.61-3.721,1.085l-.436,2.785,2.532,1.463.386-2.462c.083-.565.622-.719,1.239-.362l5.347,3.089a1.021,1.021,0,0,0,.886.144l.887-.374,3.976,2.3.886,1.4a2.673,2.673,0,0,0,.886.879l5.347,3.089a2.714,2.714,0,0,1,1.244,1.8l.381,2.906,2.532,1.462-.436-3.289a8.093,8.093,0,0,0-3.721-5.383l-4.828-2.789-.886-1.4a2.682,2.682,0,0,0-.886-.879Zm-12.535,2.793c-.691-.4-1.254-.161-1.254.53v2.508a2.608,2.608,0,0,0,1.254,1.979l.21.121,1.95,12.825a5.4,5.4,0,0,0,2.471,3.525l20.821,12.028c1.228.709,2.271.425,2.477-.666l1.949-10.574.2.119c.691.4,1.254.161,1.254-.53V330.7a2.608,2.608,0,0,0-1.254-1.979Zm21.309,18.581a2.6,2.6,0,0,1,1.253,1.978v6.271c0,.691-.562.929-1.253.53a2.6,2.6,0,0,1-1.253-1.978v-6.271c0-.691.562-.929,1.253-.53ZM866.4,326.3a2.608,2.608,0,0,1,1.253,1.978v6.271c0,.691-.563.929-1.253.53a2.606,2.606,0,0,1-1.254-1.978v-6.271c0-.691.563-.929,1.254-.53Zm-6.268-3.621a2.608,2.608,0,0,1,1.254,1.979v6.271c0,.691-.563.929-1.254.53a2.608,2.608,0,0,1-1.253-1.979v-6.27c0-.691.563-.93,1.253-.531Z" transform="translate(-850.107 -305.414)" fill="#fbfafc"/>
      </g>
    </g>
  </g>
</svg>
