<svg id="Grupo_53592" data-name="Grupo 53592" xmlns="http://www.w3.org/2000/svg" xmlns:xlink="http://www.w3.org/1999/xlink" width="167" height="167" viewBox="0 0 167 167">
  <defs>
    <linearGradient id="linear-gradient" x1="9.662" y1="0.5" x2="10.662" y2="0.5" gradientUnits="objectBoundingBox">
      <stop offset="0" stop-color="#e6eced"/>
      <stop offset="1" stop-color="#c8d1dd"/>
    </linearGradient>
  </defs>
  <g id="Grupo_53591" data-name="Grupo 53591" transform="translate(9.612 8.624)">
    <g id="Grupo_53589" data-name="Grupo 53589">
      <g id="Grupo_53588" data-name="Grupo 53588">
        <circle id="Elipse_3963" data-name="Elipse 3963" cx="63.899" cy="63.899" r="63.899" transform="translate(10.981 10.977)" fill="#b894f2"/>
        <g id="Grupo_53587" data-name="Grupo 53587">
          <path id="Trazado_100279" data-name="Trazado 100279" d="M231.862,525.82C231.862,487.88,260.1,457.1,295,456.9v-5.96c-37.936.2-68.632,33.645-68.632,74.877s30.7,74.675,68.632,74.875v-5.96C260.1,594.534,231.862,563.758,231.862,525.82Z" transform="translate(-226.371 -450.943)" fill="#732be5"/>
        </g>
      </g>
      <circle id="Elipse_3964" data-name="Elipse 3964" cx="72.895" cy="72.895" r="72.895" transform="translate(1.986 1.981)" fill="none" stroke="#732be5" stroke-miterlimit="10" stroke-width="1" stroke-dasharray="12"/>
    </g>
    <g id="Grupo_53590" data-name="Grupo 53590" transform="translate(19.887 -13.753)">
      <path id="Trazado_100280" data-name="Trazado 100280" d="M254.164,506.347c-.377-1.827-.752-3.924-1.249-5.552l.579-.113,1.032.728c2.808,12.349,2.733,11.961,2.733,12.042l5.684,2.687c.09,0-1.11.235,9.611-2.039l65.6-33.862,3.095,8.127c5.351,23.606,4.137,18.339,4.507,19.908L264.21,550.356C258.98,527.111,254.292,506.969,254.164,506.347Z" transform="translate(-248.046 -433.212)" fill="#596876"/>
      <path id="Trazado_100281" data-name="Trazado 100281" d="M263.129,496.948l-8.716,5.038,15.929,12.539,8.716-5.038Z" transform="translate(-248.101 -433.21)" fill="#f4f6f9"/>
      <path id="Trazado_100282" data-name="Trazado 100282" d="M267.1,531.372l12.484-7.2a2.746,2.746,0,0,1,4.062,1.83l1.45,7.107a2.744,2.744,0,0,1-1.318,2.927l-12.483,7.2a2.745,2.745,0,0,1-4.061-1.83l-1.45-7.109A2.744,2.744,0,0,1,267.1,531.372Z" transform="translate(-244.479 -434.858)" fill="#0ef"/>
      <path id="Trazado_100283" data-name="Trazado 100283" d="M272.3,491.648l-8.716,5.038,15.929,12.539,8.732-5.038C271.889,491.313,272.379,491.648,272.3,491.648Z" transform="translate(-247.995 -432.629)" fill="#ff73b5"/>
      <path id="Trazado_100284" data-name="Trazado 100284" d="M281.373,486.348l-8.6,4.9,15.721,12.187,8.6-4.881Z" transform="translate(-248.404 -431.874)" fill="#f4f6f9"/>
      <path id="Trazado_100285" data-name="Trazado 100285" d="M281.94,486.085l15.93,12.555L306.6,493.6l-15.945-12.555Z" transform="translate(-249.081 -431.126)" fill="#ff73b5"/>
      <path id="Trazado_100286" data-name="Trazado 100286" d="M289.44,520.637l1.459,7.108a2.746,2.746,0,0,0,4.063,1.826l12.485-7.212a2.748,2.748,0,0,0,1.316-2.93l-1.459-7.1a2.745,2.745,0,0,0-4.061-1.825l-12.485,7.2A2.747,2.747,0,0,0,289.44,520.637Z" transform="translate(-242.317 -434.181)" fill="#e8b210"/>
      <path id="Trazado_100287" data-name="Trazado 100287" d="M291.111,480.785l15.945,12.555,8.716-5.038-15.93-12.555Z" transform="translate(-249.436 -430.67)" fill="#f4f6f9"/>
      <path id="Trazado_100288" data-name="Trazado 100288" d="M290.051,554.936l2.575,1.471v-4.3c-.864.5-1.712.992-2.575,1.488Z" transform="translate(-243.797 -437.424)" fill="#a5b3bf"/>
      <path id="Trazado_100289" data-name="Trazado 100289" d="M292.76,551.818v4.3l9.564-5.518v-4.3C300.252,547.495,294.555,550.776,292.76,551.818Z" transform="translate(-243.932 -437.138)" fill="#c8d1dd"/>
      <path id="Trazado_100290" data-name="Trazado 100290" d="M301.125,550.343l-9.2,5.309-2.478-1.416-6.494,3.754,6.941,4a8.665,8.665,0,0,0,7.864.261l14.82-8.54a2.382,2.382,0,0,0,1.385-2.032,1.354,1.354,0,0,0-.016-.354,2.447,2.447,0,0,0-.692-1.261c-.6-.659-.561-.55-8.094-4.91l-4.032,2.34Z" transform="translate(-243.022 -437.577)" fill="#dfe3e7"/>
      <path id="Trazado_100291" data-name="Trazado 100291" d="M312.573,507.29l1.45,7.106a2.745,2.745,0,0,0,4.063,1.829l12.483-7.211a2.747,2.747,0,0,0,1.317-2.927l-1.45-7.106a2.747,2.747,0,0,0-4.064-1.829l-12.483,7.212A2.745,2.745,0,0,0,312.573,507.29Z" transform="translate(-238.312 -433.52)" fill="#00ffc4"/>
      <path id="Trazado_100292" data-name="Trazado 100292" d="M312.574,554.322l-14.82,8.54a8.668,8.668,0,0,1-7.864-.261l-6.941-4v2.847c7.505,4.327,7.5,4.435,8.818,4.77a8.456,8.456,0,0,0,5.986-.492c16.2-9.351,14.944-8.6,15.343-8.925a2.237,2.237,0,0,0,.877-1.663V552.29h-.016A2.382,2.382,0,0,1,312.574,554.322Z" transform="translate(-243.021 -438.186)" fill="#a5b3bf"/>
      <path id="Trazado_100293" data-name="Trazado 100293" d="M326.709,452.826a2.563,2.563,0,0,0-1.767.258l-76.482,40.236a4.533,4.533,0,0,0-2.1,4.763c14.422,64.693,13.437,60.434,13.671,61.031a2.444,2.444,0,0,0,1.573,1.368c7.292,1.759,5.172,1.415,4.645.934h-.018a2.2,2.2,0,0,1-.583-.724c-.286-.259-.56-1.814-1.307-5.182-.022-.081-.359-1.47-.689-2.945-1.332-5.7,4.136,18.61-11.817-53.144a3.537,3.537,0,0,1,0-1.69,1.584,1.584,0,0,1,.124-.5,1.85,1.85,0,0,1,.176-.5,1.314,1.314,0,0,1,.088-.241,4.422,4.422,0,0,1,2.3-2.125c6.48-3.364,75.971-40.046,76.43-40.14a2.258,2.258,0,0,1,.813-.112.073.073,0,0,1,.054.015.721.721,0,0,1,.194.016C331.915,454.146,332.99,454.357,326.709,452.826Z" transform="translate(-246.258 -432.026)" fill="#a5b3bf"/>
      <path id="Trazado_100294" data-name="Trazado 100294" d="M81.565,5.057C80.872,2.27,80.8,1.171,80.451.606A1.236,1.236,0,0,0,78.944.069c-.516.148-.814.491-2.1,1.073-.753.39-1.507.812-2.279,1.219C71.826,3.816,14.195,32.944,14.1,32.992c-3.213,1.723-6.356,3.4-9.5,5.006C.519,40.061.785,39.934.4,40.344c-.771.785-.244,2.216,0,3.238l.125.467,1.023.731C16.689,36.86,68.562,9.736,79.859,3.855Z" transform="translate(5.083 23.867)" fill="#596876"/>
      <path id="Trazado_100295" data-name="Trazado 100295" d="M345.668,506.65l-81.375,41.583c-4.6-20.237-9.958-43.159-10.025-43.486-.344-1.647-.632-3.247-1.084-4.943-.346-1.122-.644-2.461.29-3.39.289-.3.415-.715.794-.907,1.3-.672,2.8-1.076,4.064-1.7,3.16-1.583,6.412-3.326,9.645-5.021.1-.053,64.441-32.9,64.54-32.931a1.257,1.257,0,0,1,1.517.528c.352.561.312,1.2,1.121,4.382l1.734,1.216c-.126-.566-1.227-5.4-1.427-6.11a2.6,2.6,0,0,0-.958-1.3.1.1,0,0,0-.055-.031,1.931,1.931,0,0,0-.361-.192c-.188-.067-.336-.112-.344-.112h-.035a.027.027,0,0,0-.036,0,.7.7,0,0,0-.307-.049,1.974,1.974,0,0,0-.56.016c-.761.112-77.761,39.635-79.081,40.272a4.789,4.789,0,0,0-.976.736,4.64,4.64,0,0,0-1.173,2.3,3.507,3.507,0,0,0,0,1.68c14.731,64.29,13.775,60.253,14.107,60.871a2.4,2.4,0,0,0,1.518,1.152,2.508,2.508,0,0,0,1.607-.176c.089-.027,69.159-35.342,69.273-35.41,9.772-5,9.357-4.662,9.952-5.278a.94.94,0,0,0,.271-.256.867.867,0,0,0,.108-.127,3.278,3.278,0,0,0,.307-.449,4.469,4.469,0,0,0,.687-1.854c.11-1.02.015-1.117-.542-3.567-.018-.1-.055-.192-.072-.288-.107-.409-4.333-17.567-8.777-36.8l-1.3.656C343.782,499.809,345.221,504.772,345.668,506.65Z" transform="translate(-248.256 -431.775)" fill="url(#linear-gradient)"/>
      <path id="Trazado_100298" data-name="Trazado 100298" d="M300.3,475.485l15.93,12.555L324.944,483l-15.93-12.555Z" transform="translate(-249.902 -429.625)" fill="#ff73b5"/>
      <path id="Trazado_100299" data-name="Trazado 100299" d="M318.639,464.884c.08.08-.383-.3,15.946,12.555L343.3,472.4c-16.523-13.014-14.16-11.161-15.929-12.539Z" transform="translate(-252.301 -427.943)" fill="#ff73b5"/>
      <path id="Trazado_100300" data-name="Trazado 100300" d="M318.185,465.146l-8.717,5.039,15.93,12.554,8.732-5.038C317.775,464.828,318.264,465.226,318.185,465.146Z" transform="translate(-251.205 -428.867)" fill="#f4f6f9"/>
      <path id="Trazado_102623" data-name="Trazado 102623" d="M318.185,465.173l-8.717,5.039,15.93,12.554,7.071-7.372C316.114,462.52,318.264,465.253,318.185,465.173Z" transform="translate(-234.425 -438.227)" fill="#f4f6f9"/>
      <path id="Trazado_100301" data-name="Trazado 100301" d="M270.362,514.744l-16.067-12.232c2.48,12.2,2.552,11.513,2.552,11.593,3,1.587,5.243,2.776,7.006,3.714A4.493,4.493,0,0,0,270.362,514.744Z" transform="translate(-247.848 -433.68)" fill="#ff73b5"/>
      <path id="Trazado_100302" data-name="Trazado 100302" d="M280.342,509.878l.825,2.356a4.953,4.953,0,1,0,9.35-3.273l-1.443-4.121Z" transform="translate(-249.121 -433.282)" fill="#ff73b5"/>
      <path id="Trazado_100303" data-name="Trazado 100303" d="M281.334,514.271l-1.446-4.131-8.716,5.039.826,2.36a4.946,4.946,0,1,0,9.336-3.268Z" transform="translate(-248.754 -434.181)" fill="#f4f6f9"/>
      <path id="Trazado_100304" data-name="Trazado 100304" d="M289.529,504.578l.827,2.362a4.945,4.945,0,1,0,9.333-3.27l-1.443-4.115Z" transform="translate(-249.572 -433.037)" fill="#f4f6f9"/>
      <path id="Trazado_100305" data-name="Trazado 100305" d="M298.7,499.294l.822,2.345a4.95,4.95,0,0,0,9.344-3.268l-1.434-4.115Z" transform="translate(-250.881 -432.425)" fill="#ff73b5"/>
      <path id="Trazado_100306" data-name="Trazado 100306" d="M318.044,493.063l-1.441-4.107-8.716,5.038.815,2.337a4.949,4.949,0,1,0,9.342-3.268Z" transform="translate(-250.882 -431.288)" fill="#f4f6f9"/>
      <path id="Trazado_100307" data-name="Trazado 100307" d="M325.019,493.7a4.947,4.947,0,0,0,2.2-5.919l-1.444-4.126-8.717,5.039.827,2.358A4.945,4.945,0,0,0,325.019,493.7Z" transform="translate(-251.683 -431.1)" fill="#ff73b5"/>
      <path id="Trazado_100297" data-name="Trazado 100297" d="M337.715,482.778l-1.645-4.423-9.842,5.341.958,2.577a5.642,5.642,0,0,0,7.954,2.775A5.05,5.05,0,0,0,337.715,482.778Z" transform="translate(-253.458 -431.024)" fill="#f4f6f9"/>
      <path id="Trazado_100296" data-name="Trazado 100296" d="M335.415,478.093l.826,2.36a4.945,4.945,0,0,0,9.336-3.267l-1.446-4.131Z" transform="translate(-254.612 -431.079)" fill="#ff73b5"/>
      <path id="Trazado_102624" data-name="Trazado 102624" d="M337.715,482.778l-1.645-4.423-9.842,5.341.958,2.577a5.642,5.642,0,0,0,7.954,2.775A5.05,5.05,0,0,0,337.715,482.778Z" transform="translate(-238.003 -441.292)" fill="#f4f6f9"/>
    </g>
  </g>
  <rect id="Rectángulo_5055" data-name="Rectángulo 5055" width="167" height="167" fill="none"/>
</svg>
