<svg id="Grupo_53592" data-name="Grupo 53592" xmlns="http://www.w3.org/2000/svg" xmlns:xlink="http://www.w3.org/1999/xlink" width="167" height="167" viewBox="0 0 167 167">
  <defs>
    <linearGradient id="linear-gradient" x1="9.662" y1="0.5" x2="10.662" y2="0.5" gradientUnits="objectBoundingBox">
      <stop offset="0" stop-color="#e6eced"/>
      <stop offset="1" stop-color="#c8d1dd"/>
    </linearGradient>
  </defs>
  <g id="Grupo_53591" data-name="Grupo 53591" transform="translate(9.612 8.624)">
    <g id="Grupo_53589" data-name="Grupo 53589">
      <g id="Grupo_53588" data-name="Grupo 53588">
        <circle id="Elipse_3963" data-name="Elipse 3963" cx="63.899" cy="63.899" r="63.899" transform="translate(10.981 10.977)" fill="#732be5" opacity="0.5"/>
        <g id="Grupo_53587" data-name="Grupo 53587">
          <path id="Trazado_100279" data-name="Trazado 100279" d="M231.862,525.82C231.862,487.88,260.1,457.1,295,456.9v-5.96c-37.936.2-68.632,33.645-68.632,74.877s30.7,74.675,68.632,74.875v-5.96C260.1,594.534,231.862,563.758,231.862,525.82Z" transform="translate(-226.371 -450.943)" fill="#732be5"/>
        </g>
      </g>
      <circle id="Elipse_3964" data-name="Elipse 3964" cx="72.895" cy="72.895" r="72.895" transform="translate(1.986 1.981)" fill="none" stroke="#732be5" stroke-miterlimit="10" stroke-width="1" stroke-dasharray="12"/>
    </g>
    <g id="Grupo_53590" data-name="Grupo 53590" transform="translate(19.887 1.824)">
      <path id="Trazado_100280" data-name="Trazado 100280" d="M254.235,507.381c-.4-1.9-.795-4.079-1.32-5.772l.612-.117,1.09.757c2.967,12.838,2.889,12.435,2.889,12.519l6.007,2.793c.1,0-1.173.244,10.158-2.12l69.324-35.2,3.271,8.449c5.655,24.541,4.372,19.065,4.763,20.7l-86.177,43.749C259.325,528.967,254.37,508.027,254.235,507.381Z" transform="translate(-246.258 -452.767)" fill="#596876"/>
      <path id="Trazado_100281" data-name="Trazado 100281" d="M263.583,496.948l-9.17,5.3,16.759,13.192,9.17-5.3Z" transform="translate(-246.258 -452.767)" fill="#f4f6f9"/>
      <path id="Trazado_100282" data-name="Trazado 100282" d="M267.168,531.766l13.134-7.575a2.889,2.889,0,0,1,4.274,1.925l1.525,7.477a2.887,2.887,0,0,1-1.387,3.079l-13.133,7.575a2.888,2.888,0,0,1-4.273-1.925l-1.526-7.479A2.887,2.887,0,0,1,267.168,531.766Z" transform="translate(-243.373 -452.767)" fill="#0ef"/>
      <path id="Trazado_100283" data-name="Trazado 100283" d="M272.753,491.648l-9.17,5.3,16.759,13.192,9.187-5.3C272.322,491.3,272.837,491.648,272.753,491.648Z" transform="translate(-243.5 -452.767)" fill="#ff73b5"/>
      <path id="Trazado_100284" data-name="Trazado 100284" d="M281.94,486.348l-9.17,5.3,16.759,13.192,9.17-5.284Z" transform="translate(-242.038 -452.767)" fill="#f4f6f9"/>
      <path id="Trazado_100285" data-name="Trazado 100285" d="M281.94,486.348,298.7,499.556l9.187-5.3-16.776-13.209Z" transform="translate(-240.577 -452.767)" fill="#ff73b5"/>
      <path id="Trazado_100286" data-name="Trazado 100286" d="M289.443,521.184l1.535,7.478a2.889,2.889,0,0,0,4.275,1.921l13.135-7.588a2.891,2.891,0,0,0,1.385-3.083l-1.535-7.467a2.888,2.888,0,0,0-4.273-1.92L290.83,518.1A2.889,2.889,0,0,0,289.443,521.184Z" transform="translate(-239.866 -452.767)" fill="#e8b210"/>
      <path id="Trazado_100287" data-name="Trazado 100287" d="M291.111,481.047l16.776,13.209,9.17-5.3L300.3,475.747Z" transform="translate(-239.118 -452.767)" fill="#f4f6f9"/>
      <path id="Trazado_100288" data-name="Trazado 100288" d="M290.051,555.084l2.709,1.548V552.1c-.909.522-1.8,1.044-2.709,1.565Z" transform="translate(-240.949 -452.767)" fill="#a5b3bf"/>
      <path id="Trazado_100289" data-name="Trazado 100289" d="M292.76,552.1v4.527l10.062-5.8V546.3C300.642,547.557,294.648,551.009,292.76,552.1Z" transform="translate(-240.16 -452.767)" fill="#c8d1dd"/>
      <path id="Trazado_100290" data-name="Trazado 100290" d="M302.822,550.827l-10.062,5.8-2.709-1.548-7.1,4.105,7.589,4.375a9.474,9.474,0,0,0,8.6.286l16.2-9.338a2.6,2.6,0,0,0,1.514-2.222,1.481,1.481,0,0,0-.017-.387,2.676,2.676,0,0,0-.757-1.379c-.659-.72-.613-.6-8.85-5.368l-4.409,2.558Z" transform="translate(-239.714 -452.767)" fill="#dfe3e7"/>
      <path id="Trazado_100291" data-name="Trazado 100291" d="M312.576,507.837l1.526,7.476a2.888,2.888,0,0,0,4.275,1.924l13.133-7.587a2.89,2.89,0,0,0,1.386-3.079l-1.525-7.476a2.89,2.89,0,0,0-4.276-1.924l-13.133,7.588A2.888,2.888,0,0,0,312.576,507.837Z" transform="translate(-234.447 -452.767)" fill="#00ffc4"/>
      <path id="Trazado_100292" data-name="Trazado 100292" d="M315.341,554.512l-16.2,9.338a9.477,9.477,0,0,1-8.6-.286l-7.589-4.375V562.3c8.206,4.731,8.2,4.849,9.642,5.216a9.246,9.246,0,0,0,6.545-.538c17.708-10.224,16.34-9.4,16.776-9.759a2.446,2.446,0,0,0,.959-1.818V552.29h-.017A2.6,2.6,0,0,1,315.341,554.512Z" transform="translate(-239.713 -452.767)" fill="#a5b3bf"/>
      <path id="Trazado_100293" data-name="Trazado 100293" d="M322.9,452.829a2.253,2.253,0,0,0-1.683.27l-72.858,42.066a4.931,4.931,0,0,0-2,4.98c13.739,67.635,12.8,63.182,13.023,63.806a2.4,2.4,0,0,0,1.5,1.43c6.946,1.839,4.927,1.479,4.425.976h-.017a2.278,2.278,0,0,1-.555-.757c-.272-.271-.533-1.9-1.245-5.418-.021-.085-.342-1.537-.656-3.079-1.269-5.961,3.94,19.456-11.257-55.561a4.047,4.047,0,0,1,0-1.767,1.788,1.788,0,0,1,.118-.521,2.06,2.06,0,0,1,.168-.522,1.461,1.461,0,0,1,.084-.252,4.378,4.378,0,0,1,2.187-2.222c6.173-3.517,72.371-41.867,72.808-41.965a1.975,1.975,0,0,1,.774-.117.065.065,0,0,1,.051.016.626.626,0,0,1,.185.017C327.856,454.209,328.88,454.429,322.9,452.829Z" transform="translate(-246.258 -452.767)" fill="#a5b3bf"/>
      <path id="Trazado_100294" data-name="Trazado 100294" d="M329.425,461.108c-.65-2.886-.719-4.025-1.044-4.61a1.11,1.11,0,0,0-1.413-.556c-.484.153-.763.508-1.969,1.111-.706.4-1.413.841-2.137,1.262-2.567,1.508-55.93,32.223-56.015,32.273-3.012,1.784-6.041,3.618-8.985,5.283-3.833,2.136-4.169,2.318-4.526,2.743a3.3,3.3,0,0,0-.421,2.995l.538-.117.959.757c14.192-8.2,62.823-36.295,73.414-42.386Z" transform="translate(-246.258 -452.767)" fill="#596876"/>
      <path id="Trazado_100295" data-name="Trazado 100295" d="M350.573,509.383,264.96,553.132c-4.838-21.291-10.476-45.407-10.548-45.751-.361-1.733-.665-3.416-1.141-5.2-.364-1.18-.678-2.589.3-3.567a3.917,3.917,0,0,1,1.1-.74c1.369-.707,2.68-1.346,4.011-2,3.325-1.665,6.746-3.5,10.148-5.283.106-.056,67.8-34.617,67.9-34.646a1.323,1.323,0,0,1,1.6.556c.37.59.329,1.266,1.179,4.61l1.824,1.279c-.132-.6-1.291-5.684-1.5-6.428a2.737,2.737,0,0,0-1.007-1.363.1.1,0,0,0-.058-.033,2.029,2.029,0,0,0-.379-.2c-.2-.07-.354-.118-.361-.118h-.037a.029.029,0,0,0-.038,0,.741.741,0,0,0-.323-.051,2.075,2.075,0,0,0-.59.017c-.8.118-81.811,41.7-83.2,42.369a5.037,5.037,0,0,0-1.027.774,4.881,4.881,0,0,0-1.234,2.423,3.69,3.69,0,0,0,0,1.767c15.5,67.638,14.493,63.391,14.842,64.041a2.53,2.53,0,0,0,1.6,1.212,2.639,2.639,0,0,0,1.691-.185c.094-.028,72.761-37.183,72.881-37.254,10.281-5.259,9.844-4.905,10.471-5.553a.991.991,0,0,0,.285-.269.919.919,0,0,0,.114-.134,3.443,3.443,0,0,0,.323-.472,4.7,4.7,0,0,0,.723-1.951c.115-1.073.016-1.175-.57-3.753-.019-.1-.058-.2-.076-.3-.113-.43-1.976-8.694-6.652-28.924l-1.368.69C351.172,511.973,350.1,507.407,350.573,509.383Z" transform="translate(-246.258 -452.767)" fill="url(#linear-gradient)"/>
      <path id="Trazado_100296" data-name="Trazado 100296" d="M335.415,478.355l.869,2.483a5.2,5.2,0,1,0,9.822-3.437l-1.521-4.346Z" transform="translate(-234.447 -452.767)" fill="#ff73b5"/>
      <path id="Trazado_100297" data-name="Trazado 100297" d="M336.951,482.744l-1.536-4.389-9.187,5.3.894,2.557a5.212,5.212,0,0,0,9.829-3.468Z" transform="translate(-234.447 -452.767)" fill="#f4f6f9"/>
      <path id="Trazado_100298" data-name="Trazado 100298" d="M300.3,475.747l16.759,13.209,9.17-5.3-16.759-13.209Z" transform="translate(-237.657 -452.767)" fill="#ff73b5"/>
      <path id="Trazado_100299" data-name="Trazado 100299" d="M318.639,465.146c.084.084-.4-.314,16.776,13.209l9.17-5.3c-17.384-13.692-14.9-11.742-16.759-13.192Z" transform="translate(-234.447 -452.767)" fill="#ff73b5"/>
      <path id="Trazado_100300" data-name="Trazado 100300" d="M318.639,465.146l-9.171,5.3,16.76,13.208,9.187-5.3C318.208,464.811,318.722,465.23,318.639,465.146Z" transform="translate(-234.447 -452.767)" fill="#f4f6f9"/>
      <path id="Trazado_100301" data-name="Trazado 100301" d="M271.172,515.441l-16.76-13.192c2.609,12.834,2.541,12.435,2.541,12.519,3.16,1.67,5.516,2.921,7.371,3.907A4.727,4.727,0,0,0,271.172,515.441Z" transform="translate(-246.258 -452.767)" fill="#ff73b5"/>
      <path id="Trazado_100302" data-name="Trazado 100302" d="M280.342,510.14l.868,2.479a5.211,5.211,0,1,0,9.837-3.443l-1.518-4.336Z" transform="translate(-241.742 -452.767)" fill="#ff73b5"/>
      <path id="Trazado_100303" data-name="Trazado 100303" d="M281.863,514.486l-1.521-4.346-9.17,5.3.869,2.483a5.2,5.2,0,1,0,9.822-3.438Z" transform="translate(-242.957 -452.767)" fill="#f4f6f9"/>
      <path id="Trazado_100304" data-name="Trazado 100304" d="M289.529,504.84l.87,2.485a5.2,5.2,0,1,0,9.819-3.44l-1.518-4.329Z" transform="translate(-240.526 -452.767)" fill="#f4f6f9"/>
      <path id="Trazado_100305" data-name="Trazado 100305" d="M298.7,499.556l.865,2.467a5.207,5.207,0,0,0,9.831-3.438l-1.509-4.329Z" transform="translate(-239.31 -452.767)" fill="#ff73b5"/>
      <path id="Trazado_100306" data-name="Trazado 100306" d="M318.573,493.277l-1.516-4.321-9.17,5.3.857,2.459a5.206,5.206,0,1,0,9.829-3.438Z" transform="translate(-238.094 -452.767)" fill="#f4f6f9"/>
      <path id="Trazado_100307" data-name="Trazado 100307" d="M325.434,494.223A5.2,5.2,0,0,0,327.747,488l-1.519-4.341-9.171,5.3.87,2.481A5.2,5.2,0,0,0,325.434,494.223Z" transform="translate(-236.879 -452.767)" fill="#ff73b5"/>
    </g>
  </g>
  <rect id="Rectángulo_5055" data-name="Rectángulo 5055" width="167" height="167" fill="none"/>
</svg>
