<svg id="Grupo_53599" data-name="Grupo 53599" xmlns="http://www.w3.org/2000/svg" width="167" height="167" viewBox="0 0 167 167">
  <g id="Grupo_53598" data-name="Grupo 53598" transform="translate(9.612 8.624)">
    <g id="Grupo_53595" data-name="Grupo 53595">
      <g id="Grupo_53594" data-name="Grupo 53594" transform="translate(8.995)">
        <circle id="Elipse_3965" data-name="Elipse 3965" cx="63.899" cy="63.899" r="63.899" transform="translate(0 10.977)" fill="#732be5" opacity="0.5"/>
        <g id="Grupo_53593" data-name="Grupo 53593" transform="translate(70.148)">
          <path id="Trazado_100308" data-name="Trazado 100308" d="M940.42,711.65c0-37.939-28.238-68.715-63.141-68.916v-5.96c37.936.2,68.632,33.645,68.632,74.877s-30.7,74.675-68.632,74.875v-5.96C912.182,780.364,940.42,749.588,940.42,711.65Z" transform="translate(-877.279 -636.773)" fill="#732be5"/>
        </g>
      </g>
      <circle id="Elipse_3966" data-name="Elipse 3966" cx="72.895" cy="72.895" r="72.895" transform="translate(0 1.981)" fill="none" stroke="#732be5" stroke-miterlimit="10" stroke-width="1" stroke-dasharray="12"/>
    </g>
    <g id="Grupo_53597" data-name="Grupo 53597" transform="translate(16.844 26.479)">
      <path id="Trazado_100309" data-name="Trazado 100309" d="M832.019,738.026l-5.228-1.213,9.907-6.476h4.342Z" transform="translate(-826.791 -657.998)" fill="#ff459d"/>
      <path id="Trazado_100310" data-name="Trazado 100310" d="M857.285,663.26c-16.842,9.729-30.494,29.647-30.494,44.495,0,7.315,3.324,12.024,8.707,13.762-.057,6.69-6.722,13.61-8.707,15.3,0,0,2.178.921,7.986-2.434a40.635,40.635,0,0,0,14.465-13.691,44.39,44.39,0,0,0,8.043-3.67c16.841-9.729,30.494-29.647,30.494-44.495s-13.653-18.992-30.494-9.263Z" transform="translate(-826.791 -657.998)" fill="#ff459d"/>
      <path id="Trazado_100311" data-name="Trazado 100311" d="M895.062,700.632c-13.235,7.646-23.964,23.3-23.964,34.966s10.729,14.925,23.964,7.28a47.719,47.719,0,0,0,6.321-4.419c2.086.945,5.572.974,11.367-2.374a18.8,18.8,0,0,0,6.275-5.338c-1.559.478-6.8,1.091-6.841-4.115,4.229-6.253,6.841-12.971,6.841-18.72,0-11.668-10.728-14.925-23.963-7.28Z" transform="translate(-826.791 -657.998)" fill="#5109c3"/>
      <path id="Trazado_100312" data-name="Trazado 100312" d="M862.512,664.473c-16.841,9.729-30.493,29.647-30.493,44.495,0,7.315,3.323,12.024,8.706,13.762-.056,6.69-6.721,13.61-8.706,15.3,0,0,2.178.921,7.986-2.434A40.621,40.621,0,0,0,854.469,721.9a44.362,44.362,0,0,0,8.043-3.67c16.842-9.729,30.494-29.647,30.494-44.495s-13.652-18.992-30.494-9.263Z" transform="translate(-826.791 -657.998)" fill="#ff73b5"/>
      <path id="Trazado_100313" data-name="Trazado 100313" d="M900.29,701.845c-13.235,7.645-23.964,23.3-23.964,34.966s10.729,14.925,23.964,7.28a47.73,47.73,0,0,0,6.321-4.419c2.085.945,5.572.974,11.366-2.374a18.8,18.8,0,0,0,6.276-5.338c-1.559.478-6.8,1.091-6.842-4.115,4.23-6.253,6.842-12.971,6.842-18.72,0-11.668-10.729-14.925-23.963-7.28Z" transform="translate(-826.791 -657.998)" fill="#732be5"/>
      <g id="Grupo_53596" data-name="Grupo 53596" transform="translate(18.074 14.18)">
        <path id="Trazado_100314" data-name="Trazado 100314" d="M855.152,690.16,851.59,692.6l.459,14.794-3.128,2.138-.458-14.794-3.5,2.392-.1-3.215,10.188-6.967Z" transform="translate(-844.865 -672.178)" fill="#fff"/>
        <path id="Trazado_100315" data-name="Trazado 100315" d="M860.318,702q-2.274,1.555-3.623.6t-1.435-3.78l-.015-.47a13.787,13.787,0,0,1,1.062-5.828,9.536,9.536,0,0,1,3.461-4.327q2.025-1.384,3.191-.527t1.253,3.679l.068,2.189-5.736,3.923-.017.086a1.588,1.588,0,0,0,.636,1.3q.529.3,1.483-.352a9.806,9.806,0,0,0,1.487-1.219,20.147,20.147,0,0,0,1.346-1.564l.828,2.035A13.565,13.565,0,0,1,862.6,700,13.2,13.2,0,0,1,860.318,702Zm-.451-10.592a2.9,2.9,0,0,0-1.085,1.393,5.913,5.913,0,0,0-.358,2.007l.02.049,2.7-1.847-.01-.322a2.418,2.418,0,0,0-.322-1.384C860.621,691.074,860.307,691.107,859.867,691.408Z" transform="translate(-844.865 -672.178)" fill="#fff"/>
        <path id="Trazado_100316" data-name="Trazado 100316" d="M869.438,685.861l.055-.038,1.146-4.813,3.506-2.4-2.7,8.6,3.217,4.71-3.507,2.4-1.459-3.158-.054.037-1.206,4.982-3.508,2.4,2.8-8.823-3.121-4.624,3.489-2.386Z" transform="translate(-844.865 -672.178)" fill="#fff"/>
        <path id="Trazado_100317" data-name="Trazado 100317" d="M878.585,672.178l.1,3.328,1.584-1.083.089,2.894-1.583,1.083.191,6.135c.014.479.1.774.25.884s.35.082.6-.087a4.049,4.049,0,0,0,.383-.287c.1-.082.216-.2.364-.35l.308,2.948q-.466.483-.845.81a10.059,10.059,0,0,1-.9.684q-1.545,1.055-2.379.5t-.909-2.941l-.191-6.16-1.4.955-.09-2.894,1.4-.955-.1-3.328Z" transform="translate(-844.865 -672.178)" fill="#fff"/>
      </g>
      <path id="Trazado_100318" data-name="Trazado 100318" d="M891.588,721.607l7.283,12.575,10.12-17.09Z" transform="translate(-826.791 -657.998)" fill="#fff"/>
    </g>
  </g>
  <rect id="Rectángulo_5056" data-name="Rectángulo 5056" width="167" height="167" fill="none"/>
</svg>
