<svg id="Grupo_53607" data-name="Grupo 53607" xmlns="http://www.w3.org/2000/svg" width="167" height="167" viewBox="0 0 167 167">
  <g id="Grupo_53606" data-name="Grupo 53606" transform="translate(9.612 7.415)">
    <g id="Grupo_53602" data-name="Grupo 53602" transform="translate(0 2.417)">
      <g id="Grupo_53601" data-name="Grupo 53601">
        <circle id="Elipse_3967" data-name="Elipse 3967" cx="63.899" cy="63.899" r="63.899" transform="translate(10.981 10.977)" fill="#732be5" opacity="0.5"/>
        <g id="Grupo_53600" data-name="Grupo 53600">
          <path id="Trazado_100319" data-name="Trazado 100319" d="M230.862,899.537c0-37.939,28.238-68.714,63.141-68.915v-5.961c-37.936.2-68.632,33.646-68.632,74.876s30.7,74.675,68.632,74.877v-5.961C259.1,968.252,230.862,937.477,230.862,899.537Z" transform="translate(-225.371 -824.661)" fill="#732be5"/>
        </g>
      </g>
      <circle id="Elipse_3968" data-name="Elipse 3968" cx="72.895" cy="72.895" r="72.895" transform="translate(1.986 1.981)" fill="none" stroke="#732be5" stroke-miterlimit="10" stroke-width="1" stroke-dasharray="12"/>
    </g>
    <g id="Grupo_53605" data-name="Grupo 53605" transform="translate(37.834)">
      <g id="Grupo_53603" data-name="Grupo 53603">
        <path id="Trazado_100320" data-name="Trazado 100320" d="M325.583,912.476A94.153,94.153,0,0,1,324,925.629a24.283,24.283,0,0,1-16.846,19.163,67.607,67.607,0,0,1-18.719,2.878h-.307c-6.656-.042-13.83-3.809-19.026-9.2-3.989-4.159-6.815-9.27-7.291-14.381-.148-1.619-.243-3.375-.243-5.322,0-9.143,5.4-16.359,12.634-20.867a6.078,6.078,0,0,0,2.529,2,8.718,8.718,0,0,0,3.514.656,6.569,6.569,0,0,0,2.931-.667c1.248,4.762,6.444,7.608,11.375,7.608,6.91,0,9.735-4.645,10.846-11.322a6.091,6.091,0,0,0,2.5-1.482,21.789,21.789,0,0,0,4.433-6.7C321.953,888.561,325.583,902.889,325.583,912.476Z" transform="translate(-257.605 -810.433)" fill="#5515ba"/>
        <path id="Trazado_100321" data-name="Trazado 100321" d="M319.051,847.924c1.782,3.089,3.1,6.024,3.1,9.558,0,3.254-1.274,8.492-4.517,8.492a3.222,3.222,0,0,1-.707-.08,15.914,15.914,0,0,0,.554-4.552c0-2.09-.221-4.211-.221-6.149,0-2.335,1.871-3.786,1.871-6.1A8.106,8.106,0,0,0,319.051,847.924Z" transform="translate(-257.605 -819.419)" fill="#283c48"/>
        <path id="Trazado_100322" data-name="Trazado 100322" d="M315.32,858.916c-.054.072-.11.145-.168.217a18.886,18.886,0,0,0-2.078,1.8,17.446,17.446,0,0,1-3.138,1.565.561.561,0,0,1-.731-.463c0-2.79,3.808-4.988,5.756-7.365.058-.072.116-.143.171-.217.045-.058.088-.116.13-.174a.476.476,0,0,1,.844.14A4.871,4.871,0,0,1,315.32,858.916Z" transform="translate(-257.605 -819.03)" fill="#7f542e"/>
        <path id="Trazado_100323" data-name="Trazado 100323" d="M315.32,858.916l-.005.093c-.055.04-.11.08-.163.124C315.21,859.061,315.266,858.988,315.32,858.916Z" transform="translate(-257.605 -818.785)" fill="#d49063"/>
        <path id="Trazado_100324" data-name="Trazado 100324" d="M315.132,854.453c-.055.074-.113.145-.171.217-1.832-3.626-5.112-4.324-7.711-4.738a9.831,9.831,0,0,0-4.978.511c-2.392.889-4.975,1.459-6.882,3.241a9.7,9.7,0,0,0-1.1,1.238l-.007.009c-.048.064-.1.131-.145.2l-.008.008c-1.472,1.792-5.562,1.337-.4-10.973,1.953-4.661-1.147-7.3-3.492-10.758a32.936,32.936,0,0,1,8.91-2.987c1.4-.058,2.873-.384,4.292-.384,4.043,0,5.783,3.409,7.806,6.747a7.409,7.409,0,0,0,.859,1.738,30.6,30.6,0,0,1,4.29,3.918,11.117,11.117,0,0,1,2.661,5.485,8.106,8.106,0,0,1,.083,1.164c0,2.319-1.871,3.77-1.871,6.1,0,1.938.221,4.059.221,6.149a15.914,15.914,0,0,1-.554,4.552,9.08,9.08,0,0,1-.964,2.179h0c-.29-2.069-.767-2.864-.767-5.651,0-1.142.072-2.276.117-3.413l.005-.093a4.871,4.871,0,0,0,.786-4.5.476.476,0,0,0-.844-.14C315.22,854.337,315.177,854.4,315.132,854.453Z" transform="translate(-257.605 -822.244)" fill="#a26d42"/>
        <path id="Trazado_100325" data-name="Trazado 100325" d="M307.25,849.932c2.6.414,5.879,1.112,7.711,4.738-1.948,2.377-5.756,4.575-5.756,7.365a.561.561,0,0,0,.731.463,17.446,17.446,0,0,0,3.138-1.565,14.984,14.984,0,0,0-4.177,7.212,11.574,11.574,0,0,0-.2,1.173,10.754,10.754,0,0,0-.075,1.272c0,7.342,3.644,6.27,3.644,9.3,0,.982-.7,3.095-2.389,3.095-1.255,0-2.651-.974-3.569-.974H306.3a.687.687,0,0,0-.174,1.344c1.191.366,2.438.945,2.438,2.261a2.635,2.635,0,0,1-.118.748,11.944,11.944,0,0,1-5.743.947,7.9,7.9,0,0,1-2.106-.289,12.162,12.162,0,0,0,6.619,2.081c.146,0,.291,0,.435-.01a10.726,10.726,0,0,0-3.8,2.587,9.843,9.843,0,0,1-6.466,2.252,24.674,24.674,0,0,1-8.893-1.97q-.783-.361-1.554-.754v0c-.7-6.2-4.408-11.426-4.408-16.763a11.608,11.608,0,0,1,.261-2.46,3.989,3.989,0,0,1,2.29-2.814c4.162-1.819,5.886-9.668,9.054-14.036l.008-.008a1.873,1.873,0,0,0,.145-.2l.007-.009a9.7,9.7,0,0,1,1.1-1.238c1.907-1.782,4.49-2.352,6.882-3.241A9.831,9.831,0,0,1,307.25,849.932Zm2.563,27.162a1.627,1.627,0,0,0-1.089-.394,1.91,1.91,0,0,0-1.961,1.779,3.458,3.458,0,0,0,.266,1.077C307.193,878.44,308.8,877.373,309.813,877.094ZM302.446,866c0-1.173-.733-1.981-2.314-1.981-7.362,0-12.669,5.389-13.95,6.818,3.532-1.72,10.553-3.012,10.568-3.013C298.41,867.53,302.446,868.028,302.446,866Zm-5.414,7.932a.4.4,0,0,0-.591-.462c-.152.092-.3.181-.458.266a30.971,30.971,0,0,1-5.22,1.88c-.752.211-1.471.389-2.081.512a.534.534,0,0,0-.27.9,7.04,7.04,0,0,0,3.7,2.1l0,0a3.638,3.638,0,0,0,.464.032C295.214,879.164,296.431,875.847,297.032,873.929Z" transform="translate(-257.605 -818.239)" fill="#e6a57a"/>
        <path id="Trazado_100326" data-name="Trazado 100326" d="M314.058,864.854a.287.287,0,0,1,.479.239c-.186,2.061-.836,4.609-4.114,4.609h-.017a1.831,1.831,0,0,1-.63-1.373,2.167,2.167,0,0,1,.1-.633A17.726,17.726,0,0,0,314.058,864.854Z" transform="translate(-257.605 -818.075)" fill="#655fbf"/>
        <path id="Trazado_100327" data-name="Trazado 100327" d="M313.074,860.933a18.886,18.886,0,0,1,2.078-1.8A8.938,8.938,0,0,1,313.074,860.933Z" transform="translate(-257.605 -818.72)" fill="#7f542e"/>
        <path id="Trazado_100328" data-name="Trazado 100328" d="M310.952,885.152a1.911,1.911,0,0,1-1.723,1.815c.3.054.6.072.9.108-.083,1.619-.884,1.418-2.479,2.023-.144.007-.289.01-.435.01a12.162,12.162,0,0,1-6.619-2.081,7.9,7.9,0,0,0,2.106.289,11.944,11.944,0,0,0,5.743-.947A21.588,21.588,0,0,0,310.952,885.152Z" transform="translate(-257.605 -816.127)" fill="#b25055"/>
        <path id="Trazado_100329" data-name="Trazado 100329" d="M309.776,868.329a1.831,1.831,0,0,0,.63,1.373,3.953,3.953,0,0,1-1.705-.384,11.574,11.574,0,0,1,.2-1.173q.512-.218.979-.449A2.167,2.167,0,0,0,309.776,868.329Z" transform="translate(-257.605 -817.894)" fill="#f0dfbe"/>
        <path id="Trazado_100330" data-name="Trazado 100330" d="M308.724,876.7a1.627,1.627,0,0,1,1.089.394c-1.014.279-2.62,1.346-2.784,2.462a3.458,3.458,0,0,1-.266-1.077A1.91,1.91,0,0,1,308.724,876.7Z" transform="translate(-257.605 -816.997)" fill="#f1bc98"/>
        <path id="Trazado_100331" data-name="Trazado 100331" d="M261.848,867.114a3.829,3.829,0,0,0-2.231,3.84c0,2.605,1.466,5.942,3.49,8.688l.005.007a5.252,5.252,0,0,0,.855,1.083c1.988,2.357,4.344,4.055,6.356,4.055,1.669,0,3.532-1.164,3.532-4.031,0-6.112-7.388-13.712-11.429-13.712A2.016,2.016,0,0,0,261.848,867.114Zm47.408-37.061a19.619,19.619,0,0,0-8.747-1.94c-18.571,0-30.432,20.832-31.185,31.972-.5,7.375,7,14.119,7,21.086,0,3.065-1.269,6.017-4.432,6.017a11.026,11.026,0,0,1-4.355-1.167h-.005c-4.306-2.578-8.183-8.1-9.474-12.5a10.092,10.092,0,0,1-.456-2.8c0-3.009,1.521-5.426,3.459-7.744.71-.853,1.478-1.691,2.246-2.542,2.327-6.643,7.98-24.381,20.481-32.592a25.5,25.5,0,0,1,10.652-4.042,26.624,26.624,0,0,1,3.577-.239,12.97,12.97,0,0,1,5.073,1.09A27.947,27.947,0,0,1,309.256,830.053Z" transform="translate(-257.605 -822.244)" fill="#596876"/>
        <path id="Trazado_100332" data-name="Trazado 100332" d="M304.14,896.437a6.489,6.489,0,0,0,1.258-.256c-1.119,6.678-3.943,11.324-10.849,11.324-4.932,0-10.128-2.854-11.374-7.614a6.292,6.292,0,0,0,.848-.514c1.18,3.843,5.458,6.2,9.786,6.2C298.429,905.582,303.106,902.891,304.14,896.437Z" transform="translate(-257.605 -814.591)" fill="#9f3759"/>
        <path id="Trazado_100333" data-name="Trazado 100333" d="M302.192,896.334a6.491,6.491,0,0,0,1.948.1c-1.034,6.454-5.711,9.145-10.331,9.145-4.328,0-8.606-2.362-9.786-6.2a7.8,7.8,0,0,0,3.021-6.208,17.753,17.753,0,0,0-.111-1.956q.771.393,1.554.754A65.73,65.73,0,0,0,302.192,896.334Z" transform="translate(-257.605 -814.909)" fill="#c78154"/>
        <path id="Trazado_100334" data-name="Trazado 100334" d="M300.132,864.016c1.581,0,2.314.808,2.314,1.981,0,2.031-4.036,1.533-5.7,1.824-.015,0-7.036,1.293-10.568,3.013C287.463,869.405,292.77,864.016,300.132,864.016Z" transform="translate(-257.605 -818.084)" fill="#7f542e"/>
        <path id="Trazado_100335" data-name="Trazado 100335" d="M296.441,873.467a.4.4,0,0,1,.591.462c-.6,1.918-1.818,5.235-4.456,5.235a3.638,3.638,0,0,1-.464-.032l0,0a2.421,2.421,0,0,1-1.607-2.425,2.092,2.092,0,0,1,.261-1.092,30.971,30.971,0,0,0,5.22-1.88C296.138,873.648,296.289,873.559,296.441,873.467Z" transform="translate(-257.605 -817.194)" fill="#655fbf"/>
        <path id="Trazado_100336" data-name="Trazado 100336" d="M286.933,891.211v0a17.753,17.753,0,0,1,.111,1.956,7.8,7.8,0,0,1-3.021,6.208,6.292,6.292,0,0,1-.848.514,6.512,6.512,0,0,1-2.937.666c-2.638,0-4.721-.849-6.042-2.656a8.558,8.558,0,0,1-1.463-3.888c-8.112-1.8-14.727-10.85-14.727-19.2q0-.654.055-1.3c1.291,4.406,5.168,9.923,9.474,12.5h.005a9.129,9.129,0,0,0,4.618,1.45c3.934,0,6.916-1.988,6.916-6.792,0-5.029-3.515-9.807-5.33-14.248a20.041,20.041,0,0,1-.955-6.171c0-9.884,6.267-21.215,17.444-26.853,2.345,3.462,5.445,6.1,3.492,10.758-5.157,12.31-1.067,12.765.4,10.973-3.168,4.368-4.892,12.217-9.054,14.036a3.989,3.989,0,0,0-2.29,2.814,11.608,11.608,0,0,0-.261,2.46C282.525,879.785,286.236,885.013,286.933,891.211Z" transform="translate(-257.605 -822.244)" fill="#c48b5e"/>
        <path id="Trazado_100337" data-name="Trazado 100337" d="M288.487,891.967a24.674,24.674,0,0,0,8.893,1.97,9.843,9.843,0,0,0,6.466-2.252,10.726,10.726,0,0,1,3.8-2.587c1.6-.605,2.4-.4,2.479-2.023-.3-.036-.6-.054-.9-.108a1.911,1.911,0,0,0,1.723-1.815,21.588,21.588,0,0,1-2.507,1.217,2.635,2.635,0,0,0,.118-.748c0-1.316-1.247-1.895-2.438-2.261a.687.687,0,0,1,.174-1.344h.013c.918,0,2.314.974,3.569.974,1.689,0,2.389-2.113,2.389-3.095,0-3.035-3.644-1.963-3.644-9.3a10.754,10.754,0,0,1,.075-1.272,3.953,3.953,0,0,0,1.705.384h.017c3.278,0,3.928-2.548,4.114-4.609a.287.287,0,0,0-.479-.239,17.726,17.726,0,0,1-4.182,2.842q-.468.233-.979.449a14.984,14.984,0,0,1,4.177-7.212,8.938,8.938,0,0,0,2.078-1.8c.053-.044.108-.084.163-.124-.045,1.137-.117,2.271-.117,3.413,0,2.787.477,3.582.767,5.651a26.415,26.415,0,0,1,.217,3.705c0,1.17-.051,2.349-.133,3.513a56.814,56.814,0,0,1-3.73,12.7,21.823,21.823,0,0,1-4.427,6.707,6.261,6.261,0,0,1-2.494,1.478,6.4,6.4,0,0,1-3.206.153A65.73,65.73,0,0,1,288.487,891.967Z" transform="translate(-257.605 -817.308)" fill="#d49063"/>
        <path id="Trazado_100338" data-name="Trazado 100338" d="M290.5,876.705a2.421,2.421,0,0,0,1.607,2.425,7.04,7.04,0,0,1-3.7-2.1.534.534,0,0,1,.27-.9c.61-.123,1.329-.3,2.081-.512A2.092,2.092,0,0,0,290.5,876.705Z" transform="translate(-257.605 -817.073)" fill="#f0dfbe"/>
        <path id="Trazado_100339" data-name="Trazado 100339" d="M287.754,822.244a23.1,23.1,0,0,1,6.689,1.559,25.5,25.5,0,0,0-10.652,4.042,18.718,18.718,0,0,0-8.081-1.7c-.648,0-1.351.052-2.04.07v0A27.244,27.244,0,0,1,287.754,822.244Z" transform="translate(-257.605 -822.244)" fill="#a26d42"/>
        <path id="Trazado_100340" data-name="Trazado 100340" d="M275.71,826.143a18.718,18.718,0,0,1,8.081,1.7c-12.5,8.211-18.154,25.949-20.481,32.592-.768.851-1.536,1.689-2.246,2.542v0a24.771,24.771,0,0,1-2.035-8.946c0-12.87,6.152-22.69,14.642-27.82v0C274.359,826.2,275.062,826.143,275.71,826.143Z" transform="translate(-257.605 -822.244)" fill="#c48b5e"/>
        <path id="Trazado_100341" data-name="Trazado 100341" d="M271.895,887.188c3.163,0,4.432-2.952,4.432-6.017,0-6.967-7.5-13.711-7-21.086.753-11.14,12.614-31.972,31.185-31.972a19.619,19.619,0,0,1,8.747,1.94h0a38.569,38.569,0,0,1,7.132,12.385,30.6,30.6,0,0,0-4.29-3.918,7.409,7.409,0,0,1-.859-1.738c-2.023-3.338-3.763-6.747-7.806-6.747-1.419,0-2.889.326-4.292.384a32.936,32.936,0,0,0-8.91,2.987c-11.177,5.638-17.444,16.969-17.444,26.853a20.041,20.041,0,0,0,.955,6.171c1.815,4.441,5.33,9.219,5.33,14.248,0,4.8-2.982,6.792-6.916,6.792a9.129,9.129,0,0,1-4.618-1.45A11.026,11.026,0,0,0,271.895,887.188Z" transform="translate(-257.605 -822.244)" fill="#283c48"/>
        <path id="Trazado_100342" data-name="Trazado 100342" d="M269.324,879.132a2.642,2.642,0,0,1-2.588,2.929,2.406,2.406,0,0,1-.457-.052,12.588,12.588,0,0,1-4.314-4.872,3.03,3.03,0,0,1,.867-3.662,2.588,2.588,0,0,1,1.573-.543C266.159,872.932,269.324,876.555,269.324,879.132Z" transform="translate(-257.605 -817.096)" fill="#1a2738"/>
        <path id="Trazado_100343" data-name="Trazado 100343" d="M263.967,880.732c-.3-.348-.58-.711-.855-1.083l-.005-.007c-2.024-2.746-3.49-6.083-3.49-8.688a3.829,3.829,0,0,1,2.231-3.84,2.016,2.016,0,0,1,.578-.07c4.041,0,11.429,7.6,11.429,13.712,0,2.867-1.863,4.031-3.532,4.031C268.311,884.787,265.955,883.089,263.967,880.732Zm-2-3.595a12.588,12.588,0,0,0,4.314,4.872,2.406,2.406,0,0,0,.457.052,2.642,2.642,0,0,0,2.588-2.929c0-2.577-3.165-6.2-4.919-6.2a2.588,2.588,0,0,0-1.573.543A3.03,3.03,0,0,0,261.965,877.137Z" transform="translate(-257.605 -817.33)" fill="#c95b68"/>
      </g>
      <path id="Trazado_100344" data-name="Trazado 100344" d="M325.583,912.476A94.153,94.153,0,0,1,324,925.629a24.283,24.283,0,0,1-16.846,19.163,67.607,67.607,0,0,1-18.719,2.878h-.307c-6.656-.042-13.83-3.809-19.026-9.2.561.074,1.143.159,1.735.254,52.644,8.042,34.56-42.549,34.56-42.549a6.091,6.091,0,0,0,2.5-1.482,21.789,21.789,0,0,0,4.433-6.7C321.953,888.561,325.583,902.889,325.583,912.476Z" transform="translate(-257.605 -810.433)" fill="#3b0f82"/>
      <g id="Grupo_53604" data-name="Grupo 53604" transform="translate(7.378 60.714)">
        <path id="Trazado_100345" data-name="Trazado 100345" d="M298.875,890.7a2.6,2.6,0,0,1-2.169,1.6c-.275.043-.5.085-.678.106-1.608.286-.052.159-4.285.476a11.974,11.974,0,0,1-2.508.032,23.214,23.214,0,0,1-5-.55,15.3,15.3,0,0,1-2.444-.6,16.58,16.58,0,0,1-2.381-.8,27.284,27.284,0,0,1-14.37-13.153.519.519,0,0,1,.254-.7.372.372,0,0,1,.211-.053.515.515,0,0,1,.445.223,29.233,29.233,0,0,0,14.465,10.941,19.577,19.577,0,0,0,2.169.614,13.323,13.323,0,0,0,2.212.455,22.152,22.152,0,0,0,4.507.349c1.482.053.53.095,4.54-.243,2.18-.159,3.037-1.186,4.783.285A.861.861,0,0,1,298.875,890.7Z" transform="translate(-264.983 -877.047)" fill="#504a5e"/>
        <path id="Trazado_100346" data-name="Trazado 100346" d="M298.875,890.7a2.6,2.6,0,0,1-2.169,1.6c-.275.043-.5.085-.678.106a.913.913,0,0,0,.456-.751c0-1.048-1.069-1.27-2.106-1.27-.72,0-.826.074-2.476.074-12.074,0-20.063-4.2-26.4-13.407a.515.515,0,0,1,.445.223,29.233,29.233,0,0,0,14.465,10.941,19.577,19.577,0,0,0,2.169.614,13.323,13.323,0,0,0,2.212.455,22.152,22.152,0,0,0,4.507.349c1.482.053.53.095,4.54-.243,2.18-.159,3.037-1.186,4.783.285A.861.861,0,0,1,298.875,890.7Z" transform="translate(-264.983 -877.047)" fill="#383442"/>
      </g>
    </g>
  </g>
  <rect id="Rectángulo_5057" data-name="Rectángulo 5057" width="167" height="167" fill="none"/>
</svg>
