<svg id="Grupo_53632" data-name="Grupo 53632" xmlns="http://www.w3.org/2000/svg" width="167" height="167" viewBox="0 0 167 167">
  <g id="Grupo_53631" data-name="Grupo 53631" transform="translate(2.277 4.354)">
    <g id="Grupo_53610" data-name="Grupo 53610" transform="translate(14.671 8.54)">
      <g id="Grupo_53609" data-name="Grupo 53609" transform="translate(8.995)">
        <circle id="Elipse_3969" data-name="Elipse 3969" cx="63.899" cy="63.899" r="63.899" transform="translate(0 10.977)" fill="#732be5" opacity="0.5"/>
        <g id="Grupo_53608" data-name="Grupo 53608" transform="translate(70.148)">
          <path id="Trazado_100347" data-name="Trazado 100347" d="M940.42,1087.426c0-37.939-28.238-68.715-63.141-68.915v-5.961c37.936.2,68.632,33.646,68.632,74.876s-30.7,74.676-68.632,74.876v-5.961C912.182,1156.14,940.42,1125.365,940.42,1087.426Z" transform="translate(-877.279 -1012.549)" fill="#732be5"/>
        </g>
      </g>
      <circle id="Elipse_3970" data-name="Elipse 3970" cx="72.895" cy="72.895" r="72.895" transform="translate(0 1.982)" fill="none" stroke="#732be5" stroke-miterlimit="10" stroke-width="1" stroke-dasharray="12"/>
    </g>
    <g id="Grupo_53630" data-name="Grupo 53630" transform="translate(2 17.132)">
      <g id="Grupo_53619" data-name="Grupo 53619" transform="translate(0 11.754)">
        <g id="Grupo_53618" data-name="Grupo 53618">
          <g id="Grupo_53617" data-name="Grupo 53617" style="isolation: isolate">
            <g id="Grupo_53611" data-name="Grupo 53611" transform="translate(0 36.477)" opacity="0.1">
              <path id="Trazado_100348" data-name="Trazado 100348" d="M797.834,1090.579l88.082,53.859a4.924,4.924,0,0,0,5.155.008l46.5-28.249a5.556,5.556,0,0,0,.012-9.364L849.5,1052.973a4.924,4.924,0,0,0-5.155-.008l-46.5,28.249A5.556,5.556,0,0,0,797.834,1090.579Z" transform="translate(-795.275 -1052.24)" fill="#606060"/>
            </g>
            <g id="Grupo_53612" data-name="Grupo 53612" transform="translate(8.362 24.394)">
              <path id="Trazado_100349" data-name="Trazado 100349" d="M803.637,1040.347l.135,43.2,81.43,42.861-.135-43.2Z" transform="translate(-803.637 -1040.347)" fill="#fee04c"/>
            </g>
            <g id="Grupo_53613" data-name="Grupo 53613" transform="translate(89.927 42.672)">
              <path id="Trazado_100350" data-name="Trazado 100350" d="M877.391,1083.208l.134,43.2,46.445-24.583-.134-43.2Z" transform="translate(-877.391 -1058.625)" fill="#e8b210"/>
            </g>
            <g id="Grupo_53614" data-name="Grupo 53614" transform="translate(8.362)">
              <path id="Trazado_100351" data-name="Trazado 100351" d="M803.637,1040.347l81.242,42.861,46.9-24.583-81.242-42.861Z" transform="translate(-803.637 -1015.763)" fill="#e8ae10"/>
            </g>
            <g id="Grupo_53615" data-name="Grupo 53615" transform="translate(45.639 20.765)">
              <path id="Trazado_100352" data-name="Trazado 100352" d="M835.008,1058.578l11.011,6.4,42.579-24.583-11.086-6.356Z" transform="translate(-835.008 -1034.037)" fill="#02b8c4"/>
            </g>
            <g id="Grupo_53616" data-name="Grupo 53616" transform="translate(29.791 9.172)">
              <path id="Trazado_100353" data-name="Trazado 100353" d="M904.326,1067.657l-11.094,6.352-74.058-42.757,11.156-6.316Z" transform="translate(-819.174 -1024.936)" fill="#02b8c4"/>
            </g>
          </g>
        </g>
        <path id="Trazado_100354" data-name="Trazado 100354" d="M846.02,1108.1v-43.124l-11.011-6.4V1101.7Z" transform="translate(-789.43 -1013.335)" fill="#02b8c4"/>
        <path id="Trazado_100355" data-name="Trazado 100355" d="M893.236,1119.485v-45.136l11.011-6.678v45.14Z" transform="translate(-789.795 -1015.952)" fill="#02b8c4"/>
      </g>
      <g id="Grupo_53629" data-name="Grupo 53629" transform="translate(42.548)">
        <g id="Grupo_53620" data-name="Grupo 53620" transform="translate(0 16.344)" opacity="0.5" style="mix-blend-mode: multiply;isolation: isolate">
          <path id="Trazado_100356" data-name="Trazado 100356" d="M832.906,1035.953l37.468,21.774a2.26,2.26,0,0,0,2.266,0l19.719-11.385a2.261,2.261,0,0,0,.005-3.913L854.9,1020.659a2.26,2.26,0,0,0-2.266,0l-19.719,11.384A2.261,2.261,0,0,0,832.906,1035.953Z" transform="translate(-831.781 -1020.353)" fill="#350d73" opacity="0.26"/>
        </g>
        <g id="Grupo_53628" data-name="Grupo 53628" transform="translate(4.502)">
          <g id="Grupo_53627" data-name="Grupo 53627">
            <g id="Grupo_53626" data-name="Grupo 53626" style="isolation: isolate">
              <g id="Grupo_53621" data-name="Grupo 53621" transform="translate(0 11.137)">
                <path id="Trazado_100357" data-name="Trazado 100357" d="M836.282,1015.147l.055,19.571,33.414,19.418-.055-19.571Z" transform="translate(-836.282 -1015.147)" fill="#fee04c"/>
              </g>
              <g id="Grupo_53622" data-name="Grupo 53622" transform="translate(33.414 19.418)">
                <path id="Trazado_100358" data-name="Trazado 100358" d="M869.7,1034.565l.055,19.571L889.043,1043l-.055-19.571Z" transform="translate(-869.697 -1023.427)" fill="#e8b210"/>
              </g>
              <g id="Grupo_53623" data-name="Grupo 53623">
                <path id="Trazado_100359" data-name="Trazado 100359" d="M836.282,1015.147l33.414,19.418,19.291-11.137-33.414-19.418Z" transform="translate(-836.282 -1004.009)" fill="#e8ae10"/>
              </g>
              <g id="Grupo_53624" data-name="Grupo 53624" transform="translate(14.213 8.279)">
                <path id="Trazado_100360" data-name="Trazado 100360" d="M850.5,1023.406l4.989,2.9,19.291-11.137-5.022-2.88Z" transform="translate(-850.495 -1012.288)" fill="#02b8c4"/>
              </g>
              <g id="Grupo_53625" data-name="Grupo 53625" transform="translate(7.039 4.155)">
                <path id="Trazado_100361" data-name="Trazado 100361" d="M881.9,1027.52l-5.026,2.878-33.552-19.371,5.054-2.861Z" transform="translate(-843.321 -1008.165)" fill="#02b8c4"/>
              </g>
            </g>
          </g>
          <path id="Trazado_100362" data-name="Trazado 100362" d="M855.484,1045.842v-19.537l-4.989-2.9v19.539Z" transform="translate(-836.282 -1004.009)" fill="#02b8c4"/>
          <path id="Trazado_100363" data-name="Trazado 100363" d="M876.875,1050.021v-19.6l4.989-2.9v19.6Z" transform="translate(-836.282 -1004.009)" fill="#02b8c4"/>
        </g>
      </g>
    </g>
  </g>
  <rect id="Rectángulo_5058" data-name="Rectángulo 5058" width="167" height="167" fill="none"/>
</svg>
