<svg id="Grupo_53638" data-name="Grupo 53638" xmlns="http://www.w3.org/2000/svg" width="167" height="167" viewBox="0 0 167 167">
  <g id="Grupo_53637" data-name="Grupo 53637" transform="translate(9.612 6.093)">
    <g id="Grupo_53635" data-name="Grupo 53635" transform="translate(0 5.063)">
      <g id="Grupo_53634" data-name="Grupo 53634">
        <path id="Trazado_102494" data-name="Trazado 102494" d="M63.9,0A63.9,63.9,0,1,1,0,63.9,63.9,63.9,0,0,1,63.9,0Z" transform="translate(10.981 10.977)" fill="#b894f2"/>
        <g id="Grupo_53633" data-name="Grupo 53633">
          <path id="Trazado_100364" data-name="Trazado 100364" d="M230.862,1275.313c0-37.938,28.238-68.714,63.141-68.915v-5.96c-37.936.2-68.632,33.645-68.632,74.875s30.7,74.676,68.632,74.877v-5.96C259.1,1344.028,230.862,1313.253,230.862,1275.313Z" transform="translate(-225.371 -1200.438)" fill="#732be5"/>
        </g>
      </g>
      <circle id="Elipse_3972" data-name="Elipse 3972" cx="72.895" cy="72.895" r="72.895" transform="translate(1.986 1.981)" fill="none" stroke="#732be5" stroke-miterlimit="10" stroke-width="1" stroke-dasharray="12"/>
    </g>
    <g id="Grupo_53636" data-name="Grupo 53636" transform="translate(29.827)">
      <path id="Trazado_100365" data-name="Trazado 100365" d="M332.392,1217.64v34.3c0,12.01-8.424,26.615-18.821,32.621-1.468.848-2.928,1.689-4.4,2.537l-10.447,25.164-10.446-13.088q-2.2,1.26-4.395,2.538c-.424.244-.848.473-1.264.677-4.7,2.358-8.921,2.448-12.053.636l-.244-.147c-3.262-2.023-5.268-6.184-5.268-12.043v-34.293c0-12.019,8.432-26.624,18.829-32.63q14.838-8.566,29.683-17.142c5.1-2.946,9.72-3.28,13.1-1.436.065.032.138.073.2.114C330.288,1207.416,332.392,1211.635,332.392,1217.64Z" transform="translate(-249.793 -1195.375)" fill="#02dba8"/>
      <path id="Trazado_100366" data-name="Trazado 100366" d="M255.306,1294.207c-3.409-1.966-5.513-6.193-5.513-12.19v-34.3c0-12.01,8.424-26.616,18.821-32.621q14.838-8.566,29.683-17.151c5.2-3,9.908-3.28,13.309-1.313q7.547,4.344,15.07,8.706c-3.385-1.844-8.008-1.51-13.1,1.436q-14.838,8.567-29.683,17.142c-10.4,6.006-18.829,20.611-18.829,32.63v34.293c0,5.859,2.006,10.02,5.268,12.043Q262.817,1298.548,255.306,1294.207Z" transform="translate(-249.793 -1195.375)" fill="#01a37d"/>
      <path id="Trazado_100367" data-name="Trazado 100367" d="M288.283,1299.176l10.446,13.088-15.273-8.821-.832-1.052c.416-.2.84-.433,1.264-.677Q286.078,1300.44,288.283,1299.176Z" transform="translate(-249.793 -1195.375)" fill="#01a37d"/>
      <path id="Trazado_100368" data-name="Trazado 100368" d="M309.438,1240.376c-3.979-3.564-11.759-.729-17.376,6.333s-6.945,15.676-2.965,19.24c3.444,3.085,9.736,1.372,15.008-3.723l7.206,6.454c.824.738,2.476.1,3.689-1.426s1.529-3.361.7-4.1l-7.2-6.454C312.348,1250.33,312.883,1243.461,309.438,1240.376Zm-4.7,17.684c-4.263,5.36-10.167,7.512-13.188,4.807s-2.012-9.243,2.251-14.6,10.167-7.512,13.187-4.807S309,1252.7,304.736,1258.06Z" transform="translate(-249.793 -1195.375)" fill="#01a37d"/>
    </g>
  </g>
  <rect id="Rectángulo_5059" data-name="Rectángulo 5059" width="167" height="167" fill="none"/>
</svg>
