<svg id="Grupo_53644" data-name="Grupo 53644" xmlns="http://www.w3.org/2000/svg" width="167" height="167" viewBox="0 0 167 167">
  <g id="Grupo_53643" data-name="Grupo 53643" transform="translate(9.612 8.624)">
    <g id="Grupo_53641" data-name="Grupo 53641">
      <g id="Grupo_53640" data-name="Grupo 53640" transform="translate(8.995)">
        <circle id="Elipse_3973" data-name="Elipse 3973" cx="63.899" cy="63.899" r="63.899" transform="translate(0 10.977)" fill="#732be5" opacity="0.5"/>
        <g id="Grupo_53639" data-name="Grupo 53639" transform="translate(70.148)">
          <path id="Trazado_100369" data-name="Trazado 100369" d="M940.42,1463.2c0-37.939-28.238-68.715-63.141-68.915v-5.961c37.936.2,68.632,33.646,68.632,74.876s-30.7,74.675-68.632,74.875v-5.96C912.182,1531.917,940.42,1501.142,940.42,1463.2Z" transform="translate(-877.279 -1388.326)" fill="#732be5"/>
        </g>
      </g>
      <circle id="Elipse_3974" data-name="Elipse 3974" cx="72.895" cy="72.895" r="72.895" transform="translate(0 1.981)" fill="none" stroke="#732be5" stroke-miterlimit="10" stroke-width="1" stroke-dasharray="12"/>
    </g>
    <g id="Grupo_53642" data-name="Grupo 53642" transform="translate(35.329 12.212)">
      <path id="Trazado_100370" data-name="Trazado 100370" d="M904.733,1457.693v12.09c0-3.334-3.318-6.037-7.414-6.037C901.415,1463.746,904.733,1461.027,904.733,1457.693Z" transform="translate(-840.267 -1400.538)" fill="#02b8c4"/>
      <path id="Trazado_100371" data-name="Trazado 100371" d="M904.733,1447.322v10.371c0-3.349-3.318-6.052-7.414-6.052H880.347v-.059c.177-.543,3.686-11.135,3.686-20.889v-1.513h13.286c4.1,0,7.414,2.7,7.414,6.053Z" transform="translate(-840.267 -1400.538)" fill="#02b8c4"/>
      <path id="Trazado_100372" data-name="Trazado 100372" d="M903.295,1473.367v7.86a6.054,6.054,0,0,0-4.023-5.392h-1.821A7.978,7.978,0,0,0,903.295,1473.367Z" transform="translate(-840.267 -1400.538)" fill="#02b8c4"/>
      <path id="Trazado_100373" data-name="Trazado 100373" d="M895.9,1487.279a9.061,9.061,0,0,0,2.863-.456v5.509a5.761,5.761,0,0,0-3.024-4.877v-.176Z" transform="translate(-840.267 -1400.538)" fill="#02b8c4"/>
      <path id="Trazado_100374" data-name="Trazado 100374" d="M884.033,1430.693c0,9.754-3.509,20.346-3.686,20.889v.059h16.972c4.1,0,7.414,2.7,7.414,6.052,0,3.334-3.318,6.053-7.414,6.053,4.1,0,7.414,2.7,7.414,6.037a5.278,5.278,0,0,1-1.438,3.584,7.978,7.978,0,0,1-5.844,2.468h1.821a6.054,6.054,0,0,1,4.023,5.392c0,2.512-1.865,4.671-4.537,5.582v.014a9.061,9.061,0,0,1-2.863.456h-5.329l5.168.176a5.761,5.761,0,0,1,3.024,4.877c0,3.335-3.318,6.038-7.4,6.038H860.7c-11.291,0-20.437-7.478-20.437-16.7v-17.539c0-6.141,4.581-11.649,11.569-13.912,6.665-2.145,14.505-7.33,18.543-19.523,3.362-10.165,12.567-9.827,13.565-1.513A12.274,12.274,0,0,1,884.033,1430.693Z" transform="translate(-840.267 -1400.538)" fill="#02cddb"/>
      <path id="Trazado_100375" data-name="Trazado 100375" d="M851.836,1450.216c-6.988,2.263-11.569,7.771-11.569,13.912v-22.461c0-6.141,4.581-11.649,11.569-13.911,6.665-2.145,14.505-7.331,18.543-19.523,3.553-10.754,13.654-9.755,13.654,0v20.947h-.089c-1-8.314-10.2-8.652-13.565,1.513C866.341,1442.886,858.5,1448.071,851.836,1450.216Z" transform="translate(-840.267 -1400.538)" fill="#02b8c4"/>
    </g>
  </g>
  <rect id="Rectángulo_5060" data-name="Rectángulo 5060" width="167" height="167" fill="none"/>
</svg>
