<svg xmlns="http://www.w3.org/2000/svg" width="905" height="442.969" viewBox="0 0 905 442.969">
  <g id="Grupo_54939" data-name="Grupo 54939" transform="translate(-222.5 -7430.744)">
    <g id="Grupo_54938" data-name="Grupo 54938" transform="translate(0.5 3)">
      <g id="Grupo_54936" data-name="Grupo 54936" transform="translate(-8 -3)">
        <g id="Grupo_54903" data-name="Grupo 54903" transform="translate(691 7430.744)">
          <rect id="Rectángulo_5527" data-name="Rectángulo 5527" width="369.084" height="73.771" transform="translate(74 73.885) rotate(90)" fill="#dd811b"/>
          <rect id="Rectángulo_5528" data-name="Rectángulo 5528" width="369.542" height="73.771" transform="translate(74 0.115)" fill="#dd811b"/>
          <g id="Grupo_54858" data-name="Grupo 54858" transform="translate(90.458 12.655)">
            <g id="Grupo_54856" data-name="Grupo 54856" transform="translate(2.32)">
              <g id="Grupo_54855" data-name="Grupo 54855">
                <path id="Trazado_102499" data-name="Trazado 102499" d="M908.383,77.236c1.476,2.209,1.287,3.525-1.513,8.888a4.063,4.063,0,0,0,3.818-3.924,68.893,68.893,0,0,0-.472-9.817c-.233-2.439-.215-4.785,1.1-6.92a18.567,18.567,0,0,1,2.122-2.319c-1.7,6.394-.872,9.3,3.162,11.783-.267-1.668-1.468-3.268.106-5.093-.043,2.184,1.111,3.35,2.532,4.389a21.053,21.053,0,0,1,8.793,13.505c1.035,5.6-.608,10.174-5.095,13.648a18.6,18.6,0,0,1-4.84,2.6c.53-.617,1.1-1.207,1.582-1.856a6.228,6.228,0,0,0,.222-7.662,36.724,36.724,0,0,1-1.909-4.063c.094,1.03.186,1.929.256,2.829.066.854.4,1.836.09,2.531a10.055,10.055,0,0,1-2,2.31c-.653-.62-1.74-1.167-1.859-1.875a8.257,8.257,0,0,1,.511-3.472c.609-2.085,1.511-4.094,2-6.2.3-1.325-.476-2.448-2.136-3.364,1.1,2,.091,2.952-1.054,4.009-2.256,2.086-4.057,4.46-3.516,7.876l-.558.109-1.046-3.236a5.144,5.144,0,0,0,.328,6.4c1.793,2.229,2.037,3.512,1.121,5.886-4.477-.73-9.685-5.545-10.659-9.852-1.032-4.57,1.237-9.778,5.282-12.889C906.177,80.359,907.167,78.68,908.383,77.236Z" transform="translate(-899.214 -63.145)"/>
              </g>
            </g>
            <g id="Grupo_54857" data-name="Grupo 54857" transform="translate(0 42.806)">
              <line id="Línea_193" data-name="Línea 193" x2="30.906" transform="translate(1.423 1.423)"/>
              <path id="Trazado_102500" data-name="Trazado 102500" d="M928.518,121.8H897.613a1.423,1.423,0,0,1,0-2.846h30.905a1.423,1.423,0,0,1,0,2.846Z" transform="translate(-896.19 -118.951)"/>
            </g>
          </g>
          <g id="Grupo_54862" data-name="Grupo 54862" transform="translate(20.582 82.532)">
            <g id="Grupo_54860" data-name="Grupo 54860" transform="translate(2.32)">
              <g id="Grupo_54859" data-name="Grupo 54859">
                <path id="Trazado_102501" data-name="Trazado 102501" d="M817.286,168.334c1.476,2.21,1.287,3.525-1.512,8.888a4.063,4.063,0,0,0,3.818-3.924,68.885,68.885,0,0,0-.473-9.817c-.233-2.439-.215-4.784,1.1-6.92a18.534,18.534,0,0,1,2.122-2.318c-1.7,6.394-.873,9.3,3.162,11.783-.267-1.668-1.469-3.268.106-5.093-.043,2.184,1.112,3.35,2.532,4.389a21.051,21.051,0,0,1,8.794,13.505c1.035,5.6-.608,10.174-5.095,13.648a18.6,18.6,0,0,1-4.84,2.6c.53-.617,1.1-1.207,1.582-1.855a6.23,6.23,0,0,0,.222-7.662,36.523,36.523,0,0,1-1.909-4.063c.094,1.03.186,1.929.256,2.829.066.854.4,1.836.09,2.531a10.069,10.069,0,0,1-2,2.31c-.653-.62-1.741-1.167-1.859-1.875a8.23,8.23,0,0,1,.511-3.471c.609-2.086,1.511-4.095,2-6.2.3-1.324-.476-2.448-2.136-3.364,1.1,2,.089,2.952-1.054,4.009-2.256,2.086-4.057,4.46-3.516,7.876l-.559.109-1.045-3.236a5.144,5.144,0,0,0,.327,6.4c1.793,2.229,2.037,3.512,1.121,5.887-4.477-.731-9.685-5.546-10.659-9.853-1.033-4.57,1.236-9.778,5.282-12.889C815.08,171.456,816.07,169.778,817.286,168.334Z" transform="translate(-808.117 -154.243)"/>
              </g>
            </g>
            <g id="Grupo_54861" data-name="Grupo 54861" transform="translate(0 42.805)">
              <line id="Línea_194" data-name="Línea 194" x2="30.906" transform="translate(1.423 1.423)"/>
              <path id="Trazado_102502" data-name="Trazado 102502" d="M837.421,212.894H806.516a1.423,1.423,0,0,1,0-2.846h30.905a1.423,1.423,0,0,1,0,2.846Z" transform="translate(-805.093 -210.048)"/>
            </g>
          </g>
          <g id="Grupo_54863" data-name="Grupo 54863" transform="translate(156.13 18.907)">
            <path id="Trazado_102503" data-name="Trazado 102503" d="M1006.338,91.766c1.7-2.5,3.853-4.035,7.066-3.334.5.11.641-.34.882-.622.807-1.9,1.194-3.94,2.032-5.826a4.682,4.682,0,0,1,1.117-1.793l3.092-8.092c.188-.492.28-1.043,1.072-.69.768.343.448.792.252,1.277q-2.436,6.041-4.861,12.084c-.47,1.175-.811,2.4-1.342,3.549-.548,1.181.829,1.309,1.045,2.26-1.274-.28-2.047.934-3.232.911-.917-.018-.359.515-.421.889-.189,1.131-.683,2.053-2.058,1.376a4.748,4.748,0,0,0-3.436-.394C1006.456,93.351,1005.971,92.881,1006.338,91.766Z" transform="translate(-987.492 -71.296)"/>
            <path id="Trazado_102504" data-name="Trazado 102504" d="M1007.14,101.872c.947.442,1.847.66,2.693-.257.912-.988,1.621-.067,2.148.456.959.952,2.035.752,2.526-.077.839-1.415,1.362-.715,2.068-.051.284.267.605.494.91.739.224,1.348-.689,1.883-1.685,2.359-3.469,2.07-6.307,1.7-8.695-1.127a1.913,1.913,0,0,1-1.008-1.434C1006.205,101.866,1006.471,101.521,1007.14,101.872Z" transform="translate(-987.465 -78.255)"/>
            <path id="Trazado_102505" data-name="Trazado 102505" d="M1021.97,93.717c.05-1.877-1.358.069-1.756-.694.42-.947,1.41-1.865,2.1-1.867a4.374,4.374,0,0,0,2.712-.442l-.593,1.484,9.546-5.926c.615,1.243-.367,1.485-.994,1.833-3.687,2.048-7.394,4.059-11.094,6.083A.294.294,0,0,1,1021.97,93.717Z" transform="translate(-990.753 -74.785)"/>
            <path id="Trazado_102506" data-name="Trazado 102506" d="M998.411,104.312c1.2-.495,2.839.309,3.686-1.24l.675,1.284-7.675,3.79c1.058-1.5,2.855-1.78,4.423-2.873a7.371,7.371,0,0,1-2.633-.12c-.281-.121-1.175-.311-.685.7.174.357-.339.692-.582.545-2.506-1.516-4.753.442-7.134.471a5.071,5.071,0,0,1-.994-.364C991.4,105.493,994.9,104.881,998.411,104.312Z" transform="translate(-983.131 -78.698)"/>
            <path id="Trazado_102507" data-name="Trazado 102507" d="M1019.731,81.914c-.927,2.59-1.573,5.3-3.149,7.618.269-2.679,1.26-5.191,1.976-8.045l-1.518,1.21c-.24-.9-1.8-1.434-.368-2.625,1.035-.859,1.578-.336,2.038.64.435-.68.333-1.5,1.02-2.021C1020.741,79.877,1018.755,80.883,1019.731,81.914Z" transform="translate(-989.789 -73.019)"/>
            <path id="Trazado_102508" data-name="Trazado 102508" d="M1025.971,104.049c1.571.189,3.156.311,4.708.6.587.109,1.781-.239,1.614.875-.173,1.151-1.123.38-1.738.314-.646-.07-1.284-.221-1.926-.337-.13,1.944-1.661.593-2.452,1.055.255.8,1.417.548,1.769,1.717l-2.728-1.445a1.272,1.272,0,0,1-1.191-1.783C1024.273,104.452,1024.823,103.376,1025.971,104.049Z" transform="translate(-991.616 -78.876)"/>
            <path id="Trazado_102509" data-name="Trazado 102509" d="M1036.471,97.347q7.61-1.136,15.221-2.263c.469-.069,1.179-.476,1.355.22.2.786-.616.679-1.081.734-4.9.579-9.8,1.137-14.7,1.7C1036.9,97.809,1036.427,98.107,1036.471,97.347Z" transform="translate(-994.54 -76.795)"/>
            <path id="Trazado_102510" data-name="Trazado 102510" d="M1030.849,95.384l17.239-3.851.158.714c-5.5,1.424-11.124,2.356-16.7,3.484C1031.2,95.851,1030.772,96.125,1030.849,95.384Z" transform="translate(-993.229 -76.01)"/>
            <path id="Trazado_102511" data-name="Trazado 102511" d="M1027.431,86.62c1.442-1.57,4.281-4.665,7.129-7.75.264-.287.592-.606.99-.18.449.481-.079.681-.327.905C1032.119,82.4,1029,85.2,1027.431,86.62Z" transform="translate(-992.434 -72.97)"/>
            <path id="Trazado_102512" data-name="Trazado 102512" d="M1045.661,84.649a3.56,3.56,0,0,1,1.235,3.6c-.958-.094-1.757-1.411-2.845-.222-.268.292-1-.172-1.056-.8-.051-.568.179-1.155.832-1.079C1044.951,86.281,1045.255,85.5,1045.661,84.649Z" transform="translate(-996.058 -74.407)"/>
            <path id="Trazado_102513" data-name="Trazado 102513" d="M1033.455,99.976c.583.614,2.264-.1,1.947,1.6-.646.966-1.568.561-2.423.487-.13-.025-.294-.007-.383-.081-.627-.519-1.937.67-2.112-.729-.137-1.1,1.248-.693,1.672-1.323A1.339,1.339,0,0,1,1033.455,99.976Z" transform="translate(-993.144 -77.933)"/>
            <path id="Trazado_102514" data-name="Trazado 102514" d="M991.931,103.843l.73.376-10.793,1.212-.063-.5a45.741,45.741,0,0,1,6.278-.713c.363-.018,1.17.455.866-.746-.148-.588.727-.96,1.462-.52C990.916,103.256,991.425,103.547,991.931,103.843Z" transform="translate(-981.806 -78.626)"/>
            <path id="Trazado_102515" data-name="Trazado 102515" d="M1033.74,102.611c.8-.209,1.7.084,2.423-.487,2.439.739,4.943.2,7.41.384,1.668.126,3.376-.214,5.032.789a28.114,28.114,0,0,1-2.878-.015c-3.614-.372-7.235-.382-10.861-.4A5.017,5.017,0,0,1,1033.74,102.611Z" transform="translate(-993.904 -78.478)"/>
            <path id="Trazado_102516" data-name="Trazado 102516" d="M1003.4,109.345c-2.392-.706-3.215,1.684-4.842,2.513-.6.305-1.255,1.483-1.7.859-.619-.871.75-1.091,1.267-1.5,1.491-1.187,3.1-2.229,4.634-3.357.506-.37.821-.4,1.265.141.225.277.717.354.549.856C1004.384,109.415,1003.905,109.4,1003.4,109.345Z" transform="translate(-985.276 -79.749)"/>
            <path id="Trazado_102517" data-name="Trazado 102517" d="M1021.955,107.778a2.208,2.208,0,0,1,2.417.314l4,2.579-.291.45C1026.034,110.012,1023.524,109.813,1021.955,107.778Z" transform="translate(-991.159 -79.74)"/>
            <path id="Trazado_102518" data-name="Trazado 102518" d="M1032.156,99.581l-1.3-.044c-1.918-.952-3.841.689-5.96-.179l8.879-1.269.8.391c-.749.535-1.635.232-2.436.4C1031.261,99.074,1032.17,99.342,1032.156,99.581Z" transform="translate(-991.844 -77.538)"/>
            <path id="Trazado_102519" data-name="Trazado 102519" d="M1020.218,88.558q1.618-2.841,3.233-5.685c.179-.316.433-.566.773-.387.393.208.187.567.015.831q-1.8,2.745-3.619,5.478Z" transform="translate(-990.754 -73.889)"/>
            <path id="Trazado_102520" data-name="Trazado 102520" d="M1023.466,96.667a1.727,1.727,0,0,0,.068-.361l6.261-2.539.261.65A35.7,35.7,0,0,1,1023.466,96.667Z" transform="translate(-991.511 -76.531)"/>
            <path id="Trazado_102521" data-name="Trazado 102521" d="M1000.725,101.546c-.291,1.341-1.148,1.609-2.344,1.238-.382-.3-1-.5-.685-1.153a1.026,1.026,0,0,1,1.177-.428C999.494,101.292,1000.108,101.43,1000.725,101.546Z" transform="translate(-985.488 -78.257)"/>
            <path id="Trazado_102522" data-name="Trazado 102522" d="M992.362,109.618c.471.223,1.388-.39,1.375.576-.01.715-.927.888-1.446,1.082-.359.134-.833-.561-.834-1.126C991.456,109.522,991.827,109.383,992.362,109.618Z" transform="translate(-984.055 -80.198)"/>
            <path id="Trazado_102523" data-name="Trazado 102523" d="M1004.186,100.435a1.82,1.82,0,0,1,.059.323,14.376,14.376,0,0,1-5.383-.924C1000.728,99.37,1002.4,100.368,1004.186,100.435Z" transform="translate(-985.779 -77.915)"/>
            <path id="Trazado_102524" data-name="Trazado 102524" d="M988.591,101.093h6.077l-.007.256H988.58Z" transform="translate(-983.384 -78.237)"/>
            <path id="Trazado_102525" data-name="Trazado 102525" d="M1025.326,87.4c-.49-.2-.839-.492-.69-1.053.135-.505.273-1.112.991-.977.592.111.605.651.532,1.112S1025.874,87.361,1025.326,87.4Z" transform="translate(-991.776 -74.571)"/>
            <path id="Trazado_102526" data-name="Trazado 102526" d="M1037.512,92.777c-.765.036-1.62.452-2.156-.346-.084-.126.185-.687.407-.788C1036.786,91.184,1036.967,92.258,1037.512,92.777Z" transform="translate(-994.277 -76.01)"/>
          </g>
          <g id="Grupo_54864" data-name="Grupo 54864" transform="translate(7.672 166.449)">
            <path id="Trazado_102527" data-name="Trazado 102527" d="M812.794,284.115c1.7-2.5,3.853-4.035,7.065-3.333.5.11.64-.341.883-.623.806-1.9,1.194-3.939,2.032-5.825a4.681,4.681,0,0,1,1.117-1.794q1.547-4.045,3.092-8.092c.188-.492.28-1.043,1.073-.69.769.342.448.792.253,1.277q-2.437,6.04-4.862,12.084c-.469,1.174-.81,2.4-1.341,3.548-.548,1.182.829,1.309,1.045,2.26-1.274-.28-2.047.934-3.232.911-.916-.018-.358.515-.42.89-.189,1.13-.684,2.052-2.059,1.376A4.746,4.746,0,0,0,814,285.71C812.912,285.7,812.427,285.231,812.794,284.115Z" transform="translate(-793.949 -263.646)"/>
            <path id="Trazado_102528" data-name="Trazado 102528" d="M813.6,294.221c.947.443,1.845.66,2.693-.257.911-.987,1.622-.067,2.148.456.959.952,2.035.753,2.527-.077.839-1.416,1.362-.716,2.068-.051.284.267.605.493.91.739.223,1.347-.689,1.882-1.685,2.358-3.469,2.071-6.307,1.7-8.694-1.127a1.912,1.912,0,0,1-1.009-1.433C812.661,294.216,812.927,293.87,813.6,294.221Z" transform="translate(-793.921 -270.605)"/>
            <path id="Trazado_102529" data-name="Trazado 102529" d="M828.426,286.066c.051-1.877-1.358.07-1.756-.694.42-.946,1.41-1.865,2.1-1.866a4.376,4.376,0,0,0,2.712-.443l-.593,1.484,9.546-5.926c.615,1.243-.367,1.484-.995,1.833-3.686,2.047-7.393,4.059-11.094,6.083A.293.293,0,0,1,828.426,286.066Z" transform="translate(-797.209 -267.134)"/>
            <path id="Trazado_102530" data-name="Trazado 102530" d="M804.867,296.661c1.2-.494,2.839.309,3.686-1.24l.675,1.284-7.675,3.79c1.058-1.5,2.856-1.78,4.424-2.873a7.369,7.369,0,0,1-2.633-.12c-.281-.12-1.175-.311-.684.7.173.358-.34.692-.582.545-2.506-1.515-4.753.442-7.133.471a5.048,5.048,0,0,1-.994-.363C797.856,297.843,801.357,297.23,804.867,296.661Z" transform="translate(-789.587 -271.048)"/>
            <path id="Trazado_102531" data-name="Trazado 102531" d="M826.187,274.263c-.927,2.59-1.573,5.3-3.149,7.619.269-2.679,1.26-5.192,1.976-8.046l-1.518,1.21c-.24-.9-1.8-1.434-.368-2.625,1.036-.859,1.578-.335,2.038.641.435-.68.333-1.5,1.02-2.022C827.2,272.227,825.211,273.232,826.187,274.263Z" transform="translate(-796.245 -265.368)"/>
            <path id="Trazado_102532" data-name="Trazado 102532" d="M832.427,296.4c1.572.189,3.155.311,4.708.6.587.109,1.781-.239,1.614.874-.173,1.151-1.123.38-1.737.314-.646-.07-1.284-.221-1.926-.337-.13,1.945-1.661.593-2.451,1.055.255.8,1.416.548,1.769,1.718l-2.728-1.445a1.272,1.272,0,0,1-1.191-1.784C830.728,296.8,831.279,295.726,832.427,296.4Z" transform="translate(-798.072 -271.226)"/>
            <path id="Trazado_102533" data-name="Trazado 102533" d="M842.927,289.7q7.61-1.136,15.221-2.263c.469-.068,1.18-.476,1.356.22.2.787-.616.68-1.081.734-4.9.58-9.8,1.137-14.7,1.7C843.36,290.159,842.883,290.457,842.927,289.7Z" transform="translate(-800.996 -269.145)"/>
            <path id="Trazado_102534" data-name="Trazado 102534" d="M837.305,287.734l17.239-3.852.158.715c-5.505,1.424-11.125,2.356-16.7,3.483C837.654,288.2,837.228,288.475,837.305,287.734Z" transform="translate(-799.685 -268.36)"/>
            <path id="Trazado_102535" data-name="Trazado 102535" d="M833.886,278.969c1.443-1.57,4.282-4.664,7.129-7.75.265-.286.592-.606.99-.18.448.48-.079.68-.327.905C838.575,274.755,835.46,277.553,833.886,278.969Z" transform="translate(-798.89 -265.32)"/>
            <path id="Trazado_102536" data-name="Trazado 102536" d="M852.116,277a3.558,3.558,0,0,1,1.235,3.6c-.957-.094-1.756-1.412-2.845-.223-.268.292-1-.172-1.056-.8-.051-.568.179-1.155.832-1.079C851.407,278.631,851.711,277.845,852.116,277Z" transform="translate(-802.514 -266.756)"/>
            <path id="Trazado_102537" data-name="Trazado 102537" d="M839.91,292.325c.584.614,2.264-.1,1.948,1.6-.647.966-1.568.562-2.423.487-.13-.025-.294-.008-.383-.081-.627-.518-1.937.67-2.112-.73-.137-1.1,1.249-.693,1.672-1.323A1.34,1.34,0,0,1,839.91,292.325Z" transform="translate(-799.599 -270.282)"/>
            <path id="Trazado_102538" data-name="Trazado 102538" d="M798.387,296.193l.73.375-10.793,1.213-.063-.5a45.737,45.737,0,0,1,6.278-.712c.362-.018,1.17.454.866-.747-.148-.587.726-.96,1.462-.519C797.372,295.606,797.881,295.9,798.387,296.193Z" transform="translate(-788.262 -270.976)"/>
            <path id="Trazado_102539" data-name="Trazado 102539" d="M840.2,294.961c.8-.209,1.7.084,2.423-.487,2.438.739,4.943.2,7.41.384,1.667.125,3.376-.214,5.031.789a28.359,28.359,0,0,1-2.878-.015c-3.613-.373-7.235-.382-10.86-.4A4.977,4.977,0,0,1,840.2,294.961Z" transform="translate(-800.36 -270.827)"/>
            <path id="Trazado_102540" data-name="Trazado 102540" d="M809.854,301.7c-2.392-.707-3.216,1.683-4.842,2.513-.6.3-1.254,1.482-1.7.859-.619-.871.75-1.091,1.267-1.5,1.49-1.187,3.1-2.229,4.634-3.357.505-.37.82-.4,1.265.141.225.276.717.354.549.856C810.84,301.765,810.36,301.753,809.854,301.7Z" transform="translate(-791.732 -272.099)"/>
            <path id="Trazado_102541" data-name="Trazado 102541" d="M828.411,300.127a2.209,2.209,0,0,1,2.417.314l4,2.58-.292.449C832.489,302.361,829.98,302.163,828.411,300.127Z" transform="translate(-797.615 -272.09)"/>
            <path id="Trazado_102542" data-name="Trazado 102542" d="M838.611,291.93l-1.3-.044c-1.918-.951-3.841.69-5.96-.179l8.879-1.269.8.392c-.748.535-1.634.231-2.436.4C837.716,291.423,838.626,291.691,838.611,291.93Z" transform="translate(-798.3 -269.887)"/>
            <path id="Trazado_102543" data-name="Trazado 102543" d="M826.674,280.908q1.617-2.842,3.232-5.685c.18-.316.433-.566.773-.387.393.209.187.567.014.831q-1.8,2.745-3.619,5.478Z" transform="translate(-797.21 -266.239)"/>
            <path id="Trazado_102544" data-name="Trazado 102544" d="M829.922,289.017a1.782,1.782,0,0,0,.067-.36l6.261-2.539.261.651A35.7,35.7,0,0,1,829.922,289.017Z" transform="translate(-797.967 -268.88)"/>
            <path id="Trazado_102545" data-name="Trazado 102545" d="M807.181,293.9c-.291,1.341-1.148,1.609-2.344,1.238-.382-.3-1-.5-.685-1.153a1.026,1.026,0,0,1,1.177-.428C805.95,293.642,806.564,293.779,807.181,293.9Z" transform="translate(-791.944 -270.607)"/>
            <path id="Trazado_102546" data-name="Trazado 102546" d="M798.819,301.968c.471.223,1.388-.39,1.375.575-.01.715-.927.889-1.446,1.082-.359.134-.833-.561-.834-1.127C797.912,301.872,798.283,301.733,798.819,301.968Z" transform="translate(-790.511 -272.548)"/>
            <path id="Trazado_102547" data-name="Trazado 102547" d="M810.642,292.784a1.866,1.866,0,0,1,.059.323,14.361,14.361,0,0,1-5.383-.924C807.184,291.72,808.852,292.718,810.642,292.784Z" transform="translate(-792.235 -270.265)"/>
            <path id="Trazado_102548" data-name="Trazado 102548" d="M795.047,293.443h6.077l-.008.256h-6.081Z" transform="translate(-789.84 -270.587)"/>
            <path id="Trazado_102549" data-name="Trazado 102549" d="M831.782,279.753c-.49-.2-.84-.493-.69-1.053.135-.505.273-1.113.991-.978.591.111.605.652.532,1.113S832.33,279.711,831.782,279.753Z" transform="translate(-798.231 -266.92)"/>
            <path id="Trazado_102550" data-name="Trazado 102550" d="M843.968,285.126c-.765.036-1.62.452-2.155-.346-.084-.126.185-.687.407-.788C843.242,283.533,843.423,284.607,843.968,285.126Z" transform="translate(-800.733 -268.359)"/>
          </g>
          <path id="Trazado_102551" data-name="Trazado 102551" d="M1194.263,88.222l3.332,2.8a16.5,16.5,0,0,0-.749-10.649c2.421.281,3.071,2.436,4.43,4.137.84-3.861,1.641-7.491.17-11.2l.332-.21,3.56,3.482c.212-1.345.485-2.581.583-3.831.149-1.891.133-3.795.276-5.685a4.02,4.02,0,0,1,.771-1.81c.623,5.385,4.459,9.462,5.536,14.605l.369-.056c-.225-1.895-.449-3.789-.68-5.747a4.393,4.393,0,0,1,2.827,2.253,17.325,17.325,0,0,1,2.3,8.014c.069.94.012,1.89.144,2.859,1.39-1.4.937-3.314,1.366-5.2a7.381,7.381,0,0,1,2.661,5.219c.188,1.908.041,3.849.041,5.765l.5-.778c.1.051.22.089.219.12a58.613,58.613,0,0,1-.423,8c-.6,3.288-4.337,6.3-7.665,6.719a11.647,11.647,0,0,1-2.581.245,8.082,8.082,0,0,1-2.121-.956,12.018,12.018,0,0,0,5.762-7.9l-1.984,1.76,1.3-6.058-.233-.01-3.208,4.858-.423-.123a8.645,8.645,0,0,1,.4-2.431c1.411-2.922.386-5.432-1.209-8.252-.163,1.891-.218,3.464-.456,5.009s-.655,3.038-1.075,4.917l-2.435-4.947a6.168,6.168,0,0,0-.569,4.529c.307,1.471.828,2.9,1.288,4.455-3.05-1.194-3.751-3.833-4.386-6.577a14.29,14.29,0,0,0-.224,6.378,5.814,5.814,0,0,0,3.757,4.767c-.07.228-.079.361-.12.371-4.373,1.167-7.878-.7-9.009-5.02-.552-2.1-.675-4.315-1.04-6.471C1195.213,93.262,1194.767,90.969,1194.263,88.222Zm13.187-15.955c.033,3.869-.62,7.509.25,11.231C1209.733,81.241,1209.622,74.991,1207.45,72.267Z" transform="translate(-875.168 -50.98)"/>
          <path id="Trazado_102552" data-name="Trazado 102552" d="M1303,86.372c3.993,4.808,7.906,9.52,11.822,14.232.56.673,1.134,1.337,1.688,2.015,1.4,1.71,1.357,3.446-.1,4.639-1.332,1.091-3.137.809-4.458-.767q-5.856-6.991-11.677-14.011c-.348-.418-.72-.816-1.2-1.356-1.619,1.923-3.2,3.782-4.759,5.654q-4,4.794-7.982,9.6c-1.388,1.668-3.182,2.007-4.579.874s-1.448-2.987-.072-4.646q6.187-7.463,12.4-14.908c.344-.413.66-.848,1.064-1.368L1286.715,76.2c-1.716-2.064-3.441-4.119-5.141-6.2-1.286-1.572-1.192-3.377.193-4.512,1.334-1.093,3.049-.893,4.345.644,3.953,4.69,7.864,9.416,11.794,14.127.348.417.717.818,1.2,1.368.608-.713,1.169-1.36,1.718-2.018q5.628-6.754,11.252-13.512c.839-1.007,1.966-1.672,3.167-1.1a3.968,3.968,0,0,1,2.087,2.194,4,4,0,0,1-.9,2.923C1312.063,75.532,1307.584,80.852,1303,86.372Z" transform="translate(-895.296 -50.874)"/>
          <path id="Trazado_102553" data-name="Trazado 102553" d="M822.723,571.427l11.822,14.232c.56.674,1.134,1.337,1.688,2.016,1.4,1.71,1.357,3.445-.1,4.638-1.332,1.091-3.138.809-4.458-.767q-5.857-6.991-11.678-14.011c-.348-.418-.72-.815-1.2-1.356-1.619,1.923-3.2,3.782-4.759,5.654q-4,4.795-7.982,9.6c-1.389,1.669-3.184,2.007-4.58.875s-1.446-2.986-.07-4.646q6.187-7.463,12.4-14.908c.343-.413.66-.848,1.064-1.368l-8.424-10.134c-1.716-2.064-3.443-4.118-5.142-6.2-1.286-1.572-1.193-3.377.193-4.512,1.334-1.093,3.049-.893,4.345.643,3.953,4.69,7.864,9.416,11.794,14.127.348.417.716.818,1.2,1.368.608-.713,1.171-1.36,1.719-2.018q5.628-6.754,11.251-13.512c.839-1.007,1.966-1.672,3.168-1.1a3.013,3.013,0,0,1,1.188,5.117C831.787,560.587,827.308,565.908,822.723,571.427Z" transform="translate(-783.416 -163.867)"/>
          <g id="Grupo_54865" data-name="Grupo 54865" transform="translate(237.169 18.66)">
            <path id="Trazado_102554" data-name="Trazado 102554" d="M1123.971,83.556c-.112,1.2-.2,2.4-.339,3.591a8.941,8.941,0,0,0,.519,5.058c1.278,2.771-.25,5.047-3.317,5.385a4.741,4.741,0,0,1-1.2.068c-1.1-.166-1.3.482-1.3,1.345.005.713.03,1.424.042,2.136.019,1.106-.077,2.049-1.511,2.3a24.524,24.524,0,0,0-2.833,1.018,8.391,8.391,0,0,1-6.08-.536,17.28,17.28,0,0,1-2.311-1.3,1.2,1.2,0,0,1-.372-.765,9.515,9.515,0,0,1,.021-1.059c-.042-1.059.267-2.406-.266-3.092-.5-.64-1.907-.549-2.9-.83a3.792,3.792,0,0,1-2.485-5.694,8.143,8.143,0,0,0,.573-4.388,31.014,31.014,0,0,1-.058-6.126c.715-5.2,4.24-8.458,9.513-8.817a22.057,22.057,0,0,1,6.221.411C1121.33,73.473,1124.2,77.647,1123.971,83.556Zm-14,8.632a3.78,3.78,0,0,0-3.6-4.021,3.622,3.622,0,0,0-3.395,3.755A3.818,3.818,0,0,0,1106.527,96,3.566,3.566,0,0,0,1109.974,92.188Zm6.482-4.074a3.59,3.59,0,0,0-3.432,3.838,3.807,3.807,0,0,0,3.5,3.995,3.65,3.65,0,0,0,3.519-3.782A3.836,3.836,0,0,0,1116.456,88.114ZM1113.1,99.472c-.2-1.266-.335-2.547-.613-3.8-.237-1.068-.916-.894-1.572-.348a4.188,4.188,0,0,0-.954,3.581c.136.316.592.493.9.734C1111.4,98.489,1112.021,99.766,1113.1,99.472Z" transform="translate(-1090.174 -71.164)"/>
            <path id="Trazado_102555" data-name="Trazado 102555" d="M1095.407,100.392l1.219,2.9a11.836,11.836,0,0,1-1,.684,4.009,4.009,0,0,0-2.162,2.8,3.7,3.7,0,0,1-1.876,2,2.675,2.675,0,0,1-2.217-.143c-.4-.232-.38-1.194-.619-2.1-.614-.251-1.62-.621-1.2-2,.4-1.3,1.848-2.742,2.974-2.424,1.761.5,2.844-.469,4.076-1.283C1094.857,100.66,1095.135,100.538,1095.407,100.392Z" transform="translate(-1087.457 -77.827)"/>
            <path id="Trazado_102556" data-name="Trazado 102556" d="M1096.5,80.508c-.568-.364-1.037-.621-1.455-.94a3.736,3.736,0,0,0-3.9-.838c-1.506.548-3.742-1.544-3.466-3.125.1-.554.77-1.007,1.189-1.517.176-.615.219-1.79.615-1.925a3.908,3.908,0,0,1,2.622.184,2.794,2.794,0,0,1,1.471,1.735,3.756,3.756,0,0,0,2.35,2.828c1.128.544,1.483,1.25.9,2.4A6.95,6.95,0,0,0,1096.5,80.508Z" transform="translate(-1087.503 -71.216)"/>
            <path id="Trazado_102557" data-name="Trazado 102557" d="M1132.2,79.449l-1.078-3.093c.374-.259.751-.564,1.166-.8a3.525,3.525,0,0,0,2.1-2.679,2.523,2.523,0,0,1,1.381-1.632,3.579,3.579,0,0,1,2.486-.085c.434.176.51,1.232.855,2.193,1.168.735,1.42,1.269.905,2.44a2.756,2.756,0,0,1-3.412,1.763,1.985,1.985,0,0,0-2.078.327C1133.829,78.421,1133.063,78.874,1132.2,79.449Z" transform="translate(-1097.629 -70.974)"/>
            <path id="Trazado_102558" data-name="Trazado 102558" d="M1140.24,107.441c-.261.756-.346,1.882-.763,2.021a4.805,4.805,0,0,1-2.616-.18,1.694,1.694,0,0,1-1.052-1.1c-.279-2.152-1.69-3.305-3.524-4.169l.977-2.613c.5.317.96.579,1.389.884a3.1,3.1,0,0,0,3.268.669c1.473-.571,3.69,1.425,3.442,2.984C1141.268,106.523,1140.574,107.016,1140.24,107.441Z" transform="translate(-1097.899 -78.061)"/>
          </g>
          <g id="Grupo_54866" data-name="Grupo 54866" transform="translate(19.064 242.722)">
            <path id="Trazado_102559" data-name="Trazado 102559" d="M839.628,375.664c-.111,1.2-.2,2.4-.338,3.591a8.93,8.93,0,0,0,.519,5.058c1.278,2.771-.25,5.047-3.316,5.385a4.751,4.751,0,0,1-1.2.069c-1.1-.166-1.3.482-1.3,1.345.006.712.031,1.423.043,2.136.019,1.105-.077,2.048-1.511,2.3a24.536,24.536,0,0,0-2.833,1.018,8.392,8.392,0,0,1-6.08-.535,17.233,17.233,0,0,1-2.31-1.3,1.192,1.192,0,0,1-.371-.765,8.988,8.988,0,0,1,.02-1.059c-.042-1.059.267-2.406-.267-3.092-.5-.64-1.908-.548-2.9-.83a3.792,3.792,0,0,1-2.485-5.694,8.124,8.124,0,0,0,.574-4.388,31.052,31.052,0,0,1-.058-6.126c.716-5.2,4.241-8.458,9.515-8.817a22.042,22.042,0,0,1,6.22.412C836.988,365.581,839.852,369.755,839.628,375.664Zm-14,8.632a3.78,3.78,0,0,0-3.6-4.022,3.622,3.622,0,0,0-3.394,3.756,3.816,3.816,0,0,0,3.543,4.076A3.564,3.564,0,0,0,825.631,384.3Zm6.482-4.074a3.59,3.59,0,0,0-3.431,3.837,3.807,3.807,0,0,0,3.5,4,3.651,3.651,0,0,0,3.52-3.782A3.837,3.837,0,0,0,832.113,380.222Zm-3.351,11.358c-.2-1.266-.335-2.547-.613-3.8-.238-1.068-.916-.894-1.573-.348a4.194,4.194,0,0,0-.954,3.582c.136.315.593.493.9.734C827.06,390.6,827.678,391.874,828.762,391.58Z" transform="translate(-805.831 -363.272)"/>
            <path id="Trazado_102560" data-name="Trazado 102560" d="M811.064,392.5l1.218,2.9a11.425,11.425,0,0,1-1,.684,4.009,4.009,0,0,0-2.161,2.8,3.7,3.7,0,0,1-1.877,2,2.673,2.673,0,0,1-2.218-.143c-.4-.231-.379-1.194-.618-2.1-.614-.251-1.621-.621-1.2-2,.4-1.3,1.848-2.741,2.974-2.424,1.761.5,2.843-.469,4.075-1.283C810.514,392.769,810.792,392.646,811.064,392.5Z" transform="translate(-803.114 -369.935)"/>
            <path id="Trazado_102561" data-name="Trazado 102561" d="M812.16,372.616c-.569-.364-1.036-.62-1.456-.94a3.735,3.735,0,0,0-3.9-.838c-1.506.548-3.742-1.544-3.466-3.124.1-.555.77-1.008,1.189-1.518.176-.615.22-1.79.615-1.924a3.915,3.915,0,0,1,2.623.185,2.8,2.8,0,0,1,1.471,1.735,3.753,3.753,0,0,0,2.349,2.827c1.128.545,1.484,1.25.906,2.4A6.9,6.9,0,0,0,812.16,372.616Z" transform="translate(-803.16 -363.325)"/>
            <path id="Trazado_102562" data-name="Trazado 102562" d="M847.857,371.557l-1.078-3.093c.373-.259.751-.563,1.166-.8a3.524,3.524,0,0,0,2.1-2.679,2.528,2.528,0,0,1,1.382-1.631,3.58,3.58,0,0,1,2.487-.085c.433.176.509,1.232.854,2.193,1.169.735,1.42,1.27.906,2.44a2.757,2.757,0,0,1-3.412,1.763,1.985,1.985,0,0,0-2.078.326C849.487,370.529,848.721,370.983,847.857,371.557Z" transform="translate(-813.286 -363.082)"/>
            <path id="Trazado_102563" data-name="Trazado 102563" d="M855.9,399.549c-.261.755-.347,1.882-.764,2.021a4.8,4.8,0,0,1-2.616-.18,1.7,1.7,0,0,1-1.052-1.1c-.28-2.152-1.689-3.306-3.524-4.17l.977-2.613c.5.316.96.579,1.388.884a3.1,3.1,0,0,0,3.268.669c1.474-.571,3.69,1.426,3.443,2.984C856.926,398.632,856.231,399.124,855.9,399.549Z" transform="translate(-813.557 -370.17)"/>
          </g>
          <path id="Trazado_102564" data-name="Trazado 102564" d="M809.614,473.845l3.332,2.8a16.5,16.5,0,0,0-.75-10.648c2.421.28,3.071,2.435,4.431,4.136.841-3.861,1.642-7.491.17-11.2l.332-.21,3.56,3.482c.212-1.345.485-2.581.584-3.831.149-1.891.133-3.795.276-5.686a4.011,4.011,0,0,1,.771-1.81c.622,5.385,4.459,9.462,5.536,14.605l.369-.056c-.224-1.895-.448-3.789-.68-5.747a4.4,4.4,0,0,1,2.827,2.253,17.338,17.338,0,0,1,2.3,8.014c.069.94.012,1.89.145,2.859,1.389-1.4.936-3.314,1.365-5.2a7.386,7.386,0,0,1,2.662,5.219c.187,1.908.041,3.849.041,5.765l.5-.778c.1.052.221.089.219.12a58.5,58.5,0,0,1-.423,8c-.6,3.288-4.337,6.3-7.664,6.719a11.653,11.653,0,0,1-2.582.245,8.089,8.089,0,0,1-2.121-.956,12.017,12.017,0,0,0,5.763-7.9l-1.984,1.76,1.3-6.058-.233-.01-3.209,4.858-.423-.123a8.637,8.637,0,0,1,.4-2.431c1.41-2.922.386-5.432-1.209-8.252-.163,1.891-.218,3.464-.456,5.009s-.655,3.038-1.075,4.917l-2.435-4.948a6.169,6.169,0,0,0-.57,4.529c.308,1.471.828,2.9,1.289,4.455-3.05-1.193-3.751-3.833-4.385-6.577a14.294,14.294,0,0,0-.224,6.378,5.815,5.815,0,0,0,3.757,4.767c-.071.228-.079.36-.12.371-4.372,1.167-7.878-.7-9.009-5.019-.552-2.1-.675-4.316-1.04-6.471C810.564,478.886,810.118,476.592,809.614,473.845ZM822.8,457.89c.032,3.869-.62,7.509.249,11.231C825.084,466.864,824.973,460.614,822.8,457.89Z" transform="translate(-785.564 -140.811)"/>
          <g id="Grupo_54872" data-name="Grupo 54872" transform="translate(73.656)">
            <g id="Grupo_54867" data-name="Grupo 54867" transform="translate(295.771)">
              <rect id="Rectángulo_5529" data-name="Rectángulo 5529" width="0.458" height="442.514"/>
            </g>
            <g id="Grupo_54868" data-name="Grupo 54868" transform="translate(223.375 0.226)">
              <rect id="Rectángulo_5530" data-name="Rectángulo 5530" width="0.458" height="442.514"/>
            </g>
            <g id="Grupo_54869" data-name="Grupo 54869" transform="translate(148.229 0.226)">
              <rect id="Rectángulo_5531" data-name="Rectángulo 5531" width="0.458" height="442.514"/>
            </g>
            <g id="Grupo_54870" data-name="Grupo 54870" transform="translate(74.458 0.226)">
              <rect id="Rectángulo_5532" data-name="Rectángulo 5532" width="0.458" height="442.514"/>
            </g>
            <g id="Grupo_54871" data-name="Grupo 54871" transform="translate(0 221.539)">
              <rect id="Rectángulo_5533" data-name="Rectángulo 5533" width="0.586" height="221.43"/>
            </g>
          </g>
          <line id="Línea_195" data-name="Línea 195" y2="442.625" transform="translate(444 0.115)" fill="none"/>
          <g id="Grupo_54877" data-name="Grupo 54877" transform="translate(0 147.656)">
            <g id="Grupo_54873" data-name="Grupo 54873">
              <rect id="Rectángulo_5534" data-name="Rectángulo 5534" width="443.544" height="0.458"/>
            </g>
            <g id="Grupo_54874" data-name="Grupo 54874" transform="translate(0.227 72.396)">
              <rect id="Rectángulo_5535" data-name="Rectángulo 5535" width="443.544" height="0.458"/>
            </g>
            <g id="Grupo_54875" data-name="Grupo 54875" transform="translate(0.227 147.542)">
              <rect id="Rectángulo_5536" data-name="Rectángulo 5536" width="443.544" height="0.458"/>
            </g>
            <g id="Grupo_54876" data-name="Grupo 54876" transform="translate(0.227 221.313)">
              <rect id="Rectángulo_5537" data-name="Rectángulo 5537" width="443.544" height="0.458"/>
            </g>
          </g>
          <line id="Línea_196" data-name="Línea 196" x2="443.542" transform="translate(0.229 442.969)" fill="none"/>
          <g id="Grupo_54878" data-name="Grupo 54878" transform="translate(101.738 101.505)">
            <path id="Trazado_102565" data-name="Trazado 102565" d="M917.474,196.536v-6.527H910.9v-4.5h6.578v-6.526h4.384V185.5h6.6v4.5h-6.6v6.527Z" transform="translate(-910.896 -178.978)"/>
          </g>
          <g id="Grupo_54879" data-name="Grupo 54879" transform="translate(175.738 173.302)">
            <path id="Trazado_102566" data-name="Trazado 102566" d="M1013.947,290.138v-6.526h-6.578v-4.506h6.578V272.58h4.384v6.526h6.594v4.506h-6.594v6.526Z" transform="translate(-1007.369 -272.58)"/>
          </g>
          <g id="Grupo_54880" data-name="Grupo 54880" transform="translate(397.524 101.505)">
            <path id="Trazado_102567" data-name="Trazado 102567" d="M1303.089,196.536v-6.527h-6.578v-4.5h6.578v-6.526h4.385V185.5h6.595v4.5h-6.595v6.527Z" transform="translate(-1296.511 -178.978)"/>
          </g>
          <g id="Grupo_54881" data-name="Grupo 54881" transform="translate(327.351 107.877)">
            <path id="Trazado_102568" data-name="Trazado 102568" d="M1205.027,192.1v-4.813h13.478V192.1Z" transform="translate(-1205.027 -187.285)"/>
          </g>
          <g id="Grupo_54882" data-name="Grupo 54882" transform="translate(252.969 107.877)">
            <path id="Trazado_102569" data-name="Trazado 102569" d="M1108.055,192.1v-4.813h13.478V192.1Z" transform="translate(-1108.055 -187.285)"/>
          </g>
          <g id="Grupo_54883" data-name="Grupo 54883" transform="translate(177.777 107.877)">
            <path id="Trazado_102570" data-name="Trazado 102570" d="M1010.028,192.1v-4.813h13.478V192.1Z" transform="translate(-1010.028 -187.285)"/>
          </g>
          <g id="Grupo_54884" data-name="Grupo 54884" transform="translate(103.778 179.756)">
            <path id="Trazado_102571" data-name="Trazado 102571" d="M913.555,285.807v-4.814h13.478v4.814Z" transform="translate(-913.555 -280.993)"/>
          </g>
          <g id="Grupo_54885" data-name="Grupo 54885" transform="translate(252.969 179.756)">
            <path id="Trazado_102572" data-name="Trazado 102572" d="M1108.055,285.807v-4.814h13.478v4.814Z" transform="translate(-1108.055 -280.993)"/>
          </g>
          <g id="Grupo_54886" data-name="Grupo 54886" transform="translate(327.351 179.756)">
            <path id="Trazado_102573" data-name="Trazado 102573" d="M1205.027,285.807v-4.814h13.478v4.814Z" transform="translate(-1205.027 -280.993)"/>
          </g>
          <g id="Grupo_54887" data-name="Grupo 54887" transform="translate(399.564 179.756)">
            <path id="Trazado_102574" data-name="Trazado 102574" d="M1299.17,285.807v-4.814h13.479v4.814Z" transform="translate(-1299.17 -280.993)"/>
          </g>
          <g id="Grupo_54888" data-name="Grupo 54888" transform="translate(327.351 253.86)">
            <path id="Trazado_102575" data-name="Trazado 102575" d="M1205.027,382.417V377.6h13.478v4.814Z" transform="translate(-1205.027 -377.603)"/>
          </g>
          <g id="Grupo_54889" data-name="Grupo 54889" transform="translate(252.969 330.014)">
            <path id="Trazado_102576" data-name="Trazado 102576" d="M1108.055,481.7v-4.814h13.478V481.7Z" transform="translate(-1108.055 -476.884)"/>
          </g>
          <g id="Grupo_54890" data-name="Grupo 54890" transform="translate(177.777 400.728)">
            <path id="Trazado_102577" data-name="Trazado 102577" d="M1010.028,573.888v-4.814h13.478v4.814Z" transform="translate(-1010.028 -569.074)"/>
          </g>
          <g id="Grupo_54891" data-name="Grupo 54891" transform="translate(177.777 253.86)">
            <path id="Trazado_102578" data-name="Trazado 102578" d="M1010.028,382.417V377.6h13.478v4.814Z" transform="translate(-1010.028 -377.603)"/>
          </g>
          <g id="Grupo_54892" data-name="Grupo 54892" transform="translate(103.778 253.86)">
            <path id="Trazado_102579" data-name="Trazado 102579" d="M913.555,382.417V377.6h13.478v4.814Z" transform="translate(-913.555 -377.603)"/>
          </g>
          <g id="Grupo_54893" data-name="Grupo 54893" transform="translate(177.777 330.014)">
            <path id="Trazado_102580" data-name="Trazado 102580" d="M1010.028,481.7v-4.814h13.478V481.7Z" transform="translate(-1010.028 -476.884)"/>
          </g>
          <g id="Grupo_54894" data-name="Grupo 54894" transform="translate(103.778 330.014)">
            <path id="Trazado_102581" data-name="Trazado 102581" d="M913.555,481.7v-4.814h13.478V481.7Z" transform="translate(-913.555 -476.884)"/>
          </g>
          <g id="Grupo_54895" data-name="Grupo 54895" transform="translate(250.929 247.488)">
            <path id="Trazado_102582" data-name="Trazado 102582" d="M1111.974,386.854v-6.526H1105.4v-4.5h6.578V369.3h4.385v6.527h6.6v4.5h-6.6v6.526Z" transform="translate(-1105.396 -369.296)"/>
          </g>
          <g id="Grupo_54896" data-name="Grupo 54896" transform="translate(325.312 323.642)">
            <path id="Trazado_102583" data-name="Trazado 102583" d="M1208.946,486.135v-6.526h-6.578v-4.5h6.578v-6.527h4.385V475.1h6.595v4.5h-6.595v6.526Z" transform="translate(-1202.368 -468.577)"/>
          </g>
          <g id="Grupo_54897" data-name="Grupo 54897" transform="translate(398.15 319.6)">
            <path id="Trazado_102584" data-name="Trazado 102584" d="M1305.48,463.307a6.861,6.861,0,0,1,5.7,2.6q2.45,3.083,2.449,10.226,0,7.126-2.466,10.244a6.851,6.851,0,0,1-5.687,2.569,7.185,7.185,0,0,1-5.909-2.817q-2.245-2.818-2.245-10.046,0-7.092,2.467-10.209A6.85,6.85,0,0,1,1305.48,463.307Zm0,3.992a2.4,2.4,0,0,0-1.559.556,3.741,3.741,0,0,0-1.062,2,40.766,40.766,0,0,0-.052,12.358,4.274,4.274,0,0,0,1.122,2.2,2.464,2.464,0,0,0,3.109-.009,3.74,3.74,0,0,0,1.063-2,40.732,40.732,0,0,0,.05-12.342,4.337,4.337,0,0,0-1.121-2.21A2.372,2.372,0,0,0,1305.48,467.3Z" transform="translate(-1297.326 -463.307)"/>
          </g>
          <g id="Grupo_54898" data-name="Grupo 54898" transform="translate(325.937 390.314)">
            <path id="Trazado_102585" data-name="Trazado 102585" d="M1211.337,555.5a6.865,6.865,0,0,1,5.7,2.6q2.448,3.084,2.449,10.226,0,7.126-2.467,10.243a6.851,6.851,0,0,1-5.686,2.57,7.186,7.186,0,0,1-5.91-2.818q-2.245-2.818-2.244-10.046,0-7.091,2.467-10.209A6.846,6.846,0,0,1,1211.337,555.5Zm0,3.991a2.4,2.4,0,0,0-1.559.557,3.732,3.732,0,0,0-1.062,2,40.735,40.735,0,0,0-.051,12.358,4.257,4.257,0,0,0,1.121,2.2,2.465,2.465,0,0,0,3.109-.008,3.738,3.738,0,0,0,1.063-2,40.664,40.664,0,0,0,.051-12.341,4.337,4.337,0,0,0-1.122-2.21A2.371,2.371,0,0,0,1211.337,559.488Z" transform="translate(-1203.183 -555.497)"/>
          </g>
          <g id="Grupo_54899" data-name="Grupo 54899" transform="translate(397.524 247.488)">
            <path id="Trazado_102586" data-name="Trazado 102586" d="M1303.089,386.854v-6.526h-6.578v-4.5h6.578V369.3h4.385v6.527h6.595v4.5h-6.595v6.526Z" transform="translate(-1296.511 -369.296)"/>
          </g>
          <g id="Grupo_54900" data-name="Grupo 54900" transform="translate(250.929 394.357)">
            <path id="Trazado_102587" data-name="Trazado 102587" d="M1111.974,578.325V571.8H1105.4v-4.506h6.578v-6.526h4.385v6.526h6.6V571.8h-6.6v6.526Z" transform="translate(-1105.396 -560.767)"/>
          </g>
          <g id="Grupo_54901" data-name="Grupo 54901" transform="translate(101.738 394.357)">
            <path id="Trazado_102588" data-name="Trazado 102588" d="M917.474,578.325V571.8H910.9v-4.506h6.578v-6.526h4.384v6.526h6.6V571.8h-6.6v6.526Z" transform="translate(-910.896 -560.767)"/>
          </g>
          <g id="Grupo_54902" data-name="Grupo 54902" transform="translate(397.524 394.357)">
            <path id="Trazado_102589" data-name="Trazado 102589" d="M1303.089,578.325V571.8h-6.578v-4.506h6.578v-6.526h4.385v6.526h6.595V571.8h-6.595v6.526Z" transform="translate(-1296.511 -560.767)"/>
          </g>
        </g>
        <g id="Grupo_54935" data-name="Grupo 54935">
          <g id="Grupo_54847" data-name="Grupo 54847" transform="translate(301.722 7513.343)">
            <rect id="Rectángulo_5523" data-name="Rectángulo 5523" width="0.471" height="311.19" transform="translate(0)"/>
          </g>
          <g id="Grupo_54851" data-name="Grupo 54851" transform="translate(230 7606.169)">
            <g id="Grupo_54848" data-name="Grupo 54848">
              <rect id="Rectángulo_5524" data-name="Rectángulo 5524" width="445" height="0.586"/>
            </g>
            <g id="Grupo_54849" data-name="Grupo 54849" transform="translate(0 123.488)">
              <rect id="Rectángulo_5525" data-name="Rectángulo 5525" width="445" height="0.586"/>
            </g>
            <g id="Grupo_54850" data-name="Grupo 54850" transform="translate(0 217.839)">
              <rect id="Rectángulo_5526" data-name="Rectángulo 5526" width="445" height="0.586"/>
            </g>
          </g>
          <g id="Grupo_54852" data-name="Grupo 54852" transform="translate(266 7662.782)">
            <path id="Trazado_102496" data-name="Trazado 102496" d="M75.109,364.758V358.6H92.347v6.157Z" transform="translate(-75.109 -358.601)"/>
          </g>
          <g id="Grupo_54853" data-name="Grupo 54853" transform="translate(264 7760.336)">
            <path id="Trazado_102497" data-name="Trazado 102497" d="M83.244,497.935a8.777,8.777,0,0,1,7.295,3.33q3.133,3.943,3.133,13.079,0,9.113-3.155,13.1a8.762,8.762,0,0,1-7.273,3.287,9.189,9.189,0,0,1-7.558-3.6q-2.871-3.6-2.87-12.849,0-9.071,3.155-13.057A8.759,8.759,0,0,1,83.244,497.935Zm0,5.105a3.075,3.075,0,0,0-1.994.711,4.78,4.78,0,0,0-1.358,2.552,52.16,52.16,0,0,0-.066,15.806,5.46,5.46,0,0,0,1.435,2.816,3.153,3.153,0,0,0,3.977-.011,4.78,4.78,0,0,0,1.359-2.552,52.019,52.019,0,0,0,.065-15.785,5.54,5.54,0,0,0-1.435-2.826A3.03,3.03,0,0,0,83.244,503.04Z" transform="translate(-72.816 -497.935)"/>
          </g>
          <g id="Grupo_54854" data-name="Grupo 54854" transform="translate(263 7542.529)">
            <path id="Trazado_102498" data-name="Trazado 102498" d="M87.205,228.591v-8.347H78.792v-5.762h8.413v-8.347h5.608v8.347h8.435v5.762H92.813v8.347Z" transform="translate(-78.792 -206.135)"/>
          </g>
          <rect id="Rectángulo_5538" data-name="Rectángulo 5538" width="444.704" height="310.725" transform="translate(230.296 7513.283)" fill="none"/>
          <text id="Solamente_podrán_almacenarse_juntos_adoptando_ciertas_medidas" data-name="Solamente podrán almacenarse juntos, adoptando ciertas medidas" transform="translate(323 7646.748)" font-size="13" font-family="Roboto-Regular, Roboto"><tspan x="0" y="14">Solamente podrán almacenarse juntos, </tspan><tspan x="0" y="32">adoptando ciertas medidas</tspan></text>
          <text id="No_deben_almacenarse_juntas" data-name="No deben almacenarse juntas" transform="translate(323 7766.735)" font-size="13" font-family="Roboto-Regular, Roboto"><tspan x="0" y="14">No deben almacenarse juntas</tspan></text>
          <text id="Se_pueden_almacenar_juntos" data-name="Se pueden almacenar juntos" transform="translate(323 7549.985)" font-size="13" font-family="Roboto-Regular, Roboto"><tspan x="0" y="14">Se pueden almacenar juntos</tspan></text>
        </g>
        <g id="Grupo_54937" data-name="Grupo 54937" transform="translate(36 6)">
          <text id="Matriz_de_productos_peligrosos" data-name="Matriz de productos peligrosos" transform="translate(391 7443.099)" fill="#12263f" font-size="18" font-family="Roboto-Black, Roboto" font-weight="800"><tspan x="-126.435" y="19">Matriz de productos peligrosos</tspan></text>
        </g>
      </g>
    </g>
  </g>
</svg>
