<svg xmlns="http://www.w3.org/2000/svg" width="454.469" height="448" viewBox="0 0 454.469 448">
  <g id="Grupo_54556" data-name="Grupo 54556" transform="translate(-783 -15342)">
    <rect id="Rectángulo_5171" data-name="Rectángulo 5171" width="444" height="448" transform="translate(783 15342)" fill="none"/>
    <g id="Grupo_54554" data-name="Grupo 54554" transform="translate(789.438 15416.767)">
      <g id="Grupo_54557" data-name="Grupo 54557" transform="translate(-137.155 -25.095)">
        <path id="Trazado_101900" data-name="Trazado 101900" d="M172.026,327.615c23.393,0,374.588.1,374.785-.651l.033-.1a.6.6,0,0,0,.033-.14c.13-.378,67.627-34.037,23.134-109.328-23.318-39.459,18.309-99.87-31.252-153.176-77.665-83.532-151.78,19.356-183.2,0-26.407-16.27-68.842-39.583-111.917-18.677-11.836,5.744-37.465,34.558-16.182,83.015,10.635,24.212-36.556,27.024-53.819,52.749C136.053,237.334,158.036,327.615,172.026,327.615Z" transform="translate(0 0)" fill="#ebf3fa"/>
      </g>
      <g id="Grupo_54468" data-name="Grupo 54468" transform="translate(59.606 0.152)" opacity="0.4">
        <g id="Grupo_54398" data-name="Grupo 54398" transform="translate(9.651 11.836)">
          <g id="Grupo_54386" data-name="Grupo 54386">
            <path id="Rectángulo_5466" data-name="Rectángulo 5466" d="M12.445,0h0A12.444,12.444,0,0,1,24.89,12.444V73.009A12.444,12.444,0,0,1,12.445,85.453h0A12.444,12.444,0,0,1,0,73.009V12.445A12.445,12.445,0,0,1,12.445,0Z" fill="#732be5"/>
          </g>
          <g id="Grupo_54387" data-name="Grupo 54387" transform="translate(6.611 61.189)">
            <path id="Trazado_101802" data-name="Trazado 101802" d="M2255.286,829.466a5.834,5.834,0,1,0-5.834,5.833A5.833,5.833,0,0,0,2255.286,829.466Z" transform="translate(-2243.618 -823.632)" fill="#505aba"/>
          </g>
          <g id="Grupo_54388" data-name="Grupo 54388" transform="translate(5.993 60.605)">
            <path id="Trazado_101803" data-name="Trazado 101803" d="M2253.7,827.412a6.451,6.451,0,1,0-6.451,6.452A6.458,6.458,0,0,0,2253.7,827.412Zm-1.235,0a5.216,5.216,0,1,1-5.216-5.216A5.222,5.222,0,0,1,2252.46,827.412Z" transform="translate(-2240.793 -820.961)" fill="#fff"/>
          </g>
          <g id="Grupo_54389" data-name="Grupo 54389" transform="translate(5.153 3.91)">
            <path id="Rectángulo_5467" data-name="Rectángulo 5467" d="M5.082,0H9.495a5.081,5.081,0,0,1,5.081,5.081V42.952a5.081,5.081,0,0,1-5.081,5.081H5.082A5.082,5.082,0,0,1,0,42.951V5.082A5.082,5.082,0,0,1,5.082,0Z" fill="#aec3ff"/>
          </g>
          <g id="Grupo_54390" data-name="Grupo 54390" transform="translate(6.861 5.649)">
            <rect id="Rectángulo_5468" data-name="Rectángulo 5468" width="10.863" height="1.926" rx="0.963" fill="#f99746"/>
          </g>
          <g id="Grupo_54397" data-name="Grupo 54397" transform="translate(8.78 15.946)">
            <g id="Grupo_54391" data-name="Grupo 54391" transform="translate(5.523 19.919)">
              <path id="Trazado_101804" data-name="Trazado 101804" d="M2257.394,708.277v9.9a.481.481,0,0,0,.481.482h0a.482.482,0,0,0,.481-.482v-9.9a.482.482,0,0,0-.481-.482h0A.481.481,0,0,0,2257.394,708.277Z" transform="translate(-2257.394 -707.795)" fill="#505aba"/>
            </g>
            <g id="Grupo_54392" data-name="Grupo 54392" transform="translate(5.523 6.297)">
              <path id="Trazado_101805" data-name="Trazado 101805" d="M2257.394,645.973v9.9a.482.482,0,0,0,.481.482h0a.482.482,0,0,0,.481-.482v-9.9a.482.482,0,0,0-.481-.482h0A.481.481,0,0,0,2257.394,645.973Z" transform="translate(-2257.394 -645.491)" fill="#505aba"/>
            </g>
            <g id="Grupo_54393" data-name="Grupo 54393" transform="translate(0 19.919)">
              <path id="Trazado_101806" data-name="Trazado 101806" d="M2282.658,708.277v9.9a.482.482,0,0,0,.481.482h0a.482.482,0,0,0,.481-.482v-9.9a.482.482,0,0,0-.481-.482h0A.482.482,0,0,0,2282.658,708.277Z" transform="translate(-2282.658 -707.795)" fill="#505aba"/>
            </g>
            <g id="Grupo_54394" data-name="Grupo 54394" transform="translate(0 6.297)">
              <path id="Trazado_101807" data-name="Trazado 101807" d="M2282.658,645.973v9.9a.482.482,0,0,0,.481.482h0a.482.482,0,0,0,.481-.482v-9.9a.482.482,0,0,0-.481-.482h0A.482.482,0,0,0,2282.658,645.973Z" transform="translate(-2282.658 -645.491)" fill="#505aba"/>
            </g>
            <g id="Grupo_54395" data-name="Grupo 54395" transform="translate(2.874 17.125)">
              <path id="Trazado_101808" data-name="Trazado 101808" d="M2269.512,695.5v12.695a.481.481,0,0,0,.482.481h0a.481.481,0,0,0,.481-.481V695.5a.481.481,0,0,0-.481-.481h0A.482.482,0,0,0,2269.512,695.5Z" transform="translate(-2269.512 -695.015)" fill="#505aba"/>
            </g>
            <g id="Grupo_54396" data-name="Grupo 54396" transform="translate(2.874)">
              <path id="Trazado_101809" data-name="Trazado 101809" d="M2269.512,617.167v12.695a.481.481,0,0,0,.482.481h0a.481.481,0,0,0,.481-.481V617.167a.481.481,0,0,0-.481-.481h0A.481.481,0,0,0,2269.512,617.167Z" transform="translate(-2269.512 -616.686)" fill="#505aba"/>
            </g>
          </g>
        </g>
        <g id="Grupo_54411" data-name="Grupo 54411" transform="translate(63.339 11.836)">
          <g id="Grupo_54399" data-name="Grupo 54399">
            <rect id="Rectángulo_5469" data-name="Rectángulo 5469" width="24.89" height="85.453" rx="12.445" fill="#732be5"/>
          </g>
          <g id="Grupo_54400" data-name="Grupo 54400" transform="translate(6.612 61.189)">
            <path id="Trazado_101810" data-name="Trazado 101810" d="M2113.305,829.466a5.833,5.833,0,1,0-5.833,5.833A5.834,5.834,0,0,0,2113.305,829.466Z" transform="translate(-2101.638 -823.632)" fill="#505aba"/>
          </g>
          <g id="Grupo_54401" data-name="Grupo 54401" transform="translate(5.993 60.605)">
            <path id="Trazado_101811" data-name="Trazado 101811" d="M2111.716,827.412a6.451,6.451,0,1,0-6.451,6.452A6.458,6.458,0,0,0,2111.716,827.412Zm-1.236,0a5.216,5.216,0,1,1-5.215-5.216A5.221,5.221,0,0,1,2110.48,827.412Z" transform="translate(-2098.813 -820.961)" fill="#fff"/>
          </g>
          <g id="Grupo_54402" data-name="Grupo 54402" transform="translate(5.153 3.91)">
            <rect id="Rectángulo_5470" data-name="Rectángulo 5470" width="14.576" height="48.033" rx="5.082" fill="#aec3ff"/>
          </g>
          <g id="Grupo_54403" data-name="Grupo 54403" transform="translate(6.862 5.649)">
            <rect id="Rectángulo_5471" data-name="Rectángulo 5471" width="10.864" height="1.926" rx="0.963" fill="#f99746"/>
          </g>
          <g id="Grupo_54410" data-name="Grupo 54410" transform="translate(8.78 15.946)">
            <g id="Grupo_54404" data-name="Grupo 54404" transform="translate(5.524 19.919)">
              <path id="Trazado_101812" data-name="Trazado 101812" d="M2115.414,708.277v9.9a.482.482,0,0,0,.481.482h0a.481.481,0,0,0,.481-.482v-9.9a.481.481,0,0,0-.481-.482h0A.482.482,0,0,0,2115.414,708.277Z" transform="translate(-2115.414 -707.795)" fill="#505aba"/>
            </g>
            <g id="Grupo_54405" data-name="Grupo 54405" transform="translate(5.524 6.297)">
              <path id="Trazado_101813" data-name="Trazado 101813" d="M2115.414,645.973v9.9a.482.482,0,0,0,.481.482h0a.482.482,0,0,0,.481-.482v-9.9a.481.481,0,0,0-.481-.482h0A.482.482,0,0,0,2115.414,645.973Z" transform="translate(-2115.414 -645.491)" fill="#505aba"/>
            </g>
            <g id="Grupo_54406" data-name="Grupo 54406" transform="translate(0 19.919)">
              <path id="Trazado_101814" data-name="Trazado 101814" d="M2140.678,708.277v9.9a.481.481,0,0,0,.481.482h0a.482.482,0,0,0,.482-.482v-9.9a.482.482,0,0,0-.482-.482h0A.481.481,0,0,0,2140.678,708.277Z" transform="translate(-2140.678 -707.795)" fill="#505aba"/>
            </g>
            <g id="Grupo_54407" data-name="Grupo 54407" transform="translate(0 6.297)">
              <path id="Trazado_101815" data-name="Trazado 101815" d="M2140.678,645.973v9.9a.482.482,0,0,0,.481.482h0a.482.482,0,0,0,.482-.482v-9.9a.482.482,0,0,0-.482-.482h0A.481.481,0,0,0,2140.678,645.973Z" transform="translate(-2140.678 -645.491)" fill="#505aba"/>
            </g>
            <g id="Grupo_54408" data-name="Grupo 54408" transform="translate(2.874 17.125)">
              <path id="Trazado_101816" data-name="Trazado 101816" d="M2127.532,695.5v12.695a.482.482,0,0,0,.482.481h0a.481.481,0,0,0,.481-.481V695.5a.481.481,0,0,0-.481-.481h0A.482.482,0,0,0,2127.532,695.5Z" transform="translate(-2127.532 -695.015)" fill="#505aba"/>
            </g>
            <g id="Grupo_54409" data-name="Grupo 54409" transform="translate(2.874)">
              <path id="Trazado_101817" data-name="Trazado 101817" d="M2127.532,617.167v12.695a.482.482,0,0,0,.482.481h0a.481.481,0,0,0,.481-.481V617.167a.481.481,0,0,0-.481-.481h0A.482.482,0,0,0,2127.532,617.167Z" transform="translate(-2127.532 -616.686)" fill="#505aba"/>
            </g>
          </g>
        </g>
        <g id="Grupo_54424" data-name="Grupo 54424" transform="translate(112.578 11.836)">
          <g id="Grupo_54412" data-name="Grupo 54412" transform="translate(0)">
            <rect id="Rectángulo_5472" data-name="Rectángulo 5472" width="24.89" height="85.453" rx="12.445" fill="#732be5"/>
          </g>
          <g id="Grupo_54413" data-name="Grupo 54413" transform="translate(6.611 61.189)">
            <path id="Trazado_101818" data-name="Trazado 101818" d="M1968.612,829.466a5.834,5.834,0,1,0-5.834,5.833A5.834,5.834,0,0,0,1968.612,829.466Z" transform="translate(-1956.945 -823.632)" fill="#505aba"/>
          </g>
          <g id="Grupo_54414" data-name="Grupo 54414" transform="translate(5.994 60.605)">
            <path id="Trazado_101819" data-name="Trazado 101819" d="M1967.023,827.412a6.451,6.451,0,1,0-6.451,6.452A6.458,6.458,0,0,0,1967.023,827.412Zm-1.235,0a5.216,5.216,0,1,1-5.216-5.216A5.222,5.222,0,0,1,1965.787,827.412Z" transform="translate(-1954.12 -820.961)" fill="#fff"/>
          </g>
          <g id="Grupo_54415" data-name="Grupo 54415" transform="translate(5.154 3.91)">
            <rect id="Rectángulo_5473" data-name="Rectángulo 5473" width="14.576" height="48.033" rx="5.082" fill="#aec3ff"/>
          </g>
          <g id="Grupo_54416" data-name="Grupo 54416" transform="translate(6.862 5.649)">
            <rect id="Rectángulo_5474" data-name="Rectángulo 5474" width="10.863" height="1.926" rx="0.963" fill="#f99746"/>
          </g>
          <g id="Grupo_54423" data-name="Grupo 54423" transform="translate(8.78 15.946)">
            <g id="Grupo_54417" data-name="Grupo 54417" transform="translate(5.523 19.919)">
              <path id="Trazado_101820" data-name="Trazado 101820" d="M1970.721,708.277v9.9a.482.482,0,0,0,.481.482h0a.482.482,0,0,0,.482-.482v-9.9a.482.482,0,0,0-.482-.482h0A.482.482,0,0,0,1970.721,708.277Z" transform="translate(-1970.721 -707.795)" fill="#505aba"/>
            </g>
            <g id="Grupo_54418" data-name="Grupo 54418" transform="translate(5.523 6.297)">
              <path id="Trazado_101821" data-name="Trazado 101821" d="M1970.721,645.973v9.9a.482.482,0,0,0,.481.482h0a.482.482,0,0,0,.482-.482v-9.9a.482.482,0,0,0-.482-.482h0A.482.482,0,0,0,1970.721,645.973Z" transform="translate(-1970.721 -645.491)" fill="#505aba"/>
            </g>
            <g id="Grupo_54419" data-name="Grupo 54419" transform="translate(0 19.919)">
              <path id="Trazado_101822" data-name="Trazado 101822" d="M1995.984,708.277v9.9a.482.482,0,0,0,.482.482h0a.482.482,0,0,0,.482-.482v-9.9a.482.482,0,0,0-.482-.482h0A.482.482,0,0,0,1995.984,708.277Z" transform="translate(-1995.984 -707.795)" fill="#505aba"/>
            </g>
            <g id="Grupo_54420" data-name="Grupo 54420" transform="translate(0 6.297)">
              <path id="Trazado_101823" data-name="Trazado 101823" d="M1995.984,645.973v9.9a.482.482,0,0,0,.482.482h0a.482.482,0,0,0,.482-.482v-9.9a.482.482,0,0,0-.482-.482h0A.482.482,0,0,0,1995.984,645.973Z" transform="translate(-1995.984 -645.491)" fill="#505aba"/>
            </g>
            <g id="Grupo_54421" data-name="Grupo 54421" transform="translate(2.874 17.125)">
              <path id="Trazado_101824" data-name="Trazado 101824" d="M1982.839,695.5v12.695a.482.482,0,0,0,.482.481h0a.481.481,0,0,0,.481-.481V695.5a.481.481,0,0,0-.481-.481h0A.482.482,0,0,0,1982.839,695.5Z" transform="translate(-1982.839 -695.015)" fill="#505aba"/>
            </g>
            <g id="Grupo_54422" data-name="Grupo 54422" transform="translate(2.874)">
              <path id="Trazado_101825" data-name="Trazado 101825" d="M1982.839,617.167v12.695a.482.482,0,0,0,.482.481h0a.481.481,0,0,0,.481-.481V617.167a.481.481,0,0,0-.481-.481h0A.482.482,0,0,0,1982.839,617.167Z" transform="translate(-1982.839 -616.686)" fill="#505aba"/>
            </g>
          </g>
        </g>
        <g id="Grupo_54428" data-name="Grupo 54428" transform="translate(163.286 11.836)">
          <g id="Grupo_54425" data-name="Grupo 54425" transform="translate(0)">
            <path id="Rectángulo_5475" data-name="Rectángulo 5475" d="M12.444,0h0A12.445,12.445,0,0,1,24.89,12.445V73.009A12.445,12.445,0,0,1,12.445,85.453h0A12.445,12.445,0,0,1,0,73.009V12.444A12.444,12.444,0,0,1,12.444,0Z" fill="#732be5"/>
          </g>
          <g id="Grupo_54426" data-name="Grupo 54426" transform="translate(5.153 3.91)">
            <path id="Rectángulo_5476" data-name="Rectángulo 5476" d="M5.083,0H9.494a5.082,5.082,0,0,1,5.082,5.082V42.951a5.082,5.082,0,0,1-5.082,5.082H5.082A5.082,5.082,0,0,1,0,42.951V5.083A5.083,5.083,0,0,1,5.083,0Z" fill="#aec3ff"/>
          </g>
          <g id="Grupo_54427" data-name="Grupo 54427" transform="translate(6.862 5.649)">
            <path id="Rectángulo_5477" data-name="Rectángulo 5477" d="M.963,0H9.9a.963.963,0,0,1,.963.963v0a.963.963,0,0,1-.963.963H.963A.963.963,0,0,1,0,.963v0A.963.963,0,0,1,.963,0Z" fill="#f99746"/>
          </g>
        </g>
        <g id="Grupo_54432" data-name="Grupo 54432" transform="translate(224.692 11.836)">
          <g id="Grupo_54429" data-name="Grupo 54429" transform="translate(0)">
            <path id="Rectángulo_5478" data-name="Rectángulo 5478" d="M12.445,0h0A12.444,12.444,0,0,1,24.89,12.444V73.009A12.444,12.444,0,0,1,12.445,85.453h0A12.444,12.444,0,0,1,0,73.009V12.445A12.445,12.445,0,0,1,12.445,0Z" fill="#732be5"/>
          </g>
          <g id="Grupo_54430" data-name="Grupo 54430" transform="translate(5.153 3.91)">
            <path id="Rectángulo_5479" data-name="Rectángulo 5479" d="M5.082,0H9.494a5.082,5.082,0,0,1,5.082,5.082v37.87a5.081,5.081,0,0,1-5.081,5.081H5.082A5.082,5.082,0,0,1,0,42.951V5.082A5.082,5.082,0,0,1,5.082,0Z" fill="#aec3ff"/>
          </g>
          <g id="Grupo_54431" data-name="Grupo 54431" transform="translate(6.861 5.649)">
            <rect id="Rectángulo_5480" data-name="Rectángulo 5480" width="10.863" height="1.926" rx="0.963" fill="#f99746"/>
          </g>
        </g>
        <g id="Grupo_54445" data-name="Grupo 54445" transform="translate(9.651 146.459)">
          <g id="Grupo_54433" data-name="Grupo 54433">
            <path id="Rectángulo_5481" data-name="Rectángulo 5481" d="M12.445,0h0A12.444,12.444,0,0,1,24.89,12.444V73.009A12.444,12.444,0,0,1,12.445,85.453h0A12.443,12.443,0,0,1,0,73.01V12.445A12.445,12.445,0,0,1,12.445,0Z" fill="#732be5"/>
          </g>
          <g id="Grupo_54434" data-name="Grupo 54434" transform="translate(6.611 61.189)">
            <ellipse id="Elipse_4128" data-name="Elipse 4128" cx="5.834" cy="5.834" rx="5.834" ry="5.834" fill="#505aba"/>
          </g>
          <g id="Grupo_54435" data-name="Grupo 54435" transform="translate(5.993 60.605)">
            <path id="Trazado_101826" data-name="Trazado 101826" d="M2253.7,1269.519a6.451,6.451,0,1,0-6.451,6.451A6.458,6.458,0,0,0,2253.7,1269.519Zm-1.235,0a5.216,5.216,0,1,1-5.216-5.216A5.222,5.222,0,0,1,2252.46,1269.519Z" transform="translate(-2240.793 -1263.068)" fill="#fff"/>
          </g>
          <g id="Grupo_54436" data-name="Grupo 54436" transform="translate(5.153 3.91)">
            <path id="Rectángulo_5482" data-name="Rectángulo 5482" d="M5.082,0H9.494a5.082,5.082,0,0,1,5.082,5.082v37.87a5.081,5.081,0,0,1-5.081,5.081H5.082A5.082,5.082,0,0,1,0,42.951V5.082A5.082,5.082,0,0,1,5.082,0Z" fill="#aec3ff"/>
          </g>
          <g id="Grupo_54437" data-name="Grupo 54437" transform="translate(6.861 5.649)">
            <path id="Rectángulo_5483" data-name="Rectángulo 5483" d="M.963,0H9.9a.963.963,0,0,1,.963.963v0a.963.963,0,0,1-.963.963H.963A.963.963,0,0,1,0,.963v0A.963.963,0,0,1,.963,0Z" fill="#f99746"/>
          </g>
          <g id="Grupo_54444" data-name="Grupo 54444" transform="translate(8.78 15.946)">
            <g id="Grupo_54438" data-name="Grupo 54438" transform="translate(5.523 19.919)">
              <path id="Trazado_101827" data-name="Trazado 101827" d="M2257.394,1150.385v9.9a.481.481,0,0,0,.481.481h0a.482.482,0,0,0,.481-.481v-9.9a.482.482,0,0,0-.481-.482h0A.481.481,0,0,0,2257.394,1150.385Z" transform="translate(-2257.394 -1149.903)" fill="#505aba"/>
            </g>
            <g id="Grupo_54439" data-name="Grupo 54439" transform="translate(5.523 6.298)">
              <path id="Trazado_101828" data-name="Trazado 101828" d="M2257.394,1088.08v9.9a.481.481,0,0,0,.481.481h0a.481.481,0,0,0,.481-.481v-9.9a.482.482,0,0,0-.481-.481h0A.481.481,0,0,0,2257.394,1088.08Z" transform="translate(-2257.394 -1087.599)" fill="#505aba"/>
            </g>
            <g id="Grupo_54440" data-name="Grupo 54440" transform="translate(0 19.919)">
              <path id="Trazado_101829" data-name="Trazado 101829" d="M2282.658,1150.385v9.9a.481.481,0,0,0,.481.481h0a.482.482,0,0,0,.481-.481v-9.9a.482.482,0,0,0-.481-.482h0A.482.482,0,0,0,2282.658,1150.385Z" transform="translate(-2282.658 -1149.903)" fill="#505aba"/>
            </g>
            <g id="Grupo_54441" data-name="Grupo 54441" transform="translate(0 6.298)">
              <path id="Trazado_101830" data-name="Trazado 101830" d="M2282.658,1088.08v9.9a.481.481,0,0,0,.481.481h0a.481.481,0,0,0,.481-.481v-9.9a.482.482,0,0,0-.481-.481h0A.481.481,0,0,0,2282.658,1088.08Z" transform="translate(-2282.658 -1087.599)" fill="#505aba"/>
            </g>
            <g id="Grupo_54442" data-name="Grupo 54442" transform="translate(2.874 17.125)">
              <path id="Trazado_101831" data-name="Trazado 101831" d="M2269.512,1137.6V1150.3a.482.482,0,0,0,.482.482h0a.482.482,0,0,0,.481-.482V1137.6a.482.482,0,0,0-.481-.482h0A.482.482,0,0,0,2269.512,1137.6Z" transform="translate(-2269.512 -1137.122)" fill="#505aba"/>
            </g>
            <g id="Grupo_54443" data-name="Grupo 54443" transform="translate(2.874)">
              <path id="Trazado_101832" data-name="Trazado 101832" d="M2269.512,1059.274v12.695a.482.482,0,0,0,.482.482h0a.482.482,0,0,0,.481-.482v-12.695a.482.482,0,0,0-.481-.481h0A.482.482,0,0,0,2269.512,1059.274Z" transform="translate(-2269.512 -1058.793)" fill="#505aba"/>
            </g>
          </g>
        </g>
        <g id="Grupo_54458" data-name="Grupo 54458" transform="translate(63.339 146.459)">
          <g id="Grupo_54446" data-name="Grupo 54446">
            <path id="Rectángulo_5484" data-name="Rectángulo 5484" d="M12.445,0h0A12.445,12.445,0,0,1,24.89,12.445V73.008A12.445,12.445,0,0,1,12.445,85.453h0A12.444,12.444,0,0,1,0,73.009V12.445A12.445,12.445,0,0,1,12.445,0Z" fill="#732be5"/>
          </g>
          <g id="Grupo_54447" data-name="Grupo 54447" transform="translate(6.612 61.189)">
            <path id="Trazado_101833" data-name="Trazado 101833" d="M2113.305,1271.572a5.833,5.833,0,1,0-5.833,5.834A5.834,5.834,0,0,0,2113.305,1271.572Z" transform="translate(-2101.638 -1265.738)" fill="#505aba"/>
          </g>
          <g id="Grupo_54448" data-name="Grupo 54448" transform="translate(5.993 60.605)">
            <path id="Trazado_101834" data-name="Trazado 101834" d="M2111.716,1269.519a6.451,6.451,0,1,0-6.451,6.451A6.459,6.459,0,0,0,2111.716,1269.519Zm-1.236,0a5.216,5.216,0,1,1-5.215-5.216A5.222,5.222,0,0,1,2110.48,1269.519Z" transform="translate(-2098.813 -1263.068)" fill="#fff"/>
          </g>
          <g id="Grupo_54449" data-name="Grupo 54449" transform="translate(5.153 3.91)">
            <rect id="Rectángulo_5485" data-name="Rectángulo 5485" width="14.576" height="48.033" rx="5.082" fill="#aec3ff"/>
          </g>
          <g id="Grupo_54450" data-name="Grupo 54450" transform="translate(6.862 5.649)">
            <path id="Rectángulo_5486" data-name="Rectángulo 5486" d="M.963,0H9.9a.963.963,0,0,1,.963.963v0a.963.963,0,0,1-.963.963H.963A.963.963,0,0,1,0,.963v0A.963.963,0,0,1,.963,0Z" fill="#f99746"/>
          </g>
          <g id="Grupo_54457" data-name="Grupo 54457" transform="translate(8.78 15.946)">
            <g id="Grupo_54451" data-name="Grupo 54451" transform="translate(5.524 19.919)">
              <path id="Trazado_101835" data-name="Trazado 101835" d="M2115.414,1150.385v9.9a.481.481,0,0,0,.481.481h0a.481.481,0,0,0,.481-.481v-9.9a.481.481,0,0,0-.481-.482h0A.482.482,0,0,0,2115.414,1150.385Z" transform="translate(-2115.414 -1149.903)" fill="#505aba"/>
            </g>
            <g id="Grupo_54452" data-name="Grupo 54452" transform="translate(5.524 6.298)">
              <path id="Trazado_101836" data-name="Trazado 101836" d="M2115.414,1088.08v9.9a.481.481,0,0,0,.481.481h0a.481.481,0,0,0,.481-.481v-9.9a.481.481,0,0,0-.481-.481h0A.481.481,0,0,0,2115.414,1088.08Z" transform="translate(-2115.414 -1087.599)" fill="#505aba"/>
            </g>
            <g id="Grupo_54453" data-name="Grupo 54453" transform="translate(0 19.919)">
              <path id="Trazado_101837" data-name="Trazado 101837" d="M2140.678,1150.385v9.9a.481.481,0,0,0,.481.481h0a.481.481,0,0,0,.482-.481v-9.9a.482.482,0,0,0-.482-.482h0A.481.481,0,0,0,2140.678,1150.385Z" transform="translate(-2140.678 -1149.903)" fill="#505aba"/>
            </g>
            <g id="Grupo_54454" data-name="Grupo 54454" transform="translate(0 6.298)">
              <path id="Trazado_101838" data-name="Trazado 101838" d="M2140.678,1088.08v9.9a.481.481,0,0,0,.481.481h0a.481.481,0,0,0,.482-.481v-9.9a.482.482,0,0,0-.482-.481h0A.481.481,0,0,0,2140.678,1088.08Z" transform="translate(-2140.678 -1087.599)" fill="#505aba"/>
            </g>
            <g id="Grupo_54455" data-name="Grupo 54455" transform="translate(2.874 17.125)">
              <path id="Trazado_101839" data-name="Trazado 101839" d="M2127.532,1137.6V1150.3a.482.482,0,0,0,.482.482h0a.482.482,0,0,0,.481-.482V1137.6a.482.482,0,0,0-.481-.482h0A.482.482,0,0,0,2127.532,1137.6Z" transform="translate(-2127.532 -1137.122)" fill="#505aba"/>
            </g>
            <g id="Grupo_54456" data-name="Grupo 54456" transform="translate(2.874)">
              <path id="Trazado_101840" data-name="Trazado 101840" d="M2127.532,1059.274v12.695a.482.482,0,0,0,.482.482h0a.482.482,0,0,0,.481-.482v-12.695a.482.482,0,0,0-.481-.481h0A.482.482,0,0,0,2127.532,1059.274Z" transform="translate(-2127.532 -1058.793)" fill="#505aba"/>
            </g>
          </g>
        </g>
        <g id="Grupo_54460" data-name="Grupo 54460" transform="translate(112.578 146.459)">
          <g id="Grupo_54459" data-name="Grupo 54459" transform="translate(0)">
            <path id="Rectángulo_5487" data-name="Rectángulo 5487" d="M12.445,0h0A12.445,12.445,0,0,1,24.89,12.445V73.008A12.445,12.445,0,0,1,12.445,85.453h0A12.444,12.444,0,0,1,0,73.009V12.445A12.445,12.445,0,0,1,12.445,0Z" fill="#732be5"/>
          </g>
        </g>
        <g id="Grupo_54462" data-name="Grupo 54462" transform="translate(163.286 146.459)">
          <g id="Grupo_54461" data-name="Grupo 54461" transform="translate(0)">
            <path id="Rectángulo_5488" data-name="Rectángulo 5488" d="M12.444,0h0A12.445,12.445,0,0,1,24.89,12.445V73.008A12.445,12.445,0,0,1,12.444,85.453h0A12.444,12.444,0,0,1,0,73.009V12.444A12.444,12.444,0,0,1,12.444,0Z" fill="#8c9df4"/>
          </g>
        </g>
        <g id="Grupo_54464" data-name="Grupo 54464" transform="translate(224.692 146.459)">
          <g id="Grupo_54463" data-name="Grupo 54463" transform="translate(0)">
            <path id="Rectángulo_5489" data-name="Rectángulo 5489" d="M12.445,0h0A12.444,12.444,0,0,1,24.89,12.444V73.009A12.444,12.444,0,0,1,12.445,85.453h0A12.444,12.444,0,0,1,0,73.01V12.445A12.445,12.445,0,0,1,12.445,0Z" fill="#8c9df4"/>
          </g>
        </g>
        <g id="Grupo_54465" data-name="Grupo 54465" transform="translate(0 0)">
          <path id="Trazado_101841" data-name="Trazado 101841" d="M2346.988,789.1h0c-1.652,0-2.992-1.644-2.992-3.672V493.282c0-2.028,1.34-3.673,2.992-3.673h0c1.653,0,2.992,1.644,2.992,3.673V785.427C2349.98,787.455,2348.641,789.1,2346.988,789.1Z" transform="translate(-2343.996 -489.609)" fill="#bdd1f9"/>
        </g>
        <g id="Grupo_54466" data-name="Grupo 54466" transform="translate(0 119.647)">
          <rect id="Rectángulo_5490" data-name="Rectángulo 5490" width="261.248" height="2.403" fill="#bdd1f9"/>
        </g>
        <g id="Grupo_54467" data-name="Grupo 54467" transform="translate(0 238.44)">
          <rect id="Rectángulo_5491" data-name="Rectángulo 5491" width="271.984" height="2.403" fill="#bdd1f9"/>
        </g>
      </g>
      <g id="Grupo_54474" data-name="Grupo 54474" transform="translate(35.451 214.65)">
        <g id="Grupo_54469" data-name="Grupo 54469" transform="translate(0 0)">
          <rect id="Rectángulo_5492" data-name="Rectángulo 5492" width="14.138" height="45.609" fill="#35488b"/>
        </g>
        <g id="Grupo_54470" data-name="Grupo 54470" transform="translate(14.138 0)">
          <rect id="Rectángulo_5493" data-name="Rectángulo 5493" width="34.094" height="45.609" fill="#2c3a64"/>
        </g>
        <g id="Grupo_54471" data-name="Grupo 54471" transform="translate(4.709 3.337)">
          <path id="Trazado_101842" data-name="Trazado 101842" d="M375.192,1213.666a2.36,2.36,0,1,1,2.36,2.36A2.36,2.36,0,0,1,375.192,1213.666Z" transform="translate(-375.192 -1211.306)" fill="#dde7fe"/>
        </g>
        <g id="Grupo_54472" data-name="Grupo 54472" transform="translate(5.4 4.028)">
          <path id="Trazado_101843" data-name="Trazado 101843" d="M378.354,1216.137a1.668,1.668,0,1,1,1.669,1.668A1.668,1.668,0,0,1,378.354,1216.137Z" transform="translate(-378.354 -1214.468)" fill="#6c7aff"/>
        </g>
        <g id="Grupo_54473" data-name="Grupo 54473" transform="translate(3.796 11.381)">
          <rect id="Rectángulo_5494" data-name="Rectángulo 5494" width="6.65" height="12.013" fill="#8fadef"/>
        </g>
      </g>
      <g id="Grupo_54480" data-name="Grupo 54480" transform="translate(74.711 214.65)">
        <g id="Grupo_54475" data-name="Grupo 54475" transform="translate(0 0)">
          <rect id="Rectángulo_5495" data-name="Rectángulo 5495" width="14.138" height="45.609" fill="#35488b"/>
        </g>
        <g id="Grupo_54476" data-name="Grupo 54476" transform="translate(14.138 0)">
          <rect id="Rectángulo_5496" data-name="Rectángulo 5496" width="34.094" height="45.609" fill="#2c3a64"/>
        </g>
        <g id="Grupo_54477" data-name="Grupo 54477" transform="translate(4.709 3.337)">
          <path id="Trazado_101844" data-name="Trazado 101844" d="M495.831,1213.666a2.36,2.36,0,1,1,2.36,2.36A2.36,2.36,0,0,1,495.831,1213.666Z" transform="translate(-495.831 -1211.306)" fill="#dde7fe"/>
        </g>
        <g id="Grupo_54478" data-name="Grupo 54478" transform="translate(5.4 4.028)">
          <path id="Trazado_101845" data-name="Trazado 101845" d="M498.992,1216.137a1.669,1.669,0,1,1,1.669,1.668A1.668,1.668,0,0,1,498.992,1216.137Z" transform="translate(-498.992 -1214.468)" fill="#6c7aff"/>
        </g>
        <g id="Grupo_54479" data-name="Grupo 54479" transform="translate(3.796 11.381)">
          <rect id="Rectángulo_5497" data-name="Rectángulo 5497" width="6.65" height="12.013" fill="#8fadef"/>
        </g>
      </g>
      <g id="Grupo_54486" data-name="Grupo 54486" transform="translate(103.853 214.65)">
        <g id="Grupo_54481" data-name="Grupo 54481" transform="translate(0 0)">
          <rect id="Rectángulo_5498" data-name="Rectángulo 5498" width="14.138" height="45.609" fill="#35488b"/>
        </g>
        <g id="Grupo_54482" data-name="Grupo 54482" transform="translate(14.138 0)">
          <rect id="Rectángulo_5499" data-name="Rectángulo 5499" width="34.094" height="45.609" fill="#2c3a64"/>
        </g>
        <g id="Grupo_54483" data-name="Grupo 54483" transform="translate(4.709 3.337)">
          <path id="Trazado_101846" data-name="Trazado 101846" d="M606.14,1213.666a2.36,2.36,0,1,1,2.36,2.36A2.36,2.36,0,0,1,606.14,1213.666Z" transform="translate(-606.14 -1211.306)" fill="#dde7fe"/>
        </g>
        <g id="Grupo_54484" data-name="Grupo 54484" transform="translate(5.4 4.028)">
          <path id="Trazado_101847" data-name="Trazado 101847" d="M609.3,1216.137a1.669,1.669,0,1,1,1.669,1.668A1.669,1.669,0,0,1,609.3,1216.137Z" transform="translate(-609.3 -1214.468)" fill="#6c7aff"/>
        </g>
        <g id="Grupo_54485" data-name="Grupo 54485" transform="translate(3.796 11.381)">
          <rect id="Rectángulo_5500" data-name="Rectángulo 5500" width="6.65" height="12.013" fill="#8fadef"/>
        </g>
      </g>
      <g id="Grupo_54490" data-name="Grupo 54490" transform="translate(30.159 244.352)">
        <g id="Grupo_54487" data-name="Grupo 54487" transform="translate(26.26)">
          <rect id="Rectángulo_5501" data-name="Rectángulo 5501" width="105.144" height="59.017" fill="#fd0"/>
        </g>
        <g id="Grupo_54488" data-name="Grupo 54488">
          <rect id="Rectángulo_5502" data-name="Rectángulo 5502" width="63.333" height="59.017" fill="#efcf05"/>
        </g>
        <g id="Grupo_54489" data-name="Grupo 54489" transform="translate(23.294 5.702)">
          <rect id="Rectángulo_5503" data-name="Rectángulo 5503" width="20.098" height="3.933" rx="1.966" fill="#2c3a64"/>
        </g>
      </g>
      <g id="Grupo_54501" data-name="Grupo 54501" transform="translate(164.068 98.642)">
        <g id="Grupo_54491" data-name="Grupo 54491" transform="translate(109.398 68.733)">
          <path id="Trazado_101848" data-name="Trazado 101848" d="M1198.031,974.746l10.8,128.441s1.132,7.786-4.66,7.8c-9.522.023-47.395,0-47.395,0s7.167-1.621,7.08-5.268c-.1-4.3-12.625-132.188-12.625-132.188Z" transform="translate(-1151.234 -973.531)" fill="#798ee8"/>
        </g>
        <g id="Grupo_54492" data-name="Grupo 54492" transform="translate(106.251 66.347)">
          <path id="Trazado_101849" data-name="Trazado 101849" d="M1141.965,1100.123c1.873.005,38.538.068,47.811-.051,4.041-.05,4.75-3.593,4.783-5.886a11.5,11.5,0,0,0-.123-1.912l-.281-3.338-.716-8.509-.632-7.517-.813-9.66-.684-8.153-7.675-91.266-46.8-1.214s5.274,53.521,9.005,92.48c.417,4.34.813,8.5,1.179,12.388q.178,1.861.344,3.634c.346,3.686.662,7.071.937,10.06.145,1.575.279,3.039.4,4.38.476,5.254.755,8.609.759,9.247a5.408,5.408,0,0,1-.091,1.04C1148.6,1099.938,1142.668,1100.123,1141.965,1100.123Z" transform="translate(-1136.837 -962.616)" fill="#aec3ff"/>
        </g>
        <g id="Grupo_54493" data-name="Grupo 54493" transform="translate(0 0)">
          <path id="Trazado_101850" data-name="Trazado 101850" d="M920.687,659.143,894.375,764.833l-3.6,14.475-12.255,49.227H650.84l45.17-169.393Z" transform="translate(-650.84 -659.143)" fill="#aec3ff"/>
        </g>
        <g id="Grupo_54494" data-name="Grupo 54494" transform="translate(227.677)">
          <path id="Trazado_101851" data-name="Trazado 101851" d="M1734.419,659.142l3.647,1.216L1697.1,832.212l-4.848-3.677Z" transform="translate(-1692.249 -659.142)" fill="#798ee8"/>
        </g>
        <g id="Grupo_54495" data-name="Grupo 54495" transform="translate(0.001 169.394)">
          <path id="Trazado_101852" data-name="Trazado 101852" d="M883.367,1437.636H657.091l-6.248-3.677H878.519Z" transform="translate(-650.843 -1433.96)" fill="#849def"/>
        </g>
        <g id="Grupo_54496" data-name="Grupo 54496" transform="translate(104.072 203.854)">
          <rect id="Rectángulo_5504" data-name="Rectángulo 5504" width="48.992" height="2.328" fill="#aec3ff"/>
        </g>
        <g id="Grupo_54497" data-name="Grupo 54497" transform="translate(116.526 173.069)">
          <path id="Trazado_101853" data-name="Trazado 101853" d="M1183.837,1450.772l.253,1.78,46.074,9.308-.632-7.517-.3-3.571Z" transform="translate(-1183.837 -1450.772)" fill="#8c9df4"/>
        </g>
        <g id="Grupo_54498" data-name="Grupo 54498" transform="translate(111.378 189.289)" opacity="0.5">
          <path id="Trazado_101854" data-name="Trazado 101854" d="M1160.292,1539.525c1.873.005,38.538.068,47.811-.052,4.041-.05,4.75-3.593,4.783-5.886l-45.857-8.628c.476,5.254.755,8.609.759,9.247a5.41,5.41,0,0,1-.091,1.04C1166.929,1539.34,1160.995,1539.525,1160.292,1539.525Z" transform="translate(-1160.292 -1524.96)" fill="#8c9df4"/>
        </g>
        <g id="Grupo_54499" data-name="Grupo 54499" transform="translate(8.716)">
          <path id="Trazado_101855" data-name="Trazado 101855" d="M951.838,659.142H727.16L690.706,795.281h227.24Z" transform="translate(-690.706 -659.142)" fill="#8c9df4"/>
        </g>
        <g id="Grupo_54500" data-name="Grupo 54500" transform="translate(19.312 7.293)">
          <path id="Trazado_101856" data-name="Trazado 101856" d="M739.176,815.448H949.542L957.06,785.5l2.909-11.587,1.185-4.725,7.727-30.776.4-1.6,4.085-16.267,1.827-7.279,1.558-6.209,1.272-5.064,2.383-9.49H773.07l-2.616,9.49-1.4,5.064-1.712,6.209-2.006,7.279L752.12,768.5v0L751,772.561l-.522,1.885-9.126,33.105Z" transform="translate(-739.176 -692.502)" fill="#732be5"/>
        </g>
      </g>
      <g id="Grupo_54502" data-name="Grupo 54502" transform="translate(0 303.369)">
        <rect id="Rectángulo_5505" data-name="Rectángulo 5505" width="401" height="1.472" rx="0.736" transform="translate(401 1.472) rotate(-180)" fill="#233862"/>
      </g>
      <g id="Grupo_54503" data-name="Grupo 54503" transform="translate(303.833 140.153)">
        <path id="Trazado_101857" data-name="Trazado 101857" d="M1364.007,829.648l1.941-2.865a11.327,11.327,0,0,1,8.925-5.083h21.341l-3.7,13.542-14.695,53.734a5.54,5.54,0,0,1-5.344,4.078h-76.795a5.54,5.54,0,0,1-5.344-7l13.9-50.812h49.957A12.465,12.465,0,0,0,1364.007,829.648Z" transform="translate(-1290.133 -821.7)" fill="#fd0"/>
      </g>
      <g id="Grupo_54528" data-name="Grupo 54528" transform="translate(241.353 46.175)">
        <g id="Grupo_54524" data-name="Grupo 54524" transform="translate(0 0)">
          <g id="Grupo_54504" data-name="Grupo 54504" transform="translate(36.897 82.653)">
            <path id="Trazado_101858" data-name="Trazado 101858" d="M1579.625,746.265a1.187,1.187,0,0,1,.212,1.27.009.009,0,0,1,0,.006,7.89,7.89,0,0,1-2.492,2.736c-.151.122-.284.232-.4.334-.031.027-.061.053-.09.08l-.069.063c-1.1,1.011-.683,1.242-2.651,3.293-2.245,2.337-3.79,2.379-4.23,2.167-.372-.181.383-1.42,1.22-2.813.04-.067.08-.135.122-.2.112-.185.223-.373.333-.559.981-1.676.729-2.463.495-4.957-.19-2.027-3.157-11.322-3.157-11.322l4.3-.743s1.3,7.4,2.726,8.542c.763.607,1.618.615,2.352,1.065.052.031.1.063.152.1A5.653,5.653,0,0,1,1579.625,746.265Z" transform="translate(-1568.914 -735.616)" fill="#ffb27d"/>
          </g>
          <g id="Grupo_54505" data-name="Grupo 54505" transform="translate(37.787 92.355)">
            <path id="Trazado_101859" data-name="Trazado 101859" d="M1582.8,780.944a1.187,1.187,0,0,1,.212,1.27.009.009,0,0,1,0,.006,9.13,9.13,0,0,1-2.5,2.728c-.148.123-.279.236-.4.342-.031.027-.061.053-.09.08l-.069.063c-1.1,1.011-.683,1.242-2.651,3.293-2.245,2.337-3.79,2.379-4.23,2.167-.372-.181.383-1.42,1.22-2.813a9.57,9.57,0,0,0,4-2.95c1.3-1.663,2.186-3.782,3.072-5.083l.253-.047A5.658,5.658,0,0,1,1582.8,780.944Z" transform="translate(-1572.983 -779.998)" fill="#233862"/>
          </g>
          <g id="Grupo_54506" data-name="Grupo 54506" transform="translate(0 81.353)">
            <path id="Trazado_101860" data-name="Trazado 101860" d="M1413.057,738.946c-.265,1.328-2.158,1.107-4.274.591s-1.612.1-4.622-.234-3.923-1.454-4.015-1.9c-.082-.4,1.405-.538,3-.722.2-.023.4-.047.6-.072,1.8-.227,3.12-1.39,4.756-2.345,1.549-.9,3.861-4.589,3.861-4.589l4.128.326s-2.165,3.291-3,4.722a4.987,4.987,0,0,0-.4,2.813A5.292,5.292,0,0,1,1413.057,738.946Z" transform="translate(-1400.143 -729.673)" fill="#ffb27d"/>
          </g>
          <g id="Grupo_54507" data-name="Grupo 54507" transform="translate(0 88.359)">
            <path id="Trazado_101861" data-name="Trazado 101861" d="M1408.783,764.577c-2.115-.516-1.612.1-4.622-.234s-3.923-1.454-4.015-1.9c-.082-.4,1.405-.538,3-.722l.015.031a8.484,8.484,0,0,0,4.311,1.338c2.042.049,4.205-.537,5.615-.514a5.293,5.293,0,0,1-.031,1.412C1412.792,765.314,1410.9,765.093,1408.783,764.577Z" transform="translate(-1400.143 -761.719)" fill="#233862"/>
          </g>
          <g id="Grupo_54508" data-name="Grupo 54508" transform="translate(28.725 57.605)">
            <path id="Trazado_101862" data-name="Trazado 101862" d="M1531.533,627.666l3.863,10.383,5.043,13.557a8.151,8.151,0,0,0,2.676-.245,11.615,11.615,0,0,0,2.588-1.261s-1.4-14.558-4.017-22.914a14.883,14.883,0,0,0-2.248-4.856C1535.392,617.549,1531.533,627.666,1531.533,627.666Z" transform="translate(-1531.533 -621.046)" fill="#e6c907"/>
          </g>
          <g id="Grupo_54509" data-name="Grupo 54509" transform="translate(9.835 45.646)">
            <path id="Trazado_101863" data-name="Trazado 101863" d="M1467.938,568.43c2.2-.709,7.928-.014,14.146,1.109a4.216,4.216,0,0,0,4.353-1.968h0l15.645-1.227s5.167,11.447,2.343,18.744a2.745,2.745,0,0,1-2.734,1.765h0s-9.454.016-12.478.018c-7.781,0-16.469-5.343-17.593-5.567-1.839-.367-2.574,3.311-4.412,7.174s-17.282,17.11-17.282,17.11a13.59,13.59,0,0,1-3.355-.343,3.3,3.3,0,0,1-1.441-.909S1462.238,570.272,1467.938,568.43Z" transform="translate(-1445.131 -566.345)" fill="#fd0"/>
          </g>
          <g id="Grupo_54510" data-name="Grupo 54510" transform="translate(47.158)">
            <path id="Trazado_101864" data-name="Trazado 101864" d="M1619.915,382.885c5.572,3.066,16.877,9.421,16.936,9.38,0,0,4.155,1.564,6.511,0,3.927-2.61,6.031-9.632-1.155-15.671-3.584-3.012-6.129-3.745-6.518-8.556-.212-2.621-3.81-11.293-9.782-10.415a8.3,8.3,0,0,1-1.443.088,5.549,5.549,0,0,0-2.988.779C1618.122,360.486,1611.563,381.7,1619.915,382.885Z" transform="translate(-1615.847 -357.558)" fill="#233862"/>
          </g>
          <g id="Grupo_54511" data-name="Grupo 54511" transform="translate(55.183 13.952)">
            <path id="Trazado_101865" data-name="Trazado 101865" d="M1653.265,430.136c-.025.016,2.742.959,4.591.139,1.739-.77,3.056-3.632,3.031-3.634-.792-.036-1.661-.728-2.331-5.268l-.337.121-5.666,2.041s.411,1.818.677,3.549C1653.453,428.538,1653.574,429.93,1653.265,430.136Z" transform="translate(-1652.552 -421.374)" fill="#ffb27d"/>
          </g>
          <g id="Grupo_54512" data-name="Grupo 54512" transform="translate(55.183 14.073)">
            <path id="Trazado_101866" data-name="Trazado 101866" d="M1652.552,423.969s.226.981.557,2.813a6.4,6.4,0,0,0,5.109-4.854Z" transform="translate(-1652.552 -421.928)" fill="#ed975d"/>
          </g>
          <g id="Grupo_54513" data-name="Grupo 54513" transform="translate(50.356 4.281)">
            <path id="Trazado_101867" data-name="Trazado 101867" d="M1634.458,390.776s7.752-1.043,7.028-5.861-.211-8.2-5.191-7.735-5.664,2.445-5.813,4.112S1632.423,390.923,1634.458,390.776Z" transform="translate(-1630.474 -377.138)" fill="#ffb27d"/>
          </g>
          <g id="Grupo_54514" data-name="Grupo 54514" transform="translate(50.645 3.855)">
            <path id="Trazado_101868" data-name="Trazado 101868" d="M1631.8,377.13s4.964,4.275,8.34,4.619,4.654-.74,4.654-.74a13.181,13.181,0,0,1-3.188-4.317,2.374,2.374,0,0,0-1.958-1.4C1637.235,375.085,1632.666,374.992,1631.8,377.13Z" transform="translate(-1631.798 -375.191)" fill="#233862"/>
          </g>
          <g id="Grupo_54515" data-name="Grupo 54515" transform="translate(49.74 4.483)">
            <path id="Trazado_101869" data-name="Trazado 101869" d="M1631.663,378.99a12.222,12.222,0,0,0-2.182,2.8,9.378,9.378,0,0,0-.252,4.989s-2.589-5.029-1.125-7.473C1629.656,376.71,1631.663,378.99,1631.663,378.99Z" transform="translate(-1627.655 -378.063)" fill="#233862"/>
          </g>
          <g id="Grupo_54516" data-name="Grupo 54516" transform="translate(49.37 19.037)">
            <path id="Trazado_101870" data-name="Trazado 101870" d="M1625.964,459.734c.24,15.693.068,12.414,1.786,13.9a6.593,6.593,0,0,0,3.107.672c4.812.318,13.271-.478,13.592-1.367,1.109-3.077.325-4.033,1.249-8.744.1-.5.216-1.043.356-1.634.771-3.236,1.522-4.337-1.219-9.534-2.486-4.708-5.068-8.529-5.3-8.391-6.553,3.893-7.082.623-7.082.623S1625.847,452.079,1625.964,459.734Z" transform="translate(-1625.963 -444.634)" fill="#2f539b"/>
          </g>
          <g id="Grupo_54517" data-name="Grupo 54517" transform="translate(32.588 63.744)">
            <path id="Trazado_101871" data-name="Trazado 101871" d="M1549.2,659.99l5.043,13.557a8.151,8.151,0,0,0,2.676-.246,11.611,11.611,0,0,0,2.588-1.261s-1.4-14.558-4.016-22.914Z" transform="translate(-1549.201 -649.127)" fill="#fd0"/>
          </g>
          <g id="Grupo_54518" data-name="Grupo 54518" transform="translate(44.934 19.663)">
            <path id="Trazado_101872" data-name="Trazado 101872" d="M1616.6,447.5s-6.743,1.146-7.534,4.05-3.391,20.529-3.391,20.529,1.9,1.856,3.485.272,4.979-16.491,4.979-16.491Z" transform="translate(-1605.675 -447.496)" fill="#2f539b"/>
          </g>
          <g id="Grupo_54519" data-name="Grupo 54519" transform="translate(54.264 32.064)">
            <path id="Trazado_101873" data-name="Trazado 101873" d="M1648.351,520.869c4.812.318,13.271-.478,13.592-1.367,1.109-3.077.325-4.033,1.249-8.744l-2.323-6.535s.386,7.278-1.759,9.193-8.787,3.7-9.829,5.3A5.854,5.854,0,0,0,1648.351,520.869Z" transform="translate(-1648.351 -504.223)" fill="#233862"/>
          </g>
          <g id="Grupo_54520" data-name="Grupo 54520" transform="translate(51.371 44.915)">
            <path id="Trazado_101874" data-name="Trazado 101874" d="M1643.525,563.735s-4.748-1.055-5.514-.634a11.139,11.139,0,0,0-2.872,2.491c-.234.534,1.705-.406,2.336-.575a5.612,5.612,0,0,1,2.017.441,6.7,6.7,0,0,0,3.614.362Z" transform="translate(-1635.12 -563.002)" fill="#ffb27d"/>
          </g>
          <g id="Grupo_54521" data-name="Grupo 54521" transform="translate(59.01 19.037)">
            <path id="Trazado_101875" data-name="Trazado 101875" d="M1673.995,444.636s6.375.39,8.583,3.467c3.108,4.332,9.276,22.794,5.746,25.257-3.977,2.775-18.1.732-18.1.732s-.471-2.2.183-3.26,11.28-2.783,11.77-3.274-6.134-9.562-6.135-11.033S1673.995,444.636,1673.995,444.636Z" transform="translate(-1670.058 -444.636)" fill="#2f539b"/>
          </g>
          <g id="Grupo_54522" data-name="Grupo 54522" transform="translate(52.176 46.336)">
            <path id="Trazado_101876" data-name="Trazado 101876" d="M1640.658,569.5a9.176,9.176,0,0,1-1.32,1.436.976.976,0,0,1-.537.115l.67-1.207Z" transform="translate(-1638.801 -569.502)" fill="#ffb27d"/>
          </g>
          <g id="Grupo_54523" data-name="Grupo 54523" transform="translate(51.371 45.014)">
            <path id="Trazado_101877" data-name="Trazado 101877" d="M1638.01,563.457l-2.891,1.405a.515.515,0,0,0,.479.185,6.891,6.891,0,0,0,1.254-.345Z" transform="translate(-1635.118 -563.457)" fill="#ffb27d"/>
          </g>
        </g>
        <g id="Grupo_54525" data-name="Grupo 54525" transform="translate(29.568 48.314)">
          <path id="Trazado_101878" data-name="Trazado 101878" d="M1535.389,578.56l30.209-.011v.667l-29.941.01Z" transform="translate(-1535.389 -578.549)" fill="#233862"/>
        </g>
        <g id="Grupo_54526" data-name="Grupo 54526" transform="translate(22.949 31.872)">
          <path id="Trazado_101879" data-name="Trazado 101879" d="M1534.876,520.455l-22.877.008-6.888-17.111,22.842-.008Z" transform="translate(-1505.111 -503.344)" fill="#233862"/>
        </g>
        <g id="Grupo_54527" data-name="Grupo 54527" transform="translate(35.564 39.343)">
          <path id="Trazado_101880" data-name="Trazado 101880" d="M1562.86,538.605a.792.792,0,0,1,.776-1.089,1.561,1.561,0,0,1,1.4,1.089.793.793,0,0,1-.776,1.09A1.561,1.561,0,0,1,1562.86,538.605Z" transform="translate(-1562.815 -537.516)" fill="#fff"/>
        </g>
      </g>
      <g id="Grupo_54529" data-name="Grupo 54529" transform="translate(221.135 131.282)" opacity="0.5">
        <path id="Trazado_101881" data-name="Trazado 101881" d="M1045.723,790.706l6.328-8.083.3-.381.357-.066,29.2-5.373,9.828,53.417-37.86,6.965-8.406-45.695-.069-.374Z" transform="translate(-1045.402 -776.803)" fill="#8c9df4"/>
      </g>
      <g id="Grupo_54531" data-name="Grupo 54531" transform="translate(241.536 122.178)">
        <g id="Grupo_54530" data-name="Grupo 54530">
          <path id="Trazado_101882" data-name="Trazado 101882" d="M1127.269,739.078l-.014.38-1.8,46.426,38.467,1.492,2.105-54.272-29.672-1.15-.362-.014-.375.307-7.944,6.5Z" transform="translate(-1125.453 -731.94)" fill="#8c9df4"/>
        </g>
      </g>
      <g id="Grupo_54546" data-name="Grupo 54546" transform="translate(272.672 136.677)">
        <g id="Grupo_54532" data-name="Grupo 54532" transform="translate(0 3.668)">
          <path id="Trazado_101883" data-name="Trazado 101883" d="M1232.195,825.4l64.194,3.578a.235.235,0,0,1,.222.248l-4.685,84.061a.235.235,0,0,1-.248.222l-64.1-3.573a.235.235,0,0,1-.221-.248l4.69-84.152A.144.144,0,0,1,1232.195,825.4Z" transform="translate(-1227.353 -825.399)" fill="#233862"/>
        </g>
        <g id="Grupo_54533" data-name="Grupo 54533" transform="translate(2.186 5.753)">
          <path id="Trazado_101884" data-name="Trazado 101884" d="M1240.125,914.731l54.375,3.412a2.959,2.959,0,0,0,3.139-2.768l4.636-73.884a2.959,2.959,0,0,0-2.768-3.139l-54.375-3.412a2.959,2.959,0,0,0-3.138,2.768l-4.636,73.884A2.959,2.959,0,0,0,1240.125,914.731Z" transform="translate(-1237.351 -834.934)" fill="#ebf3fa"/>
        </g>
        <g id="Grupo_54544" data-name="Grupo 54544" transform="translate(13.09 17.028)">
          <g id="Grupo_54534" data-name="Grupo 54534" transform="translate(13.299)">
            <path id="Trazado_101885" data-name="Trazado 101885" d="M1348.088,887.424l34.205,2.146a.032.032,0,0,0,.034-.03l.053-.854a.032.032,0,0,0-.029-.034l-34.206-2.146a.031.031,0,0,0-.033.03l-.054.855A.032.032,0,0,0,1348.088,887.424Z" transform="translate(-1348.059 -886.506)" fill="#bdd1f9"/>
          </g>
          <g id="Grupo_54535" data-name="Grupo 54535" transform="translate(12.838 7.344)">
            <path id="Trazado_101886" data-name="Trazado 101886" d="M1345.979,921.016l34.206,2.146a.031.031,0,0,0,.033-.029l.054-.855a.031.031,0,0,0-.03-.033l-34.205-2.146a.032.032,0,0,0-.034.029l-.054.855A.032.032,0,0,0,1345.979,921.016Z" transform="translate(-1345.95 -920.098)" fill="#bdd1f9"/>
          </g>
          <g id="Grupo_54536" data-name="Grupo 54536" transform="translate(0 2.852)">
            <path id="Trazado_101887" data-name="Trazado 101887" d="M1287.257,900.469l47.274,2.967a.032.032,0,0,0,.033-.03l.054-.855a.032.032,0,0,0-.03-.033l-47.274-2.966a.031.031,0,0,0-.034.029l-.054.855A.031.031,0,0,0,1287.257,900.469Z" transform="translate(-1287.228 -899.552)" fill="#bdd1f9"/>
          </g>
          <g id="Grupo_54537" data-name="Grupo 54537" transform="translate(21.11 30.691)">
            <path id="Trazado_101888" data-name="Trazado 101888" d="M1383.809,1027.8l23.273,1.461.028-.025.054-.866-.024-.027-23.273-1.461-.028.024-.054.866Z" transform="translate(-1383.785 -1026.887)" fill="#bdd1f9"/>
          </g>
          <g id="Grupo_54538" data-name="Grupo 54538" transform="translate(12.445 26.461)">
            <path id="Trazado_101889" data-name="Trazado 101889" d="M1344.176,1008.457l32.168,2.019.027-.025.054-.866-.024-.028-32.168-2.019-.028.024-.054.866Z" transform="translate(-1344.152 -1007.539)" fill="#bdd1f9"/>
          </g>
          <g id="Grupo_54539" data-name="Grupo 54539" transform="translate(10.069 34.102)">
            <path id="Trazado_101890" data-name="Trazado 101890" d="M1333.313,1043.407l34.206,2.146a.032.032,0,0,0,.033-.03l.054-.855a.032.032,0,0,0-.03-.033l-34.205-2.147a.032.032,0,0,0-.034.03l-.054.855A.032.032,0,0,0,1333.313,1043.407Z" transform="translate(-1333.283 -1042.489)" fill="#bdd1f9"/>
          </g>
          <g id="Grupo_54540" data-name="Grupo 54540" transform="translate(6.016 37.533)">
            <path id="Trazado_101891" data-name="Trazado 101891" d="M1314.771,1059.1l38.035,2.386.03-.026.054-.862-.026-.03-38.035-2.387-.03.027-.054.861Z" transform="translate(-1314.744 -1058.186)" fill="#bdd1f9"/>
          </g>
          <g id="Grupo_54541" data-name="Grupo 54541" transform="translate(18.961 44.819)">
            <path id="Trazado_101892" data-name="Trazado 101892" d="M1373.981,1092.429l24.479,1.536.029-.025.054-.864-.025-.029-24.479-1.536-.029.025-.054.864Z" transform="translate(-1373.956 -1091.511)" fill="#bdd1f9"/>
          </g>
          <g id="Grupo_54542" data-name="Grupo 54542" transform="translate(18.5 52.163)">
            <path id="Trazado_101893" data-name="Trazado 101893" d="M1371.873,1126.02l24.479,1.536.029-.025.054-.864-.025-.029-24.479-1.536-.028.025-.054.865Z" transform="translate(-1371.848 -1125.102)" fill="#bdd1f9"/>
          </g>
          <g id="Grupo_54543" data-name="Grupo 54543" transform="translate(9.375 47.904)">
            <path id="Trazado_101894" data-name="Trazado 101894" d="M1330.133,1106.54l33.834,2.123.029-.025.054-.865-.025-.028-33.835-2.123-.028.025-.054.864Z" transform="translate(-1330.108 -1105.622)" fill="#bdd1f9"/>
          </g>
        </g>
        <g id="Grupo_54545" data-name="Grupo 54545" transform="translate(18.318 0)">
          <path id="Trazado_101895" data-name="Trazado 101895" d="M1311.4,811.745l-.253,4.524a.8.8,0,0,0,.783.813l35.432,1.975a.8.8,0,0,0,.869-.721l.252-4.524a3.459,3.459,0,0,0-3.389-3.518l-29.936-1.669A3.459,3.459,0,0,0,1311.4,811.745Z" transform="translate(-1311.143 -808.619)" fill="#fd0"/>
        </g>
      </g>
    </g>
  </g>
</svg>
