<svg xmlns="http://www.w3.org/2000/svg" xmlns:xlink="http://www.w3.org/1999/xlink" width="352" height="244.484" viewBox="0 0 352 244.484">
  <defs>
    <clipPath id="clip-path">
      <path id="Trazado_101762" data-name="Trazado 101762" d="M1008.412,613.358c-4.467-9.862-9.578-25.1-7.463-42.87,2.429-20.4,12.167-25.489,18.987-47.755,9.736-31.785-7.407-52.181,5.08-62.929,6.089-5.241,16.438-6.369,23.311-2.518,19.611,10.987,20.757,68-5.73,93.178-11.979,11.386-23.506,11.442-31.906,25.4C1003.269,588.206,1005.581,603.167,1008.412,613.358Z" transform="translate(-1000.457 -455)" fill="#02dba8"/>
    </clipPath>
    <clipPath id="clip-path-2">
      <path id="Trazado_101768" data-name="Trazado 101768" d="M609.908,1037.1c2.319-8.312,4.559-21.444-1.046-34.014-9.779-21.93-32.431-17.469-51-41.843-14.978-19.659-8.142-32.931-25.6-46.81-2.922-2.323-18.312-15.034-31.352-9.8-7.348,2.948-10.691,10.276-11.318,11.651-9.484,20.791,8.816,56.944,35.77,75.5,15.487,10.66,21.109,8.337,48.934,21.831A163.845,163.845,0,0,1,609.908,1037.1Z" transform="translate(-487.061 -903.378)" fill="#02cddb"/>
    </clipPath>
    <clipPath id="clip-path-3">
      <path id="Trazado_101768-2" data-name="Trazado 101768" d="M489.526,1037.1c-2.319-8.312-4.559-21.444,1.046-34.014,9.779-21.93,32.431-17.469,51-41.843,14.978-19.659,8.142-32.931,25.6-46.81,2.922-2.323,18.312-15.034,31.352-9.8,7.348,2.948,10.691,10.276,11.318,11.651,9.483,20.791-8.816,56.944-35.77,75.5-15.487,10.66-21.109,8.337-48.934,21.831A163.847,163.847,0,0,0,489.526,1037.1Z" transform="translate(-487.061 -903.378)" fill="#02cddb"/>
    </clipPath>
    <linearGradient id="linear-gradient" x1="0.409" y1="4.687" x2="0.503" y2="0.793" gradientUnits="objectBoundingBox">
      <stop offset="0" stop-color="#4042e2"/>
      <stop offset="1" stop-color="#4f52ff"/>
    </linearGradient>
    <linearGradient id="linear-gradient-2" x1="0.5" y1="-0.612" x2="0.5" y2="0.225" xlink:href="#linear-gradient"/>
    <linearGradient id="linear-gradient-3" x1="23.155" y1="0.5" x2="24.155" y2="0.5" gradientUnits="objectBoundingBox">
      <stop offset="0" stop-color="#09005d"/>
      <stop offset="1" stop-color="#1a0f91"/>
    </linearGradient>
    <linearGradient id="linear-gradient-4" x1="23.155" x2="24.155" xlink:href="#linear-gradient-3"/>
    <linearGradient id="linear-gradient-5" x1="44.871" y1="-0.131" x2="65.791" y2="2.029" gradientUnits="objectBoundingBox">
      <stop offset="0" stop-color="#233894"/>
      <stop offset="0.996" stop-color="#dd397a"/>
    </linearGradient>
    <linearGradient id="linear-gradient-6" x1="4.618" y1="-2.427" x2="5.307" y2="7.776" xlink:href="#linear-gradient-5"/>
    <linearGradient id="linear-gradient-7" x1="0.855" y1="1.69" x2="1.921" y2="5.269" xlink:href="#linear-gradient"/>
    <linearGradient id="linear-gradient-8" x1="-7.04" y1="5.424" x2="-16.278" y2="2.631" xlink:href="#linear-gradient-3"/>
    <linearGradient id="linear-gradient-9" x1="-1.205" y1="16.951" x2="-3.186" y2="4.881" xlink:href="#linear-gradient-3"/>
    <linearGradient id="linear-gradient-10" x1="8.33" y1="1.415" x2="9.695" y2="4.275" xlink:href="#linear-gradient"/>
    <linearGradient id="linear-gradient-11" x1="-182.117" y1="-0.921" x2="-182.366" y2="-1.499" gradientUnits="objectBoundingBox">
      <stop offset="0" stop-color="#ff928e"/>
      <stop offset="1" stop-color="#feb3b1"/>
    </linearGradient>
    <linearGradient id="linear-gradient-12" x1="-165.716" y1="-8.035" x2="-166.731" y2="-8.035" xlink:href="#linear-gradient-11"/>
    <linearGradient id="linear-gradient-13" x1="-181.552" y1="27.739" x2="-180.573" y2="28.49" xlink:href="#linear-gradient-11"/>
    <linearGradient id="linear-gradient-14" x1="-182.266" y1="24.094" x2="-183.159" y2="25.1" xlink:href="#linear-gradient-3"/>
    <linearGradient id="linear-gradient-15" x1="-743.981" y1="101.929" x2="-739.981" y2="104.763" xlink:href="#linear-gradient-11"/>
    <linearGradient id="linear-gradient-16" x1="1" x2="0" xlink:href="#linear-gradient-3"/>
    <linearGradient id="linear-gradient-17" x1="0.963" y1="0.127" x2="0.196" y2="1.039" xlink:href="#linear-gradient-3"/>
    <linearGradient id="linear-gradient-18" x1="0.539" y1="0.446" x2="0.304" y2="0.902" xlink:href="#linear-gradient-3"/>
    <linearGradient id="linear-gradient-19" x1="0.892" y1="0.338" x2="-1.728" y2="2.425" xlink:href="#linear-gradient-3"/>
    <linearGradient id="linear-gradient-20" x1="-0.603" y1="-0.035" x2="-0.268" y2="0.123" xlink:href="#linear-gradient-3"/>
    <linearGradient id="linear-gradient-21" x1="5.441" y1="0.072" x2="6.578" y2="0.632" gradientUnits="objectBoundingBox">
      <stop offset="0" stop-color="#a22b25"/>
      <stop offset="1" stop-color="#c0423c"/>
    </linearGradient>
    <linearGradient id="linear-gradient-22" x1="14.802" y1="0.446" x2="18.535" y2="1.666" xlink:href="#linear-gradient-21"/>
    <linearGradient id="linear-gradient-23" x1="15.216" y1="-3.34" x2="14.453" y2="-12.957" xlink:href="#linear-gradient"/>
    <linearGradient id="linear-gradient-24" x1="-4.13" y1="0.5" x2="-5.129" y2="0.5" xlink:href="#linear-gradient-11"/>
    <linearGradient id="linear-gradient-25" x1="0.026" y1="0.859" x2="1.396" y2="2.229" xlink:href="#linear-gradient-3"/>
    <linearGradient id="linear-gradient-26" x1="36.999" y1="-3.627" x2="35.11" y2="-14.889" xlink:href="#linear-gradient"/>
    <linearGradient id="linear-gradient-27" x1="3.565" y1="0.5" x2="2.565" y2="0.5" xlink:href="#linear-gradient-11"/>
    <linearGradient id="linear-gradient-28" x1="1.119" y1="0.821" x2="2.224" y2="2.175" xlink:href="#linear-gradient-3"/>
    <linearGradient id="linear-gradient-29" x1="34.069" y1="1.455" x2="32.569" y2="-0.217" xlink:href="#linear-gradient-21"/>
    <linearGradient id="linear-gradient-30" x1="1.027" y1="0.459" x2="-0.347" y2="0.658" xlink:href="#linear-gradient-21"/>
    <linearGradient id="linear-gradient-31" x1="147.041" y1="-32.666" x2="146.806" y2="-31.527" xlink:href="#linear-gradient-3"/>
    <linearGradient id="linear-gradient-32" x1="3.206" y1="-0.09" x2="-1.272" y2="0.876" xlink:href="#linear-gradient-21"/>
    <linearGradient id="linear-gradient-33" x1="-27.801" y1="-1.695" x2="-19.52" y2="3.792" xlink:href="#linear-gradient-3"/>
    <linearGradient id="linear-gradient-34" x1="-30.097" y1="-1.496" x2="-21.021" y2="4.145" xlink:href="#linear-gradient-3"/>
    <linearGradient id="linear-gradient-35" x1="-6.02" y1="-0.201" x2="-3.295" y2="4.53" xlink:href="#linear-gradient-3"/>
    <linearGradient id="linear-gradient-36" x1="-6.423" y1="-4.017" x2="-5.406" y2="5.492" xlink:href="#linear-gradient-3"/>
    <linearGradient id="linear-gradient-37" x1="-17.447" y1="0.5" x2="-18.447" y2="0.5" xlink:href="#linear-gradient-21"/>
    <linearGradient id="linear-gradient-38" x1="-61.943" y1="0.5" x2="-62.943" y2="0.5" xlink:href="#linear-gradient-21"/>
  </defs>
  <g id="Grupo_54909" data-name="Grupo 54909" transform="translate(-0.3 -44.609)">
    <g id="Grupo_54366" data-name="Grupo 54366" transform="translate(0.3 44.609)">
      <g id="Grupo_54365" data-name="Grupo 54365" transform="translate(0 54.386)">
        <g id="Grupo_54367" data-name="Grupo 54367" transform="translate(237.4 0)">
          <g id="Grupo_54359" data-name="Grupo 54359" transform="translate(0)">
            <path id="Trazado_101757" data-name="Trazado 101757" d="M1008.412,613.358c-4.467-9.862-9.578-25.1-7.463-42.87,2.429-20.4,12.167-25.489,18.987-47.755,9.736-31.785-7.407-52.181,5.08-62.929,6.089-5.241,16.438-6.369,23.311-2.518,19.611,10.987,20.757,68-5.73,93.178-11.979,11.386-23.506,11.442-31.906,25.4C1003.269,588.206,1005.581,603.167,1008.412,613.358Z" transform="translate(-1000.457 -455)" fill="#02dba8"/>
            <g id="Grupo_54358" data-name="Grupo 54358" clip-path="url(#clip-path)">
              <g id="Grupo_54357" data-name="Grupo 54357" transform="translate(2.759 -4.71)" style="mix-blend-mode: soft-light;isolation: isolate">
                <path id="Trazado_101758" data-name="Trazado 101758" d="M1240.24,531.954a78.064,78.064,0,0,1,3.007-13.032c3.146-9.72,7.175-15.316,12.276-22.4a181.92,181.92,0,0,0,11.324-17.258c7.892-13.824,10.285-18.639,12.079-26.178a72.109,72.109,0,0,0-.252-34.007,70.317,70.317,0,0,0-11.839-24.687l-.3.225a69.938,69.938,0,0,1,11.776,24.555A71.726,71.726,0,0,1,1278.56,453c-1.783,7.493-4.168,12.291-12.04,26.078a181.779,181.779,0,0,1-11.3,17.224c-5.121,7.113-9.166,12.731-12.329,22.506a78.427,78.427,0,0,0-3.022,13.1Z" transform="translate(-1239.867 -394.391)" fill="#02dba8"/>
                <path id="Trazado_101759" data-name="Trazado 101759" d="M1082.45,550.766l.255-.176a38.173,38.173,0,0,0,9.261-10.142,34.889,34.889,0,0,0,3.955-28.893l-.362.1a34.525,34.525,0,0,1-3.911,28.589,38.515,38.515,0,0,1-8.9,9.849c-1.456-10.457-8.923-16.524-14.965-19.783a46.71,46.71,0,0,0-13.026-4.629l-.06.372a46.325,46.325,0,0,1,12.917,4.594c6.02,3.249,13.475,9.322,14.8,19.809Z" transform="translate(-1042.041 -502.449)" fill="#02dba8"/>
                <path id="Trazado_101760" data-name="Trazado 101760" d="M1020.1,1087.434a29.385,29.385,0,0,0,20.92-8.084l-.262-.271c-12.1,11.724-28.484,7.22-30.227,6.7,2.973-20.455-11.424-29.246-11.57-29.333l-.192.324c.145.086,14.4,8.8,11.366,29.113l-.023.157.15.05A34.823,34.823,0,0,0,1020.1,1087.434Z" transform="translate(-981.312 -1004.988)" fill="#02dba8"/>
                <path id="Trazado_101761" data-name="Trazado 101761" d="M1180.583,1356.89c4.743,0,10.749-1.1,17.858-4.611l-.167-.338c-17.835,8.8-28.6,2.343-29.791,1.56,3.375-11.125-4.881-27.6-4.966-27.767l-.336.17c.084.165,8.338,16.639,4.9,27.618l-.04.129.109.08C1168.219,1353.781,1172.62,1356.89,1180.583,1356.89Z" transform="translate(-1151.51 -1253.351)" fill="#02dba8"/>
              </g>
            </g>
          </g>
        </g>
        <g id="Grupo_54364" data-name="Grupo 54364" transform="translate(0 5.949)">
          <g id="Grupo_54363" data-name="Grupo 54363">
            <path id="Trazado_101763" data-name="Trazado 101763" d="M609.908,1037.1c2.319-8.312,4.559-21.444-1.046-34.014-9.779-21.93-32.431-17.469-51-41.843-14.978-19.659-8.142-32.931-25.6-46.81-2.922-2.323-18.312-15.034-31.352-9.8-7.348,2.948-10.691,10.276-11.318,11.651-9.484,20.791,8.816,56.944,35.77,75.5,15.487,10.66,21.109,8.337,48.934,21.831A163.845,163.845,0,0,1,609.908,1037.1Z" transform="translate(-487.061 -903.378)" fill="#02cddb"/>
            <g id="Grupo_54362" data-name="Grupo 54362" clip-path="url(#clip-path-2)">
              <g id="Grupo_54361" data-name="Grupo 54361" transform="translate(-5.505 -8.395)" style="mix-blend-mode: soft-light;isolation: isolate">
                <path id="Trazado_101764" data-name="Trazado 101764" d="M809.791,947.93c-2-20.586-8.469-34.964-19.215-42.735-5.244-3.792-9.654-4.782-14.324-5.831-5.1-1.145-10.366-2.328-16.958-7.362-6.415-4.9-8.438-9.153-11-14.54a79.909,79.909,0,0,0-12.02-19.029,85.172,85.172,0,0,0-14.713-14.013c-4.437-3.464-7.942-6.2-11.683-12.39-6.1-10.085-8.513-22.423-7.186-36.669l.375.035c-1.319,14.165,1.081,26.424,7.134,36.44,3.7,6.13,7.186,8.847,11.592,12.287a85.475,85.475,0,0,1,14.77,14.069A80.238,80.238,0,0,1,748.637,877.3c2.538,5.341,4.543,9.559,10.886,14.4,6.527,4.983,11.756,6.158,16.812,7.293,4.708,1.057,9.155,2.056,14.462,5.893,10.837,7.836,17.354,22.3,19.369,43Z" transform="translate(-680.104 -795.362)" fill="#02cddb"/>
                <path id="Trazado_101765" data-name="Trazado 101765" d="M459.809,966.525l-.252-.019a55.424,55.424,0,0,1-33.019-14.153,52.409,52.409,0,0,1-10.311-12.392l.332-.179a52.019,52.019,0,0,0,10.243,12.3,55.05,55.05,0,0,0,32.536,14.028c-.566-2.874-5.508-29.83,5.668-39.925l.253.279c-11.593,10.472-5.565,39.522-5.5,39.814Z" transform="translate(-416.228 -916.018)" fill="#02cddb"/>
                <path id="Trazado_101766" data-name="Trazado 101766" d="M525.519,1299.2c-.286,0-.573,0-.864-.006a65.661,65.661,0,0,1-39.057-13.182l.227-.3a67.22,67.22,0,0,0,57.168,10.855c-2.4-15.141,3.413-35.516,3.472-35.721l.362.1c-.059.2-5.888,20.646-3.436,35.718l.026.16-.154.05A64.113,64.113,0,0,1,525.519,1299.2Z" transform="translate(-480.207 -1224.673)" fill="#02cddb"/>
                <path id="Trazado_101767" data-name="Trazado 101767" d="M1004.142,1683.734a97.842,97.842,0,0,1-12.67-.835l.049-.374c27.227,3.554,44.716-5.363,46.629-6.4-9.57-14.912-2.806-36.852-2.736-37.073l.359.114c-.069.219-6.83,22.16,2.8,36.923l.109.166-.172.1C1038.361,1676.446,1025.513,1683.734,1004.142,1683.734Z" transform="translate(-946.765 -1573.486)" fill="#02cddb"/>
              </g>
            </g>
          </g>
        </g>
        <g id="Grupo_54368" data-name="Grupo 54368" transform="translate(214.323 34.847)">
          <g id="Grupo_54363-2" data-name="Grupo 54363" transform="translate(0 0)">
            <path id="Trazado_101763-2" data-name="Trazado 101763" d="M489.526,1037.1c-2.319-8.312-4.559-21.444,1.046-34.014,9.779-21.93,32.431-17.469,51-41.843,14.978-19.659,8.142-32.931,25.6-46.81,2.922-2.323,18.312-15.034,31.352-9.8,7.348,2.948,10.691,10.276,11.318,11.651,9.483,20.791-8.816,56.944-35.77,75.5-15.487,10.66-21.109,8.337-48.934,21.831A163.847,163.847,0,0,0,489.526,1037.1Z" transform="translate(-487.061 -903.378)" fill="#02cddb"/>
            <g id="Grupo_54362-2" data-name="Grupo 54362" clip-path="url(#clip-path-3)">
              <g id="Grupo_54361-2" data-name="Grupo 54361" transform="translate(0.755 -8.395)" style="mix-blend-mode: soft-light;isolation: isolate">
                <path id="Trazado_101764-2" data-name="Trazado 101764" d="M702.716,947.93c2-20.586,8.469-34.964,19.215-42.735,5.244-3.792,9.655-4.782,14.324-5.831,5.1-1.145,10.366-2.328,16.958-7.362,6.415-4.9,8.438-9.153,11-14.54a79.911,79.911,0,0,1,12.02-19.029,85.177,85.177,0,0,1,14.713-14.013c4.437-3.464,7.942-6.2,11.683-12.39,6.1-10.085,8.513-22.423,7.186-36.669l-.375.035c1.319,14.165-1.081,26.424-7.134,36.44-3.705,6.13-7.186,8.847-11.592,12.287a85.471,85.471,0,0,0-14.77,14.069A80.236,80.236,0,0,0,763.87,877.3c-2.538,5.341-4.543,9.559-10.886,14.4-6.527,4.983-11.756,6.158-16.812,7.293-4.708,1.057-9.155,2.056-14.462,5.893-10.837,7.836-17.354,22.3-19.369,43Z" transform="translate(-702.341 -795.362)" fill="#02cddb"/>
                <path id="Trazado_101765-2" data-name="Trazado 101765" d="M421.678,966.525l.251-.019a55.424,55.424,0,0,0,33.019-14.153,52.408,52.408,0,0,0,10.311-12.392l-.332-.179a52.018,52.018,0,0,1-10.243,12.3,55.05,55.05,0,0,1-32.536,14.028c.566-2.874,5.508-29.83-5.668-39.925l-.253.279c11.593,10.472,5.565,39.522,5.5,39.814Z" transform="translate(-335.198 -916.018)" fill="#02cddb"/>
                <path id="Trazado_101766-2" data-name="Trazado 101766" d="M506.907,1299.2c.286,0,.574,0,.864-.006a65.661,65.661,0,0,0,39.057-13.182l-.228-.3a67.22,67.22,0,0,1-57.168,10.855c2.4-15.141-3.413-35.516-3.472-35.721l-.362.1c.059.2,5.888,20.646,3.436,35.718l-.026.16.154.05A64.116,64.116,0,0,0,506.907,1299.2Z" transform="translate(-422.158 -1224.673)" fill="#02cddb"/>
                <path id="Trazado_101767-2" data-name="Trazado 101767" d="M1026.013,1683.734a97.848,97.848,0,0,0,12.671-.835l-.049-.374c-27.227,3.554-44.717-5.363-46.629-6.4,9.57-14.912,2.806-36.852,2.736-37.073l-.359.114c.069.219,6.831,22.16-2.8,36.923l-.109.166.172.1C991.794,1676.446,1004.643,1683.734,1026.013,1683.734Z" transform="translate(-953.329 -1573.486)" fill="#02cddb"/>
              </g>
            </g>
          </g>
        </g>
      </g>
      <g id="Grupo_54373" data-name="Grupo 54373" transform="translate(36.157 0)">
        <g id="Grupo_54369" data-name="Grupo 54369" transform="matrix(0.875, 0.485, -0.485, 0.875, 37.316, 110.259)">
          <path id="Trazado_101769" data-name="Trazado 101769" d="M83.519,53.612c-1.571-1.885-2-4.463-2.276-6.915-.532-4.642-.765-9.345-1.907-13.868s-3.311-8.953-6.984-11.781c-1.536-1.182-3.54-2.079-5.383-1.461a5.152,5.152,0,0,0-3.017,3.387,15.289,15.289,0,0,0-.521,4.663,35.408,35.408,0,0,0-7.218-17A29.035,29.035,0,0,0,40.931.6,15.21,15.21,0,0,0,34.2.227a8.4,8.4,0,0,0-5.548,3.653C27.3,6.113,27.333,8.9,27.587,11.5A17.385,17.385,0,0,0,17.238,3.084,14.28,14.28,0,0,0,4.343,5.8,12.375,12.375,0,0,0,.425,18.269c1.508,5.175,6.455,8.466,11.288,10.767a73.325,73.325,0,0,0,13.724,4.928c-3.573.9-7.52,2.891-8.183,6.542a7.091,7.091,0,0,0,1.8,5.743A14.684,14.684,0,0,0,24.1,49.756c9.638,4.5,20.734,4.2,31.375,3.817a11.458,11.458,0,0,0-3.243,2.9,3.913,3.913,0,0,0-.319,4.133,4.809,4.809,0,0,0,3.347,1.808c5.967,1.078,12-1.328,17.459-4.038,3.132-1.555,7.791-2.98,10.8-4.765" transform="translate(0 0)" fill="#fbc50a"/>
          <path id="Trazado_101770" data-name="Trazado 101770" d="M2.252,15.5a.382.382,0,0,1,.33-.414c1.779-.11,3.561-.174,5.343-.181q2.608-.009,5.212.146,2.526.155,5.037.481,2.537.33,5.049.83,1.53.3,3.046.661-5.155-2.674-10.423-5.119C11.292,9.8,6.668,7.849,1.971,6.088Q1.1,5.76.223,5.442c-.45-.163-.152-.851.3-.689C5.252,6.475,9.911,8.392,14.5,10.467s9.1,4.305,13.559,6.65q5.416,2.849,10.723,5.9-1.278-1.49-2.544-2.989-2.005-2.372-4-4.756-2.009-2.4-4.024-4.79-2.007-2.377-4.038-4.733-2.007-2.322-4.055-4.607-.247-.275-.5-.548A.381.381,0,0,1,19.7.075a.376.376,0,0,1,.52.071Q22.264,2.4,24.257,4.708q2.035,2.345,4.038,4.72,2.02,2.387,4.026,4.787,2,2.384,4,4.764,1.98,2.347,3.983,4.674l.431.5.551.319q5.167,3.01,10.262,6.141-.454-.61-.9-1.228-1.04-1.458-2.017-2.962T46.73,23.356q-.939-1.58-1.817-3.2-.844-1.552-1.628-3.136c-.064-.13-.129-.261-.193-.392a.372.372,0,1,1,.69-.279q.774,1.583,1.609,3.134.208.387.421.773c.034.063.069.127.1.19l.037.067L46,20.6c.073.131.147.263.22.393q.44.781.893,1.552Q48.026,24.1,49,25.615t2.005,2.976Q52.02,30.025,53.1,31.41q.114.146.229.292l.9.554q6.447,3.986,12.843,8.056l1.577,1c.4.255-.059.844-.46.591q-4.833-3.059-9.676-6.1a.366.366,0,0,1-.147-.027,48.658,48.658,0,0,0-5.272-1.8c-1.805-.5-3.637-.909-5.481-1.243s-3.718-.6-5.59-.8-3.762-.364-5.649-.488-3.772-.215-5.66-.3l-.685-.028a.375.375,0,0,1-.31-.426.384.384,0,0,1,.424-.315c1.894.078,3.788.165,5.68.282s3.787.263,5.675.461,3.742.443,5.6.762,3.7.708,5.516,1.192q1.468.39,2.913.861l-.167-.1c-4.267-2.651-8.556-5.266-12.888-7.811S33.751,21,29.314,18.629l-.282-.15a.26.26,0,0,1-.085-.008c-1.72-.46-3.452-.875-5.2-1.235q-2.5-.516-5.039-.872-2.506-.348-5.032-.526-1.269-.089-2.541-.135c-.871-.032-1.638-.047-2.5-.05-1.771-.007-3.543.044-5.313.141-.222.013-.445.025-.668.04A.375.375,0,0,1,2.252,15.5Z" transform="translate(13.333 10.777)" fill="#e5a300"/>
        </g>
        <g id="Grupo_54370" data-name="Grupo 54370" transform="translate(261.357 147.253)">
          <path id="Trazado_101771" data-name="Trazado 101771" d="M.112,15.8a20.582,20.582,0,0,1-.1-2.519,12.986,12.986,0,0,1,4.88-9.294A18.485,18.485,0,0,1,14.826.114,31.907,31.907,0,0,1,25.5,1.109a.719.719,0,0,1,.484.271.716.716,0,0,1,.045.435,25.347,25.347,0,0,1-4.107,11.815,16.336,16.336,0,0,1-10.235,6.905,11.811,11.811,0,0,1-11.281-4" transform="translate(28.439 0)" fill="#ffd674"/>
          <path id="Trazado_101772" data-name="Trazado 101772" d="M21.049,5.282a15.367,15.367,0,0,1-4.164-.219c-.282-.054-.561-.119-.839-.189l.171-.1q1.972-1.211,3.93-2.444l.487-.307c.184-.116.016-.4-.168-.288Q18.509,2.966,16.539,4.18q-1.945,1.2-3.9,2.376a19,19,0,0,1,2.8-4.934Q15.977.929,16.585.288c.149-.157-.087-.394-.236-.236a19.455,19.455,0,0,0-3.539,5.223q-.352.764-.636,1.556-1.77,1.06-3.549,2.1-2,1.168-4.006,2.316-.918.524-1.838,1.043,1.164-1.842,2.387-3.646,1.41-2.076,2.9-4.1.843-1.144,1.71-2.271a.167.167,0,0,0-.059-.229.173.173,0,0,0-.23.061q-1.538,2-3,4.05T3.659,10.308Q2.9,11.466,2.167,12.639q-.79.444-1.58.885l-.5.279a.167.167,0,0,0,.168.288q1.028-.57,2.054-1.147a.156.156,0,0,0,.094-.053q.945-.532,1.887-1.067.8-.456,1.6-.916l0,0,4.628.762,4.628.761,2.6.428a.175.175,0,0,0,.207-.118.168.168,0,0,0-.116-.206l-4.629-.761-4.628-.761-2.24-.369q.977-.563,1.952-1.133Q10.283,8.354,12.26,7.17l.036-.022a.168.168,0,0,0,.141-.085q1.609-.965,3.208-1.944a15.659,15.659,0,0,0,4.187.552q.608,0,1.216-.054C21.261,5.6,21.264,5.264,21.049,5.282Z" transform="translate(28.55 2.373)" fill="#e5a300"/>
          <path id="Trazado_101773" data-name="Trazado 101773" d="M28.062,16q-3.018-.491-6.074-.719-3.027-.224-6.07-.181-1.325.019-2.648.09a62.217,62.217,0,0,1,4.6-4.423,60.543,60.543,0,0,1,5.957-4.557c.262-.175.525-.349.789-.521.363-.235.03-.815-.336-.577a62.265,62.265,0,0,0-11.661,9.8q-1.276,1.368-2.467,2.812c.163-.335.329-.671.49-1.007q.93-1.932,1.816-3.885t1.731-3.922q.854-1.992,1.666-4,.8-1.987,1.562-3.992L17.6.42A.333.333,0,0,0,17.369.01a.348.348,0,0,0-.415.236q-.751,2-1.544,3.977T13.782,8.167c-.541,1.272-1.118,2.585-1.7,3.864q-.881,1.955-1.805,3.89T8.4,19.754l-.238.469a.353.353,0,0,0-.025.063c-.129.174-.259.347-.386.522a62.581,62.581,0,0,0-4.1,6.405q-.21.378-.414.759c.135-.937.264-1.875.383-2.815q.3-2.368.52-4.743.126-1.331.226-2.666a.332.332,0,0,0-.334-.333.349.349,0,0,0-.338.337q-.18,2.358-.432,4.709t-.579,4.695c-.116.833-.249,1.725-.383,2.58a.343.343,0,0,0-.005.058Q1.249,31.909.364,34.1q-.177.439-.347.878a.334.334,0,0,0,.232.411.347.347,0,0,0,.415-.236A60.3,60.3,0,0,1,3.8,28.335c.085-.157.171-.312.257-.469a.44.44,0,0,0,.159-.082c.256-.207.544-.418.853-.623s.621-.392.942-.569.64-.335.969-.485L7.218,26l.124-.054.017-.007.079-.033q.248-.1.5-.2a28.1,28.1,0,0,1,4.29-1.2c.817-.17,1.637-.32,2.459-.467a.335.335,0,1,0-.176-.646c-1.483.267-2.966.541-4.425.926a19.829,19.829,0,0,0-4.21,1.581q-.548.29-1.065.629,1.381-2.376,2.97-4.627a62.255,62.255,0,0,1,4.7-5.87c.043-.048.088-.1.131-.143q2.966-.183,5.937-.114,3.016.073,6.015.409c1.111.124,2.2.274,3.314.456a.348.348,0,0,0,.415-.236A.337.337,0,0,0,28.062,16ZM7.337,25.95Z" transform="translate(3.994 11.215)" fill="#e5a300"/>
          <path id="Trazado_101774" data-name="Trazado 101774" d="M.125,4.478A13.591,13.591,0,0,1,1.041,3.1,8.5,8.5,0,0,1,7.174.02a11.853,11.853,0,0,1,6.7,1.747,20.522,20.522,0,0,1,5.215,4.625.469.469,0,0,1,.15.33.484.484,0,0,1-.143.248,16.688,16.688,0,0,1-6.7,4.715,10.525,10.525,0,0,1-8.022-.247A7.661,7.661,0,0,1,0,4.982" transform="translate(26.548 22.037)" fill="#ffd674"/>
          <path id="Trazado_101775" data-name="Trazado 101775" d="M14.385,6.128a9.88,9.88,0,0,1-2.1-1.713c-.127-.137-.248-.279-.367-.423l.129.01q1.5.111,3,.206l.374.023c.141.009.164-.21.023-.218q-1.5-.093-3-.2-1.481-.108-2.96-.232A12.43,12.43,0,0,1,12.85,2.025q.553-.159,1.118-.268c.14-.027.107-.243-.033-.216a12.665,12.665,0,0,0-3.865,1.424q-.478.272-.932.584-1.336-.114-2.67-.24-1.5-.144-2.991-.3-.683-.072-1.365-.149Q3.43,2.321,4.766,1.83,6.3,1.265,7.861.76,8.743.474,9.63.207A.111.111,0,0,0,9.687.062.112.112,0,0,0,9.543.007Q7.969.48,6.414,1.014T3.337,2.136q-.843.325-1.68.669Q1.073,2.739.489,2.67L.117,2.626a.109.109,0,0,0-.023.218q.759.091,1.517.178a.1.1,0,0,0,.07.008q.7.079,1.4.155.595.064,1.19.126l0,0,2.133,2.18L8.538,7.671,9.738,8.9a.113.113,0,0,0,.154.017.11.11,0,0,0,.018-.154L7.777,6.58,5.645,4.4,4.612,3.345q.729.076,1.459.146,1.49.144,2.981.272l.028,0a.107.107,0,0,0,.106.009q1.215.1,2.43.195a10.082,10.082,0,0,0,1.982,1.9q.32.232.657.438C14.374,6.379,14.505,6.2,14.385,6.128Z" transform="translate(26.455 24.121)" fill="#e5a300"/>
          <path id="Trazado_101776" data-name="Trazado 101776" d="M.125,4.477A13.781,13.781,0,0,1,1.04,3.1,8.5,8.5,0,0,1,7.174.02a11.856,11.856,0,0,1,6.7,1.747,20.521,20.521,0,0,1,5.215,4.625.471.471,0,0,1,.15.33.474.474,0,0,1-.144.248,16.679,16.679,0,0,1-6.7,4.715,10.522,10.522,0,0,1-8.022-.248A7.659,7.659,0,0,1,0,4.982" transform="translate(13.003 31.119)" fill="#ffd674"/>
          <path id="Trazado_101777" data-name="Trazado 101777" d="M14.386,6.127a9.9,9.9,0,0,1-2.1-1.712c-.127-.137-.248-.279-.367-.423l.13.01q1.5.112,3,.206l.374.024c.14.008.164-.21.023-.218q-1.5-.093-3-.2Q10.964,3.7,9.485,3.579A12.423,12.423,0,0,1,12.85,2.025q.552-.16,1.117-.268c.139-.027.106-.243-.033-.217a12.69,12.69,0,0,0-3.866,1.424q-.478.272-.932.585Q7.8,3.435,6.467,3.308q-1.5-.142-2.992-.3-.682-.072-1.364-.15Q3.43,2.322,4.766,1.83,6.3,1.265,7.861.76,8.743.474,9.63.207A.112.112,0,0,0,9.688.062.112.112,0,0,0,9.543.007Q7.97.48,6.414,1.014T3.337,2.135q-.843.326-1.679.669Q1.072,2.738.489,2.669L.118,2.625a.11.11,0,0,0-.023.218q.759.091,1.518.177a.1.1,0,0,0,.07.008q.7.079,1.4.155.6.064,1.191.126v0L6.406,5.491l2.133,2.18L9.739,8.9a.112.112,0,0,0,.154.017.111.111,0,0,0,.018-.154L7.778,6.581,5.645,4.4,4.612,3.345q.73.074,1.46.145,1.489.145,2.981.272l.027,0a.108.108,0,0,0,.107.009q1.214.1,2.429.195a10.1,10.1,0,0,0,1.982,1.9c.213.155.433.3.658.438C14.375,6.378,14.506,6.2,14.386,6.127Z" transform="translate(12.909 33.202)" fill="#e5a300"/>
          <path id="Trazado_101778" data-name="Trazado 101778" d="M3.773,18.845a13.248,13.248,0,0,1-1.29-1.015A8.289,8.289,0,0,1,0,11.5,12.018,12.018,0,0,1,2.4,4.967,21.172,21.172,0,0,1,7.518.129.478.478,0,0,1,7.862,0,.471.471,0,0,1,8.1.166a16.178,16.178,0,0,1,4.058,7.019,10.524,10.524,0,0,1-1.023,7.96,7.882,7.882,0,0,1-6.867,3.863" transform="translate(13.702 0.938)" fill="#ffd674"/>
          <path id="Trazado_101779" data-name="Trazado 101779" d="M6.581,1.3A10.194,10.194,0,0,1,4.669,3.259c-.15.116-.3.226-.457.333l.022-.127Q4.49,1.982,4.729.5c.02-.123.04-.247.06-.37A.11.11,0,0,0,4.573.087q-.237,1.486-.491,2.969-.251,1.465-.519,2.927A12.116,12.116,0,0,1,2.338,2.519q-.106-.56-.159-1.131a.11.11,0,0,0-.219.017A12.4,12.4,0,0,0,3.006,5.356q.225.5.493.971Q3.257,7.647,3,8.965q-.288,1.477-.592,2.952-.139.673-.282,1.346-.405-1.351-.767-2.716Q.945,8.973.592,7.387q-.2-.9-.381-1.8a.11.11,0,0,0-.139-.068A.114.114,0,0,0,0,5.657q.321,1.6.7,3.188t.821,3.145q.244.863.506,1.72-.123.577-.248,1.153c-.027.122-.054.245-.08.366-.031.138.185.178.215.039q.164-.748.323-1.5a.1.1,0,0,0,.015-.068q.147-.69.291-1.381.122-.587.24-1.175h0L5.174,9.191,7.556,7.233q.671-.55,1.341-1.1a.114.114,0,0,0,.031-.153.11.11,0,0,0-.152-.029L6.394,7.908,4.011,9.865l-1.153.947q.145-.72.286-1.44Q3.433,7.9,3.7,6.428l0-.028a.106.106,0,0,0,.019-.1q.222-1.2.43-2.4A10.428,10.428,0,0,0,6.246,2.066q.262-.3.5-.622C6.83,1.332,6.666,1.188,6.581,1.3Z" transform="translate(15.99 4.672)" fill="#e5a300"/>
          <path id="Trazado_101780" data-name="Trazado 101780" d="M7.319,22.436a15.623,15.623,0,0,1-1.81-.667A9.694,9.694,0,0,1,.457,15.608,13.961,13.961,0,0,1,.791,7.482a24.735,24.735,0,0,1,4-7.218A.568.568,0,0,1,5.131,0a.546.546,0,0,1,.32.1,18.974,18.974,0,0,1,7.07,6.358,12.227,12.227,0,0,1,1.713,9.225,9.248,9.248,0,0,1-6.307,6.758" transform="translate(0 9.459)" fill="#ffd674"/>
          <path id="Trazado_101781" data-name="Trazado 101781" d="M5.83.773A11.914,11.914,0,0,1,4.39,3.637C4.264,3.82,4.133,4,4,4.171l-.021-.15Q3.73,2.279,3.465.54C3.444.4,3.422.251,3.4.107A.129.129,0,0,0,3.143.14q.268,1.738.516,3.481.245,1.72.471,3.443A14.156,14.156,0,0,1,1.512,3.649q-.321-.588-.585-1.2c-.065-.151-.3-.054-.24.1A14.454,14.454,0,0,0,3.281,6.565c.287.315.588.616.9.9q.2,1.556.389,3.115.209,1.747.4,3.5.086.8.168,1.6Q4.2,14.32,3.3,12.93q-1.03-1.6-2-3.24Q.758,8.761.231,7.822A.129.129,0,0,0,.051,7.8a.132.132,0,0,0-.028.18q.934,1.667,1.933,3.3t2.051,3.206q.582.873,1.184,1.734.07.685.137,1.371c.014.145.028.291.042.436.016.164.271.131.255-.034q-.084-.89-.175-1.78a.113.113,0,0,0-.008-.081q-.083-.82-.17-1.64-.075-.7-.153-1.393l0,0,1.966-3.031L9.054,7.025,10.161,5.32a.131.131,0,0,0-.02-.18.129.129,0,0,0-.181.022L7.994,8.192Q7.01,9.709,6.028,11.224q-.477.733-.952,1.467-.1-.853-.2-1.705-.206-1.74-.431-3.477l0-.032a.124.124,0,0,0-.016-.124q-.184-1.415-.382-2.827A12.151,12.151,0,0,0,5.728,1.744q.186-.429.338-.871C6.119.717,5.884.617,5.83.773Z" transform="translate(2.239 13.928)" fill="#e5a300"/>
        </g>
        <g id="Grupo_54372" data-name="Grupo 54372" transform="translate(243.237 82.517)">
          <path id="Trazado_101793" data-name="Trazado 101793" d="M3.782,74.89c.789-2.339.259-4.886-.36-7.26C2.25,63.136.777,58.7.218,54.079S.091,44.542,2.505,40.534c1.01-1.676,2.558-3.266,4.5-3.392a5.035,5.035,0,0,1,4.034,1.989A14.889,14.889,0,0,1,13.2,43.247a35.428,35.428,0,0,1,.628-18.465A29.878,29.878,0,0,1,24.495,9.713a15.593,15.593,0,0,1,6.148-2.9A8.311,8.311,0,0,1,37.137,8.09c2.068,1.551,3.038,4.146,3.734,6.642A17.829,17.829,0,0,1,47.51,3.025,14.444,14.444,0,0,1,60.527.651,12.03,12.03,0,0,1,68.667,10.7C69.12,16.057,65.683,20.978,62,24.938A75.685,75.685,0,0,1,50.955,34.7c3.658-.523,8.06-.176,9.991,2.95a7.053,7.053,0,0,1,.381,6A15.127,15.127,0,0,1,57.881,48.8C50.5,56.612,40.03,60.545,29.956,64.225a11.217,11.217,0,0,1,4.071,1.454,3.822,3.822,0,0,1,1.783,3.7,4.952,4.952,0,0,1-2.476,2.941c-5.183,3.259-11.683,3.321-17.754,2.883-3.483-.252-8.346.2-11.8-.314" transform="translate(0 0)" fill="#fbc50a"/>
          <path id="Trazado_101794" data-name="Trazado 101794" d="M52.788,10.7a.374.374,0,0,0-.457-.258Q49.78,11.3,47.276,12.3q-2.438.98-4.814,2.111-2.3,1.1-4.53,2.355-2.252,1.266-4.417,2.681-1.319.859-2.606,1.766,3.852-4.427,7.892-8.686c3.5-3.672,7.111-7.233,10.863-10.643q.7-.633,1.4-1.259C51.427.3,50.9-.22,50.542.1q-5.7,5.08-11,10.585-5.307,5.486-10.271,11.291-4.033,4.689-7.889,9.527.658-1.862,1.3-3.73,1.021-2.955,2.024-5.914,1.015-2.978,2.036-5.956,1.019-2.959,2.068-5.908,1.038-2.909,2.131-5.8c.087-.232.177-.463.265-.694a.372.372,0,0,0-.258-.458.386.386,0,0,0-.46.263q-1.1,2.863-2.129,5.75Q27.3,12,26.287,14.952q-1.028,2.975-2.039,5.955-1.009,2.963-2.024,5.925-1.005,2.921-2.039,5.832l-.224.624c-.133.168-.267.336-.4.5q-3.744,4.742-7.375,9.571.206-.736.4-1.476.447-1.744.818-3.5t.679-3.558q.309-1.818.548-3.645.23-1.755.393-3.518c.013-.146.027-.291.04-.436a.37.37,0,0,0-.371-.371.388.388,0,0,0-.375.375q-.154,1.757-.375,3.509-.056.437-.115.875l-.03.215-.011.076-.012.09q-.031.223-.064.447-.129.889-.276,1.775-.3,1.787-.662,3.561t-.8,3.513q-.43,1.71-.937,3.4l-.109.356-.64.852q-4.588,6.132-9.1,12.32L.072,59.739c-.286.39.359.758.641.373Q4.127,55.45,7.554,50.8a.4.4,0,0,0,.129-.081,50,50,0,0,1,4.277-3.659c1.505-1.148,3.068-2.219,4.671-3.227s3.258-1.961,4.93-2.862,3.383-1.763,5.1-2.593,3.446-1.629,5.179-2.419l.629-.286a.371.371,0,1,0-.372-.642c-1.741.79-3.478,1.589-5.2,2.414s-3.441,1.679-5.133,2.577-3.335,1.828-4.954,2.827-3.2,2.058-4.722,3.194q-1.231.916-2.41,1.9l.118-.159q4.549-6.1,9.227-12.11,4.7-6,9.623-11.823l.21-.246a.3.3,0,0,0,.077-.04q2.16-1.616,4.407-3.112,2.153-1.427,4.392-2.717,2.215-1.272,4.51-2.394,1.153-.563,2.324-1.088c.8-.36,1.513-.665,2.316-.994q2.477-1.016,5.01-1.882l.638-.217A.384.384,0,0,0,52.788,10.7Z" transform="translate(4.603 13.155)" fill="#e5a300"/>
        </g>
        <path id="Trazado_101795" data-name="Trazado 101795" d="M113.989,202.967c-5.763,1.229-11.76-.546-17.254-2.484C60.067,187.553,26.482,165.006,9.926,133.8S-2.982,62.277,24.689,37.664C30.244,32.723,36.8,28.4,44.409,26.4c13.875-3.637,28.828.9,43.247-.348,14.037-1.22,26.568-7.793,39.167-13.314C143.784,5.31,162.291-.532,181.27.039s38.5,8.622,47.294,23.222c8.152,13.527,6.246,30.463,15.021,43.693,5.341,8.052,14.128,13.915,20.566,21.338,15.117,17.426,15.43,42.536,4.147,62.053-4.693,8.119-11.137,15.383-18,22.239-7.812,7.8-16.3,15.195-26.222,20.908-22.165,12.765-50.751,16.187-76.526,10.554" transform="translate(0 9.639) rotate(-2)" fill="#732be5" opacity="0.12"/>
      </g>
    </g>
    <path id="Trazado_101225" data-name="Trazado 101225" d="M272.616,1196.886v-38.519h64.758v76.068a2.888,2.888,0,0,1-2.888,2.888H189.6a2.735,2.735,0,0,1-2.735-2.735v-37.7Z" transform="translate(-36.668 -968.033)" fill="#732be5"/>
    <path id="Trazado_101226" data-name="Trazado 101226" d="M224.77,1367.343a1.662,1.662,0,0,1-1.672-1.643v-.016a25.129,25.129,0,0,1,50.259,0v.016a1.662,1.662,0,0,1-1.672,1.643Z" transform="translate(17.528 -1097.863)" fill="url(#linear-gradient)"/>
    <path id="Trazado_101227" data-name="Trazado 101227" d="M529.792,1369.368a1.662,1.662,0,0,1-1.672-1.642v-.017a25.129,25.129,0,1,1,50.259,0v.017a1.662,1.662,0,0,1-1.672,1.642Z" transform="translate(-377.683 -1099.306)" fill="url(#linear-gradient-2)"/>
    <g id="Grupo_53973" data-name="Grupo 53973" transform="translate(244.783 246.626)">
      <g id="Grupo_53972" data-name="Grupo 53972" transform="translate(0 0)">
        <ellipse id="Elipse_4090" data-name="Elipse 4090" cx="18.221" cy="18.221" rx="18.221" ry="18.221" transform="translate(35.972 41.809) rotate(-170.783)" fill="url(#linear-gradient-3)"/>
        <ellipse id="Elipse_4091" data-name="Elipse 4091" cx="14.798" cy="14.798" rx="14.798" ry="14.798" transform="matrix(-0.998, -0.062, 0.062, -0.998, 34.754, 36.593)" fill="#7d97f4"/>
        <path id="Trazado_101228" data-name="Trazado 101228" d="M289.3,1398.835a.518.518,0,0,1-.477-.317,13.624,13.624,0,0,1,19.2-17.19.518.518,0,0,1-.506.9,12.59,12.59,0,0,0-17.738,15.883.519.519,0,0,1-.476.72Z" transform="translate(-280.822 -1372.312)" fill="#bdd0fb"/>
      </g>
      <ellipse id="Elipse_4092" data-name="Elipse 4092" cx="6.786" cy="6.786" rx="6.786" ry="6.786" transform="matrix(-0.383, -0.924, 0.924, -0.383, 17.232, 29.772)" fill="#732be5"/>
    </g>
    <g id="Grupo_53975" data-name="Grupo 53975" transform="translate(155.646 249.237)">
      <g id="Grupo_53974" data-name="Grupo 53974" transform="translate(0 0)">
        <ellipse id="Elipse_4093" data-name="Elipse 4093" cx="18.221" cy="18.221" rx="18.221" ry="18.221" transform="translate(3.591 39.856) rotate(-95.655)" fill="url(#linear-gradient-4)"/>
        <ellipse id="Elipse_4094" data-name="Elipse 4094" cx="14.798" cy="14.798" rx="14.798" ry="14.798" transform="translate(30.93 37.73) rotate(-166.717)" fill="#7d97f4"/>
        <path id="Trazado_101229" data-name="Trazado 101229" d="M594.3,1404.521a.518.518,0,0,1-.477-.316,13.624,13.624,0,0,1,19.2-17.19.518.518,0,1,1-.506.9,12.59,12.59,0,0,0-17.738,15.884.517.517,0,0,1-.476.719Z" transform="translate(-586.798 -1378.975)" fill="#bdd0fb"/>
      </g>
      <ellipse id="Elipse_4095" data-name="Elipse 4095" cx="6.786" cy="6.786" rx="6.786" ry="6.786" transform="translate(16.255 28.795) rotate(-112.5)" fill="#732be5"/>
    </g>
    <path id="Trazado_101230" data-name="Trazado 101230" d="M171.913,1154.393H240.6V1148.5a1.7,1.7,0,0,0-1.7-1.7H171.913Z" transform="translate(65.306 -959.794)" fill="#7d97f4"/>
    <path id="Rectángulo_5203" data-name="Rectángulo 5203" d="M0,0H7.868a5.984,5.984,0,0,1,5.984,5.984V62.8a0,0,0,0,1,0,0H0a0,0,0,0,1,0,0V0A0,0,0,0,1,0,0Z" transform="translate(147.752 166.057)" fill="#732be5"/>
    <rect id="Rectángulo_5204" data-name="Rectángulo 5204" width="3.323" height="61.946" transform="translate(144.236 193.379)" fill="url(#linear-gradient-5)"/>
    <path id="Rectángulo_5205" data-name="Rectángulo 5205" d="M5.056,0H38.871a0,0,0,0,1,0,0V5.056a0,0,0,0,1,0,0H0a0,0,0,0,1,0,0v0A5.056,5.056,0,0,1,5.056,0Z" transform="translate(108.09 250.944)" fill="url(#linear-gradient-6)"/>
    <rect id="Rectángulo_5206" data-name="Rectángulo 5206" width="40.017" height="17.828" transform="translate(194.864 211.025)" fill="url(#linear-gradient-7)"/>
    <rect id="Rectángulo_5207" data-name="Rectángulo 5207" width="2.398" height="12.056" transform="matrix(-0.929, -0.37, 0.37, -0.929, 180.838, 208.477)" fill="url(#linear-gradient-8)"/>
    <path id="Rectángulo_5208" data-name="Rectángulo 5208" d="M0,0H8.813a2.81,2.81,0,0,1,2.81,2.81V2.9a0,0,0,0,1,0,0H2.9A2.9,2.9,0,0,1,0,0V0A0,0,0,0,1,0,0Z" transform="matrix(-0.884, -0.468, 0.468, -0.884, 188.257, 200.976)" fill="url(#linear-gradient-9)"/>
    <path id="Trazado_101231" data-name="Trazado 101231" d="M584.952,1236.917h22.61v-17.842a2.929,2.929,0,0,0-2.929-2.929H593.124Z" transform="translate(-423.247 -1009.207)" fill="url(#linear-gradient-10)"/>
    <g id="Grupo_53979" data-name="Grupo 53979" transform="translate(177.025 146.162)">
      <path id="Trazado_101232" data-name="Trazado 101232" d="M493.371,1048.863s2.243,5.911,4.976,9.026l-7.038,2.623s-.579-5.982-3.658-8.18Z" transform="translate(-462.248 -1036.16)" fill="url(#linear-gradient-11)"/>
      <path id="Trazado_101233" data-name="Trazado 101233" d="M584.208,1174.562l-1.419-.893-4.358-2.547a2.282,2.282,0,0,0-1.737-.235l-4.025,1.073a.238.238,0,0,0-.009.458l10.364,3.2Z" transform="translate(-572.492 -1123.062)" fill="url(#linear-gradient-12)"/>
      <g id="Grupo_53976" data-name="Grupo 53976" transform="translate(21.798 0.784)">
        <path id="Trazado_101234" data-name="Trazado 101234" d="M495.526,1017.877s-3.752,4.512-4.691,7.179-2.036,4.257.941,5.715a6.94,6.94,0,0,0,8.288-1.621s3.452-3.509,3.445-5.36S495.526,1017.877,495.526,1017.877Z" transform="translate(-489.836 -1014.862)" fill="url(#linear-gradient-13)"/>
        <path id="Trazado_101235" data-name="Trazado 101235" d="M475.714,1009.516c1-1.005,2.753-2.428,4.3-2.073a6.471,6.471,0,0,1,1.325.519c2.662,1.277,6.716,3.683,5.771,7.25a.222.222,0,0,0,.279.27c.336-.091.817-.04,1.279.652.8,1.2-.306,3.392-3.189,4.621a.221.221,0,0,0-.089.344c.342.4.781,1.234-1.1,1.632a4.528,4.528,0,0,1-3.231-.182.222.222,0,0,1-.1-.267l.836-2.326a.222.222,0,0,0-.147-.288l-.845-.246-.4-.115s2.607-2.875,1.343-3.881c-1.167-.928-6.986-3.636-6.366-5.449A1.284,1.284,0,0,1,475.714,1009.516Z" transform="translate(-471.078 -1007.387)" fill="url(#linear-gradient-14)"/>
        <path id="Trazado_101236" data-name="Trazado 101236" d="M492.961,1045.826s1.818-3.05,3.028-1.695-1.843,3.474-3.068,3.251Z" transform="translate(-483.482 -1033.325)" fill="url(#linear-gradient-15)"/>
      </g>
      <path id="Trazado_101237" data-name="Trazado 101237" d="M473.352,1240.684h-7.116c-1.455-8.036-2.192-15.859.159-16.966,5.042-2.373,29.618-4.38,29.618-4.38l4.731,5.506-26.61,4.352C473.278,1231.153,473.159,1235.707,473.352,1240.684Z" transform="translate(-458.102 -1157.644)" fill="url(#linear-gradient-16)"/>
      <path id="Trazado_101238" data-name="Trazado 101238" d="M471.941,1117.785s-8.057,2.792-15.168-.231c0,0-3.735-17.605-7.16-22.008,0,0-5.994,15.509-20.805,13.021a.294.294,0,0,1-.226-.389l.573-1.581a.959.959,0,0,1,.952-.63c5.006.251,11.963-9.124,13.466-21.875.309-2.616,2.147-3.741,5.639-5.348,2.172-1,3.49-1.708,4.177-2.1a1.028,1.028,0,0,1,1.174.1C457.612,1079.31,471.789,1092.583,471.941,1117.785Z" transform="translate(-418.863 -1055.859)" fill="#732be5"/>
      <path id="Trazado_101239" data-name="Trazado 101239" d="M434.227,1179.092a6.548,6.548,0,0,1,3.978-2.95l24.762-6.329-1.2-5.149-4.6-14.492.149-.107a1.191,1.191,0,0,1,1.836.623l4.36,14.447a1.462,1.462,0,0,0,1.405,1.06h13.214l.324,6.365a12.463,12.463,0,0,1,.078,1.536,6.738,6.738,0,0,1-6.43,6.592l-29.053,1.325a1.394,1.394,0,0,0-1.287,1.047c-.334,1.291-1.3,3.89-4.111,8.1h-10.5Z" transform="translate(-425.056 -1108.118)" fill="url(#linear-gradient-17)"/>
      <path id="Trazado_101240" data-name="Trazado 101240" d="M443.493,1087.308c6.283,4.113,12.392,10.03,18.385,17.166l3.234-.358c-7.07-7.6-13.81-14.232-19.544-17.937Z" transform="translate(-416.324 -1062.752)" fill="url(#linear-gradient-18)"/>
      <path id="Trazado_101241" data-name="Trazado 101241" d="M439.754,1146.464l-4.214.078a1.62,1.62,0,0,0-1.473,1.017l-5.5,13.744.839,3.212,14.21-.727A65.053,65.053,0,0,0,439.754,1146.464Z" transform="translate(-390.535 -1105.712)" fill="url(#linear-gradient-19)"/>
      <g id="Grupo_53978" data-name="Grupo 53978" transform="translate(19.346)">
        <g id="Grupo_53977" data-name="Grupo 53977" transform="translate(6.108)">
          <path id="Trazado_101242" data-name="Trazado 101242" d="M472.829,1008.161c7.769-9.672,20.664,2.948,12.046,10.7C480.416,1014.478,475.61,1008.315,472.829,1008.161Z" transform="translate(-472.829 -1004.66)" fill="#732be5"/>
        </g>
        <path id="Trazado_101243" data-name="Trazado 101243" d="M510.323,1020.759l-10.175-2.283a.752.752,0,0,1-.55-.5,7.05,7.05,0,0,0-3.3-4.047.211.211,0,0,1,.133-.391l6.357.779.021,0c3.081.841,5.489,3.255,7.656,6.228A.134.134,0,0,1,510.323,1020.759Z" transform="translate(-496.188 -1010.987)" fill="#732be5"/>
      </g>
    </g>
    <path id="Trazado_101244" data-name="Trazado 101244" d="M478.663,1053.2V963.392H435.714c-4.055,0-7.665,3.083-9.2,7.854l-26.026,81.1a7.519,7.519,0,0,0,.683,6.157,4.932,4.932,0,0,0,4.182,2.543h66.974C475.822,1061.049,478.663,1057.528,478.663,1053.2Zm-46.311-79.524c.626-1.949,1.946-3.209,3.363-3.209h36.737V1053.2a1.27,1.27,0,0,1-.217.773h-65.65Z" transform="translate(-240.487 -829.09)" fill="url(#linear-gradient-20)"/>
    <g id="Grupo_54355" data-name="Grupo 54355" transform="translate(55.784 155.593)">
      <rect id="Rectángulo_5417" data-name="Rectángulo 5417" width="6.095" height="85.497" transform="translate(85.497 20.739) rotate(90)" fill="#fd0"/>
      <g id="Grupo_54350" data-name="Grupo 54350" transform="translate(2.642 66.788)">
        <path id="Trazado_101695" data-name="Trazado 101695" d="M13.662,10.174A7.221,7.221,0,0,0,.481,4.271c-1.63,3.64,1.109,5.434,4.749,7.064S12.032,13.814,13.662,10.174Z" transform="translate(0 8.622)" fill="#dc324d"/>
        <path id="Trazado_101696" data-name="Trazado 101696" d="M12.106,11.943A7.221,7.221,0,1,0,1.18,2.5C-1.428,5.516.679,8.022,3.7,10.63S9.5,14.96,12.106,11.943Z" transform="translate(12.24 6.568)" fill="#4aa520"/>
        <path id="Trazado_101697" data-name="Trazado 101697" d="M13.123,3.061a7.221,7.221,0,0,0-11.8,8.32c2.3,3.26,5.238,1.821,8.5-.477S15.421,6.321,13.123,3.061Z" transform="translate(6.368 6.812)" fill="#dc1320"/>
        <path id="Trazado_101698" data-name="Trazado 101698" d="M13.662,10.174A7.221,7.221,0,0,0,.481,4.271c-1.63,3.64,1.109,5.434,4.749,7.064S12.032,13.814,13.662,10.174Z" transform="translate(20.412 8.622)" fill="#dc324d"/>
        <path id="Trazado_101699" data-name="Trazado 101699" d="M12.106,11.943A7.221,7.221,0,1,0,1.18,2.5C-1.428,5.516.679,8.022,3.7,10.63S9.5,14.96,12.106,11.943Z" transform="translate(32.652 6.568)" fill="#4aa520"/>
        <path id="Trazado_101700" data-name="Trazado 101700" d="M13.124,3.061a7.221,7.221,0,1,0-11.8,8.32c2.3,3.26,5.238,1.821,8.5-.477S15.421,6.321,13.124,3.061Z" transform="translate(26.779 6.812)" fill="#dc1320"/>
        <path id="Trazado_101701" data-name="Trazado 101701" d="M13.662,10.174a7.221,7.221,0,1,0-13.18-5.9c-1.63,3.64,1.109,5.434,4.749,7.064S12.032,13.814,13.662,10.174Z" transform="translate(44.724 8.622)" fill="#dc324d"/>
        <path id="Trazado_101702" data-name="Trazado 101702" d="M12.106,11.943A7.221,7.221,0,0,0,1.18,2.5C-1.428,5.516.679,8.022,3.7,10.63S9.5,14.96,12.106,11.943Z" transform="translate(56.964 6.568)" fill="#4aa520"/>
        <path id="Trazado_101703" data-name="Trazado 101703" d="M13.124,3.061a7.221,7.221,0,0,0-11.8,8.32c2.3,3.26,5.238,1.821,8.5-.477S15.421,6.321,13.124,3.061Z" transform="translate(51.091 6.812)" fill="#dc1320"/>
        <path id="Trazado_101704" data-name="Trazado 101704" d="M13.662,10.174a7.221,7.221,0,1,0-13.18-5.9c-1.63,3.64,1.109,5.434,4.749,7.064S12.032,13.814,13.662,10.174Z" transform="translate(54.904 2.054)" fill="#dc324d"/>
        <path id="Trazado_101705" data-name="Trazado 101705" d="M12.106,11.943A7.221,7.221,0,0,0,1.18,2.5C-1.428,5.516.679,8.022,3.7,10.63S9.5,14.96,12.106,11.943Z" transform="translate(67.144 0)" fill="#4aa520"/>
        <path id="Trazado_101706" data-name="Trazado 101706" d="M13.124,3.062a7.221,7.221,0,1,0-11.8,8.32c2.3,3.26,5.239,1.821,8.5-.477S15.421,6.321,13.124,3.062Z" transform="translate(61.271 0.244)" fill="#dc1320"/>
      </g>
      <g id="Grupo_54351" data-name="Grupo 54351" transform="translate(2.642 58.165)">
        <path id="Trazado_101707" data-name="Trazado 101707" d="M13.662,10.174A7.221,7.221,0,1,0,.481,4.272c-1.63,3.64,1.109,5.434,4.749,7.064S12.032,13.814,13.662,10.174Z" transform="translate(0 8.622)" fill="#dc324d"/>
        <path id="Trazado_101708" data-name="Trazado 101708" d="M12.106,11.943A7.221,7.221,0,1,0,1.18,2.5C-1.428,5.516.679,8.022,3.7,10.63S9.5,14.96,12.106,11.943Z" transform="translate(12.24 6.568)" fill="#4aa520"/>
        <path id="Trazado_101709" data-name="Trazado 101709" d="M13.123,3.062a7.221,7.221,0,1,0-11.8,8.32c2.3,3.26,5.238,1.821,8.5-.477S15.421,6.322,13.123,3.062Z" transform="translate(6.368 6.812)" fill="#dc1320"/>
        <path id="Trazado_101710" data-name="Trazado 101710" d="M13.662,10.174A7.221,7.221,0,0,0,.481,4.272c-1.63,3.64,1.109,5.434,4.749,7.064S12.032,13.814,13.662,10.174Z" transform="translate(20.412 8.622)" fill="#dc324d"/>
        <path id="Trazado_101711" data-name="Trazado 101711" d="M12.106,11.943A7.221,7.221,0,1,0,1.18,2.5C-1.428,5.516.679,8.022,3.7,10.63S9.5,14.96,12.106,11.943Z" transform="translate(32.652 6.568)" fill="#4aa520"/>
        <path id="Trazado_101712" data-name="Trazado 101712" d="M13.124,3.062a7.221,7.221,0,1,0-11.8,8.32c2.3,3.26,5.238,1.821,8.5-.477S15.421,6.322,13.124,3.062Z" transform="translate(26.779 6.812)" fill="#dc1320"/>
        <path id="Trazado_101713" data-name="Trazado 101713" d="M13.662,10.174a7.221,7.221,0,1,0-13.18-5.9c-1.63,3.64,1.109,5.434,4.749,7.064S12.032,13.814,13.662,10.174Z" transform="translate(44.724 8.622)" fill="#dc324d"/>
        <path id="Trazado_101714" data-name="Trazado 101714" d="M12.106,11.943A7.221,7.221,0,0,0,1.18,2.5C-1.428,5.516.679,8.022,3.7,10.63S9.5,14.96,12.106,11.943Z" transform="translate(56.964 6.568)" fill="#4aa520"/>
        <path id="Trazado_101715" data-name="Trazado 101715" d="M13.124,3.062a7.221,7.221,0,1,0-11.8,8.32c2.3,3.26,5.238,1.821,8.5-.477S15.421,6.322,13.124,3.062Z" transform="translate(51.091 6.812)" fill="#dc1320"/>
        <path id="Trazado_101716" data-name="Trazado 101716" d="M13.662,10.174a7.221,7.221,0,1,0-13.18-5.9c-1.63,3.64,1.109,5.434,4.749,7.064S12.032,13.814,13.662,10.174Z" transform="translate(54.904 2.054)" fill="#dc324d"/>
        <path id="Trazado_101717" data-name="Trazado 101717" d="M12.106,11.943A7.221,7.221,0,1,0,1.18,2.5C-1.428,5.516.679,8.022,3.7,10.63S9.5,14.96,12.106,11.943Z" transform="translate(67.144)" fill="#4aa520"/>
        <path id="Trazado_101718" data-name="Trazado 101718" d="M13.124,3.062a7.221,7.221,0,1,0-11.8,8.32c2.3,3.26,5.239,1.821,8.5-.477S15.421,6.321,13.124,3.062Z" transform="translate(61.271 0.244)" fill="#dc1320"/>
      </g>
      <g id="Grupo_54352" data-name="Grupo 54352" transform="translate(2.642 49.234)">
        <path id="Trazado_101719" data-name="Trazado 101719" d="M13.662,10.174A7.221,7.221,0,1,0,.481,4.272c-1.63,3.64,1.109,5.434,4.749,7.064S12.032,13.814,13.662,10.174Z" transform="translate(0 8.622)" fill="#dc324d"/>
        <path id="Trazado_101720" data-name="Trazado 101720" d="M12.106,11.943A7.221,7.221,0,1,0,1.18,2.5C-1.428,5.516.679,8.022,3.7,10.63S9.5,14.96,12.106,11.943Z" transform="translate(12.24 6.568)" fill="#4aa520"/>
        <path id="Trazado_101721" data-name="Trazado 101721" d="M13.123,3.062a7.221,7.221,0,1,0-11.8,8.32c2.3,3.26,5.238,1.821,8.5-.477S15.421,6.322,13.123,3.062Z" transform="translate(6.368 6.812)" fill="#dc1320"/>
        <path id="Trazado_101722" data-name="Trazado 101722" d="M13.662,10.174A7.221,7.221,0,0,0,.481,4.272c-1.63,3.64,1.109,5.434,4.749,7.064S12.032,13.814,13.662,10.174Z" transform="translate(20.412 8.622)" fill="#dc324d"/>
        <path id="Trazado_101723" data-name="Trazado 101723" d="M12.106,11.943A7.221,7.221,0,1,0,1.18,2.5C-1.428,5.516.679,8.022,3.7,10.63S9.5,14.96,12.106,11.943Z" transform="translate(32.652 6.568)" fill="#4aa520"/>
        <path id="Trazado_101724" data-name="Trazado 101724" d="M13.124,3.062a7.221,7.221,0,1,0-11.8,8.32c2.3,3.26,5.238,1.821,8.5-.477S15.421,6.322,13.124,3.062Z" transform="translate(26.779 6.812)" fill="#dc1320"/>
        <path id="Trazado_101725" data-name="Trazado 101725" d="M13.662,10.174a7.221,7.221,0,1,0-13.18-5.9c-1.63,3.64,1.109,5.434,4.749,7.064S12.032,13.814,13.662,10.174Z" transform="translate(44.724 8.622)" fill="#dc324d"/>
        <path id="Trazado_101726" data-name="Trazado 101726" d="M12.106,11.943A7.221,7.221,0,0,0,1.18,2.5C-1.428,5.516.679,8.022,3.7,10.63S9.5,14.96,12.106,11.943Z" transform="translate(56.964 6.568)" fill="#4aa520"/>
        <path id="Trazado_101727" data-name="Trazado 101727" d="M13.124,3.062a7.221,7.221,0,1,0-11.8,8.32c2.3,3.26,5.238,1.821,8.5-.477S15.421,6.322,13.124,3.062Z" transform="translate(51.091 6.812)" fill="#dc1320"/>
        <path id="Trazado_101728" data-name="Trazado 101728" d="M13.662,10.174a7.221,7.221,0,1,0-13.18-5.9c-1.63,3.64,1.109,5.434,4.749,7.064S12.032,13.814,13.662,10.174Z" transform="translate(54.904 2.054)" fill="#dc324d"/>
        <path id="Trazado_101729" data-name="Trazado 101729" d="M12.106,11.943A7.221,7.221,0,0,0,1.18,2.5C-1.428,5.516.679,8.022,3.7,10.63S9.5,14.96,12.106,11.943Z" transform="translate(67.144 0)" fill="#4aa520"/>
        <path id="Trazado_101730" data-name="Trazado 101730" d="M13.124,3.062a7.221,7.221,0,1,0-11.8,8.32c2.3,3.26,5.239,1.821,8.5-.477S15.421,6.321,13.124,3.062Z" transform="translate(61.271 0.244)" fill="#dc1320"/>
      </g>
      <g id="Grupo_54353" data-name="Grupo 54353" transform="translate(2.642 36.134)">
        <path id="Trazado_101731" data-name="Trazado 101731" d="M13.662,10.174A7.221,7.221,0,1,0,.481,4.272c-1.63,3.64,1.109,5.434,4.749,7.064S12.032,13.814,13.662,10.174Z" transform="translate(0 8.622)" fill="#dc324d"/>
        <path id="Trazado_101732" data-name="Trazado 101732" d="M12.106,11.943A7.221,7.221,0,1,0,1.18,2.5C-1.428,5.516.679,8.022,3.7,10.63S9.5,14.96,12.106,11.943Z" transform="translate(12.24 6.568)" fill="#4aa520"/>
        <path id="Trazado_101733" data-name="Trazado 101733" d="M13.123,3.062a7.221,7.221,0,1,0-11.8,8.32c2.3,3.26,5.238,1.821,8.5-.477S15.421,6.322,13.123,3.062Z" transform="translate(6.368 6.812)" fill="#dc1320"/>
        <path id="Trazado_101734" data-name="Trazado 101734" d="M13.662,10.174A7.221,7.221,0,0,0,.481,4.272c-1.63,3.64,1.109,5.434,4.749,7.064S12.032,13.814,13.662,10.174Z" transform="translate(20.412 8.622)" fill="#dc324d"/>
        <path id="Trazado_101735" data-name="Trazado 101735" d="M12.106,11.943A7.221,7.221,0,1,0,1.18,2.5C-1.428,5.516.679,8.022,3.7,10.63S9.5,14.96,12.106,11.943Z" transform="translate(32.652 6.568)" fill="#4aa520"/>
        <path id="Trazado_101736" data-name="Trazado 101736" d="M13.124,3.062a7.221,7.221,0,1,0-11.8,8.32c2.3,3.26,5.238,1.821,8.5-.477S15.421,6.322,13.124,3.062Z" transform="translate(26.779 6.812)" fill="#dc1320"/>
        <path id="Trazado_101737" data-name="Trazado 101737" d="M13.662,10.174a7.221,7.221,0,1,0-13.18-5.9c-1.63,3.64,1.109,5.434,4.749,7.064S12.032,13.814,13.662,10.174Z" transform="translate(44.724 8.622)" fill="#dc324d"/>
        <path id="Trazado_101738" data-name="Trazado 101738" d="M12.106,11.943A7.221,7.221,0,0,0,1.18,2.5C-1.428,5.516.679,8.022,3.7,10.63S9.5,14.96,12.106,11.943Z" transform="translate(56.964 6.568)" fill="#4aa520"/>
        <path id="Trazado_101739" data-name="Trazado 101739" d="M13.124,3.062a7.221,7.221,0,1,0-11.8,8.32c2.3,3.26,5.238,1.821,8.5-.477S15.421,6.322,13.124,3.062Z" transform="translate(51.091 6.812)" fill="#dc1320"/>
        <path id="Trazado_101740" data-name="Trazado 101740" d="M13.662,10.174a7.221,7.221,0,1,0-13.18-5.9c-1.63,3.64,1.109,5.434,4.749,7.064S12.032,13.814,13.662,10.174Z" transform="translate(54.904 2.054)" fill="#dc324d"/>
        <path id="Trazado_101741" data-name="Trazado 101741" d="M12.106,11.943A7.221,7.221,0,1,0,1.18,2.5C-1.428,5.516.679,8.022,3.7,10.63S9.5,14.96,12.106,11.943Z" transform="translate(67.144 0)" fill="#4aa520"/>
        <path id="Trazado_101742" data-name="Trazado 101742" d="M13.124,3.062a7.221,7.221,0,1,0-11.8,8.32c2.3,3.26,5.239,1.821,8.5-.477S15.421,6.321,13.124,3.062Z" transform="translate(61.271 0.244)" fill="#dc1320"/>
      </g>
      <g id="Grupo_54905" data-name="Grupo 54905" transform="translate(4.488 5.48)">
        <path id="Trazado_101731-2" data-name="Trazado 101731" d="M13.662,10.174A7.221,7.221,0,1,0,.481,4.272c-1.63,3.64,1.109,5.434,4.749,7.064S12.032,13.814,13.662,10.174Z" transform="translate(0 8.622)" fill="#dc324d"/>
        <path id="Trazado_101732-2" data-name="Trazado 101732" d="M12.106,11.943A7.221,7.221,0,1,0,1.18,2.5C-1.428,5.516.679,8.022,3.7,10.63S9.5,14.96,12.106,11.943Z" transform="translate(12.24 6.568)" fill="#4aa520"/>
        <path id="Trazado_101733-2" data-name="Trazado 101733" d="M13.123,3.062a7.221,7.221,0,1,0-11.8,8.32c2.3,3.26,5.238,1.821,8.5-.477S15.421,6.322,13.123,3.062Z" transform="translate(6.368 6.812)" fill="#dc1320"/>
        <path id="Trazado_101734-2" data-name="Trazado 101734" d="M13.662,10.174A7.221,7.221,0,0,0,.481,4.272c-1.63,3.64,1.109,5.434,4.749,7.064S12.032,13.814,13.662,10.174Z" transform="translate(20.412 8.622)" fill="#dc324d"/>
        <path id="Trazado_101735-2" data-name="Trazado 101735" d="M12.106,11.943A7.221,7.221,0,1,0,1.18,2.5C-1.428,5.516.679,8.022,3.7,10.63S9.5,14.96,12.106,11.943Z" transform="translate(32.652 6.568)" fill="#4aa520"/>
        <path id="Trazado_101736-2" data-name="Trazado 101736" d="M13.124,3.062a7.221,7.221,0,1,0-11.8,8.32c2.3,3.26,5.238,1.821,8.5-.477S15.421,6.322,13.124,3.062Z" transform="translate(26.779 6.812)" fill="#dc1320"/>
        <path id="Trazado_101737-2" data-name="Trazado 101737" d="M13.662,10.174a7.221,7.221,0,1,0-13.18-5.9c-1.63,3.64,1.109,5.434,4.749,7.064S12.032,13.814,13.662,10.174Z" transform="translate(44.724 8.622)" fill="#dc324d"/>
        <path id="Trazado_101738-2" data-name="Trazado 101738" d="M12.106,11.943A7.221,7.221,0,0,0,1.18,2.5C-1.428,5.516.679,8.022,3.7,10.63S9.5,14.96,12.106,11.943Z" transform="translate(56.964 6.568)" fill="#4aa520"/>
        <path id="Trazado_101739-2" data-name="Trazado 101739" d="M13.124,3.062a7.221,7.221,0,1,0-11.8,8.32c2.3,3.26,5.238,1.821,8.5-.477S15.421,6.322,13.124,3.062Z" transform="translate(51.091 6.812)" fill="#dc1320"/>
        <path id="Trazado_101740-2" data-name="Trazado 101740" d="M13.662,10.174a7.221,7.221,0,1,0-13.18-5.9c-1.63,3.64,1.109,5.434,4.749,7.064S12.032,13.814,13.662,10.174Z" transform="translate(54.904 2.054)" fill="#dc324d"/>
        <path id="Trazado_101741-2" data-name="Trazado 101741" d="M12.106,11.943A7.221,7.221,0,1,0,1.18,2.5C-1.428,5.516.679,8.022,3.7,10.63S9.5,14.96,12.106,11.943Z" transform="translate(67.144 0)" fill="#4aa520"/>
        <path id="Trazado_101742-2" data-name="Trazado 101742" d="M13.124,3.062a7.221,7.221,0,1,0-11.8,8.32c2.3,3.26,5.239,1.821,8.5-.477S15.421,6.321,13.124,3.062Z" transform="translate(61.271 0.244)" fill="#dc1320"/>
      </g>
      <g id="Grupo_54906" data-name="Grupo 54906" transform="translate(4.489 0)">
        <path id="Trazado_101731-3" data-name="Trazado 101731" d="M.633,10.174a7.221,7.221,0,1,1,13.181-5.9c1.63,3.64-1.109,5.434-4.749,7.063S2.263,13.814.633,10.174Z" transform="translate(66.714 8.622)" fill="#dc324d"/>
        <path id="Trazado_101732-3" data-name="Trazado 101732" d="M1.758,11.943A7.221,7.221,0,1,1,12.684,2.5c2.607,3.017.5,5.523-2.516,8.131S4.366,14.96,1.758,11.943Z" transform="translate(54.905 6.568)" fill="#4aa520"/>
        <path id="Trazado_101733-3" data-name="Trazado 101733" d="M.92,3.062a7.221,7.221,0,1,1,11.8,8.32c-2.3,3.26-5.238,1.821-8.5-.477S-1.378,6.322.92,3.062Z" transform="translate(60.597 6.812)" fill="#dc1320"/>
        <path id="Trazado_101734-3" data-name="Trazado 101734" d="M.632,10.174a7.221,7.221,0,0,1,13.181-5.9c1.63,3.64-1.109,5.434-4.749,7.063S2.262,13.814.632,10.174Z" transform="translate(46.302 8.622)" fill="#dc324d"/>
        <path id="Trazado_101735-3" data-name="Trazado 101735" d="M1.758,11.943A7.221,7.221,0,0,1,12.684,2.5c2.608,3.017.5,5.523-2.516,8.131S4.366,14.96,1.758,11.943Z" transform="translate(34.492 6.568)" fill="#4aa520"/>
        <path id="Trazado_101736-3" data-name="Trazado 101736" d="M.92,3.062a7.221,7.221,0,1,1,11.8,8.32c-2.3,3.26-5.238,1.821-8.5-.477S-1.378,6.322.92,3.062Z" transform="translate(40.186 6.812)" fill="#dc1320"/>
        <path id="Trazado_101737-3" data-name="Trazado 101737" d="M.633,10.174a7.221,7.221,0,1,1,13.18-5.9c1.63,3.64-1.109,5.434-4.749,7.063S2.262,13.814.633,10.174Z" transform="translate(21.991 8.622)" fill="#dc324d"/>
        <path id="Trazado_101738-3" data-name="Trazado 101738" d="M1.758,11.943A7.221,7.221,0,0,1,12.684,2.5c2.608,3.017.5,5.523-2.516,8.131S4.366,14.96,1.758,11.943Z" transform="translate(10.181 6.568)" fill="#4aa520"/>
        <path id="Trazado_101739-3" data-name="Trazado 101739" d="M.92,3.062a7.221,7.221,0,0,1,11.8,8.32c-2.3,3.26-5.238,1.821-8.5-.477S-1.378,6.322.92,3.062Z" transform="translate(15.874 6.812)" fill="#dc1320"/>
        <path id="Trazado_101740-3" data-name="Trazado 101740" d="M.633,10.174a7.221,7.221,0,1,1,13.18-5.9c1.63,3.64-1.109,5.434-4.749,7.064S2.262,13.814.633,10.174Z" transform="translate(11.81 2.054)" fill="#dc324d"/>
        <path id="Trazado_101741-3" data-name="Trazado 101741" d="M1.758,11.943A7.221,7.221,0,0,1,12.685,2.5c2.607,3.017.5,5.523-2.517,8.131S4.366,14.96,1.758,11.943Z" transform="translate(0 0)" fill="#4aa520"/>
        <path id="Trazado_101742-3" data-name="Trazado 101742" d="M.92,3.062a7.221,7.221,0,1,1,11.8,8.32c-2.3,3.26-5.239,1.821-8.5-.477S-1.378,6.321.92,3.062Z" transform="translate(5.693 0.244)" fill="#dc1320"/>
      </g>
      <g id="Grupo_54354" data-name="Grupo 54354" transform="translate(2.642 13.028)">
        <path id="Trazado_101743" data-name="Trazado 101743" d="M13.662,10.174A7.221,7.221,0,1,0,.481,4.272c-1.63,3.64,1.109,5.434,4.749,7.064S12.032,13.814,13.662,10.174Z" transform="translate(0 20.109)" fill="#dc324d"/>
        <path id="Trazado_101744" data-name="Trazado 101744" d="M12.106,11.943A7.221,7.221,0,1,0,1.18,2.5C-1.428,5.516.679,8.022,3.7,10.63S9.5,14.96,12.106,11.943Z" transform="translate(12.24 18.055)" fill="#4aa520"/>
        <path id="Trazado_101745" data-name="Trazado 101745" d="M13.123,3.062a7.221,7.221,0,1,0-11.8,8.32c2.3,3.26,5.238,1.821,8.5-.477S15.421,6.322,13.123,3.062Z" transform="translate(6.368 18.299)" fill="#dc1320"/>
        <path id="Trazado_101746" data-name="Trazado 101746" d="M13.662,10.174A7.221,7.221,0,0,0,.481,4.272c-1.63,3.64,1.109,5.434,4.749,7.064S12.032,13.814,13.662,10.174Z" transform="translate(20.412 20.109)" fill="#dc324d"/>
        <path id="Trazado_101747" data-name="Trazado 101747" d="M12.106,11.943A7.221,7.221,0,1,0,1.18,2.5C-1.428,5.516.679,8.022,3.7,10.63S9.5,14.96,12.106,11.943Z" transform="translate(32.652 18.055)" fill="#4aa520"/>
        <path id="Trazado_101748" data-name="Trazado 101748" d="M13.124,3.062a7.221,7.221,0,1,0-11.8,8.32c2.3,3.26,5.238,1.821,8.5-.477S15.421,6.322,13.124,3.062Z" transform="translate(26.779 18.299)" fill="#dc1320"/>
        <path id="Trazado_101749" data-name="Trazado 101749" d="M13.662,10.174a7.221,7.221,0,1,0-13.18-5.9c-1.63,3.64,1.109,5.434,4.749,7.064S12.032,13.814,13.662,10.174Z" transform="translate(21.353 9.304)" fill="#dc324d"/>
        <path id="Trazado_101750" data-name="Trazado 101750" d="M12.106,11.943A7.221,7.221,0,0,0,1.18,2.5C-1.428,5.516.679,8.022,3.7,10.63S9.5,14.96,12.106,11.943Z" transform="translate(56.964 18.055)" fill="#4aa520"/>
        <path id="Trazado_101751" data-name="Trazado 101751" d="M13.124,3.062a7.221,7.221,0,1,0-11.8,8.32c2.3,3.26,5.238,1.821,8.5-.477S15.421,6.322,13.124,3.062Z" transform="translate(44.975 9.027)" fill="#dc1320"/>
        <path id="Trazado_101752" data-name="Trazado 101752" d="M13.662,10.174a7.221,7.221,0,1,0-13.18-5.9c-1.63,3.64,1.109,5.434,4.749,7.064S12.032,13.814,13.662,10.174Z" transform="translate(63.084 10.036)" fill="#dc324d"/>
        <path id="Trazado_101753" data-name="Trazado 101753" d="M12.106,11.943A7.221,7.221,0,0,0,1.18,2.5C-1.428,5.516.679,8.022,3.7,10.63S9.5,14.96,12.106,11.943Z" transform="translate(67.144 0)" fill="#4aa520"/>
        <path id="Trazado_101754" data-name="Trazado 101754" d="M13.124,3.062a7.221,7.221,0,1,0-11.8,8.32c2.3,3.26,5.239,1.821,8.5-.477S15.421,6.321,13.124,3.062Z" transform="translate(55.155 2.383)" fill="#dc1320"/>
      </g>
      <rect id="Rectángulo_5418" data-name="Rectángulo 5418" width="6.095" height="74.039" transform="translate(0 19.307)" fill="#fd0"/>
      <rect id="Rectángulo_5419" data-name="Rectángulo 5419" width="6.095" height="74.039" transform="translate(21.199 19.307)" fill="#dcc64d"/>
      <rect id="Rectángulo_5420" data-name="Rectángulo 5420" width="6.095" height="74.039" transform="translate(40.541 19.307)" fill="#fd0"/>
      <rect id="Rectángulo_5421" data-name="Rectángulo 5421" width="6.095" height="85.497" transform="translate(85.497 89.257) rotate(90)" fill="#fd0"/>
      <rect id="Rectángulo_5422" data-name="Rectángulo 5422" width="6.095" height="85.497" transform="translate(85.497 73.393) rotate(90)" fill="#fd0"/>
      <rect id="Rectángulo_5423" data-name="Rectángulo 5423" width="6.095" height="85.497" transform="translate(85.497 56.584) rotate(90)" fill="#fd0"/>
      <rect id="Rectángulo_5424" data-name="Rectángulo 5424" width="6.095" height="85.497" transform="translate(85.497 41.507) rotate(90)" fill="#fd0"/>
      <rect id="Rectángulo_5425" data-name="Rectángulo 5425" width="6.095" height="85.497" transform="translate(85.497 31.123) rotate(90)" fill="#fd0"/>
      <rect id="Rectángulo_5426" data-name="Rectángulo 5426" width="6.095" height="74.039" transform="translate(60.417 19.307)" fill="#fd0"/>
      <rect id="Rectángulo_5427" data-name="Rectángulo 5427" width="6.095" height="74.039" transform="translate(80.603 19.307)" fill="#fd0"/>
    </g>
    <g id="Grupo_54907" data-name="Grupo 54907" transform="translate(24.404 141.963)">
      <g id="Grupo_54002" data-name="Grupo 54002" transform="translate(33.964 25.093)">
        <path id="Trazado_101284" data-name="Trazado 101284" d="M1725.879,1075.042l-3.5,1.885a30.642,30.642,0,0,1-11.339,4.416c-10.56,1.585-17.442-5.079-22.571-9.12-6.771-5.337-12.04-2.74-12.04-2.74l7.221,13.781c10.784,10.167,21.84,7.909,28.81,4.614a32.317,32.317,0,0,0,7.219-4.614C1727.609,1078.533,1725.879,1075.042,1725.879,1075.042Z" transform="translate(-1676.426 -1068.851)" fill="url(#linear-gradient-21)"/>
        <path id="Trazado_101285" data-name="Trazado 101285" d="M1652.145,1087.161a2.582,2.582,0,0,0-1.51-1.652l-7.106-2.858s-.108-.911,1.5-1.53a2.139,2.139,0,0,0,1.233-2.422s-2.2,1-5.416,2.593a7.536,7.536,0,0,0-3.421,3.724l1.83,2.406a32.509,32.509,0,0,0,13.282,1.046Z" transform="translate(-1592.376 -1076.035)" fill="url(#linear-gradient-22)"/>
      </g>
      <path id="Trazado_101286" data-name="Trazado 101286" d="M1801.287,1481.316s-.541,3.062-.806,6.094a2.089,2.089,0,0,0,2,2.263c4.037.168,12.673.495,15.772.357a.68.68,0,0,0,.6-.931h0a1.52,1.52,0,0,0-.778-.819l-14.265-6.556Z" transform="translate(-1768.875 -1344.653)" fill="url(#linear-gradient-23)"/>
      <path id="Trazado_101287" data-name="Trazado 101287" d="M1850.062,1473.138l.434,3.663s2.5,1.163,4.206-.147l-1.035-4.082Z" transform="translate(-1818.093 -1338.275)" fill="url(#linear-gradient-24)"/>
      <path id="Trazado_101288" data-name="Trazado 101288" d="M1858.676,1211.128c-.187.992.337,51.953,5.338,73.689.081.355.6,1.051.42,1.356-.434.742-3.629.534-5.431.6-.558.019-.858-.635-1.015-1.191-1.429-5.043-8.279-30.311-9.173-54.448-1-26.971,0-.919,0-.919l-.443-17.087Z" transform="translate(-1827.405 -1147.55)" fill="url(#linear-gradient-25)"/>
      <path id="Trazado_101289" data-name="Trazado 101289" d="M1906.8,1487.222a22.009,22.009,0,0,0-1.695,5.655,1.274,1.274,0,0,0,1.121,1.526c1.333.131,3.386.3,5.03.288a1.271,1.271,0,0,0,1.258-1.417,10.717,10.717,0,0,0-2.5-5.877Z" transform="translate(-1890.802 -1348.962)" fill="url(#linear-gradient-26)"/>
      <path id="Trazado_101290" data-name="Trazado 101290" d="M1914.226,1469.223l1.016,5.54a3.582,3.582,0,0,0,2.991.205l-.485-5.96Z" transform="translate(-1898.979 -1335.675)" fill="url(#linear-gradient-27)"/>
      <path id="Trazado_101291" data-name="Trazado 101291" d="M1871.938,1211.74c-4.09,25.764.585,65.653,2.263,73.073a1.131,1.131,0,0,0,.9.879,7.147,7.147,0,0,0,3.2-.133,1.054,1.054,0,0,0,.73-.977c.225-6-.18-42.829,3.631-57.384a3.31,3.31,0,0,1,1.222-1.823l6.271-5.111.117-11.021Z" transform="translate(-1859.132 -1146.174)" fill="url(#linear-gradient-28)"/>
      <path id="Trazado_101292" data-name="Trazado 101292" d="M1817.048,1065.651c-10.779-.178-22.672,2.831-22.672,2.831-2.648,15.454-1.585,32.58-1.034,38.22.113,1.156-.505,2.38.642,2.566a53.467,53.467,0,0,0,17.259-.816c1.007-.292.836-1.364,1.05-2.39,1.849-8.87,7.138-28.435,7.138-28.435,2.564,3.3,6.181,7.913,11.529,9.141-2.725-3.159,2.5-9.784,1.944-12.16C1828.068,1069.175,1820.372,1065.706,1817.048,1065.651Z" transform="translate(-1780.808 -1041.418)" fill="#732be5"/>
      <path id="Trazado_101293" data-name="Trazado 101293" d="M1869.435,1033.321l-3.43,9.918a.358.358,0,0,0,.163.43,8.062,8.062,0,0,0,8.362-.563,1.684,1.684,0,0,0,.775-1.2l1.11-8.584Z" transform="translate(-1844.114 -1017.839)" fill="url(#linear-gradient-29)"/>
      <g id="Grupo_54003" data-name="Grupo 54003" transform="translate(21.101 3.186)">
        <path id="Trazado_101294" data-name="Trazado 101294" d="M1860.7,999.365s3.766,7.089,3.283,9.953-5.15,2.658-9.226.332l-2.848-7.655Z" transform="translate(-1849.016 -996.253)" fill="url(#linear-gradient-30)"/>
        <path id="Trazado_101295" data-name="Trazado 101295" d="M1870.076,997.5a.292.292,0,0,0,.127-.428,7.645,7.645,0,0,1-1.047-2.225s-.677-.433,1.723-1.008c1.307-.313,3.624-.572,4.642-1.511,1.139-1.052-.962-3.038-1.845-3.572a5.132,5.132,0,0,0-3.9-.766,7.266,7.266,0,0,0-1.774.846,7.4,7.4,0,0,0-2.571,2.111,6.963,6.963,0,0,0-.794,2.014,10.058,10.058,0,0,0-.475,3.073c.126,2.771,3.373,5.253,5.984,5.556a.3.3,0,0,0,.309-.39l-1.067-3.1a.294.294,0,0,1,.159-.364Z" transform="translate(-1864.156 -987.861)" fill="url(#linear-gradient-31)"/>
        <path id="Trazado_101296" data-name="Trazado 101296" d="M1883.741,1022.663s-2.681-1.84-2.877-.291,2.415,2.244,3.708,1.666Z" transform="translate(-1877.392 -1012.584)" fill="url(#linear-gradient-32)"/>
      </g>
      <g id="Grupo_54004" data-name="Grupo 54004" transform="translate(19.304 0)">
        <path id="Trazado_101297" data-name="Trazado 101297" d="M1873.985,980.642c-5.5-10.393-19.762-.951-13.126,7.8C1865.793,985.165,1871.369,980.287,1873.985,980.642Z" transform="translate(-1859.133 -976.083)" fill="#732be5"/>
      </g>
      <path id="Trazado_101298" data-name="Trazado 101298" d="M1837.746,996.678l9.88-.306a.712.712,0,0,0,.6-.366,6.682,6.682,0,0,1,3.8-3.176.2.2,0,0,0-.054-.388l-6.057-.412h-.021c-3.019.232-5.691,2.048-8.24,4.428A.127.127,0,0,0,1837.746,996.678Z" transform="translate(-1812.184 -987.717)" fill="#732be5"/>
      <path id="Trazado_101299" data-name="Trazado 101299" d="M1929.918,1092.057c5.96-6.692,5.435-11.861-1.144-15.6a.44.44,0,0,0-.473.024c-1.61,1.15-11.214,8.33-12.914,17.232a26.708,26.708,0,0,1,9.812,2.63C1926.034,1091.747,1929.918,1092.057,1929.918,1092.057Z" transform="translate(-1915.131 -1049.262)" fill="#732be5"/>
      <path id="Trazado_101300" data-name="Trazado 101300" d="M1854.226,1081.767l3.435.329,1.518-17.453-3.5.089Z" transform="translate(-1823.696 -1040.688)" fill="url(#linear-gradient-33)"/>
      <path id="Trazado_101301" data-name="Trazado 101301" d="M1915.258,1088.368l3.3.244-.98-16.964-3.536.7Z" transform="translate(-1899.25 -1045.798)" fill="url(#linear-gradient-34)"/>
      <path id="Trazado_101302" data-name="Trazado 101302" d="M1860.365,1149.919c4.8,2.2,11.456,1.934,17.691.188l2.547-23.678a1.96,1.96,0,0,0-1.949-2.17h-16.486a1.728,1.728,0,0,0-1.594,1.624Z" transform="translate(-1846.792 -1084.179)" fill="url(#linear-gradient-35)"/>
      <path id="Trazado_101303" data-name="Trazado 101303" d="M1887.717,1216.037a43.3,43.3,0,0,1-18.824-.07l-.075,3.191a.2.2,0,0,0,.14.191,33.814,33.814,0,0,0,18.627.2.572.572,0,0,0,.422-.553v-2.7A.252.252,0,0,0,1887.717,1216.037Z" transform="translate(-1856.473 -1151.08)" fill="url(#linear-gradient-36)"/>
      <path id="Trazado_101304" data-name="Trazado 101304" d="M1903.965,1145.72s-12.672,7.162-16.948,1.047a4.806,4.806,0,0,1-.881-3.735,26.7,26.7,0,0,0-9.812-2.629,13.416,13.416,0,0,0,1.459,9.2c7.489,13.7,27.859-.757,27.859-.757Z" transform="translate(-1876.066 -1095.955)" fill="url(#linear-gradient-37)"/>
      <g id="Grupo_54005" data-name="Grupo 54005" transform="translate(26.348 30.321)">
        <path id="Trazado_101305" data-name="Trazado 101305" d="M1770.887,1123.008l6.916-24.152a.705.705,0,0,1,.6-.507c1.253-.146,4.884-.556,9.076-.911a103,103,0,0,1,14.418-.479.707.707,0,0,1,.578,1.017c-1.992,4.032-10.189,20.431-14.294,25.8a.707.707,0,0,1-.57.28l-16.046-.149A.707.707,0,0,1,1770.887,1123.008Z" transform="translate(-1770.859 -1094.503)" fill="#91b3fa"/>
        <path id="Trazado_101306" data-name="Trazado 101306" d="M1804.438,1089.017l5.014-.835a.36.36,0,0,1,.4.468l-.5,1.5a.36.36,0,0,1-.294.244l-4.825.644a.36.36,0,0,1-.4-.439l.307-1.313A.36.36,0,0,1,1804.438,1089.017Z" transform="translate(-1787.106 -1088.176)" fill="#7d97f4"/>
        <path id="Trazado_101307" data-name="Trazado 101307" d="M1795.193,1097.314l.413-2.151a.5.5,0,0,1,.438-.4l10.128-1.028a.5.5,0,0,1,.534.611l-.644,2.681a.5.5,0,0,1-.459.381l-9.9.5A.5.5,0,0,1,1795.193,1097.314Z" transform="translate(-1781.615 -1092.228)" fill="#7d97f4"/>
        <path id="Trazado_101308" data-name="Trazado 101308" d="M1850.787,1149.777s-.963-3.961-.575-5.367,1.142-3.213,3.652-2.811a36.729,36.729,0,0,1,5.47,1.459,1.437,1.437,0,0,1-2.057,1.24l1.183.915s-.169,1.466-1.78.683l1.1,1.214a1.282,1.282,0,0,1-1.877.432C1854.717,1146.769,1854.149,1150.254,1850.787,1149.777Z" transform="translate(-1849.088 -1127.107)" fill="url(#linear-gradient-38)"/>
      </g>
    </g>
  </g>
</svg>
