<svg xmlns="http://www.w3.org/2000/svg" width="167" height="167" viewBox="0 0 167 167">
  <g id="Grupo_54922" data-name="Grupo 54922" transform="translate(-239 -1787)">
    <g id="Grupo_54919" data-name="Grupo 54919" transform="translate(239 1787)">
      <rect id="Rectángulo_5053" data-name="Rectángulo 5053" width="167" height="167" fill="none"/>
      <g id="Grupo_53578" data-name="Grupo 53578" transform="translate(10.344 9.28)">
        <g id="Grupo_53573" data-name="Grupo 53573">
          <g id="Grupo_53572" data-name="Grupo 53572">
            <circle id="Elipse_3952" data-name="Elipse 3952" cx="62.408" cy="62.408" r="62.408" transform="translate(11.817 11.812)" fill="#732be5" opacity="0.5"/>
            <g id="Grupo_53571" data-name="Grupo 53571">
              <path id="Trazado_100259" data-name="Trazado 100259" d="M232.28,149.386a68.313,68.313,0,0,1,67.946-68.311V75.166a74.221,74.221,0,0,0,0,148.44V217.7A68.313,68.313,0,0,1,232.28,149.386Z" transform="translate(-226.371 -75.166)" fill="#732be5"/>
            </g>
          </g>
          <circle id="Elipse_3953" data-name="Elipse 3953" cx="72.088" cy="72.088" r="72.088" transform="translate(2.137 2.132)" fill="none" stroke="#732be5" stroke-miterlimit="10" stroke-width="1" stroke-dasharray="12"/>
        </g>
      </g>
    </g>
    <g id="Grupo_54921" data-name="Grupo 54921" transform="translate(272.455 1797.791)">
      <path id="Trazado_102599" data-name="Trazado 102599" d="M101.262,51.976v69.441h-73.9A3.358,3.358,0,0,1,24,118.06v-90.7A3.358,3.358,0,0,1,27.357,24H73.286a6.731,6.731,0,0,1,4.749,1.967l21.26,21.26A6.732,6.732,0,0,1,101.262,51.976Z" fill="#e2eafa"/>
      <g id="Grupo_54920" data-name="Grupo 54920" transform="translate(34.078 24.605)">
        <path id="Trazado_102600" data-name="Trazado 102600" d="M152,80h16.8v3.359H152Z" transform="translate(-135.204 -68.847)" fill="#7dafff"/>
        <path id="Trazado_102601" data-name="Trazado 102601" d="M112,80h3.359v3.359H112Z" transform="translate(-103.602 -68.847)" fill="#7dafff"/>
        <path id="Trazado_102602" data-name="Trazado 102602" d="M160,136h15.116v3.359H160Z" transform="translate(-141.524 -113.09)" fill="#7dafff"/>
        <path id="Trazado_102603" data-name="Trazado 102603" d="M72,136H87.117v3.359H72Z" transform="translate(-72 -113.09)" fill="#7dafff"/>
        <path id="Trazado_102604" data-name="Trazado 102604" d="M200,192h21.835v3.359H200Z" transform="translate(-173.126 -157.333)" fill="#7dafff"/>
        <path id="Trazado_102605" data-name="Trazado 102605" d="M120,192h13.437v3.359H120Z" transform="translate(-109.922 -157.333)" fill="#7dafff"/>
        <path id="Trazado_102606" data-name="Trazado 102606" d="M72,192h6.718v3.359H72Z" transform="translate(-72 -157.333)" fill="#7dafff"/>
        <path id="Trazado_102607" data-name="Trazado 102607" d="M72,248H93.835v3.359H72Z" transform="translate(-72 -201.576)" fill="#7dafff"/>
        <path id="Trazado_102608" data-name="Trazado 102608" d="M128,304h10.078v3.359H128Z" transform="translate(-116.243 -245.818)" fill="#7dafff"/>
        <path id="Trazado_102609" data-name="Trazado 102609" d="M72,304h6.718v3.359H72Z" transform="translate(-72 -245.818)" fill="#7dafff"/>
        <path id="Trazado_102610" data-name="Trazado 102610" d="M72,360H93.835v3.359H72Z" transform="translate(-72 -290.061)" fill="#7dafff"/>
        <path id="Trazado_102611" data-name="Trazado 102611" d="M136,416h15.117v3.359H136Z" transform="translate(-122.563 -334.304)" fill="#7dafff"/>
        <path id="Trazado_102612" data-name="Trazado 102612" d="M72,416H82.078v3.359H72Z" transform="translate(-72 -334.304)" fill="#7dafff"/>
        <path id="Trazado_102613" data-name="Trazado 102613" d="M296.59,51.47H278.718A6.719,6.719,0,0,1,272,44.751V26.88a6.681,6.681,0,0,1,1.967,1.363l21.26,21.26A6.68,6.68,0,0,1,296.59,51.47Z" transform="translate(-230.01 -26.88)" fill="#7dafff"/>
      </g>
      <path id="Trazado_102614" data-name="Trazado 102614" d="M312,253.748l3.359-5.039V200h6.718v48.709l3.359,5.039Z" transform="translate(-227.534 -139.049)" fill="#ffb401"/>
      <path id="Trazado_102615" data-name="Trazado 102615" d="M218.526,318.011,213.4,307.756l-5.127,10.255-3-1.5,5.79-11.58a1.679,1.679,0,0,1,1.5-.928h1.68a1.679,1.679,0,0,1,1.5.928l5.79,11.58Z" transform="translate(-143.21 -221.214)" fill="#ffe28f"/>
      <path id="Trazado_102616" data-name="Trazado 102616" d="M218.476,360H200v.84a9.238,9.238,0,1,0,18.476,0Z" transform="translate(-139.049 -265.456)" fill="#ffc431"/>
      <path id="Trazado_102617" data-name="Trazado 102617" d="M418.526,318.011,413.4,307.756l-5.127,10.255-3-1.5,5.79-11.58a1.68,1.68,0,0,1,1.5-.928h1.68a1.679,1.679,0,0,1,1.5.928l5.79,11.58Z" transform="translate(-301.219 -221.214)" fill="#ffe28f"/>
      <path id="Trazado_102618" data-name="Trazado 102618" d="M418.476,360H400v.84a9.238,9.238,0,0,0,18.476,0Z" transform="translate(-297.058 -265.456)" fill="#ffc431"/>
      <path id="Trazado_102619" data-name="Trazado 102619" d="M236.473,239.165l5.518,3.311h18.476v-6.718H253.08a15.021,15.021,0,0,1-12.223-6.29h0a13.055,13.055,0,0,0-21.247,0h0a15.021,15.021,0,0,1-12.223,6.29H200v6.718h18.476l5.518-3.311a12.128,12.128,0,0,1,12.479,0Z" transform="translate(-139.049 -158.01)" fill="#ffc431"/>
      <path id="Trazado_102620" data-name="Trazado 102620" d="M297.592,462.718,294.233,456H267.359L264,462.718Z" transform="translate(-189.612 -341.301)" fill="#ffc431"/>
      <circle id="Elipse_4134" data-name="Elipse 4134" cx="3.195" cy="3.195" r="3.195" transform="translate(87.891 69.392)" fill="#ffd873"/>
    </g>
  </g>
</svg>
