<svg xmlns="http://www.w3.org/2000/svg" width="444" height="402" viewBox="0 0 444 402">
  <g id="Grupo_54682" data-name="Grupo 54682" transform="translate(-783 -16036)">
    <rect id="Rectángulo_5448" data-name="Rectángulo 5448" width="444" height="402" transform="translate(783 16036)" fill="none"/>
    <g id="Grupo_54681" data-name="Grupo 54681" transform="translate(804.056 16038.463)">
      <g id="Floor" transform="translate(15.945 170.971)">
        <ellipse id="Floor-2" data-name="Floor" cx="184.616" cy="106.588" rx="184.616" ry="106.588" fill="#f0f0f0"/>
      </g>
      <g id="Shadows" transform="translate(47.12 197.468)">
        <path id="Shadow" d="M170.875,423.246,358.1,315.151a1.032,1.032,0,0,0,0-1.955L247.121,249.121a3.744,3.744,0,0,0-3.386,0L56.508,357.216a1.032,1.032,0,0,0,0,1.955l110.981,64.074A3.739,3.739,0,0,0,170.875,423.246Z" transform="translate(-55.807 -248.717)" opacity="0.07"/>
        <ellipse id="Shadow-2" data-name="Shadow" cx="29.276" cy="16.903" rx="29.276" ry="16.903" transform="translate(200.098 133.345)" fill="#e0e0e0"/>
        <ellipse id="Shadow-3" data-name="Shadow" cx="27.888" cy="16.101" rx="27.888" ry="16.101" transform="translate(20.406 44.273)" fill="#e0e0e0"/>
      </g>
      <g id="Clouds" transform="translate(59.694 45.895)">
        <g id="Clouds-2" data-name="Clouds" transform="translate(0 0)">
          <g id="Grupo_54558" data-name="Grupo 54558" transform="translate(36.054 19.101)">
            <path id="Trazado_101901" data-name="Trazado 101901" d="M145.525,81.9l-4.693,2.71a5.8,5.8,0,0,0,.039-.621v-1.36c0-2.421-1.7-3.4-3.795-2.191a7.352,7.352,0,0,0-2.262,2.175c-.343-3.042-2.73-4.176-5.63-2.5a12.547,12.547,0,0,0-5.677,9.833v2.034a5.351,5.351,0,0,0,.481,2.356l-3.9,2.252a4.652,4.652,0,0,0-2.1,3.645c0,1.343.942,1.886,2.1,1.215l25.437-14.686a4.651,4.651,0,0,0,2.105-3.645C147.631,81.769,146.688,81.226,145.525,81.9Z" transform="translate(-117.984 -79.333)" fill="#ebebeb"/>
          </g>
          <g id="Grupo_54559" data-name="Grupo 54559">
            <path id="Trazado_101902" data-name="Trazado 101902" d="M104.451,64.106l-2.589,1V59.4c0-4.521-3.607-5.606-7.523-3.345h0a15.675,15.675,0,0,0-7.091,12.282v.828a3.8,3.8,0,0,0-3.29.507h0a11.28,11.28,0,0,0-5.1,8.838v.376l-3.61,2.084a7.428,7.428,0,0,0-3.361,5.82c0,2.143,1.5,3.011,3.361,1.94l29.206-16.862a7.429,7.429,0,0,0,3.36-5.82C107.811,63.9,106.306,63.035,104.451,64.106Z" transform="translate(-71.884 -54.91)" fill="#ebebeb"/>
          </g>
        </g>
      </g>
      <g id="Document" transform="translate(52.126 13.538)">
        <g id="Analysis">
          <g id="Grupo_54560" data-name="Grupo 54560" transform="translate(133.201)">
            <path id="Trazado_101903" data-name="Trazado 101903" d="M356.96,283.207l2.61-1.507a3.292,3.292,0,0,0,1.49-2.579V85.739a3.293,3.293,0,0,0-1.489-2.579L239.6,13.894a3.294,3.294,0,0,0-2.979,0L234.012,15.4a3.292,3.292,0,0,0-1.49,2.579V211.363a3.293,3.293,0,0,0,1.49,2.58l119.97,69.265A3.294,3.294,0,0,0,356.96,283.207Z" transform="translate(-232.522 -13.538)" fill="#732be5"/>
            <path id="Trazado_101904" data-name="Trazado 101904" d="M356.96,283.207l2.61-1.507a3.292,3.292,0,0,0,1.49-2.579V85.739a3.293,3.293,0,0,0-1.489-2.579L239.6,13.894a3.294,3.294,0,0,0-2.979,0L234.012,15.4a3.292,3.292,0,0,0-1.49,2.579V211.363a3.293,3.293,0,0,0,1.49,2.58l119.97,69.265A3.294,3.294,0,0,0,356.96,283.207Z" transform="translate(-232.522 -13.538)" fill="#732be5" opacity="0.3"/>
            <path id="Trazado_101905" data-name="Trazado 101905" d="M232.544,17.739c.1-.77.73-1.053,1.473-.619l119.97,69.265a3.028,3.028,0,0,1,1.053,1.107l5.593-3.226a3.084,3.084,0,0,0-1.053-1.107L239.609,13.894a3.294,3.294,0,0,0-2.979,0L234.017,15.4A3.342,3.342,0,0,0,232.544,17.739Z" transform="translate(-232.527 -13.538)" fill="#732be5"/>
            <path id="Trazado_101906" data-name="Trazado 101906" d="M232.544,17.739c.1-.77.73-1.053,1.473-.619l119.97,69.265a3.028,3.028,0,0,1,1.053,1.107l5.593-3.226a3.084,3.084,0,0,0-1.053-1.107L239.609,13.894a3.294,3.294,0,0,0-2.979,0L234.017,15.4A3.342,3.342,0,0,0,232.544,17.739Z" transform="translate(-232.527 -13.538)" fill="#5d1dc2" opacity="0.2"/>
            <path id="Trazado_101907" data-name="Trazado 101907" d="M388.159,303.034a.247.247,0,0,0,.09.034,1.044,1.044,0,0,0,.151.055l.062.02c.09.028.179.048.275.069h.034a3.362,3.362,0,0,0,1.775-.144,2.46,2.46,0,0,0,.331-.152l2.614-1.506a3.311,3.311,0,0,0,1.486-2.58V105.446a3.071,3.071,0,0,0-.433-1.472L388.95,107.2a3.009,3.009,0,0,1,.44,1.473V302.057a1.234,1.234,0,0,1-.228.784.776.776,0,0,1-.8.255A1.218,1.218,0,0,1,388.159,303.034Z" transform="translate(-266.437 -33.245)" fill="#732be5"/>
            <path id="Trazado_101908" data-name="Trazado 101908" d="M388.159,303.034a.247.247,0,0,0,.09.034,1.044,1.044,0,0,0,.151.055l.062.02c.09.028.179.048.275.069h.034a3.362,3.362,0,0,0,1.775-.144,2.46,2.46,0,0,0,.331-.152l2.614-1.506a3.311,3.311,0,0,0,1.486-2.58V105.446a3.071,3.071,0,0,0-.433-1.472L388.95,107.2a3.009,3.009,0,0,1,.44,1.473V302.057a1.234,1.234,0,0,1-.228.784.776.776,0,0,1-.8.255A1.218,1.218,0,0,1,388.159,303.034Z" transform="translate(-266.437 -33.245)" fill="#3c098d" opacity="0.4"/>
          </g>
          <g id="Grupo_54561" data-name="Grupo 54561" transform="translate(169.547 20.467)">
            <path id="Trazado_101909" data-name="Trazado 101909" d="M322.628,84.208a3.634,3.634,0,0,0,.411,1.608,2.889,2.889,0,0,0,.314.486,1.711,1.711,0,0,0,.464.411.659.659,0,0,0,.853-.067,1.489,1.489,0,0,0,.336-1.07,3.585,3.585,0,0,0-.352-1.5,2.393,2.393,0,0,0-.838-1.025.7.7,0,0,0-.209-.089.575.575,0,0,0-.554.082,1,1,0,0,0-.1.082,1.175,1.175,0,0,0-.27.546A2.34,2.34,0,0,0,322.628,84.208ZM300.617,41.577c.949-.449,2.2-.367,3.9.613a12.125,12.125,0,0,1,4.958,5.938c1.653,3.762,2.259,8.2,3.605,11.57a20.3,20.3,0,0,0,.9,1.967c2.1,4.047,4.667,5.617,6.156,7.7,0,.007.007.007.007.015,1.3,1.795,1.675,3.246,3.419,6.1.561.912,1.256,1.974,2.176,3.238,2.536,3.493,3.433,5.213,3.74,6.261a3.617,3.617,0,0,1,.18,1.2v7.763l2.79-1.608V84.574a4.664,4.664,0,0,0-.038-.613c-.015-.06-.023-.127-.038-.195a.284.284,0,0,0-.015-.075c-.015-.074-.038-.149-.06-.231a.4.4,0,0,0-.03-.09c-.314-1.047-1.219-2.775-3.747-6.26-.92-1.264-1.616-2.319-2.169-3.232-1.75-2.864-2.124-4.315-3.426-6.125-1.488-2.079-4.054-3.657-6.156-7.7-.089-.172-.179-.352-.269-.531-.135-.277-.269-.569-.4-.875-.074-.179-.156-.366-.231-.561-.1-.247-.195-.5-.284-.763-.068-.179-.127-.359-.188-.546-.3-.9-.569-1.854-.83-2.842-.067-.246-.127-.493-.195-.74s-.127-.494-.194-.748c-.128-.464-.247-.935-.375-1.4a.587.587,0,0,1-.03-.1c-.074-.254-.142-.5-.217-.756-.038-.12-.075-.246-.113-.374q-.168-.561-.359-1.122c-.12-.374-.254-.734-.389-1.1s-.284-.718-.441-1.07a12.149,12.149,0,0,0-4.951-5.953,5.559,5.559,0,0,0-2.693-.867,2.785,2.785,0,0,0-1.428.381ZM288.141,51.628v.008a2.577,2.577,0,0,1,.748-.307c1.7-.4,4.779,1.436,6.993-1.429-1.578.18-3.149-.433-4.2-.179a2.993,2.993,0,0,0-.741.292v-.008Zm-4.3,10.187a3.567,3.567,0,0,0,.62,1.96,2.653,2.653,0,0,0,.322.374,2.469,2.469,0,0,0,.246.172.656.656,0,0,0,.21.09.573.573,0,0,0,.554-.083.466.466,0,0,0,.1-.082,1.524,1.524,0,0,0,.329-1.062,3.491,3.491,0,0,0-.733-2.1c-.038-.045-.075-.082-.113-.127l-.112-.113a1.283,1.283,0,0,0-.232-.172C284.372,60.289,283.841,60.805,283.841,61.815Zm-3.119-6.746a11.148,11.148,0,0,1,2.58-.838,8.091,8.091,0,0,0,3.934-1.922c-.336.1-.725.217-1.151.314a9.123,9.123,0,0,0-2.888,1.025Z" transform="translate(-279.371 -39.707)" fill="#27debf"/>
            <path id="Trazado_101910" data-name="Trazado 101910" d="M322.628,84.208a3.634,3.634,0,0,0,.411,1.608,2.889,2.889,0,0,0,.314.486,1.711,1.711,0,0,0,.464.411.659.659,0,0,0,.853-.067,1.489,1.489,0,0,0,.336-1.07,3.585,3.585,0,0,0-.352-1.5,2.393,2.393,0,0,0-.838-1.025.7.7,0,0,0-.209-.089.575.575,0,0,0-.554.082,1,1,0,0,0-.1.082,1.175,1.175,0,0,0-.27.546A2.34,2.34,0,0,0,322.628,84.208ZM300.617,41.577c.949-.449,2.2-.367,3.9.613a12.125,12.125,0,0,1,4.958,5.938c1.653,3.762,2.259,8.2,3.605,11.57a20.3,20.3,0,0,0,.9,1.967c2.1,4.047,4.667,5.617,6.156,7.7,0,.007.007.007.007.015,1.3,1.795,1.675,3.246,3.419,6.1.561.912,1.256,1.974,2.176,3.238,2.536,3.493,3.433,5.213,3.74,6.261a3.617,3.617,0,0,1,.18,1.2v7.763l2.79-1.608V84.574a4.664,4.664,0,0,0-.038-.613c-.015-.06-.023-.127-.038-.195a.284.284,0,0,0-.015-.075c-.015-.074-.038-.149-.06-.231a.4.4,0,0,0-.03-.09c-.314-1.047-1.219-2.775-3.747-6.26-.92-1.264-1.616-2.319-2.169-3.232-1.75-2.864-2.124-4.315-3.426-6.125-1.488-2.079-4.054-3.657-6.156-7.7-.089-.172-.179-.352-.269-.531-.135-.277-.269-.569-.4-.875-.074-.179-.156-.366-.231-.561-.1-.247-.195-.5-.284-.763-.068-.179-.127-.359-.188-.546-.3-.9-.569-1.854-.83-2.842-.067-.246-.127-.493-.195-.74s-.127-.494-.194-.748c-.128-.464-.247-.935-.375-1.4a.587.587,0,0,1-.03-.1c-.074-.254-.142-.5-.217-.756-.038-.12-.075-.246-.113-.374q-.168-.561-.359-1.122c-.12-.374-.254-.734-.389-1.1s-.284-.718-.441-1.07a12.149,12.149,0,0,0-4.951-5.953,5.559,5.559,0,0,0-2.693-.867,2.785,2.785,0,0,0-1.428.381ZM288.141,51.628v.008a2.577,2.577,0,0,1,.748-.307c1.7-.4,4.779,1.436,6.993-1.429-1.578.18-3.149-.433-4.2-.179a2.993,2.993,0,0,0-.741.292v-.008Zm-4.3,10.187a3.567,3.567,0,0,0,.62,1.96,2.653,2.653,0,0,0,.322.374,2.469,2.469,0,0,0,.246.172.656.656,0,0,0,.21.09.573.573,0,0,0,.554-.083.466.466,0,0,0,.1-.082,1.524,1.524,0,0,0,.329-1.062,3.491,3.491,0,0,0-.733-2.1c-.038-.045-.075-.082-.113-.127l-.112-.113a1.283,1.283,0,0,0-.232-.172C284.372,60.289,283.841,60.805,283.841,61.815Zm-3.119-6.746a11.148,11.148,0,0,1,2.58-.838,8.091,8.091,0,0,0,3.934-1.922c-.336.1-.725.217-1.151.314a9.123,9.123,0,0,0-2.888,1.025Z" transform="translate(-279.371 -39.707)" fill="#11a988" opacity="0.8"/>
            <path id="Trazado_101911" data-name="Trazado 101911" d="M278.995,57.6v7.753l50.279,29.037v-7.76c0-.983-.144-2.256-3.921-7.463s-3.88-6.975-5.6-9.355S314.917,65.7,312.7,60.15s-2.421-13.965-8.564-17.514c-1.7-.977-2.945-1.06-3.9-.612a2.42,2.42,0,0,0-.234.131c-2.318,1.369-2.882,6.019-4.43,8.1-.021.027-.048.062-.069.09-2.215,2.868-5.3,1.025-6.99,1.43a2.632,2.632,0,0,0-.749.3,5.75,5.75,0,0,0-.909.674,8.067,8.067,0,0,1-3.935,1.926,11.032,11.032,0,0,0-2.579.839c-.076.048-.152.089-.221.131A1.958,1.958,0,0,0,278.995,57.6Zm43.263,27.048c0-1.011.522-1.527,1.183-1.149a3.152,3.152,0,0,1,1.183,2.518c0,1.011-.529,1.52-1.183,1.142A3.12,3.12,0,0,1,322.258,84.653ZM299.659,54.3c0-3.246,1.445-5.124,3.4-4.739a3.652,3.652,0,0,1,1.08.426c2.476,1.431,4.484,5.676,4.484,9.487a7.147,7.147,0,0,1-.612,3.13,2.533,2.533,0,0,1-3.872,1.183C301.661,62.351,299.659,58.106,299.659,54.3Zm-16.193,7.966c0-1.011.529-1.52,1.183-1.142a3.113,3.113,0,0,1,1.19,2.51c0,1-.53,1.513-1.19,1.136A3.124,3.124,0,0,1,283.466,62.261Z" transform="translate(-278.995 -40.155)" fill="#27debf"/>
            <path id="Trazado_101912" data-name="Trazado 101912" d="M278.995,57.6v7.753l50.279,29.037v-7.76c0-.983-.144-2.256-3.921-7.463s-3.88-6.975-5.6-9.355S314.917,65.7,312.7,60.15s-2.421-13.965-8.564-17.514c-1.7-.977-2.945-1.06-3.9-.612a2.42,2.42,0,0,0-.234.131c-2.318,1.369-2.882,6.019-4.43,8.1-.021.027-.048.062-.069.09-2.215,2.868-5.3,1.025-6.99,1.43a2.632,2.632,0,0,0-.749.3,5.75,5.75,0,0,0-.909.674,8.067,8.067,0,0,1-3.935,1.926,11.032,11.032,0,0,0-2.579.839c-.076.048-.152.089-.221.131A1.958,1.958,0,0,0,278.995,57.6Zm43.263,27.048c0-1.011.522-1.527,1.183-1.149a3.152,3.152,0,0,1,1.183,2.518c0,1.011-.529,1.52-1.183,1.142A3.12,3.12,0,0,1,322.258,84.653ZM299.659,54.3c0-3.246,1.445-5.124,3.4-4.739a3.652,3.652,0,0,1,1.08.426c2.476,1.431,4.484,5.676,4.484,9.487a7.147,7.147,0,0,1-.612,3.13,2.533,2.533,0,0,1-3.872,1.183C301.661,62.351,299.659,58.106,299.659,54.3Zm-16.193,7.966c0-1.011.529-1.52,1.183-1.142a3.113,3.113,0,0,1,1.19,2.51c0,1-.53,1.513-1.19,1.136A3.124,3.124,0,0,1,283.466,62.261Z" transform="translate(-278.995 -40.155)" fill="#02dba8" opacity="0.4"/>
            <path id="Trazado_101913" data-name="Trazado 101913" d="M343.054,97.152a3.617,3.617,0,0,1,.18,1.2v7.763l2.79-1.608V96.74a4.658,4.658,0,0,0-.038-.613c-.015-.06-.023-.127-.038-.195a.284.284,0,0,0-.015-.075c-.015-.074-.038-.149-.06-.231l-.022-.09h-.008Z" transform="translate(-292.954 -51.873)" fill="#27debf"/>
            <path id="Trazado_101914" data-name="Trazado 101914" d="M331.119,77.2c1.3,1.795,1.675,3.246,3.419,6.1l2.79-1.609c-1.75-2.864-2.124-4.315-3.426-6.125h-.008Z" transform="translate(-290.354 -47.522)" fill="#27debf"/>
            <path id="Trazado_101915" data-name="Trazado 101915" d="M317.482,50.029c1.653,3.762,2.259,8.2,3.605,11.57a20.3,20.3,0,0,0,.9,1.967l2.79-1.608c-.089-.172-.179-.352-.269-.531-.135-.277-.269-.569-.4-.875-.074-.179-.156-.366-.232-.561-.1-.247-.195-.5-.284-.763-.068-.179-.128-.359-.188-.546-.3-.9-.569-1.854-.83-2.842-.067-.246-.128-.493-.195-.74s-.127-.494-.194-.748c-.127-.464-.247-.935-.375-1.4a.585.585,0,0,1-.03-.1c-.074-.254-.142-.5-.217-.755-.038-.12-.075-.246-.113-.374q-.168-.561-.359-1.122c-.12-.374-.254-.734-.389-1.1s-.284-.718-.441-1.07Z" transform="translate(-287.382 -41.607)" fill="#27debf"/>
            <path id="Trazado_101916" data-name="Trazado 101916" d="M343.054,97.152a3.617,3.617,0,0,1,.18,1.2v7.763l2.79-1.608V96.74a4.658,4.658,0,0,0-.038-.613c-.015-.06-.023-.127-.038-.195a.284.284,0,0,0-.015-.075c-.015-.074-.038-.149-.06-.231l-.022-.09h-.008Z" transform="translate(-292.954 -51.873)" fill="#11a988" opacity="0.65"/>
            <path id="Trazado_101917" data-name="Trazado 101917" d="M331.119,77.2c1.3,1.795,1.675,3.246,3.419,6.1l2.79-1.609c-1.75-2.864-2.124-4.315-3.426-6.125h-.008Z" transform="translate(-290.354 -47.522)" fill="#11a988" opacity="0.65"/>
            <path id="Trazado_101918" data-name="Trazado 101918" d="M317.482,50.029c1.653,3.762,2.259,8.2,3.605,11.57a20.3,20.3,0,0,0,.9,1.967l2.79-1.608c-.089-.172-.179-.352-.269-.531-.135-.277-.269-.569-.4-.875-.074-.179-.156-.366-.232-.561-.1-.247-.195-.5-.284-.763-.068-.179-.128-.359-.188-.546-.3-.9-.569-1.854-.83-2.842-.067-.246-.128-.493-.195-.74s-.127-.494-.194-.748c-.127-.464-.247-.935-.375-1.4a.585.585,0,0,1-.03-.1c-.074-.254-.142-.5-.217-.755-.038-.12-.075-.246-.113-.374q-.168-.561-.359-1.122c-.12-.374-.254-.734-.389-1.1s-.284-.718-.441-1.07Z" transform="translate(-287.382 -41.607)" fill="#15b392" opacity="0.65"/>
            <path id="Trazado_101919" data-name="Trazado 101919" d="M326.257,92.436a1.535,1.535,0,0,1-.328,1.07,1.489,1.489,0,0,0,.336-1.07,3.585,3.585,0,0,0-.352-1.5A3.7,3.7,0,0,1,326.257,92.436Zm-1.959.239a3.626,3.626,0,0,1-.4-1.608,2.855,2.855,0,0,1,.052-.531,2.342,2.342,0,0,0-.059.531A3.634,3.634,0,0,0,324.3,92.676Zm-37.8-21.4a.573.573,0,0,0,.554-.083A.62.62,0,0,1,286.5,71.271Z" transform="translate(-280.63 -46.567)" fill="#27debf"/>
            <path id="Trazado_101920" data-name="Trazado 101920" d="M305.414,56.456c0,3.806,2,8.055,4.48,9.484a2.535,2.535,0,0,0,3.874-1.182,3.475,3.475,0,0,1-1.085-.427c-2.475-1.436-4.48-5.676-4.48-9.491a7.082,7.082,0,0,1,.613-3.126C306.865,51.324,305.414,53.209,305.414,56.456Z" transform="translate(-284.752 -42.312)" fill="#27debf"/>
            <path id="Trazado_101921" data-name="Trazado 101921" d="M305.414,56.456c0,3.806,2,8.055,4.48,9.484a2.535,2.535,0,0,0,3.874-1.182,3.475,3.475,0,0,1-1.085-.427c-2.475-1.436-4.48-5.676-4.48-9.491a7.082,7.082,0,0,1,.613-3.126C306.865,51.324,305.414,53.209,305.414,56.456Z" transform="translate(-284.752 -42.312)" opacity="0.1"/>
            <path id="Trazado_101922" data-name="Trazado 101922" d="M334.717,97.86a2.807,2.807,0,0,0,.312.486,1.711,1.711,0,0,0,.464.411.659.659,0,0,0,.853-.067,1.489,1.489,0,0,0,.336-1.07,3.585,3.585,0,0,0-.352-1.5,2.394,2.394,0,0,0-.838-1.025.7.7,0,0,0-.209-.089.611.611,0,0,0-.651.164,1.175,1.175,0,0,0-.27.546,2.342,2.342,0,0,0-.059.531A3.591,3.591,0,0,0,334.717,97.86Z" transform="translate(-291.048 -51.752)" fill="#455a64"/>
            <path id="Trazado_101923" data-name="Trazado 101923" d="M284.71,67.621a3.567,3.567,0,0,0,.62,1.96,2.651,2.651,0,0,0,.322.374,2.464,2.464,0,0,0,.246.172.656.656,0,0,0,.21.09.6.6,0,0,0,.651-.165,1.524,1.524,0,0,0,.329-1.062,3.49,3.49,0,0,0-.733-2.1c-.038-.045-.075-.082-.113-.127l-.112-.113a1.283,1.283,0,0,0-.232-.172C285.241,66.1,284.71,66.611,284.71,67.621Z" transform="translate(-280.24 -45.513)" fill="#37474f"/>
          </g>
          <g id="Grupo_54562" data-name="Grupo 54562" transform="translate(0 30.447)">
            <path id="Trazado_101924" data-name="Trazado 101924" d="M239.71,54.547c.109-.368.454-.485.86-.25l104.4,60.275a1.854,1.854,0,0,1,.633.665l2.792-1.611a1.82,1.82,0,0,0-.133-.2,1.718,1.718,0,0,0-.156-.18,1.6,1.6,0,0,0-.344-.282l-104.4-60.275a1.3,1.3,0,0,0-.258-.117,2.015,2.015,0,0,0-1.322.023.9.9,0,0,0-.2.094l-1.017.579a1.039,1.039,0,0,0-.149.109.547.547,0,0,0-.125.109,1.746,1.746,0,0,0-.164.172,1.117,1.117,0,0,0-.109.156,1.282,1.282,0,0,0-.11.172,2,2,0,0,0-.156.375A1.644,1.644,0,0,0,239.71,54.547Z" transform="translate(-100.887 -52.468)" fill="#fff"/>
            <path id="Trazado_101925" data-name="Trazado 101925" d="M62.207,328.025l72.228-38.593c.008,0,.008-.008.016-.008l-.016-.008,9.839-6.374A115.193,115.193,0,0,0,166.4,264.359,131.114,131.114,0,0,0,201,175.616V137.27l3.183-1.833,103-2.276a1.907,1.907,0,0,0-.258-.884l2.792-1.611a1.9,1.9,0,0,1,.109.219,1.7,1.7,0,0,1,.149.665v65.171h.008l.047.031V235.09c0,1.822-.016,3.652-.055,5.467v.063A108.123,108.123,0,0,1,308.9,254.6q-.692,4.622-1.721,9.166a131.177,131.177,0,0,1-31.416,60.072,114.926,114.926,0,0,1-22.125,18.684L243.8,348.9l-71.53,41.294c-.012.007-.027.011-.038.018l-3.145,1.815a3.744,3.744,0,0,1-3.386,0l-102.8-59.345a1.19,1.19,0,0,1-.7-.978Z" transform="translate(-62.207 -69.509)" fill="#ebebeb"/>
            <path id="Trazado_101926" data-name="Trazado 101926" d="M62.21,383.016v3.676a1.167,1.167,0,0,0,.7.978l102.8,59.345a3.448,3.448,0,0,0,1.7.407v-3.676a3.428,3.428,0,0,1-1.7-.407l-102.8-59.345A1.186,1.186,0,0,1,62.21,383.016Z" transform="translate(-62.208 -124.499)" opacity="0.1"/>
            <path id="Trazado_101927" data-name="Trazado 101927" d="M62.906,310.483l71.53-41.294c.008,0,.008-.008.016-.008l-.016-.008,9.839-6.374A115.193,115.193,0,0,0,166.4,244.115,131.114,131.114,0,0,0,201,155.372V55.288a1.07,1.07,0,0,1,.031-.266c.109-.368.454-.485.86-.25l104.4,60.275a1.854,1.854,0,0,1,.634.665,1.907,1.907,0,0,1,.258.884V216.68a131.178,131.178,0,0,1-34.6,88.751,114.93,114.93,0,0,1-22.125,18.684l-9.839,6.374-71.53,41.294a3.744,3.744,0,0,1-3.386,0l-102.8-59.345A1.034,1.034,0,0,1,62.906,310.483Z" transform="translate(-62.207 -52.944)" fill="#fafafa"/>
          </g>
          <g id="Grupo_54563" data-name="Grupo 54563" transform="translate(160.576 25.485)">
            <path id="Trazado_101928" data-name="Trazado 101928" d="M321.057,83.037c.052.082.1.157.142.232a5.511,5.511,0,0,1,.711,1.765.855.855,0,0,1,.015.1.141.141,0,0,1,.007.038l1.7,9.588.539,3.066a3.359,3.359,0,0,0,.09.382,3.443,3.443,0,0,0,.112.367l.09.246-2.79,1.616a4.716,4.716,0,0,1-.292-.995l-.546-3.067-1.691-9.588a5.183,5.183,0,0,0-.874-2.139Z" transform="translate(-278.582 -54.168)" fill="#27debf"/>
            <path id="Trazado_101929" data-name="Trazado 101929" d="M345.4,122.252c.284.441.553.89.792,1.339q.179.325.337.651c.134.277.269.561.389.845.135.307.262.621.382.935s.232.628.336.949c.128.367.239.734.344,1.107q.1.359.2.74c.157.591.292,1.19.419,1.8.045.209.09.426.127.635.052.255.1.509.15.763,0,.007.007.03.007.038.03.2-.007.336-.1.4a.123.123,0,0,1-.09.008h-.015l-.008-.008-.007-.007-2.371-1.893-.389-.307-.187-.142c-.082-.067-.149-.12-.21-.165l-.164-.127c-.09-.075-.142-.113-.142-.113a21.314,21.314,0,0,0-3.447-7.038l2.79-1.615Q345,121.646,345.4,122.252Z" transform="translate(-283.701 -62.449)" fill="#27debf"/>
            <path id="Trazado_101930" data-name="Trazado 101930" d="M307.016,56.069c.128.21.246.426.359.644a3.442,3.442,0,0,1,.2.374c.1.179.187.359.277.538.075.15.149.292.217.442q.2.426.382.852.2.46.382.92a.029.029,0,0,1,.007.023c.113.276.21.553.3.83.149.419.277.838.389,1.257.067.224.12.441.172.658a.18.18,0,0,1,.015.052c.023.113.052.224.075.337.059.261.112.523.157.777.038.2.082.411.134.621s.112.426.179.643.135.411.2.621c.016.015.016.038.023.052.083.224.172.456.27.688s.187.464.3.7c.03.067.06.127.082.187.082.179.172.351.254.531.142.284.292.576.442.86.1.194.2.381.307.568l-2.8,1.616a19.047,19.047,0,0,1-2.184-5.468,24.006,24.006,0,0,0-2.939-7.711Z" transform="translate(-275.521 -48.291)" fill="#27debf"/>
            <path id="Trazado_101931" data-name="Trazado 101931" d="M285.794,63.972a1.177,1.177,0,0,1,.457-.157A3.415,3.415,0,0,1,283.76,65.4a1.642,1.642,0,0,0-.7.149Z" transform="translate(-270.911 -49.979)" fill="#27debf"/>
            <path id="Trazado_101932" data-name="Trazado 101932" d="M285.794,63.972a1.177,1.177,0,0,1,.457-.157A3.415,3.415,0,0,1,283.76,65.4a1.642,1.642,0,0,0-.7.149Z" transform="translate(-270.911 -49.979)" fill="#11a988" opacity="0.8"/>
            <path id="Trazado_101933" data-name="Trazado 101933" d="M272.518,79.444a3.033,3.033,0,0,1,2.8.082c3.246,1.436,4.652,2.079,6.327,2.782.329,2.154-.942,2.356-1.577,2.1-2.356-.935-3.56-1.51-7.547-3.261a2.991,2.991,0,0,0-2.775-.09Z" transform="translate(-268.008 -53.319)" fill="#27debf"/>
            <path id="Trazado_101934" data-name="Trazado 101934" d="M272.518,79.444a3.033,3.033,0,0,1,2.8.082c3.246,1.436,4.652,2.079,6.327,2.782.329,2.154-.942,2.356-1.577,2.1-2.356-.935-3.56-1.51-7.547-3.261a2.991,2.991,0,0,0-2.775-.09Z" transform="translate(-268.008 -53.319)" fill="#11a988" opacity="0.8"/>
            <path id="Trazado_101935" data-name="Trazado 101935" d="M322.618,104.831a11.467,11.467,0,0,0,2.46,3.508l8.751,6.566a23.57,23.57,0,0,1,3.755,3.867l2.79-1.615a23.17,23.17,0,0,0-3.755-3.867l-8.758-6.567a11.493,11.493,0,0,1-2.453-3.508Z" transform="translate(-279.531 -58.565)" fill="#27debf"/>
            <path id="Trazado_101936" data-name="Trazado 101936" d="M322.618,104.831a11.467,11.467,0,0,0,2.46,3.508l8.751,6.566a23.57,23.57,0,0,1,3.755,3.867l2.79-1.615a23.17,23.17,0,0,0-3.755-3.867l-8.758-6.567a11.493,11.493,0,0,1-2.453-3.508Z" transform="translate(-279.531 -58.565)" fill="#0c9d7b" opacity="0.8"/>
            <path id="Trazado_101937" data-name="Trazado 101937" d="M310.769,74.535a29.641,29.641,0,0,0,4.413,6.148,10.459,10.459,0,0,1,1.452,1.757l2.79-1.608a9.777,9.777,0,0,0-1.444-1.765,29.612,29.612,0,0,1-4.413-6.148Z" transform="translate(-276.948 -51.963)" fill="#27debf"/>
            <path id="Trazado_101938" data-name="Trazado 101938" d="M310.769,74.535a29.641,29.641,0,0,0,4.413,6.148,10.459,10.459,0,0,1,1.452,1.757l2.79-1.608a9.777,9.777,0,0,0-1.444-1.765,29.612,29.612,0,0,1-4.413-6.148Z" transform="translate(-276.948 -51.963)" fill="#0c9d7b" opacity="0.8"/>
            <path id="Trazado_101939" data-name="Trazado 101939" d="M290.6,48.068c1.032-.538,2.4-.449,4.016.4,2.393,1.257,4.8,3.911,6.634,7.053l2.8-1.616c-1.832-3.141-4.241-5.8-6.641-7.053a5.6,5.6,0,0,0-2.558-.725,3.1,3.1,0,0,0-1.541.389Z" transform="translate(-272.554 -46.124)" fill="#27debf"/>
            <path id="Trazado_101940" data-name="Trazado 101940" d="M290.6,48.068c1.032-.538,2.4-.449,4.016.4,2.393,1.257,4.8,3.911,6.634,7.053l2.8-1.616c-1.832-3.141-4.241-5.8-6.641-7.053a5.6,5.6,0,0,0-2.558-.725,3.1,3.1,0,0,0-1.541.389Z" transform="translate(-272.554 -46.124)" fill="#0c9d7b" opacity="0.8"/>
            <path id="Trazado_101941" data-name="Trazado 101941" d="M341.754,122.656a21.314,21.314,0,0,1,3.447,7.038s.052.038.142.113l.164.127c.06.045.127.1.21.165l.187.142.389.307,2.371,1.893.007.007.008.008h.015a.123.123,0,0,0,.09-.008c.09-.059.127-.194.1-.4,0-.008-.007-.031-.007-.038-.045-.254-.1-.508-.15-.763-.037-.209-.082-.426-.127-.635-.127-.606-.262-1.2-.419-1.8q-.1-.381-.2-.74c-.1-.374-.217-.741-.344-1.107-.1-.321-.217-.636-.336-.949s-.247-.629-.382-.935c-.12-.284-.254-.568-.389-.845q-.157-.325-.337-.651c-.239-.449-.508-.9-.792-1.339q-.393-.605-.852-1.211Z" transform="translate(-283.701 -62.449)" fill="#0c9d7b" opacity="0.65"/>
            <path id="Trazado_101942" data-name="Trazado 101942" d="M318.267,84.645a5.183,5.183,0,0,1,.874,2.139l1.691,9.588.546,3.067a4.716,4.716,0,0,0,.292.995l2.79-1.616-.09-.246a3.443,3.443,0,0,1-.112-.367,3.359,3.359,0,0,1-.09-.382l-.539-3.066-1.7-9.588a.141.141,0,0,0-.007-.038.855.855,0,0,0-.015-.1,5.511,5.511,0,0,0-.711-1.765c-.045-.075-.089-.15-.142-.232Z" transform="translate(-278.582 -54.168)" fill="#0c9d7b" opacity="0.65"/>
            <path id="Trazado_101943" data-name="Trazado 101943" d="M304.219,57.685a24.006,24.006,0,0,1,2.939,7.711,19.047,19.047,0,0,0,2.184,5.468l2.8-1.616c-.1-.187-.21-.374-.307-.568-.15-.285-.3-.576-.442-.86-.082-.18-.172-.352-.254-.531-.022-.06-.052-.12-.082-.187-.1-.232-.2-.472-.3-.7s-.187-.464-.27-.688c-.007-.015-.007-.038-.023-.052-.066-.21-.142-.411-.2-.621s-.127-.433-.179-.643-.1-.419-.134-.621c-.045-.254-.1-.516-.157-.777-.023-.113-.052-.224-.075-.337a.18.18,0,0,0-.015-.052c-.052-.217-.1-.433-.172-.658-.112-.419-.239-.838-.389-1.257-.09-.277-.187-.554-.3-.83a.029.029,0,0,0-.007-.023q-.179-.46-.382-.92-.179-.427-.382-.852c-.067-.15-.142-.292-.217-.442-.09-.179-.18-.359-.277-.538a3.442,3.442,0,0,0-.2-.374c-.113-.217-.231-.434-.359-.644Z" transform="translate(-275.521 -48.291)" fill="#0c9d7b" opacity="0.65"/>
            <path id="Trazado_101944" data-name="Trazado 101944" d="M347.558,133.2l2.371,1.893.007.007.008.008h.008v-.008C349.817,134.96,348.53,133.95,347.558,133.2Z" transform="translate(-284.965 -65.098)" fill="#27debf"/>
            <path id="Trazado_101945" data-name="Trazado 101945" d="M267.525,78.326s2.435,2.3,2.586,2.394.846.474.846.474l60.419,34.732,1.121.64.007.007c.014.007.014.007.007,0v-.007c-.206-.206-3.487-2.751-3.487-2.751a21.111,21.111,0,0,0-7.2-10.9l-8.75-6.563s-2.353-2.215-2.751-4.506l-.544-3.068-1.692-9.589a6.943,6.943,0,0,0-2.325-3.893c-2.173-2.119-5.937-7.877-6.6-11.619-1.046-5.93-5.331-12.534-9.576-14.763-1.61-.846-2.985-.935-4.011-.393a1.426,1.426,0,0,0-.124.076c-1.589.935-2.284,3.447-1.651,7.03a6.279,6.279,0,0,1-.935,4.781,3.4,3.4,0,0,1-2.49,1.589,1.633,1.633,0,0,0-.7.152c-.02.013-.041.02-.062.034-.874.5-.529,1.809-.529,1.809l1.506,8.358.544,3.068a1.021,1.021,0,0,1,.02.145c.331,2.153-.942,2.36-1.575,2.1-2.36-.935-3.563-1.513-7.546-3.268a3.034,3.034,0,0,0-2.779-.089l-.041.02C268.206,74.934,267.628,76.344,267.525,78.326ZM289.477,52.26a4.654,4.654,0,0,1,.756.324c2.614,1.362,5.249,5.428,5.9,9.073a6.9,6.9,0,0,1-.007,2.827c-.44,1.658-1.754,2.243-3.556,1.3-2.615-1.369-5.242-5.435-5.888-9.081C286.1,53.43,287.323,51.607,289.477,52.26Z" transform="translate(-267.525 -46.572)" fill="#27debf"/>
            <path id="Trazado_101946" data-name="Trazado 101946" d="M267.525,78.326s2.435,2.3,2.586,2.394.846.474.846.474l60.419,34.732,1.121.64.007.007c.014.007.014.007.007,0v-.007c-.206-.206-3.487-2.751-3.487-2.751a21.111,21.111,0,0,0-7.2-10.9l-8.75-6.563s-2.353-2.215-2.751-4.506l-.544-3.068-1.692-9.589a6.943,6.943,0,0,0-2.325-3.893c-2.173-2.119-5.937-7.877-6.6-11.619-1.046-5.93-5.331-12.534-9.576-14.763-1.61-.846-2.985-.935-4.011-.393a1.426,1.426,0,0,0-.124.076c-1.589.935-2.284,3.447-1.651,7.03a6.279,6.279,0,0,1-.935,4.781,3.4,3.4,0,0,1-2.49,1.589,1.633,1.633,0,0,0-.7.152c-.02.013-.041.02-.062.034-.874.5-.529,1.809-.529,1.809l1.506,8.358.544,3.068a1.021,1.021,0,0,1,.02.145c.331,2.153-.942,2.36-1.575,2.1-2.36-.935-3.563-1.513-7.546-3.268a3.034,3.034,0,0,0-2.779-.089l-.041.02C268.206,74.934,267.628,76.344,267.525,78.326ZM289.477,52.26a4.654,4.654,0,0,1,.756.324c2.614,1.362,5.249,5.428,5.9,9.073a6.9,6.9,0,0,1-.007,2.827c-.44,1.658-1.754,2.243-3.556,1.3-2.615-1.369-5.242-5.435-5.888-9.081C286.1,53.43,287.323,51.607,289.477,52.26Z" transform="translate(-267.525 -46.572)" fill="#02dba8" opacity="0.55"/>
            <path id="Trazado_101947" data-name="Trazado 101947" d="M332.5,124.973,270.961,89.595s-.7-.382-.848-.473-2.586-2.4-2.586-2.4l61.5,35.493S332.749,125.1,332.5,124.973Z" transform="translate(-267.525 -54.971)" fill="#27debf"/>
            <path id="Trazado_101948" data-name="Trazado 101948" d="M291.973,57.805c.646,3.646,3.275,7.711,5.888,9.081,1.8.942,3.116.357,3.556-1.3a6.9,6.9,0,0,0,.007-2.827c-.647-3.645-3.282-7.711-5.9-9.073a4.654,4.654,0,0,0-.756-.324C292.619,52.708,291.4,54.531,291.973,57.805Zm9.277,7.72a5,5,0,0,1-.6-.256c-2.614-1.369-5.249-5.435-5.888-9.081a6.983,6.983,0,0,1-.025-2.657,4.615,4.615,0,0,1,.709.305c2.563,1.336,5.167,5.351,5.806,8.952a6.837,6.837,0,0,1,0,2.725Z" transform="translate(-272.821 -47.672)" fill="#27debf"/>
            <path id="Trazado_101949" data-name="Trazado 101949" d="M291.973,57.805c.646,3.646,3.275,7.711,5.888,9.081,1.8.942,3.116.357,3.556-1.3a6.9,6.9,0,0,0,.007-2.827c-.647-3.645-3.282-7.711-5.9-9.073a4.654,4.654,0,0,0-.756-.324C292.619,52.708,291.4,54.531,291.973,57.805Zm9.277,7.72a5,5,0,0,1-.6-.256c-2.614-1.369-5.249-5.435-5.888-9.081a6.983,6.983,0,0,1-.025-2.657,4.615,4.615,0,0,1,.709.305c2.563,1.336,5.167,5.351,5.806,8.952a6.837,6.837,0,0,1,0,2.725Z" transform="translate(-272.821 -47.672)" opacity="0.1"/>
          </g>
          <g id="Grupo_54675" data-name="Grupo 54675" transform="translate(22.363 80.253)">
            <g id="Grupo_54567" data-name="Grupo 54567" transform="translate(154.917 13.088)">
              <path id="Trazado_101950" data-name="Trazado 101950" d="M350.207,169.011V208.75c0,.712-.5,1-1.116.644L290,175.356a2.466,2.466,0,0,1-1.117-1.933V133.683c0-.712.5-1,1.117-.644l59.091,34.039A2.468,2.468,0,0,1,350.207,169.011Z" transform="translate(-288.883 -132.886)" fill="#27debf" opacity="0.1"/>
              <g id="Grupo_54564" data-name="Grupo 54564" transform="translate(2.697 25.556)">
                <path id="Trazado_101951" data-name="Trazado 101951" d="M348.35,212.712s-5.342-7.024-6.894-10.026c-2.307-4.463-1.782-13.1-6.194-15.667-4.517-2.623-3.729,8.872-9.446,5.6s-5.707-7.141-8.606-9.031-5.425,1.891-8.828,0c-3.914-2.175-5.706-15.481-9.742-17.694-4.517-2.477-6.308,9.636-6.308,9.636v4.836Z" transform="translate(-292.332 -165.563)" fill="#02dba8"/>
                <path id="Trazado_101952" data-name="Trazado 101952" d="M348.35,213.326s-2.51-13.527-5.235-15.113c-3.91-2.275-2.537,7.783-7.853,4.534-4.341-2.654-3.535-14.164-9.168-17.333-4.232-2.38-3.956,6.674-9.156,3.731s-3.952-17.462-9.161-20.394-4.523,12.613-8.537,10.2c-4.754-2.859-3.174-6.7-6.908-10.057v12.091Z" transform="translate(-292.332 -166.177)" fill="#27debf" opacity="0.6"/>
                <path id="Trazado_101953" data-name="Trazado 101953" d="M348.35,213.326s-2.51-13.527-5.235-15.113c-3.91-2.275-2.537,7.783-7.853,4.534-4.341-2.654-3.535-14.164-9.168-17.333-4.232-2.38-3.956,6.674-9.156,3.731s-3.952-17.462-9.161-20.394-4.523,12.613-8.537,10.2c-4.754-2.859-3.174-6.7-6.908-10.057v12.091Z" transform="translate(-292.332 -166.177)" fill="#02dba8" opacity="0.25"/>
              </g>
              <g id="Grupo_54565" data-name="Grupo 54565" transform="translate(27.303 21.432)">
                <path id="Trazado_101954" data-name="Trazado 101954" d="M359.883,181.26c0,.834-.586,1.172-1.309.755a2.9,2.9,0,0,1-1.309-2.266c0-.834.586-1.173,1.309-.755A2.892,2.892,0,0,1,359.883,181.26Z" transform="translate(-331.088 -164.327)" fill="#02dba8"/>
                <path id="Trazado_101955" data-name="Trazado 101955" d="M359.883,181.26c0,.834-.586,1.172-1.309.755a2.9,2.9,0,0,1-1.309-2.266c0-.834.586-1.173,1.309-.755A2.892,2.892,0,0,1,359.883,181.26Z" transform="translate(-331.088 -164.327)" fill="#02dba8" opacity="0.25"/>
                <path id="Trazado_101956" data-name="Trazado 101956" d="M346.676,173.206l-22.205-12.821c-.375-.216-.677-.053-.677.364a1.47,1.47,0,0,0,.677,1.147l22.205,12.821c.374.216.677.053.677-.364A1.472,1.472,0,0,0,346.676,173.206Z" transform="translate(-323.794 -160.29)" fill="#02dba8"/>
              </g>
              <g id="Grupo_54566" data-name="Grupo 54566" transform="translate(27.303 27.478)">
                <path id="Trazado_101957" data-name="Trazado 101957" d="M359.883,188.99c0,.834-.586,1.172-1.309.755a2.9,2.9,0,0,1-1.309-2.267c0-.834.586-1.173,1.309-.755A2.893,2.893,0,0,1,359.883,188.99Z" transform="translate(-331.088 -172.057)" fill="#02dba8"/>
                <path id="Trazado_101958" data-name="Trazado 101958" d="M346.676,180.936l-22.205-12.821c-.375-.216-.677-.052-.677.364a1.472,1.472,0,0,0,.677,1.147l22.205,12.82c.374.217.677.053.677-.364A1.473,1.473,0,0,0,346.676,180.936Z" transform="translate(-323.794 -168.02)" fill="#02dba8"/>
              </g>
            </g>
            <g id="Grupo_54586" data-name="Grupo 54586" transform="translate(183.356 76.612)">
              <path id="Trazado_101959" data-name="Trazado 101959" d="M358.141,233.628V259.91c0,.471-.33.662-.738.426L325.984,242.2a1.633,1.633,0,0,1-.738-1.279V214.636c0-.471.331-.661.738-.426L357.4,232.349A1.633,1.633,0,0,1,358.141,233.628Z" transform="translate(-325.246 -214.11)" fill="#27debf" opacity="0.1"/>
              <g id="Grupo_54570" data-name="Grupo 54570" transform="translate(25.7 19.981)">
                <g id="Grupo_54568" data-name="Grupo 54568" transform="translate(2.271)">
                  <path id="Trazado_101960" data-name="Trazado 101960" d="M362.547,260.336V240.345l-1.192-.687v19.991Z" transform="translate(-361.085 -239.658)" fill="#27debf"/>
                  <path id="Trazado_101961" data-name="Trazado 101961" d="M362.741,267.792l-1.731-1v.613l1.731,1Z" transform="translate(-361.01 -245.571)" fill="#455a64"/>
                </g>
                <g id="Grupo_54569" data-name="Grupo 54569" transform="translate(0 2.686)">
                  <path id="Trazado_101962" data-name="Trazado 101962" d="M359.643,259.775V243.78l-1.192-.687v15.994Z" transform="translate(-358.182 -243.093)" fill="#0abf95"/>
                  <path id="Trazado_101963" data-name="Trazado 101963" d="M359.838,266.116l-1.731-1v.613l1.731,1Z" transform="translate(-358.107 -247.892)" fill="#0abf95"/>
                </g>
              </g>
              <g id="Grupo_54573" data-name="Grupo 54573" transform="translate(19.962 19.291)">
                <g id="Grupo_54571" data-name="Grupo 54571" transform="translate(2.27)">
                  <path id="Trazado_101964" data-name="Trazado 101964" d="M355.216,256.833V239.462l-1.192-.687v17.37Z" transform="translate(-353.75 -238.775)" fill="#27debf"/>
                  <path id="Trazado_101965" data-name="Trazado 101965" d="M355.4,263.55l-1.731-1v.613l1.731,1Z" transform="translate(-353.673 -243.956)" fill="#455a64"/>
                </g>
                <g id="Grupo_54572" data-name="Grupo 54572" transform="translate(0 1.687)">
                  <path id="Trazado_101966" data-name="Trazado 101966" d="M352.313,255.993V241.619l-1.192-.687v14.373Z" transform="translate(-350.847 -240.932)" fill="#0abf95"/>
                  <path id="Trazado_101967" data-name="Trazado 101967" d="M352.5,261.874l-1.731-1v.613l1.731,1Z" transform="translate(-350.77 -245.278)" fill="#0abf95"/>
                </g>
              </g>
              <g id="Grupo_54576" data-name="Grupo 54576" transform="translate(14.237 22.946)">
                <g id="Grupo_54574" data-name="Grupo 54574" transform="translate(2.27 2.395)">
                  <path id="Trazado_101968" data-name="Trazado 101968" d="M347.885,255.213V247.2l-1.192-.687v8.014Z" transform="translate(-346.427 -246.512)" fill="#27debf"/>
                  <path id="Trazado_101969" data-name="Trazado 101969" d="M348.084,259.327l-1.731-1v.613l1.731,1Z" transform="translate(-346.353 -249.086)" fill="#455a64"/>
                </g>
                <g id="Grupo_54575" data-name="Grupo 54575">
                  <path id="Trazado_101970" data-name="Trazado 101970" d="M344.982,253.236v-9.1l-1.192-.687v9.1Z" transform="translate(-343.524 -243.449)" fill="#0abf95"/>
                  <path id="Trazado_101971" data-name="Trazado 101971" d="M345.181,257.65l-1.731-1v.613l1.731,1Z" transform="translate(-343.449 -246.326)" fill="#0abf95"/>
                </g>
              </g>
              <g id="Grupo_54579" data-name="Grupo 54579" transform="translate(8.484 19.079)">
                <g id="Grupo_54577" data-name="Grupo 54577" transform="translate(2.271)">
                  <path id="Trazado_101972" data-name="Trazado 101972" d="M340.554,250.155V239.192l-1.192-.687v10.962Z" transform="translate(-339.077 -238.505)" fill="#27debf"/>
                  <path id="Trazado_101973" data-name="Trazado 101973" d="M340.729,255.087l-1.731-1v.613l1.731,1Z" transform="translate(-338.998 -241.9)" fill="#455a64"/>
                </g>
                <g id="Grupo_54578" data-name="Grupo 54578" transform="translate(0 2.519)">
                  <path id="Trazado_101974" data-name="Trazado 101974" d="M337.651,249.546v-7.134l-1.192-.687v7.133Z" transform="translate(-336.174 -241.725)" fill="#0abf95"/>
                  <path id="Trazado_101975" data-name="Trazado 101975" d="M337.826,253.411l-1.731-1v.613l1.731,1Z" transform="translate(-336.094 -244.054)" fill="#0abf95"/>
                </g>
              </g>
              <g id="Grupo_54582" data-name="Grupo 54582" transform="translate(2.75 19.079)">
                <g id="Grupo_54580" data-name="Grupo 54580" transform="translate(2.271)">
                  <path id="Trazado_101976" data-name="Trazado 101976" d="M333.223,248.109v-3.117l-1.192-.687v3.116Z" transform="translate(-331.745 -239.769)" fill="#27debf"/>
                  <path id="Trazado_101977" data-name="Trazado 101977" d="M362.547,260.336V240.345l-1.192-.687v19.991Z" transform="translate(-338.135 -238.756)" fill="#27debf"/>
                  <path id="Trazado_101978" data-name="Trazado 101978" d="M355.216,256.833V239.462l-1.192-.687v17.37Z" transform="translate(-336.537 -238.564)" fill="#27debf"/>
                  <path id="Trazado_101979" data-name="Trazado 101979" d="M347.885,255.213V247.2l-1.192-.687v8.014Z" transform="translate(-334.94 -240.25)" fill="#27debf"/>
                  <path id="Trazado_101980" data-name="Trazado 101980" d="M340.554,250.155V239.192l-1.192-.687v10.962Z" transform="translate(-333.342 -238.505)" fill="#27debf"/>
                  <path id="Trazado_101981" data-name="Trazado 101981" d="M333.223,248.109v-3.117l-1.192-.687v3.116Z" transform="translate(-331.745 -239.769)" fill="#27debf"/>
                  <path id="Trazado_101982" data-name="Trazado 101982" d="M333.4,250.848l-1.731-1v.613l1.731,1Z" transform="translate(-331.665 -240.977)" fill="#455a64"/>
                </g>
                <g id="Grupo_54581" data-name="Grupo 54581" transform="translate(0 4.793)">
                  <path id="Trazado_101983" data-name="Trazado 101983" d="M330.32,246.871v-1.55l-1.192-.687v1.55Z" transform="translate(-328.842 -244.633)" fill="#0abf95"/>
                  <path id="Trazado_101984" data-name="Trazado 101984" d="M330.493,249.171l-1.731-1v.613l1.731,1Z" transform="translate(-328.762 -245.404)" fill="#0abf95"/>
                </g>
              </g>
              <g id="Grupo_54585" data-name="Grupo 54585" transform="translate(1.732 4.33)">
                <g id="Grupo_54583" data-name="Grupo 54583">
                  <path id="Trazado_101985" data-name="Trazado 101985" d="M340.742,226.854l1.3.75v1.5l-1.3-.75Z" transform="translate(-330.354 -221.217)" fill="#0abf95"/>
                  <path id="Trazado_101986" data-name="Trazado 101986" d="M340.742,226.854l1.3.75v1.5l-1.3-.75Z" transform="translate(-330.354 -221.217)" fill="#0abf95" opacity="0.25"/>
                  <path id="Trazado_101987" data-name="Trazado 101987" d="M327.8,219.692l9.28,5.357a.746.746,0,0,1,.339.587v.292c0,.216-.152.3-.339.2l-9.279-5.358a.748.748,0,0,1-.339-.587v-.291C327.46,219.672,327.612,219.584,327.8,219.692Z" transform="translate(-327.46 -219.646)" fill="#0abf95"/>
                </g>
                <g id="Grupo_54584" data-name="Grupo 54584" transform="translate(0 2.5)">
                  <path id="Trazado_101988" data-name="Trazado 101988" d="M340.742,230.05l1.3.75v1.5l-1.3-.75Z" transform="translate(-330.354 -224.413)" fill="#02dba8"/>
                  <path id="Trazado_101989" data-name="Trazado 101989" d="M327.8,222.888l9.28,5.357a.745.745,0,0,1,.339.587v.292c0,.216-.152.3-.339.2l-9.279-5.358a.748.748,0,0,1-.339-.587v-.291C327.46,222.868,327.612,222.78,327.8,222.888Z" transform="translate(-327.46 -222.842)" fill="#02dba8"/>
                </g>
              </g>
              <path id="Trazado_101990" data-name="Trazado 101990" d="M362.547,260.336V240.345l-1.192-.687v19.991Z" transform="translate(-333.115 -219.677)" fill="#27debf"/>
              <path id="Trazado_101991" data-name="Trazado 101991" d="M355.216,256.833V239.462l-1.192-.687v17.37Z" transform="translate(-331.517 -219.485)" fill="#27debf"/>
              <path id="Trazado_101992" data-name="Trazado 101992" d="M347.885,255.213V247.2l-1.192-.687v8.014Z" transform="translate(-329.92 -221.17)" fill="#27debf"/>
              <path id="Trazado_101993" data-name="Trazado 101993" d="M340.554,250.155V239.192l-1.192-.687v10.962Z" transform="translate(-328.322 -219.426)" fill="#27debf"/>
              <path id="Trazado_101994" data-name="Trazado 101994" d="M362.547,260.336V240.345l-1.192-.687v19.991Z" transform="translate(-333.115 -219.677)" fill="#27debf"/>
              <path id="Trazado_101995" data-name="Trazado 101995" d="M355.216,256.833V239.462l-1.192-.687v17.37Z" transform="translate(-331.517 -219.485)" fill="#27debf"/>
              <path id="Trazado_101996" data-name="Trazado 101996" d="M347.885,255.213V247.2l-1.192-.687v8.014Z" transform="translate(-329.92 -221.17)" fill="#27debf"/>
              <path id="Trazado_101997" data-name="Trazado 101997" d="M340.554,250.155V239.192l-1.192-.687v10.962Z" transform="translate(-328.322 -219.426)" fill="#27debf"/>
              <path id="Trazado_101998" data-name="Trazado 101998" d="M333.223,248.109v-3.117l-1.192-.687v3.116Z" transform="translate(-326.725 -220.69)" fill="#27debf"/>
              <path id="Trazado_101999" data-name="Trazado 101999" d="M362.547,260.336V240.345l-1.192-.687v19.991Z" transform="translate(-333.115 -219.677)" fill="#02dba8" opacity="0.25"/>
              <path id="Trazado_102000" data-name="Trazado 102000" d="M355.216,256.833V239.462l-1.192-.687v17.37Z" transform="translate(-331.517 -219.485)" fill="#02dba8" opacity="0.25"/>
              <path id="Trazado_102001" data-name="Trazado 102001" d="M347.885,255.213V247.2l-1.192-.687v8.014Z" transform="translate(-329.92 -221.17)" fill="#02dba8" opacity="0.25"/>
              <path id="Trazado_102002" data-name="Trazado 102002" d="M340.554,250.155V239.192l-1.192-.687v10.962Z" transform="translate(-328.322 -219.426)" fill="#02dba8" opacity="0.25"/>
              <path id="Trazado_102003" data-name="Trazado 102003" d="M333.223,248.109v-3.117l-1.192-.687v3.116Z" transform="translate(-326.725 -220.69)" fill="#02dba8" opacity="0.25"/>
            </g>
            <g id="Grupo_54591" data-name="Grupo 54591" transform="translate(154.917 60.218)">
              <path id="Trazado_102004" data-name="Trazado 102004" d="M313.86,208.1v26.283c0,.471-.331.662-.738.426l-23.5-13.568a1.633,1.633,0,0,1-.738-1.279V193.675c0-.471.331-.662.738-.426l23.5,13.568A1.632,1.632,0,0,1,313.86,208.1Z" transform="translate(-288.883 -193.148)" fill="#27debf" opacity="0.1"/>
              <g id="Grupo_54587" data-name="Grupo 54587" transform="translate(16.952 11.938)">
                <path id="Trazado_102005" data-name="Trazado 102005" d="M316.945,211.494l1.3.75v1.5l-1.3-.75Z" transform="translate(-311.951 -209.084)" fill="#02dba8"/>
                <path id="Trazado_102006" data-name="Trazado 102006" d="M310.762,208.44l4.286,2.471a.445.445,0,0,1,.2.352v.408c0,.13-.091.182-.2.117l-4.284-2.472a.45.45,0,0,1-.2-.352v-.407C310.559,208.428,310.651,208.375,310.762,208.44Z" transform="translate(-310.559 -208.412)" fill="#02dba8"/>
              </g>
              <g id="Grupo_54588" data-name="Grupo 54588" transform="translate(9.569 7.727)">
                <path id="Trazado_102007" data-name="Trazado 102007" d="M307.537,206.058l1.3.75v1.5l-1.3-.75Z" transform="translate(-302.517 -203.689)" fill="#02dba8"/>
                <path id="Trazado_102008" data-name="Trazado 102008" d="M307.537,206.058l1.3.75v1.5l-1.3-.75Z" transform="translate(-302.517 -203.689)" fill="#02dba8" opacity="0.25"/>
                <path id="Trazado_102009" data-name="Trazado 102009" d="M301.321,203.056l4.286,2.471a.448.448,0,0,1,.2.352v.408c0,.13-.092.182-.2.117l-4.285-2.472a.449.449,0,0,1-.2-.352v-.407C301.118,203.044,301.209,202.991,301.321,203.056Z" transform="translate(-301.118 -203.028)" fill="#02dba8"/>
              </g>
              <g id="Grupo_54589" data-name="Grupo 54589" transform="translate(2.184 3.517)">
                <path id="Trazado_102010" data-name="Trazado 102010" d="M298.129,200.621l1.3.75v1.5l-1.3-.75Z" transform="translate(-293.082 -198.293)" fill="#02dba8"/>
                <path id="Trazado_102011" data-name="Trazado 102011" d="M298.129,200.621l1.3.75v1.5l-1.3-.75Z" transform="translate(-293.082 -198.293)" fill="#02dba8" opacity="0.4"/>
                <path id="Trazado_102012" data-name="Trazado 102012" d="M291.879,197.672l4.285,2.471a.448.448,0,0,1,.2.352v.408c0,.13-.091.182-.2.117l-4.284-2.472a.448.448,0,0,1-.2-.352v-.407C291.676,197.66,291.767,197.607,291.879,197.672Z" transform="translate(-291.676 -197.644)" fill="#02dba8"/>
              </g>
              <g id="Grupo_54590" data-name="Grupo 54590" transform="translate(5.151 13.772)">
                <path id="Trazado_102013" data-name="Trazado 102013" d="M295.469,215.7a15.308,15.308,0,0,0,6.925,11.995c3.825,2.208,6.925.418,6.925-4a15.307,15.307,0,0,0-6.925-11.995C298.569,209.495,295.469,211.285,295.469,215.7Zm2.131,0c0-1.051.221-2.813,1.7-2.813a4.139,4.139,0,0,1,2.027.66,13.171,13.171,0,0,1,5.859,10.149c0,1.051-.221,2.813-1.7,2.813a4.135,4.135,0,0,1-2.027-.66A13.171,13.171,0,0,1,297.6,215.7Z" transform="translate(-295.469 -210.757)" fill="#02dba8"/>
                <path id="Trazado_102014" data-name="Trazado 102014" d="M301.533,213.549a4.139,4.139,0,0,0-2.027-.66c-.921,0-1.354.682-1.55,1.45l-1.546-1.785c1.137-1.964,3.478-2.416,6.189-.851v2.583A8.578,8.578,0,0,0,301.533,213.549Z" transform="translate(-295.674 -210.758)" fill="#02dba8" opacity="0.25"/>
                <path id="Trazado_102015" data-name="Trazado 102015" d="M296.2,213.054l1.546,1.785a5.644,5.644,0,0,0-.151,1.363,8.66,8.66,0,0,0,.106,1.291l-2.237-1.291a6.243,6.243,0,0,1,.736-3.148Z" transform="translate(-295.469 -211.258)" fill="#02dba8" opacity="0.4"/>
              </g>
            </g>
            <path id="Trazado_102016" data-name="Trazado 102016" d="M328.117,260.824,263.44,223.483a1.288,1.288,0,0,0-2.043.946l-.151.831a2.974,2.974,0,0,0,1.344,2.9l64.584,37.287a1.322,1.322,0,0,0,2.084-.938l.162-.793A2.894,2.894,0,0,0,328.117,260.824Z" transform="translate(-127.936 -139.489)" fill="#02cddb"/>
            <path id="Trazado_102017" data-name="Trazado 102017" d="M323.622,309.1l-52.239-30.16a1.3,1.3,0,0,0-1.868.274,1.538,1.538,0,0,0,.842,1.839l52.314,30.2c.748.433,1.567.3,1.83-.3A1.607,1.607,0,0,0,323.622,309.1Z" transform="translate(-129.725 -151.569)" fill="#27debf"/>
            <path id="Trazado_102018" data-name="Trazado 102018" d="M323.622,309.1l-52.239-30.16a1.3,1.3,0,0,0-1.868.274,1.538,1.538,0,0,0,.842,1.839l52.314,30.2c.748.433,1.567.3,1.83-.3A1.607,1.607,0,0,0,323.622,309.1Z" transform="translate(-129.725 -151.569)" fill="#02cddb" opacity="0.7"/>
            <path id="Trazado_102019" data-name="Trazado 102019" d="M326.576,317.737l-31.989-18.453a1.3,1.3,0,0,0-1.868.275,1.537,1.537,0,0,0,.842,1.838l32.064,18.5c.748.432,1.567.3,1.83-.3A1.608,1.608,0,0,0,326.576,317.737Z" transform="translate(-134.782 -156.003)" fill="#02cddb"/>
            <path id="Trazado_102020" data-name="Trazado 102020" d="M308.883,335.378l-52.7-30.426a1.575,1.575,0,0,0-2.036.182c-.376.533-.074,1.315.674,1.746l52.738,30.44a1.542,1.542,0,0,0,2.015-.189C309.942,336.595,309.632,335.81,308.883,335.378Z" transform="translate(-126.362 -157.233)" fill="#27debf"/>
            <path id="Trazado_102021" data-name="Trazado 102021" d="M308.883,335.378l-52.7-30.426a1.575,1.575,0,0,0-2.036.182c-.376.533-.074,1.315.674,1.746l52.738,30.44a1.542,1.542,0,0,0,2.015-.189C309.942,336.595,309.632,335.81,308.883,335.378Z" transform="translate(-126.362 -157.233)" fill="#02cddb" opacity="0.7"/>
            <path id="Trazado_102022" data-name="Trazado 102022" d="M314.367,345.471l-20.7-11.946a1.591,1.591,0,0,0-2.04.169c-.379.525-.078,1.3.669,1.732l20.68,11.939a1.609,1.609,0,0,0,2.05-.165C315.411,346.678,315.116,345.9,314.367,345.471Z" transform="translate(-134.528 -163.459)" fill="#02cddb"/>
            <path id="Trazado_102023" data-name="Trazado 102023" d="M299.917,347.481l-52.809-30.49a1.726,1.726,0,0,0-2.112.139c-.418.509-.151,1.272.6,1.7l52.813,30.481a1.725,1.725,0,0,0,2.11-.135C300.934,348.674,300.665,347.913,299.917,347.481Z" transform="translate(-124.359 -159.855)" fill="#27debf"/>
            <path id="Trazado_102024" data-name="Trazado 102024" d="M299.917,347.481l-52.809-30.49a1.726,1.726,0,0,0-2.112.139c-.418.509-.151,1.272.6,1.7l52.813,30.481a1.725,1.725,0,0,0,2.11-.135C300.934,348.674,300.665,347.913,299.917,347.481Z" transform="translate(-124.359 -159.855)" fill="#02cddb" opacity="0.7"/>
            <path id="Trazado_102025" data-name="Trazado 102025" d="M305,357.285,284.418,345.4a1.789,1.789,0,0,0-2.149.134c-.44.506-.189,1.266.559,1.7L303.387,359.1a1.817,1.817,0,0,0,2.162-.126C306,358.474,305.751,357.717,305,357.285Z" transform="translate(-132.478 -166.045)" fill="#02cddb"/>
            <path id="Trazado_102026" data-name="Trazado 102026" d="M319.889,324.331l-41.328-23.865a1.431,1.431,0,0,0-1.952.226,1.391,1.391,0,0,0,.756,1.789l41.391,23.9a1.379,1.379,0,0,0,1.921-.242A1.443,1.443,0,0,0,319.889,324.331Z" transform="translate(-131.264 -156.258)" fill="#27debf"/>
            <path id="Trazado_102027" data-name="Trazado 102027" d="M319.889,324.331l-41.328-23.865a1.431,1.431,0,0,0-1.952.226,1.391,1.391,0,0,0,.756,1.789l41.391,23.9a1.379,1.379,0,0,0,1.921-.242A1.443,1.443,0,0,0,319.889,324.331Z" transform="translate(-131.264 -156.258)" fill="#02cddb" opacity="0.7"/>
            <path id="Trazado_102028" data-name="Trazado 102028" d="M317.9,330.16,280.22,308.4a1.475,1.475,0,0,0-1.981.218,1.354,1.354,0,0,0,.727,1.782l37.723,21.762a1.446,1.446,0,0,0,1.961-.221A1.377,1.377,0,0,0,317.9,330.16Z" transform="translate(-131.617 -157.987)" fill="#27debf"/>
            <path id="Trazado_102029" data-name="Trazado 102029" d="M250.5,278.262a1.659,1.659,0,0,0-2.242.747,1.717,1.717,0,0,0,.518,2.34,1.66,1.66,0,0,0,2.242-.747A1.716,1.716,0,0,0,250.5,278.262Z" transform="translate(-125.06 -151.435)" fill="#27debf"/>
            <g id="Grupo_54592" data-name="Grupo 54592" transform="translate(112.595 142.547)">
              <path id="Trazado_102030" data-name="Trazado 102030" d="M237.552,298.626a1.94,1.94,0,0,0-2.433.62,1.406,1.406,0,0,0,.361,2.167,1.987,1.987,0,0,0,2.432-.62A1.439,1.439,0,0,0,237.552,298.626Z" transform="translate(-234.768 -298.417)" fill="#27debf"/>
              <path id="Trazado_102031" data-name="Trazado 102031" d="M237.552,298.626a1.94,1.94,0,0,0-2.433.62,1.406,1.406,0,0,0,.361,2.167,1.987,1.987,0,0,0,2.432-.62A1.439,1.439,0,0,0,237.552,298.626Z" transform="translate(-234.768 -298.417)" fill="#fff" opacity="0.7"/>
            </g>
            <g id="Grupo_54606" data-name="Grupo 54606" transform="translate(28.495 166.743)">
              <path id="Trazado_102032" data-name="Trazado 102032" d="M252.515,375.215l-78.533-45.346a4.752,4.752,0,0,0-4.3,0l-41.555,23.992a1.311,1.311,0,0,0,0,2.483l78.534,45.345a4.752,4.752,0,0,0,4.3,0L252.515,377.7A1.31,1.31,0,0,0,252.515,375.215Z" transform="translate(-127.235 -329.354)" fill="#27debf" opacity="0.1"/>
              <g id="Grupo_54605" data-name="Grupo 54605" transform="translate(14.937 9.019)">
                <path id="Trazado_102033" data-name="Trazado 102033" d="M220.3,393.492c-1.919-1.154,13.153-10.134,6.537-13.837s-17.322,5.106-23.967,1.258c-6.322-3.662,13.063-12.617,6.536-16.354s-19.307,6.2-26.147,2.516c-5.949-3.207,1.194-6.768-1.622-9.491s-10.338.623-15.214-2.042,13.534-8.633,3.448-14.457l-23.535,13.587,70.371,40.9Z" transform="translate(-146.335 -340.929)" fill="#02cddb" opacity="0.3"/>
                <g id="Grupo_54593" data-name="Grupo 54593" transform="translate(18.321)">
                  <path id="Trazado_102034" data-name="Trazado 102034" d="M224.59,393.6l1.625-.3c-.466-.3,1.281-1.973,2.686-3.321,3.518-3.379,8.339-8.005,3.837-10.525a9.172,9.172,0,0,0-4.018-1.063c-3.049-.163-6.215.757-9.276,1.646-2.762.8-5.616,1.631-7.837,1.507a6.226,6.226,0,0,1-2.83-.827c-2.929-1.7.265-4.815,3.353-7.829,3.284-3.207,6.682-6.523,3.182-8.527a8.463,8.463,0,0,0-3.831-1c-3.317-.155-6.826.968-10.541,2.158-3.281,1.05-6.672,2.135-9.2,2.028a5.866,5.866,0,0,1-2.587-.681c-3.237-1.746-2.37-3.625-1.532-5.443.654-1.417,1.271-2.756,0-3.988-1.663-1.6-5.08-1.408-7.827-1.25-2.87.165-5.349.308-7.473-.852-1.749-.956.086-2.551,2.211-4.4,3.318-2.884,7.447-6.474,1.249-10.052l-1.609.31c5.755,3.321,1.8,6.759-1.375,9.52-2.3,2-4.288,3.727-2.062,4.943,2.776,1.518,6.434,1.309,9.373,1.14,2.877-.166,4.614-.264,5.755.842,1.123,1.086.54,2.352-.079,3.691-.848,1.839-1.809,3.923,1.789,5.862a9.048,9.048,0,0,0,3.933.971c3.409.144,6.961-.993,10.721-2.2,3.232-1.035,6.573-2.1,9-1.99a5.378,5.378,0,0,1,2.483.693c3.074,1.76-.185,4.94-3.336,8.016-3.369,3.29-6.553,6.4-3.2,8.338a9.17,9.17,0,0,0,4.134,1.129c3.085.173,6.277-.754,9.364-1.651,2.738-.8,5.571-1.617,7.762-1.5a6.107,6.107,0,0,1,2.715.768c4.057,2.272-.79,6.925-4,10.005C224.826,392,223.748,393.093,224.59,393.6Z" transform="translate(-169.761 -340.886)" fill="#02cddb"/>
                </g>
                <g id="Grupo_54597" data-name="Grupo 54597" transform="translate(39.492 24.227)">
                  <g id="Grupo_54594" data-name="Grupo 54594" transform="translate(21.618)">
                    <path id="Trazado_102035" data-name="Trazado 102035" d="M224.651,372.293a.85.85,0,0,0,.49-.044l.358-.207c.1-.057.041-.13-.131-.163a.848.848,0,0,0-.49.044l-.359.207C224.421,372.188,224.48,372.26,224.651,372.293Z" transform="translate(-224.472 -371.864)" fill="#02cddb"/>
                  </g>
                  <g id="Grupo_54595" data-name="Grupo 54595" transform="translate(1.091 0.63)">
                    <path id="Trazado_102036" data-name="Trazado 102036" d="M198.274,384.157l.734-.424a.849.849,0,0,1,.49-.044c.171.034.23.106.131.163l-.734.423a.846.846,0,0,1-.489.044C198.234,384.287,198.175,384.214,198.274,384.157Zm1.466-.847.734-.423a.846.846,0,0,1,.489-.044c.172.033.231.106.131.163l-.734.423a.846.846,0,0,1-.489.044C199.7,383.441,199.642,383.367,199.74,383.31Zm1.466-.846.733-.423a.85.85,0,0,1,.49-.044c.171.033.23.106.131.163l-.733.423a.84.84,0,0,1-.489.043C201.166,382.594,201.107,382.521,201.206,382.464Zm1.466-.847.733-.423a.84.84,0,0,1,.489-.043c.172.033.231.106.131.163l-.733.423a.848.848,0,0,1-.49.044C202.632,381.748,202.574,381.674,202.673,381.617Zm1.466-.846.733-.423a.846.846,0,0,1,.489-.044c.171.033.23.106.131.163l-.733.423a.843.843,0,0,1-.49.043C204.1,380.9,204.04,380.828,204.139,380.771Zm1.466-.846.734-.424a.84.84,0,0,1,.489-.043c.171.033.23.106.131.163l-.734.424a.84.84,0,0,1-.489.043C205.564,380.054,205.506,379.982,205.6,379.925Zm1.466-.847.733-.423a.84.84,0,0,1,.489-.043c.172.033.231.106.131.163l-.733.423a.849.849,0,0,1-.49.044C207.031,379.208,206.972,379.135,207.071,379.078Zm1.466-.846.733-.423a.846.846,0,0,1,.489-.044c.171.033.23.106.131.163l-.733.423a.849.849,0,0,1-.49.044C208.5,378.361,208.438,378.288,208.538,378.231Zm1.466-.846.733-.424a.84.84,0,0,1,.489-.043c.171.033.23.106.131.163l-.733.423a.85.85,0,0,1-.49.044C209.964,377.515,209.9,377.442,210,377.385Zm1.466-.847.733-.423a.849.849,0,0,1,.49-.044c.171.033.23.106.131.163l-.734.423a.849.849,0,0,1-.49.044C211.429,376.669,211.37,376.6,211.47,376.538Zm1.466-.846.733-.423a.849.849,0,0,1,.49-.044c.171.033.23.106.131.163l-.734.424a.85.85,0,0,1-.49.044C212.9,375.822,212.837,375.749,212.936,375.692Zm1.466-.846.734-.423a.833.833,0,0,1,.489-.044c.171.033.23.106.131.163l-.733.423a.85.85,0,0,1-.49.044C214.362,374.975,214.3,374.9,214.4,374.846Zm1.466-.847.733-.423a.85.85,0,0,1,.49-.044c.171.033.23.106.131.163l-.733.423a.849.849,0,0,1-.49.044C215.828,374.128,215.77,374.056,215.868,374Zm1.466-.846.733-.423a.85.85,0,0,1,.49-.044c.171.033.23.106.131.163l-.733.423a.846.846,0,0,1-.489.044C217.295,373.282,217.236,373.21,217.335,373.152Z" transform="translate(-198.226 -372.67)" fill="#02cddb"/>
                  </g>
                  <g id="Grupo_54596" data-name="Grupo 54596" transform="translate(0 12.481)">
                    <path id="Trazado_102037" data-name="Trazado 102037" d="M197.01,388.252a.846.846,0,0,0,.489-.044l.358-.207c.1-.057.041-.13-.131-.163a.85.85,0,0,0-.49.044l-.358.206C196.78,388.146,196.839,388.219,197.01,388.252Z" transform="translate(-196.831 -387.823)" fill="#02cddb"/>
                  </g>
                </g>
                <g id="Grupo_54600" data-name="Grupo 54600" transform="translate(61.185 38.978)">
                  <g id="Grupo_54598" data-name="Grupo 54598" transform="translate(1.091)">
                    <path id="Trazado_102038" data-name="Trazado 102038" d="M226.011,400.519l.734-.423a.849.849,0,0,1,.49-.044c.171.033.23.106.131.163l-.734.423a.846.846,0,0,1-.489.044C225.971,400.65,225.912,400.576,226.011,400.519Zm1.466-.846.734-.424a.842.842,0,0,1,.49-.043c.171.033.23.106.131.163l-.734.424a.84.84,0,0,1-.489.043C227.437,399.8,227.379,399.73,227.477,399.673Zm1.466-.847.733-.423a.844.844,0,0,1,.49-.043c.171.033.23.106.131.163l-.733.423a.846.846,0,0,1-.489.044C228.9,398.956,228.845,398.883,228.943,398.826Zm1.466-.846.733-.423a.848.848,0,0,1,.49-.044c.171.033.23.106.131.163l-.733.423a.846.846,0,0,1-.489.044C230.369,398.109,230.311,398.037,230.41,397.98Zm1.466-.846.733-.424a.84.84,0,0,1,.489-.043c.172.033.231.106.131.163l-.733.423a.848.848,0,0,1-.49.044C231.836,397.263,231.777,397.19,231.876,397.133Zm1.466-.847.734-.423a.845.845,0,0,1,.489-.044c.171.033.23.106.131.163l-.734.423a.846.846,0,0,1-.489.044C233.3,396.417,233.243,396.344,233.342,396.286Zm1.466-.846.733-.423a.846.846,0,0,1,.489-.044c.172.033.231.106.131.163l-.733.423a.848.848,0,0,1-.49.044C234.768,395.57,234.709,395.5,234.808,395.44Zm1.466-.846.733-.423a.833.833,0,0,1,.489-.044c.171.033.23.106.131.163l-.733.423a.85.85,0,0,1-.49.044C236.234,394.724,236.175,394.651,236.275,394.594Zm1.466-.847.733-.423a.846.846,0,0,1,.489-.044c.171.033.23.106.131.163l-.733.423a.849.849,0,0,1-.49.044C237.7,393.877,237.642,393.8,237.741,393.747Zm1.466-.846.734-.423a.846.846,0,0,1,.489-.044c.171.033.23.106.131.163l-.734.424a.85.85,0,0,1-.49.044C239.166,393.031,239.107,392.958,239.207,392.9Zm1.466-.846.733-.424a.85.85,0,0,1,.49-.044c.171.033.23.106.131.164l-.734.423a.85.85,0,0,1-.49.044C240.633,392.184,240.574,392.112,240.673,392.054Zm1.466-.847.733-.423a.846.846,0,0,1,.489-.044c.171.033.23.106.131.163l-.733.423a.849.849,0,0,1-.49.044C242.1,391.337,242.04,391.265,242.14,391.207Z" transform="translate(-225.963 -390.725)" fill="#02cddb"/>
                  </g>
                  <g id="Grupo_54599" data-name="Grupo 54599" transform="translate(0 10.158)">
                    <path id="Trazado_102039" data-name="Trazado 102039" d="M224.747,404.142a.846.846,0,0,0,.489-.044l.358-.206c.1-.057.041-.13-.131-.163a.843.843,0,0,0-.49.043l-.358.207C224.517,404.037,224.576,404.11,224.747,404.142Z" transform="translate(-224.568 -403.713)" fill="#02cddb"/>
                  </g>
                </g>
                <g id="Grupo_54604" data-name="Grupo 54604" transform="translate(18.456 16.16)">
                  <g id="Grupo_54601" data-name="Grupo 54601" transform="translate(14.184)">
                    <path id="Trazado_102040" data-name="Trazado 102040" d="M188.249,361.978a.846.846,0,0,0,.489-.044l.359-.207c.1-.057.041-.13-.131-.163a.848.848,0,0,0-.49.044l-.359.207C188.019,361.873,188.078,361.945,188.249,361.978Z" transform="translate(-188.07 -361.549)" fill="#02cddb"/>
                  </g>
                  <g id="Grupo_54602" data-name="Grupo 54602" transform="translate(1.086 0.627)">
                    <path id="Trazado_102041" data-name="Trazado 102041" d="M171.371,369.552l.727-.42a.847.847,0,0,1,.489-.044c.172.033.231.106.131.163l-.727.42a.846.846,0,0,1-.489.044C171.33,369.682,171.271,369.609,171.371,369.552Zm1.455-.841.727-.42a.849.849,0,0,1,.49-.044c.171.033.23.106.131.163l-.728.42a.85.85,0,0,1-.49.044C172.785,368.842,172.727,368.769,172.826,368.712Zm1.455-.84.728-.42a.849.849,0,0,1,.49-.044c.171.033.23.106.131.163l-.727.421a.85.85,0,0,1-.49.044C174.241,368,174.182,367.929,174.281,367.872Zm1.455-.84.728-.421a.84.84,0,0,1,.489-.043c.172.033.231.105.131.163l-.728.42a.845.845,0,0,1-.489.044C175.7,367.162,175.638,367.089,175.736,367.032Zm1.456-.841.727-.42a.847.847,0,0,1,.489-.044c.171.033.23.106.131.163l-.727.42a.849.849,0,0,1-.49.044C177.152,366.321,177.093,366.248,177.192,366.191Zm1.455-.84.727-.42a.85.85,0,0,1,.49-.044c.171.033.23.106.131.163l-.727.419a.849.849,0,0,1-.49.044C178.607,365.481,178.549,365.408,178.647,365.351Zm1.455-.841.728-.42a.846.846,0,0,1,.489-.044c.171.033.23.106.131.163l-.728.42a.846.846,0,0,1-.489.044C180.063,364.641,180,364.568,180.1,364.51Zm1.455-.84.728-.42a.846.846,0,0,1,.489-.044c.171.033.23.106.131.163l-.728.421a.849.849,0,0,1-.49.044C181.517,363.8,181.459,363.727,181.558,363.67Zm1.455-.84.727-.42a.849.849,0,0,1,.49-.044c.171.033.23.106.131.163l-.727.421a.844.844,0,0,1-.49.043C182.973,362.96,182.914,362.887,183.013,362.83Z" transform="translate(-171.322 -362.351)" fill="#02cddb"/>
                  </g>
                  <g id="Grupo_54603" data-name="Grupo 54603" transform="translate(0 8.189)">
                    <path id="Trazado_102042" data-name="Trazado 102042" d="M170.112,372.449a.843.843,0,0,0,.49-.043l.358-.207c.1-.057.041-.131-.131-.163a.85.85,0,0,0-.49.044l-.358.207C169.882,372.344,169.941,372.416,170.112,372.449Z" transform="translate(-169.933 -372.02)" fill="#02cddb"/>
                  </g>
                </g>
                <path id="Trazado_102043" data-name="Trazado 102043" d="M228.563,366.042l3.363-1.941,4.429,2.567-3.361,1.941-1.842-1.067-2.118.73.946-1.409h0Z" transform="translate(-164.254 -345.945)" fill="#02cddb"/>
                <path id="Trazado_102044" data-name="Trazado 102044" d="M251.089,385.8l3.363-1.941,4.429,2.567-3.361,1.941-1.842-1.067-2.118.73.946-1.409h0Z" transform="translate(-169.162 -350.25)" fill="#02cddb"/>
                <path id="Trazado_102045" data-name="Trazado 102045" d="M190.8,356.834l3.363-1.941,4.429,2.567-3.361,1.941-1.842-1.067-2.118.73.946-1.409h0Z" transform="translate(-156.026 -343.938)" fill="#02cddb"/>
              </g>
            </g>
            <g id="Grupo_54627" data-name="Grupo 54627" transform="translate(16.27 199.504)">
              <g id="Grupo_54626" data-name="Grupo 54626">
                <g id="Grupo_54612" data-name="Grupo 54612" transform="translate(56.836 32.832)">
                  <g id="Grupo_54609" data-name="Grupo 54609">
                    <path id="Trazado_102046" data-name="Trazado 102046" d="M209.012,419.05l2.907-.856a4.328,4.328,0,0,1,1,3.672l-3.213-.294A3.115,3.115,0,0,0,209.012,419.05Z" transform="translate(-189.666 -414.307)" fill="#02cddb"/>
                    <path id="Trazado_102047" data-name="Trazado 102047" d="M210.574,416.929l-2.9.854a6.34,6.34,0,0,0-1.349-1.027,9.483,9.483,0,0,0-1.779-.779l1.48-1.677a13.25,13.25,0,0,1,2.6,1.129A8.752,8.752,0,0,1,210.574,416.929Z" transform="translate(-188.692 -413.459)" fill="#02cddb"/>
                    <path id="Trazado_102048" data-name="Trazado 102048" d="M197.886,415.129l-.509-1.855a19.572,19.572,0,0,1,6.36.577l-1.481,1.678A14.128,14.128,0,0,0,197.886,415.129Z" transform="translate(-187.131 -413.224)" fill="#02cddb"/>
                    <path id="Trazado_102049" data-name="Trazado 102049" d="M209.175,423.1l3.223.295a6.6,6.6,0,0,1-2.93,3.31l-2.3-1.328A4.744,4.744,0,0,0,209.175,423.1Z" transform="translate(-189.265 -415.377)" fill="#02cddb"/>
                    <path id="Trazado_102050" data-name="Trazado 102050" d="M205.333,426.439l2.306,1.331a15.928,15.928,0,0,1-5.737,1.687l-.51-1.857A11.5,11.5,0,0,0,205.333,426.439Z" transform="translate(-188.006 -416.104)" fill="#02cddb"/>
                    <path id="Trazado_102051" data-name="Trazado 102051" d="M198.736,427.905l.509,1.855a19.576,19.576,0,0,1-6.36-.577l1.481-1.678A14.133,14.133,0,0,0,198.736,427.905Z" transform="translate(-186.152 -416.336)" fill="#02cddb"/>
                    <path id="Trazado_102052" data-name="Trazado 102052" d="M190.393,425.951a9.557,9.557,0,0,0,1.779.779l-1.48,1.677a13.325,13.325,0,0,1-2.6-1.129,8.75,8.75,0,0,1-1.954-1.5l2.9-.854A6.364,6.364,0,0,0,190.393,425.951Z" transform="translate(-184.682 -415.774)" fill="#02cddb"/>
                    <path id="Trazado_102053" data-name="Trazado 102053" d="M188.269,423.6l-2.907.856a4.328,4.328,0,0,1-1-3.672l3.214.293A3.114,3.114,0,0,0,188.269,423.6Z" transform="translate(-184.276 -414.872)" fill="#02cddb"/>
                    <g id="Grupo_54608" data-name="Grupo 54608" transform="translate(3.707 0.121)">
                      <g id="Grupo_54607" data-name="Grupo 54607">
                        <path id="Trazado_102054" data-name="Trazado 102054" d="M191.322,416.4l-2.306-1.331a15.908,15.908,0,0,1,5.737-1.687l.509,1.857A11.484,11.484,0,0,0,191.322,416.4Z" transform="translate(-189.016 -413.379)" fill="#02cddb"/>
                      </g>
                    </g>
                    <path id="Trazado_102055" data-name="Trazado 102055" d="M187.761,419.566l-3.217-.294a6.5,6.5,0,0,1,2.923-3.312l2.306,1.331A4.7,4.7,0,0,0,187.761,419.566Z" transform="translate(-184.335 -413.82)" fill="#02cddb"/>
                  </g>
                  <path id="Trazado_102056" data-name="Trazado 102056" d="M210.574,416.929l-2.9.854a6.34,6.34,0,0,0-1.349-1.027,9.483,9.483,0,0,0-1.779-.779l1.48-1.677a13.25,13.25,0,0,1,2.6,1.129A8.752,8.752,0,0,1,210.574,416.929Z" transform="translate(-188.692 -413.459)" fill="#02cddb" opacity="0.3"/>
                  <path id="Trazado_102057" data-name="Trazado 102057" d="M197.886,415.129l-.509-1.855a19.572,19.572,0,0,1,6.36.577l-1.481,1.678A14.128,14.128,0,0,0,197.886,415.129Z" transform="translate(-187.131 -413.224)" fill="#02cddb" opacity="0.3"/>
                  <g id="Grupo_54611" data-name="Grupo 54611" transform="translate(3.707 0.121)" opacity="0.3">
                    <g id="Grupo_54610" data-name="Grupo 54610">
                      <path id="Trazado_102058" data-name="Trazado 102058" d="M191.322,416.4l-2.306-1.331a15.908,15.908,0,0,1,5.737-1.687l.509,1.857A11.484,11.484,0,0,0,191.322,416.4Z" transform="translate(-189.016 -413.379)" fill="#02cddb"/>
                    </g>
                  </g>
                </g>
                <g id="Grupo_54618" data-name="Grupo 54618" transform="translate(28.418 16.416)">
                  <g id="Grupo_54615" data-name="Grupo 54615">
                    <path id="Trazado_102059" data-name="Trazado 102059" d="M172.676,398.06l2.907-.856a4.328,4.328,0,0,1,1,3.672l-3.213-.294A3.115,3.115,0,0,0,172.676,398.06Z" transform="translate(-153.33 -393.317)" fill="#02cddb"/>
                    <path id="Trazado_102060" data-name="Trazado 102060" d="M174.238,395.938l-2.9.855a6.345,6.345,0,0,0-1.349-1.028,9.533,9.533,0,0,0-1.779-.778l1.48-1.677a13.252,13.252,0,0,1,2.6,1.129A8.753,8.753,0,0,1,174.238,395.938Z" transform="translate(-152.356 -392.468)" fill="#02cddb"/>
                    <path id="Trazado_102061" data-name="Trazado 102061" d="M161.55,394.139l-.509-1.855a19.551,19.551,0,0,1,6.36.577l-1.481,1.678A14.081,14.081,0,0,0,161.55,394.139Z" transform="translate(-150.795 -392.234)" fill="#02cddb"/>
                    <path id="Trazado_102062" data-name="Trazado 102062" d="M172.839,402.115l3.223.295a6.605,6.605,0,0,1-2.93,3.31l-2.3-1.328A4.745,4.745,0,0,0,172.839,402.115Z" transform="translate(-152.929 -394.387)" fill="#02cddb"/>
                    <path id="Trazado_102063" data-name="Trazado 102063" d="M169,405.449l2.306,1.331a15.93,15.93,0,0,1-5.737,1.687l-.51-1.857A11.511,11.511,0,0,0,169,405.449Z" transform="translate(-151.67 -395.114)" fill="#02cddb"/>
                    <path id="Trazado_102064" data-name="Trazado 102064" d="M162.4,406.915l.509,1.855a19.6,19.6,0,0,1-6.36-.577l1.481-1.678A14.136,14.136,0,0,0,162.4,406.915Z" transform="translate(-149.816 -395.346)" fill="#02cddb"/>
                    <path id="Trazado_102065" data-name="Trazado 102065" d="M154.057,404.961a9.553,9.553,0,0,0,1.779.779l-1.48,1.677a13.322,13.322,0,0,1-2.6-1.129,8.752,8.752,0,0,1-1.954-1.5l2.9-.854A6.36,6.36,0,0,0,154.057,404.961Z" transform="translate(-148.346 -394.783)" fill="#02cddb"/>
                    <path id="Trazado_102066" data-name="Trazado 102066" d="M151.933,402.614l-2.907.855a4.326,4.326,0,0,1-1-3.671l3.214.293A3.114,3.114,0,0,0,151.933,402.614Z" transform="translate(-147.94 -393.882)" fill="#02cddb"/>
                    <g id="Grupo_54614" data-name="Grupo 54614" transform="translate(3.707 0.121)">
                      <g id="Grupo_54613" data-name="Grupo 54613">
                        <path id="Trazado_102067" data-name="Trazado 102067" d="M154.986,395.407l-2.306-1.331a15.925,15.925,0,0,1,5.737-1.688l.509,1.857A11.467,11.467,0,0,0,154.986,395.407Z" transform="translate(-152.68 -392.388)" fill="#02cddb"/>
                      </g>
                    </g>
                    <path id="Trazado_102068" data-name="Trazado 102068" d="M151.425,398.576l-3.217-.294a6.5,6.5,0,0,1,2.923-3.312l2.306,1.331A4.7,4.7,0,0,0,151.425,398.576Z" transform="translate(-147.999 -392.83)" fill="#02cddb"/>
                  </g>
                  <path id="Trazado_102069" data-name="Trazado 102069" d="M174.238,395.938l-2.9.855a6.345,6.345,0,0,0-1.349-1.028,9.533,9.533,0,0,0-1.779-.778l1.48-1.677a13.252,13.252,0,0,1,2.6,1.129A8.753,8.753,0,0,1,174.238,395.938Z" transform="translate(-152.356 -392.468)" fill="#02cddb" opacity="0.3"/>
                  <path id="Trazado_102070" data-name="Trazado 102070" d="M161.55,394.139l-.509-1.855a19.551,19.551,0,0,1,6.36.577l-1.481,1.678A14.081,14.081,0,0,0,161.55,394.139Z" transform="translate(-150.795 -392.234)" fill="#02cddb" opacity="0.3"/>
                  <path id="Trazado_102071" data-name="Trazado 102071" d="M151.933,402.614l-2.907.855a4.326,4.326,0,0,1-1-3.671l3.214.293A3.114,3.114,0,0,0,151.933,402.614Z" transform="translate(-147.94 -393.882)" fill="#02cddb" opacity="0.3"/>
                  <g id="Grupo_54617" data-name="Grupo 54617" transform="translate(3.707 0.121)" opacity="0.3">
                    <g id="Grupo_54616" data-name="Grupo 54616">
                      <path id="Trazado_102072" data-name="Trazado 102072" d="M154.986,395.407l-2.306-1.331a15.925,15.925,0,0,1,5.737-1.688l.509,1.857A11.467,11.467,0,0,0,154.986,395.407Z" transform="translate(-152.68 -392.388)" fill="#02cddb"/>
                    </g>
                  </g>
                  <path id="Trazado_102073" data-name="Trazado 102073" d="M151.425,398.576l-3.217-.294a6.5,6.5,0,0,1,2.923-3.312l2.306,1.331A4.7,4.7,0,0,0,151.425,398.576Z" transform="translate(-147.999 -392.83)" fill="#02cddb" opacity="0.3"/>
                </g>
                <g id="Grupo_54625" data-name="Grupo 54625">
                  <g id="Grupo_54621" data-name="Grupo 54621">
                    <path id="Trazado_102074" data-name="Trazado 102074" d="M136.34,377.069l2.907-.855a4.328,4.328,0,0,1,1,3.672l-3.213-.294A3.117,3.117,0,0,0,136.34,377.069Z" transform="translate(-116.994 -372.327)" fill="#02cddb"/>
                    <path id="Trazado_102075" data-name="Trazado 102075" d="M137.9,374.948l-2.9.855a6.318,6.318,0,0,0-1.349-1.028,9.529,9.529,0,0,0-1.779-.779l1.48-1.677a13.278,13.278,0,0,1,2.6,1.129A8.756,8.756,0,0,1,137.9,374.948Z" transform="translate(-116.02 -371.478)" fill="#02cddb"/>
                    <path id="Trazado_102076" data-name="Trazado 102076" d="M125.214,373.149l-.509-1.855a19.571,19.571,0,0,1,6.36.576l-1.481,1.678A14.1,14.1,0,0,0,125.214,373.149Z" transform="translate(-114.459 -371.244)" fill="#02cddb"/>
                    <path id="Trazado_102077" data-name="Trazado 102077" d="M136.5,381.125l3.223.295a6.608,6.608,0,0,1-2.93,3.31l-2.3-1.329A4.74,4.74,0,0,0,136.5,381.125Z" transform="translate(-116.593 -373.397)" fill="#02cddb"/>
                    <path id="Trazado_102078" data-name="Trazado 102078" d="M132.661,384.458l2.306,1.331a15.929,15.929,0,0,1-5.737,1.688l-.51-1.857A11.476,11.476,0,0,0,132.661,384.458Z" transform="translate(-115.334 -374.123)" fill="#02cddb"/>
                    <path id="Trazado_102079" data-name="Trazado 102079" d="M126.064,385.925l.509,1.855a19.576,19.576,0,0,1-6.36-.576l1.481-1.678A14.109,14.109,0,0,0,126.064,385.925Z" transform="translate(-113.48 -374.356)" fill="#02cddb"/>
                    <path id="Trazado_102080" data-name="Trazado 102080" d="M117.721,383.971a9.554,9.554,0,0,0,1.779.779l-1.48,1.677a13.321,13.321,0,0,1-2.6-1.129,8.774,8.774,0,0,1-1.954-1.5l2.9-.855A6.338,6.338,0,0,0,117.721,383.971Z" transform="translate(-112.01 -373.793)" fill="#02cddb"/>
                    <path id="Trazado_102081" data-name="Trazado 102081" d="M115.6,381.624l-2.907.855a4.328,4.328,0,0,1-1-3.672l3.214.294A3.114,3.114,0,0,0,115.6,381.624Z" transform="translate(-111.604 -372.892)" fill="#02cddb"/>
                    <g id="Grupo_54620" data-name="Grupo 54620" transform="translate(3.707 0.121)">
                      <g id="Grupo_54619" data-name="Grupo 54619">
                        <path id="Trazado_102082" data-name="Trazado 102082" d="M118.65,374.417l-2.306-1.332a15.939,15.939,0,0,1,5.737-1.687l.509,1.857A11.466,11.466,0,0,0,118.65,374.417Z" transform="translate(-116.344 -371.398)" fill="#02cddb"/>
                      </g>
                    </g>
                    <path id="Trazado_102083" data-name="Trazado 102083" d="M115.089,377.586l-3.217-.294a6.5,6.5,0,0,1,2.923-3.312l2.306,1.331A4.7,4.7,0,0,0,115.089,377.586Z" transform="translate(-111.663 -371.84)" fill="#02cddb"/>
                  </g>
                  <g id="Grupo_54624" data-name="Grupo 54624" opacity="0.3">
                    <path id="Trazado_102084" data-name="Trazado 102084" d="M137.9,374.948l-2.9.855a6.318,6.318,0,0,0-1.349-1.028,9.529,9.529,0,0,0-1.779-.779l1.48-1.677a13.278,13.278,0,0,1,2.6,1.129A8.756,8.756,0,0,1,137.9,374.948Z" transform="translate(-116.02 -371.478)" fill="#02cddb"/>
                    <path id="Trazado_102085" data-name="Trazado 102085" d="M125.214,373.149l-.509-1.855a19.571,19.571,0,0,1,6.36.576l-1.481,1.678A14.1,14.1,0,0,0,125.214,373.149Z" transform="translate(-114.459 -371.244)" fill="#02cddb"/>
                    <path id="Trazado_102086" data-name="Trazado 102086" d="M126.064,385.925l.509,1.855a19.576,19.576,0,0,1-6.36-.576l1.481-1.678A14.109,14.109,0,0,0,126.064,385.925Z" transform="translate(-113.48 -374.356)" fill="#02cddb"/>
                    <path id="Trazado_102087" data-name="Trazado 102087" d="M117.721,383.971a9.554,9.554,0,0,0,1.779.779l-1.48,1.677a13.321,13.321,0,0,1-2.6-1.129,8.774,8.774,0,0,1-1.954-1.5l2.9-.855A6.338,6.338,0,0,0,117.721,383.971Z" transform="translate(-112.01 -373.793)" fill="#02cddb"/>
                    <path id="Trazado_102088" data-name="Trazado 102088" d="M115.6,381.624l-2.907.855a4.328,4.328,0,0,1-1-3.672l3.214.294A3.114,3.114,0,0,0,115.6,381.624Z" transform="translate(-111.604 -372.892)" fill="#02cddb"/>
                    <g id="Grupo_54623" data-name="Grupo 54623" transform="translate(3.707 0.121)">
                      <g id="Grupo_54622" data-name="Grupo 54622">
                        <path id="Trazado_102089" data-name="Trazado 102089" d="M118.65,374.417l-2.306-1.332a15.939,15.939,0,0,1,5.737-1.687l.509,1.857A11.466,11.466,0,0,0,118.65,374.417Z" transform="translate(-116.344 -371.398)" fill="#02cddb"/>
                      </g>
                    </g>
                    <path id="Trazado_102090" data-name="Trazado 102090" d="M115.089,377.586l-3.217-.294a6.5,6.5,0,0,1,2.923-3.312l2.306,1.331A4.7,4.7,0,0,0,115.089,377.586Z" transform="translate(-111.663 -371.84)" fill="#02cddb"/>
                  </g>
                </g>
              </g>
            </g>
            <g id="Grupo_54674" data-name="Grupo 54674" opacity="0.3">
              <g id="Grupo_54635" data-name="Grupo 54635" transform="translate(123.739 44.023)">
                <g id="Grupo_54628" data-name="Grupo 54628">
                  <path id="Trazado_102091" data-name="Trazado 102091" d="M274.824,187.9a.391.391,0,0,0,.2-.73L249.6,172.492a.391.391,0,0,0-.391.678l25.415,14.673A.394.394,0,0,0,274.824,187.9Z" transform="translate(-249.018 -172.44)"/>
                </g>
                <g id="Grupo_54629" data-name="Grupo 54629" transform="translate(0 3.668)">
                  <path id="Trazado_102092" data-name="Trazado 102092" d="M274.824,192.586a.391.391,0,0,0,.2-.73L249.6,177.182a.391.391,0,0,0-.391.678l25.415,14.673A.386.386,0,0,0,274.824,192.586Z" transform="translate(-249.018 -177.13)"/>
                </g>
                <g id="Grupo_54630" data-name="Grupo 54630" transform="translate(0 7.336)">
                  <path id="Trazado_102093" data-name="Trazado 102093" d="M274.824,197.277a.391.391,0,0,0,.2-.73L249.6,181.873a.391.391,0,1,0-.391.677l25.415,14.673A.394.394,0,0,0,274.824,197.277Z" transform="translate(-249.018 -181.821)"/>
                </g>
                <g id="Grupo_54631" data-name="Grupo 54631" transform="translate(0 11.005)">
                  <path id="Trazado_102094" data-name="Trazado 102094" d="M274.824,201.967a.391.391,0,0,0,.2-.73L249.6,186.563a.391.391,0,1,0-.391.677l25.415,14.674A.387.387,0,0,0,274.824,201.967Z" transform="translate(-249.018 -186.511)"/>
                </g>
                <g id="Grupo_54632" data-name="Grupo 54632" transform="translate(0 14.673)">
                  <path id="Trazado_102095" data-name="Trazado 102095" d="M274.824,206.657a.391.391,0,0,0,.2-.73L249.6,191.254a.391.391,0,1,0-.391.677l25.415,14.673A.394.394,0,0,0,274.824,206.657Z" transform="translate(-249.018 -191.202)"/>
                </g>
                <g id="Grupo_54633" data-name="Grupo 54633" transform="translate(0 18.341)">
                  <path id="Trazado_102096" data-name="Trazado 102096" d="M274.824,211.348a.391.391,0,0,0,.2-.73L249.6,195.944a.391.391,0,1,0-.391.677L274.628,211.3A.387.387,0,0,0,274.824,211.348Z" transform="translate(-249.018 -195.892)"/>
                </g>
                <g id="Grupo_54634" data-name="Grupo 54634" transform="translate(0 22.01)">
                  <path id="Trazado_102097" data-name="Trazado 102097" d="M274.824,216.038a.391.391,0,0,0,.2-.73L249.6,200.635a.391.391,0,0,0-.391.677l25.415,14.673A.393.393,0,0,0,274.824,216.038Z" transform="translate(-249.018 -200.583)"/>
                </g>
              </g>
              <g id="Grupo_54647" data-name="Grupo 54647" transform="translate(123.739)">
                <g id="Grupo_54636" data-name="Grupo 54636">
                  <path id="Trazado_102098" data-name="Trazado 102098" d="M274.824,131.607a.391.391,0,0,0,.2-.73L249.6,116.2a.391.391,0,1,0-.391.677l25.415,14.674A.394.394,0,0,0,274.824,131.607Z" transform="translate(-249.018 -116.152)"/>
                </g>
                <g id="Grupo_54637" data-name="Grupo 54637" transform="translate(0 3.669)">
                  <path id="Trazado_102099" data-name="Trazado 102099" d="M274.824,136.3a.391.391,0,0,0,.2-.73L249.6,120.9a.391.391,0,1,0-.391.677l25.415,14.673A.394.394,0,0,0,274.824,136.3Z" transform="translate(-249.018 -120.843)"/>
                </g>
                <g id="Grupo_54638" data-name="Grupo 54638" transform="translate(0 7.337)">
                  <path id="Trazado_102100" data-name="Trazado 102100" d="M274.824,140.989a.391.391,0,0,0,.2-.73L249.6,125.585a.391.391,0,1,0-.391.677l25.415,14.674A.386.386,0,0,0,274.824,140.989Z" transform="translate(-249.018 -125.533)"/>
                </g>
                <g id="Grupo_54639" data-name="Grupo 54639" transform="translate(0 11.005)">
                  <path id="Trazado_102101" data-name="Trazado 102101" d="M274.824,145.679a.391.391,0,0,0,.2-.73L249.6,130.276a.391.391,0,1,0-.391.677l25.415,14.674A.387.387,0,0,0,274.824,145.679Z" transform="translate(-249.018 -130.223)"/>
                </g>
                <g id="Grupo_54640" data-name="Grupo 54640" transform="translate(0 14.674)">
                  <path id="Trazado_102102" data-name="Trazado 102102" d="M274.824,150.37a.391.391,0,0,0,.2-.73L249.6,134.967a.391.391,0,1,0-.391.677l25.415,14.673A.387.387,0,0,0,274.824,150.37Z" transform="translate(-249.018 -134.914)"/>
                </g>
                <g id="Grupo_54641" data-name="Grupo 54641" transform="translate(0 18.343)">
                  <path id="Trazado_102103" data-name="Trazado 102103" d="M274.824,155.061a.391.391,0,0,0,.2-.73L249.6,139.658a.391.391,0,0,0-.391.677l25.415,14.673A.394.394,0,0,0,274.824,155.061Z" transform="translate(-249.018 -139.605)"/>
                </g>
                <g id="Grupo_54642" data-name="Grupo 54642" transform="translate(0 22.011)">
                  <path id="Trazado_102104" data-name="Trazado 102104" d="M274.824,159.752a.391.391,0,0,0,.2-.73L249.6,144.348a.391.391,0,0,0-.391.678L274.628,159.7A.386.386,0,0,0,274.824,159.752Z" transform="translate(-249.018 -144.296)"/>
                </g>
                <g id="Grupo_54643" data-name="Grupo 54643" transform="translate(0 25.68)">
                  <path id="Trazado_102105" data-name="Trazado 102105" d="M274.824,164.443a.391.391,0,0,0,.2-.73L249.6,149.039a.391.391,0,0,0-.391.678l25.415,14.673A.386.386,0,0,0,274.824,164.443Z" transform="translate(-249.018 -148.987)"/>
                </g>
                <g id="Grupo_54644" data-name="Grupo 54644" transform="translate(0 29.349)">
                  <path id="Trazado_102106" data-name="Trazado 102106" d="M274.824,169.134a.391.391,0,0,0,.2-.73L249.6,153.73a.391.391,0,1,0-.391.677l25.415,14.674A.394.394,0,0,0,274.824,169.134Z" transform="translate(-249.018 -153.678)"/>
                </g>
                <g id="Grupo_54645" data-name="Grupo 54645" transform="translate(0 33.017)">
                  <path id="Trazado_102107" data-name="Trazado 102107" d="M274.824,173.825a.391.391,0,0,0,.2-.73L249.6,158.421a.391.391,0,0,0-.391.677l25.415,14.673A.394.394,0,0,0,274.824,173.825Z" transform="translate(-249.018 -158.369)"/>
                </g>
                <g id="Grupo_54646" data-name="Grupo 54646" transform="translate(12.707 44.02)">
                  <path id="Trazado_102108" data-name="Trazado 102108" d="M278.364,180.559a.391.391,0,0,0,.2-.73l-12.707-7.339a.391.391,0,0,0-.391.677l12.707,7.34A.4.4,0,0,0,278.364,180.559Z" transform="translate(-265.266 -172.437)"/>
                </g>
              </g>
              <g id="Grupo_54648" data-name="Grupo 54648" transform="translate(124.053 87.607)">
                <path id="Trazado_102109" data-name="Trazado 102109" d="M333.005,276.983a.391.391,0,0,0,.2-.729l-83.2-48.033a.391.391,0,0,0-.391.677l83.2,48.032A.386.386,0,0,0,333.005,276.983Z" transform="translate(-249.419 -228.168)"/>
              </g>
              <g id="Grupo_54649" data-name="Grupo 54649" transform="translate(122.872 92.225)">
                <path id="Trazado_102110" data-name="Trazado 102110" d="M331.5,282.889a.391.391,0,0,0,.2-.73l-83.2-48.033a.391.391,0,1,0-.391.677l83.2,48.032A.387.387,0,0,0,331.5,282.889Z" transform="translate(-247.909 -234.074)"/>
              </g>
              <g id="Grupo_54650" data-name="Grupo 54650" transform="translate(121.494 96.753)">
                <path id="Trazado_102111" data-name="Trazado 102111" d="M329.734,288.678a.391.391,0,0,0,.2-.73l-83.2-48.033a.391.391,0,0,0-.391.677l83.2,48.032A.388.388,0,0,0,329.734,288.678Z" transform="translate(-246.147 -239.863)"/>
              </g>
              <g id="Grupo_54651" data-name="Grupo 54651" transform="translate(120.032 101.264)">
                <path id="Trazado_102112" data-name="Trazado 102112" d="M327.865,294.446a.391.391,0,0,0,.2-.729l-83.2-48.033a.391.391,0,1,0-.391.677l83.2,48.033A.387.387,0,0,0,327.865,294.446Z" transform="translate(-244.278 -245.631)"/>
              </g>
              <g id="Grupo_54652" data-name="Grupo 54652" transform="translate(118.337 105.666)">
                <path id="Trazado_102113" data-name="Trazado 102113" d="M325.7,300.074a.391.391,0,0,0,.2-.73l-83.2-48.033a.391.391,0,0,0-.391.677l83.2,48.033A.386.386,0,0,0,325.7,300.074Z" transform="translate(-242.111 -251.259)"/>
              </g>
              <g id="Grupo_54653" data-name="Grupo 54653" transform="translate(174.2 158.056)">
                <path id="Trazado_102114" data-name="Trazado 102114" d="M313.929,358.353a.389.389,0,0,0,.293-.133c2.853-3.243,9.014-10.478,11.921-14.661a143.316,143.316,0,0,0,13.741-24.773.392.392,0,1,0-.724-.3A142.432,142.432,0,0,1,325.5,343.118c-2.882,4.149-9.019,11.355-11.861,14.586a.391.391,0,0,0,.293.649Z" transform="translate(-313.539 -318.247)"/>
              </g>
              <g id="Grupo_54654" data-name="Grupo 54654" transform="translate(111.556 120.531)">
                <path id="Trazado_102115" data-name="Trazado 102115" d="M242.867,276.265a.391.391,0,0,0,.2-.73l-9.035-5.217a.391.391,0,1,0-.391.677l9.035,5.216A.387.387,0,0,0,242.867,276.265Z" transform="translate(-233.441 -270.266)"/>
              </g>
              <g id="Grupo_54655" data-name="Grupo 54655" transform="translate(109.011 124.581)">
                <path id="Trazado_102116" data-name="Trazado 102116" d="M245.272,284.72a.391.391,0,0,0,.2-.73l-14.7-8.492a.391.391,0,1,0-.391.677l14.7,8.492A.385.385,0,0,0,245.272,284.72Z" transform="translate(-230.186 -275.445)"/>
              </g>
              <g id="Grupo_54656" data-name="Grupo 54656" transform="translate(101.157 136.441)">
                <path id="Trazado_102117" data-name="Trazado 102117" d="M229.528,296.575a.391.391,0,0,0,.2-.73l-8.993-5.184a.391.391,0,1,0-.391.678l8.993,5.184A.393.393,0,0,0,229.528,296.575Z" transform="translate(-220.144 -290.609)"/>
              </g>
              <g id="Grupo_54657" data-name="Grupo 54657" transform="translate(98.348 140.08)">
                <path id="Trazado_102118" data-name="Trazado 102118" d="M231.442,304.655a.391.391,0,0,0,.2-.727l-14.5-8.61a.391.391,0,0,0-.4.673l14.5,8.609A.386.386,0,0,0,231.442,304.655Z" transform="translate(-216.553 -295.263)"/>
              </g>
              <g id="Grupo_54658" data-name="Grupo 54658" transform="translate(87.188 152.448)">
                <path id="Trazado_102119" data-name="Trazado 102119" d="M286.356,360.172a.391.391,0,0,0,.2-.73l-83.682-48.313a.391.391,0,1,0-.391.676l83.682,48.313A.388.388,0,0,0,286.356,360.172Z" transform="translate(-202.282 -311.076)"/>
              </g>
              <g id="Grupo_54659" data-name="Grupo 54659" transform="translate(83.685 155.688)">
                <path id="Trazado_102120" data-name="Trazado 102120" d="M281.876,364.314a.391.391,0,0,0,.2-.729L198.39,315.271a.391.391,0,0,0-.391.677l83.682,48.313A.386.386,0,0,0,281.876,364.314Z" transform="translate(-197.803 -315.219)"/>
              </g>
              <g id="Grupo_54660" data-name="Grupo 54660" transform="translate(80.292 158.638)">
                <path id="Trazado_102121" data-name="Trazado 102121" d="M277.538,368.087a.391.391,0,0,0,.2-.73l-83.682-48.313a.391.391,0,0,0-.391.677l83.682,48.313A.387.387,0,0,0,277.538,368.087Z" transform="translate(-193.465 -318.991)"/>
              </g>
              <g id="Grupo_54661" data-name="Grupo 54661" transform="translate(76.318 161.873)">
                <path id="Trazado_102122" data-name="Trazado 102122" d="M272.457,372.223a.391.391,0,0,0,.2-.73L188.971,323.18a.391.391,0,0,0-.391.677l83.682,48.313A.387.387,0,0,0,272.457,372.223Z" transform="translate(-188.384 -323.128)"/>
              </g>
              <g id="Grupo_54665" data-name="Grupo 54665" transform="translate(57.181 240.368)">
                <g id="Grupo_54662" data-name="Grupo 54662" transform="translate(6.355 0)">
                  <path id="Trazado_102123" data-name="Trazado 102123" d="M188.317,433.448a.391.391,0,0,0,.2-.73l-15.885-9.171a.391.391,0,0,0-.391.677l15.885,9.171A.387.387,0,0,0,188.317,433.448Z" transform="translate(-172.041 -423.494)"/>
                </g>
                <g id="Grupo_54663" data-name="Grupo 54663" transform="translate(3.178 1.833)">
                  <path id="Trazado_102124" data-name="Trazado 102124" d="M184.254,435.792a.391.391,0,0,0,.2-.73l-15.884-9.171a.391.391,0,1,0-.391.677l15.884,9.17A.39.39,0,0,0,184.254,435.792Z" transform="translate(-167.979 -425.838)"/>
                </g>
                <g id="Grupo_54664" data-name="Grupo 54664" transform="translate(0 3.667)">
                  <path id="Trazado_102125" data-name="Trazado 102125" d="M180.191,438.136a.391.391,0,0,0,.2-.729L164.5,428.235a.391.391,0,0,0-.391.676L180,438.083A.387.387,0,0,0,180.191,438.136Z" transform="translate(-163.915 -428.183)"/>
                </g>
              </g>
              <g id="Grupo_54669" data-name="Grupo 54669" transform="translate(28.59 223.861)">
                <g id="Grupo_54666" data-name="Grupo 54666" transform="translate(6.355)">
                  <path id="Trazado_102126" data-name="Trazado 102126" d="M151.759,412.341a.391.391,0,0,0,.2-.729L136.07,402.44a.391.391,0,1,0-.391.677l15.884,9.172A.387.387,0,0,0,151.759,412.341Z" transform="translate(-135.484 -402.388)"/>
                </g>
                <g id="Grupo_54667" data-name="Grupo 54667" transform="translate(3.178 1.833)">
                  <path id="Trazado_102127" data-name="Trazado 102127" d="M147.7,414.685a.391.391,0,0,0,.2-.729l-15.885-9.171a.391.391,0,0,0-.391.677l15.885,9.171A.386.386,0,0,0,147.7,414.685Z" transform="translate(-131.421 -404.732)"/>
                </g>
                <g id="Grupo_54668" data-name="Grupo 54668" transform="translate(0 3.666)">
                  <path id="Trazado_102128" data-name="Trazado 102128" d="M143.633,417.03a.391.391,0,0,0,.2-.73l-15.884-9.171a.391.391,0,1,0-.391.677l15.884,9.172A.394.394,0,0,0,143.633,417.03Z" transform="translate(-127.358 -407.076)"/>
                </g>
              </g>
              <g id="Grupo_54673" data-name="Grupo 54673" transform="translate(0 207.354)">
                <g id="Grupo_54670" data-name="Grupo 54670" transform="translate(6.354)">
                  <path id="Trazado_102129" data-name="Trazado 102129" d="M115.2,391.235a.391.391,0,0,0,.2-.73l-15.885-9.171a.391.391,0,0,0-.391.676l15.885,9.172A.394.394,0,0,0,115.2,391.235Z" transform="translate(-98.926 -381.281)"/>
                </g>
                <g id="Grupo_54671" data-name="Grupo 54671" transform="translate(3.177 1.833)">
                  <path id="Trazado_102130" data-name="Trazado 102130" d="M111.139,393.579a.391.391,0,0,0,.2-.73L95.45,383.678a.391.391,0,1,0-.391.677l15.884,9.171A.388.388,0,0,0,111.139,393.579Z" transform="translate(-94.863 -383.625)"/>
                </g>
                <g id="Grupo_54672" data-name="Grupo 54672" transform="translate(0 3.667)">
                  <path id="Trazado_102131" data-name="Trazado 102131" d="M107.076,395.923a.391.391,0,0,0,.2-.729l-15.884-9.172A.391.391,0,0,0,91,386.7l15.884,9.172A.386.386,0,0,0,107.076,395.923Z" transform="translate(-90.801 -385.97)"/>
                </g>
              </g>
            </g>
          </g>
        </g>
      </g>
      <g id="Character_1" data-name="Character 1" transform="translate(157.1 109.799)">
        <g id="Character" transform="translate(0 0)">
          <g id="Glass">
            <g id="Magnifying_glass" data-name="Magnifying glass">
              <g id="Grupo_54676" data-name="Grupo 54676" transform="translate(76.075 122.664)">
                <path id="Trazado_102132" data-name="Trazado 102132" d="M304.37,305.112h0a3.591,3.591,0,0,0-3.1-1.886,11.3,11.3,0,0,0-9.407,4.007,3.59,3.59,0,0,0-.791,3.545h0L317.908,381.1l.007,0c.52,1.48,2.037,2.557,4.41,2.845a15.794,15.794,0,0,0,13.148-5.6c1.437-1.911,1.711-3.751,1-5.152l.016-.007Z" transform="translate(-284.873 -284.631)" fill="#455a64"/>
                <path id="Trazado_102133" data-name="Trazado 102133" d="M291.857,307.233c-1.958,2.607-.923,5.038,2.314,5.432a11.3,11.3,0,0,0,9.407-4.008c1.959-2.606.924-5.037-2.313-5.431A11.3,11.3,0,0,0,291.857,307.233Z" transform="translate(-284.873 -284.631)" fill="#37474f"/>
                <path id="Trazado_102134" data-name="Trazado 102134" d="M289.49,279.5a6.834,6.834,0,0,0-5.688,2.423,2.174,2.174,0,0,0-.479,2.144h0l8.7,20.428h0a2.173,2.173,0,0,0,1.878,1.14,6.834,6.834,0,0,0,5.688-2.423,2.175,2.175,0,0,0,.479-2.144l-8.7-20.427h0A2.173,2.173,0,0,0,289.49,279.5Z" transform="translate(-283.203 -279.465)" fill="#27debf"/>
                <path id="Trazado_102135" data-name="Trazado 102135" d="M289.49,279.5a6.834,6.834,0,0,0-5.688,2.423,2.174,2.174,0,0,0-.479,2.144h0l8.7,20.428h0a2.173,2.173,0,0,0,1.878,1.14,6.834,6.834,0,0,0,5.688-2.423,2.175,2.175,0,0,0,.479-2.144l-8.7-20.427h0A2.173,2.173,0,0,0,289.49,279.5Z" transform="translate(-283.203 -279.465)" fill="#732be5" opacity="0.2"/>
                <path id="Trazado_102136" data-name="Trazado 102136" d="M295.379,290.507l-.606.355c0,.014,0,.014-.014.014l-.091.056v-.014c-.043.021-.085.042-.12.063s-.085.049-.128.07c-.387.225-.774.43-1.183.62-.493.246-1,.465-1.507.662a13.193,13.193,0,0,1-1.374.508,5.746,5.746,0,0,1-.733.218,5.153,5.153,0,0,1-.8.232c-.275.084-.536.148-.81.2a4.51,4.51,0,0,1-.6.127l-.2.04-3.9-9.146h0a2.174,2.174,0,0,1,.479-2.144,5.119,5.119,0,0,1,.821-.832,29.605,29.605,0,0,0,7.484,1.284Z" transform="translate(-283.203 -279.918)" opacity="0.2"/>
                <path id="Trazado_102137" data-name="Trazado 102137" d="M297.4,314.562l28.322,71.4a12.418,12.418,0,0,1-3.34.1c-2.37-.289-3.891-1.362-4.408-2.85l-.01,0-26.84-70.313a3.59,3.59,0,0,0,3.106,1.882A9.435,9.435,0,0,0,297.4,314.562Z" transform="translate(-284.929 -286.752)" opacity="0.15"/>
              </g>
              <g id="Grupo_54677" data-name="Grupo 54677">
                <path id="Trazado_102138" data-name="Trazado 102138" d="M185.932,163.049c0,31.84,22.365,70.582,49.957,86.51,9.256,5.339,17.906,7.438,25.345,6.657.429-.043.866-.106,1.3-.177a.725.725,0,0,0,.246-.042c.366-.042.74-.12,1.085-.19a4.545,4.545,0,0,0,.6-.127c.274-.056.535-.12.81-.2a5.159,5.159,0,0,0,.8-.232,5.886,5.886,0,0,0,.733-.219,13.353,13.353,0,0,0,1.373-.507c.508-.2,1.014-.416,1.508-.662.408-.19.8-.394,1.183-.619.042-.021.084-.05.127-.07s.077-.043.12-.064v.014l.091-.056c.014,0,.014,0,.014-.014l8.1-4.74v-.014l.084-.042c8.981-5.234,14.54-16.406,14.54-32.291,0-31.854-22.365-70.582-49.936-86.51-8.03-4.628-15.61-6.825-22.323-6.825a25.715,25.715,0,0,0-12.877,3.254l-.113.07h-.028l-8.087,4.755h-.021l-.07.056-.345.218a14.093,14.093,0,0,0-1.289.838c-.275.19-.536.373-.8.577s-.522.395-.768.606a16.693,16.693,0,0,0-1.5,1.345c-.176.176-.352.338-.507.508-.134.134-.26.26-.394.408-.142.169-.3.345-.458.522a25.438,25.438,0,0,0-2.493,3.311c-.1.162-.211.317-.318.493-.155.261-.317.522-.458.782a1.331,1.331,0,0,0-.12.2c-.176.289-.331.6-.479.9a5.36,5.36,0,0,0-.373.754c-.19.345-.345.691-.507,1.05-.233.479-.437.986-.634,1.493-.176.437-.338.881-.507,1.346a1.245,1.245,0,0,1-.071.218c-.162.465-.31.937-.465,1.416-.3,1-.564,2.043-.81,3.113-.084.388-.176.775-.246,1.183s-.162.852-.232,1.276c-.162.923-.3,1.895-.4,2.874-.049.38-.092.753-.12,1.134-.056.563-.1,1.127-.127,1.7-.049.578-.077,1.155-.092,1.747C185.946,161.528,185.932,162.281,185.932,163.049Zm86.688,81.543h0a12.747,12.747,0,0,1-3.371.432c-5.486,0-11.881-2.028-18.535-5.866-26.147-15.083-48.209-53.341-48.209-83.522,0-5.419.788-15.56,6.139-21.887l.086-.034a20.023,20.023,0,0,1,3.191-.246,27.035,27.035,0,0,1,6.3.795,46.652,46.652,0,0,1,12.23,5.063c26.14,15.091,48.224,53.348,48.224,83.53a48.67,48.67,0,0,1-1.688,13.07A23.877,23.877,0,0,1,272.62,244.592Z" transform="translate(-185.932 -122.623)" fill="#37474f"/>
                <path id="Trazado_102139" data-name="Trazado 102139" d="M195.115,164c0,16.035,6.231,34.34,15.994,50.252.458.756.927,1.5,1.408,2.241.405.64.821,1.279,1.255,1.913.916,1.361,1.843,2.7,2.816,4.019.458.627.921,1.249,1.4,1.86q.766,1.011,1.56,2.006c1,1.268,2.042,2.5,3.1,3.7.692.8,1.4,1.59,2.118,2.353a81.279,81.279,0,0,0,18.57,15.172c1.25.722,2.482,1.379,3.708,1.972a37.1,37.1,0,0,0,12.714,3.8c.716.07,1.42.1,2.1.1.364,0,.71-.006,1.056-.03.018,0,.023-.005.041,0a16.35,16.35,0,0,0,1.983-.2c.322-.047.639-.1.944-.17a9.185,9.185,0,0,0,.91-.223,14.616,14.616,0,0,0,7.833-5.069,12.789,12.789,0,0,1-3.368.428c-5.486,0-11.881-2.024-18.534-5.861-26.15-15.084-48.21-53.344-48.21-83.524,0-5.421.786-15.56,6.137-21.891l.088-.029c-6.818,1.091-10.7,5.726-12.879,11.083a31.307,31.307,0,0,0-1.49,4.676c-.018.088-.041.176-.059.264-.07.288-.142.581-.194.868s-.111.564-.164.845a1.941,1.941,0,0,0-.041.217q-.088.458-.158.9c-.17,1.121-.311,2.212-.405,3.257-.023.305-.052.592-.07.88-.023.217-.035.44-.047.651-.005.088-.012.181-.012.27-.017.235-.029.463-.041.692a1.929,1.929,0,0,0-.006.193c-.017.288-.023.576-.029.851C195.12,162.994,195.115,163.511,195.115,164Z" transform="translate(-187.933 -125.715)" opacity="0.25"/>
                <path id="Trazado_102140" data-name="Trazado 102140" d="M295.863,266.382l7.5-4.41c8.984-5.252,14.539-16.42,14.539-32.275,0-14.206-4.456-29.772-11.819-44.065l-8.542,4.912c7.378,14.293,12.262,29.694,12.262,43.9C309.8,249.982,304.514,261,295.863,266.382Z" transform="translate(-209.888 -136.354)" fill="#263238"/>
                <path id="Trazado_102141" data-name="Trazado 102141" d="M204.442,130.762l.07-.059h.023l8.085-4.753h.029l.112-.07a25.717,25.717,0,0,1,12.878-3.256c6.712,0,14.293,2.194,22.325,6.823,15.284,8.831,28.965,24.665,38.118,42.455l-8.5,5c.059.117.124.235.182.352-9.182-17.589-22.8-33.519-37.919-43.047-13.688-8.624-26.678-8.741-35.748-3.227Z" transform="translate(-189.891 -122.623)" fill="#455a64"/>
              </g>
            </g>
            <g id="Grupo_54678" data-name="Grupo 54678" transform="translate(11.526 10.847)">
              <path id="Trazado_102142" data-name="Trazado 102142" d="M200.669,161.369c0,30.182,22.084,68.439,48.224,83.53a46.651,46.651,0,0,0,12.23,5.063,27,27,0,0,0,6.3.795,17.986,17.986,0,0,0,6.394-1.089c3.247-2.725,5.207-6.667,6.38-10.717a48.67,48.67,0,0,0,1.688-13.07c0-30.181-22.084-68.439-48.224-83.53a46.652,46.652,0,0,0-12.23-5.063,27.035,27.035,0,0,0-6.3-.795,17.987,17.987,0,0,0-6.4,1.089c-3.247,2.717-5.207,6.668-6.38,10.717A48.672,48.672,0,0,0,200.669,161.369Z" transform="translate(-200.669 -136.492)" fill="#fff" opacity="0.3"/>
            </g>
          </g>
        </g>
      </g>
    </g>
  </g>
</svg>
