<svg xmlns="http://www.w3.org/2000/svg" xmlns:xlink="http://www.w3.org/1999/xlink" width="376" height="302" viewBox="0 0 376 302">
  <defs>
    <clipPath id="clip-path">
      <path id="Trazado_101510" data-name="Trazado 101510" d="M1892.606,715.7l-44.242,44.242.247.246H1936.6l.246-.246Z" transform="translate(-1848.364 -715.697)" fill="#fff"/>
    </clipPath>
    <clipPath id="clip-path-2">
      <rect id="Rectángulo_5395" data-name="Rectángulo 5395" width="62.567" height="62.567" transform="translate(44.242 0) rotate(45)" fill="none"/>
    </clipPath>
  </defs>
  <g id="Grupo_54292" data-name="Grupo 54292" transform="translate(-695.38 -11249)">
    <g id="Grupo_54844" data-name="Grupo 54844" transform="translate(695 11249)">
      <rect id="Rectángulo_5506" data-name="Rectángulo 5506" width="376" height="302" transform="translate(0.38)" fill="#f5f5f5"/>
      <g id="Grupo_54291" data-name="Grupo 54291" transform="translate(7.704 14.307)">
        <g id="Grupo_54152" data-name="Grupo 54152" transform="translate(90.484 93.112)">
          <path id="Trazado_101509" data-name="Trazado 101509" d="M1892.606,715.7l-44.242,44.242.247.246H1936.6l.246-.246Z" transform="translate(-1848.364 -715.697)" fill="#fff"/>
          <g id="Grupo_54151" data-name="Grupo 54151" clip-path="url(#clip-path)">
            <g id="Grupo_54150" data-name="Grupo 54150" transform="translate(2.11 -3.551)">
              <g id="Grupo_54149" data-name="Grupo 54149" transform="translate(0 0)">
                <g id="Grupo_54133" data-name="Grupo 54133" transform="translate(0)">
                  <rect id="Rectángulo_5362" data-name="Rectángulo 5362" width="119.223" height="2.463" transform="translate(0 119.222) rotate(-89.754)"/>
                </g>
                <g id="Grupo_54134" data-name="Grupo 54134" transform="translate(5.157 0.246)">
                  <rect id="Rectángulo_5363" data-name="Rectángulo 5363" width="119.223" height="2.463" transform="translate(0 119.222) rotate(-89.754)"/>
                </g>
                <g id="Grupo_54135" data-name="Grupo 54135" transform="translate(10.313)">
                  <rect id="Rectángulo_5364" data-name="Rectángulo 5364" width="119.223" height="2.463" transform="translate(0 119.222) rotate(-89.754)"/>
                </g>
                <g id="Grupo_54136" data-name="Grupo 54136" transform="translate(15.469 0.246)">
                  <rect id="Rectángulo_5365" data-name="Rectángulo 5365" width="119.223" height="2.463" transform="translate(0 119.222) rotate(-89.754)"/>
                </g>
                <g id="Grupo_54137" data-name="Grupo 54137" transform="translate(20.626)">
                  <rect id="Rectángulo_5366" data-name="Rectángulo 5366" width="119.223" height="2.463" transform="translate(0 119.222) rotate(-89.754)"/>
                </g>
                <g id="Grupo_54138" data-name="Grupo 54138" transform="translate(25.782 0.246)">
                  <rect id="Rectángulo_5367" data-name="Rectángulo 5367" width="119.223" height="2.463" transform="translate(0 119.222) rotate(-89.754)"/>
                </g>
                <g id="Grupo_54139" data-name="Grupo 54139" transform="translate(30.939)">
                  <rect id="Rectángulo_5368" data-name="Rectángulo 5368" width="119.223" height="2.463" transform="translate(0 119.222) rotate(-89.754)"/>
                </g>
                <g id="Grupo_54140" data-name="Grupo 54140" transform="translate(36.095 0.246)">
                  <rect id="Rectángulo_5369" data-name="Rectángulo 5369" width="119.223" height="2.463" transform="translate(0 119.222) rotate(-89.754)"/>
                </g>
                <g id="Grupo_54141" data-name="Grupo 54141" transform="translate(41.252)">
                  <rect id="Rectángulo_5370" data-name="Rectángulo 5370" width="119.223" height="2.463" transform="translate(0 119.222) rotate(-89.754)"/>
                </g>
                <g id="Grupo_54142" data-name="Grupo 54142" transform="translate(46.408 0.246)">
                  <rect id="Rectángulo_5371" data-name="Rectángulo 5371" width="119.223" height="2.463" transform="translate(0 119.222) rotate(-89.754)"/>
                </g>
                <g id="Grupo_54143" data-name="Grupo 54143" transform="translate(51.564)">
                  <rect id="Rectángulo_5372" data-name="Rectángulo 5372" width="119.223" height="2.463" transform="translate(0 119.222) rotate(-89.754)"/>
                </g>
                <g id="Grupo_54144" data-name="Grupo 54144" transform="translate(56.721 0.246)">
                  <rect id="Rectángulo_5373" data-name="Rectángulo 5373" width="119.223" height="2.463" transform="translate(0 119.222) rotate(-89.754)"/>
                </g>
                <g id="Grupo_54145" data-name="Grupo 54145" transform="translate(61.877)">
                  <rect id="Rectángulo_5374" data-name="Rectángulo 5374" width="119.223" height="2.463" transform="translate(0 119.222) rotate(-89.754)"/>
                </g>
                <g id="Grupo_54146" data-name="Grupo 54146" transform="translate(67.034 0.246)">
                  <rect id="Rectángulo_5375" data-name="Rectángulo 5375" width="119.223" height="2.463" transform="translate(0 119.222) rotate(-89.754)"/>
                </g>
                <g id="Grupo_54147" data-name="Grupo 54147" transform="translate(72.19)">
                  <rect id="Rectángulo_5376" data-name="Rectángulo 5376" width="119.223" height="2.463" transform="translate(0 119.222) rotate(-89.754)"/>
                </g>
                <g id="Grupo_54148" data-name="Grupo 54148" transform="translate(77.347 0.246)">
                  <rect id="Rectángulo_5377" data-name="Rectángulo 5377" width="119.223" height="2.463" transform="translate(0 119.222) rotate(-89.754)"/>
                </g>
              </g>
            </g>
          </g>
        </g>
        <g id="Grupo_54153" data-name="Grupo 54153" transform="translate(272.192 137.6)">
          <path id="Trazado_101511" data-name="Trazado 101511" d="M2305.188,806H2217.2l44,44Z" transform="translate(-2217.198 -806)"/>
        </g>
        <g id="Grupo_54154" data-name="Grupo 54154" transform="translate(271.945 93.112)">
          <path id="Trazado_101512" data-name="Trazado 101512" d="M2305.181,759.939,2260.94,715.7,2216.7,759.939l.247.246h87.99Z" transform="translate(-2216.698 -715.697)" fill="#fff"/>
        </g>
        <g id="Grupo_54155" data-name="Grupo 54155" transform="translate(181.543 137.6)">
          <path id="Trazado_101513" data-name="Trazado 101513" d="M2077.193,850l44-44H2033.2Z" transform="translate(-2033.198 -806)" fill="#fff"/>
        </g>
        <g id="Grupo_54156" data-name="Grupo 54156" transform="translate(181.297 93.112)">
          <path id="Trazado_101514" data-name="Trazado 101514" d="M2076.939,715.7,2032.7,759.939l.246.246h87.991l.246-.246Z" transform="translate(-2032.697 -715.697)" fill="#fff"/>
        </g>
        <g id="Grupo_54157" data-name="Grupo 54157" transform="translate(90.731 137.6)">
          <path id="Trazado_101515" data-name="Trazado 101515" d="M1892.86,850l44-44h-87.991Z" transform="translate(-1848.864 -806)" fill="#fff"/>
        </g>
        <g id="Grupo_54158" data-name="Grupo 54158" transform="translate(0.246 137.6)">
          <path id="Trazado_101516" data-name="Trazado 101516" d="M1709.193,850l44-44H1665.2Z" transform="translate(-1665.198 -806)" fill="#c61f20"/>
        </g>
        <g id="Grupo_54159" data-name="Grupo 54159" transform="translate(0 93.112)">
          <path id="Trazado_101517" data-name="Trazado 101517" d="M1708.939,715.7,1664.7,759.939l.246.246h87.99l.246-.246Z" transform="translate(-1664.698 -715.697)" fill="#fff"/>
        </g>
        <g id="Grupo_54187" data-name="Grupo 54187" transform="translate(271.945 0)">
          <g id="Grupo_54160" data-name="Grupo 54160" transform="translate(0 0)">
            <rect id="Rectángulo_5378" data-name="Rectángulo 5378" width="62.567" height="62.567" transform="translate(44.242 0) rotate(45)" fill="#fff"/>
          </g>
          <g id="Grupo_54167" data-name="Grupo 54167" transform="translate(37.55 8.706)">
            <g id="Grupo_54163" data-name="Grupo 54163" transform="translate(0.917)">
              <g id="Grupo_54162" data-name="Grupo 54162">
                <g id="Grupo_54161" data-name="Grupo 54161">
                  <path id="Trazado_101518" data-name="Trazado 101518" d="M2298.4,549.939c.583.874.509,1.394-.6,3.514a1.607,1.607,0,0,0,1.51-1.551,27.263,27.263,0,0,0-.187-3.881,4.225,4.225,0,0,1,.433-2.735,7.338,7.338,0,0,1,.839-.917c-.671,2.528-.345,3.677,1.25,4.658-.1-.659-.58-1.292.042-2.013a1.973,1.973,0,0,0,1,1.735,8.328,8.328,0,0,1,3.477,5.339,5.167,5.167,0,0,1-2.014,5.4,7.346,7.346,0,0,1-1.914,1.029c.209-.244.433-.477.625-.734a2.461,2.461,0,0,0,.087-3.029,14.462,14.462,0,0,1-.754-1.606c.036.408.073.763.1,1.118a2.316,2.316,0,0,1,.036,1,3.986,3.986,0,0,1-.789.913c-.258-.245-.688-.461-.735-.742a3.25,3.25,0,0,1,.2-1.372c.24-.824.6-1.618.788-2.452.121-.523-.188-.968-.844-1.33.435.791.036,1.167-.417,1.585a3.392,3.392,0,0,0-1.39,3.113l-.221.043-.414-1.28a2.035,2.035,0,0,0,.129,2.53,1.953,1.953,0,0,1,.443,2.327,5.918,5.918,0,0,1-4.213-3.895,5.252,5.252,0,0,1,2.088-5.1A10.6,10.6,0,0,0,2298.4,549.939Z" transform="translate(-2294.78 -544.369)"/>
                </g>
              </g>
            </g>
            <g id="Grupo_54166" data-name="Grupo 54166" transform="translate(0 16.922)">
              <g id="Grupo_54164" data-name="Grupo 54164" transform="translate(0.562 0.562)">
                <line id="Línea_169" data-name="Línea 169" x2="12.217"/>
              </g>
              <g id="Grupo_54165" data-name="Grupo 54165">
                <path id="Trazado_101519" data-name="Trazado 101519" d="M2305.7,579.842h-12.217a.562.562,0,1,1,0-1.125H2305.7a.562.562,0,0,1,0,1.125Z" transform="translate(-2292.918 -578.717)"/>
              </g>
            </g>
          </g>
          <g id="Grupo_54186" data-name="Grupo 54186" transform="translate(0 0)">
            <g id="Grupo_54185" data-name="Grupo 54185" clip-path="url(#clip-path-2)">
              <g id="Grupo_54184" data-name="Grupo 54184" transform="translate(2.602 -3.551)">
                <g id="Grupo_54168" data-name="Grupo 54168" transform="translate(0 0)">
                  <rect id="Rectángulo_5379" data-name="Rectángulo 5379" width="119.223" height="2.463" transform="translate(0 119.222) rotate(-89.754)" fill="#c61f20"/>
                </g>
                <g id="Grupo_54169" data-name="Grupo 54169" transform="translate(5.157 0.246)">
                  <rect id="Rectángulo_5380" data-name="Rectángulo 5380" width="119.223" height="2.463" transform="translate(0 119.222) rotate(-89.754)" fill="#c61f20"/>
                </g>
                <g id="Grupo_54170" data-name="Grupo 54170" transform="translate(10.313 0)">
                  <rect id="Rectángulo_5381" data-name="Rectángulo 5381" width="119.223" height="2.463" transform="translate(0 119.222) rotate(-89.754)" fill="#c61f20"/>
                </g>
                <g id="Grupo_54171" data-name="Grupo 54171" transform="translate(15.47 0.246)">
                  <rect id="Rectángulo_5382" data-name="Rectángulo 5382" width="119.223" height="2.463" transform="translate(0 119.222) rotate(-89.754)" fill="#c61f20"/>
                </g>
                <g id="Grupo_54172" data-name="Grupo 54172" transform="translate(20.626 0)">
                  <rect id="Rectángulo_5383" data-name="Rectángulo 5383" width="119.223" height="2.463" transform="translate(0 119.222) rotate(-89.754)" fill="#c61f20"/>
                </g>
                <g id="Grupo_54173" data-name="Grupo 54173" transform="translate(25.782 0.246)">
                  <rect id="Rectángulo_5384" data-name="Rectángulo 5384" width="119.223" height="2.463" transform="translate(0 119.222) rotate(-89.754)" fill="#c61f20"/>
                </g>
                <g id="Grupo_54174" data-name="Grupo 54174" transform="translate(30.939 0)">
                  <rect id="Rectángulo_5385" data-name="Rectángulo 5385" width="119.223" height="2.463" transform="translate(0 119.222) rotate(-89.754)" fill="#c61f20"/>
                </g>
                <g id="Grupo_54175" data-name="Grupo 54175" transform="translate(36.095 0.246)">
                  <rect id="Rectángulo_5386" data-name="Rectángulo 5386" width="119.223" height="2.463" transform="translate(0 119.222) rotate(-89.754)" fill="#c61f20"/>
                </g>
                <g id="Grupo_54176" data-name="Grupo 54176" transform="translate(41.252 0)">
                  <rect id="Rectángulo_5387" data-name="Rectángulo 5387" width="119.223" height="2.463" transform="translate(0 119.222) rotate(-89.754)" fill="#c61f20"/>
                </g>
                <g id="Grupo_54177" data-name="Grupo 54177" transform="translate(46.408 0.246)">
                  <rect id="Rectángulo_5388" data-name="Rectángulo 5388" width="119.223" height="2.463" transform="translate(0 119.222) rotate(-89.754)" fill="#c61f20"/>
                </g>
                <g id="Grupo_54178" data-name="Grupo 54178" transform="translate(51.565 0)">
                  <rect id="Rectángulo_5389" data-name="Rectángulo 5389" width="119.223" height="2.463" transform="translate(0 119.222) rotate(-89.754)" fill="#c61f20"/>
                </g>
                <g id="Grupo_54179" data-name="Grupo 54179" transform="translate(56.721 0.246)">
                  <rect id="Rectángulo_5390" data-name="Rectángulo 5390" width="119.223" height="2.463" transform="translate(0 119.222) rotate(-89.754)" fill="#c61f20"/>
                </g>
                <g id="Grupo_54180" data-name="Grupo 54180" transform="translate(61.877 0)">
                  <rect id="Rectángulo_5391" data-name="Rectángulo 5391" width="119.223" height="2.463" transform="translate(0 119.222) rotate(-89.754)" fill="#c61f20"/>
                </g>
                <g id="Grupo_54181" data-name="Grupo 54181" transform="translate(67.034 0.246)">
                  <rect id="Rectángulo_5392" data-name="Rectángulo 5392" width="119.223" height="2.463" transform="translate(0 119.222) rotate(-89.754)" fill="#c61f20"/>
                </g>
                <g id="Grupo_54182" data-name="Grupo 54182" transform="translate(72.19 0)">
                  <rect id="Rectángulo_5393" data-name="Rectángulo 5393" width="119.223" height="2.463" transform="translate(0 119.222) rotate(-89.754)" fill="#c61f20"/>
                </g>
                <g id="Grupo_54183" data-name="Grupo 54183" transform="translate(77.347 0.246)">
                  <rect id="Rectángulo_5394" data-name="Rectángulo 5394" width="119.223" height="2.463" transform="translate(0 119.222) rotate(-89.754)" fill="#c61f20"/>
                </g>
              </g>
            </g>
          </g>
        </g>
        <g id="Grupo_54197" data-name="Grupo 54197" transform="translate(181.297 0)">
          <g id="Grupo_54188" data-name="Grupo 54188" transform="translate(0 0)">
            <rect id="Rectángulo_5396" data-name="Rectángulo 5396" width="62.567" height="62.567" transform="translate(44.242 0) rotate(45)" fill="#c61f20"/>
          </g>
          <g id="Grupo_54195" data-name="Grupo 54195" transform="translate(37.55 7.721)">
            <g id="Grupo_54191" data-name="Grupo 54191" transform="translate(0.917)">
              <g id="Grupo_54190" data-name="Grupo 54190">
                <g id="Grupo_54189" data-name="Grupo 54189">
                  <path id="Trazado_101520" data-name="Trazado 101520" d="M2114.4,547.939c.583.873.509,1.394-.6,3.514a1.606,1.606,0,0,0,1.51-1.551,27.049,27.049,0,0,0-.187-3.881,4.228,4.228,0,0,1,.433-2.735,7.341,7.341,0,0,1,.84-.917c-.673,2.528-.346,3.677,1.25,4.658-.106-.659-.58-1.292.042-2.013a1.972,1.972,0,0,0,1,1.735,8.329,8.329,0,0,1,3.477,5.339,5.168,5.168,0,0,1-2.014,5.4,7.331,7.331,0,0,1-1.914,1.029c.21-.244.434-.477.626-.734a2.462,2.462,0,0,0,.087-3.029,14.544,14.544,0,0,1-.754-1.606c.037.407.073.763.1,1.118a2.34,2.34,0,0,1,.036,1,4,4,0,0,1-.79.913c-.258-.245-.688-.461-.735-.741a3.258,3.258,0,0,1,.2-1.372c.24-.824.6-1.618.789-2.452.121-.524-.188-.968-.844-1.33.435.791.036,1.167-.417,1.585a3.394,3.394,0,0,0-1.389,3.113l-.22.043-.414-1.279a2.033,2.033,0,0,0,.129,2.53,1.956,1.956,0,0,1,.442,2.327,5.919,5.919,0,0,1-4.213-3.9,5.253,5.253,0,0,1,2.088-5.095A10.524,10.524,0,0,0,2114.4,547.939Z" transform="translate(-2110.779 -542.369)" fill="#fff"/>
                </g>
              </g>
            </g>
            <g id="Grupo_54194" data-name="Grupo 54194" transform="translate(0 16.922)">
              <g id="Grupo_54192" data-name="Grupo 54192" transform="translate(0.562 0.562)">
                <line id="Línea_170" data-name="Línea 170" x2="12.217" fill="#fff"/>
              </g>
              <g id="Grupo_54193" data-name="Grupo 54193">
                <path id="Trazado_101521" data-name="Trazado 101521" d="M2121.7,577.842H2109.48a.562.562,0,1,1,0-1.125H2121.7a.562.562,0,0,1,0,1.125Z" transform="translate(-2108.918 -576.717)" fill="#fff"/>
              </g>
            </g>
          </g>
          <g id="Grupo_54196" data-name="Grupo 54196" transform="translate(41.392 73.596)">
            <path id="Trazado_101522" data-name="Trazado 101522" d="M2121.036,681.4v1.145h-4.32a2.973,2.973,0,0,1,.421-1.23,8.142,8.142,0,0,1,1.386-1.542,8.679,8.679,0,0,0,1.021-1.052,1.358,1.358,0,0,0,.255-.754.859.859,0,0,0-.222-.635.942.942,0,0,0-1.226.011,1.2,1.2,0,0,0-.262.772l-1.228-.123a2.008,2.008,0,0,1,.689-1.461,2.313,2.313,0,0,1,1.446-.442,2.094,2.094,0,0,1,1.5.513,1.684,1.684,0,0,1,.544,1.276,2.216,2.216,0,0,1-.156.827,3.339,3.339,0,0,1-.494.822,7.738,7.738,0,0,1-.806.82q-.583.535-.74.711a2.123,2.123,0,0,0-.252.342Z" transform="translate(-2116.716 -676.085)" fill="#fff"/>
          </g>
        </g>
        <g id="Grupo_54202" data-name="Grupo 54202" transform="translate(90.649 0)">
          <g id="Grupo_54198" data-name="Grupo 54198" transform="translate(0)">
            <rect id="Rectángulo_5397" data-name="Rectángulo 5397" width="62.567" height="62.567" transform="translate(44.242) rotate(45)" fill="#dd811b"/>
          </g>
          <g id="Grupo_54199" data-name="Grupo 54199" transform="translate(43.357 73.596)">
            <path id="Trazado_101523" data-name="Trazado 101523" d="M1939.529,682.541H1938.3V677.9a4.264,4.264,0,0,1-1.592.934v-1.118a3.562,3.562,0,0,0,1.049-.6,2.266,2.266,0,0,0,.776-1.028h1Z" transform="translate(-1936.704 -676.085)"/>
          </g>
          <g id="Grupo_54200" data-name="Grupo 54200" transform="translate(29.524 25.502)">
            <path id="Trazado_101524" data-name="Trazado 101524" d="M1915.208,593.508h-2.872V582.683a9.9,9.9,0,0,1-3.711,2.177v-2.607a8.285,8.285,0,0,0,2.444-1.4,5.3,5.3,0,0,0,1.809-2.4h2.331Z" transform="translate(-1908.625 -578.461)"/>
            <path id="Trazado_101525" data-name="Trazado 101525" d="M1931.947,606.045v-2.872h2.872v2.872Z" transform="translate(-1920.458 -590.999)"/>
            <path id="Trazado_101526" data-name="Trazado 101526" d="M1947.623,593.508v-3.015h-6.133v-2.515l6.5-9.517h2.412v9.507h1.86v2.525h-1.86v3.015Zm0-5.54v-5.121l-3.444,5.121Z" transform="translate(-1925.299 -578.461)"/>
          </g>
          <g id="Grupo_54201" data-name="Grupo 54201" transform="translate(43.767 69.788)">
            <path id="Trazado_101527" data-name="Trazado 101527" d="M1940.294,671.606l-1.054-.557-1.057.553.2-1.175-.852-.834,1.181-.169.53-1.068.525,1.07,1.18.174-.856.831Z" transform="translate(-1937.536 -668.355)"/>
          </g>
        </g>
        <g id="Grupo_54233" data-name="Grupo 54233" transform="translate(0 0)">
          <g id="Grupo_54203" data-name="Grupo 54203">
            <rect id="Rectángulo_5398" data-name="Rectángulo 5398" width="62.567" height="62.567" transform="translate(44.242) rotate(45)" fill="#dd811b"/>
          </g>
          <g id="Grupo_54204" data-name="Grupo 54204" transform="translate(41.879 73.596)">
            <path id="Trazado_101528" data-name="Trazado 101528" d="M1752.529,682.541H1751.3V677.9a4.265,4.265,0,0,1-1.593.934v-1.118a3.568,3.568,0,0,0,1.049-.6,2.265,2.265,0,0,0,.776-1.028h1Z" transform="translate(-1749.704 -676.085)"/>
          </g>
          <g id="Grupo_54205" data-name="Grupo 54205" transform="translate(45.245 66.34)">
            <path id="Trazado_101529" data-name="Trazado 101529" d="M1759.295,664.606l-1.054-.557-1.057.553.2-1.175-.852-.834,1.181-.169.53-1.068.525,1.07,1.18.174-.856.831Z" transform="translate(-1756.536 -661.355)"/>
          </g>
          <g id="Grupo_54206" data-name="Grupo 54206" transform="translate(38.84 66.34)">
            <path id="Trazado_101530" data-name="Trazado 101530" d="M1746.295,664.606l-1.054-.557-1.056.553.2-1.175-.853-.834,1.181-.169.53-1.068.526,1.07,1.179.174-.856.831Z" transform="translate(-1743.535 -661.355)"/>
          </g>
          <g id="Grupo_54207" data-name="Grupo 54207" transform="translate(42.289 69.788)">
            <path id="Trazado_101531" data-name="Trazado 101531" d="M1753.3,671.606l-1.054-.557-1.057.553.2-1.175-.853-.834,1.181-.169.53-1.068.526,1.07,1.18.174-.856.831Z" transform="translate(-1750.536 -668.355)"/>
          </g>
          <g id="Grupo_54232" data-name="Grupo 54232" transform="translate(17.885 13.451)">
            <g id="Grupo_54208" data-name="Grupo 54208" transform="translate(14.34)">
              <path id="Trazado_101532" data-name="Trazado 101532" d="M1730.2,569.676c1.3-1.911,2.95-3.09,5.411-2.553.386.084.49-.261.675-.477.618-1.452.914-3.016,1.557-4.461a3.584,3.584,0,0,1,.856-1.373q1.183-3.1,2.368-6.2c.144-.376.215-.8.821-.529.588.263.344.606.194.978q-1.866,4.625-3.723,9.255c-.359.9-.62,1.841-1.027,2.717-.42.905.634,1,.8,1.731-.976-.215-1.568.715-2.476.7-.7-.014-.275.4-.322.681-.144.866-.523,1.572-1.576,1.054a3.635,3.635,0,0,0-2.631-.3C1730.29,570.89,1729.919,570.53,1730.2,569.676Z" transform="translate(-1730.108 -554)"/>
            </g>
            <g id="Grupo_54209" data-name="Grupo 54209" transform="translate(14.27 17.549)">
              <path id="Trazado_101533" data-name="Trazado 101533" d="M1730.764,590.158a1.567,1.567,0,0,0,2.063-.2c.7-.756,1.242-.051,1.645.349.734.729,1.558.576,1.935-.059.643-1.084,1.042-.548,1.584-.039.217.2.464.378.7.566.171,1.032-.528,1.442-1.291,1.806-2.656,1.586-4.829,1.3-6.658-.863a1.464,1.464,0,0,1-.773-1.1C1730.047,590.154,1730.251,589.89,1730.764,590.158Z" transform="translate(-1729.965 -589.621)"/>
            </g>
            <g id="Grupo_54210" data-name="Grupo 54210" transform="translate(22.562 8.797)">
              <path id="Trazado_101534" data-name="Trazado 101534" d="M1748.142,577.558c.039-1.437-1.04.053-1.345-.532.322-.725,1.08-1.428,1.613-1.43a3.353,3.353,0,0,0,2.078-.339l-.455,1.137,7.311-4.539c.47.952-.281,1.137-.762,1.4-2.823,1.568-5.662,3.109-8.5,4.659A.225.225,0,0,1,1748.142,577.558Z" transform="translate(-1746.797 -571.856)"/>
            </g>
            <g id="Grupo_54211" data-name="Grupo 54211" transform="translate(3.341 18.666)">
              <path id="Trazado_101535" data-name="Trazado 101535" d="M1716.143,592.838c.92-.379,2.174.237,2.822-.949l.517.983-5.878,2.9c.81-1.149,2.187-1.363,3.388-2.2a5.651,5.651,0,0,1-2.017-.092c-.214-.093-.9-.238-.524.536.133.274-.26.53-.446.417-1.919-1.16-3.64.339-5.463.361a3.834,3.834,0,0,1-.762-.278C1710.773,593.743,1713.455,593.274,1716.143,592.838Z" transform="translate(-1707.781 -591.889)"/>
            </g>
            <g id="Grupo_54212" data-name="Grupo 54212" transform="translate(20.13 4.345)">
              <path id="Trazado_101536" data-name="Trazado 101536" d="M1744.662,565.286a24.8,24.8,0,0,1-2.412,5.834,44.678,44.678,0,0,1,1.513-6.161l-1.162.927c-.184-.687-1.381-1.1-.282-2.01.793-.658,1.208-.257,1.561.491.333-.521.255-1.149.781-1.548C1745.435,563.727,1743.915,564.5,1744.662,565.286Z" transform="translate(-1741.86 -562.819)"/>
            </g>
            <g id="Grupo_54213" data-name="Grupo 54213" transform="translate(24.738 19.115)">
              <path id="Trazado_101537" data-name="Trazado 101537" d="M1752.786,592.963c1.2.144,2.416.238,3.606.459.449.083,1.364-.183,1.236.669-.133.881-.86.291-1.331.24-.5-.053-.984-.169-1.475-.258-.1,1.489-1.273.454-1.878.807.195.614,1.085.42,1.355,1.316l-2.089-1.107a.975.975,0,0,1-.913-1.366C1751.485,593.272,1751.906,592.448,1752.786,592.963Z" transform="translate(-1751.213 -592.799)"/>
            </g>
            <g id="Grupo_54214" data-name="Grupo 54214" transform="translate(32.111 13.867)">
              <path id="Trazado_101538" data-name="Trazado 101538" d="M1766.181,584.02q5.829-.869,11.657-1.733c.359-.053.9-.365,1.038.168.152.6-.472.52-.828.562-3.751.444-7.5.87-11.256,1.3C1766.513,584.374,1766.148,584.6,1766.181,584.02Z" transform="translate(-1766.179 -582.149)"/>
            </g>
            <g id="Grupo_54215" data-name="Grupo 54215" transform="translate(28.804 11.888)">
              <path id="Trazado_101539" data-name="Trazado 101539" d="M1759.475,581.08l13.2-2.95.121.547c-4.216,1.09-8.52,1.8-12.788,2.668C1759.742,581.437,1759.416,581.647,1759.475,581.08Z" transform="translate(-1759.468 -578.13)"/>
            </g>
            <g id="Grupo_54216" data-name="Grupo 54216" transform="translate(26.801 4.222)">
              <path id="Trazado_101540" data-name="Trazado 101540" d="M1755.4,568.8c1.1-1.2,3.279-3.573,5.46-5.936.2-.219.453-.464.758-.137.343.368-.061.521-.25.693C1758.993,565.574,1756.608,567.716,1755.4,568.8Z" transform="translate(-1755.402 -562.57)"/>
            </g>
            <g id="Grupo_54217" data-name="Grupo 54217" transform="translate(35.94 7.844)">
              <path id="Trazado_101541" data-name="Trazado 101541" d="M1776,569.922a2.726,2.726,0,0,1,.946,2.757c-.733-.073-1.345-1.081-2.179-.171-.2.224-.766-.132-.808-.611-.039-.435.137-.884.636-.826C1775.456,571.172,1775.689,570.57,1776,569.922Z" transform="translate(-1773.953 -569.922)"/>
            </g>
            <g id="Grupo_54218" data-name="Grupo 54218" transform="translate(28.59 16.735)">
              <path id="Trazado_101542" data-name="Trazado 101542" d="M1761.315,588.116c.446.471,1.734-.079,1.491,1.228-.495.74-1.2.43-1.855.373-.1-.019-.225-.005-.294-.062-.479-.4-1.483.513-1.617-.559-.106-.839.956-.53,1.28-1.013A1.028,1.028,0,0,1,1761.315,588.116Z" transform="translate(-1759.033 -587.97)"/>
            </g>
            <g id="Grupo_54219" data-name="Grupo 54219" transform="translate(0 18.484)">
              <path id="Trazado_101543" data-name="Trazado 101543" d="M1708.754,592.348l.559.287-8.265.929-.048-.381a35.034,35.034,0,0,1,4.808-.545c.277-.014.9.348.663-.572-.113-.45.557-.735,1.12-.4C1707.976,591.9,1708.366,592.121,1708.754,592.348Z" transform="translate(-1701 -591.519)"/>
            </g>
            <g id="Grupo_54220" data-name="Grupo 54220" transform="translate(30.508 18.109)">
              <path id="Trazado_101544" data-name="Trazado 101544" d="M1762.926,591.132c.612-.16,1.3.065,1.856-.373,1.867.566,3.785.151,5.675.294,1.277.1,2.586-.164,3.853.6a21.623,21.623,0,0,1-2.2-.011c-2.767-.285-5.542-.293-8.317-.306A3.8,3.8,0,0,1,1762.926,591.132Z" transform="translate(-1762.926 -590.759)"/>
            </g>
            <g id="Grupo_54221" data-name="Grupo 54221" transform="translate(8.75 21.317)">
              <path id="Trazado_101545" data-name="Trazado 101545" d="M1723.889,598.618c-1.832-.541-2.462,1.289-3.708,1.925-.457.233-.96,1.135-1.3.658-.474-.668.574-.836.97-1.151,1.142-.909,2.371-1.707,3.549-2.57.387-.284.628-.31.969.108.172.212.55.271.42.656C1724.645,598.672,1724.278,598.663,1723.889,598.618Z" transform="translate(-1718.761 -597.269)"/>
            </g>
            <g id="Grupo_54222" data-name="Grupo 54222" transform="translate(23.585 21.294)">
              <path id="Trazado_101546" data-name="Trazado 101546" d="M1748.873,597.4a1.692,1.692,0,0,1,1.851.241l3.06,1.975-.223.345C1752,599.112,1750.075,598.96,1748.873,597.4Z" transform="translate(-1748.873 -597.223)"/>
            </g>
            <g id="Grupo_54223" data-name="Grupo 54223" transform="translate(25.313 15.739)">
              <path id="Trazado_101547" data-name="Trazado 101547" d="M1757.94,587.09l-.994-.034c-1.469-.728-2.941.528-4.565-.137l6.8-.972.611.3c-.574.41-1.253.177-1.867.31C1757.255,586.7,1757.952,586.907,1757.94,587.09Z" transform="translate(-1752.381 -585.947)"/>
            </g>
            <g id="Grupo_54224" data-name="Grupo 54224" transform="translate(22.565 6.539)">
              <path id="Trazado_101548" data-name="Trazado 101548" d="M1746.8,571.968q1.238-2.175,2.475-4.353c.138-.242.332-.434.592-.3.3.16.144.434.011.637-.918,1.4-1.846,2.8-2.771,4.195Z" transform="translate(-1746.802 -567.272)"/>
            </g>
            <g id="Grupo_54225" data-name="Grupo 54225" transform="translate(24.473 13.201)">
              <path id="Trazado_101549" data-name="Trazado 101549" d="M1750.675,583.016a1.381,1.381,0,0,0,.052-.276l4.8-1.945.2.5A27.366,27.366,0,0,1,1750.675,583.016Z" transform="translate(-1750.675 -580.795)"/>
            </g>
            <g id="Grupo_54226" data-name="Grupo 54226" transform="translate(9.284 17.554)">
              <path id="Trazado_101550" data-name="Trazado 101550" d="M1722.231,589.913c-.223,1.027-.88,1.233-1.8.948-.293-.227-.765-.386-.524-.883a.786.786,0,0,1,.9-.328C1721.288,589.719,1721.758,589.824,1722.231,589.913Z" transform="translate(-1719.845 -589.632)"/>
            </g>
            <g id="Grupo_54227" data-name="Grupo 54227" transform="translate(5.67 22.449)">
              <path id="Trazado_101551" data-name="Trazado 101551" d="M1713.2,599.649c.361.171,1.063-.3,1.053.441-.007.547-.71.68-1.107.828-.275.1-.638-.43-.639-.863C1712.507,599.576,1712.792,599.469,1713.2,599.649Z" transform="translate(-1712.509 -599.567)"/>
            </g>
            <g id="Grupo_54228" data-name="Grupo 54228" transform="translate(10.02 16.692)">
              <path id="Trazado_101552" data-name="Trazado 101552" d="M1725.415,588.437a1.4,1.4,0,0,1,.045.247,11,11,0,0,1-4.122-.708C1722.767,587.621,1724.045,588.385,1725.415,588.437Z" transform="translate(-1721.338 -587.883)"/>
            </g>
            <g id="Grupo_54229" data-name="Grupo 54229" transform="translate(3.979 17.504)">
              <path id="Trazado_101553" data-name="Trazado 101553" d="M1709.085,589.53h4.654l-.005.2h-4.657Z" transform="translate(-1709.077 -589.53)"/>
            </g>
            <g id="Grupo_54230" data-name="Grupo 54230" transform="translate(25.139 8.258)">
              <path id="Trazado_101554" data-name="Trazado 101554" d="M1752.584,572.332c-.375-.157-.643-.377-.528-.806.1-.387.209-.852.759-.749.453.085.463.5.407.852S1753,572.3,1752.584,572.332Z" transform="translate(-1752.029 -570.763)"/>
            </g>
            <g id="Grupo_54231" data-name="Grupo 54231" transform="translate(31.448 11.887)">
              <path id="Trazado_101555" data-name="Trazado 101555" d="M1766.5,579.082c-.585.028-1.24.346-1.65-.265-.065-.1.141-.527.312-.6C1765.941,577.862,1766.08,578.685,1766.5,579.082Z" transform="translate(-1764.834 -578.129)"/>
            </g>
          </g>
        </g>
        <g id="Grupo_54234" data-name="Grupo 54234" transform="translate(271.945 183.76)">
          <rect id="Rectángulo_5399" data-name="Rectángulo 5399" width="62.567" height="62.567" transform="translate(44.242) rotate(45)" fill="#fdd536"/>
        </g>
        <g id="Grupo_54235" data-name="Grupo 54235" transform="translate(90.649 183.76)">
          <rect id="Rectángulo_5400" data-name="Rectángulo 5400" width="62.567" height="62.567" transform="translate(44.242) rotate(45)" fill="#4f88ca"/>
        </g>
        <g id="Grupo_54236" data-name="Grupo 54236" transform="translate(133.519 257.357)">
          <path id="Trazado_101556" data-name="Trazado 101556" d="M1940.036,1054.4v1.144h-4.32a2.981,2.981,0,0,1,.421-1.23,8.146,8.146,0,0,1,1.386-1.542,8.679,8.679,0,0,0,1.022-1.052,1.363,1.363,0,0,0,.254-.754.858.858,0,0,0-.222-.635.942.942,0,0,0-1.226.012,1.2,1.2,0,0,0-.263.771l-1.228-.123a2.012,2.012,0,0,1,.688-1.461,2.316,2.316,0,0,1,1.447-.443,2.093,2.093,0,0,1,1.5.513,1.683,1.683,0,0,1,.544,1.276,2.222,2.222,0,0,1-.156.827,3.386,3.386,0,0,1-.493.822,7.956,7.956,0,0,1-.808.82c-.388.357-.635.594-.739.711a2.039,2.039,0,0,0-.252.342Z" transform="translate(-1935.716 -1049.085)" fill="#fff"/>
        </g>
        <g id="Grupo_54237" data-name="Grupo 54237" transform="translate(0 183.76)">
          <rect id="Rectángulo_5401" data-name="Rectángulo 5401" width="62.567" height="62.567" transform="translate(44.242 0) rotate(45)" fill="#19a754"/>
        </g>
        <g id="Grupo_54238" data-name="Grupo 54238" transform="translate(41.392 257.357)">
          <path id="Trazado_101557" data-name="Trazado 101557" d="M1753.036,1054.4v1.144h-4.32a2.982,2.982,0,0,1,.421-1.23,8.16,8.16,0,0,1,1.386-1.542,8.721,8.721,0,0,0,1.021-1.052,1.358,1.358,0,0,0,.255-.754.861.861,0,0,0-.222-.635.942.942,0,0,0-1.226.012,1.2,1.2,0,0,0-.263.771l-1.227-.123a2.013,2.013,0,0,1,.688-1.461,2.315,2.315,0,0,1,1.447-.443,2.092,2.092,0,0,1,1.5.513,1.684,1.684,0,0,1,.544,1.276,2.224,2.224,0,0,1-.156.827,3.373,3.373,0,0,1-.494.822,7.9,7.9,0,0,1-.807.82q-.583.535-.739.711a2.045,2.045,0,0,0-.252.342Z" transform="translate(-1748.716 -1049.085)" fill="#fff"/>
        </g>
        <g id="Grupo_54245" data-name="Grupo 54245" transform="translate(36.174 111.46)">
          <g id="Grupo_54241" data-name="Grupo 54241" transform="translate(1.08 0)">
            <g id="Grupo_54240" data-name="Grupo 54240">
              <g id="Grupo_54239" data-name="Grupo 54239">
                <path id="Trazado_101558" data-name="Trazado 101558" d="M1744.581,759.5c.686,1.028.6,1.64-.7,4.135a1.891,1.891,0,0,0,1.776-1.826,31.99,31.99,0,0,0-.22-4.568,4.983,4.983,0,0,1,.509-3.22,8.662,8.662,0,0,1,.988-1.079c-.79,2.975-.406,4.327,1.472,5.483-.125-.776-.683-1.52.049-2.37a2.323,2.323,0,0,0,1.178,2.043,9.8,9.8,0,0,1,4.092,6.284,6.081,6.081,0,0,1-2.371,6.35,8.672,8.672,0,0,1-2.252,1.211c.246-.287.509-.562.736-.864a2.9,2.9,0,0,0,.1-3.565,17.1,17.1,0,0,1-.887-1.89c.044.479.086.9.119,1.316a2.728,2.728,0,0,1,.042,1.177,4.69,4.69,0,0,1-.929,1.074c-.3-.288-.81-.543-.865-.872a3.827,3.827,0,0,1,.238-1.615c.283-.971.7-1.905.929-2.886.141-.616-.222-1.14-.994-1.566.511.931.041,1.373-.491,1.866a3.994,3.994,0,0,0-1.635,3.664l-.26.051-.487-1.506a2.394,2.394,0,0,0,.153,2.978,2.3,2.3,0,0,1,.521,2.739,6.964,6.964,0,0,1-4.96-4.584,6.184,6.184,0,0,1,2.458-6A12.475,12.475,0,0,0,1744.581,759.5Z" transform="translate(-1740.315 -752.942)"/>
              </g>
            </g>
          </g>
          <g id="Grupo_54244" data-name="Grupo 54244" transform="translate(0 19.917)">
            <g id="Grupo_54242" data-name="Grupo 54242" transform="translate(0.662 0.662)">
              <line id="Línea_171" data-name="Línea 171" x2="14.38"/>
            </g>
            <g id="Grupo_54243" data-name="Grupo 54243">
              <path id="Trazado_101559" data-name="Trazado 101559" d="M1753.165,794.694h-14.38a.662.662,0,1,1,0-1.324h14.38a.662.662,0,1,1,0,1.324Z" transform="translate(-1738.123 -793.37)"/>
            </g>
          </g>
        </g>
        <g id="Grupo_54246" data-name="Grupo 54246" transform="translate(222.864 166.822)">
          <path id="Trazado_101560" data-name="Trazado 101560" d="M2117.072,870l1.228-.127a1.055,1.055,0,0,0,.312.66.846.846,0,0,0,.6.243.83.83,0,0,0,.654-.314,1.429,1.429,0,0,0,.267-.945,1.294,1.294,0,0,0-.265-.888.883.883,0,0,0-.691-.3,1.257,1.257,0,0,0-.952.469l-1-.144.63-3.347h3.259v1.153h-2.325l-.193,1.092a1.883,1.883,0,0,1,2.232.39,2.147,2.147,0,0,1,.571,1.549,2.319,2.319,0,0,1-.461,1.416,2.041,2.041,0,0,1-1.741.851,2.158,2.158,0,0,1-1.452-.478A1.966,1.966,0,0,1,2117.072,870Z" transform="translate(-2117.072 -865.316)"/>
        </g>
        <g id="Grupo_54247" data-name="Grupo 54247" transform="translate(314.463 166.708)">
          <path id="Trazado_101561" data-name="Trazado 101561" d="M2304.075,868.072a1.38,1.38,0,0,1-.912-1.328,1.555,1.555,0,0,1,.5-1.189,2.4,2.4,0,0,1,2.85,0,1.552,1.552,0,0,1,.506,1.189,1.4,1.4,0,0,1-.232.8,1.472,1.472,0,0,1-.653.533,1.721,1.721,0,0,1,.814.628,1.659,1.659,0,0,1,.279.952,1.94,1.94,0,0,1-.568,1.447,2.064,2.064,0,0,1-1.511.557,2.284,2.284,0,0,1-1.461-.461A1.8,1.8,0,0,1,2303,869.7a1.844,1.844,0,0,1,.259-.958A1.669,1.669,0,0,1,2304.075,868.072Zm.14,1.514a1.134,1.134,0,0,0,.261.794.847.847,0,0,0,.651.285.819.819,0,0,0,.632-.274,1.139,1.139,0,0,0,.249-.792,1.028,1.028,0,0,0-.253-.726.841.841,0,0,0-.645-.274.771.771,0,0,0-.673.311A1.14,1.14,0,0,0,2304.215,869.585Zm.115-2.755a.772.772,0,0,0,.208.574.855.855,0,0,0,1.116,0,.774.774,0,0,0,.211-.577.717.717,0,0,0-.76-.763.762.762,0,0,0-.565.21A.755.755,0,0,0,2304.33,866.831Z" transform="translate(-2303.001 -865.085)" fill="#fff"/>
        </g>
        <g id="Grupo_54248" data-name="Grupo 54248" transform="translate(133.58 166.708)">
          <path id="Trazado_101562" data-name="Trazado 101562" d="M1935.964,870.055l1.193-.132a.86.86,0,0,0,.229.54.674.674,0,0,0,.486.175.794.794,0,0,0,.65-.35,2.986,2.986,0,0,0,.342-1.456,1.471,1.471,0,0,1-1.162.539,1.734,1.734,0,0,1-1.309-.585,2.136,2.136,0,0,1-.55-1.524,2.166,2.166,0,0,1,.581-1.577,2.1,2.1,0,0,1,3.085.158,3.908,3.908,0,0,1,.627,2.489,3.955,3.955,0,0,1-.653,2.544,2.114,2.114,0,0,1-1.7.781,1.8,1.8,0,0,1-1.219-.4A1.935,1.935,0,0,1,1935.964,870.055Zm2.79-2.693a1.4,1.4,0,0,0-.275-.925.807.807,0,0,0-.633-.329.711.711,0,0,0-.568.269,1.375,1.375,0,0,0-.226.884,1.4,1.4,0,0,0,.246.914.786.786,0,0,0,1.213.011A1.228,1.228,0,0,0,1938.754,867.361Z" transform="translate(-1935.841 -865.085)"/>
        </g>
        <g id="Grupo_54253" data-name="Grupo 54253" transform="translate(215.922 103.911)">
          <g id="Grupo_54249" data-name="Grupo 54249">
            <path id="Trazado_101563" data-name="Trazado 101563" d="M2117.768,744.578l.47.127a5.455,5.455,0,0,1,1.363.588,5.207,5.207,0,0,1,1.038.841,5.411,5.411,0,0,1,.707.855,5.515,5.515,0,0,1,.692,1.536,4.623,4.623,0,0,1,.163,1.407c-.006.205,0,.41,0,.615a.328.328,0,0,1-.016.1,4.2,4.2,0,0,0-1.506-3.28,4,4,0,0,0-3.339-.929,4.186,4.186,0,0,0-3.435,5.242,4.072,4.072,0,0,0,1.394,2.172,4.155,4.155,0,0,0,2.4.94,4.384,4.384,0,0,0,2.519-.614c-.092.07-.184.14-.277.209a5.341,5.341,0,0,1-.984.552,4.259,4.259,0,0,1-.592.222,5.412,5.412,0,0,1-.8.176,7.035,7.035,0,0,1-.951.052,5.23,5.23,0,0,1-1.833-.381,4.855,4.855,0,0,1-1.223-.682c-.289-.224-.544-.492-.811-.743-.135-.128-.135-.13-.265.005a5.123,5.123,0,0,1-.853.761,6.659,6.659,0,0,1-.738.456,5.409,5.409,0,0,1-1.3.465,5.5,5.5,0,0,1-1.578.11,4.678,4.678,0,0,1-1.29-.268,8.011,8.011,0,0,1-.782-.331,3.852,3.852,0,0,1-.89-.587,4.188,4.188,0,0,0,3.816.276,4.2,4.2,0,0,0-.881-8.012,4.072,4.072,0,0,0-3.5.971,4.167,4.167,0,0,0-1.442,3.329c-.016-.172-.042-.343-.046-.516a6.206,6.206,0,0,1,.009-.747,4.9,4.9,0,0,1,.267-1.269,5.982,5.982,0,0,1,.308-.742,6.2,6.2,0,0,1,.572-.882,6.417,6.417,0,0,1,.767-.8,4.736,4.736,0,0,1,1.553-.92c.328-.116.667-.2,1-.294.071-.019.069-.056.057-.1-.034-.123-.081-.243-.109-.367a5.852,5.852,0,0,1-.153-.77,7.51,7.51,0,0,1-.034-1.116,4.269,4.269,0,0,1,.26-1.259,7.391,7.391,0,0,1,.379-.886,5.089,5.089,0,0,1,.515-.766,5.849,5.849,0,0,1,.656-.7,7.908,7.908,0,0,1,.8-.608,5.2,5.2,0,0,1,.543-.292.114.114,0,0,1,.071,0,4.258,4.258,0,0,0-1.98,3.231,3.985,3.985,0,0,0,.977,3.1,4.2,4.2,0,0,0,5.914.5,4.226,4.226,0,0,0-.71-6.938,5.433,5.433,0,0,1,2.235,1.626,5.284,5.284,0,0,1,1.144,2.529A5.592,5.592,0,0,1,2117.768,744.578Zm-5.1,2.136a.823.823,0,0,0-.855.852.88.88,0,0,0,.826.819.842.842,0,0,0,.863-.843A.813.813,0,0,0,2112.669,746.714Z" transform="translate(-2102.979 -737.618)"/>
          </g>
          <g id="Grupo_54250" data-name="Grupo 54250" transform="translate(11.139 9.048)">
            <path id="Trazado_101564" data-name="Trazado 101564" d="M2129.2,755.983a4.755,4.755,0,0,1,.05,1.375,4.893,4.893,0,0,1-.4,1.535,4.653,4.653,0,0,1-.633,1.066c-.186.227-.4.428-.6.646a4.427,4.427,0,0,1-1.42.966c-.035.017-.077.024-.114.039-.17.069-.177.073-.24-.094-.09-.241-.168-.486-.249-.73a.122.122,0,0,1,.08-.166,4.467,4.467,0,0,0,.938-.542,5.506,5.506,0,0,0,.579-.567,3.612,3.612,0,0,0,.76-1.293,3,3,0,0,0,.193-.846c.013-.263.028-.525.035-.788a1.019,1.019,0,0,0-.033-.236c-.018-.083-.006-.149.085-.172.212-.053.423-.106.635-.152C2128.98,756,2129.093,756,2129.2,755.983Z" transform="translate(-2125.589 -755.983)"/>
          </g>
          <g id="Grupo_54251" data-name="Grupo 54251" transform="translate(4.533 9.08)">
            <path id="Trazado_101565" data-name="Trazado 101565" d="M2113.308,756.944a3.409,3.409,0,0,0,.307,1.584,3,3,0,0,0,.535.875,7.1,7.1,0,0,0,.7.707,5.372,5.372,0,0,0,.8.476c.1.055.141.1.1.218-.094.255-.176.515-.261.773-.025.076-.07.1-.14.06-.216-.109-.435-.211-.647-.326a5.306,5.306,0,0,1-1.251-1.06,3.85,3.85,0,0,1-.743-1.13,7.129,7.129,0,0,1-.371-1,4.538,4.538,0,0,1-.143-1.466c.01-.167.03-.334.041-.5.006-.075.032-.113.115-.107a3.2,3.2,0,0,1,.871.19.14.14,0,0,1,.093.156C2113.3,756.578,2113.308,756.761,2113.308,756.944Z" transform="translate(-2112.179 -756.049)"/>
          </g>
          <g id="Grupo_54252" data-name="Grupo 54252" transform="translate(6.478 4.774)">
            <path id="Trazado_101566" data-name="Trazado 101566" d="M2122.553,748.482a2.292,2.292,0,0,1-.174.243c-.139.149-.295.282-.43.434-.083.094-.15.068-.235.016a5.54,5.54,0,0,0-.654-.383,7.937,7.937,0,0,0-.844-.281,3.594,3.594,0,0,0-1.34-.075,3.06,3.06,0,0,0-.943.217,4.815,4.815,0,0,0-.761.367c-.1.06-.189.122-.28.188a.1.1,0,0,1-.144-.012l-.593-.637c-.054-.058-.019-.1.025-.137a5.1,5.1,0,0,1,.437-.326,6,6,0,0,1,.592-.316,4.674,4.674,0,0,1,1.073-.355,4.93,4.93,0,0,1,1.251-.11,5.309,5.309,0,0,1,1.546.307,6.489,6.489,0,0,1,1.186.611,2.194,2.194,0,0,1,.23.181A.457.457,0,0,1,2122.553,748.482Z" transform="translate(-2116.129 -747.309)"/>
          </g>
        </g>
        <g id="Grupo_54254" data-name="Grupo 54254" transform="translate(181.543 228.248)">
          <path id="Trazado_101567" data-name="Trazado 101567" d="M2077.193,1034l44-44H2033.2Z" transform="translate(-2033.198 -990)" fill="#fff"/>
        </g>
        <g id="Grupo_54255" data-name="Grupo 54255" transform="translate(181.297 183.76)">
          <path id="Trazado_101568" data-name="Trazado 101568" d="M2076.939,899.7,2032.7,943.939l.246.246h87.991l.246-.246Z" transform="translate(-2032.697 -899.698)" fill="#fdd536"/>
        </g>
        <g id="Grupo_54256" data-name="Grupo 54256" transform="translate(222.847 257.47)">
          <path id="Trazado_101569" data-name="Trazado 101569" d="M2117.036,1050.461v-1.145h4.216v.894a6.653,6.653,0,0,0-1.062,1.474,8.563,8.563,0,0,0-.823,2.042,7.547,7.547,0,0,0-.278,1.932H2117.9a8.268,8.268,0,0,1,.55-2.719,9.053,9.053,0,0,1,1.389-2.478Z" transform="translate(-2117.036 -1049.316)"/>
        </g>
        <g id="Grupo_54257" data-name="Grupo 54257" transform="translate(314.323 257.357)">
          <path id="Trazado_101570" data-name="Trazado 101570" d="M2307.036,1054.4v1.144h-4.32a2.973,2.973,0,0,1,.421-1.23,8.167,8.167,0,0,1,1.386-1.542,8.691,8.691,0,0,0,1.021-1.052,1.357,1.357,0,0,0,.256-.754.86.86,0,0,0-.222-.635.828.828,0,0,0-.612-.221.819.819,0,0,0-.614.233,1.193,1.193,0,0,0-.263.771l-1.228-.123a2.018,2.018,0,0,1,.689-1.461,2.315,2.315,0,0,1,1.447-.443,2.091,2.091,0,0,1,1.5.513,1.683,1.683,0,0,1,.544,1.276,2.226,2.226,0,0,1-.155.827,3.372,3.372,0,0,1-.493.822,7.912,7.912,0,0,1-.807.82q-.583.535-.74.711a2.014,2.014,0,0,0-.251.342Z" transform="translate(-2302.716 -1049.085)"/>
        </g>
        <g id="Grupo_54269" data-name="Grupo 54269" transform="translate(300.232 109.518)">
          <g id="Grupo_54258" data-name="Grupo 54258" transform="translate(17.626 14.503)">
            <path id="Trazado_101571" data-name="Trazado 101571" d="M2323.683,788.51c-.524.187-1.051.369-1.571.564a12.681,12.681,0,0,1-2.642.622c-1.514.219-3.04.2-4.56.28-.785.039-1.57.048-2.356.068a1.745,1.745,0,0,1-.329-.018.422.422,0,0,1-.311-.646.635.635,0,0,1,.472-.328c.471-.075.944-.133,1.417-.193.651-.083,1.3-.159,1.955-.245a1.533,1.533,0,0,0,.385-.109.737.737,0,0,0,.174-.148.826.826,0,0,0-.2-.116,1.611,1.611,0,0,0-.362-.046c-.954-.008-1.907-.015-2.861-.015-.483,0-.965.019-1.448.022a1.354,1.354,0,0,1-.327-.042.5.5,0,0,1-.4-.414.561.561,0,0,1,.167-.585,1.764,1.764,0,0,1,1.115-.389c.98-.069,1.963-.115,2.942-.188.37-.028.736-.1,1.1-.162a1.245,1.245,0,0,0,.246-.1v-.074a1.865,1.865,0,0,0-.315-.077c-.569-.041-1.138-.081-1.707-.106-1.168-.049-2.337-.087-3.505-.133a2.1,2.1,0,0,1-.362-.05.612.612,0,0,1-.506-.6.623.623,0,0,1,.415-.72,4.012,4.012,0,0,1,1.3-.193,25.509,25.509,0,0,1,3.343.176c.372.036.743.058,1.114.081a.864.864,0,0,0,.175-.024l.017-.065a1.28,1.28,0,0,0-.275-.132c-.494-.1-.989-.214-1.488-.288-.823-.121-1.651-.2-2.472-.327a2.079,2.079,0,0,1-1.305-.639.489.489,0,0,1,.045-.809,1.063,1.063,0,0,1,.769-.281c.585.03,1.167.1,1.752.139a1.208,1.208,0,0,1,.992.576,2.039,2.039,0,0,0,3.059.221.743.743,0,0,1,.612-.242,5.657,5.657,0,0,0,.8-.026.605.605,0,0,0,.605-.669,3.138,3.138,0,0,0-.3-1.229c-.087-.216-.186-.427-.272-.643a1.818,1.818,0,0,1-.063-1.047.858.858,0,0,1,.535-.643.489.489,0,0,1,.676.207,2.685,2.685,0,0,1,.213.457,10.309,10.309,0,0,0,2.693,3.859c.193.184.4.36.58.553a.446.446,0,0,1,.119.267c.043,1.2.077,2.4.113,3.593,0,.08.016.159.026.239Z" transform="translate(-2309.891 -778.438)"/>
          </g>
          <g id="Grupo_54259" data-name="Grupo 54259" transform="translate(0 19.995)">
            <path id="Trazado_101572" data-name="Trazado 101572" d="M2274.114,790.152c.067-.156.125-.318.207-.467a.227.227,0,0,1,.171-.086c1.023-.005,2.047-.007,3.071,0a.416.416,0,0,1,.247.13,2.733,2.733,0,0,0,1.419.773,2.572,2.572,0,0,0,2.2-.54,1.591,1.591,0,0,1,1.153-.377c1.087.027,2.176.013,3.263.018a3.124,3.124,0,0,1,.4.029.365.365,0,0,1,.341.339,4.007,4.007,0,0,1,.03.487c0,.681.006,1.361,0,2.042-.008.591-.065.657-.65.663-1.588.018-3.176.033-4.763.031-2.117,0-4.234-.02-6.35-.032l-.209,0c-.387-.009-.452-.072-.49-.466-.007-.068-.022-.136-.034-.2Z" transform="translate(-2274.114 -789.587)"/>
          </g>
          <g id="Grupo_54260" data-name="Grupo 54260" transform="translate(8.87)">
            <path id="Trazado_101573" data-name="Trazado 101573" d="M2306.5,749a.327.327,0,0,1,.193.313c.084,1.072.187,2.143.259,3.215.039.581-.028.627-.609.672-2.168.167-4.335.344-6.5.5-1.681.125-3.363.236-5.046.348-.284.019-.57,0-.854.01a1.994,1.994,0,0,1-1.817-1.835,2.255,2.255,0,0,1,.166-1.122,2.065,2.065,0,0,1,1.644-1.142c1.57-.125,3.138-.277,4.708-.4,1.936-.155,3.872-.294,5.808-.438.441-.033.882-.06,1.323-.091.068,0,.136-.021.2-.032Zm-.3,3.03c-.078-.735-.15-1.444-.233-2.153,0-.036-.1-.091-.149-.087q-1.141.071-2.28.157-3.437.26-6.872.525c-.91.071-1.82.141-2.728.232a1.388,1.388,0,0,0-1.109,1.325Z" transform="translate(-2292.119 -749)"/>
          </g>
          <g id="Grupo_54261" data-name="Grupo 54261" transform="translate(5.576 6.19)">
            <path id="Trazado_101574" data-name="Trazado 101574" d="M2297.513,766.6q-2.862-.208-5.724-.417-2.757-.2-5.513-.417a3.71,3.71,0,0,1-.55-.083c-.241-.056-.309-.15-.291-.4q.115-1.46.238-2.92c.016-.185.051-.368.076-.552a.246.246,0,0,1,.241-.233,3.66,3.66,0,0,1,.539-.009q2.819.2,5.636.412c1.669.128,3.338.266,5.007.4.434.035.868.086,1.3.109a1.779,1.779,0,0,1,1.234.57,2.03,2.03,0,0,1,.522,2.155,2,2,0,0,1-1.623,1.395,6.372,6.372,0,0,1-1.1.011Zm2.06-1.994a1.093,1.093,0,0,0-.163-.707,1.394,1.394,0,0,0-1.142-.669q-2.8-.233-5.6-.454c-1.386-.108-2.772-.206-4.157-.306-.62-.045-1.242-.081-1.862-.128-.153-.011-.233.041-.239.2,0,.046-.015.092-.017.138q-.066.922-.131,1.844a.426.426,0,0,0,.007.084Z" transform="translate(-2285.432 -761.565)"/>
          </g>
          <g id="Grupo_54262" data-name="Grupo 54262" transform="translate(22.476 14.663)">
            <path id="Trazado_101575" data-name="Trazado 101575" d="M2320.9,778.764a.856.856,0,0,1,.062.077c.19.29.383.579.569.873a5.462,5.462,0,0,1,.437.729,1.1,1.1,0,0,1-.879,1.49,1.138,1.138,0,0,1-1.336-.955.911.911,0,0,1,.1-.656c.13-.226.28-.44.427-.657C2320.488,779.369,2320.692,779.074,2320.9,778.764Z" transform="translate(-2319.737 -778.764)"/>
          </g>
          <g id="Grupo_54263" data-name="Grupo 54263" transform="translate(4.497 12.432)">
            <path id="Trazado_101576" data-name="Trazado 101576" d="M2284.369,774.234c.2.283.381.548.565.814.147.21.3.412.437.63a1.092,1.092,0,0,1-.194,1.426,1.161,1.161,0,0,1-1.448.107,1.126,1.126,0,0,1-.385-1.4,4.8,4.8,0,0,1,.383-.622c.2-.307.4-.612.6-.918A.193.193,0,0,1,2284.369,774.234Z" transform="translate(-2283.243 -774.234)"/>
          </g>
          <g id="Grupo_54264" data-name="Grupo 54264" transform="translate(22.48 10.923)">
            <path id="Trazado_101577" data-name="Trazado 101577" d="M2320.9,771.172a.739.739,0,0,1,.067.078q.32.485.639.972a5.845,5.845,0,0,1,.341.545,1.029,1.029,0,0,1-.21,1.247,1.058,1.058,0,0,1-1.107.334,1.221,1.221,0,0,1-.868-.959.969.969,0,0,1,.146-.7c.139-.235.3-.456.449-.684C2320.537,771.73,2320.715,771.455,2320.9,771.172Z" transform="translate(-2319.745 -771.172)"/>
          </g>
          <g id="Grupo_54265" data-name="Grupo 54265" transform="translate(4.506 16.226)">
            <path id="Trazado_101578" data-name="Trazado 101578" d="M2284.408,781.936a.478.478,0,0,0,.034.062c.235.345.475.687.707,1.035a3.517,3.517,0,0,1,.3.51,1.131,1.131,0,0,1-.34,1.363,1.256,1.256,0,0,1-1.452-.043,1.143,1.143,0,0,1-.282-1.365,2.671,2.671,0,0,1,.21-.362C2283.849,782.744,2284.121,782.355,2284.408,781.936Z" transform="translate(-2283.261 -781.936)"/>
          </g>
          <g id="Grupo_54266" data-name="Grupo 54266" transform="translate(22.534 4.499)">
            <path id="Trazado_101579" data-name="Trazado 101579" d="M2320.963,758.132c.342.52.721,1.027,1.023,1.576a1.073,1.073,0,0,1-.987,1.532,1.657,1.657,0,0,1-.605-.126.994.994,0,0,1-.537-1.078,1.78,1.78,0,0,1,.179-.572,1.981,1.981,0,0,1,.223-.331C2320.49,758.8,2320.724,758.472,2320.963,758.132Z" transform="translate(-2319.853 -758.132)"/>
          </g>
          <g id="Grupo_54267" data-name="Grupo 54267" transform="translate(9.574 0.79)">
            <path id="Trazado_101580" data-name="Trazado 101580" d="M2306.92,752.844h-13.371a1.387,1.387,0,0,1,1.109-1.325c.908-.091,1.818-.162,2.729-.233q3.437-.267,6.873-.525,1.139-.087,2.28-.157c.05,0,.145.051.148.087C2306.77,751.4,2306.843,752.109,2306.92,752.844Z" transform="translate(-2293.549 -750.604)" fill="#fff"/>
          </g>
          <g id="Grupo_54268" data-name="Grupo 54268" transform="translate(6.409 6.969)">
            <path id="Trazado_101581" data-name="Trazado 101581" d="M2300.431,765.41h-13.3a.516.516,0,0,1-.006-.084q.064-.922.131-1.844c0-.047.016-.092.017-.139.007-.156.086-.208.239-.2.621.046,1.241.083,1.861.128,1.386.1,2.771.2,4.157.307q2.8.219,5.6.454a1.4,1.4,0,0,1,1.143.669A1.1,1.1,0,0,1,2300.431,765.41Z" transform="translate(-2287.122 -763.145)" fill="#fff"/>
          </g>
        </g>
        <g id="Grupo_54270" data-name="Grupo 54270" transform="translate(15.926 209.155)">
          <path id="Trazado_101582" data-name="Trazado 101582" d="M1701.825,965.852a4.658,4.658,0,0,1-4.746-4.28,4.483,4.483,0,0,1,3.452-5.2c4.143-.971,8.337-1.722,12.508-2.571,3.931-.8,7.849-1.67,11.8-2.367,1.162-.205,2.728-.366,3.556.226,2.108,1.5,4.133.979,6.273.513,1.358-.3,2.8-.388,3.157,1.346.334,1.635-1,2-2.262,2.294-2.111.5-4.3.7-5.473,3.1-.368.75-1.746,1.194-2.742,1.418-8.226,1.852-16.471,3.62-24.711,5.409C1702.318,965.8,1701.99,965.829,1701.825,965.852Z" transform="translate(-1697.025 -951.245)" fill="#fff"/>
        </g>
        <g id="Grupo_54277" data-name="Grupo 54277" transform="translate(128.692 191.481)">
          <g id="Grupo_54273" data-name="Grupo 54273" transform="translate(0.917)">
            <g id="Grupo_54272" data-name="Grupo 54272">
              <g id="Grupo_54271" data-name="Grupo 54271">
                <path id="Trazado_101583" data-name="Trazado 101583" d="M1931.4,920.94c.583.874.509,1.394-.6,3.514a1.606,1.606,0,0,0,1.509-1.551,27.207,27.207,0,0,0-.187-3.881,4.228,4.228,0,0,1,.433-2.735,7.365,7.365,0,0,1,.839-.917c-.671,2.528-.345,3.677,1.25,4.658-.105-.659-.58-1.292.042-2.014a1.974,1.974,0,0,0,1,1.735,8.327,8.327,0,0,1,3.477,5.339,5.168,5.168,0,0,1-2.014,5.4,7.354,7.354,0,0,1-1.913,1.029c.209-.244.432-.477.626-.734a2.463,2.463,0,0,0,.087-3.029,14.461,14.461,0,0,1-.755-1.606c.037.407.073.763.1,1.118a2.337,2.337,0,0,1,.036,1,3.993,3.993,0,0,1-.79.913c-.258-.245-.689-.461-.735-.741a3.261,3.261,0,0,1,.2-1.372c.241-.824.6-1.618.789-2.452.121-.524-.188-.968-.844-1.33.435.791.036,1.167-.417,1.585a3.394,3.394,0,0,0-1.39,3.113l-.22.043-.414-1.279a2.034,2.034,0,0,0,.13,2.53,1.956,1.956,0,0,1,.443,2.327,5.918,5.918,0,0,1-4.213-3.895,5.253,5.253,0,0,1,2.088-5.1A10.534,10.534,0,0,0,1931.4,920.94Z" transform="translate(-1927.78 -915.369)" fill="#fff"/>
              </g>
            </g>
          </g>
          <g id="Grupo_54276" data-name="Grupo 54276" transform="translate(0 16.922)">
            <g id="Grupo_54274" data-name="Grupo 54274" transform="translate(0.562 0.562)">
              <line id="Línea_172" data-name="Línea 172" x2="12.217" fill="#fff"/>
            </g>
            <g id="Grupo_54275" data-name="Grupo 54275">
              <path id="Trazado_101584" data-name="Trazado 101584" d="M1938.7,950.842H1926.48a.562.562,0,0,1,0-1.125H1938.7a.562.562,0,1,1,0,1.125Z" transform="translate(-1925.918 -949.717)" fill="#fff"/>
            </g>
          </g>
        </g>
        <g id="Grupo_54284" data-name="Grupo 54284" transform="translate(309.496 191.481)">
          <g id="Grupo_54280" data-name="Grupo 54280" transform="translate(0.917)">
            <g id="Grupo_54279" data-name="Grupo 54279">
              <g id="Grupo_54278" data-name="Grupo 54278">
                <path id="Trazado_101585" data-name="Trazado 101585" d="M2298.4,920.94c.583.874.509,1.394-.6,3.514a1.607,1.607,0,0,0,1.51-1.551,27.261,27.261,0,0,0-.187-3.881,4.224,4.224,0,0,1,.433-2.735,7.324,7.324,0,0,1,.839-.917c-.671,2.528-.345,3.677,1.25,4.658-.1-.659-.58-1.292.042-2.014a1.973,1.973,0,0,0,1,1.735,8.329,8.329,0,0,1,3.477,5.339,5.167,5.167,0,0,1-2.014,5.4,7.346,7.346,0,0,1-1.914,1.029c.209-.244.433-.477.625-.734a2.461,2.461,0,0,0,.087-3.029,14.462,14.462,0,0,1-.754-1.606c.036.407.073.763.1,1.118a2.316,2.316,0,0,1,.036,1,3.976,3.976,0,0,1-.789.913c-.258-.245-.688-.461-.735-.741a3.25,3.25,0,0,1,.2-1.372c.24-.824.6-1.618.788-2.452.121-.524-.188-.968-.844-1.33.435.791.036,1.167-.417,1.585a3.392,3.392,0,0,0-1.39,3.113l-.221.043-.414-1.279a2.035,2.035,0,0,0,.129,2.53,1.953,1.953,0,0,1,.443,2.327,5.918,5.918,0,0,1-4.213-3.895,5.252,5.252,0,0,1,2.088-5.1A10.608,10.608,0,0,0,2298.4,920.94Z" transform="translate(-2294.78 -915.369)"/>
              </g>
            </g>
          </g>
          <g id="Grupo_54283" data-name="Grupo 54283" transform="translate(0 16.922)">
            <g id="Grupo_54281" data-name="Grupo 54281" transform="translate(0.562 0.562)">
              <line id="Línea_173" data-name="Línea 173" x2="12.217"/>
            </g>
            <g id="Grupo_54282" data-name="Grupo 54282">
              <path id="Trazado_101586" data-name="Trazado 101586" d="M2305.7,950.842h-12.217a.562.562,0,1,1,0-1.125H2305.7a.562.562,0,0,1,0,1.125Z" transform="translate(-2292.918 -949.717)"/>
            </g>
          </g>
        </g>
        <g id="Grupo_54289" data-name="Grupo 54289" transform="translate(215.899 197.466)">
          <g id="Grupo_54285" data-name="Grupo 54285" transform="translate(11.036 9.245)">
            <path id="Trazado_101587" data-name="Trazado 101587" d="M2125.335,949.74a4.465,4.465,0,0,0,1.776-3.456l6.467,1.934a9.89,9.89,0,0,1-3.062,5.831Z" transform="translate(-2125.335 -946.283)"/>
          </g>
          <g id="Grupo_54286" data-name="Grupo 54286" transform="translate(0 9.314)">
            <path id="Trazado_101588" data-name="Trazado 101588" d="M2102.934,948.356l6.465-1.933a4.468,4.468,0,0,0,1.779,3.454L2106,954.185A9.933,9.933,0,0,1,2102.934,948.356Z" transform="translate(-2102.934 -946.423)"/>
          </g>
          <g id="Grupo_54287" data-name="Grupo 54287" transform="translate(6.32)">
            <path id="Trazado_101589" data-name="Trazado 101589" d="M2117.031,934.7l-1.269-6.621a9.8,9.8,0,0,1,6.584.017l-1.431,6.588a4.111,4.111,0,0,0-1.936-.451A4.911,4.911,0,0,0,2117.031,934.7Z" transform="translate(-2115.762 -927.518)"/>
          </g>
          <g id="Grupo_54288" data-name="Grupo 54288" transform="translate(7.833 8.023)">
            <path id="Trazado_101590" data-name="Trazado 101590" d="M2122.436,945.687a1.8,1.8,0,1,1-1.7-1.88A1.8,1.8,0,0,1,2122.436,945.687Z" transform="translate(-2118.833 -943.803)"/>
          </g>
        </g>
        <g id="Grupo_54290" data-name="Grupo 54290" transform="translate(202.759 232.233)">
          <path id="Trazado_101591" data-name="Trazado 101591" d="M2076.262,1003.413v-5.147h2.187a3.729,3.729,0,0,1,1.2.139,1.185,1.185,0,0,1,.6.493,1.488,1.488,0,0,1,.225.81,1.377,1.377,0,0,1-.342.958,1.636,1.636,0,0,1-1.017.476,2.406,2.406,0,0,1,.556.432,5.841,5.841,0,0,1,.592.835l.628,1h-1.242l-.752-1.12a7.357,7.357,0,0,0-.547-.756.791.791,0,0,0-.313-.214,1.708,1.708,0,0,0-.523-.058h-.21v2.148Zm1.039-2.97h.769a3.96,3.96,0,0,0,.933-.063.563.563,0,0,0,.291-.218.672.672,0,0,0,.106-.386.618.618,0,0,0-.139-.419.636.636,0,0,0-.391-.2q-.127-.018-.758-.018h-.811Z" transform="translate(-2076.262 -998.178)"/>
          <path id="Trazado_101592" data-name="Trazado 101592" d="M2090.9,1003.413h-1.13l-.449-1.169h-2.057l-.426,1.169h-1.1l2-5.147h1.1Zm-1.913-2.036-.709-1.91-.7,1.91Z" transform="translate(-2081.067 -998.178)"/>
          <path id="Trazado_101593" data-name="Trazado 101593" d="M2097.326,998.266h1.9a3.7,3.7,0,0,1,.98.1,1.716,1.716,0,0,1,.775.474,2.239,2.239,0,0,1,.492.834,3.8,3.8,0,0,1,.168,1.216,3.382,3.382,0,0,1-.158,1.1,2.276,2.276,0,0,1-.551.909,1.825,1.825,0,0,1-.731.411,3.124,3.124,0,0,1-.919.109h-1.956Zm1.04.871v3.409h.775a2.819,2.819,0,0,0,.628-.049.95.95,0,0,0,.419-.215,1.084,1.084,0,0,0,.272-.5,3.345,3.345,0,0,0,.105-.943,3.058,3.058,0,0,0-.105-.916,1.174,1.174,0,0,0-.295-.5.992.992,0,0,0-.481-.242,4.649,4.649,0,0,0-.853-.049Z" transform="translate(-2086.949 -998.178)"/>
          <path id="Trazado_101594" data-name="Trazado 101594" d="M2107.81,1003.413v-5.147h1.039v5.147Z" transform="translate(-2092.268 -998.178)"/>
          <path id="Trazado_101595" data-name="Trazado 101595" d="M2116.031,1003.413H2114.9l-.45-1.169h-2.057l-.425,1.169h-1.1l2.005-5.147h1.1Zm-1.913-2.036-.709-1.91-.7,1.91Z" transform="translate(-2093.819 -998.178)"/>
          <path id="Trazado_101596" data-name="Trazado 101596" d="M2125.572,1001.43l1.008.32a2.263,2.263,0,0,1-.771,1.252,2.426,2.426,0,0,1-3.053-.291,2.681,2.681,0,0,1-.66-1.915,2.817,2.817,0,0,1,.663-2,2.275,2.275,0,0,1,1.745-.711,2.146,2.146,0,0,1,1.536.558,2.037,2.037,0,0,1,.525.948l-1.029.246a1.062,1.062,0,0,0-1.084-.864,1.173,1.173,0,0,0-.929.411,2.016,2.016,0,0,0-.356,1.33,2.164,2.164,0,0,0,.351,1.39,1.141,1.141,0,0,0,.913.414,1.044,1.044,0,0,0,.713-.263A1.525,1.525,0,0,0,2125.572,1001.43Z" transform="translate(-2099.516 -998.088)"/>
          <path id="Trazado_101597" data-name="Trazado 101597" d="M2133.786,1003.413v-4.276h-1.527v-.871h4.089v.871h-1.523v4.276Z" transform="translate(-2104.672 -998.178)"/>
          <path id="Trazado_101598" data-name="Trazado 101598" d="M2141.857,1003.413v-5.147h1.039v5.147Z" transform="translate(-2109.541 -998.178)"/>
          <path id="Trazado_101599" data-name="Trazado 101599" d="M2146.748,1003.413l-1.84-5.147h1.126l1.3,3.809,1.26-3.809h1.1l-1.843,5.147Z" transform="translate(-2111.089 -998.178)"/>
          <path id="Trazado_101600" data-name="Trazado 101600" d="M2155.282,1000.781a3.262,3.262,0,0,1,.236-1.32,2.448,2.448,0,0,1,.479-.706,2.022,2.022,0,0,1,.666-.463,2.828,2.828,0,0,1,1.11-.2,2.414,2.414,0,0,1,1.82.706,3.154,3.154,0,0,1,.005,3.912,2.4,2.4,0,0,1-1.812.7,2.422,2.422,0,0,1-1.825-.7A2.657,2.657,0,0,1,2155.282,1000.781Zm1.071-.035a1.932,1.932,0,0,0,.4,1.326,1.39,1.39,0,0,0,2.046,0,1.971,1.971,0,0,0,.4-1.343,1.937,1.937,0,0,0-.388-1.32,1.439,1.439,0,0,0-2.066.006A1.942,1.942,0,0,0,2156.353,1000.745Z" transform="translate(-2116.352 -998.088)"/>
        </g>
      </g>
    </g>
  </g>
</svg>
