<svg xmlns="http://www.w3.org/2000/svg" width="540.229" height="484.063" viewBox="0 0 540.229 484.063">
  <g id="Grupo_54946" data-name="Grupo 54946" transform="translate(126.786 -11.711)">
    <g id="Grupo_53647" data-name="Grupo 53647" transform="translate(-126.786 52.339)">
      <rect id="Rectángulo_5061" data-name="Rectángulo 5061" width="95.757" height="30.131" transform="translate(0 4.495)" fill="#732be5"/>
      <rect id="Rectángulo_5062" data-name="Rectángulo 5062" width="95.757" height="30.131" transform="translate(110.831 128.858)" fill="#732be5"/>
      <rect id="Rectángulo_5063" data-name="Rectángulo 5063" width="95.757" height="30.131" transform="translate(228.412)" fill="#732be5"/>
      <rect id="Rectángulo_5064" data-name="Rectángulo 5064" width="95.757" height="30.131" transform="translate(356.002 132.6)" fill="#732be5"/>
      <path id="Trazado_100376" data-name="Trazado 100376" d="M679.578,172.632,644.5,198.281l.037-51.379Z" transform="translate(-143.578 -88.978)" fill="none" stroke="#732be5" stroke-miterlimit="10" stroke-width="5"/>
      <path id="Trazado_102682" data-name="Trazado 102682" d="M6.519-3.682H2.926V0H.7V-9.242H6.881v1.72H2.926V-5.4H6.519ZM11.362,0a2.415,2.415,0,0,1-.2-.616,1.989,1.989,0,0,1-1.65.743A2.437,2.437,0,0,1,7.858-.46a1.869,1.869,0,0,1-.679-1.476A1.921,1.921,0,0,1,8-3.625,4.2,4.2,0,0,1,10.4-4.2h.66v-.364q0-.95-.819-.95a.669.669,0,0,0-.762.753H7.344a1.918,1.918,0,0,1,.847-1.617A3.561,3.561,0,0,1,10.353-7a3.122,3.122,0,0,1,2.076.641A2.229,2.229,0,0,1,13.209-4.6v3.041A3.114,3.114,0,0,0,13.5-.108V0ZM10.023-1.4a1.193,1.193,0,0,0,.663-.171,1.074,1.074,0,0,0,.378-.387v-1.1h-.622q-1.117,0-1.117,1a.612.612,0,0,0,.2.473A.712.712,0,0,0,10.023-1.4ZM20.77-3.377a4.186,4.186,0,0,1-.7,2.6A2.339,2.339,0,0,1,18.1.127,2.03,2.03,0,0,1,16.415-.7l-.089.7H14.409V-9.75h2.139v3.434A1.958,1.958,0,0,1,18.091-7a2.339,2.339,0,0,1,1.98.92,4.208,4.208,0,0,1,.7,2.59Zm-2.146-.136a2.792,2.792,0,0,0-.263-1.41.888.888,0,0,0-.809-.421,1.024,1.024,0,0,0-1,.551v2.725a1.03,1.03,0,0,0,1.016.545.908.908,0,0,0,.958-.735A5.279,5.279,0,0,0,18.624-3.513Zm7.243-1.419-.7-.051a1.266,1.266,0,0,0-1.295.635V0H21.728V-6.868h2.006l.07.882A1.656,1.656,0,0,1,25.308-7a2.086,2.086,0,0,1,.6.076ZM28.895,0H26.749V-6.868h2.146ZM26.622-8.639a.955.955,0,0,1,.33-.749,1.245,1.245,0,0,1,.857-.292,1.245,1.245,0,0,1,.857.292.955.955,0,0,1,.33.749.955.955,0,0,1-.33.749,1.245,1.245,0,0,1-.857.292,1.245,1.245,0,0,1-.857-.292A.955.955,0,0,1,26.622-8.639Zm6.494,7.116a.951.951,0,0,0,.7-.244.9.9,0,0,0,.241-.682h2.006A2.375,2.375,0,0,1,35.252-.6a3.01,3.01,0,0,1-2.085.724,3.048,3.048,0,0,1-2.361-.939,3.7,3.7,0,0,1-.863-2.6V-3.5a4.183,4.183,0,0,1,.384-1.838,2.8,2.8,0,0,1,1.108-1.225A3.3,3.3,0,0,1,33.147-7a2.972,2.972,0,0,1,2.126.743,2.634,2.634,0,0,1,.787,2.012H34.055a1.174,1.174,0,0,0-.26-.819.9.9,0,0,0-.7-.286q-.832,0-.971,1.06a7.48,7.48,0,0,0-.044.927,2.938,2.938,0,0,0,.248,1.435A.857.857,0,0,0,33.116-1.523ZM40.834,0a2.415,2.415,0,0,1-.2-.616,1.989,1.989,0,0,1-1.65.743,2.437,2.437,0,0,1-1.65-.587,1.869,1.869,0,0,1-.679-1.476,1.921,1.921,0,0,1,.825-1.688,4.2,4.2,0,0,1,2.4-.571h.66v-.364q0-.95-.819-.95a.669.669,0,0,0-.762.753H36.816a1.918,1.918,0,0,1,.847-1.617A3.561,3.561,0,0,1,39.825-7a3.122,3.122,0,0,1,2.076.641A2.229,2.229,0,0,1,42.682-4.6v3.041a3.114,3.114,0,0,0,.292,1.447V0ZM39.5-1.4a1.193,1.193,0,0,0,.663-.171,1.074,1.074,0,0,0,.378-.387v-1.1h-.622q-1.117,0-1.117,1a.612.612,0,0,0,.2.473A.712.712,0,0,0,39.5-1.4ZM45.83-6.868l.07.806A2.329,2.329,0,0,1,47.861-7a1.96,1.96,0,0,1,1.6.641,3.052,3.052,0,0,1,.549,1.93V0H47.868V-4.335a1.159,1.159,0,0,0-.209-.765.969.969,0,0,0-.762-.244,1.02,1.02,0,0,0-.933.5V0H43.824V-6.868Zm7.858-1.708v1.708h1.13v1.485h-1.13v3.142a.8.8,0,0,0,.14.54.749.749,0,0,0,.552.152,3.138,3.138,0,0,0,.533-.038v1.53a3.948,3.948,0,0,1-1.206.184,2.241,2.241,0,0,1-1.631-.521,2.133,2.133,0,0,1-.527-1.581V-5.383h-.876V-6.868h.876V-8.576Zm5.294,8.7a3.531,3.531,0,0,1-2.558-.943,3.255,3.255,0,0,1-.978-2.453v-.178a4.218,4.218,0,0,1,.39-1.86,2.857,2.857,0,0,1,1.139-1.247A3.44,3.44,0,0,1,58.754-7a2.973,2.973,0,0,1,2.285.9,3.53,3.53,0,0,1,.838,2.5v.832H57.624a1.542,1.542,0,0,0,.5.908,1.492,1.492,0,0,0,1,.33,1.923,1.923,0,0,0,1.587-.711l.978,1.155A2.733,2.733,0,0,1,60.56-.2,3.829,3.829,0,0,1,58.982.127Zm-.241-5.472q-.939,0-1.117,1.244h2.158v-.165a1.06,1.06,0,0,0-.26-.8A1.036,1.036,0,0,0,58.741-5.345Z" transform="translate(15.815 22.831)" fill="#fff"/>
      <circle id="Elipse_3975" data-name="Elipse 3975" cx="12.036" cy="12.036" r="12.036" transform="translate(35.842 71.577)" fill="#732be5"/>
      <circle id="Elipse_3976" data-name="Elipse 3976" cx="12.036" cy="12.036" r="12.036" transform="translate(149.03 71.577)" fill="#732be5"/>
      <circle id="Elipse_3977" data-name="Elipse 3977" cx="12.036" cy="12.036" r="12.036" transform="translate(264.076 71.577)" fill="#732be5"/>
      <circle id="Elipse_3978" data-name="Elipse 3978" cx="12.036" cy="12.036" r="12.036" transform="translate(388.914 71.577)" fill="#732be5"/>
      <line id="Línea_136" data-name="Línea 136" x2="454.378" transform="translate(48.572 83.613)" fill="none" stroke="#732be5" stroke-miterlimit="10" stroke-width="5"/>
      <path id="Trazado_102683" data-name="Trazado 102683" d="M3.625-9.242l2.063,6.43,2.057-6.43h2.933V0H8.442V-2.158l.216-4.418L6.424,0H4.951L2.71-6.583l.216,4.424V0H.7V-9.242ZM14.25,0H12.1V-6.868H14.25ZM11.978-8.639a.955.955,0,0,1,.33-.749,1.245,1.245,0,0,1,.857-.292,1.245,1.245,0,0,1,.857.292.955.955,0,0,1,.33.749.955.955,0,0,1-.33.749,1.245,1.245,0,0,1-.857.292,1.245,1.245,0,0,1-.857-.292A.955.955,0,0,1,11.978-8.639Zm5.554,1.771.07.806A2.329,2.329,0,0,1,19.563-7a1.96,1.96,0,0,1,1.6.641,3.052,3.052,0,0,1,.549,1.93V0H19.57V-4.335A1.159,1.159,0,0,0,19.36-5.1a.969.969,0,0,0-.762-.244,1.02,1.02,0,0,0-.933.5V0H15.526V-6.868Zm5.1,3.371a4.054,4.054,0,0,1,.4-1.831,2.86,2.86,0,0,1,1.149-1.235A3.46,3.46,0,0,1,25.937-7a3.158,3.158,0,0,1,2.431.955,3.666,3.666,0,0,1,.889,2.6v.076a3.557,3.557,0,0,1-.892,2.549,3.166,3.166,0,0,1-2.415.943,3.2,3.2,0,0,1-2.355-.879,3.439,3.439,0,0,1-.958-2.384Zm2.139.133a2.556,2.556,0,0,0,.3,1.4.994.994,0,0,0,.882.444q1.143,0,1.168-1.758V-3.5q0-1.847-1.181-1.847-1.073,0-1.162,1.593Zm9.585-1.568-.7-.051a1.266,1.266,0,0,0-1.295.635V0H30.215V-6.868h2.006l.07.882A1.656,1.656,0,0,1,33.795-7a2.086,2.086,0,0,1,.6.076ZM37.381,0H35.236V-6.868h2.146ZM35.109-8.639a.955.955,0,0,1,.33-.749A1.245,1.245,0,0,1,36.3-9.68a1.245,1.245,0,0,1,.857.292.955.955,0,0,1,.33.749.955.955,0,0,1-.33.749A1.245,1.245,0,0,1,36.3-7.6a1.245,1.245,0,0,1-.857-.292A.955.955,0,0,1,35.109-8.639ZM42.294-1.93a.494.494,0,0,0-.286-.438,4.345,4.345,0,0,0-1.085-.343,4.95,4.95,0,0,1-1.32-.467,2.212,2.212,0,0,1-.793-.7,1.675,1.675,0,0,1-.273-.946,1.9,1.9,0,0,1,.781-1.558A3.216,3.216,0,0,1,41.361-7a3.563,3.563,0,0,1,2.184.616,1.925,1.925,0,0,1,.825,1.619H42.225q0-.825-.87-.825a.862.862,0,0,0-.565.187.58.58,0,0,0-.229.467.532.532,0,0,0,.279.463,2.639,2.639,0,0,0,.892.292,7.707,7.707,0,0,1,1.076.273,1.955,1.955,0,0,1,1.549,1.911,1.8,1.8,0,0,1-.835,1.53,3.66,3.66,0,0,1-2.161.59A3.735,3.735,0,0,1,39.787-.19a2.632,2.632,0,0,1-1.079-.863A1.955,1.955,0,0,1,38.321-2.2h2a.827.827,0,0,0,.317.7,1.306,1.306,0,0,0,.781.219,1.027,1.027,0,0,0,.657-.178A.569.569,0,0,0,42.294-1.93Zm5.554-6.646v1.708h1.13v1.485h-1.13v3.142a.8.8,0,0,0,.14.54.749.749,0,0,0,.552.152,3.138,3.138,0,0,0,.533-.038v1.53a3.948,3.948,0,0,1-1.206.184,2.241,2.241,0,0,1-1.631-.521,2.133,2.133,0,0,1-.527-1.581V-5.383h-.876V-6.868h.876V-8.576ZM53.688,0a2.415,2.415,0,0,1-.2-.616,1.989,1.989,0,0,1-1.65.743,2.437,2.437,0,0,1-1.65-.587,1.869,1.869,0,0,1-.679-1.476,1.921,1.921,0,0,1,.825-1.688,4.2,4.2,0,0,1,2.4-.571h.66v-.364q0-.95-.819-.95a.669.669,0,0,0-.762.753H49.67a1.918,1.918,0,0,1,.847-1.617A3.561,3.561,0,0,1,52.679-7a3.122,3.122,0,0,1,2.076.641A2.229,2.229,0,0,1,55.536-4.6v3.041a3.114,3.114,0,0,0,.292,1.447V0ZM52.349-1.4a1.193,1.193,0,0,0,.663-.171,1.074,1.074,0,0,0,.378-.387v-1.1h-.622q-1.117,0-1.117,1a.612.612,0,0,0,.2.473A.712.712,0,0,0,52.349-1.4Z" transform="translate(247.174 18.336)" fill="#fff"/>
      <path id="Trazado_102684" data-name="Trazado 102684" d="M3.625-9.242l2.063,6.43,2.057-6.43h2.933V0H8.442V-2.158l.216-4.418L6.424,0H4.951L2.71-6.583l.216,4.424V0H.7V-9.242ZM15.863,0a2.415,2.415,0,0,1-.2-.616,1.989,1.989,0,0,1-1.65.743,2.437,2.437,0,0,1-1.65-.587,1.869,1.869,0,0,1-.679-1.476A1.921,1.921,0,0,1,12.5-3.625,4.2,4.2,0,0,1,14.9-4.2h.66v-.364q0-.95-.819-.95a.669.669,0,0,0-.762.753H11.845a1.918,1.918,0,0,1,.847-1.617A3.561,3.561,0,0,1,14.854-7a3.122,3.122,0,0,1,2.076.641A2.229,2.229,0,0,1,17.71-4.6v3.041A3.114,3.114,0,0,0,18-.108V0ZM14.523-1.4a1.193,1.193,0,0,0,.663-.171,1.074,1.074,0,0,0,.378-.387v-1.1h-.622q-1.117,0-1.117,1a.612.612,0,0,0,.2.473A.712.712,0,0,0,14.523-1.4ZM21.639-3l1.143-3.872h2.292l-2.8,8.017-.121.292a2.127,2.127,0,0,1-2.107,1.333,3.353,3.353,0,0,1-.882-.126V1.124h.279a1.463,1.463,0,0,0,.689-.13.79.79,0,0,0,.352-.467l.171-.457L18.269-6.868h2.285Zm3.72-.5a4.054,4.054,0,0,1,.4-1.831,2.86,2.86,0,0,1,1.149-1.235A3.46,3.46,0,0,1,28.666-7,3.158,3.158,0,0,1,31.1-6.04a3.666,3.666,0,0,1,.889,2.6v.076a3.557,3.557,0,0,1-.892,2.549,3.166,3.166,0,0,1-2.415.943,3.2,3.2,0,0,1-2.355-.879,3.439,3.439,0,0,1-.958-2.384Zm2.139.133a2.556,2.556,0,0,0,.3,1.4.994.994,0,0,0,.882.444q1.143,0,1.168-1.758V-3.5q0-1.847-1.181-1.847-1.073,0-1.162,1.593Zm9.585-1.568-.7-.051a1.266,1.266,0,0,0-1.295.635V0H32.944V-6.868H34.95l.07.882A1.656,1.656,0,0,1,36.524-7a2.086,2.086,0,0,1,.6.076ZM40.111,0H37.965V-6.868h2.146ZM37.838-8.639a.955.955,0,0,1,.33-.749,1.245,1.245,0,0,1,.857-.292,1.245,1.245,0,0,1,.857.292.955.955,0,0,1,.33.749.955.955,0,0,1-.33.749,1.245,1.245,0,0,1-.857.292,1.245,1.245,0,0,1-.857-.292A.955.955,0,0,1,37.838-8.639ZM45.024-1.93a.494.494,0,0,0-.286-.438,4.345,4.345,0,0,0-1.085-.343,4.95,4.95,0,0,1-1.32-.467,2.212,2.212,0,0,1-.793-.7,1.675,1.675,0,0,1-.273-.946,1.9,1.9,0,0,1,.781-1.558A3.216,3.216,0,0,1,44.091-7a3.563,3.563,0,0,1,2.184.616A1.925,1.925,0,0,1,47.1-4.761H44.954q0-.825-.87-.825a.862.862,0,0,0-.565.187.58.58,0,0,0-.229.467.532.532,0,0,0,.279.463,2.639,2.639,0,0,0,.892.292,7.707,7.707,0,0,1,1.076.273,1.955,1.955,0,0,1,1.549,1.911,1.8,1.8,0,0,1-.835,1.53,3.66,3.66,0,0,1-2.161.59A3.735,3.735,0,0,1,42.517-.19a2.632,2.632,0,0,1-1.079-.863A1.955,1.955,0,0,1,41.05-2.2h2a.827.827,0,0,0,.317.7,1.306,1.306,0,0,0,.781.219,1.027,1.027,0,0,0,.657-.178A.569.569,0,0,0,45.024-1.93Zm5.554-6.646v1.708h1.13v1.485h-1.13v3.142a.8.8,0,0,0,.14.54.749.749,0,0,0,.552.152,3.138,3.138,0,0,0,.533-.038v1.53A3.948,3.948,0,0,1,50.6.127a2.241,2.241,0,0,1-1.631-.521,2.133,2.133,0,0,1-.527-1.581V-5.383h-.876V-6.868h.876V-8.576ZM56.418,0a2.415,2.415,0,0,1-.2-.616,1.989,1.989,0,0,1-1.65.743,2.437,2.437,0,0,1-1.65-.587,1.869,1.869,0,0,1-.679-1.476,1.921,1.921,0,0,1,.825-1.688,4.2,4.2,0,0,1,2.4-.571h.66v-.364q0-.95-.819-.95a.669.669,0,0,0-.762.753H52.4a1.918,1.918,0,0,1,.847-1.617A3.561,3.561,0,0,1,55.409-7a3.122,3.122,0,0,1,2.076.641A2.229,2.229,0,0,1,58.265-4.6v3.041a3.114,3.114,0,0,0,.292,1.447V0ZM55.079-1.4a1.193,1.193,0,0,0,.663-.171,1.074,1.074,0,0,0,.378-.387v-1.1H55.5q-1.117,0-1.117,1a.612.612,0,0,0,.2.473A.712.712,0,0,0,55.079-1.4Z" transform="translate(129.63 147.193)" fill="#fff"/>
      <path id="Trazado_102685" data-name="Trazado 102685" d="M8.176-3.129a3.375,3.375,0,0,1-.521,1.7A3.141,3.141,0,0,1,6.319-.279,4.548,4.548,0,0,1,4.354.127,3.629,3.629,0,0,1,1.485-1.06,4.9,4.9,0,0,1,.438-4.412v-.457A5.594,5.594,0,0,1,.911-7.246,3.583,3.583,0,0,1,2.272-8.82a3.8,3.8,0,0,1,2.057-.555,3.984,3.984,0,0,1,2.7.885A3.5,3.5,0,0,1,8.195-6.049H5.973a1.655,1.655,0,0,0-.425-1.212A1.749,1.749,0,0,0,4.329-7.63a1.331,1.331,0,0,0-1.219.622A4,4,0,0,0,2.7-5.021v.654a4.424,4.424,0,0,0,.371,2.114,1.359,1.359,0,0,0,1.279.635A1.711,1.711,0,0,0,5.529-1.98,1.536,1.536,0,0,0,5.96-3.129ZM11.388,0H9.242V-9.75h2.146Zm3.574,0H12.816V-6.868h2.146ZM12.689-8.639a.955.955,0,0,1,.33-.749,1.245,1.245,0,0,1,.857-.292,1.245,1.245,0,0,1,.857.292.955.955,0,0,1,.33.749.955.955,0,0,1-.33.749,1.245,1.245,0,0,1-.857.292,1.245,1.245,0,0,1-.857-.292A.955.955,0,0,1,12.689-8.639ZM19.6.127a3.531,3.531,0,0,1-2.558-.943,3.255,3.255,0,0,1-.978-2.453v-.178a4.218,4.218,0,0,1,.39-1.86A2.857,2.857,0,0,1,17.6-6.554,3.44,3.44,0,0,1,19.373-7a2.973,2.973,0,0,1,2.285.9,3.53,3.53,0,0,1,.838,2.5v.832H18.243a1.542,1.542,0,0,0,.5.908,1.492,1.492,0,0,0,1,.33,1.923,1.923,0,0,0,1.587-.711l.978,1.155A2.733,2.733,0,0,1,21.179-.2,3.829,3.829,0,0,1,19.6.127ZM19.36-5.345q-.939,0-1.117,1.244H20.4v-.165a1.06,1.06,0,0,0-.26-.8A1.036,1.036,0,0,0,19.36-5.345Zm5.96-1.523.07.806A2.329,2.329,0,0,1,27.352-7a1.96,1.96,0,0,1,1.6.641,3.052,3.052,0,0,1,.549,1.93V0H27.358V-4.335a1.159,1.159,0,0,0-.209-.765.969.969,0,0,0-.762-.244,1.02,1.02,0,0,0-.933.5V0H23.315V-6.868Zm7.858-1.708v1.708h1.13v1.485h-1.13v3.142a.8.8,0,0,0,.14.54.749.749,0,0,0,.552.152,3.138,3.138,0,0,0,.533-.038v1.53A3.948,3.948,0,0,1,33.2.127a2.241,2.241,0,0,1-1.631-.521,2.133,2.133,0,0,1-.527-1.581V-5.383h-.876V-6.868h.876V-8.576Zm5.294,8.7a3.531,3.531,0,0,1-2.558-.943,3.255,3.255,0,0,1-.978-2.453v-.178a4.218,4.218,0,0,1,.39-1.86,2.857,2.857,0,0,1,1.139-1.247A3.44,3.44,0,0,1,38.245-7a2.973,2.973,0,0,1,2.285.9,3.53,3.53,0,0,1,.838,2.5v.832H37.115a1.542,1.542,0,0,0,.5.908,1.492,1.492,0,0,0,1,.33,1.923,1.923,0,0,0,1.587-.711l.978,1.155A2.733,2.733,0,0,1,40.051-.2,3.829,3.829,0,0,1,38.473.127Zm-.241-5.472q-.939,0-1.117,1.244h2.158v-.165a1.06,1.06,0,0,0-.26-.8A1.036,1.036,0,0,0,38.232-5.345ZM45.824-1.93a.494.494,0,0,0-.286-.438,4.345,4.345,0,0,0-1.085-.343,4.95,4.95,0,0,1-1.32-.467,2.212,2.212,0,0,1-.793-.7,1.675,1.675,0,0,1-.273-.946,1.9,1.9,0,0,1,.781-1.558A3.216,3.216,0,0,1,44.891-7a3.563,3.563,0,0,1,2.184.616A1.925,1.925,0,0,1,47.9-4.761H45.754q0-.825-.87-.825a.862.862,0,0,0-.565.187.58.58,0,0,0-.229.467.532.532,0,0,0,.279.463,2.639,2.639,0,0,0,.892.292,7.707,7.707,0,0,1,1.076.273,1.955,1.955,0,0,1,1.549,1.911,1.8,1.8,0,0,1-.835,1.53,3.66,3.66,0,0,1-2.161.59A3.735,3.735,0,0,1,43.316-.19a2.632,2.632,0,0,1-1.079-.863A1.955,1.955,0,0,1,41.85-2.2h2a.827.827,0,0,0,.317.7,1.306,1.306,0,0,0,.781.219,1.027,1.027,0,0,0,.657-.178A.569.569,0,0,0,45.824-1.93Z" transform="translate(377.157 150.936)" fill="#fff"/>
      <line id="Línea_137" data-name="Línea 137" y1="47.703" transform="translate(47.878 34.627)" fill="none" stroke="#732be5" stroke-miterlimit="10" stroke-width="5" stroke-dasharray="12"/>
      <line id="Línea_138" data-name="Línea 138" y1="47.703" transform="translate(161.698 84.253)" fill="none" stroke="#732be5" stroke-miterlimit="10" stroke-width="5" stroke-dasharray="12"/>
      <line id="Línea_139" data-name="Línea 139" y1="47.703" transform="translate(276.064 34.627)" fill="none" stroke="#732be5" stroke-miterlimit="10" stroke-width="5" stroke-dasharray="12"/>
      <line id="Línea_140" data-name="Línea 140" y1="47.703" transform="translate(400.164 85.929)" fill="none" stroke="#732be5" stroke-miterlimit="10" stroke-width="5" stroke-dasharray="12"/>
    </g>
    <g id="Grupo_53650" data-name="Grupo 53650" transform="translate(-126.786 336.785)">
      <rect id="Rectángulo_5065" data-name="Rectángulo 5065" width="95.757" height="30.131" transform="translate(0 4.495)" fill="#732be5"/>
      <rect id="Rectángulo_5066" data-name="Rectángulo 5066" width="95.757" height="30.131" transform="translate(356.002)" fill="#732be5"/>
      <path id="Trazado_100377" data-name="Trazado 100377" d="M681.278,457.249,646.2,482.9l.036-51.379Z" transform="translate(-145.278 -373.596)" fill="none" stroke="#732be5" stroke-miterlimit="10" stroke-width="5"/>
      <path id="Trazado_102687" data-name="Trazado 102687" d="M6.519-3.682H2.926V0H.7V-9.242H6.881v1.72H2.926V-5.4H6.519ZM11.362,0a2.415,2.415,0,0,1-.2-.616,1.989,1.989,0,0,1-1.65.743A2.437,2.437,0,0,1,7.858-.46a1.869,1.869,0,0,1-.679-1.476A1.921,1.921,0,0,1,8-3.625,4.2,4.2,0,0,1,10.4-4.2h.66v-.364q0-.95-.819-.95a.669.669,0,0,0-.762.753H7.344a1.918,1.918,0,0,1,.847-1.617A3.561,3.561,0,0,1,10.353-7a3.122,3.122,0,0,1,2.076.641A2.229,2.229,0,0,1,13.209-4.6v3.041A3.114,3.114,0,0,0,13.5-.108V0ZM10.023-1.4a1.193,1.193,0,0,0,.663-.171,1.074,1.074,0,0,0,.378-.387v-1.1h-.622q-1.117,0-1.117,1a.612.612,0,0,0,.2.473A.712.712,0,0,0,10.023-1.4ZM20.77-3.377a4.186,4.186,0,0,1-.7,2.6A2.339,2.339,0,0,1,18.1.127,2.03,2.03,0,0,1,16.415-.7l-.089.7H14.409V-9.75h2.139v3.434A1.958,1.958,0,0,1,18.091-7a2.339,2.339,0,0,1,1.98.92,4.208,4.208,0,0,1,.7,2.59Zm-2.146-.136a2.792,2.792,0,0,0-.263-1.41.888.888,0,0,0-.809-.421,1.024,1.024,0,0,0-1,.551v2.725a1.03,1.03,0,0,0,1.016.545.908.908,0,0,0,.958-.735A5.279,5.279,0,0,0,18.624-3.513Zm7.243-1.419-.7-.051a1.266,1.266,0,0,0-1.295.635V0H21.728V-6.868h2.006l.07.882A1.656,1.656,0,0,1,25.308-7a2.086,2.086,0,0,1,.6.076ZM28.895,0H26.749V-6.868h2.146ZM26.622-8.639a.955.955,0,0,1,.33-.749,1.245,1.245,0,0,1,.857-.292,1.245,1.245,0,0,1,.857.292.955.955,0,0,1,.33.749.955.955,0,0,1-.33.749,1.245,1.245,0,0,1-.857.292,1.245,1.245,0,0,1-.857-.292A.955.955,0,0,1,26.622-8.639Zm6.494,7.116a.951.951,0,0,0,.7-.244.9.9,0,0,0,.241-.682h2.006A2.375,2.375,0,0,1,35.252-.6a3.01,3.01,0,0,1-2.085.724,3.048,3.048,0,0,1-2.361-.939,3.7,3.7,0,0,1-.863-2.6V-3.5a4.183,4.183,0,0,1,.384-1.838,2.8,2.8,0,0,1,1.108-1.225A3.3,3.3,0,0,1,33.147-7a2.972,2.972,0,0,1,2.126.743,2.634,2.634,0,0,1,.787,2.012H34.055a1.174,1.174,0,0,0-.26-.819.9.9,0,0,0-.7-.286q-.832,0-.971,1.06a7.48,7.48,0,0,0-.044.927,2.938,2.938,0,0,0,.248,1.435A.857.857,0,0,0,33.116-1.523ZM40.834,0a2.415,2.415,0,0,1-.2-.616,1.989,1.989,0,0,1-1.65.743,2.437,2.437,0,0,1-1.65-.587,1.869,1.869,0,0,1-.679-1.476,1.921,1.921,0,0,1,.825-1.688,4.2,4.2,0,0,1,2.4-.571h.66v-.364q0-.95-.819-.95a.669.669,0,0,0-.762.753H36.816a1.918,1.918,0,0,1,.847-1.617A3.561,3.561,0,0,1,39.825-7a3.122,3.122,0,0,1,2.076.641A2.229,2.229,0,0,1,42.682-4.6v3.041a3.114,3.114,0,0,0,.292,1.447V0ZM39.5-1.4a1.193,1.193,0,0,0,.663-.171,1.074,1.074,0,0,0,.378-.387v-1.1h-.622q-1.117,0-1.117,1a.612.612,0,0,0,.2.473A.712.712,0,0,0,39.5-1.4ZM45.83-6.868l.07.806A2.329,2.329,0,0,1,47.861-7a1.96,1.96,0,0,1,1.6.641,3.052,3.052,0,0,1,.549,1.93V0H47.868V-4.335a1.159,1.159,0,0,0-.209-.765.969.969,0,0,0-.762-.244,1.02,1.02,0,0,0-.933.5V0H43.824V-6.868Zm7.858-1.708v1.708h1.13v1.485h-1.13v3.142a.8.8,0,0,0,.14.54.749.749,0,0,0,.552.152,3.138,3.138,0,0,0,.533-.038v1.53a3.948,3.948,0,0,1-1.206.184,2.241,2.241,0,0,1-1.631-.521,2.133,2.133,0,0,1-.527-1.581V-5.383h-.876V-6.868h.876V-8.576Zm5.294,8.7a3.531,3.531,0,0,1-2.558-.943,3.255,3.255,0,0,1-.978-2.453v-.178a4.218,4.218,0,0,1,.39-1.86,2.857,2.857,0,0,1,1.139-1.247A3.44,3.44,0,0,1,58.754-7a2.973,2.973,0,0,1,2.285.9,3.53,3.53,0,0,1,.838,2.5v.832H57.624a1.542,1.542,0,0,0,.5.908,1.492,1.492,0,0,0,1,.33,1.923,1.923,0,0,0,1.587-.711l.978,1.155A2.733,2.733,0,0,1,60.56-.2,3.829,3.829,0,0,1,58.982.127Zm-.241-5.472q-.939,0-1.117,1.244h2.158v-.165a1.06,1.06,0,0,0-.26-.8A1.036,1.036,0,0,0,58.741-5.345Z" transform="translate(15.815 22.831)" fill="#fff"/>
      <circle id="Elipse_3979" data-name="Elipse 3979" cx="12.036" cy="12.036" r="12.036" transform="translate(35.842 71.577)" fill="#732be5"/>
      <circle id="Elipse_3980" data-name="Elipse 3980" cx="12.036" cy="12.036" r="12.036" transform="translate(388.914 71.577)" fill="#732be5"/>
      <line id="Línea_141" data-name="Línea 141" x2="454.378" transform="translate(48.572 83.613)" fill="none" stroke="#732be5" stroke-miterlimit="10" stroke-width="5"/>
      <path id="Trazado_102688" data-name="Trazado 102688" d="M8.176-3.129a3.375,3.375,0,0,1-.521,1.7A3.141,3.141,0,0,1,6.319-.279,4.548,4.548,0,0,1,4.354.127,3.629,3.629,0,0,1,1.485-1.06,4.9,4.9,0,0,1,.438-4.412v-.457A5.594,5.594,0,0,1,.911-7.246,3.583,3.583,0,0,1,2.272-8.82a3.8,3.8,0,0,1,2.057-.555,3.984,3.984,0,0,1,2.7.885A3.5,3.5,0,0,1,8.195-6.049H5.973a1.655,1.655,0,0,0-.425-1.212A1.749,1.749,0,0,0,4.329-7.63a1.331,1.331,0,0,0-1.219.622A4,4,0,0,0,2.7-5.021v.654a4.424,4.424,0,0,0,.371,2.114,1.359,1.359,0,0,0,1.279.635A1.711,1.711,0,0,0,5.529-1.98,1.536,1.536,0,0,0,5.96-3.129ZM11.388,0H9.242V-9.75h2.146Zm3.574,0H12.816V-6.868h2.146ZM12.689-8.639a.955.955,0,0,1,.33-.749,1.245,1.245,0,0,1,.857-.292,1.245,1.245,0,0,1,.857.292.955.955,0,0,1,.33.749.955.955,0,0,1-.33.749,1.245,1.245,0,0,1-.857.292,1.245,1.245,0,0,1-.857-.292A.955.955,0,0,1,12.689-8.639ZM19.6.127a3.531,3.531,0,0,1-2.558-.943,3.255,3.255,0,0,1-.978-2.453v-.178a4.218,4.218,0,0,1,.39-1.86A2.857,2.857,0,0,1,17.6-6.554,3.44,3.44,0,0,1,19.373-7a2.973,2.973,0,0,1,2.285.9,3.53,3.53,0,0,1,.838,2.5v.832H18.243a1.542,1.542,0,0,0,.5.908,1.492,1.492,0,0,0,1,.33,1.923,1.923,0,0,0,1.587-.711l.978,1.155A2.733,2.733,0,0,1,21.179-.2,3.829,3.829,0,0,1,19.6.127ZM19.36-5.345q-.939,0-1.117,1.244H20.4v-.165a1.06,1.06,0,0,0-.26-.8A1.036,1.036,0,0,0,19.36-5.345Zm5.96-1.523.07.806A2.329,2.329,0,0,1,27.352-7a1.96,1.96,0,0,1,1.6.641,3.052,3.052,0,0,1,.549,1.93V0H27.358V-4.335a1.159,1.159,0,0,0-.209-.765.969.969,0,0,0-.762-.244,1.02,1.02,0,0,0-.933.5V0H23.315V-6.868Zm7.858-1.708v1.708h1.13v1.485h-1.13v3.142a.8.8,0,0,0,.14.54.749.749,0,0,0,.552.152,3.138,3.138,0,0,0,.533-.038v1.53A3.948,3.948,0,0,1,33.2.127a2.241,2.241,0,0,1-1.631-.521,2.133,2.133,0,0,1-.527-1.581V-5.383h-.876V-6.868h.876V-8.576Zm5.294,8.7a3.531,3.531,0,0,1-2.558-.943,3.255,3.255,0,0,1-.978-2.453v-.178a4.218,4.218,0,0,1,.39-1.86,2.857,2.857,0,0,1,1.139-1.247A3.44,3.44,0,0,1,38.245-7a2.973,2.973,0,0,1,2.285.9,3.53,3.53,0,0,1,.838,2.5v.832H37.115a1.542,1.542,0,0,0,.5.908,1.492,1.492,0,0,0,1,.33,1.923,1.923,0,0,0,1.587-.711l.978,1.155A2.733,2.733,0,0,1,40.051-.2,3.829,3.829,0,0,1,38.473.127Zm-.241-5.472q-.939,0-1.117,1.244h2.158v-.165a1.06,1.06,0,0,0-.26-.8A1.036,1.036,0,0,0,38.232-5.345ZM45.824-1.93a.494.494,0,0,0-.286-.438,4.345,4.345,0,0,0-1.085-.343,4.95,4.95,0,0,1-1.32-.467,2.212,2.212,0,0,1-.793-.7,1.675,1.675,0,0,1-.273-.946,1.9,1.9,0,0,1,.781-1.558A3.216,3.216,0,0,1,44.891-7a3.563,3.563,0,0,1,2.184.616A1.925,1.925,0,0,1,47.9-4.761H45.754q0-.825-.87-.825a.862.862,0,0,0-.565.187.58.58,0,0,0-.229.467.532.532,0,0,0,.279.463,2.639,2.639,0,0,0,.892.292,7.707,7.707,0,0,1,1.076.273,1.955,1.955,0,0,1,1.549,1.911,1.8,1.8,0,0,1-.835,1.53,3.66,3.66,0,0,1-2.161.59A3.735,3.735,0,0,1,43.316-.19a2.632,2.632,0,0,1-1.079-.863A1.955,1.955,0,0,1,41.85-2.2h2a.827.827,0,0,0,.317.7,1.306,1.306,0,0,0,.781.219,1.027,1.027,0,0,0,.657-.178A.569.569,0,0,0,45.824-1.93Z" transform="translate(377.157 18.336)" fill="#fff"/>
      <line id="Línea_142" data-name="Línea 142" y1="47.703" transform="translate(47.878 34.627)" fill="none" stroke="#732be5" stroke-miterlimit="10" stroke-width="5" stroke-dasharray="12"/>
      <line id="Línea_143" data-name="Línea 143" y1="47.703" transform="translate(400.164 22.486)" fill="none" stroke="#732be5" stroke-miterlimit="10" stroke-width="5" stroke-dasharray="12"/>
      <g id="Grupo_53649" data-name="Grupo 53649" transform="translate(143.93 71.577)">
        <g id="Grupo_53648" data-name="Grupo 53648">
          <rect id="Rectángulo_5067" data-name="Rectángulo 5067" width="161.504" height="30.131" transform="translate(0 57.28)" fill="#732be5"/>
          <circle id="Elipse_3981" data-name="Elipse 3981" cx="12.036" cy="12.036" r="12.036" transform="translate(68.716)" fill="#732be5"/>
          <path id="Trazado_102689" data-name="Trazado 102689" d="M8.176-3.129a3.375,3.375,0,0,1-.521,1.7A3.141,3.141,0,0,1,6.319-.279,4.548,4.548,0,0,1,4.354.127,3.629,3.629,0,0,1,1.485-1.06,4.9,4.9,0,0,1,.438-4.412v-.457A5.594,5.594,0,0,1,.911-7.246,3.583,3.583,0,0,1,2.272-8.82a3.8,3.8,0,0,1,2.057-.555,3.984,3.984,0,0,1,2.7.885A3.5,3.5,0,0,1,8.195-6.049H5.973a1.655,1.655,0,0,0-.425-1.212A1.749,1.749,0,0,0,4.329-7.63a1.331,1.331,0,0,0-1.219.622A4,4,0,0,0,2.7-5.021v.654a4.424,4.424,0,0,0,.371,2.114,1.359,1.359,0,0,0,1.279.635A1.711,1.711,0,0,0,5.529-1.98,1.536,1.536,0,0,0,5.96-3.129ZM13,0a2.415,2.415,0,0,1-.2-.616,1.989,1.989,0,0,1-1.65.743A2.437,2.437,0,0,1,9.5-.46a1.869,1.869,0,0,1-.679-1.476,1.921,1.921,0,0,1,.825-1.688,4.2,4.2,0,0,1,2.4-.571h.66v-.364q0-.95-.819-.95a.669.669,0,0,0-.762.753H8.982a1.918,1.918,0,0,1,.847-1.617A3.561,3.561,0,0,1,11.991-7a3.122,3.122,0,0,1,2.076.641A2.229,2.229,0,0,1,14.847-4.6v3.041a3.114,3.114,0,0,0,.292,1.447V0ZM11.661-1.4a1.193,1.193,0,0,0,.663-.171,1.074,1.074,0,0,0,.378-.387v-1.1H12.08q-1.117,0-1.117,1a.612.612,0,0,0,.2.473A.712.712,0,0,0,11.661-1.4ZM18-6.868l.07.806A2.329,2.329,0,0,1,20.027-7a1.96,1.96,0,0,1,1.6.641,3.052,3.052,0,0,1,.549,1.93V0H20.033V-4.335a1.159,1.159,0,0,0-.209-.765.969.969,0,0,0-.762-.244,1.02,1.02,0,0,0-.933.5V0H15.99V-6.868ZM27.231,0a2.415,2.415,0,0,1-.2-.616,1.989,1.989,0,0,1-1.65.743,2.437,2.437,0,0,1-1.65-.587,1.869,1.869,0,0,1-.679-1.476,1.921,1.921,0,0,1,.825-1.688,4.2,4.2,0,0,1,2.4-.571h.66v-.364q0-.95-.819-.95a.669.669,0,0,0-.762.753H23.213a1.918,1.918,0,0,1,.847-1.617A3.561,3.561,0,0,1,26.222-7a3.122,3.122,0,0,1,2.076.641A2.229,2.229,0,0,1,29.079-4.6v3.041a3.114,3.114,0,0,0,.292,1.447V0ZM25.892-1.4a1.193,1.193,0,0,0,.663-.171,1.074,1.074,0,0,0,.378-.387v-1.1h-.622q-1.117,0-1.117,1a.612.612,0,0,0,.2.473A.712.712,0,0,0,25.892-1.4ZM32.519,0H30.374V-9.75h2.146ZM36.8-3.485a4.2,4.2,0,0,1,.7-2.571A2.319,2.319,0,0,1,39.476-7a1.972,1.972,0,0,1,1.549.724V-9.75H43.17V0H41.247l-.108-.736a2.026,2.026,0,0,1-1.676.863,2.315,2.315,0,0,1-1.942-.939A4.329,4.329,0,0,1,36.8-3.485Zm2.139.133q0,1.828,1.066,1.828a1.053,1.053,0,0,0,1.016-.6V-4.735a1.025,1.025,0,0,0-1-.609q-.99,0-1.073,1.6ZM47.709.127a3.531,3.531,0,0,1-2.558-.943,3.255,3.255,0,0,1-.978-2.453v-.178a4.218,4.218,0,0,1,.39-1.86A2.857,2.857,0,0,1,45.7-6.554,3.44,3.44,0,0,1,47.48-7a2.973,2.973,0,0,1,2.285.9,3.53,3.53,0,0,1,.838,2.5v.832H46.351a1.542,1.542,0,0,0,.5.908,1.492,1.492,0,0,0,1,.33,1.923,1.923,0,0,0,1.587-.711l.978,1.155A2.733,2.733,0,0,1,49.286-.2,3.829,3.829,0,0,1,47.709.127Zm-.241-5.472q-.939,0-1.117,1.244h2.158v-.165a1.06,1.06,0,0,0-.26-.8A1.036,1.036,0,0,0,47.468-5.345Zm6.963,1.86a4.2,4.2,0,0,1,.7-2.571A2.319,2.319,0,0,1,57.1-7a1.972,1.972,0,0,1,1.549.724V-9.75H60.8V0H58.875l-.108-.736a2.026,2.026,0,0,1-1.676.863,2.315,2.315,0,0,1-1.942-.939A4.329,4.329,0,0,1,54.431-3.485Zm2.139.133q0,1.828,1.066,1.828a1.053,1.053,0,0,0,1.016-.6V-4.735a1.025,1.025,0,0,0-1-.609q-.99,0-1.073,1.6ZM64.27,0H62.125V-6.868H64.27ZM62-8.639a.955.955,0,0,1,.33-.749,1.245,1.245,0,0,1,.857-.292,1.245,1.245,0,0,1,.857.292.955.955,0,0,1,.33.749.955.955,0,0,1-.33.749,1.245,1.245,0,0,1-.857.292,1.245,1.245,0,0,1-.857-.292A.955.955,0,0,1,62-8.639ZM69.183-1.93a.494.494,0,0,0-.286-.438,4.345,4.345,0,0,0-1.085-.343,4.95,4.95,0,0,1-1.32-.467,2.212,2.212,0,0,1-.793-.7,1.675,1.675,0,0,1-.273-.946,1.9,1.9,0,0,1,.781-1.558A3.216,3.216,0,0,1,68.25-7a3.563,3.563,0,0,1,2.184.616,1.925,1.925,0,0,1,.825,1.619H69.113q0-.825-.87-.825a.862.862,0,0,0-.565.187.58.58,0,0,0-.229.467.532.532,0,0,0,.279.463,2.639,2.639,0,0,0,.892.292A7.707,7.707,0,0,1,69.7-3.9a1.955,1.955,0,0,1,1.549,1.911,1.8,1.8,0,0,1-.835,1.53,3.66,3.66,0,0,1-2.161.59A3.735,3.735,0,0,1,66.676-.19,2.632,2.632,0,0,1,65.6-1.054,1.955,1.955,0,0,1,65.209-2.2h2a.827.827,0,0,0,.317.7,1.306,1.306,0,0,0,.781.219,1.027,1.027,0,0,0,.657-.178A.569.569,0,0,0,69.183-1.93Zm5.554-6.646v1.708h1.13v1.485h-1.13v3.142a.8.8,0,0,0,.14.54.749.749,0,0,0,.552.152,3.138,3.138,0,0,0,.533-.038v1.53a3.948,3.948,0,0,1-1.206.184,2.241,2.241,0,0,1-1.631-.521A2.133,2.133,0,0,1,72.6-1.974V-5.383h-.876V-6.868H72.6V-8.576Zm6.125,3.644-.7-.051a1.266,1.266,0,0,0-1.295.635V0H76.724V-6.868H78.73l.07.882A1.656,1.656,0,0,1,80.3-7a2.086,2.086,0,0,1,.6.076ZM83.891,0H81.745V-6.868h2.146ZM81.618-8.639a.955.955,0,0,1,.33-.749,1.245,1.245,0,0,1,.857-.292,1.245,1.245,0,0,1,.857.292.955.955,0,0,1,.33.749.955.955,0,0,1-.33.749,1.245,1.245,0,0,1-.857.292,1.245,1.245,0,0,1-.857-.292A.955.955,0,0,1,81.618-8.639Zm9.966,5.262a4.186,4.186,0,0,1-.7,2.6,2.339,2.339,0,0,1-1.968.908A2.03,2.03,0,0,1,87.229-.7l-.089.7H85.224V-9.75h2.139v3.434A1.958,1.958,0,0,1,88.905-7a2.339,2.339,0,0,1,1.98.92,4.208,4.208,0,0,1,.7,2.59Zm-2.146-.136a2.792,2.792,0,0,0-.263-1.41.888.888,0,0,0-.809-.421,1.024,1.024,0,0,0-1,.551v2.725a1.03,1.03,0,0,0,1.016.545.908.908,0,0,0,.958-.735A5.279,5.279,0,0,0,89.438-3.513ZM96.618-.743a2.205,2.205,0,0,1-1.834.87A2.163,2.163,0,0,1,93.073-.53a2.763,2.763,0,0,1-.581-1.888v-4.45h2.139v4.462a.769.769,0,0,0,.857.882,1.118,1.118,0,0,0,1.047-.527V-6.868h2.152V0H96.681Zm6.145-.781a.951.951,0,0,0,.7-.244.9.9,0,0,0,.241-.682h2.006A2.375,2.375,0,0,1,104.9-.6a3.01,3.01,0,0,1-2.085.724,3.048,3.048,0,0,1-2.361-.939,3.7,3.7,0,0,1-.863-2.6V-3.5a4.183,4.183,0,0,1,.384-1.838,2.8,2.8,0,0,1,1.108-1.225A3.3,3.3,0,0,1,102.794-7a2.972,2.972,0,0,1,2.126.743,2.634,2.634,0,0,1,.787,2.012H103.7a1.174,1.174,0,0,0-.26-.819.9.9,0,0,0-.7-.286q-.832,0-.971,1.06a7.48,7.48,0,0,0-.044.927,2.938,2.938,0,0,0,.248,1.435A.857.857,0,0,0,102.762-1.523ZM108.869,0h-2.146V-6.868h2.146ZM106.6-8.639a.955.955,0,0,1,.33-.749,1.245,1.245,0,0,1,.857-.292,1.245,1.245,0,0,1,.857.292.955.955,0,0,1,.33.749.955.955,0,0,1-.33.749,1.245,1.245,0,0,1-.857.292,1.245,1.245,0,0,1-.857-.292A.955.955,0,0,1,106.6-8.639Zm3.32,5.142a4.054,4.054,0,0,1,.4-1.831,2.86,2.86,0,0,1,1.149-1.235A3.46,3.46,0,0,1,113.223-7a3.158,3.158,0,0,1,2.431.955,3.666,3.666,0,0,1,.889,2.6v.076a3.557,3.557,0,0,1-.892,2.549,3.166,3.166,0,0,1-2.415.943,3.2,3.2,0,0,1-2.355-.879,3.439,3.439,0,0,1-.958-2.384Zm2.139.133a2.556,2.556,0,0,0,.3,1.4.994.994,0,0,0,.882.444q1.143,0,1.168-1.758V-3.5q0-1.847-1.181-1.847-1.073,0-1.162,1.593Zm1.46-6.386h2.26L114.01-7.757l-1.746,0Zm5.935,2.882.07.806A2.329,2.329,0,0,1,121.481-7a1.96,1.96,0,0,1,1.6.641,3.052,3.052,0,0,1,.549,1.93V0h-2.146V-4.335a1.159,1.159,0,0,0-.209-.765.969.969,0,0,0-.762-.244,1.02,1.02,0,0,0-.933.5V0h-2.139V-6.868Z" transform="translate(16.636 75.616)" fill="#fff"/>
          <line id="Línea_144" data-name="Línea 144" y1="47.703" transform="translate(80.752 12.676)" fill="none" stroke="#732be5" stroke-miterlimit="10" stroke-width="5" stroke-dasharray="12"/>
        </g>
      </g>
    </g>
    <path id="Trazado_102681" data-name="Trazado 102681" d="M89.9,14.667a4.673,4.673,0,0,1-.721,2.36,4.35,4.35,0,0,1-1.85,1.586,6.3,6.3,0,0,1-2.72.563,5.025,5.025,0,0,1-3.973-1.644,6.786,6.786,0,0,1-1.45-4.641v-.633a7.746,7.746,0,0,1,.655-3.292,4.961,4.961,0,0,1,1.885-2.18,5.26,5.26,0,0,1,2.848-.769,5.516,5.516,0,0,1,3.744,1.226,4.844,4.844,0,0,1,1.608,3.379H86.853a2.292,2.292,0,0,0-.589-1.679,2.422,2.422,0,0,0-1.687-.51,1.843,1.843,0,0,0-1.687.861,5.536,5.536,0,0,0-.562,2.751v.905a6.126,6.126,0,0,0,.514,2.927,1.882,1.882,0,0,0,1.771.879,2.369,2.369,0,0,0,1.626-.5,2.126,2.126,0,0,0,.6-1.591ZM96.583,19a3.344,3.344,0,0,1-.281-.853,2.754,2.754,0,0,1-2.285,1.028,3.374,3.374,0,0,1-2.285-.813,2.588,2.588,0,0,1-.94-2.043,2.66,2.66,0,0,1,1.143-2.338,5.821,5.821,0,0,1,3.322-.791h.914v-.5q0-1.316-1.134-1.316a.927.927,0,0,0-1.055,1.042H91.019a2.655,2.655,0,0,1,1.173-2.239,4.931,4.931,0,0,1,2.993-.86,4.323,4.323,0,0,1,2.874.888,3.086,3.086,0,0,1,1.081,2.435v4.21a4.311,4.311,0,0,0,.4,2V19Zm-1.854-1.934a1.652,1.652,0,0,0,.918-.237,1.487,1.487,0,0,0,.523-.536V14.772h-.861q-1.547,0-1.547,1.389a.848.848,0,0,0,.272.655A.986.986,0,0,0,94.728,17.066Zm5.678-2.892a5.809,5.809,0,0,1,.976-3.56,3.211,3.211,0,0,1,2.725-1.3,2.731,2.731,0,0,1,2.145,1V5.5h2.971V19h-2.663l-.149-1.02a2.8,2.8,0,0,1-2.32,1.2,3.205,3.205,0,0,1-2.689-1.3A5.993,5.993,0,0,1,100.406,14.175Zm2.962.185q0,2.531,1.477,2.531a1.458,1.458,0,0,0,1.406-.826V12.443a1.419,1.419,0,0,0-1.389-.844q-1.371,0-1.485,2.215Zm12.138,4.816a4.889,4.889,0,0,1-3.542-1.305,4.507,4.507,0,0,1-1.354-3.4v-.246a5.84,5.84,0,0,1,.541-2.575,3.955,3.955,0,0,1,1.578-1.727,4.763,4.763,0,0,1,2.461-.611,4.117,4.117,0,0,1,3.164,1.244,4.887,4.887,0,0,1,1.16,3.467v1.151h-5.889a2.135,2.135,0,0,0,.694,1.257,2.066,2.066,0,0,0,1.389.457,2.662,2.662,0,0,0,2.2-.984l1.354,1.6a3.784,3.784,0,0,1-1.569,1.217A5.3,5.3,0,0,1,115.505,19.176Zm-.334-7.576q-1.3,0-1.547,1.723h2.988v-.229a1.467,1.467,0,0,0-.36-1.1A1.434,1.434,0,0,0,115.171,11.6Zm8.253-2.109.1,1.116a3.225,3.225,0,0,1,2.716-1.292,2.713,2.713,0,0,1,2.219.888,4.226,4.226,0,0,1,.76,2.672V19h-2.971V13a1.6,1.6,0,0,0-.29-1.059A1.342,1.342,0,0,0,124.9,11.6a1.413,1.413,0,0,0-1.292.686V19h-2.962V9.49ZM136.212,19a3.344,3.344,0,0,1-.281-.853,2.754,2.754,0,0,1-2.285,1.028,3.374,3.374,0,0,1-2.285-.813,2.588,2.588,0,0,1-.94-2.043,2.66,2.66,0,0,1,1.143-2.338,5.821,5.821,0,0,1,3.322-.791h.914v-.5q0-1.316-1.134-1.316a.927.927,0,0,0-1.055,1.042h-2.962a2.655,2.655,0,0,1,1.173-2.239,4.931,4.931,0,0,1,2.993-.86,4.323,4.323,0,0,1,2.874.888,3.086,3.086,0,0,1,1.081,2.435v4.21a4.311,4.311,0,0,0,.4,2V19Zm-1.854-1.934a1.652,1.652,0,0,0,.918-.237,1.487,1.487,0,0,0,.523-.536V14.772h-.861q-1.547,0-1.547,1.389a.848.848,0,0,0,.272.655A.986.986,0,0,0,134.358,17.066Zm10.16-2.892a5.809,5.809,0,0,1,.976-3.56,3.211,3.211,0,0,1,2.725-1.3,2.731,2.731,0,0,1,2.145,1V5.5h2.971V19H150.67l-.149-1.02a2.8,2.8,0,0,1-2.32,1.2,3.205,3.205,0,0,1-2.689-1.3A5.993,5.993,0,0,1,144.518,14.175Zm2.962.185q0,2.531,1.477,2.531a1.458,1.458,0,0,0,1.406-.826V12.443a1.419,1.419,0,0,0-1.389-.844q-1.371,0-1.485,2.215Zm12.138,4.816a4.889,4.889,0,0,1-3.542-1.305,4.507,4.507,0,0,1-1.354-3.4v-.246a5.84,5.84,0,0,1,.541-2.575,3.955,3.955,0,0,1,1.578-1.727,4.763,4.763,0,0,1,2.461-.611,4.117,4.117,0,0,1,3.164,1.244,4.887,4.887,0,0,1,1.16,3.467v1.151h-5.889a2.135,2.135,0,0,0,.694,1.257,2.066,2.066,0,0,0,1.389.457,2.662,2.662,0,0,0,2.2-.984l1.354,1.6a3.784,3.784,0,0,1-1.569,1.217A5.3,5.3,0,0,1,159.618,19.176Zm-.334-7.576q-1.3,0-1.547,1.723h2.988v-.229a1.467,1.467,0,0,0-.36-1.1A1.434,1.434,0,0,0,159.284,11.6Zm14.036,5.291a1.317,1.317,0,0,0,.967-.338,1.241,1.241,0,0,0,.334-.945H177.4a3.288,3.288,0,0,1-1.121,2.566,4.168,4.168,0,0,1-2.887,1,4.22,4.22,0,0,1-3.27-1.3,5.125,5.125,0,0,1-1.2-3.6v-.123a5.792,5.792,0,0,1,.532-2.544,3.872,3.872,0,0,1,1.534-1.7,4.573,4.573,0,0,1,2.373-.593,4.116,4.116,0,0,1,2.944,1.028,3.647,3.647,0,0,1,1.09,2.786h-2.777A1.626,1.626,0,0,0,174.26,12a1.244,1.244,0,0,0-.967-.4q-1.151,0-1.345,1.468a10.357,10.357,0,0,0-.062,1.283,4.068,4.068,0,0,0,.343,1.986A1.187,1.187,0,0,0,173.32,16.891Zm4.957-2.733a5.613,5.613,0,0,1,.554-2.536,3.96,3.96,0,0,1,1.591-1.709,4.791,4.791,0,0,1,2.435-.6,4.373,4.373,0,0,1,3.366,1.323,5.076,5.076,0,0,1,1.23,3.6v.105a4.925,4.925,0,0,1-1.235,3.529,4.384,4.384,0,0,1-3.344,1.305,4.434,4.434,0,0,1-3.261-1.217,4.761,4.761,0,0,1-1.327-3.3Zm2.962.185a3.538,3.538,0,0,0,.413,1.934,1.376,1.376,0,0,0,1.222.615q1.582,0,1.617-2.435v-.3q0-2.558-1.635-2.558-1.485,0-1.608,2.206ZM191.557,9.49l.1,1.116a3.27,3.27,0,0,1,2.716-1.292,2.407,2.407,0,0,1,2.435,1.433A3.165,3.165,0,0,1,199.6,9.314q2.892,0,2.971,3.5V19H199.6V13a1.813,1.813,0,0,0-.246-1.063,1.048,1.048,0,0,0-.9-.334,1.4,1.4,0,0,0-1.31.782l.009.123V19h-2.971V13.015a1.906,1.906,0,0,0-.237-1.081,1.045,1.045,0,0,0-.905-.334,1.42,1.42,0,0,0-1.3.782V19H188.78V9.49Zm17.306,9.686a4.889,4.889,0,0,1-3.542-1.305,4.507,4.507,0,0,1-1.354-3.4v-.246a5.84,5.84,0,0,1,.541-2.575,3.955,3.955,0,0,1,1.578-1.727,4.763,4.763,0,0,1,2.461-.611,4.117,4.117,0,0,1,3.164,1.244,4.887,4.887,0,0,1,1.16,3.467v1.151h-5.889a2.135,2.135,0,0,0,.694,1.257,2.066,2.066,0,0,0,1.389.457,2.662,2.662,0,0,0,2.2-.984l1.354,1.6a3.784,3.784,0,0,1-1.569,1.217A5.3,5.3,0,0,1,208.863,19.176Zm-.334-7.576q-1.3,0-1.547,1.723h2.988v-.229a1.467,1.467,0,0,0-.36-1.1A1.434,1.434,0,0,0,208.529,11.6Zm11.285.571-.976-.07a1.752,1.752,0,0,0-1.793.879V19h-2.962V9.49h2.777l.1,1.222a2.294,2.294,0,0,1,2.083-1.4,2.888,2.888,0,0,1,.826.105Zm4.922,4.72a1.317,1.317,0,0,0,.967-.338,1.241,1.241,0,0,0,.334-.945h2.777a3.288,3.288,0,0,1-1.121,2.566,4.168,4.168,0,0,1-2.887,1,4.22,4.22,0,0,1-3.27-1.3,5.125,5.125,0,0,1-1.2-3.6v-.123a5.792,5.792,0,0,1,.532-2.544,3.872,3.872,0,0,1,1.534-1.7,4.573,4.573,0,0,1,2.373-.593,4.116,4.116,0,0,1,2.944,1.028,3.647,3.647,0,0,1,1.09,2.786h-2.777a1.626,1.626,0,0,0-.36-1.134,1.244,1.244,0,0,0-.967-.4q-1.151,0-1.345,1.468a10.357,10.357,0,0,0-.062,1.283,4.068,4.068,0,0,0,.343,1.986A1.187,1.187,0,0,0,224.736,16.891ZM233.191,19H230.22V9.49h2.971ZM230.044,7.038A1.322,1.322,0,0,1,230.5,6a1.943,1.943,0,0,1,2.373,0,1.322,1.322,0,0,1,.457,1.037,1.322,1.322,0,0,1-.457,1.037,1.943,1.943,0,0,1-2.373,0A1.322,1.322,0,0,1,230.044,7.038Zm4.6,7.119a5.613,5.613,0,0,1,.554-2.536,3.96,3.96,0,0,1,1.591-1.709,4.791,4.791,0,0,1,2.435-.6,4.373,4.373,0,0,1,3.366,1.323,5.076,5.076,0,0,1,1.23,3.6v.105a4.925,4.925,0,0,1-1.235,3.529,4.384,4.384,0,0,1-3.344,1.305,4.434,4.434,0,0,1-3.261-1.217,4.761,4.761,0,0,1-1.327-3.3Zm2.962.185a3.538,3.538,0,0,0,.413,1.934,1.376,1.376,0,0,0,1.222.615q1.582,0,1.617-2.435v-.3q0-2.558-1.635-2.558-1.485,0-1.608,2.206Zm15.451-7.216V9.49h1.564v2.057h-1.564V15.9a1.111,1.111,0,0,0,.193.747,1.037,1.037,0,0,0,.765.211,4.345,4.345,0,0,0,.738-.053v2.118a5.466,5.466,0,0,1-1.67.255,3.1,3.1,0,0,1-2.259-.721,2.954,2.954,0,0,1-.729-2.188v-4.72h-1.213V9.49h1.213V7.126Zm8.481,5.045-.976-.07a1.752,1.752,0,0,0-1.793.879V19h-2.962V9.49h2.777l.1,1.222a2.294,2.294,0,0,1,2.083-1.4,2.888,2.888,0,0,1,.826.105ZM267.7,19a3.344,3.344,0,0,1-.281-.853,2.754,2.754,0,0,1-2.285,1.028,3.374,3.374,0,0,1-2.285-.813,2.588,2.588,0,0,1-.94-2.043,2.66,2.66,0,0,1,1.143-2.338,5.821,5.821,0,0,1,3.322-.791h.914v-.5q0-1.316-1.134-1.316a.927.927,0,0,0-1.055,1.042h-2.962a2.655,2.655,0,0,1,1.173-2.239,4.931,4.931,0,0,1,2.993-.86,4.323,4.323,0,0,1,2.874.888,3.086,3.086,0,0,1,1.081,2.435v4.21a4.311,4.311,0,0,0,.4,2V19Zm-1.854-1.934a1.652,1.652,0,0,0,.918-.237,1.487,1.487,0,0,0,.523-.536V14.772h-.861q-1.547,0-1.547,1.389a.848.848,0,0,0,.272.655A.986.986,0,0,0,265.842,17.066Zm5.678-2.892a5.809,5.809,0,0,1,.976-3.56,3.211,3.211,0,0,1,2.725-1.3,2.731,2.731,0,0,1,2.145,1V5.5h2.971V19h-2.663l-.149-1.02a2.8,2.8,0,0,1-2.32,1.2,3.205,3.205,0,0,1-2.689-1.3A5.993,5.993,0,0,1,271.52,14.175Zm2.962.185q0,2.531,1.477,2.531a1.458,1.458,0,0,0,1.406-.826V12.443a1.419,1.419,0,0,0-1.389-.844q-1.371,0-1.485,2.215ZM285.143,19h-2.971V9.49h2.971ZM282,7.038A1.322,1.322,0,0,1,282.454,6a1.943,1.943,0,0,1,2.373,0,1.322,1.322,0,0,1,.457,1.037,1.322,1.322,0,0,1-.457,1.037,1.943,1.943,0,0,1-2.373,0A1.322,1.322,0,0,1,282,7.038Zm8.991,9.853a1.317,1.317,0,0,0,.967-.338,1.241,1.241,0,0,0,.334-.945h2.777a3.288,3.288,0,0,1-1.121,2.566,4.168,4.168,0,0,1-2.887,1,4.22,4.22,0,0,1-3.27-1.3,5.125,5.125,0,0,1-1.2-3.6v-.123a5.792,5.792,0,0,1,.532-2.544,3.872,3.872,0,0,1,1.534-1.7,4.573,4.573,0,0,1,2.373-.593,4.116,4.116,0,0,1,2.944,1.028,3.647,3.647,0,0,1,1.09,2.786h-2.777a1.626,1.626,0,0,0-.36-1.134,1.244,1.244,0,0,0-.967-.4q-1.151,0-1.345,1.468a10.357,10.357,0,0,0-.062,1.283,4.068,4.068,0,0,0,.343,1.986A1.187,1.187,0,0,0,290.988,16.891ZM299.443,19h-2.971V9.49h2.971ZM296.3,7.038A1.322,1.322,0,0,1,296.753,6a1.943,1.943,0,0,1,2.373,0,1.322,1.322,0,0,1,.457,1.037,1.322,1.322,0,0,1-.457,1.037,1.943,1.943,0,0,1-2.373,0A1.322,1.322,0,0,1,296.3,7.038Zm4.6,7.119a5.613,5.613,0,0,1,.554-2.536,3.96,3.96,0,0,1,1.591-1.709,4.791,4.791,0,0,1,2.435-.6,4.373,4.373,0,0,1,3.366,1.323,5.076,5.076,0,0,1,1.23,3.6v.105a4.925,4.925,0,0,1-1.235,3.529,4.384,4.384,0,0,1-3.344,1.305,4.434,4.434,0,0,1-3.261-1.217,4.761,4.761,0,0,1-1.327-3.3Zm2.962.185a3.538,3.538,0,0,0,.413,1.934,1.376,1.376,0,0,0,1.222.615q1.582,0,1.617-2.435v-.3q0-2.558-1.635-2.558-1.485,0-1.608,2.206ZM314.094,9.49l.1,1.116a3.225,3.225,0,0,1,2.716-1.292,2.713,2.713,0,0,1,2.219.888,4.226,4.226,0,0,1,.76,2.672V19h-2.971V13a1.6,1.6,0,0,0-.29-1.059,1.342,1.342,0,0,0-1.055-.338,1.413,1.413,0,0,0-1.292.686V19h-2.962V9.49ZM326.882,19a3.344,3.344,0,0,1-.281-.853,2.754,2.754,0,0,1-2.285,1.028,3.374,3.374,0,0,1-2.285-.813,2.588,2.588,0,0,1-.94-2.043,2.66,2.66,0,0,1,1.143-2.338,5.821,5.821,0,0,1,3.322-.791h.914v-.5q0-1.316-1.134-1.316a.927.927,0,0,0-1.055,1.042h-2.962a2.655,2.655,0,0,1,1.173-2.239,4.931,4.931,0,0,1,2.993-.86,4.323,4.323,0,0,1,2.874.888,3.086,3.086,0,0,1,1.081,2.435v4.21a4.311,4.311,0,0,0,.4,2V19Zm-1.854-1.934a1.652,1.652,0,0,0,.918-.237,1.487,1.487,0,0,0,.523-.536V14.772h-.861q-1.547,0-1.547,1.389a.848.848,0,0,0,.272.655A.986.986,0,0,0,325.028,17.066ZM334.2,19h-2.971V5.5H334.2Z" transform="translate(-61.084 6.211)" fill="#12263f"/>
    <path id="Trazado_102686" data-name="Trazado 102686" d="M87.332,14.667a4.673,4.673,0,0,1-.721,2.36,4.35,4.35,0,0,1-1.85,1.586,6.3,6.3,0,0,1-2.72.563,5.025,5.025,0,0,1-3.973-1.644,6.786,6.786,0,0,1-1.45-4.641v-.633a7.746,7.746,0,0,1,.655-3.292,4.961,4.961,0,0,1,1.885-2.18,5.26,5.26,0,0,1,2.848-.769A5.516,5.516,0,0,1,85.75,7.245a4.844,4.844,0,0,1,1.608,3.379H84.282a2.292,2.292,0,0,0-.589-1.679,2.422,2.422,0,0,0-1.687-.51,1.843,1.843,0,0,0-1.687.861,5.536,5.536,0,0,0-.562,2.751v.905a6.126,6.126,0,0,0,.514,2.927,1.882,1.882,0,0,0,1.771.879,2.369,2.369,0,0,0,1.626-.5,2.126,2.126,0,0,0,.6-1.591ZM94.012,19a3.344,3.344,0,0,1-.281-.853,2.754,2.754,0,0,1-2.285,1.028,3.374,3.374,0,0,1-2.285-.813,2.588,2.588,0,0,1-.94-2.043,2.66,2.66,0,0,1,1.143-2.338,5.821,5.821,0,0,1,3.322-.791H93.6v-.5q0-1.316-1.134-1.316a.927.927,0,0,0-1.055,1.042H88.448a2.655,2.655,0,0,1,1.173-2.239,4.931,4.931,0,0,1,2.993-.86,4.323,4.323,0,0,1,2.874.888,3.086,3.086,0,0,1,1.081,2.435v4.21a4.311,4.311,0,0,0,.4,2V19Zm-1.854-1.934a1.652,1.652,0,0,0,.918-.237,1.487,1.487,0,0,0,.523-.536V14.772h-.861q-1.547,0-1.547,1.389a.848.848,0,0,0,.272.655A.986.986,0,0,0,92.157,17.066Zm5.678-2.892a5.809,5.809,0,0,1,.976-3.56,3.211,3.211,0,0,1,2.725-1.3,2.731,2.731,0,0,1,2.145,1V5.5h2.971V19h-2.663l-.149-1.02a2.8,2.8,0,0,1-2.32,1.2,3.205,3.205,0,0,1-2.689-1.3A5.993,5.993,0,0,1,97.835,14.175Zm2.962.185q0,2.531,1.477,2.531a1.458,1.458,0,0,0,1.406-.826V12.443a1.419,1.419,0,0,0-1.389-.844q-1.371,0-1.485,2.215Zm12.138,4.816a4.889,4.889,0,0,1-3.542-1.305,4.507,4.507,0,0,1-1.354-3.4v-.246a5.84,5.84,0,0,1,.541-2.575,3.955,3.955,0,0,1,1.578-1.727,4.763,4.763,0,0,1,2.461-.611,4.117,4.117,0,0,1,3.164,1.244,4.887,4.887,0,0,1,1.16,3.467v1.151h-5.889a2.135,2.135,0,0,0,.694,1.257,2.066,2.066,0,0,0,1.389.457,2.662,2.662,0,0,0,2.2-.984l1.354,1.6a3.784,3.784,0,0,1-1.569,1.217A5.3,5.3,0,0,1,112.935,19.176ZM112.6,11.6q-1.3,0-1.547,1.723h2.988v-.229a1.467,1.467,0,0,0-.36-1.1A1.434,1.434,0,0,0,112.6,11.6Zm8.253-2.109.1,1.116a3.225,3.225,0,0,1,2.716-1.292,2.713,2.713,0,0,1,2.219.888,4.226,4.226,0,0,1,.76,2.672V19h-2.971V13a1.6,1.6,0,0,0-.29-1.059,1.342,1.342,0,0,0-1.055-.338,1.413,1.413,0,0,0-1.292.686V19h-2.962V9.49ZM133.642,19a3.344,3.344,0,0,1-.281-.853,2.754,2.754,0,0,1-2.285,1.028,3.374,3.374,0,0,1-2.285-.813,2.588,2.588,0,0,1-.94-2.043,2.66,2.66,0,0,1,1.143-2.338,5.821,5.821,0,0,1,3.322-.791h.914v-.5q0-1.316-1.134-1.316a.927.927,0,0,0-1.055,1.042h-2.962a2.655,2.655,0,0,1,1.173-2.239,4.931,4.931,0,0,1,2.993-.86,4.323,4.323,0,0,1,2.874.888,3.086,3.086,0,0,1,1.081,2.435v4.21a4.311,4.311,0,0,0,.4,2V19Zm-1.854-1.934a1.652,1.652,0,0,0,.918-.237,1.487,1.487,0,0,0,.523-.536V14.772h-.861q-1.547,0-1.547,1.389a.848.848,0,0,0,.272.655A.986.986,0,0,0,131.787,17.066Zm10.16-2.892a5.809,5.809,0,0,1,.976-3.56,3.211,3.211,0,0,1,2.725-1.3,2.731,2.731,0,0,1,2.145,1V5.5h2.971V19H148.1l-.149-1.02a2.8,2.8,0,0,1-2.32,1.2,3.205,3.205,0,0,1-2.689-1.3A5.993,5.993,0,0,1,141.947,14.175Zm2.962.185q0,2.531,1.477,2.531a1.458,1.458,0,0,0,1.406-.826V12.443A1.419,1.419,0,0,0,146.4,11.6q-1.371,0-1.485,2.215Zm12.138,4.816a4.889,4.889,0,0,1-3.542-1.305,4.507,4.507,0,0,1-1.354-3.4v-.246a5.84,5.84,0,0,1,.541-2.575,3.955,3.955,0,0,1,1.578-1.727,4.763,4.763,0,0,1,2.461-.611,4.117,4.117,0,0,1,3.164,1.244,4.887,4.887,0,0,1,1.16,3.467v1.151h-5.889a2.135,2.135,0,0,0,.694,1.257,2.066,2.066,0,0,0,1.389.457,2.662,2.662,0,0,0,2.2-.984l1.354,1.6a3.784,3.784,0,0,1-1.569,1.217A5.3,5.3,0,0,1,157.047,19.176Zm-.334-7.576q-1.3,0-1.547,1.723h2.988v-.229a1.467,1.467,0,0,0-.36-1.1A1.434,1.434,0,0,0,156.713,11.6Zm14.036,5.291a1.317,1.317,0,0,0,.967-.338,1.241,1.241,0,0,0,.334-.945h2.777a3.288,3.288,0,0,1-1.121,2.566,4.168,4.168,0,0,1-2.887,1,4.22,4.22,0,0,1-3.27-1.3,5.125,5.125,0,0,1-1.2-3.6v-.123a5.792,5.792,0,0,1,.532-2.544,3.872,3.872,0,0,1,1.534-1.7,4.573,4.573,0,0,1,2.373-.593,4.116,4.116,0,0,1,2.944,1.028,3.647,3.647,0,0,1,1.09,2.786H172.05a1.626,1.626,0,0,0-.36-1.134,1.244,1.244,0,0,0-.967-.4q-1.151,0-1.345,1.468a10.357,10.357,0,0,0-.062,1.283,4.068,4.068,0,0,0,.343,1.986A1.187,1.187,0,0,0,170.749,16.891Zm4.957-2.733a5.613,5.613,0,0,1,.554-2.536,3.96,3.96,0,0,1,1.591-1.709,4.791,4.791,0,0,1,2.435-.6,4.373,4.373,0,0,1,3.366,1.323,5.076,5.076,0,0,1,1.23,3.6v.105a4.925,4.925,0,0,1-1.235,3.529,4.384,4.384,0,0,1-3.344,1.305,4.434,4.434,0,0,1-3.261-1.217,4.761,4.761,0,0,1-1.327-3.3Zm2.962.185a3.538,3.538,0,0,0,.413,1.934,1.376,1.376,0,0,0,1.222.615q1.582,0,1.617-2.435v-.3q0-2.558-1.635-2.558-1.485,0-1.608,2.206ZM188.986,9.49l.1,1.116A3.27,3.27,0,0,1,191.8,9.314a2.407,2.407,0,0,1,2.435,1.433,3.165,3.165,0,0,1,2.795-1.433q2.892,0,2.971,3.5V19h-2.971V13a1.813,1.813,0,0,0-.246-1.063,1.048,1.048,0,0,0-.9-.334,1.4,1.4,0,0,0-1.31.782l.009.123V19h-2.971V13.015a1.906,1.906,0,0,0-.237-1.081,1.045,1.045,0,0,0-.905-.334,1.42,1.42,0,0,0-1.3.782V19h-2.962V9.49Zm17.306,9.686a4.889,4.889,0,0,1-3.542-1.305,4.507,4.507,0,0,1-1.354-3.4v-.246a5.84,5.84,0,0,1,.541-2.575,3.955,3.955,0,0,1,1.578-1.727,4.763,4.763,0,0,1,2.461-.611,4.117,4.117,0,0,1,3.164,1.244,4.887,4.887,0,0,1,1.16,3.467v1.151h-5.889a2.135,2.135,0,0,0,.694,1.257,2.066,2.066,0,0,0,1.389.457,2.662,2.662,0,0,0,2.2-.984l1.354,1.6a3.784,3.784,0,0,1-1.569,1.217A5.3,5.3,0,0,1,206.292,19.176Zm-.334-7.576q-1.3,0-1.547,1.723H207.4v-.229a1.467,1.467,0,0,0-.36-1.1A1.434,1.434,0,0,0,205.958,11.6Zm11.285.571-.976-.07a1.752,1.752,0,0,0-1.793.879V19h-2.962V9.49h2.777l.1,1.222a2.294,2.294,0,0,1,2.083-1.4,2.888,2.888,0,0,1,.826.105Zm4.922,4.72a1.317,1.317,0,0,0,.967-.338,1.241,1.241,0,0,0,.334-.945h2.777a3.288,3.288,0,0,1-1.121,2.566,4.168,4.168,0,0,1-2.887,1,4.22,4.22,0,0,1-3.27-1.3,5.125,5.125,0,0,1-1.2-3.6v-.123A5.792,5.792,0,0,1,218.3,11.6a3.872,3.872,0,0,1,1.534-1.7,4.573,4.573,0,0,1,2.373-.593,4.116,4.116,0,0,1,2.944,1.028,3.647,3.647,0,0,1,1.09,2.786h-2.777a1.626,1.626,0,0,0-.36-1.134,1.244,1.244,0,0,0-.967-.4q-1.151,0-1.345,1.468a10.357,10.357,0,0,0-.062,1.283,4.068,4.068,0,0,0,.343,1.986A1.187,1.187,0,0,0,222.165,16.891ZM230.62,19h-2.971V9.49h2.971ZM227.474,7.038A1.322,1.322,0,0,1,227.931,6,1.943,1.943,0,0,1,230.3,6a1.322,1.322,0,0,1,.457,1.037,1.322,1.322,0,0,1-.457,1.037,1.943,1.943,0,0,1-2.373,0A1.322,1.322,0,0,1,227.474,7.038Zm4.6,7.119a5.613,5.613,0,0,1,.554-2.536,3.96,3.96,0,0,1,1.591-1.709,4.791,4.791,0,0,1,2.435-.6,4.373,4.373,0,0,1,3.366,1.323,5.076,5.076,0,0,1,1.23,3.6v.105a4.925,4.925,0,0,1-1.235,3.529,4.384,4.384,0,0,1-3.344,1.305,4.434,4.434,0,0,1-3.261-1.217,4.761,4.761,0,0,1-1.327-3.3Zm2.962.185a3.538,3.538,0,0,0,.413,1.934,1.376,1.376,0,0,0,1.222.615q1.582,0,1.617-2.435v-.3q0-2.558-1.635-2.558-1.485,0-1.608,2.206Zm16.6,4.834a4.889,4.889,0,0,1-3.542-1.305,4.507,4.507,0,0,1-1.354-3.4v-.246a5.84,5.84,0,0,1,.541-2.575,3.955,3.955,0,0,1,1.578-1.727,4.763,4.763,0,0,1,2.461-.611,4.117,4.117,0,0,1,3.164,1.244,4.887,4.887,0,0,1,1.16,3.467v1.151h-5.889a2.135,2.135,0,0,0,.694,1.257,2.066,2.066,0,0,0,1.389.457,2.662,2.662,0,0,0,2.2-.984l1.354,1.6a3.784,3.784,0,0,1-1.569,1.217A5.3,5.3,0,0,1,251.635,19.176ZM251.3,11.6q-1.3,0-1.547,1.723h2.988v-.229a1.467,1.467,0,0,0-.36-1.1A1.434,1.434,0,0,0,251.3,11.6Zm8.657,7.4h-2.971V5.5h2.971Zm6.425.176a4.889,4.889,0,0,1-3.542-1.305,4.507,4.507,0,0,1-1.354-3.4v-.246a5.84,5.84,0,0,1,.541-2.575,3.955,3.955,0,0,1,1.578-1.727,4.763,4.763,0,0,1,2.461-.611,4.117,4.117,0,0,1,3.164,1.244,4.887,4.887,0,0,1,1.16,3.467v1.151H264.5a2.135,2.135,0,0,0,.694,1.257,2.066,2.066,0,0,0,1.389.457,2.662,2.662,0,0,0,2.2-.984l1.354,1.6a3.784,3.784,0,0,1-1.569,1.217A5.3,5.3,0,0,1,266.383,19.176Zm-.334-7.576q-1.3,0-1.547,1.723h2.988v-.229a1.467,1.467,0,0,0-.36-1.1A1.434,1.434,0,0,0,266.049,11.6Zm9.554,5.291a1.317,1.317,0,0,0,.967-.338,1.241,1.241,0,0,0,.334-.945h2.777a3.288,3.288,0,0,1-1.121,2.566,4.168,4.168,0,0,1-2.887,1,4.22,4.22,0,0,1-3.27-1.3,5.125,5.125,0,0,1-1.2-3.6v-.123a5.792,5.792,0,0,1,.532-2.544,3.872,3.872,0,0,1,1.534-1.7,4.573,4.573,0,0,1,2.373-.593,4.116,4.116,0,0,1,2.944,1.028,3.647,3.647,0,0,1,1.09,2.786H276.9a1.626,1.626,0,0,0-.36-1.134,1.244,1.244,0,0,0-.967-.4q-1.151,0-1.345,1.468a10.357,10.357,0,0,0-.062,1.283,4.068,4.068,0,0,0,.343,1.986A1.187,1.187,0,0,0,275.6,16.891Zm8.78-9.765V9.49h1.564v2.057h-1.564V15.9a1.111,1.111,0,0,0,.193.747,1.037,1.037,0,0,0,.765.211,4.345,4.345,0,0,0,.738-.053v2.118a5.466,5.466,0,0,1-1.67.255,3.1,3.1,0,0,1-2.259-.721,2.954,2.954,0,0,1-.729-2.188v-4.72h-1.213V9.49h1.213V7.126Zm8.481,5.045-.976-.07a1.752,1.752,0,0,0-1.793.879V19h-2.962V9.49h2.777l.1,1.222a2.294,2.294,0,0,1,2.083-1.4,2.888,2.888,0,0,1,.826.105Zm.694,1.986a5.613,5.613,0,0,1,.554-2.536A3.96,3.96,0,0,1,295.7,9.912a4.791,4.791,0,0,1,2.435-.6,4.373,4.373,0,0,1,3.366,1.323,5.076,5.076,0,0,1,1.23,3.6v.105a4.925,4.925,0,0,1-1.235,3.529,4.384,4.384,0,0,1-3.344,1.305,4.434,4.434,0,0,1-3.261-1.217,4.761,4.761,0,0,1-1.327-3.3Zm2.962.185a3.538,3.538,0,0,0,.413,1.934,1.376,1.376,0,0,0,1.222.615q1.582,0,1.617-2.435v-.3q0-2.558-1.635-2.558-1.485,0-1.608,2.206ZM298.542,5.5h3.129l-2.443,2.76-2.417,0Zm8.218,3.99.1,1.116a3.225,3.225,0,0,1,2.716-1.292,2.713,2.713,0,0,1,2.219.888,4.226,4.226,0,0,1,.76,2.672V19h-2.971V13a1.6,1.6,0,0,0-.29-1.059,1.342,1.342,0,0,0-1.055-.338,1.413,1.413,0,0,0-1.292.686V19h-2.962V9.49ZM317.315,19h-2.971V9.49h2.971ZM314.169,7.038A1.322,1.322,0,0,1,314.626,6,1.943,1.943,0,0,1,317,6a1.322,1.322,0,0,1,.457,1.037A1.322,1.322,0,0,1,317,8.075a1.943,1.943,0,0,1-2.373,0A1.322,1.322,0,0,1,314.169,7.038Zm8.991,9.853a1.317,1.317,0,0,0,.967-.338,1.241,1.241,0,0,0,.334-.945h2.777a3.288,3.288,0,0,1-1.121,2.566,4.168,4.168,0,0,1-2.887,1,4.22,4.22,0,0,1-3.27-1.3,5.125,5.125,0,0,1-1.2-3.6v-.123A5.792,5.792,0,0,1,319.3,11.6a3.872,3.872,0,0,1,1.534-1.7,4.573,4.573,0,0,1,2.373-.593,4.116,4.116,0,0,1,2.944,1.028,3.647,3.647,0,0,1,1.09,2.786h-2.777A1.626,1.626,0,0,0,324.1,12a1.244,1.244,0,0,0-.967-.4q-1.151,0-1.345,1.468a10.357,10.357,0,0,0-.062,1.283,4.068,4.068,0,0,0,.343,1.986A1.187,1.187,0,0,0,323.16,16.891Zm4.957-2.733a5.613,5.613,0,0,1,.554-2.536,3.96,3.96,0,0,1,1.591-1.709,4.791,4.791,0,0,1,2.435-.6,4.373,4.373,0,0,1,3.366,1.323,5.076,5.076,0,0,1,1.23,3.6v.105a4.925,4.925,0,0,1-1.235,3.529,4.384,4.384,0,0,1-3.344,1.305,4.434,4.434,0,0,1-3.261-1.217,4.761,4.761,0,0,1-1.327-3.3Zm2.962.185a3.538,3.538,0,0,0,.413,1.934,1.376,1.376,0,0,0,1.222.615q1.582,0,1.617-2.435v-.3q0-2.558-1.635-2.558-1.485,0-1.608,2.206Z" transform="translate(-61.084 292.401)" fill="#12263f"/>
  </g>
</svg>
