<svg xmlns="http://www.w3.org/2000/svg" width="720" height="446" viewBox="0 0 720 446">
  <g id="Grupo_53795" data-name="Grupo 53795" transform="translate(-323 -5103)">
    <rect id="Rectángulo_5028" data-name="Rectángulo 5028" width="720" height="446" transform="translate(323 5103)" fill="none"/>
    <g id="FIGURA5" transform="translate(226 5089)">
      <path id="Trazado_100776" data-name="Trazado 100776" d="M538.366,276.481h-158.5a12.706,12.706,0,0,1-12.706-12.706V205.926a12.706,12.706,0,0,1,12.706-12.706h158.5a12.706,12.706,0,0,1,12.706,12.706v57.849A12.713,12.713,0,0,1,538.366,276.481Z" transform="translate(9.598 9.378)" fill="none" stroke="#681ae6" stroke-miterlimit="10" stroke-width="2" stroke-dasharray="12 3"/>
      <path id="Trazado_100777" data-name="Trazado 100777" d="M245.081,319.612H134.925c-15.979,0-28.925-13.343-28.925-29.793V237" transform="translate(0 11.8)" fill="none" stroke="#681ae6" stroke-miterlimit="10" stroke-width="2" stroke-dasharray="12 3"/>
      <path id="Trazado_100778" data-name="Trazado 100778" d="M415,24H525.157c15.979,0,28.925,13.343,28.925,29.793v52.82" transform="translate(11.575 0)" fill="none" stroke="#681ae6" stroke-miterlimit="10" stroke-width="2" stroke-dasharray="12 3"/>
      <path id="Trazado_100779" data-name="Trazado 100779" d="M623,76H733.157c15.979,0,28.925,13.343,28.925,29.793v52.82" transform="translate(19.152 2.378)" fill="none" stroke="#681ae6" stroke-miterlimit="10" stroke-width="2" stroke-dasharray="12 3"/>
      <path id="Trazado_100780" data-name="Trazado 100780" d="M271.081,79H160.925C144.946,79,132,92.343,132,108.793v52.82" transform="translate(1.189 2.515)" fill="none" stroke="#681ae6" stroke-miterlimit="10" stroke-width="2" stroke-dasharray="12 3"/>
      <path id="Trazado_100781" data-name="Trazado 100781" d="M649,204H759.157c15.979,0,28.925,13.343,28.925,29.793v52.82" transform="translate(20.341 9.972)" fill="none" stroke="#681ae6" stroke-miterlimit="10" stroke-width="2" stroke-dasharray="12 3"/>
      <path id="Trazado_100782" data-name="Trazado 100782" d="M604.081,431.612H493.925c-15.979,0-28.925-13.343-28.925-29.793V349" transform="translate(13.448 18.014)" fill="none" stroke="#681ae6" stroke-miterlimit="10" stroke-width="2" stroke-dasharray="12 3"/>
      <path id="Trazado_100783" data-name="Trazado 100783" d="M398.081,432.612H287.925c-15.979,0-28.925-13.343-28.925-29.793V350" transform="translate(5.731 18.06)" fill="none" stroke="#681ae6" stroke-miterlimit="10" stroke-width="2" stroke-dasharray="12 3"/>
      <line id="Línea_150" data-name="Línea 150" y1="78.952" transform="translate(463.965 123.725)" fill="none" stroke="#681ae6" stroke-miterlimit="10" stroke-width="2" stroke-dasharray="12 3"/>
      <line id="Línea_151" data-name="Línea 151" y1="37.646" x2="49.149" transform="translate(560.383 164.745)" fill="none" stroke="#681ae6" stroke-miterlimit="10" stroke-width="2" stroke-dasharray="12 3"/>
      <line id="Línea_152" data-name="Línea 152" x2="65.881" y2="8.366" transform="translate(560.302 259.495)" fill="none" stroke="#681ae6" stroke-miterlimit="10" stroke-width="2" stroke-dasharray="12 3"/>
      <line id="Línea_153" data-name="Línea 153" x2="37.646" y2="65.881" transform="translate(536.546 286.154)" fill="none" stroke="#681ae6" stroke-miterlimit="10" stroke-width="2" stroke-dasharray="12 3"/>
      <line id="Línea_154" data-name="Línea 154" x1="57.515" y2="70.064" transform="translate(356.797 287.236)" fill="none" stroke="#681ae6" stroke-miterlimit="10" stroke-width="2" stroke-dasharray="12 3"/>
      <line id="Línea_155" data-name="Línea 155" x1="87.841" y2="14.64" transform="translate(290.271 260.576)" fill="none" stroke="#681ae6" stroke-miterlimit="10" stroke-width="2" stroke-dasharray="12 3"/>
      <line id="Línea_156" data-name="Línea 156" x1="65.881" y1="67.972" transform="translate(315.238 134.247)" fill="none" stroke="#681ae6" stroke-miterlimit="10" stroke-width="2" stroke-dasharray="12 3"/>
      <path id="Trazado_100784" data-name="Trazado 100784" d="M521.815,266.536H398.106A22.328,22.328,0,0,1,375.78,244.21V222.4a22.328,22.328,0,0,1,22.326-22.326H521.815A22.328,22.328,0,0,1,544.142,222.4V244.21A22.314,22.314,0,0,1,521.815,266.536Z" transform="translate(9.985 9.677)" fill="#fd0"/>
      <text id="Logística" transform="translate(423.63 247.583)" fill="#12263f" font-size="21" font-family="Roboto-Bold, Roboto" font-weight="700"><tspan x="0" y="0">Logística</tspan></text>
      <path id="Trazado_100785" data-name="Trazado 100785" d="M525.441,122.227H384.08a16.921,16.921,0,0,1-16.92-16.92V50.93a16.921,16.921,0,0,1,16.92-16.92H525.441a16.921,16.921,0,0,1,16.92,16.92v54.378A16.914,16.914,0,0,1,525.441,122.227Z" transform="translate(9.636 0.458)" fill="#02cddb"/>
      <g id="Grupo_53788" data-name="Grupo 53788" transform="translate(386.43 50.681)">
        <rect id="Rectángulo_5139" data-name="Rectángulo 5139" width="155.949" height="51.303" transform="translate(0 2.233)" fill="none"/>
        <g id="Grupo" transform="translate(6.448)">
          <text id="Proceso:_grupo_de_" data-name="Proceso: grupo de " transform="translate(10.708 13)" fill="#12263f" font-size="14" font-family="Roboto-Regular, Roboto"><tspan x="0" y="0">Proceso: grupo de </tspan></text>
          <text id="secuencias_de_" data-name="secuencias de " transform="translate(23.675 30.892)" fill="#12263f" font-size="14" font-family="Roboto-Regular, Roboto"><tspan x="0" y="0">secuencias de </tspan></text>
          <text id="actividades_repetidas" data-name="actividades repetidas" transform="translate(0 48.785)" fill="#12263f" font-size="14" font-family="Roboto-Regular, Roboto"><tspan x="0" y="0">actividades repetidas</tspan></text>
        </g>
      </g>
      <path id="Trazado_100786" data-name="Trazado 100786" d="M738.291,172.127H596.93a16.921,16.921,0,0,1-16.92-16.92V100.83a16.921,16.921,0,0,1,16.92-16.92H738.291a16.921,16.921,0,0,1,16.92,16.92v54.378A16.921,16.921,0,0,1,738.291,172.127Z" transform="translate(17.186 2.739)" fill="#02dba8"/>
      <g id="Grupo_53789" data-name="Grupo 53789" transform="translate(610.843 111.749)">
        <rect id="Rectángulo_5140" data-name="Rectángulo 5140" width="147.886" height="34.969" transform="translate(0 2.235)" fill="none"/>
        <g id="Grupo-2" data-name="Grupo" transform="translate(5.721)">
          <text id="Planeación:_requiere_" data-name="Planeación: requiere " transform="translate(0 13)" fill="#12263f" font-size="14" font-family="Roboto-Regular, Roboto"><tspan x="0" y="0">Planeación: requiere </tspan></text>
          <text id="de_estrategias" data-name="de estrategias" transform="translate(20.684 30.892)" fill="#12263f" font-size="14" font-family="Roboto-Regular, Roboto"><tspan x="0" y="0">de estrategias</tspan></text>
        </g>
      </g>
      <path id="Trazado_100787" data-name="Trazado 100787" d="M764.291,301.657H622.93a16.921,16.921,0,0,1-16.92-16.92V230.36a16.921,16.921,0,0,1,16.92-16.92H764.291a16.921,16.921,0,0,1,16.92,16.92v54.378A16.928,16.928,0,0,1,764.291,301.657Z" transform="translate(18.375 10.525)" fill="#02dba8"/>
      <g id="Grupo_53790" data-name="Grupo 53790" transform="translate(636.17 239.172)">
        <rect id="Rectángulo_5141" data-name="Rectángulo 5141" width="151.63" height="53.248" transform="translate(0 2.232)" fill="none"/>
        <g id="Grupo-3" data-name="Grupo" transform="translate(0.75)">
          <text id="Instrumentación:_por_" data-name="Instrumentación: por " transform="translate(5.114 13)" fill="#12263f" font-size="14" font-family="Roboto-Regular, Roboto"><tspan x="0" y="0">Instrumentación: por </tspan></text>
          <text id="ejecutarse_después_de_" data-name="ejecutarse después de " transform="translate(0 30.892)" fill="#12263f" font-size="14" font-family="Roboto-Regular, Roboto"><tspan x="0" y="0">ejecutarse después de </tspan></text>
          <text id="la_planeación" data-name="la planeación" transform="translate(30.525 48.785)" fill="#12263f" font-size="14" font-family="Roboto-Regular, Roboto"><tspan x="0" y="0">la planeación</tspan></text>
        </g>
      </g>
      <path id="Trazado_100788" data-name="Trazado 100788" d="M633.511,422.857H492.14a16.921,16.921,0,0,1-16.92-16.92V351.56a16.921,16.921,0,0,1,16.92-16.92H633.5a16.921,16.921,0,0,1,16.92,16.92v54.378A16.912,16.912,0,0,1,633.511,422.857Z" transform="translate(13.624 17.357)" fill="#02dba8"/>
      <g id="Grupo_53791" data-name="Grupo 53791" transform="translate(506.863 368.213)">
        <rect id="Rectángulo_5142" data-name="Rectángulo 5142" width="139.301" height="51.303" transform="translate(0 2.242)" fill="none"/>
        <g id="Grupo-4" data-name="Grupo" transform="translate(5.301)">
          <text id="Control:_evaluar_" data-name="Control: evaluar, " transform="translate(10.133 13)" fill="#12263f" font-size="14" font-family="Roboto-Regular, Roboto"><tspan x="0" y="0">Control: evaluar, </tspan></text>
          <text id="supervisar_mejorar_" data-name="supervisar, mejorar " transform="translate(0 30.892)" fill="#12263f" font-size="14" font-family="Roboto-Regular, Roboto"><tspan x="0" y="0">supervisar, mejorar </tspan></text>
          <text id="y_retroalimentar" data-name="y retroalimentar" transform="translate(11.137 48.785)" fill="#12263f" font-size="14" font-family="Roboto-Regular, Roboto"><tspan x="0" y="0">y retroalimentar</tspan></text>
        </g>
      </g>
      <path id="Trazado_100789" data-name="Trazado 100789" d="M430.381,422.857H289.02a16.921,16.921,0,0,1-16.92-16.92V351.56a16.921,16.921,0,0,1,16.92-16.92H430.381a16.921,16.921,0,0,1,16.92,16.92v54.378A16.914,16.914,0,0,1,430.381,422.857Z" transform="translate(6.129 17.357)" fill="#02cddb"/>
      <g id="Grupo_53792" data-name="Grupo 53792" transform="translate(300.766 375.192)">
        <rect id="Rectángulo_5143" data-name="Rectángulo 5143" width="130.015" height="37.343" transform="translate(0 2.238)" fill="none"/>
        <g id="Grupo-5" data-name="Grupo" transform="translate(5.301)">
          <text id="Flujo_y_almacén:_" data-name="Flujo y almacén: " transform="translate(5.333 13)" fill="#12263f" font-size="14" font-family="Roboto-Regular, Roboto"><tspan x="0" y="0">Flujo y almacén: </tspan></text>
          <text id="distribución_física" data-name="distribución física" transform="translate(0 30.892)" fill="#12263f" font-size="14" font-family="Roboto-Regular, Roboto"><tspan x="0" y="0">distribución física</tspan></text>
        </g>
      </g>
      <path id="Trazado_100790" data-name="Trazado 100790" d="M278.281,305.727H136.92A16.921,16.921,0,0,1,120,288.807V234.43a16.921,16.921,0,0,1,16.92-16.92H278.281a16.921,16.921,0,0,1,16.92,16.92v54.378A16.914,16.914,0,0,1,278.281,305.727Z" transform="translate(0.64 10.751)" fill="#02cddb"/>
      <g id="Grupo_53793" data-name="Grupo 53793" transform="translate(130.637 244.434)">
        <rect id="Rectángulo_5144" data-name="Rectángulo 5144" width="155.217" height="51.303" transform="translate(0 2.234)" fill="none"/>
        <g id="Grupo-6" data-name="Grupo" transform="translate(10.145)">
          <text id="Flujo_informativo:_" data-name="Flujo informativo: " transform="translate(8.92 13)" fill="#12263f" font-size="14" font-family="Roboto-Regular, Roboto"><tspan x="0" y="0">Flujo informativo: </tspan></text>
          <text id="situación_relativa_de_" data-name="situación relativa de " transform="translate(0 30.892)" fill="#12263f" font-size="14" font-family="Roboto-Regular, Roboto"><tspan x="0" y="0">situación relativa de </tspan></text>
          <text id="los_transportado" data-name="los transportado" transform="translate(12.068 48.785)" fill="#12263f" font-size="14" font-family="Roboto-Regular, Roboto"><tspan x="0" y="0">los transportado</tspan></text>
        </g>
      </g>
      <path id="Trazado_100791" data-name="Trazado 100791" d="M302.281,174.507H160.92A16.921,16.921,0,0,1,144,157.587V103.21a16.921,16.921,0,0,1,16.92-16.92H302.281a16.921,16.921,0,0,1,16.92,16.92v54.378A16.908,16.908,0,0,1,302.281,174.507Z" transform="translate(1.738 3.461)" fill="#02cddb"/>
      <g id="Grupo_53794" data-name="Grupo 53794" transform="translate(149.471 106.049)">
        <rect id="Rectángulo_5145" data-name="Rectángulo 5145" width="167.734" height="51.303" transform="translate(0 2.24)" fill="none"/>
        <g id="Grupo-7" data-name="Grupo" transform="translate(7.147)">
          <text id="Cumple_expectativas:_" data-name="Cumple expectativas: " transform="translate(5.051 13)" fill="#12263f" font-size="14" font-family="Roboto-Regular, Roboto"><tspan x="0" y="0">Cumple expectativas: </tspan></text>
          <text id="esquema_que_el_cliente_" data-name="esquema que el cliente " transform="translate(0 30.892)" fill="#12263f" font-size="14" font-family="Roboto-Regular, Roboto"><tspan x="0" y="0">esquema que el cliente </tspan></text>
          <text id="pide_y_exige" data-name="pide y exige" transform="translate(37.343 48.785)" fill="#12263f" font-size="14" font-family="Roboto-Regular, Roboto"><tspan x="0" y="0">pide y exige</tspan></text>
        </g>
      </g>
    </g>
  </g>
</svg>
