<svg id="FIGURA_4" data-name="FIGURA 4" xmlns="http://www.w3.org/2000/svg" xmlns:xlink="http://www.w3.org/1999/xlink" width="536" height="357" viewBox="0 0 536 357">
  <defs>
    <linearGradient id="linear-gradient" x1="1" y1="0.5" x2="0" y2="0.5" gradientUnits="objectBoundingBox">
      <stop offset="0" stop-color="#dae3fe"/>
      <stop offset="1" stop-color="#e9effd"/>
    </linearGradient>
  </defs>
  <g id="Background">
    <rect id="Rectángulo_5172" data-name="Rectángulo 5172" width="536" height="357" fill="#fff"/>
  </g>
  <g id="Illustration" transform="translate(22.174 33.815)">
    <g id="Grupo_53889" data-name="Grupo 53889">
      <path id="Trazado_100793" data-name="Trazado 100793" d="M476.973,185.908c-31.282,26.921-20.848,72.339-42.594,77.782-24.609,6.162-42.157-50.943-76.548-50-38.1,1.041-78.75,72.835-61.115,106.8,11.482,22.11,43.506,20.166,47.533,39.509,3.8,18.228-33.09,27.928-32.1,46.3,1.182,21.931,52.5,35.8,64.819,38.892,61.011,15.32,78.492-4.3,150.628-1.234,73.307,3.12,89.922,24.864,138.28,9.877,14.517-4.5,48.587-15.058,66.054-46.916,23.24-42.389,7.331-104.69-24.693-120.379-22.5-11.02-38.281-1.186-59.244-13.03-28.965-16.364-10.631-50.294-38.909-80.8C579.123,160.377,510.474,157.077,476.973,185.908Z" transform="translate(-292.473 -164.717)" fill="#f3f5f8"/>
      <g id="Grupo_53829" data-name="Grupo 53829" transform="translate(210.929 4.063)">
        <g id="Grupo_53823" data-name="Grupo 53823" transform="translate(129.308 84.82)">
          <path id="Trazado_100794" data-name="Trazado 100794" d="M567.91,598.7V575.889c0-3.306,2.3-6,5.153-6.032,8.574-.108,26.261-.113,40.73,1.3a4.3,4.3,0,0,1,3.581,4.356l1.165,22.069Z" transform="translate(-567.91 -569.814)" fill="#02dba8"/>
          <path id="Trazado_100795" data-name="Trazado 100795" d="M730.465,603.585c-.037,2.141.019,5.538.063,7.734A1.778,1.778,0,0,0,732.4,613.2l7.056-.957a1.906,1.906,0,0,0,1.461-2.213l-.866-6.686a1.775,1.775,0,0,0-1.656-1.652h-6.253A1.813,1.813,0,0,0,730.465,603.585Z" transform="translate(-725.498 -594.789)" fill="#fff" opacity="0.84"/>
          <path id="Trazado_100796" data-name="Trazado 100796" d="M660.848,591.64l5.887.734a1.433,1.433,0,0,0,1.466-1.639l-1.286-20.261c-2.468-.091-4.9-.156-7.251-.2v19.843A1.472,1.472,0,0,0,660.848,591.64Z" transform="translate(-637.44 -570.171)" fill="#fff" opacity="0.37"/>
          <path id="Trazado_100797" data-name="Trazado 100797" d="M677.917,588.347a.637.637,0,0,0,.591.645.2.2,0,0,0,.035,0,.656.656,0,0,0,.556-.723l-.888-17.685-1.186-.033Z" transform="translate(-652.096 -570.391)" fill="#fff"/>
          <g id="Grupo_53822" data-name="Grupo 53822" transform="translate(6.508 8.923)">
            <path id="Trazado_100798" data-name="Trazado 100798" d="M763.344,618.1h-.013a.212.212,0,0,1-.2-.214l-.305-5.571a.221.221,0,0,1,.184-.243.207.207,0,0,1,.21.214l.305,5.571A.219.219,0,0,1,763.344,618.1Z" transform="translate(-761.609 -611.849)" fill="#732be5"/>
            <path id="Trazado_100799" data-name="Trazado 100799" d="M760.287,617.723a.213.213,0,0,1-.2-.221l-.16-5.677a.218.218,0,0,1,.191-.236c.125-.007.2.1.2.221l.16,5.677a.218.218,0,0,1-.191.236Z" transform="translate(-757.937 -611.467)" fill="#732be5"/>
            <path id="Trazado_100800" data-name="Trazado 100800" d="M756.465,617.732a.22.22,0,0,0,.188-.238c-.078-1.907-.227-5.545-.229-5.668a.2.2,0,1,0-.394,0c0,.093.193,4.755.23,5.688a.213.213,0,0,0,.2.219S756.46,617.732,756.465,617.732Zm-.039-5.9h0Z" transform="translate(-753.262 -611.476)" fill="#732be5"/>
            <path id="Trazado_100801" data-name="Trazado 100801" d="M749.592,617.517h-.015a.426.426,0,0,1-.394-.442c-.167-5.5-.139-5.625-.119-5.7a.391.391,0,0,1,.485-.321.462.462,0,0,1,.288.5c-.013.331.076,3.531.134,5.493A.433.433,0,0,1,749.592,617.517Z" transform="translate(-745.068 -611.032)" fill="#732be5"/>
            <path id="Trazado_100802" data-name="Trazado 100802" d="M746.207,618.116a.214.214,0,0,1-.2-.227v-5.571a.2.2,0,1,1,.394,0v5.571A.213.213,0,0,1,746.207,618.116Z" transform="translate(-740.844 -611.859)" fill="#732be5"/>
            <path id="Trazado_100803" data-name="Trazado 100803" d="M743.258,618.065a.215.215,0,0,1-.2-.223c-.037-1.936-.125-5.1-.206-5.478a.259.259,0,0,1,.007-.236.181.181,0,0,1,.273-.065c.108.082.21.158.318,5.768a.217.217,0,0,1-.193.234Z" transform="translate(-737.204 -611.809)" fill="#732be5"/>
            <path id="Trazado_100804" data-name="Trazado 100804" d="M767.5,617.788h-.022a.425.425,0,0,1-.394-.433l-.264-5.848a.44.44,0,0,1,.374-.481.427.427,0,0,1,.416.433l.264,5.848A.437.437,0,0,1,767.5,617.788Z" transform="translate(-766.818 -611.025)" fill="#732be5"/>
          </g>
        </g>
        <path id="Trazado_100805" data-name="Trazado 100805" d="M963.52,523.238H881.55V463.086a1.867,1.867,0,0,1,1.866-1.866h77.362a2.742,2.742,0,0,1,2.741,2.741Z" transform="translate(-851.49 -399.912)" fill="#7d97f4"/>
        <path id="Trazado_100806" data-name="Trazado 100806" d="M985.747,517.978H909.92V455.96h73.086a2.742,2.742,0,0,1,2.741,2.741Z" transform="translate(-879.859 -395.791)" fill="#91b3fa"/>
        <rect id="Rectángulo_5173" data-name="Rectángulo 5173" width="3.371" height="31.128" transform="translate(200.469)" fill="#7d97f4"/>
        <path id="Trazado_100807" data-name="Trazado 100807" d="M454.691,180.219H445.5v-1.481a.677.677,0,0,1,.678-.678h7.836a.677.677,0,0,1,.678.678Z" transform="translate(-248.251 -178.06)" fill="#7d97f4"/>
        <rect id="Rectángulo_5174" data-name="Rectángulo 5174" width="5.991" height="15.911" transform="translate(188.106 22.857)" fill="#7d97f4"/>
        <rect id="Rectángulo_5175" data-name="Rectángulo 5175" width="5.991" height="15.911" transform="translate(232.056 22.857)" fill="#7d97f4"/>
        <rect id="Rectángulo_5176" data-name="Rectángulo 5176" width="77.903" height="44.396" transform="translate(170.252 73.525)" fill="#91b3fa"/>
        <path id="Trazado_100808" data-name="Trazado 100808" d="M341.8,358.5H282.57V314.574a.474.474,0,0,1,.474-.474H341.8Z" transform="translate(-100.083 -284.646)" fill="#91b3fa"/>
        <path id="Trazado_100809" data-name="Trazado 100809" d="M321.984,510.674H241.805a1.016,1.016,0,0,1-1.015-1.016v-4.443a1.016,1.016,0,0,1,1.015-1.016h80.179A1.015,1.015,0,0,1,323,505.216v4.443A1.015,1.015,0,0,1,321.984,510.674Z" transform="translate(-72.237 -433.587)" fill="#7d97f4"/>
        <rect id="Rectángulo_5177" data-name="Rectángulo 5177" width="6.742" height="13.173" transform="translate(228.31 36.075)" fill="#7d97f4"/>
        <rect id="Rectángulo_5178" data-name="Rectángulo 5178" width="6.742" height="13.173" transform="translate(216.686 36.075)" fill="#7d97f4"/>
        <rect id="Rectángulo_5179" data-name="Rectángulo 5179" width="6.742" height="13.173" transform="translate(202.915 36.075)" fill="#7d97f4"/>
        <rect id="Rectángulo_5180" data-name="Rectángulo 5180" width="6.742" height="13.173" transform="translate(191.291 36.075)" fill="#7d97f4"/>
        <rect id="Rectángulo_5181" data-name="Rectángulo 5181" width="6.742" height="13.173" transform="translate(224.341 84.401)" fill="#7d97f4"/>
        <rect id="Rectángulo_5182" data-name="Rectángulo 5182" width="6.742" height="13.173" transform="translate(212.717 84.401)" fill="#7d97f4"/>
        <rect id="Rectángulo_5183" data-name="Rectángulo 5183" width="6.742" height="13.173" transform="translate(198.947 84.401)" fill="#7d97f4"/>
        <rect id="Rectángulo_5184" data-name="Rectángulo 5184" width="6.742" height="13.173" transform="translate(187.322 84.401)" fill="#7d97f4"/>
        <path id="Trazado_100810" data-name="Trazado 100810" d="M115.376,660.576c14.842,7.136,28.525,14.816,32.713,25.4l175.087.959,6.441-25.137c1.5-5.852,6.27-10.813,12.917-13.454,21.443-8.52,38.165-14.924,37.156-28.144L265.51,619.17a1.816,1.816,0,0,0-1.741,1.249l-1.661,5.049c-2.009,6.11-8.78,10.412-16.611,10.559l-100.884,1.886-3.856-6.844a1.767,1.767,0,0,0-1.544-.9l-40.074.162a1.072,1.072,0,0,0-.916,1.622Z" transform="translate(-98.07 -523.664)" fill="#bdd0fb"/>
        <path id="Trazado_100811" data-name="Trazado 100811" d="M114.537,677.176c14.842,7.136,28.526,20.393,32.713,30.981l175.087.959,6.441-30.714c1.5-5.852,6.27-10.813,12.917-13.454,21.443-8.52,35.976-17.865,37.156-28.144l-111.8-1.563a1.751,1.751,0,0,0-1.63,1.048L262.5,642.93c-2.877,6.372-10.005,9.548-17.838,9.7l-100.884,1.886-3.707-6.575a2.327,2.327,0,0,0-2-1.184l-39.8-.416Z" transform="translate(-97.231 -536.254)" fill="#732be5"/>
        <path id="Trazado_100812" data-name="Trazado 100812" d="M1143.37,770.9a5.72,5.72,0,1,0-5.72-5.72A5.726,5.726,0,0,0,1143.37,770.9Zm0-10.1a4.384,4.384,0,1,1-4.387,4.384A4.39,4.39,0,0,1,1143.37,760.8Z" transform="translate(-1092.51 -633.58)" fill="#fff"/>
        <path id="Trazado_100813" data-name="Trazado 100813" d="M1059.29,770.9a5.72,5.72,0,1,0-5.72-5.72A5.726,5.726,0,0,0,1059.29,770.9Zm0-10.1a4.384,4.384,0,1,1-4.386,4.384A4.39,4.39,0,0,1,1059.29,760.8Z" transform="translate(-990.225 -633.58)" fill="#fff"/>
        <path id="Trazado_100814" data-name="Trazado 100814" d="M983.83,768.891a5.72,5.72,0,1,0-5.72-5.72A5.726,5.726,0,0,0,983.83,768.891Zm0-10.107a4.384,4.384,0,1,1-4.384,4.384A4.39,4.39,0,0,1,983.83,758.784Z" transform="translate(-898.427 -632.005)" fill="#fff"/>
        <g id="Grupo_53824" data-name="Grupo 53824" transform="translate(181.602 104.313)">
          <path id="Trazado_100815" data-name="Trazado 100815" d="M513.1,671.291a5.72,5.72,0,1,0-5.72-5.72A5.726,5.726,0,0,0,513.1,671.291Zm0-10.107a4.385,4.385,0,1,1-4.387,4.387A4.39,4.39,0,0,1,513.1,661.184Z" transform="translate(-507.38 -659.85)" fill="#91b3fa"/>
        </g>
        <g id="Grupo_53825" data-name="Grupo 53825" transform="translate(199.969 104.313)">
          <path id="Trazado_100816" data-name="Trazado 100816" d="M428.27,671.291a5.72,5.72,0,1,0-5.72-5.72A5.726,5.726,0,0,0,428.27,671.291Zm0-10.107a4.385,4.385,0,1,1-4.384,4.387A4.39,4.39,0,0,1,428.27,661.184Z" transform="translate(-422.55 -659.85)" fill="#91b3fa"/>
        </g>
        <g id="Grupo_53826" data-name="Grupo 53826" transform="translate(214.336 104.313)">
          <path id="Trazado_100817" data-name="Trazado 100817" d="M361.91,671.291a5.72,5.72,0,1,0-5.72-5.72A5.726,5.726,0,0,0,361.91,671.291Zm0-10.107a4.385,4.385,0,1,1-4.384,4.387A4.39,4.39,0,0,1,361.91,661.184Z" transform="translate(-356.19 -659.85)" fill="#91b3fa"/>
        </g>
        <path id="Trazado_100818" data-name="Trazado 100818" d="M735.456,740.12h.013l98.368-1.734a.668.668,0,0,0-.011-1.336h-.013l-98.368,1.734a.668.668,0,0,0,.011,1.336Z" transform="translate(-690.688 -616.022)" fill="#7d97f4"/>
        <path id="Trazado_100819" data-name="Trazado 100819" d="M248.918,646.7a.668.668,0,0,0,.013-1.336l-85.15-1.754a.668.668,0,1,0-.028,1.336L248.9,646.7Z" transform="translate(17.998 -542.812)" fill="#7d97f4"/>
        <g id="Grupo_53828" data-name="Grupo 53828" transform="translate(78.378 84.82)">
          <path id="Trazado_100820" data-name="Trazado 100820" d="M803.14,598.7V575.889c0-3.306,2.3-6,5.153-6.032,8.574-.108,26.261-.113,40.73,1.3a4.3,4.3,0,0,1,3.581,4.356l1.165,22.069Z" transform="translate(-803.14 -569.814)" fill="#02dba8"/>
          <path id="Trazado_100821" data-name="Trazado 100821" d="M965.695,603.585c-.037,2.141.02,5.538.063,7.734a1.778,1.778,0,0,0,1.871,1.879l7.056-.957a1.906,1.906,0,0,0,1.461-2.213l-.866-6.686a1.775,1.775,0,0,0-1.656-1.652h-6.253A1.813,1.813,0,0,0,965.695,603.585Z" transform="translate(-960.728 -594.789)" fill="#fff"/>
          <path id="Trazado_100822" data-name="Trazado 100822" d="M896.068,591.64l5.887.734a1.434,1.434,0,0,0,1.466-1.639l-1.286-20.261c-2.468-.091-4.9-.156-7.251-.2v19.843A1.469,1.469,0,0,0,896.068,591.64Z" transform="translate(-872.658 -570.171)" fill="#fff" opacity="0.37"/>
          <path id="Trazado_100823" data-name="Trazado 100823" d="M913.147,588.347a.637.637,0,0,0,.591.645.2.2,0,0,0,.035,0,.656.656,0,0,0,.556-.723l-.888-17.685-1.186-.033Z" transform="translate(-887.326 -570.391)" fill="#fff"/>
          <g id="Grupo_53827" data-name="Grupo 53827" transform="translate(6.508 8.923)">
            <path id="Trazado_100824" data-name="Trazado 100824" d="M998.573,618.1h-.013a.212.212,0,0,1-.2-.214l-.305-5.571a.22.22,0,0,1,.184-.243.207.207,0,0,1,.21.214l.305,5.571A.217.217,0,0,1,998.573,618.1Z" transform="translate(-996.838 -611.849)" fill="#7913ea"/>
            <path id="Trazado_100825" data-name="Trazado 100825" d="M995.507,617.723a.212.212,0,0,1-.2-.221l-.16-5.677a.218.218,0,0,1,.19-.236c.126-.007.2.1.2.221l.16,5.677a.218.218,0,0,1-.191.236Z" transform="translate(-993.155 -611.467)" fill="#7913ea"/>
            <path id="Trazado_100826" data-name="Trazado 100826" d="M991.695,617.732a.22.22,0,0,0,.188-.238c-.078-1.907-.227-5.545-.229-5.668a.2.2,0,1,0-.394,0c0,.093.193,4.755.229,5.688a.213.213,0,0,0,.2.219A.013.013,0,0,1,991.695,617.732Zm-.039-5.9h0Z" transform="translate(-988.492 -611.476)" fill="#7913ea"/>
            <path id="Trazado_100827" data-name="Trazado 100827" d="M984.822,617.517h-.015a.426.426,0,0,1-.394-.442c-.167-5.5-.139-5.625-.119-5.7a.391.391,0,0,1,.485-.321.462.462,0,0,1,.288.5c-.013.331.076,3.531.134,5.493A.432.432,0,0,1,984.822,617.517Z" transform="translate(-980.299 -611.032)" fill="#7913ea"/>
            <path id="Trazado_100828" data-name="Trazado 100828" d="M981.427,618.116a.214.214,0,0,1-.2-.227v-5.571a.2.2,0,1,1,.394,0v5.571A.214.214,0,0,1,981.427,618.116Z" transform="translate(-976.061 -611.859)" fill="#7913ea"/>
            <path id="Trazado_100829" data-name="Trazado 100829" d="M978.478,618.065a.214.214,0,0,1-.2-.223c-.037-1.936-.126-5.1-.206-5.478a.26.26,0,0,1,.006-.236.181.181,0,0,1,.273-.065c.108.082.21.158.318,5.768a.217.217,0,0,1-.193.234Z" transform="translate(-972.421 -611.809)" fill="#7913ea"/>
            <path id="Trazado_100830" data-name="Trazado 100830" d="M1002.728,617.788h-.021a.425.425,0,0,1-.394-.433l-.264-5.848a.44.44,0,0,1,.375-.481.427.427,0,0,1,.416.433l.264,5.848A.437.437,0,0,1,1002.728,617.788Z" transform="translate(-1002.048 -611.025)" fill="#7913ea"/>
          </g>
        </g>
      </g>
      <g id="Grupo_53834" data-name="Grupo 53834" transform="translate(34.251)">
        <path id="Trazado_100831" data-name="Trazado 100831" d="M1667.228,217.294l13.984-7.076a1.27,1.27,0,0,1,.929-.084l16.957,5.036a1.263,1.263,0,0,1,.4,2.219l-11.15,8.4Z" transform="translate(-1581.402 -199.086)" fill="#06b6c3"/>
        <path id="Trazado_100832" data-name="Trazado 100832" d="M1260.177,185.318c1.671,6.214,71.917,27.5,116.035,37.015.4.084.794.171,1.189.251,15.81,3.371,28.075,5.164,32.3,4.107,5.642-1.414,14.3-3.159,23.134-4.826,1.141-.214,2.286-.429,3.427-.639,15.08-2.8,29.636-5.211,29.636-5.211s4.107-5.322-6.539-5.541c0,0-158.4-42.776-164.857-41.308s-18.254,7.154-21.565,6.876S1257.881,176.8,1260.177,185.318Z" transform="translate(-1259.882 -167)" fill="#02cddb"/>
        <path id="Trazado_100833" data-name="Trazado 100833" d="M1241.6,190.983l24.26-10.873a8.9,8.9,0,0,0,3.75-3.161l10.823-16.1a3.5,3.5,0,0,1,3.921-1.4c4.711,1.429,14.471,4.525,14.422,5.66-.065,1.494-8.154,38.448-8.154,38.448Z" transform="translate(-1088.023 -159.295)" fill="#06b6c3"/>
        <path id="Trazado_100834" data-name="Trazado 100834" d="M1324.9,358.1l1.245,8.046a4.375,4.375,0,0,1-1.145,3.689,4.437,4.437,0,0,1-3.646,1.36l-8.18-.678a4.421,4.421,0,0,1-3.245-1.76l-13.168-17.877Z" transform="translate(-1127.381 -309.4)" fill="#06b6c3"/>
        <path id="Trazado_100835" data-name="Trazado 100835" d="M1714.242,391.425s-5.467,5.671-13.534,5-17.81-3.724-19.436-6.734-3.85-24.423,12.281-20.032S1728,385.194,1714.242,391.425Z" transform="translate(-1603.282 -323.651)" fill="#068891"/>
        <g id="Grupo_53830" data-name="Grupo 53830" transform="translate(77.343 47.826)">
          <path id="Trazado_100836" data-name="Trazado 100836" d="M1813.008,399.161a.852.852,0,0,1-.288-.011c-.507-.11-.974-.684-1.392-1.7-1.342-3.28-1.8-10.1,1.4-14.989h0a4.983,4.983,0,0,1,4.271-2.269,3.336,3.336,0,0,1,3.54,3.191c.556,4.07-4.053,12.956-6.426,15.147A2.154,2.154,0,0,1,1813.008,399.161Zm3.395-18.243a4.353,4.353,0,0,0-3.089,1.92h0c-3.023,4.625-2.585,11.291-1.336,14.342.361.883.708,1.245.892,1.286.023.006.24.035.769-.455,2.466-2.28,6.7-10.943,6.207-14.539a2.642,2.642,0,0,0-2.858-2.587A4.376,4.376,0,0,0,1816.4,380.918Z" transform="translate(-1810.307 -380.187)" fill="#bdd0fb"/>
        </g>
        <path id="Trazado_100837" data-name="Trazado 100837" d="M1259.1,225.539l-3.971-.329-5.824,25.044,4.094,1.323Z" transform="translate(-1050.021 -210.939)" fill="#068891"/>
        <g id="Grupo_53832" data-name="Grupo 53832" transform="translate(14.269 6.211)">
          <g id="Grupo_53831" data-name="Grupo 53831" transform="translate(33.886 9.553)">
            <path id="Trazado_100838" data-name="Trazado 100838" d="M1815.218,270.565a2.375,2.375,0,0,0-2.17-2.561l-.149-.013a2.375,2.375,0,0,0-2.561,2.169l-.127,1.546a2.374,2.374,0,0,0,2.169,2.561l.15.013a2.374,2.374,0,0,0,2.561-2.169Z" transform="translate(-1775.737 -260.214)" fill="#732be5"/>
            <path id="Trazado_100839" data-name="Trazado 100839" d="M1853.608,264.145a2.374,2.374,0,0,0-2.169-2.561l-.149-.013a2.375,2.375,0,0,0-2.561,2.169l-.128,1.546a2.375,2.375,0,0,0,2.169,2.561l.15.013a2.375,2.375,0,0,0,2.561-2.169Z" transform="translate(-1822.439 -255.184)" fill="#732be5"/>
            <path id="Trazado_100840" data-name="Trazado 100840" d="M1894.938,254.235a2.375,2.375,0,0,0-2.169-2.561l-.149-.013a2.375,2.375,0,0,0-2.562,2.169l-.128,1.546a2.375,2.375,0,0,0,2.17,2.561l.149.013a2.375,2.375,0,0,0,2.562-2.169Z" transform="translate(-1872.718 -247.419)" fill="#732be5"/>
            <path id="Trazado_100841" data-name="Trazado 100841" d="M1936.018,241.1a2.374,2.374,0,0,0-2.169-2.561l-.15-.013a2.375,2.375,0,0,0-2.561,2.169l-.128,1.546a2.375,2.375,0,0,0,2.169,2.561l.149.013a2.375,2.375,0,0,0,2.562-2.169Z" transform="translate(-1922.692 -237.132)" fill="#732be5"/>
            <path id="Trazado_100842" data-name="Trazado 100842" d="M1974.4,234.685a2.374,2.374,0,0,0-2.169-2.561l-.15-.013a2.374,2.374,0,0,0-2.561,2.169l-.128,1.546a2.375,2.375,0,0,0,2.17,2.561l.149.013a2.374,2.374,0,0,0,2.561-2.169Z" transform="translate(-1969.382 -232.102)" fill="#732be5"/>
          </g>
          <path id="Trazado_100843" data-name="Trazado 100843" d="M2038.021,187.98l15.542,5.735a2.581,2.581,0,0,1,1.649,2.86c-.253,1.457-.61,3.1-.926,2.932-.558-.3-24.97-8.7-24.97-8.7Z" transform="translate(-2029.315 -187.98)" fill="#732be5"/>
        </g>
        <g id="Grupo_53833" data-name="Grupo 53833" transform="translate(116.231 47.562)">
          <path id="Trazado_100844" data-name="Trazado 100844" d="M1400.375,386.526a.666.666,0,0,0,.084.214.71.71,0,0,0,.766.34l.422-.089,31.581-6.552,23.853,5.831c1.141-.214,2.287-.429,3.427-.639l-27.255-6.662-32.321,6.708A.72.72,0,0,0,1400.375,386.526Z" transform="translate(-1400.36 -378.97)" fill="#068891"/>
        </g>
        <path id="Trazado_100845" data-name="Trazado 100845" d="M1603.729,339.306l-37.664-9.936,28.64,43.943a2.621,2.621,0,0,0,1.767,1.158l22.74,3.837a2.633,2.633,0,0,0,2.775-3.808Z" transform="translate(-1481.781 -292.547)" fill="#06b6c3"/>
      </g>
      <g id="Grupo_53868" data-name="Grupo 53868" transform="translate(14.397 86.093)">
        <g id="Grupo_53836" data-name="Grupo 53836" transform="translate(18.177)">
          <path id="Trazado_100846" data-name="Trazado 100846" d="M907.136,726.445a5,5,0,0,0,4.989,4.982h269.72a5,5,0,0,0,4.988-4.982l2.245-155c0-2.741-3.228-8.091-9.148-7.688l-263.6-6.82a12.569,12.569,0,0,0-12.9,12.856Z" transform="translate(-903.43 -556.931)" fill="#732be5"/>
          <path id="Trazado_100847" data-name="Trazado 100847" d="M939.072,743.049a4.731,4.731,0,0,0,4.718,4.718H1202.35a4.731,4.731,0,0,0,4.718-4.718l2.118-140.711c-.249-8.468-7.673-11.512-12.172-11.332l-252.637-6.777a8.832,8.832,0,0,0-9.063,9.039Z" transform="translate(-930.44 -578.316)" fill="#afafaf"/>
          <g id="Grupo_53835" data-name="Grupo 53835" transform="translate(183.08 13.504)">
            <path id="Trazado_100848" data-name="Trazado 100848" d="M955.791,963.491a.4.4,0,0,0,.4-.394l.167-11.412a.4.4,0,1,0-.8-.011l-.167,11.412a.4.4,0,0,0,.394.4Z" transform="translate(-865.037 -879.401)" fill="#7d97f4"/>
            <path id="Trazado_100849" data-name="Trazado 100849" d="M1042.465,675.426a.4.4,0,0,0,.4-.394l.641-43.705a9.265,9.265,0,0,0-2.678-6.95c-3.168-3.036-8.1-2.923-8.429-2.912L951.709,619.3a.4.4,0,0,0-.022.8l80.714,2.165h.015c.2-.009,4.891-.154,7.857,2.689a8.492,8.492,0,0,1,2.432,6.37l-.641,43.7a.4.4,0,0,0,.394.4A.008.008,0,0,0,1042.465,675.426Z" transform="translate(-951.3 -619.299)" fill="#7d97f4"/>
          </g>
        </g>
        <path id="Trazado_100850" data-name="Trazado 100850" d="M1933.04,688.128h.024l8.835.1a2.424,2.424,0,0,0,2.482-2.1l.909-7.805a1.8,1.8,0,0,0-.364-1.3,1.934,1.934,0,0,0-1.353-.74h0c-.745-.069-1.769-.184-2.9-.31-2.455-.273-5.238-.585-6.874-.641a.223.223,0,0,1-.037,0,2.486,2.486,0,0,0-2.49,1.79c-.491,1.788-.509,5.19-.483,8.814A2.268,2.268,0,0,0,1933.04,688.128Zm10.47-11.09a1.222,1.222,0,0,1,.858.461,1,1,0,0,1,.208.732l-.909,7.805a1.7,1.7,0,0,1-1.76,1.433l-8.836-.1h-.018a1.522,1.522,0,0,1-1.54-1.438c-.026-3.566-.011-6.9.455-8.6a1.782,1.782,0,0,1,1.81-1.243c1.611.056,4.5.379,6.823.637,1.135.123,2.163.238,2.91.308Z" transform="translate(-1863.911 -649.693)" fill="url(#linear-gradient)"/>
        <path id="Trazado_100851" data-name="Trazado 100851" d="M1948.249,684.014c-1.853-.173-5.878-.693-7.792-.758a1.709,1.709,0,0,0-1.732,1.21,33.342,33.342,0,0,0-.375,6.957,1.51,1.51,0,0,0,1.529,1.453l7.06.08a1.646,1.646,0,0,0,1.693-1.412l.728-6.236A1.189,1.189,0,0,0,1948.249,684.014Z" transform="translate(-1869.613 -655.904)" fill="#91b3fa"/>
        <path id="Trazado_100852" data-name="Trazado 100852" d="M839.628,1350.139h314.738a1.631,1.631,0,0,0,1.626-1.626v-10.369a1.629,1.629,0,0,0-1.626-1.624H839.626a1.631,1.631,0,0,0-1.626,1.626v10.369A1.634,1.634,0,0,0,839.628,1350.139Z" transform="translate(-838 -1167.729)" fill="#732be5"/>
        <path id="Trazado_100853" data-name="Trazado 100853" d="M1067.406,1260.435h222.523a3.726,3.726,0,0,0,3.726-3.726v-1.052a3.726,3.726,0,0,0-3.726-3.726H1067.406a3.726,3.726,0,0,0-3.726,3.726v1.052A3.726,3.726,0,0,0,1067.406,1260.435Z" transform="translate(-1024.526 -1101.454)" fill="#02dba8"/>
        <g id="Grupo_53856" data-name="Grupo 53856" transform="translate(151.773 18.02)">
          <g id="Grupo_53844" data-name="Grupo 53844" transform="translate(0 16.743)">
            <g id="Grupo_53843" data-name="Grupo 53843" opacity="0.68">
              <g id="Grupo_53837" data-name="Grupo 53837" transform="translate(48.787 0.002)">
                <path id="Trazado_100854" data-name="Trazado 100854" d="M1199.2,717.5c.439.786.844,1.591,1.221,2.408.654,1.412,1.228,2.856,1.754,4.317a87.33,87.33,0,0,1,2.618,8.922c.728,3.012,1.332,6.052,1.853,9.1,1.039,6.106,1.745,12.261,2.226,18.429q.357,4.628.548,9.267.1,2.319.151,4.64l.048,2.321.017,1.161.006.58,0,.29c0,.1-.022.193-.022.29q-.072,9.288-.84,18.551c-.526,6.169-1.3,12.32-2.427,18.412-.565,3.046-1.219,6.077-2,9.081q-.185.711-.381,1.42H1202.8q.224-.851.435-1.7c.732-2.981,1.342-5.993,1.864-9.02,1.039-6.058,1.73-12.174,2.174-18.308s.63-12.285.6-18.434a239.3,239.3,0,0,0-2.334-36.8c-.464-3.04-1.009-6.067-1.674-9.065a86.522,86.522,0,0,0-2.431-8.879c-.494-1.451-1.033-2.886-1.652-4.287-.4-.918-.842-1.819-1.323-2.7Z" transform="translate(-1170.259 -717.5)" fill="#fff"/>
                <path id="Trazado_100855" data-name="Trazado 100855" d="M1327.666,732.98a85.019,85.019,0,0,1,2.97-8.81c.584-1.438,1.214-2.858,1.925-4.242.42-.82.866-1.63,1.347-2.418h.74c-.533.883-1.026,1.795-1.481,2.724-.673,1.375-1.273,2.786-1.825,4.216a83.321,83.321,0,0,0-2.774,8.777c-.773,2.973-1.422,5.98-1.977,9a177.829,177.829,0,0,0-2.347,18.287c-.249,3.064-.422,6.136-.541,9.208s-.175,6.147-.169,9.223.056,6.151.171,9.226.275,6.145.507,9.211c.452,6.132,1.134,12.25,2.169,18.308.513,3.029,1.115,6.043,1.836,9.027.16.663.329,1.325.5,1.985h-1.178q-.234-.851-.455-1.7c-.773-3-1.422-6.036-1.985-9.083a207.5,207.5,0,0,1-3.092-36.972,190.438,190.438,0,0,1,3.484-36.928C1326.115,738.979,1326.828,735.964,1327.666,732.98Z" transform="translate(-1322.01 -717.508)" fill="#fff"/>
              </g>
              <g id="Grupo_53838" data-name="Grupo 53838" transform="translate(17.57)">
                <path id="Trazado_100856" data-name="Trazado 100856" d="M1037.462,717.5a53.588,53.588,0,0,1,8.392,6.824,62.533,62.533,0,0,1,7.632,9.219,75.423,75.423,0,0,1,10.027,21.686,86.042,86.042,0,0,1,2.455,11.739,88.843,88.843,0,0,1,.013,23.935,86.22,86.22,0,0,1-2.442,11.744,75.476,75.476,0,0,1-10.005,21.712q-.8,1.182-1.658,2.332h-1.7q1.13-1.53,2.172-3.122a70.906,70.906,0,0,0,5.54-10.341,80.164,80.164,0,0,0,3.878-11.072,90.8,90.8,0,0,0,.026-46.448,80.324,80.324,0,0,0-3.865-11.083,70.907,70.907,0,0,0-5.532-10.356,60.994,60.994,0,0,0-7.286-9.208,51.264,51.264,0,0,0-9.052-7.476l-.134-.084Z" transform="translate(-960.988 -717.498)" fill="#fff"/>
                <path id="Trazado_100857" data-name="Trazado 100857" d="M1383.7,766.976a86.188,86.188,0,0,1,2.445-11.726,75.925,75.925,0,0,1,9.988-21.673,62.61,62.61,0,0,1,7.608-9.223,53.387,53.387,0,0,1,8.42-6.864h1.405c-.028.017-.058.035-.087.054a51.259,51.259,0,0,0-9.074,7.467,61.014,61.014,0,0,0-7.309,9.206,75.129,75.129,0,0,0-9.436,21.452,90.579,90.579,0,0,0,.026,46.5,75.084,75.084,0,0,0,9.46,21.428c.684,1.048,1.4,2.072,2.148,3.079h-1.524q-.867-1.169-1.682-2.375a76.032,76.032,0,0,1-9.964-21.7,86.28,86.28,0,0,1-2.431-11.731,89.314,89.314,0,0,1,.009-23.9Z" transform="translate(-1382.89 -717.49)" fill="#fff"/>
              </g>
              <g id="Grupo_53839" data-name="Grupo 53839" transform="translate(5.48 33.798)">
                <path id="Trazado_100858" data-name="Trazado 100858" d="M1123.271,874.021l-3.941-.065-3.941-.05-7.881-.1-15.764-.121c-10.51-.08-21.019-.091-31.526-.1l-15.764.024-7.881.035-3.941.017-3.94.032-15.764.132-7.881.106-3.941.054-3.94.071a.077.077,0,0,0,0,.154l3.94.072,3.941.054,7.881.106,15.764.132,3.94.033,3.941.017,7.881.035,15.764.024c10.509-.009,21.019-.017,31.526-.1l15.764-.121,7.881-.1,3.941-.05,3.941-.065a.114.114,0,0,0,.113-.117A.119.119,0,0,0,1123.271,874.021Z" transform="translate(-997.09 -873.59)" fill="#fff"/>
              </g>
              <g id="Grupo_53840" data-name="Grupo 53840" transform="translate(23.762 7.396)">
                <path id="Trazado_100859" data-name="Trazado 100859" d="M1212.188,751.869q-5.6-.078-11.192-.126c-7.461-.069-14.922-.087-22.383-.093l-11.191.024c-3.73.028-7.461.037-11.192.08l-5.6.059-5.6.078-5.6.106-2.8.054-2.8.072a.078.078,0,0,0,0,.156l2.8.072,2.8.054,5.6.106,5.6.078,5.6.058c3.731.043,7.461.052,11.192.08l11.191.024c7.461-.007,14.922-.024,22.383-.093q5.6-.042,11.192-.126Z" transform="translate(-1133.77 -751.65)" fill="#fff"/>
              </g>
              <g id="Grupo_53841" data-name="Grupo 53841" transform="translate(0 60.201)">
                <path id="Trazado_100860" data-name="Trazado 100860" d="M1108.929,995.971l-4.283-.065-4.282-.05-8.567-.1-17.133-.121c-11.423-.08-22.844-.091-34.268-.1l-17.133.024-8.567.035-4.283.017-4.282.032L989,995.781l-8.567.106-4.283.054-4.282.071a.077.077,0,0,0,0,.154l4.282.071,4.283.054L989,996.4l17.133.132,4.282.032,4.283.017,8.567.035,17.133.024c11.423-.009,22.844-.017,34.268-.1l17.133-.121,8.567-.1,4.282-.05,4.283-.065a.114.114,0,0,0,.113-.117A.119.119,0,0,0,1108.929,995.971Z" transform="translate(-971.79 -995.54)" fill="#fff"/>
              </g>
              <g id="Grupo_53842" data-name="Grupo 53842" transform="translate(5.48 86.603)">
                <path id="Trazado_100861" data-name="Trazado 100861" d="M1123.271,1117.913l-3.941-.065-3.941-.05-7.881-.1-15.764-.121c-10.51-.08-21.019-.091-31.526-.1l-15.764.024-7.881.035-3.941.017-3.94.033-15.764.132-7.881.106-3.941.054-3.94.072a.077.077,0,0,0,0,.154l3.94.072,3.941.054,7.881.106,15.764.132,3.94.033,3.941.017,7.881.034,15.764.024c10.509-.009,21.019-.017,31.526-.1l15.764-.121,7.881-.1,3.941-.05,3.941-.065a.114.114,0,0,0,.113-.117A.116.116,0,0,0,1123.271,1117.913Z" transform="translate(-997.09 -1117.48)" fill="#fff"/>
              </g>
            </g>
          </g>
          <g id="Grupo_53846" data-name="Grupo 53846" transform="translate(25.3)">
            <g id="Grupo_53845" data-name="Grupo 53845">
              <path id="Trazado_100862" data-name="Trazado 100862" d="M1403.021,667.93a3.374,3.374,0,0,0,2.908-1.639c3.427-5.662,7.513-13.123,7.513-16.509,0-5.3-4.674-9.622-10.421-9.622s-10.421,4.315-10.421,9.622c0,3.386,4.086,10.845,7.513,16.509A3.373,3.373,0,0,0,1403.021,667.93Zm0-26.291c4.93,0,8.942,3.653,8.942,8.143,0,2.341-2.661,8.08-7.3,15.743a1.92,1.92,0,0,1-3.287,0c-4.64-7.664-7.3-13.4-7.3-15.743C1394.079,645.294,1398.089,641.639,1403.021,641.639Z" transform="translate(-1392.6 -640.16)" fill="#fff"/>
              <path id="Trazado_100863" data-name="Trazado 100863" d="M1413.537,668.762a6.5,6.5,0,0,0,6.491-6.491.738.738,0,0,0-1.477,0,5.01,5.01,0,1,1-.992-2.994.74.74,0,1,0,1.186-.883,6.491,6.491,0,1,0-5.209,10.369Z" transform="translate(-1402.315 -652.398)" fill="#fff"/>
            </g>
          </g>
          <g id="Grupo_53848" data-name="Grupo 53848" transform="translate(63.544 89.926)">
            <g id="Grupo_53847" data-name="Grupo 53847">
              <path id="Trazado_100864" data-name="Trazado 100864" d="M1226.381,1083.27a3.373,3.373,0,0,0,2.907-1.639c3.427-5.661,7.513-13.123,7.513-16.509,0-5.3-4.674-9.622-10.421-9.622s-10.421,4.315-10.421,9.622c0,3.386,4.086,10.845,7.513,16.509A3.374,3.374,0,0,0,1226.381,1083.27Zm0-26.291c4.93,0,8.942,3.653,8.942,8.143,0,2.34-2.661,8.08-7.3,15.742a1.921,1.921,0,0,1-3.287,0c-4.64-7.664-7.3-13.4-7.3-15.742C1217.439,1060.631,1221.451,1056.979,1226.381,1056.979Z" transform="translate(-1215.96 -1055.5)" fill="#fff"/>
              <path id="Trazado_100865" data-name="Trazado 100865" d="M1236.887,1084.1a6.5,6.5,0,0,0,6.491-6.491.738.738,0,1,0-1.477,0,5.01,5.01,0,1,1-.992-2.995.74.74,0,1,0,1.186-.883,6.491,6.491,0,1,0-5.209,10.369Z" transform="translate(-1225.663 -1067.738)" fill="#fff"/>
            </g>
          </g>
          <g id="Grupo_53855" data-name="Grupo 53855" transform="translate(33.749 28.785)">
            <g id="Grupo_53849" data-name="Grupo 53849" transform="translate(5.221 54.797)">
              <path id="Trazado_100866" data-name="Trazado 100866" d="M1414.186,1041.008a.644.644,0,0,0,.065,0l1.6-.208a.5.5,0,1,0-.13-1l-1.6.208a.5.5,0,0,0,.065,1Z" transform="translate(-1413.682 -1036.849)" fill="#fff"/>
              <path id="Trazado_100867" data-name="Trazado 100867" d="M1330.956,1031.923c.022,0,.043,0,.065,0l3-.39a.5.5,0,0,0-.13-1l-3,.39a.5.5,0,0,0,.065,1Zm6.008-.781c.022,0,.043,0,.065,0l3-.39a.5.5,0,1,0-.13-1l-3,.39a.5.5,0,0,0,.065,1Zm6.006-.782a.64.64,0,0,0,.065,0l3-.39a.5.5,0,1,0-.13-1l-3,.39a.5.5,0,0,0,.065,1Z" transform="translate(-1325.851 -1028.364)" fill="#fff"/>
              <path id="Trazado_100868" data-name="Trazado 100868" d="M1309.7,1027.418a.606.606,0,0,0,.065,0l1.6-.208a.5.5,0,0,0-.13-1l-1.6.208a.5.5,0,0,0,.065,1Z" transform="translate(-1286.568 -1026.201)" fill="#fff"/>
            </g>
            <g id="Grupo_53854" data-name="Grupo 53854" transform="translate(0 0.94)">
              <g id="Grupo_53850" data-name="Grupo 53850" transform="translate(0 24.418)">
                <path id="Trazado_100869" data-name="Trazado 100869" d="M1369.272,892.338a.5.5,0,0,0,.344-.136l1.174-1.1a.5.5,0,0,0-.691-.734l-1.173,1.1a.5.5,0,0,0,.346.87Z" transform="translate(-1353.397 -890.227)" fill="#fff"/>
                <path id="Trazado_100870" data-name="Trazado 100870" d="M1384.052,914.679a.5.5,0,0,0,.344-.136l2.027-1.907a.5.5,0,0,0-.691-.734l-2.027,1.907a.5.5,0,0,0-.022.712A.51.51,0,0,0,1384.052,914.679Zm4.055-3.815a.5.5,0,0,0,.344-.136l2.026-1.907a.5.5,0,0,0-.691-.734l-2.026,1.907a.5.5,0,0,0,.346.87Zm4.055-3.813a.5.5,0,0,0,.344-.136l2.029-1.908a.5.5,0,0,0-.691-.734l-2.026,1.907a.5.5,0,0,0,.344.87Z" transform="translate(-1380.342 -901.125)" fill="#fff"/>
                <path id="Trazado_100871" data-name="Trazado 100871" d="M1440.729,960.64a.487.487,0,0,0,.145-.022.5.5,0,0,0,.336-.628l-.377-1.243.946-.89a.5.5,0,1,0-.691-.734l-1.173,1.1a.5.5,0,0,0-.137.513l.465,1.541A.512.512,0,0,0,1440.729,960.64Z" transform="translate(-1439.756 -942.532)" fill="#fff"/>
                <path id="Trazado_100872" data-name="Trazado 100872" d="M1430.566,991.322a.479.479,0,0,0,.145-.022.5.5,0,0,0,.335-.628l-.838-2.769a.5.5,0,0,0-.964.292l.838,2.769A.506.506,0,0,0,1430.566,991.322Zm-1.674-5.538a.481.481,0,0,0,.145-.022.5.5,0,0,0,.336-.628l-.838-2.769a.5.5,0,0,0-.964.292l.838,2.769A.507.507,0,0,0,1428.893,985.783Z" transform="translate(-1426.244 -962.135)" fill="#fff"/>
                <path id="Trazado_100873" data-name="Trazado 100873" d="M1422.49,1035.725a.481.481,0,0,0,.145-.021.5.5,0,0,0,.336-.628l-.466-1.542a.5.5,0,0,0-.964.292l.466,1.542A.5.5,0,0,0,1422.49,1035.725Z" transform="translate(-1416.863 -1002.226)" fill="#fff"/>
              </g>
              <g id="Grupo_53851" data-name="Grupo 53851" transform="translate(3.155)">
                <path id="Trazado_100874" data-name="Trazado 100874" d="M1251.384,854.68a.505.505,0,0,0,.5-.5v-1.611a.5.5,0,0,0-1.009,0v1.611A.508.508,0,0,0,1251.384,854.68Z" transform="translate(-1211.969 -835.906)" fill="#fff"/>
                <path id="Trazado_100875" data-name="Trazado 100875" d="M1251.384,808.173a.505.505,0,0,0,.5-.5v-2.9a.5.5,0,1,0-1.009,0v2.9A.507.507,0,0,0,1251.384,808.173Zm0-5.8a.505.505,0,0,0,.5-.5v-2.9a.5.5,0,1,0-1.009,0v2.9A.507.507,0,0,0,1251.384,802.37Z" transform="translate(-1211.969 -793.911)" fill="#fff"/>
                <path id="Trazado_100876" data-name="Trazado 100876" d="M1252.993,780.242a.5.5,0,0,0,.5-.5v-1.611a.506.506,0,0,0-.5-.5l-1.611,0h0a.5.5,0,1,0,0,1.007l1.109,0v1.109A.5.5,0,0,0,1252.993,780.242Z" transform="translate(-1213.577 -777.583)" fill="#fff"/>
                <path id="Trazado_100877" data-name="Trazado 100877" d="M1303.005,778.509a.5.5,0,0,0,0-1.007l-3.245,0h0a.5.5,0,1,0,0,1.007l3.245,0Zm-6.491-.009a.5.5,0,0,0,0-1.007l-3.245,0h0a.5.5,0,1,0,0,1.007l3.245,0Zm-6.489-.006a.5.5,0,0,0,0-1.007l-3.246,0h0a.5.5,0,1,0,0,1.007l3.245,0Zm-6.489-.007a.5.5,0,1,0,0-1.007l-3.245,0h0a.5.5,0,1,0,0,1.007l3.245,0Zm-6.489-.006a.5.5,0,0,0,0-1.007l-3.246,0h0a.5.5,0,0,0,0,1.007l3.245,0Z" transform="translate(-1268.444 -777.466)" fill="#fff"/>
                <path id="Trazado_100878" data-name="Trazado 100878" d="M1425.284,778.459a.5.5,0,0,0,0-1.007l-1.611,0h0a.5.5,0,1,0,0,1.007l1.611,0Z" transform="translate(-1423.17 -777.45)" fill="#fff"/>
              </g>
              <g id="Grupo_53852" data-name="Grupo 53852" transform="translate(5.407 56.841)">
                <path id="Trazado_100879" data-name="Trazado 100879" d="M1332.324,1133.089h1.611a.5.5,0,0,0,0-1.009h-1.611a.5.5,0,0,0,0,1.009Z" transform="translate(-1314.296 -1112.14)" fill="#fff"/>
                <path id="Trazado_100880" data-name="Trazado 100880" d="M1354.454,1133.089h3.183a.5.5,0,1,0,0-1.009h-3.183a.5.5,0,0,0,0,1.009Zm6.365,0H1364a.5.5,0,1,0,0-1.009h-3.182a.5.5,0,0,0,0,1.009Z" transform="translate(-1349.154 -1112.14)" fill="#fff"/>
                <path id="Trazado_100881" data-name="Trazado 100881" d="M1413.257,1127.252h1.611a.5.5,0,0,0,0-1.009h-1.109v-1.109a.5.5,0,0,0-1.009,0v1.611A.507.507,0,0,0,1413.257,1127.252Z" transform="translate(-1412.75 -1106.302)" fill="#fff"/>
                <path id="Trazado_100882" data-name="Trazado 100882" d="M1420.694,1073.9a.5.5,0,0,0,.5-.5v-3.343a.5.5,0,1,0-1.009,0v3.343A.5.5,0,0,0,1420.694,1073.9Zm0-6.688a.505.505,0,0,0,.5-.5v-3.343a.5.5,0,0,0-1.009,0v3.343A.5.5,0,0,0,1420.694,1067.212Z" transform="translate(-1420.188 -1057.906)" fill="#fff"/>
                <path id="Trazado_100883" data-name="Trazado 100883" d="M1420.694,1042.6a.505.505,0,0,0,.5-.5v-1.611a.5.5,0,1,0-1.009,0v1.611A.5.5,0,0,0,1420.694,1042.6Z" transform="translate(-1420.188 -1039.98)" fill="#fff"/>
              </g>
              <g id="Grupo_53853" data-name="Grupo 53853" transform="translate(29.344 22.799)">
                <path id="Trazado_100884" data-name="Trazado 100884" d="M1096.025,883.759h1.61a.5.5,0,1,0,0-1.009h-1.61a.5.5,0,0,0,0,1.009Z" transform="translate(-1050.77 -882.75)" fill="#fff"/>
                <path id="Trazado_100885" data-name="Trazado 100885" d="M1116.494,883.759h2.819a.5.5,0,1,0,0-1.009h-2.819a.5.5,0,0,0,0,1.009Zm5.638,0h2.819a.5.5,0,1,0,0-1.009h-2.819a.5.5,0,0,0,0,1.009Z" transform="translate(-1082.518 -882.75)" fill="#fff"/>
                <path id="Trazado_100886" data-name="Trazado 100886" d="M1168.593,884.947a.5.5,0,0,0,.368-.16l.948-1.018h1.392a.5.5,0,1,0,0-1.009h-1.611a.5.5,0,0,0-.368.16l-1.1,1.178a.506.506,0,0,0,.368.849Z" transform="translate(-1140.149 -882.758)" fill="#fff"/>
                <path id="Trazado_100887" data-name="Trazado 100887" d="M1190.641,923.81a.506.506,0,0,0,.368-.16l2.065-2.215a.5.5,0,0,0-.738-.686l-2.065,2.215a.5.5,0,0,0,.37.847Zm4.129-4.43a.5.5,0,0,0,.368-.16L1197.2,917a.5.5,0,1,0-.738-.686l-2.065,2.215a.5.5,0,0,0,.026.712A.511.511,0,0,0,1194.77,919.38Zm4.129-4.43a.5.5,0,0,0,.368-.16l2.066-2.215a.5.5,0,0,0-.738-.686l-2.065,2.215a.5.5,0,0,0,.026.712A.519.519,0,0,0,1198.9,914.95Zm4.131-4.43a.5.5,0,0,0,.368-.16l2.066-2.215a.5.5,0,0,0-.739-.686l-2.065,2.215a.5.5,0,0,0,.026.712A.511.511,0,0,0,1203.03,910.52Zm4.129-4.432a.5.5,0,0,0,.368-.16l2.066-2.215a.5.5,0,0,0-.738-.686l-2.065,2.215a.5.5,0,0,0,.37.847Zm4.129-4.43a.5.5,0,0,0,.368-.16l2.066-2.215a.5.5,0,0,0-.738-.686l-2.066,2.215a.5.5,0,0,0,.026.712A.511.511,0,0,0,1211.288,901.659Z" transform="translate(-1186.973 -895.04)" fill="#fff"/>
                <path id="Trazado_100888" data-name="Trazado 100888" d="M1305.081,1023.4a.5.5,0,0,0,.368-.16l1.1-1.178a.5.5,0,0,0-.739-.686l-1.1,1.178a.5.5,0,0,0,.026.712A.511.511,0,0,0,1305.081,1023.4Z" transform="translate(-1304.576 -991.237)" fill="#fff"/>
              </g>
            </g>
            <circle id="Elipse_4059" data-name="Elipse 4059" cx="2.066" cy="2.066" r="2.066" transform="translate(73.338 21.753)" fill="#fff"/>
            <circle id="Elipse_4060" data-name="Elipse 4060" cx="2.066" cy="2.066" r="2.066" transform="translate(40.304 17.726)" fill="#fff"/>
            <circle id="Elipse_4061" data-name="Elipse 4061" cx="2.066" cy="2.066" r="2.066" transform="translate(40.304)" fill="#fff"/>
            <circle id="Elipse_4062" data-name="Elipse 4062" cx="2.066" cy="2.066" r="2.066" transform="translate(14.925 23.769)" fill="#fff"/>
            <circle id="Elipse_4063" data-name="Elipse 4063" cx="2.066" cy="2.066" r="2.066" transform="translate(27.816 53.175)" fill="#fff"/>
            <circle id="Elipse_4064" data-name="Elipse 4064" cx="2.066" cy="2.066" r="2.066" transform="translate(22.581 76.139)" fill="#fff"/>
            <circle id="Elipse_4065" data-name="Elipse 4065" cx="2.066" cy="2.066" r="2.066" transform="translate(3.647 56.399)" fill="#fff"/>
            <path id="Trazado_100889" data-name="Trazado 100889" d="M1251.938,869.154a.571.571,0,0,0,.119-.013l.333-.08a.5.5,0,1,0-.236-.979l-.333.08a.5.5,0,0,0,.117.991Zm3.466-.833a.573.573,0,0,0,.119-.013l3.133-.753a.5.5,0,1,0-.234-.979l-3.133.753a.5.5,0,0,0,.115.992Zm6.268-1.5a.57.57,0,0,0,.119-.013l3.133-.754a.5.5,0,1,0-.234-.979l-3.133.753a.5.5,0,0,0,.115.992Zm6.268-1.507a.572.572,0,0,0,.119-.013l3.133-.753a.5.5,0,1,0-.234-.979l-3.133.753a.5.5,0,0,0-.372.606A.5.5,0,0,0,1267.941,865.309Zm6.266-1.505a.571.571,0,0,0,.119-.013l3.133-.753a.5.5,0,0,0-.234-.979l-3.133.753a.5.5,0,0,0,.115.992Z" transform="translate(-1234.89 -842.79)" fill="#fff"/>
          </g>
        </g>
        <g id="Grupo_53862" data-name="Grupo 53862" transform="translate(43.773 30.958)">
          <path id="Trazado_100890" data-name="Trazado 100890" d="M1606.232,722.806a.567.567,0,0,1-.223-.043.608.608,0,0,1-.388-.567v-4.335a.608.608,0,0,1,.164-.418l3.107-3.306h-10.068a.609.609,0,0,1-.528-.305l-4.155-7.225a.6.6,0,0,1-.083-.305v-2.89a.61.61,0,0,1,1.042-.431l5.6,5.6h8.388l-3.293-3.293a.612.612,0,0,1-.18-.431v-4.335a.61.61,0,0,1,1.041-.431l8.492,8.492h9.139a2.778,2.778,0,1,1,0,5.556h-9.737l-7.879,8.474A.592.592,0,0,1,1606.232,722.806Zm.61-4.7v2.54l7-7.532a.611.611,0,0,1,.446-.195h10a1.557,1.557,0,0,0,0-3.113H1614.9a.607.607,0,0,1-.431-.18l-7.628-7.628V704.6l4.157,4.157a.61.61,0,0,1-.431,1.041h-10.116a.608.608,0,0,1-.431-.18l-4.737-4.737v1.254l3.9,6.777h11.124a.611.611,0,0,1,.446,1.028Z" transform="translate(-1594.06 -699.913)" fill="#fff"/>
          <g id="Grupo_53861" data-name="Grupo 53861" transform="translate(37.92 6.033)">
            <g id="Grupo_53857" data-name="Grupo 53857" transform="translate(0)">
              <path id="Trazado_100891" data-name="Trazado 100891" d="M1790.044,741.526h-13.562l-.11-.47a1.639,1.639,0,0,0-.117-.327l-.011-.026a2.114,2.114,0,0,0-.2-.362,2.527,2.527,0,0,0-2.092-1.115,2.558,2.558,0,0,0-2.1,1.115,2.1,2.1,0,0,0-.2.362l-.013.026a1.5,1.5,0,0,0-.117.327l-.11.47h-1.137a1.07,1.07,0,0,1-1.069-1.07V728.85a1.07,1.07,0,0,1,1.069-1.07h19.776a1.07,1.07,0,0,1,1.069,1.07v11.607A1.075,1.075,0,0,1,1790.044,741.526Zm-12.642-1.221h12.491V729h-19.475V740.3h.065a1.2,1.2,0,0,1,.052-.11,3.408,3.408,0,0,1,.307-.546,3.746,3.746,0,0,1,6.2,0,3.578,3.578,0,0,1,.305.541C1777.369,740.232,1777.386,740.268,1777.4,740.305Z" transform="translate(-1769.2 -727.78)" fill="#fff"/>
            </g>
            <g id="Grupo_53858" data-name="Grupo 53858" transform="translate(22.262 2.525)">
              <path id="Trazado_100892" data-name="Trazado 100892" d="M1879.877,750.663h-.561a.609.609,0,0,1-.593-.47,1.65,1.65,0,0,0-.117-.327.112.112,0,0,1-.011-.026,1.99,1.99,0,0,0-.2-.362,2.536,2.536,0,0,0-4.2,0,2.294,2.294,0,0,0-.2.362l-.013.026a1.469,1.469,0,0,0-.117.327.611.611,0,0,1-.593.47h-.175a1.071,1.071,0,0,1-1.07-1.07v-9.078a1.071,1.071,0,0,1,1.07-1.07h1.981a5.649,5.649,0,0,1,5.878,6.283v3.865A1.075,1.075,0,0,1,1879.877,750.663Zm-.176-1.332c.009.017.015.032.024.05v-3.689c0-.024,0-.05,0-.074a4.43,4.43,0,0,0-4.616-4.956h-1.875v8.043a3.755,3.755,0,0,1,6.155.078A3.517,3.517,0,0,1,1879.7,749.332Z" transform="translate(-1872.02 -739.442)" fill="#fff"/>
            </g>
            <g id="Grupo_53859" data-name="Grupo 53859" transform="translate(2.83 12.066)">
              <path id="Trazado_100893" data-name="Trazado 100893" d="M1784.186,787.343a1.918,1.918,0,0,1-1.916-1.916,1.938,1.938,0,0,1,1.916-1.916,1.852,1.852,0,0,1,1.442.678,1.889,1.889,0,0,1,.465,1.238A1.914,1.914,0,0,1,1784.186,787.343Zm0-2.613a.638.638,0,0,0-.509.232l-.017.02a.662.662,0,0,0-.169.444.691.691,0,1,0,1.381,0,.678.678,0,0,0-.169-.444l-.017-.02A.63.63,0,0,0,1784.186,784.729Z" transform="translate(-1782.27 -783.51)" fill="#fff"/>
            </g>
            <g id="Grupo_53860" data-name="Grupo 53860" transform="translate(24.615 12.066)">
              <path id="Trazado_100894" data-name="Trazado 100894" d="M1884.806,787.343a1.918,1.918,0,0,1-1.916-1.916,1.938,1.938,0,0,1,1.916-1.916,1.86,1.86,0,0,1,1.451.678,1.889,1.889,0,0,1,.465,1.238A1.918,1.918,0,0,1,1884.806,787.343Zm0-2.613a.648.648,0,0,0-.509.232l-.018.02a.664.664,0,0,0-.169.444.695.695,0,1,0,1.39,0,.679.679,0,0,0-.169-.444l-.018-.02A.647.647,0,0,0,1884.806,784.729Z" transform="translate(-1882.89 -783.51)" fill="#fff"/>
            </g>
          </g>
          <path id="Trazado_100895" data-name="Trazado 100895" d="M1967.221,754.841h-20.854a3.489,3.489,0,0,1-2.873-1.511l-3.64-5.3a1.455,1.455,0,0,1,1.189-2.276l10.579-.082,9.249-.067a.611.611,0,0,1,.009,1.221l-1.228.011-8.024.056-10.578.082a.222.222,0,0,0-.2.123.232.232,0,0,0,.013.245l3.635,5.292a2.27,2.27,0,0,0,1.869.983h20.854a1.679,1.679,0,0,0,1.429-.79l5.389-8.823a.309.309,0,0,0,.011-.32.3.3,0,0,0-.269-.158H1968.9a.611.611,0,1,1,0-1.221h4.876a1.518,1.518,0,0,1,1.34.781,1.535,1.535,0,0,1-.035,1.559l-5.391,8.825A2.9,2.9,0,0,1,1967.221,754.841Z" transform="translate(-1864.787 -733.13)" fill="#fff"/>
          <path id="Trazado_100896" data-name="Trazado 100896" d="M2002.1,739.737h-6.547a.921.921,0,0,1-.92-.92V734.11a.921.921,0,0,1,.92-.92h6.547a.921.921,0,0,1,.921.92v4.707A.923.923,0,0,1,2002.1,739.737Zm-6.549-5.935a.309.309,0,0,0-.307.307v4.707a.309.309,0,0,0,.307.307h6.547a.309.309,0,0,0,.308-.307V734.11a.309.309,0,0,0-.308-.307Z" transform="translate(-1907.902 -725.985)" fill="#fff"/>
          <path id="Trazado_100897" data-name="Trazado 100897" d="M2043.1,740.2h-6.344a1.025,1.025,0,0,1-1.024-1.024v-4.5a1.025,1.025,0,0,1,1.024-1.024h6.344a1.025,1.025,0,0,1,1.024,1.024v4.5A1.028,1.028,0,0,1,2043.1,740.2Zm-6.344-5.935a.41.41,0,0,0-.409.409v4.5a.41.41,0,0,0,.409.409h6.344a.41.41,0,0,0,.409-.409v-4.5a.41.41,0,0,0-.409-.409Z" transform="translate(-1940.104 -726.346)" fill="#fff"/>
          <path id="Trazado_100898" data-name="Trazado 100898" d="M2025.984,707.12h-6.393a.872.872,0,0,1-.87-.87v-4.4a1.281,1.281,0,0,1,1.28-1.279h6.292a.821.821,0,0,1,.818.818v4.605A1.126,1.126,0,0,1,2025.984,707.12ZM2020,701.185a.666.666,0,0,0-.665.665v4.4a.256.256,0,0,0,.255.255h6.393a.512.512,0,0,0,.511-.511v-4.605a.206.206,0,0,0-.206-.206H2020Z" transform="translate(-1926.776 -700.428)" fill="#fff"/>
        </g>
        <g id="Grupo_53863" data-name="Grupo 53863" transform="translate(251.86 24.429)">
          <path id="Trazado_100899" data-name="Trazado 100899" d="M1036.6,669.76a12.97,12.97,0,1,1-12.969,12.971A12.972,12.972,0,0,1,1036.6,669.76Zm-.277,5.928a3.211,3.211,0,0,0-3.367,3.178c0,1.858,1.507,3.865,3.367,3.865s3.365-2.007,3.365-3.865A3.21,3.21,0,0,0,1036.322,675.688Zm-6.376,11.434.442,1.384a1.986,1.986,0,0,0,1.895,1.381h8.217a1.986,1.986,0,0,0,1.918-1.468l.342-1.256a1.984,1.984,0,0,0-1.269-2.4,15.326,15.326,0,0,0-10.343-.115A1.991,1.991,0,0,0,1029.946,687.122Z" transform="translate(-1023.63 -669.76)" fill="#fd0"/>
        </g>
        <g id="Grupo_53865" data-name="Grupo 53865" transform="translate(28.517 64.694)">
          <path id="Trazado_100900" data-name="Trazado 100900" d="M1486.849,901.927h139.612a5.259,5.259,0,0,0,5.259-5.259V860.989a5.259,5.259,0,0,0-5.259-5.259H1486.849a5.259,5.259,0,0,0-5.259,5.259v35.679A5.259,5.259,0,0,0,1486.849,901.927Z" transform="translate(-1481.59 -855.73)" fill="#02dba8"/>
        </g>
        <path id="Trazado_100913" data-name="Trazado 100913" d="M1941.695,980.48l17.838-21.762a.646.646,0,0,0-.348-1.037l-15.756-3.78a1.638,1.638,0,0,1-.494-2.977l44.955-28.411a1.637,1.637,0,0,1,2.49,1.652l-9.347,56.438a1.638,1.638,0,0,1-3.022.572l-8.721-14.639a.642.642,0,0,0-.515-.314.653.653,0,0,0-.55.247l-16.613,21.307a2.938,2.938,0,0,1-3.969.624l-5.331-3.625a2.939,2.939,0,0,1-.617-4.3Z" transform="translate(-1911.229 -843.161)" fill="#fff"/>
        <g id="Grupo_53867" data-name="Grupo 53867" transform="translate(78.129 117.69)">
          <path id="Trazado_100914" data-name="Trazado 100914" d="M1555.962,1138.31h-99.483a3.628,3.628,0,0,1-3.629-3.629v-17.213a3.627,3.627,0,0,1,3.629-3.629h99.483a3.627,3.627,0,0,1,3.629,3.629v17.213A3.627,3.627,0,0,1,1555.962,1138.31Z" transform="translate(-1452.85 -1110.953)" fill="#fd0"/>
          <g id="Grupo_53866" data-name="Grupo 53866" transform="translate(7.178 0)">
            <path id="Trazado_100915" data-name="Trazado 100915" d="M1503.3,1141.255h-.035l-12.46.149a3.48,3.48,0,0,1-3.5-3.122l-1.284-11.609a2.771,2.771,0,0,1,.513-1.938,2.694,2.694,0,0,1,1.91-1.1h0c1.05-.1,2.494-.273,4.086-.461,3.462-.407,7.387-.868,9.7-.953l.052,0a3.533,3.533,0,0,1,3.512,2.663c.693,2.661.719,7.721.682,13.11A3.287,3.287,0,0,1,1503.3,1141.255Zm-14.768-16.494a1.692,1.692,0,0,0-1.208.684,1.548,1.548,0,0,0-.292,1.087l1.284,11.609a2.426,2.426,0,0,0,2.481,2.13l12.46-.149h.024a2.2,2.2,0,0,0,2.17-2.139c.037-5.3.013-10.271-.641-12.787a2.522,2.522,0,0,0-2.555-1.847c-2.271.082-6.346.563-9.622.948-1.6.188-3.047.357-4.1.464Z" transform="translate(-1486.002 -1117.515)" fill="#fff"/>
            <path id="Trazado_100916" data-name="Trazado 100916" d="M1498.229,1135.132c2.613-.258,8.292-1.031,10.99-1.128a2.424,2.424,0,0,1,2.444,1.8c.554,2.13.554,6.4.528,10.347a2.183,2.183,0,0,1-2.156,2.161l-9.958.119a2.366,2.366,0,0,1-2.39-2.1l-1.026-9.278A1.748,1.748,0,0,1,1498.229,1135.132Z" transform="translate(-1494.346 -1126.75)" fill="#fff"/>
            <path id="Trazado_100917" data-name="Trazado 100917" d="M1612.908,1153.25a.889.889,0,0,0-.907,1.163l1.16,4.557a1.589,1.589,0,0,0,1.5,1.139l62.369-1.412a1.189,1.189,0,0,0,1.161-1.23l-.1-2.763a1.266,1.266,0,0,0-1.247-1.208Z" transform="translate(-1584.692 -1141.83)" fill="#fff"/>
            <path id="Trazado_100918" data-name="Trazado 100918" d="M1503.067,1110.7h0a1.8,1.8,0,0,1,2.65.738l2.538,4.848a.589.589,0,0,0,1.1-.078l5.85-15.24a.673.673,0,0,1,1.305.3,31.9,31.9,0,0,1-7.461,20.926s-3.681-1.5-6.74-8.624A2.379,2.379,0,0,1,1503.067,1110.7Z" transform="translate(-1498.622 -1100.505)" fill="#fd6c00"/>
          </g>
        </g>
        <path id="Trazado_100919" data-name="Trazado 100919" d="M1942.887,667.589h0a1.315,1.315,0,0,1,1.88.5l1.8,3.259a.426.426,0,0,0,.777-.052l4.148-10.246a.48.48,0,0,1,.927.2,20.741,20.741,0,0,1-5.289,14.067s-2.609-1.007-4.778-5.8A1.542,1.542,0,0,1,1942.887,667.589Z" transform="translate(-1873.502 -638.26)" fill="#fd6c00"/>
      </g>
      <g id="Grupo_53888" data-name="Grupo 53888" transform="translate(278.085 165.719)">
        <g id="Grupo_53877" data-name="Grupo 53877">
          <rect id="Rectángulo_5185" data-name="Rectángulo 5185" width="145.789" height="13.374" transform="translate(49.222 82.392)" fill="#636363"/>
          <rect id="Rectángulo_5186" data-name="Rectángulo 5186" width="4.28" height="16.585" transform="translate(193.939 82.392)" fill="#c75c00"/>
          <path id="Trazado_100920" data-name="Trazado 100920" d="M156.01,930.557c0-3.187,3.367-5.857,7.019-5.857H300.6c3.653,0,6.545,2.669,6.545,5.857v72.5c0,3.187-2.895,5.9-6.545,5.9H163.029c-3.653,0-7.019-2.717-7.019-5.9Z" transform="translate(-105.184 -924.7)" fill="#e8e8e8"/>
          <path id="Trazado_100921" data-name="Trazado 100921" d="M173.29,946.07c0-2.917,2.514-5.3,5.958-5.3H309.03c3.445,0,6.84,2.384,6.84,5.3v66.274c0,2.917-3.395,5.733-6.84,5.733H179.248a5.911,5.911,0,0,1-5.958-5.733Z" transform="translate(-117.649 -937.291)" fill="#0a9574"/>
          <path id="Trazado_100922" data-name="Trazado 100922" d="M859.9,1090.831l9.037-27.874a1.649,1.649,0,0,1,1.615-1.117H906.88v66.073H857.76Z" transform="translate(-856.855 -1032.148)" fill="#e8e8e8"/>
          <path id="Trazado_100923" data-name="Trazado 100923" d="M902.792,1318.508a3.034,3.034,0,0,1,1.756-.481l37.857.73.167,10.756-37.825.929c-1.386,0-2.587-.669-2.587-1.606v-9.113A1.355,1.355,0,0,1,902.792,1318.508Z" transform="translate(-902.16 -1232.867)" fill="#636363"/>
          <g id="Grupo_53869" data-name="Grupo 53869" transform="translate(3.044 33.538)">
            <path id="Trazado_100924" data-name="Trazado 100924" d="M902.879,1103.421l5.463-21.668a1.782,1.782,0,0,1,1.646-1.373H931.35a1.858,1.858,0,0,1,1.7,1.886l-.513,17.349a1.708,1.708,0,0,1-1.427,1.637l-26.313,4.256a1.694,1.694,0,0,1-1.916-2.087Z" transform="translate(-895.825 -1080.211)" fill="#732be5"/>
            <path id="Trazado_100925" data-name="Trazado 100925" d="M1037.428,1079.6l.279.045a1.7,1.7,0,0,1,1.362,2.115l-5.954,22.143a1.7,1.7,0,0,1-1.953,1.228l-1.879-.353Z" transform="translate(-1029.283 -1079.6)" fill="#732be5"/>
          </g>
          <path id="Trazado_100926" data-name="Trazado 100926" d="M904.72,1205.1a1.6,1.6,0,0,0,1.6,1.6h6.688a1.605,1.605,0,0,0,1.6-1.6v-.8a1.605,1.605,0,0,0-1.6-1.6h-6.688a1.605,1.605,0,0,0-1.6,1.6Z" transform="translate(-874.759 -1142.502)" fill="#c75c00"/>
          <path id="Trazado_100927" data-name="Trazado 100927" d="M877.381,971.709a2.431,2.431,0,0,1,1.712.524,2.2,2.2,0,0,1,.821,1.485v17.5H857.76S858.949,973.053,877.381,971.709Z" transform="translate(-829.889 -961.526)" fill="#afafaf"/>
          <g id="Grupo_53871" data-name="Grupo 53871" transform="translate(10.096 79.737)">
            <g id="Grupo_53870" data-name="Grupo 53870">
              <circle id="Elipse_4066" data-name="Elipse 4066" cx="17.215" cy="17.215" r="17.215" fill="#732be5"/>
              <ellipse id="Elipse_4067" data-name="Elipse 4067" cx="13.98" cy="13.98" rx="13.98" ry="13.98" transform="translate(29.597 32.631) rotate(-173.736)" fill="#afafaf"/>
              <path id="Trazado_100928" data-name="Trazado 100928" d="M936.334,1331.82a.255.255,0,0,0,.1-.022.269.269,0,0,0,.143-.351,12.114,12.114,0,0,1,17.068-15.286.267.267,0,0,0,.262-.465,12.65,12.65,0,0,0-17.823,15.959A.266.266,0,0,0,936.334,1331.82Z" transform="translate(-930.861 -1309.519)" fill="#f98521"/>
            </g>
            <ellipse id="Elipse_4068" data-name="Elipse 4068" cx="6.411" cy="6.411" rx="6.411" ry="6.411" transform="translate(12.932 25.212) rotate(-106.846)" fill="#732be5"/>
          </g>
          <g id="Grupo_53873" data-name="Grupo 53873" transform="translate(116.232 79.737)">
            <g id="Grupo_53872" data-name="Grupo 53872">
              <circle id="Elipse_4069" data-name="Elipse 4069" cx="17.215" cy="17.215" r="17.215" fill="#7913ea"/>
              <ellipse id="Elipse_4070" data-name="Elipse 4070" cx="13.98" cy="13.98" rx="13.98" ry="13.98" transform="translate(29.378 32.795) rotate(-172.981)" fill="#afafaf"/>
              <path id="Trazado_100929" data-name="Trazado 100929" d="M446.122,1331.82a.254.254,0,0,0,.1-.022.269.269,0,0,0,.143-.351,12.116,12.116,0,0,1,17.07-15.286.267.267,0,0,0,.262-.465,12.649,12.649,0,0,0-17.823,15.959A.261.261,0,0,0,446.122,1331.82Z" transform="translate(-440.651 -1309.519)" fill="#f98521"/>
            </g>
            <circle id="Elipse_4071" data-name="Elipse 4071" cx="6.411" cy="6.411" r="6.411" transform="translate(17.218 26.281) rotate(-135)" fill="#732be5"/>
          </g>
          <g id="Grupo_53875" data-name="Grupo 53875" transform="translate(155.612 79.737)">
            <g id="Grupo_53874" data-name="Grupo 53874">
              <circle id="Elipse_4072" data-name="Elipse 4072" cx="17.215" cy="17.215" r="17.215" fill="#732be5"/>
              <ellipse id="Elipse_4073" data-name="Elipse 4073" cx="13.98" cy="13.98" rx="13.98" ry="13.98" transform="translate(29.593 32.629) rotate(-173.736)" fill="#afafaf"/>
              <path id="Trazado_100930" data-name="Trazado 100930" d="M264.245,1331.82a.254.254,0,0,0,.1-.022.269.269,0,0,0,.143-.351,12.114,12.114,0,0,1,17.068-15.286.267.267,0,0,0,.262-.465A12.65,12.65,0,0,0,264,1331.655.264.264,0,0,0,264.245,1331.82Z" transform="translate(-258.771 -1309.519)" fill="#f98521"/>
            </g>
            <ellipse id="Elipse_4074" data-name="Elipse 4074" cx="6.411" cy="6.411" rx="6.411" ry="6.411" transform="translate(12.934 25.213) rotate(-106.846)" fill="#732be5"/>
          </g>
          <g id="Grupo_53876" data-name="Grupo 53876" transform="translate(0.805 75.435)">
            <path id="Trazado_100931" data-name="Trazado 100931" d="M1049.26,1280.775a1.7,1.7,0,0,0,1.7,1.7h4.359a1.7,1.7,0,0,0,1.7-1.7v-5.965a1.7,1.7,0,0,0-1.7-1.7h-4.359a1.7,1.7,0,0,0-1.7,1.7Z" transform="translate(-1049.26 -1273.11)" fill="#f98521"/>
            <path id="Trazado_100932" data-name="Trazado 100932" d="M1049.27,1273.12v8.827h1.4a2.335,2.335,0,0,0,2.081-1.992v-5.59c0-.937-1.143-1.245-2.081-1.245Z" transform="translate(-1044.992 -1273.118)" fill="#fff" opacity="0.8"/>
          </g>
          <path id="Trazado_100933" data-name="Trazado 100933" d="M870.378,1118.99a.268.268,0,0,0,.268-.268V1079.4a.268.268,0,1,0-.537,0v39.325A.266.266,0,0,0,870.378,1118.99Z" transform="translate(-823.296 -1045.694)" fill="#f98521"/>
          <path id="Trazado_100934" data-name="Trazado 100934" d="M866.187,1000.924a.269.269,0,0,0,.253-.18c1.479-4.285,4.389-9.929,9.854-12.5a12.031,12.031,0,0,1,5.915-1.234.267.267,0,1,0,.063-.53,12.369,12.369,0,0,0-6.205,1.282c-5.634,2.648-8.619,8.427-10.131,12.809a.268.268,0,0,0,.164.34A.29.29,0,0,0,866.187,1000.924Z" transform="translate(-834.249 -973.08)" fill="#fff"/>
        </g>
        <g id="Grupo_53879" data-name="Grupo 53879" transform="translate(126.378 34.54)">
          <path id="Trazado_100935" data-name="Trazado 100935" d="M190.7,1127.861a6.689,6.689,0,0,1-6.816-6.688v-29.76a7.13,7.13,0,0,1,7.052-7.134c11.735-.128,35.937-.134,55.739,1.535a5.36,5.36,0,0,1,4.9,5.153l1.851,28.772a6.813,6.813,0,0,1-6.679,7.058Z" transform="translate(-183.889 -1084.229)" fill="#02dba8"/>
          <path id="Trazado_100936" data-name="Trazado 100936" d="M407.557,1124.163c-.05,2.533.026,6.55.087,9.146a2.291,2.291,0,0,0,2.559,2.221l9.656-1.133a2.293,2.293,0,0,0,2-2.618l-1.184-7.907a2.292,2.292,0,0,0-2.267-1.953H409.85A2.294,2.294,0,0,0,407.557,1124.163Z" transform="translate(-400.761 -1113.759)" fill="#fff" opacity="0.84"/>
          <path id="Trazado_100937" data-name="Trazado 100937" d="M312.277,1110.044l8.056.868a1.817,1.817,0,0,0,2.007-1.938l-1.76-23.964c-3.378-.106-6.708-.186-9.923-.24v23.468A1.812,1.812,0,0,0,312.277,1110.044Z" transform="translate(-280.244 -1084.653)" fill="#fff" opacity="0.37"/>
          <path id="Trazado_100938" data-name="Trazado 100938" d="M335.657,1106.165a.809.809,0,0,0,.808.764.327.327,0,0,0,.048,0,.811.811,0,0,0,.762-.855l-1.215-20.915c-.546-.013-1.085-.026-1.626-.037Z" transform="translate(-300.322 -1084.927)" fill="#fff"/>
          <g id="Grupo_53878" data-name="Grupo 53878" transform="translate(8.909 10.554)">
            <path id="Trazado_100939" data-name="Trazado 100939" d="M452.537,1141.354a.273.273,0,0,1-.271-.253l-.418-6.589a.269.269,0,0,1,.253-.286.263.263,0,0,1,.286.253l.418,6.588a.27.27,0,0,1-.253.286Z" transform="translate(-450.183 -1133.955)" fill="#732be5"/>
            <path id="Trazado_100940" data-name="Trazado 100940" d="M448.359,1140.894a.27.27,0,0,1-.271-.262l-.219-6.714a.271.271,0,0,1,.262-.279.257.257,0,0,1,.279.262l.219,6.714a.27.27,0,0,1-.262.279Z" transform="translate(-445.145 -1133.494)" fill="#732be5"/>
            <path id="Trazado_100941" data-name="Trazado 100941" d="M443.146,1140.9a.271.271,0,0,0,.258-.281c-.106-2.256-.312-6.556-.314-6.7a.271.271,0,0,0-.541,0c0,.11.262,5.623.316,6.727a.27.27,0,0,0,.271.258A.017.017,0,0,1,443.146,1140.9Zm-.052-6.985h0Z" transform="translate(-438.768 -1133.504)" fill="#732be5"/>
            <path id="Trazado_100942" data-name="Trazado 100942" d="M433.711,1140.651a.54.54,0,0,1-.539-.522c-.229-6.5-.188-6.651-.162-6.749a.54.54,0,0,1,1.057.214c-.017.392.1,4.177.184,6.5a.54.54,0,0,1-.52.558Z" transform="translate(-427.543 -1132.981)" fill="#732be5"/>
            <path id="Trazado_100943" data-name="Trazado 100943" d="M429.091,1141.35a.271.271,0,0,1-.271-.271v-6.589a.271.271,0,0,1,.541,0v6.589A.272.272,0,0,1,429.091,1141.35Z" transform="translate(-421.752 -1133.95)" fill="#732be5"/>
            <path id="Trazado_100944" data-name="Trazado 100944" d="M425.046,1141.3a.271.271,0,0,1-.271-.264c-.052-2.289-.173-6.028-.282-6.479a.265.265,0,0,1,.011-.279.27.27,0,0,1,.375-.078c.147.1.288.188.437,6.822a.272.272,0,0,1-.264.277Z" transform="translate(-416.764 -1133.899)" fill="#732be5"/>
            <path id="Trazado_100945" data-name="Trazado 100945" d="M458.216,1140.974a.54.54,0,0,1-.539-.513l-.359-6.917a.54.54,0,0,1,.511-.567.546.546,0,0,1,.567.511l.359,6.918a.54.54,0,0,1-.511.567A.107.107,0,0,1,458.216,1140.974Z" transform="translate(-457.317 -1132.975)" fill="#732be5"/>
          </g>
        </g>
        <g id="Grupo_53881" data-name="Grupo 53881" transform="translate(57.761 37.036)">
          <path id="Trazado_100946" data-name="Trazado 100946" d="M507.625,1139.393a6.689,6.689,0,0,1-6.816-6.688v-29.762a7.13,7.13,0,0,1,7.052-7.134c11.735-.128,35.937-.134,55.739,1.535a5.36,5.36,0,0,1,4.9,5.153l1.851,28.772a6.813,6.813,0,0,1-6.679,7.058Z" transform="translate(-500.809 -1095.759)" fill="#02dba8"/>
          <path id="Trazado_100947" data-name="Trazado 100947" d="M724.477,1135.7c-.05,2.533.026,6.55.086,9.146a2.29,2.29,0,0,0,2.559,2.222l9.656-1.132a2.293,2.293,0,0,0,2-2.618l-1.184-7.907a2.294,2.294,0,0,0-2.267-1.953H726.77A2.291,2.291,0,0,0,724.477,1135.7Z" transform="translate(-717.681 -1125.297)" fill="#fff" opacity="0.84"/>
          <path id="Trazado_100948" data-name="Trazado 100948" d="M629.2,1121.574l8.056.868a1.817,1.817,0,0,0,2.007-1.938l-1.76-23.964c-3.378-.106-6.708-.186-9.923-.24v23.468A1.812,1.812,0,0,0,629.2,1121.574Z" transform="translate(-597.164 -1096.183)" fill="#fff" opacity="0.37"/>
          <path id="Trazado_100949" data-name="Trazado 100949" d="M652.577,1117.7a.81.81,0,0,0,.808.764.344.344,0,0,0,.048,0,.811.811,0,0,0,.762-.855l-1.215-20.915c-.546-.013-1.085-.026-1.626-.037Z" transform="translate(-617.242 -1096.457)" fill="#fff"/>
          <g id="Grupo_53880" data-name="Grupo 53880" transform="translate(8.909 10.554)">
            <path id="Trazado_100950" data-name="Trazado 100950" d="M769.457,1152.884a.273.273,0,0,1-.271-.253l-.418-6.589a.269.269,0,0,1,.253-.286.263.263,0,0,1,.286.253l.418,6.589a.269.269,0,0,1-.253.285Z" transform="translate(-767.103 -1145.485)" fill="#732be5"/>
            <path id="Trazado_100951" data-name="Trazado 100951" d="M765.279,1152.424a.271.271,0,0,1-.271-.262l-.219-6.714a.271.271,0,0,1,.262-.279.257.257,0,0,1,.279.262l.219,6.714a.271.271,0,0,1-.262.279Z" transform="translate(-762.065 -1145.025)" fill="#732be5"/>
            <path id="Trazado_100952" data-name="Trazado 100952" d="M760.066,1152.433a.271.271,0,0,0,.258-.282c-.106-2.256-.312-6.556-.314-6.7a.271.271,0,0,0-.541,0c0,.111.262,5.623.316,6.727a.27.27,0,0,0,.271.258A.016.016,0,0,1,760.066,1152.433Zm-.052-6.983h0Z" transform="translate(-755.688 -1145.034)" fill="#732be5"/>
            <path id="Trazado_100953" data-name="Trazado 100953" d="M750.631,1152.181a.54.54,0,0,1-.539-.522c-.229-6.5-.188-6.651-.162-6.749a.54.54,0,0,1,1.057.214c-.017.392.1,4.176.184,6.5a.54.54,0,0,1-.52.559Z" transform="translate(-744.464 -1144.511)" fill="#732be5"/>
            <path id="Trazado_100954" data-name="Trazado 100954" d="M746.011,1152.88a.271.271,0,0,1-.271-.271v-6.589a.271.271,0,1,1,.541,0v6.589A.272.272,0,0,1,746.011,1152.88Z" transform="translate(-738.672 -1145.48)" fill="#732be5"/>
            <path id="Trazado_100955" data-name="Trazado 100955" d="M741.966,1152.828a.271.271,0,0,1-.271-.264c-.052-2.288-.173-6.028-.281-6.478a.265.265,0,0,1,.011-.279.269.269,0,0,1,.374-.078c.147.1.288.188.437,6.822a.272.272,0,0,1-.264.277Z" transform="translate(-733.684 -1145.429)" fill="#732be5"/>
            <path id="Trazado_100956" data-name="Trazado 100956" d="M775.136,1152.5a.54.54,0,0,1-.539-.513l-.36-6.918a.54.54,0,0,1,.511-.567.547.547,0,0,1,.567.511l.359,6.917a.541.541,0,0,1-.511.568A.125.125,0,0,1,775.136,1152.5Z" transform="translate(-774.237 -1144.505)" fill="#732be5"/>
          </g>
        </g>
        <g id="Grupo_53883" data-name="Grupo 53883" transform="translate(144.056 4.663)">
          <path id="Trazado_100957" data-name="Trazado 100957" d="M197.885,972.183v-20.9a5.008,5.008,0,0,1,4.952-5.01c8.24-.089,25.237-.1,39.143,1.078a3.766,3.766,0,0,1,3.443,3.618l1.3,20.207a4.783,4.783,0,0,1-4.69,4.956l-39.362.747A4.7,4.7,0,0,1,197.885,972.183Z" transform="translate(-197.885 -946.239)" fill="#02dba8"/>
          <path id="Trazado_100958" data-name="Trazado 100958" d="M354.949,974.284c-.035,1.778.017,4.6.061,6.424a1.609,1.609,0,0,0,1.8,1.561l6.781-.794a1.611,1.611,0,0,0,1.405-1.838l-.831-5.553a1.612,1.612,0,0,0-1.594-1.373h-6.01A1.608,1.608,0,0,0,354.949,974.284Z" transform="translate(-350.175 -966.979)" fill="#fff" opacity="0.84"/>
          <path id="Trazado_100959" data-name="Trazado 100959" d="M288.03,964.36l5.657.61a1.276,1.276,0,0,0,1.409-1.362l-1.236-16.829c-2.371-.076-4.711-.13-6.967-.169v16.481A1.272,1.272,0,0,0,288.03,964.36Z" transform="translate(-265.533 -946.529)" fill="#fff" opacity="0.37"/>
          <path id="Trazado_100960" data-name="Trazado 100960" d="M304.455,961.631a.569.569,0,0,0,.567.537.17.17,0,0,0,.032,0,.568.568,0,0,0,.535-.6l-.853-14.688-1.141-.026Z" transform="translate(-279.638 -946.718)" fill="#fff"/>
          <g id="Grupo_53882" data-name="Grupo 53882" transform="translate(6.257 7.411)">
            <path id="Trazado_100961" data-name="Trazado 100961" d="M386.531,986.353a.188.188,0,0,1-.188-.177l-.294-4.627a.19.19,0,0,1,.178-.2.185.185,0,0,1,.2.177l.294,4.627a.191.191,0,0,1-.178.2Z" transform="translate(-384.879 -981.156)" fill="#732be5"/>
            <path id="Trazado_100962" data-name="Trazado 100962" d="M383.6,986.025a.191.191,0,0,1-.191-.184l-.154-4.716a.191.191,0,0,1,.184-.2.18.18,0,0,1,.2.184l.154,4.716a.191.191,0,0,1-.184.2Z" transform="translate(-381.347 -980.828)" fill="#732be5"/>
            <path id="Trazado_100963" data-name="Trazado 100963" d="M379.951,986.035a.188.188,0,0,0,.18-.2c-.076-1.585-.219-4.605-.221-4.707a.191.191,0,0,0-.381,0c0,.078.184,3.949.221,4.724a.19.19,0,0,0,.188.182Zm-.035-4.9h0Z" transform="translate(-376.876 -980.837)" fill="#732be5"/>
            <path id="Trazado_100964" data-name="Trazado 100964" d="M373.316,985.851a.378.378,0,0,1-.379-.366c-.16-4.569-.132-4.67-.115-4.74a.38.38,0,0,1,.743.149c-.013.275.074,2.932.13,4.562a.378.378,0,0,1-.366.392S373.321,985.851,373.316,985.851Z" transform="translate(-368.986 -980.466)" fill="#732be5"/>
            <path id="Trazado_100965" data-name="Trazado 100965" d="M370.071,986.348a.191.191,0,0,1-.191-.19v-4.627a.191.191,0,1,1,.381,0v4.627A.189.189,0,0,1,370.071,986.348Z" transform="translate(-364.917 -981.151)" fill="#732be5"/>
            <path id="Trazado_100966" data-name="Trazado 100966" d="M367.231,986.311a.19.19,0,0,1-.191-.186c-.037-1.606-.121-4.233-.2-4.549a.2.2,0,0,1,.007-.2.187.187,0,0,1,.262-.054c.1.067.2.132.307,4.792a.192.192,0,0,1-.186.195Z" transform="translate(-361.413 -981.113)" fill="#732be5"/>
            <path id="Trazado_100967" data-name="Trazado 100967" d="M390.52,986.083a.38.38,0,0,1-.379-.359l-.253-4.859a.379.379,0,0,1,.758-.039l.253,4.859a.378.378,0,0,1-.359.4Z" transform="translate(-389.888 -980.466)" fill="#732be5"/>
          </g>
        </g>
        <g id="Grupo_53885" data-name="Grupo 53885" transform="translate(101.57 5.287)">
          <path id="Trazado_100968" data-name="Trazado 100968" d="M424.727,975.064v-20.9c0-2.745,1.907-4.98,4.28-5.01,7.121-.089,21.811-.1,33.83,1.078a3.571,3.571,0,0,1,2.975,3.618l1.124,20.207c.084,2.672-1.743,4.906-4.053,4.956l-34.018.747C426.591,979.81,424.727,977.692,424.727,975.064Z" transform="translate(-424.727 -949.118)" fill="#02dba8"/>
          <path id="Trazado_100969" data-name="Trazado 100969" d="M560.487,977.164c-.03,1.777.015,4.6.052,6.424a1.475,1.475,0,0,0,1.552,1.561l5.861-.795a1.582,1.582,0,0,0,1.215-1.838l-.719-5.553a1.476,1.476,0,0,0-1.377-1.373h-5.194A1.506,1.506,0,0,0,560.487,977.164Z" transform="translate(-556.363 -969.859)" fill="#fff" opacity="0.84"/>
          <path id="Trazado_100970" data-name="Trazado 100970" d="M502.67,967.24l4.889.611a1.19,1.19,0,0,0,1.217-1.362l-1.07-16.829c-2.05-.076-4.07-.13-6.021-.169v16.481A1.226,1.226,0,0,0,502.67,967.24Z" transform="translate(-483.23 -949.409)" fill="#fff" opacity="0.37"/>
          <path id="Trazado_100971" data-name="Trazado 100971" d="M516.839,964.511a.53.53,0,0,0,.492.537.138.138,0,0,0,.028,0,.547.547,0,0,0,.463-.6l-.738-14.688-.987-.026Z" transform="translate(-495.394 -949.598)" fill="#fff"/>
          <g id="Grupo_53884" data-name="Grupo 53884" transform="translate(5.406 7.411)">
            <path id="Trazado_100972" data-name="Trazado 100972" d="M587.786,989.234a.178.178,0,0,1-.165-.178l-.253-4.627a.182.182,0,0,1,.154-.2.169.169,0,0,1,.173.178l.253,4.627a.182.182,0,0,1-.154.2Z" transform="translate(-586.357 -984.036)" fill="#732be5"/>
            <path id="Trazado_100973" data-name="Trazado 100973" d="M585.256,988.906a.178.178,0,0,1-.164-.184l-.132-4.716a.184.184,0,0,1,.158-.2c.1-.007.167.078.169.184l.132,4.716a.184.184,0,0,1-.158.2Z" transform="translate(-583.305 -983.708)" fill="#732be5"/>
            <path id="Trazado_100974" data-name="Trazado 100974" d="M582.083,988.9a.18.18,0,0,0,.156-.2c-.065-1.585-.188-4.605-.191-4.707a.166.166,0,1,0-.329,0c0,.078.16,3.949.191,4.724a.177.177,0,0,0,.164.182A.016.016,0,0,0,582.083,988.9Zm-.033-4.9h0Z" transform="translate(-579.424 -983.709)" fill="#732be5"/>
            <path id="Trazado_100975" data-name="Trazado 100975" d="M576.347,988.731a.354.354,0,0,1-.327-.366c-.139-4.568-.115-4.67-.1-4.739a.325.325,0,0,1,.4-.266.383.383,0,0,1,.238.416c-.011.275.063,2.932.113,4.562a.359.359,0,0,1-.316.392A.031.031,0,0,1,576.347,988.731Z" transform="translate(-572.603 -983.346)" fill="#732be5"/>
            <path id="Trazado_100976" data-name="Trazado 100976" d="M573.555,989.228a.178.178,0,0,1-.165-.191v-4.627a.166.166,0,1,1,.329,0v4.627A.18.18,0,0,1,573.555,989.228Z" transform="translate(-569.1 -984.031)" fill="#732be5"/>
            <path id="Trazado_100977" data-name="Trazado 100977" d="M571.106,989.191a.178.178,0,0,1-.164-.186c-.033-1.606-.1-4.233-.171-4.549a.218.218,0,0,1,.006-.2A.15.15,0,0,1,571,984.2c.089.067.173.132.264,4.791a.182.182,0,0,1-.16.195Z" transform="translate(-566.078 -983.993)" fill="#732be5"/>
            <path id="Trazado_100978" data-name="Trazado 100978" d="M591.234,988.963a.353.353,0,0,1-.327-.359l-.219-4.859a.363.363,0,0,1,.31-.4.352.352,0,0,1,.344.359l.219,4.859a.363.363,0,0,1-.31.4Z" transform="translate(-590.688 -983.346)" fill="#732be5"/>
          </g>
        </g>
        <g id="Grupo_53887" data-name="Grupo 53887" transform="translate(59.162 6.575)">
          <path id="Trazado_100979" data-name="Trazado 100979" d="M620.6,981.013v-20.9c0-2.745,1.907-4.98,4.28-5.01,7.121-.089,21.811-.1,33.83,1.078a3.571,3.571,0,0,1,2.975,3.618l1.124,20.207c.085,2.672-1.743,4.906-4.053,4.956l-34.018.747C622.463,985.762,620.6,983.644,620.6,981.013Z" transform="translate(-620.597 -955.068)" fill="#02dba8"/>
          <path id="Trazado_100980" data-name="Trazado 100980" d="M756.357,983.124c-.03,1.778.015,4.6.052,6.424a1.475,1.475,0,0,0,1.552,1.561l5.861-.795a1.582,1.582,0,0,0,1.215-1.838l-.719-5.553a1.475,1.475,0,0,0-1.377-1.373h-5.194A1.506,1.506,0,0,0,756.357,983.124Z" transform="translate(-752.233 -975.816)" fill="#fff" opacity="0.84"/>
          <path id="Trazado_100981" data-name="Trazado 100981" d="M698.53,973.2l4.889.61a1.19,1.19,0,0,0,1.217-1.362l-1.07-16.83c-2.05-.076-4.07-.13-6.021-.169v16.481A1.224,1.224,0,0,0,698.53,973.2Z" transform="translate(-679.087 -955.367)" fill="#fff" opacity="0.37"/>
          <path id="Trazado_100982" data-name="Trazado 100982" d="M712.709,970.461a.53.53,0,0,0,.491.537.129.129,0,0,0,.028,0,.547.547,0,0,0,.463-.6l-.738-14.688-.987-.026Z" transform="translate(-691.264 -955.548)" fill="#fff"/>
          <g id="Grupo_53886" data-name="Grupo 53886" transform="translate(5.408 7.413)">
            <path id="Trazado_100983" data-name="Trazado 100983" d="M783.666,995.183h-.011a.178.178,0,0,1-.165-.177l-.253-4.627a.182.182,0,0,1,.154-.2.169.169,0,0,1,.173.178l.253,4.627A.179.179,0,0,1,783.666,995.183Z" transform="translate(-782.228 -989.988)" fill="#732be5"/>
            <path id="Trazado_100984" data-name="Trazado 100984" d="M781.127,994.855a.178.178,0,0,1-.164-.184l-.132-4.716a.184.184,0,0,1,.158-.2c.1-.006.167.078.169.184l.132,4.716a.184.184,0,0,1-.158.2Z" transform="translate(-779.177 -989.66)" fill="#732be5"/>
            <path id="Trazado_100985" data-name="Trazado 100985" d="M777.953,994.865a.18.18,0,0,0,.156-.2c-.065-1.585-.188-4.605-.191-4.707a.166.166,0,1,0-.329,0c0,.078.16,3.949.191,4.724a.177.177,0,0,0,.164.182A.016.016,0,0,1,777.953,994.865Zm-.03-4.9h0Z" transform="translate(-775.296 -989.669)" fill="#732be5"/>
            <path id="Trazado_100986" data-name="Trazado 100986" d="M772.218,994.691h-.011a.354.354,0,0,1-.327-.366c-.139-4.568-.115-4.67-.1-4.739a.325.325,0,0,1,.4-.266.382.382,0,0,1,.238.416c-.011.275.063,2.931.113,4.562A.367.367,0,0,1,772.218,994.691Z" transform="translate(-768.464 -989.306)" fill="#732be5"/>
            <path id="Trazado_100987" data-name="Trazado 100987" d="M769.415,995.178a.178.178,0,0,1-.165-.191V990.36a.166.166,0,1,1,.329,0v4.627A.181.181,0,0,1,769.415,995.178Z" transform="translate(-764.961 -989.983)" fill="#732be5"/>
            <path id="Trazado_100988" data-name="Trazado 100988" d="M766.966,995.141a.179.179,0,0,1-.164-.186c-.033-1.606-.1-4.233-.171-4.549a.219.219,0,0,1,.007-.2.15.15,0,0,1,.227-.054c.089.067.173.132.264,4.791a.182.182,0,0,1-.16.195Z" transform="translate(-761.938 -989.946)" fill="#732be5"/>
            <path id="Trazado_100989" data-name="Trazado 100989" d="M787.111,994.923h-.017a.353.353,0,0,1-.327-.359l-.219-4.859a.363.363,0,0,1,.31-.4.352.352,0,0,1,.344.359l.219,4.859A.364.364,0,0,1,787.111,994.923Z" transform="translate(-786.547 -989.306)" fill="#732be5"/>
          </g>
        </g>
      </g>
    </g>
  </g>
</svg>
