<svg xmlns="http://www.w3.org/2000/svg" xmlns:xlink="http://www.w3.org/1999/xlink" width="443" height="378" viewBox="0 0 443 378">
  <defs>
    <linearGradient id="linear-gradient" x1="5.289" y1="-163.309" x2="5.073" y2="-154.184" gradientUnits="objectBoundingBox">
      <stop offset="0" stop-color="#09005d"/>
      <stop offset="1" stop-color="#1a0f91"/>
    </linearGradient>
    <linearGradient id="linear-gradient-2" x1="5.041" y1="-163.787" x2="4.829" y2="-154.271" xlink:href="#linear-gradient"/>
    <linearGradient id="linear-gradient-3" x1="4.979" y1="-172.813" x2="4.764" y2="-162.445" xlink:href="#linear-gradient"/>
    <linearGradient id="linear-gradient-4" x1="41.051" y1="-3.821" x2="34.185" y2="-3.523" xlink:href="#linear-gradient"/>
    <linearGradient id="linear-gradient-5" x1="110.6" y1="-4.588" x2="104.379" y2="-4.309" xlink:href="#linear-gradient"/>
    <linearGradient id="linear-gradient-6" x1="0.473" y1="-2.081" x2="0.366" y2="-12.521" xlink:href="#linear-gradient"/>
    <linearGradient id="linear-gradient-7" x1="34.304" y1="0.583" x2="37.923" y2="0.446" gradientUnits="objectBoundingBox">
      <stop offset="0" stop-color="#cb236d"/>
      <stop offset="1" stop-color="#4c246d"/>
    </linearGradient>
    <linearGradient id="linear-gradient-8" x1="14.39" y1="0.562" x2="15.741" y2="0.673" xlink:href="#linear-gradient"/>
    <linearGradient id="linear-gradient-9" x1="14.913" y1="0.5" x2="15.913" y2="0.5" xlink:href="#linear-gradient"/>
    <linearGradient id="linear-gradient-12" x1="7.453" y1="-0.486" x2="5.038" y2="1.163" gradientUnits="objectBoundingBox">
      <stop offset="0" stop-color="#ff928e"/>
      <stop offset="1" stop-color="#fe7062"/>
    </linearGradient>
    <linearGradient id="linear-gradient-13" x1="41.034" y1="-0.307" x2="39.669" y2="1.929" xlink:href="#linear-gradient"/>
    <linearGradient id="linear-gradient-14" x1="18.329" y1="-0.222" x2="17.511" y2="2.966" gradientUnits="objectBoundingBox">
      <stop offset="0" stop-color="#febbba"/>
      <stop offset="1" stop-color="#ff928e"/>
    </linearGradient>
    <linearGradient id="linear-gradient-15" x1="6.113" y1="-10.705" x2="4.55" y2="-9.331" xlink:href="#linear-gradient-14"/>
    <linearGradient id="linear-gradient-16" x1="3.206" y1="-6.173" x2="4.237" y2="-6.173" xlink:href="#linear-gradient"/>
    <linearGradient id="linear-gradient-17" x1="9.918" y1="-29.002" x2="12.807" y2="-31.425" xlink:href="#linear-gradient-14"/>
    <linearGradient id="linear-gradient-18" x1="0.285" y1="-0.561" x2="0.552" y2="1.036" gradientUnits="objectBoundingBox">
      <stop offset="0" stop-color="#4f52ff"/>
      <stop offset="1" stop-color="#4042e2"/>
    </linearGradient>
    <linearGradient id="linear-gradient-19" x1="0.632" y1="-2.773" x2="0.444" y2="1.871" xlink:href="#linear-gradient-18"/>
    <linearGradient id="linear-gradient-20" x1="53.662" y1="1.193" x2="57.911" y2="7.391" xlink:href="#linear-gradient-14"/>
  </defs>
  <g id="Grupo_54009" data-name="Grupo 54009" transform="translate(-232 -8845)">
    <rect id="Rectángulo_5163" data-name="Rectángulo 5163" width="443" height="378" transform="translate(232 8845)" fill="none"/>
    <g id="Grupo_54008" data-name="Grupo 54008" transform="translate(281 8865.001)">
      <path id="Trazado_100990" data-name="Trazado 100990" d="M771.872,763.62A122.831,122.831,0,0,1,753,779.2c-61.573,43.317-134.429,30.69-149.913,27.607-22.865-4.553-67.063-13.355-99.017-50.2-48.344-55.742-40.816-143.562-3.317-201.533,6.859-10.6,43.091-69.458,116.733-78.9,44.567-5.712,96.518,5.808,134.139,36.712C830.592,577.761,824.97,708.811,771.872,763.62Z" transform="translate(-470.198 -472.99)" fill="#02cddb" opacity="0.173"/>
      <path id="Trazado_101309" data-name="Trazado 101309" d="M125.3.351c69.2.194,125.472,64.766,125.682,144.226S195.264,288.3,126.061,288.1.589,223.335.379,143.875,56.1.157,125.3.351Z" transform="translate(19.124 254.816) rotate(-87.486)" fill="#732be5"/>
      <ellipse id="Elipse_4076" data-name="Elipse 4076" cx="106.118" cy="100.247" rx="106.118" ry="100.247" transform="translate(46.287 26.295)" fill="#fff" opacity="0.11"/>
      <g id="Grupo_53890" data-name="Grupo 53890" transform="translate(36.723 13.546)" opacity="0.68">
        <path id="Trazado_100991" data-name="Trazado 100991" d="M1600.93,702.369a378.339,378.339,0,0,1-5.442,66.024c-.986,5.442-2.129,10.857-3.491,16.221a156.265,156.265,0,0,1-4.874,15.874,75.246,75.246,0,0,1-7.271,14.962,29.882,29.882,0,0,1-5.457,6.365,15.558,15.558,0,0,1-3.572,2.3,10.7,10.7,0,0,1-4.171.982,10.52,10.52,0,0,1-4.216-.775,14.617,14.617,0,0,1-3.655-2.176,28.364,28.364,0,0,1-5.575-6.266,72.8,72.8,0,0,1-7.377-14.91,152.812,152.812,0,0,1-4.926-15.858c-1.375-5.36-2.53-10.774-3.524-16.213-1.984-10.882-3.337-21.869-4.25-32.885s-1.361-22.073-1.417-33.128c-.027-5.527.124-11.053.32-16.576s.511-11.042.918-16.553c.818-11.022,2.038-22.019,3.854-32.926.911-5.452,1.973-10.881,3.25-16.262a156.348,156.348,0,0,1,4.615-15.937c.928-2.608,1.942-5.188,3.1-7.708a56.3,56.3,0,0,1,3.968-7.312,27.261,27.261,0,0,1,5.453-6.305,13.922,13.922,0,0,1,3.606-2.16,10.169,10.169,0,0,1,4.146-.736,10.994,10.994,0,0,1,4.1.96,16,16,0,0,1,3.56,2.222,30.39,30.39,0,0,1,5.571,6.2,74.633,74.633,0,0,1,7.641,14.735,151.178,151.178,0,0,1,5.237,15.744c1.475,5.331,2.724,10.722,3.8,16.144A346.453,346.453,0,0,1,1600.93,702.369Zm-1.635,0q.031-16.516-1.313-33a317.669,317.669,0,0,0-4.3-32.731c-1.017-5.409-2.2-10.787-3.61-16.106a150.265,150.265,0,0,0-5.033-15.7,73.889,73.889,0,0,0-7.4-14.669,29.8,29.8,0,0,0-5.39-6.132,15.483,15.483,0,0,0-3.415-2.185,10.216,10.216,0,0,0-3.9-.951,9.577,9.577,0,0,0-3.934.74,13.378,13.378,0,0,0-3.441,2.115,26.659,26.659,0,0,0-5.259,6.222,55.553,55.553,0,0,0-3.838,7.263c-1.118,2.506-2.1,5.076-2.989,7.675a155.461,155.461,0,0,0-4.413,15.891c-1.213,5.368-2.211,10.784-3.058,16.223-1.689,10.881-2.786,21.851-3.48,32.841s-.944,22.008-.924,33.02q-.044,16.515,1.157,33c.825,10.978,2.088,21.929,3.979,32.772.948,5.42,2.054,10.813,3.38,16.15a151.633,151.633,0,0,0,4.766,15.773,71.793,71.793,0,0,0,7.151,14.748,27.446,27.446,0,0,0,5.334,6.1,13.717,13.717,0,0,0,3.412,2.07,9.413,9.413,0,0,0,3.859.734,9.815,9.815,0,0,0,3.821-.935,14.649,14.649,0,0,0,3.342-2.2,28.942,28.942,0,0,0,5.225-6.2,74.2,74.2,0,0,0,7.045-14.8,155.055,155.055,0,0,0,4.71-15.79c1.311-5.341,2.4-10.736,3.343-16.158,1.878-10.845,3.125-21.8,3.955-32.775S1599.3,713.382,1599.295,702.369Z" transform="translate(-1434.351 -579.729)" fill="#fff" style="mix-blend-mode: soft-light;isolation: isolate"/>
        <path id="Trazado_100992" data-name="Trazado 100992" d="M1203.832,697.3a147.928,147.928,0,0,1-6.262,42.189,130.547,130.547,0,0,1-19.342,38.688,114.178,114.178,0,0,1-14.774,16.509,102.529,102.529,0,0,1-18.185,13.36,91.894,91.894,0,0,1-21.219,8.854,86.653,86.653,0,0,1-46.139.019,91.93,91.93,0,0,1-21.236-8.839,102.654,102.654,0,0,1-18.21-13.35,114.264,114.264,0,0,1-14.8-16.506,130.754,130.754,0,0,1-19.393-38.7,141.552,141.552,0,0,1-4.7-20.918,143.673,143.673,0,0,1,.014-42.6,141.466,141.466,0,0,1,4.711-20.912,130.721,130.721,0,0,1,19.419-38.675,114.226,114.226,0,0,1,14.8-16.488,102.337,102.337,0,0,1,18.2-13.326,92.315,92.315,0,0,1,21.219-8.806,86.037,86.037,0,0,1,46.067.017,92.243,92.243,0,0,1,21.2,8.822,102.215,102.215,0,0,1,18.18,13.336,114.129,114.129,0,0,1,14.775,16.491,130.506,130.506,0,0,1,19.368,38.661A147.928,147.928,0,0,1,1203.832,697.3Zm-2.055,0a146.232,146.232,0,0,0-6.011-41.732,129.69,129.69,0,0,0-18.728-38.422,112.637,112.637,0,0,0-14.439-16.461,99.584,99.584,0,0,0-17.861-13.364,90.369,90.369,0,0,0-20.949-8.837,83.893,83.893,0,0,0-45.608.017,90.292,90.292,0,0,0-20.932,8.853,99.5,99.5,0,0,0-17.837,13.374A112.581,112.581,0,0,0,1025,617.2a129.477,129.477,0,0,0-18.677,38.408,142.46,142.46,0,0,0-4.49,20.671,146.838,146.838,0,0,0,.014,42.057A142.349,142.349,0,0,0,1006.357,739a129.443,129.443,0,0,0,18.7,38.382,112.5,112.5,0,0,0,14.412,16.446,99.162,99.162,0,0,0,17.831,13.35,90.672,90.672,0,0,0,20.915,8.82,83.3,83.3,0,0,0,45.536.019,90.721,90.721,0,0,0,20.931-8.805,99.307,99.307,0,0,0,17.856-13.34,112.623,112.623,0,0,0,14.441-16.443,129.655,129.655,0,0,0,18.754-38.4A146.236,146.236,0,0,0,1201.777,697.3Z" transform="translate(-972.539 -574.664)" fill="#fff" style="mix-blend-mode: soft-light;isolation: isolate"/>
        <path id="Trazado_100993" data-name="Trazado 100993" d="M865.194,1200.235a.124.124,0,1,1,0-.247l30.434-.228,30.434-.129,60.867-.1,60.868.115,30.434.141,30.434.246a.083.083,0,1,1,0,.166l-30.434.246-30.434.141-60.868.115-60.867-.1-30.434-.129Z" transform="translate(-855.267 -1125.916)" fill="#fff" style="mix-blend-mode: soft-light;isolation: isolate"/>
        <path id="Trazado_100994" data-name="Trazado 100994" d="M1142.636,799.375a.131.131,0,0,1,.135-.121c7.419-.106,14.839-.151,22.258-.228l22.258-.129c7.42-.055,14.839-.049,22.258-.066l22.258-.038,44.517.115,22.258.141c7.42.084,14.839.133,22.258.246a.083.083,0,1,1,0,.165c-7.419.113-14.839.162-22.258.246l-22.258.141-44.517.115-22.258-.038c-7.42-.017-14.839-.011-22.258-.066l-22.258-.129c-7.419-.077-14.839-.122-22.258-.228A.13.13,0,0,1,1142.636,799.375Z" transform="translate(-1100.141 -772.389)" fill="#fff" style="mix-blend-mode: soft-light;isolation: isolate"/>
        <path id="Trazado_100995" data-name="Trazado 100995" d="M782.048,1600.97a.124.124,0,1,1,0-.247l32.883-.227,32.883-.13,65.765-.1,65.765.115,32.883.141,32.883.246a.083.083,0,1,1,0,.166l-32.883.246-32.883.141-65.765.115-65.765-.1-32.883-.13Z" transform="translate(-781.917 -1479.441)" fill="#fff" style="mix-blend-mode: soft-light;isolation: isolate"/>
        <path id="Trazado_100996" data-name="Trazado 100996" d="M865.194,2001.457l30.434-.228,30.434-.129,60.867-.1,60.868.115,30.434.141,30.434.246a.083.083,0,1,1,0,.166l-30.434.246-30.434.141-60.868.115-60.867-.1-30.434-.129-30.434-.228a.124.124,0,1,1,0-.247Z" transform="translate(-855.267 -1832.966)" fill="#fff" style="mix-blend-mode: soft-light;isolation: isolate"/>
        <path id="Trazado_100997" data-name="Trazado 100997" d="M1335.188,2403.454a.432.432,0,0,1-.432.432H1174.667a.432.432,0,1,1,0-.864h160.089A.432.432,0,0,1,1335.188,2403.454Z" transform="translate(-1118.153 -2187.631)" fill="#fff" style="mix-blend-mode: soft-light;isolation: isolate"/>
      </g>
      <path id="Trazado_100998" data-name="Trazado 100998" d="M885.508,841.08a1.376,1.376,0,0,1-1.3-1.815q.264-.786.548-1.565a1.375,1.375,0,1,1,2.586.938q-.272.75-.527,1.506A1.376,1.376,0,0,1,885.508,841.08Zm2.485-6.368a1.376,1.376,0,0,1-1.255-1.935q.337-.757.69-1.509a1.375,1.375,0,0,1,2.49,1.17q-.341.726-.667,1.458A1.376,1.376,0,0,1,887.994,834.711Zm3.045-6.119a1.375,1.375,0,0,1-1.2-2.04q.4-.723.812-1.439a1.375,1.375,0,0,1,2.382,1.375q-.4.693-.786,1.392A1.375,1.375,0,0,1,891.038,828.592Zm3.535-5.845a1.375,1.375,0,0,1-1.147-2.132q.454-.688.921-1.37a1.375,1.375,0,1,1,2.269,1.554q-.453.662-.893,1.329A1.374,1.374,0,0,1,894.573,822.748Zm3.965-5.564a1.376,1.376,0,0,1-1.09-2.212q.5-.653,1.014-1.3a1.375,1.375,0,0,1,2.155,1.71q-.5.629-.986,1.264A1.373,1.373,0,0,1,898.538,817.184Zm4.339-5.279a1.375,1.375,0,0,1-1.033-2.282q.542-.618,1.1-1.23a1.375,1.375,0,0,1,2.04,1.845q-.539.6-1.068,1.2A1.371,1.371,0,0,1,902.877,811.9Zm4.664-5a1.375,1.375,0,0,1-.977-2.344q.579-.583,1.166-1.16a1.375,1.375,0,1,1,1.927,1.963q-.574.564-1.139,1.134A1.372,1.372,0,0,1,907.541,806.909Zm4.947-4.716a1.375,1.375,0,0,1-.921-2.4q.61-.55,1.228-1.093a1.375,1.375,0,1,1,1.816,2.066q-.6.532-1.2,1.07A1.37,1.37,0,0,1,912.488,802.193Zm5.2-4.442a1.375,1.375,0,0,1-.867-2.444q.638-.517,1.282-1.027a1.375,1.375,0,1,1,1.707,2.157q-.631.5-1.256,1.007A1.37,1.37,0,0,1,917.683,797.751Zm5.423-4.178a1.375,1.375,0,0,1-.813-2.485q.664-.486,1.334-.965a1.375,1.375,0,0,1,1.6,2.238q-.658.47-1.309.947A1.37,1.37,0,0,1,923.106,793.572Zm5.618-3.913a1.375,1.375,0,0,1-.761-2.522q.685-.454,1.375-.9a1.375,1.375,0,0,1,1.494,2.309q-.677.438-1.35.884A1.369,1.369,0,0,1,928.725,789.66Zm5.787-3.645a1.376,1.376,0,0,1-.708-2.555q.7-.422,1.412-.835A1.375,1.375,0,1,1,936.6,785q-.7.406-1.387.82A1.37,1.37,0,0,1,934.512,786.014Zm5.938-3.379a1.375,1.375,0,0,1-.655-2.585q.721-.389,1.445-.771a1.375,1.375,0,0,1,1.283,2.434q-.712.375-1.42.757A1.37,1.37,0,0,1,940.45,782.635Zm6.073-3.111a1.376,1.376,0,0,1-.6-2.613q.736-.357,1.474-.705a1.375,1.375,0,1,1,1.175,2.487q-.725.343-1.449.693A1.367,1.367,0,0,1,946.523,779.524Zm6.21-2.845a1.376,1.376,0,0,1-.546-2.638q.755-.326,1.51-.642a1.375,1.375,0,0,1,1.064,2.537q-.742.311-1.483.631A1.375,1.375,0,0,1,952.733,776.679Zm6.335-2.569a1.375,1.375,0,0,1-.488-2.662q.768-.292,1.538-.574a1.375,1.375,0,1,1,.948,2.582q-.755.277-1.51.564A1.375,1.375,0,0,1,959.068,774.11Zm6.446-2.278a1.376,1.376,0,0,1-.427-2.683q.782-.256,1.563-.5a1.375,1.375,0,1,1,.826,2.624q-.767.242-1.534.492A1.376,1.376,0,0,1,965.514,771.832Zm6.547-1.967a1.376,1.376,0,0,1-.362-2.7q.8-.218,1.588-.424a1.375,1.375,0,0,1,.693,2.662q-.777.2-1.555.415A1.38,1.38,0,0,1,972.062,769.865Zm6.639-1.631a1.376,1.376,0,0,1-.291-2.72q.807-.176,1.61-.339a1.375,1.375,0,1,1,.548,2.7q-.785.16-1.573.331A1.377,1.377,0,0,1,978.7,768.234Zm35.521-1.028a1.38,1.38,0,0,1-.3-.034q-.767-.172-1.551-.322a1.375,1.375,0,1,1,.519-2.7q.824.158,1.632.339a1.376,1.376,0,0,1-.3,2.718Zm-28.8-.232a1.375,1.375,0,0,1-.212-2.734q.817-.128,1.629-.244a1.375,1.375,0,1,1,.386,2.723q-.791.112-1.588.237A1.4,1.4,0,0,1,985.419,766.973Zm6.784-.843a1.375,1.375,0,0,1-.122-2.745q.826-.075,1.645-.134a1.375,1.375,0,1,1,.2,2.743q-.795.058-1.6.13C992.286,766.129,992.244,766.13,992.2,766.13Zm15.275-.006c-.047,0-.094,0-.142-.007q-.786-.081-1.584-.142a1.375,1.375,0,0,1,.212-2.742q.833.064,1.653.148a1.375,1.375,0,0,1-.139,2.744Zm-8.448-.354a1.375,1.375,0,0,1-.018-2.75q.561-.008,1.117-.008l.536,0a1.375,1.375,0,0,1-.009,2.751h-.009l-.518,0q-.538,0-1.079.007Z" transform="translate(-835.369 -727.278)" fill="#fff"/>
      <g id="Grupo_53899" data-name="Grupo 53899" transform="translate(30.118 60.517)">
        <g id="Grupo_53896" data-name="Grupo 53896" transform="translate(0 0)">
          <g id="Grupo_53892" data-name="Grupo 53892" transform="translate(0.528 0.322)">
            <circle id="Elipse_4077" data-name="Elipse 4077" cx="18.207" cy="18.207" r="18.207" transform="translate(0.033)" fill="#fd0"/>
            <path id="Trazado_100999" data-name="Trazado 100999" d="M766.755,1102.523h-36.38s-1.449,10.106,14.8,37.785a3.977,3.977,0,0,0,6.812.013C768.233,1112.64,766.755,1102.523,766.755,1102.523Z" transform="translate(-730.341 -1085.292)" fill="#fd0"/>
          </g>
          <g id="Grupo_53893" data-name="Grupo 53893">
            <path id="Trazado_101000" data-name="Trazado 101000" d="M744.616,1011.384v.1h.006a4.515,4.515,0,0,1-3.86-2.228c-9.5-16.179-12.979-26.41-14.225-32.134a18.35,18.35,0,0,1-.624-3.931,9.146,9.146,0,0,1-.016-1.984l.048-.291a18.734,18.734,0,0,1,37.385.186,8.2,8.2,0,0,1,.03,1v.067a18.767,18.767,0,0,1-.751,5.265c-1.29,5.719-4.792,15.849-14.128,31.755A4.41,4.41,0,0,1,744.616,1011.384Zm-17.7-39.487c0,.273,0,.663.052,1.25v0a17.174,17.174,0,0,0,.593,3.711l.006.021c1.228,5.647,4.672,15.749,14.107,31.82a3.422,3.422,0,0,0,2.945,1.677l0,.527v-.529a3.588,3.588,0,0,0,2.953-1.692c9.276-15.8,12.74-25.849,14.01-31.492l.009-.033a17.621,17.621,0,0,0,.608-4.984l-.106-.075v-.006a6.973,6.973,0,0,1,.081-.887l.05-.031a17.656,17.656,0,0,0-35.258.184l-.015.537Z" transform="translate(-725.855 -953.525)" fill="#fff" opacity="0.8"/>
          </g>
          <circle id="Elipse_4078" data-name="Elipse 4078" cx="10.513" cy="10.513" r="10.513" transform="translate(3.96 18.47) rotate(-45)" fill="#fff"/>
          <g id="Grupo_53895" data-name="Grupo 53895" transform="translate(7.727 7.37)">
            <g id="Grupo_53894" data-name="Grupo 53894">
              <path id="Trazado_101001" data-name="Trazado 101001" d="M802.545,1038.286a11.1,11.1,0,1,1,11.1-11.1A11.113,11.113,0,0,1,802.545,1038.286Zm0-21.026a9.926,9.926,0,1,0,9.926,9.926A9.937,9.937,0,0,0,802.545,1017.26Z" transform="translate(-791.445 -1016.085)" fill="#4d4720"/>
            </g>
          </g>
        </g>
        <g id="Grupo_53897" data-name="Grupo 53897" transform="translate(8.678 3.281)">
          <path id="Trazado_101002" data-name="Trazado 101002" d="M799.7,985.623a.176.176,0,0,1-.115-.31,16.315,16.315,0,0,1,10.625-3.933.176.176,0,1,1,0,.352,15.962,15.962,0,0,0-10.4,3.848A.176.176,0,0,1,799.7,985.623Z" transform="translate(-799.521 -981.38)" fill="#fff"/>
        </g>
        <g id="Grupo_53898" data-name="Grupo 53898" transform="translate(3.049 10.925)">
          <path id="Trazado_101003" data-name="Trazado 101003" d="M751.912,1055.113a.176.176,0,0,1-.176-.176,16.276,16.276,0,0,1,2.441-8.588.176.176,0,1,1,.3.186,15.925,15.925,0,0,0-2.388,8.4A.176.176,0,0,1,751.912,1055.113Z" transform="translate(-751.736 -1046.265)" fill="#fff"/>
        </g>
      </g>
      <g id="Grupo_53907" data-name="Grupo 53907" transform="translate(175.144)">
        <g id="Grupo_53904" data-name="Grupo 53904" transform="translate(0)">
          <g id="Grupo_53900" data-name="Grupo 53900" transform="translate(0.385 0.234)">
            <circle id="Elipse_4079" data-name="Elipse 4079" cx="13.253" cy="13.253" r="13.253" transform="translate(0.024)" fill="#fd0"/>
            <path id="Trazado_101004" data-name="Trazado 101004" d="M1902.281,568.138H1875.8s-1.055,7.356,10.773,27.5a2.9,2.9,0,0,0,4.958.01C1903.357,575.5,1902.281,568.138,1902.281,568.138Z" transform="translate(-1875.774 -555.595)" fill="#fd0"/>
          </g>
          <g id="Grupo_53901" data-name="Grupo 53901">
            <path id="Trazado_101005" data-name="Trazado 101005" d="M1886.165,501.8v.075h0a3.287,3.287,0,0,1-2.81-1.622c-6.914-11.778-9.448-19.225-10.355-23.392a13.37,13.37,0,0,1-.454-2.862,6.672,6.672,0,0,1-.012-1.445l.035-.212a13.637,13.637,0,0,1,27.214.135,5.953,5.953,0,0,1,.022.731v.049a13.654,13.654,0,0,1-.547,3.832c-.939,4.163-3.488,11.537-10.284,23.116A3.21,3.21,0,0,1,1886.165,501.8Zm-12.886-28.744c0,.2,0,.483.038.91h0a12.5,12.5,0,0,0,.431,2.7l0,.015c.894,4.111,3.4,11.464,10.269,23.163a2.49,2.49,0,0,0,2.144,1.221l0,.384v-.385a2.612,2.612,0,0,0,2.15-1.231c6.753-11.5,9.274-18.816,10.2-22.924l.007-.024a12.823,12.823,0,0,0,.442-3.628l-.077-.054v0a5.132,5.132,0,0,1,.058-.646l.037-.022a12.852,12.852,0,0,0-25.665.134l-.011.391Z" transform="translate(-1872.509 -459.678)" fill="#fff" opacity="0.8"/>
          </g>
          <circle id="Elipse_4080" data-name="Elipse 4080" cx="7.653" cy="7.653" r="7.653" transform="translate(4.163 8.338) rotate(-16.845)" fill="#fff"/>
          <g id="Grupo_53903" data-name="Grupo 53903" transform="translate(5.625 5.365)">
            <g id="Grupo_53902" data-name="Grupo 53902">
              <path id="Trazado_101006" data-name="Trazado 101006" d="M1928.334,521.378a8.08,8.08,0,1,1,8.08-8.08A8.089,8.089,0,0,1,1928.334,521.378Zm0-15.305a7.225,7.225,0,1,0,7.225,7.225A7.233,7.233,0,0,0,1928.334,506.072Z" transform="translate(-1920.254 -505.217)" fill="#676138"/>
            </g>
          </g>
        </g>
        <g id="Grupo_53905" data-name="Grupo 53905" transform="translate(6.317 2.389)">
          <path id="Trazado_101007" data-name="Trazado 101007" d="M1926.261,483.044a.128.128,0,0,1-.084-.226,11.877,11.877,0,0,1,7.734-2.863.128.128,0,0,1,0,.256,11.62,11.62,0,0,0-7.567,2.8A.128.128,0,0,1,1926.261,483.044Z" transform="translate(-1926.133 -479.955)" fill="#fff"/>
        </g>
        <g id="Grupo_53906" data-name="Grupo 53906" transform="translate(2.219 7.953)">
          <path id="Trazado_101008" data-name="Trazado 101008" d="M1891.477,533.627a.128.128,0,0,1-.128-.128,11.848,11.848,0,0,1,1.777-6.252.128.128,0,1,1,.218.135,11.592,11.592,0,0,0-1.738,6.117A.128.128,0,0,1,1891.477,533.627Z" transform="translate(-1891.348 -527.186)" fill="#fff"/>
        </g>
      </g>
      <g id="Grupo_53909" data-name="Grupo 53909" transform="translate(138.816 35.276)">
        <rect id="Rectángulo_5187" data-name="Rectángulo 5187" width="198.689" height="6.265" transform="translate(200.401 160.724) rotate(180)" fill="url(#linear-gradient)"/>
        <rect id="Rectángulo_5188" data-name="Rectángulo 5188" width="202.229" height="6.007" transform="translate(203.94 97.58) rotate(180)" fill="url(#linear-gradient-2)"/>
        <rect id="Rectángulo_5189" data-name="Rectángulo 5189" width="200.231" height="5.514" transform="translate(201.943 49.172) rotate(180)" fill="url(#linear-gradient-3)"/>
        <path id="Rectángulo_5190" data-name="Rectángulo 5190" d="M0,0H6.338a0,0,0,0,1,0,0V194.03a0,0,0,0,1,0,0h0A6.338,6.338,0,0,1,0,187.692V0A0,0,0,0,1,0,0Z" transform="translate(6.338 194.03) rotate(180)" fill="url(#linear-gradient-4)"/>
        <path id="Rectángulo_5191" data-name="Rectángulo 5191" d="M0,0H7A0,0,0,0,1,7,0V200.152a7,7,0,0,1-7,7H0a0,0,0,0,1,0,0V0A0,0,0,0,1,0,0Z" transform="translate(205.542 208.009) rotate(180)" fill="url(#linear-gradient-5)"/>
      </g>
      <g id="Grupo_53918" data-name="Grupo 53918" transform="translate(190.395 48.99)">
        <g id="Grupo_53910" data-name="Grupo 53910" transform="translate(40.857 42.813)">
          <path id="Trazado_101009" data-name="Trazado 101009" d="M2285.838,1273.837a5.348,5.348,0,0,1-5.449-5.346V1244.7a5.7,5.7,0,0,1,5.639-5.7c9.381-.1,28.73-.107,44.562,1.227a4.286,4.286,0,0,1,3.919,4.12l1.479,23a5.447,5.447,0,0,1-5.34,5.642Z" transform="translate(-2280.389 -1238.953)" fill="#02dba8"/>
          <path id="Trazado_101010" data-name="Trazado 101010" d="M2488.081,1259.955l6.441.695a1.452,1.452,0,0,0,1.6-1.55l-1.408-19.159c-2.7-.086-5.363-.148-7.932-.192v18.762A1.452,1.452,0,0,0,2488.081,1259.955Z" transform="translate(-2462.47 -1239.655)" fill="#fff" opacity="0.37"/>
          <path id="Trazado_101011" data-name="Trazado 101011" d="M2512.877,1257.077a.647.647,0,0,0,.646.61h.038a.648.648,0,0,0,.609-.684l-.971-16.721-1.3-.03Z" transform="translate(-2484.627 -1240.098)" fill="#fff"/>
        </g>
        <g id="Grupo_53911" data-name="Grupo 53911" transform="translate(98.135 47.79)">
          <path id="Trazado_101012" data-name="Trazado 101012" d="M2771.262,1311.091a4.582,4.582,0,0,1-4.669-4.581v-20.385a4.884,4.884,0,0,1,4.831-4.887c8.038-.088,24.616-.092,38.18,1.051a3.672,3.672,0,0,1,3.358,3.529l1.268,19.709a4.667,4.667,0,0,1-4.575,4.834Z" transform="translate(-2766.593 -1281.203)" fill="#02dba8"/>
          <path id="Trazado_101013" data-name="Trazado 101013" d="M2944.537,1299.2l5.518.6a1.244,1.244,0,0,0,1.374-1.328l-1.206-16.415c-2.313-.073-4.595-.127-6.8-.164v16.075A1.244,1.244,0,0,0,2944.537,1299.2Z" transform="translate(-2922.595 -1281.805)" fill="#fff" opacity="0.37"/>
          <path id="Trazado_101014" data-name="Trazado 101014" d="M2965.782,1296.731a.555.555,0,0,0,.554.523h.033a.554.554,0,0,0,.521-.586l-.832-14.326-1.113-.026Z" transform="translate(-2941.578 -1282.184)" fill="#fff"/>
        </g>
        <g id="Grupo_53912" data-name="Grupo 53912" transform="translate(17.687 5.055)">
          <path id="Trazado_101015" data-name="Trazado 101015" d="M2087.072,945.976c-1.846.045-3.362-1.858-3.362-4.22v-18.78c0-2.467,1.551-4.475,3.479-4.5a251.284,251.284,0,0,1,27.5.968,3.135,3.135,0,0,1,2.418,3.251l.913,18.157c.068,2.4-1.417,4.408-3.295,4.454Z" transform="translate(-2083.71 -918.442)" fill="#02dba8"/>
          <path id="Trazado_101016" data-name="Trazado 101016" d="M2231.976,935.02l5.084.548a1.146,1.146,0,0,0,1.266-1.224l-1.111-15.122c-2.131-.067-4.233-.117-6.261-.151V933.88A1.146,1.146,0,0,0,2231.976,935.02Z" transform="translate(-2213.607 -918.997)" fill="#fff" opacity="0.37"/>
          <path id="Trazado_101017" data-name="Trazado 101017" d="M2251.547,932.747a.511.511,0,0,0,.51.482h.03a.511.511,0,0,0,.48-.54l-.766-13.2-1.026-.024Z" transform="translate(-2231.095 -919.345)" fill="#fff"/>
        </g>
        <g id="Grupo_53913" data-name="Grupo 53913" transform="translate(56.811)">
          <path id="Trazado_101018" data-name="Trazado 101018" d="M2419.719,907.522c-2.146.052-3.906-2.158-3.906-4.9V880.8c0-2.867,1.8-5.2,4.042-5.231a291.956,291.956,0,0,1,31.948,1.125c1.549.167,2.753,1.791,2.81,3.778l1.061,21.1c.079,2.79-1.646,5.121-3.828,5.174Z" transform="translate(-2415.812 -875.532)" fill="#02dba8"/>
          <path id="Trazado_101019" data-name="Trazado 101019" d="M2588.075,894.793l5.906.637a1.331,1.331,0,0,0,1.47-1.421l-1.291-17.57c-2.476-.078-4.918-.136-7.275-.176v17.206A1.332,1.332,0,0,0,2588.075,894.793Z" transform="translate(-2566.733 -876.177)" fill="#fff" opacity="0.37"/>
          <path id="Trazado_101020" data-name="Trazado 101020" d="M2610.814,892.152a.594.594,0,0,0,.593.56h.035a.593.593,0,0,0,.559-.627l-.891-15.334-1.191-.028Z" transform="translate(-2587.051 -876.582)" fill="#fff"/>
        </g>
        <g id="Grupo_53914" data-name="Grupo 53914" transform="translate(102.945 0.992)">
          <path id="Trazado_101021" data-name="Trazado 101021" d="M2811.334,915.939c-2.146.052-3.907-2.158-3.907-4.9v-21.82c0-2.867,1.8-5.2,4.042-5.231a291.954,291.954,0,0,1,31.948,1.125c1.549.167,2.753,1.791,2.81,3.778l1.061,21.1c.079,2.79-1.646,5.121-3.828,5.174Z" transform="translate(-2807.427 -883.949)" fill="#02dba8"/>
          <path id="Trazado_101022" data-name="Trazado 101022" d="M2979.69,903.21l5.906.637a1.331,1.331,0,0,0,1.471-1.421l-1.291-17.569c-2.476-.079-4.918-.136-7.275-.176v17.206A1.331,1.331,0,0,0,2979.69,903.21Z" transform="translate(-2958.348 -884.594)" fill="#fff" opacity="0.37"/>
          <path id="Trazado_101023" data-name="Trazado 101023" d="M3002.429,900.569a.594.594,0,0,0,.593.56h.035a.593.593,0,0,0,.558-.627l-.89-15.334-1.192-.027Z" transform="translate(-2978.666 -884.999)" fill="#fff"/>
        </g>
        <g id="Grupo_53915" data-name="Grupo 53915" transform="translate(0 94.247)">
          <path id="Trazado_101024" data-name="Trazado 101024" d="M1938.24,1722.773c-2.564.077-4.669-3.186-4.669-7.237v-32.207c0-4.232,2.152-7.675,4.831-7.721,8.038-.138,24.616-.145,38.18,1.661,1.851.246,3.291,2.643,3.358,5.576l1.268,31.137c.094,4.119-1.967,7.56-4.575,7.638Z" transform="translate(-1933.571 -1675.554)" fill="#02dba8"/>
          <path id="Trazado_101025" data-name="Trazado 101025" d="M2111.515,1693.55l5.518.6a1.244,1.244,0,0,0,1.374-1.328L2117.2,1676.4c-2.313-.073-4.595-.127-6.8-.165v16.075A1.244,1.244,0,0,0,2111.515,1693.55Z" transform="translate(-2089.572 -1676.157)" fill="#fff" opacity="0.37"/>
          <path id="Trazado_101026" data-name="Trazado 101026" d="M2132.76,1691.083a.555.555,0,0,0,.554.523h.033a.554.554,0,0,0,.522-.586l-.832-14.326-1.114-.026Z" transform="translate(-2108.556 -1676.536)" fill="#fff"/>
        </g>
        <g id="Grupo_53916" data-name="Grupo 53916" transform="translate(49.268 93.918)">
          <path id="Trazado_101027" data-name="Trazado 101027" d="M2356.452,1719.975c-2.564.077-4.669-3.186-4.669-7.237v-32.207c0-4.232,2.152-7.675,4.831-7.721,8.038-.138,24.616-.145,38.18,1.661,1.851.246,3.291,2.643,3.358,5.576l1.268,31.137c.094,4.119-1.967,7.559-4.575,7.638Z" transform="translate(-2351.783 -1672.756)" fill="#02dba8"/>
          <path id="Trazado_101028" data-name="Trazado 101028" d="M2529.727,1690.751l5.518.6a1.244,1.244,0,0,0,1.374-1.328l-1.206-16.415c-2.313-.073-4.595-.127-6.8-.165v16.075A1.244,1.244,0,0,0,2529.727,1690.751Z" transform="translate(-2507.784 -1673.358)" fill="#fff" opacity="0.37"/>
          <path id="Trazado_101029" data-name="Trazado 101029" d="M2550.972,1688.285a.555.555,0,0,0,.553.523h.032a.555.555,0,0,0,.522-.586l-.832-14.326-1.113-.026Z" transform="translate(-2526.768 -1673.738)" fill="#fff"/>
        </g>
        <g id="Grupo_53917" data-name="Grupo 53917" transform="translate(98.655 88.956)">
          <path id="Trazado_101030" data-name="Trazado 101030" d="M2775.679,1683.417c-2.564.086-4.668-3.561-4.668-8.09v-36c0-4.73,2.152-8.579,4.831-8.63,8.038-.155,24.616-.162,38.18,1.856,1.851.275,3.291,2.955,3.358,6.233l1.268,34.805c.094,4.6-1.967,8.45-4.575,8.537Z" transform="translate(-2771.01 -1630.636)" fill="#02dba8"/>
          <path id="Trazado_101031" data-name="Trazado 101031" d="M2948.955,1650.751l5.518.666a1.317,1.317,0,0,0,1.374-1.485l-1.206-18.348c-2.313-.082-4.595-.142-6.8-.184v17.968A1.343,1.343,0,0,0,2948.955,1650.751Z" transform="translate(-2927.012 -1631.31)" fill="#fff" opacity="0.37"/>
          <path id="Trazado_101032" data-name="Trazado 101032" d="M2970.2,1647.995a.586.586,0,0,0,.554.585h.033a.6.6,0,0,0,.522-.655l-.832-16.014-1.113-.029Z" transform="translate(-2945.995 -1631.733)" fill="#fff"/>
        </g>
      </g>
      <g id="Grupo_53928" data-name="Grupo 53928" transform="translate(103.734 181.998)">
        <rect id="Rectángulo_5192" data-name="Rectángulo 5192" width="168.202" height="15.431" transform="translate(8.024 95.057)" fill="url(#linear-gradient-6)"/>
        <path id="Trazado_101033" data-name="Trazado 101033" d="M1239.559,2735.034h-2.309a2.629,2.629,0,0,1-2.629-2.629v-12.8h4.938Z" transform="translate(-1230.3 -2624.545)" fill="url(#linear-gradient-7)"/>
        <path id="Trazado_101034" data-name="Trazado 101034" d="M1372.319,1919.458c0-3.677-3.885-6.756-8.1-6.756H1205.5c-4.214,0-7.553,3.079-7.553,6.756v83.649c0,3.677,3.339,6.812,7.553,6.812H1364.22c4.214,0,8.1-3.135,8.1-6.812Z" transform="translate(-1197.944 -1912.702)" fill="#732be5"/>
        <path id="Trazado_101035" data-name="Trazado 101035" d="M1399.12,1952.874c0-3.364-2.9-6.115-6.873-6.115H1242.512c-3.974,0-7.891,2.751-7.891,6.115v76.463c0,3.365,3.917,6.615,7.891,6.615h149.735a6.821,6.821,0,0,0,6.873-6.615Z" transform="translate(-1230.3 -1942.747)" fill="#2d0c62" opacity="0.24"/>
        <path id="Trazado_101036" data-name="Trazado 101036" d="M2740.2,2236.948l-10.427-32.16a1.9,1.9,0,0,0-1.864-1.288H2686v76.231h56.673Z" transform="translate(-2510.694 -2169.242)" fill="#e8e8e8"/>
        <path id="Trazado_101037" data-name="Trazado 101037" d="M2826.032,2747.284a3.507,3.507,0,0,0-2.025-.553l-43.678.842-.193,12.41,43.639,1.072c1.6,0,2.984-.772,2.984-1.853v-10.513A1.561,1.561,0,0,0,2826.032,2747.284Z" transform="translate(-2593.744 -2648.477)" fill="url(#linear-gradient-8)"/>
        <g id="Grupo_53920" data-name="Grupo 53920" transform="translate(186.558 38.692)">
          <path id="Trazado_101038" data-name="Trazado 101038" d="M2816.362,2269.381l-6.3-25a2.057,2.057,0,0,0-1.9-1.584h-24.648a2.145,2.145,0,0,0-1.957,2.176l.591,20.015a1.971,1.971,0,0,0,1.645,1.889l30.359,4.911a1.954,1.954,0,0,0,2.211-2.407Z" transform="translate(-2781.555 -2242.603)" fill="#732be5"/>
          <path id="Trazado_101039" data-name="Trazado 101039" d="M3051.652,2241.145l-.322.053a1.959,1.959,0,0,0-1.571,2.441l6.87,25.547a1.958,1.958,0,0,0,2.252,1.416l2.17-.407Z" transform="translate(-3018.104 -2241.145)" fill="#732be5"/>
        </g>
        <rect id="Rectángulo_5193" data-name="Rectángulo 5193" width="11.419" height="4.629" rx="2.315" transform="translate(187.029 69.441)" fill="#fd0"/>
        <path id="Trazado_101040" data-name="Trazado 101040" d="M2688.917,2012.368a2.8,2.8,0,0,0-1.975.6,2.531,2.531,0,0,0-.947,1.713v20.193h25.561S2710.182,2013.919,2688.917,2012.368Z" transform="translate(-2510.694 -2000.62)" fill="#f6f6f6"/>
        <g id="Grupo_53922" data-name="Grupo 53922" transform="translate(173.418 83.769)">
          <g id="Grupo_53921" data-name="Grupo 53921" transform="translate(0 0)">
            <circle id="Elipse_4081" data-name="Elipse 4081" cx="19.861" cy="19.861" r="19.861" transform="translate(0 28.088) rotate(-45)" fill="url(#linear-gradient-9)"/>
            <circle id="Elipse_4082" data-name="Elipse 4082" cx="16.13" cy="16.13" r="16.13" transform="translate(9.339 15.095) rotate(-10.278)" fill="#f6f6f6"/>
            <path id="Trazado_101041" data-name="Trazado 101041" d="M2869.759,2758.274a.393.393,0,0,1-.362-.546,13.893,13.893,0,0,0-19.575-17.529.393.393,0,0,1-.385-.686,14.68,14.68,0,0,1,20.684,18.521A.393.393,0,0,1,2869.759,2758.274Z" transform="translate(-2828.122 -2724.233)" fill="#bdd0fb"/>
          </g>
          <circle id="Elipse_4083" data-name="Elipse 4083" cx="7.397" cy="7.397" r="7.397" transform="translate(19.072 33.393) rotate(-75.473)" fill="#732be5"/>
        </g>
        <g id="Grupo_53924" data-name="Grupo 53924" transform="translate(50.965 83.769)">
          <g id="Grupo_53923" data-name="Grupo 53923" transform="translate(0 0)">
            <circle id="Elipse_4084" data-name="Elipse 4084" cx="19.861" cy="19.861" r="19.861" transform="translate(0 28.088) rotate(-45)" fill="url(#linear-gradient-9)"/>
            <circle id="Elipse_4085" data-name="Elipse 4085" cx="16.13" cy="16.13" r="16.13" transform="translate(9.583 14.751) rotate(-9.217)" fill="#f6f6f6"/>
            <path id="Trazado_101042" data-name="Trazado 101042" d="M1830.3,2758.274a.393.393,0,0,1-.362-.546,13.893,13.893,0,0,0-19.576-17.529.393.393,0,0,1-.385-.686,14.68,14.68,0,0,1,20.684,18.521A.393.393,0,0,1,1830.3,2758.274Z" transform="translate(-1788.668 -2724.233)" fill="#bdd0fb"/>
          </g>
          <circle id="Elipse_4086" data-name="Elipse 4086" cx="7.397" cy="7.397" r="7.397" transform="translate(18.787 32.875) rotate(-72.231)" fill="#732be5"/>
        </g>
        <g id="Grupo_53926" data-name="Grupo 53926" transform="translate(5.529 83.769)">
          <g id="Grupo_53925" data-name="Grupo 53925" transform="translate(0 0)">
            <circle id="Elipse_4087" data-name="Elipse 4087" cx="19.861" cy="19.861" r="19.861" transform="translate(0 28.088) rotate(-45)" fill="url(#linear-gradient-9)"/>
            <circle id="Elipse_4088" data-name="Elipse 4088" cx="16.13" cy="16.13" r="16.13" transform="translate(9.583 14.751) rotate(-9.217)" fill="url(#linear-gradient-12)"/>
            <path id="Trazado_101043" data-name="Trazado 101043" d="M1444.629,2758.274a.393.393,0,0,1-.362-.546,13.893,13.893,0,0,0-19.575-17.529.393.393,0,0,1-.385-.686,14.68,14.68,0,0,1,20.684,18.521A.393.393,0,0,1,1444.629,2758.274Z" transform="translate(-1402.992 -2724.233)" fill="#fff"/>
          </g>
          <circle id="Elipse_4089" data-name="Elipse 4089" cx="7.397" cy="7.397" r="7.397" transform="translate(19.072 33.393) rotate(-75.473)" fill="url(#linear-gradient-13)"/>
        </g>
        <g id="Grupo_53927" data-name="Grupo 53927" transform="translate(223.138 87.033)">
          <rect id="Rectángulo_5194" data-name="Rectángulo 5194" width="8.95" height="10.802" rx="4.475" transform="translate(0 0)" fill="#fd0"/>
          <path id="Trazado_101044" data-name="Trazado 101044" d="M3096.077,2651.487v10.185h-1.611a2.7,2.7,0,0,1-2.4-2.3v-6.45c0-1.081,1.319-1.436,2.4-1.436Z" transform="translate(-3092.065 -2651.487)" fill="#fd0" opacity="0.8"/>
        </g>
        <path id="Trazado_101045" data-name="Trazado 101045" d="M2711.872,2285.616a.393.393,0,0,1-.393-.393v-45.368a.393.393,0,1,1,.786,0v45.368A.393.393,0,0,1,2711.872,2285.616Z" transform="translate(-2533.176 -2200.968)" fill="#fff" opacity="0.7"/>
        <path id="Trazado_101046" data-name="Trazado 101046" d="M2721.517,2059.841a.393.393,0,0,1-.372-.265c-5.868-17-17.979-15.8-18.1-15.788a.393.393,0,0,1-.092-.781c.125-.015,12.854-1.315,18.938,16.313a.394.394,0,0,1-.372.521Z" transform="translate(-2525.347 -2027.634)" fill="#bdd0fb"/>
      </g>
      <g id="Grupo_53930" data-name="Grupo 53930" transform="translate(18.444 326.192)">
        <path id="Trazado_101047" data-name="Trazado 101047" d="M643.782,3146.874a.922.922,0,0,0-.031-.3c-1.773-6.029-11.22-9.862-11.22-9.862l-3.786.2c-2.3,5.278-2.106,8.53-1.792,9.981a1.154,1.154,0,0,0,.036.119A113.66,113.66,0,0,0,643.782,3146.874Z" transform="translate(-626.765 -3136.707)" fill="#732be5"/>
        <path id="Trazado_101048" data-name="Trazado 101048" d="M628.661,3223.136a1.476,1.476,0,0,0,1.176.967c4.417.777,11.482.25,14.449-.027a1.219,1.219,0,0,0,1.168-1.071A113.618,113.618,0,0,1,628.661,3223.136Z" transform="translate(-628.438 -3212.839)" fill="#732be5"/>
      </g>
      <g id="Grupo_53931" data-name="Grupo 53931" transform="translate(39.796 325.824)">
        <path id="Trazado_101049" data-name="Trazado 101049" d="M814,3208.13a18.163,18.163,0,0,1-5.995-.857c0,.334,0,.674.011,1.026a.663.663,0,0,0,.633.675l18.444-.119a.842.842,0,0,0,.677-1.226C825.352,3207.828,819.193,3208.275,814,3208.13Z" transform="translate(-808.005 -3198.592)" fill="#732be5"/>
        <path id="Trazado_101050" data-name="Trazado 101050" d="M827.776,3142.617a.856.856,0,0,0-.073-.139c-1.629-2.276-5.778-6.808-13.975-8.774l-3.933-.124s-1.751,3.044-1.784,8.681a18.166,18.166,0,0,0,5.995.857C819.2,3143.264,825.358,3142.817,827.776,3142.617Z" transform="translate(-808.01 -3133.58)" fill="#732be5"/>
      </g>
      <path id="Trazado_101051" data-name="Trazado 101051" d="M604.259,2341.514s8.293,46.273,8.122,91.635c0,.827-6.031,1.924-6.162,1.16-1.33-7.8-10.147-58.569-14.5-65.7,0,0-1.766,44.937-.852,65.24.023.5-5.615,1.307-5.7.721-.947-6.6-7.322-52.519-7.09-80.822.013-1.6,1.492-14.894,1.492-14.894C588.943,2340.477,596.082,2343.312,604.259,2341.514Z" transform="translate(-565.368 -2106.65)" fill="#291845"/>
      <path id="Trazado_101052" data-name="Trazado 101052" d="M512.533,1931.586c-5.468-12.057-6.05-20.526,0-24.127a9.09,9.09,0,0,1,1.1-.211c1.927-.245,4.593-.583,7.663-.988a.123.123,0,0,0,.027,0,98.04,98.04,0,0,1,13.257-1.825c6.408-.4,13.3.031,16.078,3.173a45.544,45.544,0,0,0,5.492,9.453c5.15,6.759,7.679,14.291,10.354,12.823.731-.4,1.271-3.089,1.831-4.306a13.916,13.916,0,0,1,8.85,4.044c-2.233,12.15-9.635,17.173-27.773,2.254-3.444,9.741-7.238,22.049-6.005,30.98a1.585,1.585,0,0,1-1.277,1.688c-4.13.614-17.24,2.184-23.635-.379-.374-.147-1.408-.348-1.408-.754a88.251,88.251,0,0,0-4.107-30.08C512.8,1932.755,512.652,1932.175,512.533,1931.586Z" transform="translate(-503.732 -1727.191)" fill="#732be5"/>
      <path id="Trazado_101053" data-name="Trazado 101053" d="M638.663,1820l-1.233,12.6s7.086,2.134,12.24-1.5l-3.623-11.448Z" transform="translate(-617.728 -1653.901)" fill="url(#linear-gradient-14)"/>
      <g id="Grupo_53932" data-name="Grupo 53932" transform="translate(16.78 148.189)">
        <path id="Trazado_101054" data-name="Trazado 101054" d="M668.212,1721.158c.084.219.44,15.7.44,15.7l-8.844.016-2.518-14.623S666.8,1717.5,668.212,1721.158Z" transform="translate(-652.029 -1714.343)" fill="url(#linear-gradient-15)"/>
        <path id="Trazado_101055" data-name="Trazado 101055" d="M620.926,1683.411a1.274,1.274,0,0,0-.4,1.047l.712,7.689a1.236,1.236,0,0,0,.079.339c.235.6,1.139,2.456,3.022,1.427a11.2,11.2,0,0,1,4.3-1.7,1.269,1.269,0,0,1,1.3,1.251,47.392,47.392,0,0,1-.343,6.99,1.264,1.264,0,0,1-1.335,1.079,35.242,35.242,0,0,1-7.84-1.3,1.271,1.271,0,0,1-.861-.981c-.375-2.03-1.448-7.715-2-9.273-.511-1.447-2.5-1.948-3.425-2.106a1.278,1.278,0,0,1-.857-.56,2.8,2.8,0,0,1,.895-4.3,1.272,1.272,0,0,0,.394-1.727,2.811,2.811,0,0,1,.756-4.061,3.963,3.963,0,0,1,4.778-.034,1.319,1.319,0,0,0,1.581-.094.84.84,0,0,1,.815-.182c1.821.461,1.506-2.081,2.442-2.875,1.311-1.112,2.73.507,3.26,1.7.294.662.5,1.362.824,2.011a6.334,6.334,0,0,0,2.247,2.505,1.01,1.01,0,0,1,.385.344.629.629,0,0,1-.134.684,1.71,1.71,0,0,1-.625.388,7.929,7.929,0,0,1-5.765.229C623.435,1681.343,621.718,1682.667,620.926,1683.411Z" transform="translate(-612.634 -1673.675)" fill="url(#linear-gradient-16)"/>
        <path id="Trazado_101056" data-name="Trazado 101056" d="M623.94,1794.16s.157-4.564-1.677-5.264-4.066.39-2.83,3.415C620.971,1796.073,623.94,1794.16,623.94,1794.16Z" transform="translate(-618.318 -1775.142)" fill="url(#linear-gradient-17)"/>
      </g>
      <g id="Grupo_53934" data-name="Grupo 53934" transform="translate(16.643 146.036)">
        <g id="Grupo_53933" data-name="Grupo 53933" transform="translate(0 0)">
          <path id="Trazado_101057" data-name="Trazado 101057" d="M630.612,1666.26c-2.733-14.359-23.128-8.363-18.448,4.466C619.226,1668.634,627.634,1664.881,630.612,1666.26Z" transform="translate(-611.468 -1657.931)" fill="url(#linear-gradient-18)"/>
        </g>
        <path id="Trazado_101058" data-name="Trazado 101058" d="M672.766,1725.305l11.848,3.253a.886.886,0,0,0,.849-.215,8.3,8.3,0,0,1,5.676-2.382.248.248,0,0,0,.078-.48l-7.045-2.706-.024-.007c-3.671-.829-7.51.35-11.409,2.244A.158.158,0,0,0,672.766,1725.305Z" transform="translate(-665.443 -1714.892)" fill="url(#linear-gradient-19)"/>
      </g>
      <g id="Grupo_53935" data-name="Grupo 53935" transform="translate(14.207 180.122)">
        <path id="Trazado_101059" data-name="Trazado 101059" d="M597.272,1974.3a6.359,6.359,0,0,1-6.479-6.357V1939.65a6.778,6.778,0,0,1,6.7-6.782c11.155-.121,34.162-.128,52.987,1.459a5.1,5.1,0,0,1,4.66,4.9l1.759,27.352a6.476,6.476,0,0,1-6.349,6.709Z" transform="translate(-590.793 -1932.82)" fill="#02dba8"/>
        <path id="Trazado_101060" data-name="Trazado 101060" d="M837.745,1957.792l7.658.826a1.726,1.726,0,0,0,1.907-1.843l-1.674-22.78c-3.21-.1-6.377-.176-9.432-.228v22.309A1.727,1.727,0,0,0,837.745,1957.792Z" transform="translate(-807.293 -1933.654)" fill="#fff" opacity="0.37"/>
        <path id="Trazado_101061" data-name="Trazado 101061" d="M867.23,1954.369a.77.77,0,0,0,.768.726l.045,0a.769.769,0,0,0,.724-.813l-1.155-19.882-1.545-.036Z" transform="translate(-833.639 -1934.18)" fill="#fff"/>
      </g>
      <g id="Grupo_53936" data-name="Grupo 53936" transform="translate(2.072 179.512)">
        <path id="Trazado_101062" data-name="Trazado 101062" d="M656.891,2197.624c1.381-1.924.344-3.206.344-3.206-6.968-2.488-16.954-2.292-24.526-11.794-3.076,1.631-.591,2.6-3.962,7.5C644.6,2200.332,656.891,2197.624,656.891,2197.624Z" transform="translate(-612.142 -2152.519)" fill="#732be5"/>
        <path id="Trazado_101063" data-name="Trazado 101063" d="M500.32,1936.457c.1,11.426,3.7,20.133,20.837,29l-3.5,5.432c-8.345-.777-23.03-11.916-27.463-20.185-1.093-2.039-2.6-8.458-2.385-12.979C488.259,1928.42,497.843,1919.922,500.32,1936.457Z" transform="translate(-487.786 -1927.073)" fill="#732be5"/>
        <path id="Trazado_101064" data-name="Trazado 101064" d="M861.361,2279.389c4.185,1.545,7.055-.966,8.919-3.682a27.836,27.836,0,0,0-9.586.145Z" transform="translate(-816.763 -2234.337)" fill="#732be5"/>
      </g>
      <path id="Trazado_101065" data-name="Trazado 101065" d="M1126.967,2043.129c-1.064-.261-3.453-3.493-3.707-2.312s.467,2.678.36,3.18-.909,3.315-.272,4.5a48.166,48.166,0,0,1,1.829,4.956c.155.473.281,1.1.776,1.042s.878-.721.924-1.217C1126.9,2053.074,1128.031,2043.39,1126.967,2043.129Z" transform="translate(-1041.889 -1847.885)" fill="url(#linear-gradient-20)"/>
      <path id="Rectángulo_5195" data-name="Rectángulo 5195" d="M0,0H72.3a0,0,0,0,1,0,0V74.591a11.3,11.3,0,0,1-11.3,11.3H0a0,0,0,0,1,0,0V0A0,0,0,0,1,0,0Z" transform="translate(152.958 326.554) rotate(180)" fill="#02dba8"/>
      <path id="Rectángulo_5196" data-name="Rectángulo 5196" d="M0,0H69.5a0,0,0,0,1,0,0V85.833a0,0,0,0,1,0,0H12.8A12.8,12.8,0,0,1,0,73.03V0A0,0,0,0,1,0,0Z" transform="translate(162.619 326.586) rotate(180)" fill="#02dba8"/>
      <path id="Trazado_101066" data-name="Trazado 101066" d="M1447.264,2433.347l-8.028.866a1.81,1.81,0,0,1-2-1.932l1.755-23.882c3.365-.107,6.685-.185,9.888-.239v23.388A1.81,1.81,0,0,1,1447.264,2433.347Z" transform="translate(-1316.794 -2170.365)" fill="#02dba8" opacity="0.37"/>
      <path id="Trazado_101067" data-name="Trazado 101067" d="M1482.379,2429.758a.807.807,0,0,1-.806.761l-.047,0a.807.807,0,0,1-.759-.853l1.21-20.843,1.62-.038Z" transform="translate(-1355.091 -2171.03)" fill="#02dba8"/>
    </g>
  </g>
</svg>
