<svg xmlns="http://www.w3.org/2000/svg" xmlns:xlink="http://www.w3.org/1999/xlink" width="443" height="378" viewBox="0 0 443 378">
  <defs>
    <linearGradient id="linear-gradient" x1="0.212" y1="2.444" x2="1.106" y2="1.332" gradientUnits="objectBoundingBox">
      <stop offset="0" stop-color="#dae3fe"/>
      <stop offset="1" stop-color="#e9effd"/>
    </linearGradient>
    <linearGradient id="linear-gradient-2" x1="-0.332" y1="16.526" x2="2.524" y2="20.227" gradientUnits="objectBoundingBox">
      <stop offset="0" stop-color="#09005d"/>
      <stop offset="1" stop-color="#1a0f91"/>
    </linearGradient>
    <linearGradient id="linear-gradient-3" x1="19.829" y1="35.868" x2="20.896" y2="40.474" xlink:href="#linear-gradient-2"/>
    <linearGradient id="linear-gradient-4" x1="0.859" y1="-2.38" x2="0.79" y2="4.007" xlink:href="#linear-gradient-2"/>
  </defs>
  <g id="Grupo_54121" data-name="Grupo 54121" transform="translate(7503 2947)">
    <g id="Grupo_54111" data-name="Grupo 54111" transform="translate(-7480 -2895)">
      <path id="Trazado_101463" data-name="Trazado 101463" d="M585.921,1148.008c23.752,20.441,15.829,54.924,32.341,59.058,18.685,4.678,32.009-38.68,58.121-37.966,28.93.791,59.794,55.3,46.4,81.088-8.718,16.788-33.032,15.311-36.091,30-2.883,13.841,25.125,21.2,24.373,35.154-.9,16.652-39.858,27.179-49.215,29.529-46.324,11.633-59.6-3.269-114.367-.937-55.66,2.369-68.276,18.879-104.992,7.5-11.022-3.416-36.891-11.434-50.153-35.622-17.645-32.184-5.566-79.488,18.749-91.4,17.082-8.368,29.066-.9,44.982-9.893,21.992-12.425,8.072-38.187,29.543-61.352C508.362,1128.624,560.486,1126.118,585.921,1148.008Z" transform="translate(-383.954 -1097.484)" fill="#f3f5f8"/>
      <path id="Trazado_101464" data-name="Trazado 101464" d="M276.6,866.257a87.333,87.333,0,0,0-11.3,13.3c-31.469,43.421-22.713,95.1-20.565,106.083,3.173,16.221,9.307,47.576,35.686,70.387,39.909,34.512,103.17,29.589,145.08,3.292,7.666-4.81,50.2-30.2,57.339-82.335,4.317-31.549-3.738-68.409-25.815-95.208C410.683,825.523,316.307,828.893,276.6,866.257Z" transform="translate(-126.619 -834.878)" fill="url(#linear-gradient)"/>
      <g id="Grupo_54063" data-name="Grupo 54063" transform="translate(116.583 0.6)">
        <ellipse id="Elipse_4126" data-name="Elipse 4126" cx="102.443" cy="110.577" rx="102.443" ry="110.577" transform="translate(8.986 214.388) rotate(-92.514)" fill="#732be5"/>
        <ellipse id="Elipse_4127" data-name="Elipse 4127" cx="86.769" cy="81.969" rx="86.769" ry="81.969" transform="translate(34.18 17.834)" fill="#732be5" opacity="0.11"/>
        <g id="Grupo_54062" data-name="Grupo 54062" transform="translate(14.993 7.468)" opacity="0.68">
          <path id="Trazado_101465" data-name="Trazado 101465" d="M1148.445,982.294a310.708,310.708,0,0,0,4.427,53.965c.8,4.448,1.732,8.874,2.842,13.258a127.59,127.59,0,0,0,3.971,12.973c.789,2.122,1.652,4.219,2.622,6.268a48.728,48.728,0,0,0,3.3,5.952,24.351,24.351,0,0,0,4.442,5.19,12.64,12.64,0,0,0,2.9,1.873,8.667,8.667,0,0,0,3.38.8,8.505,8.505,0,0,0,3.417-.63,11.872,11.872,0,0,0,2.968-1.77,23.109,23.109,0,0,0,4.538-5.109,47.029,47.029,0,0,0,3.356-5.923c.984-2.043,1.859-4.135,2.656-6.254a124.835,124.835,0,0,0,4.014-12.959c1.12-4.381,2.06-8.805,2.869-13.252,1.614-8.895,2.713-17.875,3.452-26.88s1.1-18.041,1.136-27.077c.018-4.517-.093-9.034-.251-13.548s-.408-9.025-.735-13.531c-.658-9.009-1.646-18-3.119-26.915-.739-4.457-1.6-8.9-2.641-13.294a127.811,127.811,0,0,0-3.756-13.027c-.756-2.131-1.582-4.24-2.525-6.3a45.917,45.917,0,0,0-3.233-5.975,22.231,22.231,0,0,0-4.442-5.149,11.343,11.343,0,0,0-2.934-1.762,8.268,8.268,0,0,0-3.372-.6,8.925,8.925,0,0,0-3.333.784,13.032,13.032,0,0,0-2.9,1.814,24.794,24.794,0,0,0-4.54,5.061,48.47,48.47,0,0,0-3.449,5.851c-1.024,2.02-1.935,4.093-2.777,6.192a123.462,123.462,0,0,0-4.265,12.87c-1.2,4.358-2.215,8.765-3.094,13.2A284.409,284.409,0,0,0,1148.445,982.294Zm1.056,0c-.012-9.007.334-18.015,1.086-26.99a259.472,259.472,0,0,1,3.547-26.772c.837-4.424,1.811-8.823,2.968-13.173a123,123,0,0,1,4.133-12.843c.819-2.094,1.707-4.162,2.706-6.174a48,48,0,0,1,3.367-5.826,24.419,24.419,0,0,1,4.422-5.02,12.7,12.7,0,0,1,2.8-1.79,8.419,8.419,0,0,1,3.206-.778,7.879,7.879,0,0,1,3.235.6,10.988,10.988,0,0,1,2.828,1.733,21.849,21.849,0,0,1,4.317,5.095,45.506,45.506,0,0,1,3.149,5.943c.918,2.051,1.721,4.153,2.454,6.278a127.256,127.256,0,0,1,3.626,13c1,4.39,1.819,8.82,2.517,13.268,1.392,8.9,2.3,17.871,2.878,26.86s.8,18,.782,27.009q.025,13.51-.969,27c-.682,8.98-1.723,17.937-3.276,26.806-.779,4.434-1.688,8.845-2.776,13.211a124.113,124.113,0,0,1-3.911,12.9c-.778,2.107-1.633,4.186-2.594,6.213a46.391,46.391,0,0,1-3.273,5.86,22.519,22.519,0,0,1-4.382,5,11.3,11.3,0,0,1-2.811,1.7,7.793,7.793,0,0,1-3.186.6,8.1,8.1,0,0,1-3.154-.769,12.046,12.046,0,0,1-2.753-1.8,23.753,23.753,0,0,1-4.293-5.085,60.783,60.783,0,0,1-5.78-12.118,126.9,126.9,0,0,1-3.865-12.918c-1.076-4.369-1.974-8.782-2.745-13.217-1.542-8.871-2.57-17.829-3.252-26.81S1149.5,991.3,1149.5,982.294Z" transform="translate(-1076.583 -882.073)" fill="#732be5" style="mix-blend-mode: soft-light;isolation: isolate"/>
          <path id="Trazado_101466" data-name="Trazado 101466" d="M671.2,977.844a131.564,131.564,0,0,0,4.655,34.457,111.011,111.011,0,0,0,14.386,31.608,90.991,90.991,0,0,0,11,13.493,77.061,77.061,0,0,0,13.543,10.922,65.321,65.321,0,0,0,15.81,7.235,58.971,58.971,0,0,0,34.38.012,65.35,65.35,0,0,0,15.82-7.226,77.147,77.147,0,0,0,13.558-10.916,91.061,91.061,0,0,0,11.014-13.491,111.029,111.029,0,0,0,14.414-31.618,131.644,131.644,0,0,0,4.666-34.477,130.259,130.259,0,0,0-4.681-34.472,111.107,111.107,0,0,0-14.432-31.6,91,91,0,0,0-11.015-13.479,76.938,76.938,0,0,0-13.555-10.9,65.558,65.558,0,0,0-15.81-7.2,58.805,58.805,0,0,0-34.341,0,65.269,65.269,0,0,0-15.8,7.226,77.113,77.113,0,0,0-13.539,10.909,90.957,90.957,0,0,0-11,13.482,110.975,110.975,0,0,0-14.4,31.591A131.548,131.548,0,0,0,671.2,977.844Zm1.211,0a130.41,130.41,0,0,1,4.507-34.162,110.624,110.624,0,0,1,14.024-31.437,90.227,90.227,0,0,1,10.8-13.462,75.264,75.264,0,0,1,13.354-10.923,64.777,64.777,0,0,1,15.654-7.213,57.337,57.337,0,0,1,34.063,0,64.5,64.5,0,0,1,15.641,7.234,75.431,75.431,0,0,1,13.338,10.931,90.178,90.178,0,0,1,10.783,13.464A110.5,110.5,0,0,1,818.567,943.7a126.087,126.087,0,0,1,3.368,16.922,135.335,135.335,0,0,1,1.131,17.219,130.322,130.322,0,0,1-4.514,34.137,110.573,110.573,0,0,1-14.012,31.41,90.126,90.126,0,0,1-10.784,13.453,75.22,75.22,0,0,1-13.335,10.916,64.692,64.692,0,0,1-15.631,7.213,57.172,57.172,0,0,1-34.024.012,64.7,64.7,0,0,1-15.641-7.2,75.267,75.267,0,0,1-13.349-10.91,90.174,90.174,0,0,1-10.8-13.45,110.586,110.586,0,0,1-14.04-31.42A130.4,130.4,0,0,1,672.409,977.844Z" transform="translate(-644.896 -877.623)" fill="#732be5" style="mix-blend-mode: soft-light;isolation: isolate"/>
          <path id="Trazado_101467" data-name="Trazado 101467" d="M735.2,1437.3l-23.047-.147-23.047-.084L643.013,1437l-46.093.074-23.047.091-23.047.159a.053.053,0,0,0,0,.107l23.047.159,23.047.091,46.093.074,46.093-.067,23.047-.084,23.047-.147a.079.079,0,0,0,0-.159Z" transform="translate(-542.765 -1376.769)" fill="#732be5" style="mix-blend-mode: soft-light;isolation: isolate"/>
          <path id="Trazado_101468" data-name="Trazado 101468" d="M930.029,1078.815l-16.363-.147-16.362-.083c-5.454-.036-10.908-.032-16.363-.043l-16.362-.025-32.725.074-16.362.091-16.362.159a.054.054,0,0,0,0,.107l16.362.158,16.362.091,32.725.074,16.362-.025c5.454-.011,10.908-.007,16.363-.043l16.362-.083,16.363-.147a.08.08,0,0,0,0-.159Z" transform="translate(-764.331 -1056.885)" fill="#732be5" style="mix-blend-mode: soft-light;isolation: isolate"/>
          <path id="Trazado_101469" data-name="Trazado 101469" d="M676.838,1795.785l-25.049-.147-25.049-.084-50.1-.067-50.1.074-25.049.091-25.049.158a.053.053,0,0,0,0,.107l25.049.158,25.049.091,50.1.074,50.1-.067,25.049-.084,25.049-.146a.079.079,0,0,0,0-.159Z" transform="translate(-476.394 -1696.653)" fill="#732be5" style="mix-blend-mode: soft-light;isolation: isolate"/>
          <path id="Trazado_101470" data-name="Trazado 101470" d="M735.2,2154.268l-23.047-.146-23.047-.084-46.093-.067-46.093.074-23.047.091-23.047.158a.054.054,0,0,0,0,.107l23.047.158,23.047.092,46.093.074,46.093-.067,23.047-.084,23.047-.146a.079.079,0,0,0,.079-.08A.08.08,0,0,0,735.2,2154.268Z" transform="translate(-542.765 -2016.536)" fill="#732be5" style="mix-blend-mode: soft-light;isolation: isolate"/>
          <path id="Trazado_101471" data-name="Trazado 101471" d="M828.124,2513.925h130.9a.279.279,0,1,0,0-.558h-130.9a.279.279,0,1,0,0,.558Z" transform="translate(-796.623 -2337.233)" fill="#732be5" style="mix-blend-mode: soft-light;isolation: isolate"/>
        </g>
      </g>
      <g id="Grupo_54073" data-name="Grupo 54073" transform="translate(43.874 61.769)">
        <path id="Trazado_101472" data-name="Trazado 101472" d="M2272.525,1667.6l70.836-10.941a7.425,7.425,0,0,1,8.4,5.833l21.091,101.891a5.475,5.475,0,0,1-4.428,6.505l-80.959,14.016a5.2,5.2,0,0,1-6.023-4.328l-15.965-103.36A8.428,8.428,0,0,1,2272.525,1667.6Z" transform="translate(-2265.382 -1646.517)" fill="#02cddb"/>
        <path id="Trazado_101473" data-name="Trazado 101473" d="M2967.482,2670.823h0l-9.1,1.286a5.707,5.707,0,0,1-6.414-4.761l-2.118-13.716a.234.234,0,0,1,.2-.267.238.238,0,0,1,.267.2l2.118,13.716a5.236,5.236,0,0,0,5.885,4.368l9.1-1.285a.234.234,0,0,1,.066.464Z" transform="translate(-2933.795 -2535.974)" fill="#fff"/>
        <path id="Trazado_101474" data-name="Trazado 101474" d="M3117.865,2595.955a.234.234,0,0,1-.265-.2l-.343-2.221a.235.235,0,0,1,.2-.267h0a.234.234,0,0,1,.266.2l.343,2.221a.235.235,0,0,1-.2.267Z" transform="translate(-3102.204 -2482.349)" fill="#bdd0fb"/>
        <g id="Grupo_54071" data-name="Grupo 54071" transform="translate(4.83 12.537)">
          <path id="Trazado_101475" data-name="Trazado 101475" d="M2316.153,1687.291c9.876-.182,43.766-1.263,70.942-7.622a2.264,2.264,0,0,1,2.735,1.738l21.416,102.309a2.605,2.605,0,0,1-2,3.081c-11.461,2.471-58.689,12.475-75.955,13.32a2.064,2.064,0,0,1-2.137-1.737l-17.373-108.252A2.448,2.448,0,0,1,2316.153,1687.291Z" transform="translate(-2313.75 -1679.609)" fill="#7d97f4"/>
          <path id="Trazado_101476" data-name="Trazado 101476" d="M2335.876,1713.053c9.5-.175,42.118-1.215,68.271-7.335a2.178,2.178,0,0,1,2.632,1.673l20.609,98.457a2.507,2.507,0,0,1-1.925,2.965c-11.03,2.378-56.478,12.005-73.094,12.818a1.986,1.986,0,0,1-2.057-1.671l-16.718-104.176A2.356,2.356,0,0,1,2335.876,1713.053Z" transform="translate(-2332.024 -1702.855)" fill="#fff" opacity="0.6"/>
          <g id="Grupo_54064" data-name="Grupo 54064" transform="translate(12.13 10.348)" opacity="0.6">
            <path id="Trazado_101477" data-name="Trazado 101477" d="M2599.338,1777.161c.719-.111,1.236-.52,1.15-.908s-.746-.62-1.466-.515l-58.97,8.633c-.719.105-.9.569-.4,1.03a3.017,3.017,0,0,0,2.216.637Z" transform="translate(-2539.369 -1775.712)" fill="#fff"/>
          </g>
          <g id="Grupo_54065" data-name="Grupo 54065" transform="translate(12.743 14.316)" opacity="0.6">
            <path id="Trazado_101478" data-name="Trazado 101478" d="M2534.36,1821.217c-.719.105-.9.569-.4,1.031a3.017,3.017,0,0,0,2.216.637l57.469-8.876c.719-.111,1.236-.52,1.149-.908s-.746-.621-1.466-.515Z" transform="translate(-2533.678 -1812.558)" fill="#fff"/>
          </g>
          <path id="Trazado_101479" data-name="Trazado 101479" d="M2950.9,2121.65c-.5-3.1-1.007-5.994-1.708-7.446a2.269,2.269,0,0,0-2.5-1.153l-.032.006c-1.466.295-3.927.977-6.1,1.579-1,.277-1.9.529-2.564.7h0a1.791,1.791,0,0,0-1.112.835,1.49,1.49,0,0,0-.139,1.167l1.946,6.521a2.188,2.188,0,0,0,2.537,1.418l7.942-1.413.022,0A2.014,2.014,0,0,0,2950.9,2121.65Zm-12.737-5.676c.663-.172,1.573-.425,2.574-.7,2.054-.57,4.609-1.279,6.052-1.568a1.63,1.63,0,0,1,1.81.788,33.67,33.67,0,0,1,1.651,7.265,1.355,1.355,0,0,1-1.179,1.458l-.016,0-7.942,1.413a1.533,1.533,0,0,1-1.792-.958l-1.946-6.521a.838.838,0,0,1,.082-.655,1.123,1.123,0,0,1,.7-.521Z" transform="translate(-2920.446 -2066.339)" fill="#fff"/>
          <path id="Trazado_101480" data-name="Trazado 101480" d="M2954.092,2129.919c1.644-.426,5.195-1.473,6.907-1.818a1.563,1.563,0,0,1,1.736.773,27.419,27.419,0,0,1,1.342,5.878,1.342,1.342,0,0,1-1.167,1.469l-6.347,1.129a1.489,1.489,0,0,1-1.729-.949l-1.555-5.211A1.047,1.047,0,0,1,2954.092,2129.919Z" transform="translate(-2935.398 -2079.778)" fill="#fff" opacity="0.6"/>
          <g id="Grupo_54066" data-name="Grupo 54066" transform="translate(34.206 42.694)" opacity="0.6">
            <path id="Trazado_101481" data-name="Trazado 101481" d="M2509.916,2082.612a.941.941,0,0,0-.738,1.407l.654,1.377a1.814,1.814,0,0,0,1.867.95l38.621-7.252a1.291,1.291,0,0,0,1.027-1.538l-.075-.358a1.4,1.4,0,0,0-1.578-1.081Z" transform="translate(-2509.061 -2076.1)" fill="#fff"/>
          </g>
          <path id="Trazado_101482" data-name="Trazado 101482" d="M2967.986,2094.617h0a1.238,1.238,0,0,1,1.764.142l2.091,2.509a.4.4,0,0,0,.691-.161l2.257-9.363a.44.44,0,0,1,.863.031,17.347,17.347,0,0,1-2.733,12.8s-2.5-.468-5.14-4.229A1.3,1.3,0,0,1,2967.986,2094.617Z" transform="translate(-2948.759 -2043.496)" fill="#fd0"/>
          <path id="Trazado_101483" data-name="Trazado 101483" d="M2975.082,1955.145c-.5-3.1-1.007-5.994-1.708-7.446a2.269,2.269,0,0,0-2.5-1.153l-.033.006c-1.466.294-3.927.977-6.1,1.579-1,.277-1.9.528-2.564.7h0a1.79,1.79,0,0,0-1.113.835,1.491,1.491,0,0,0-.139,1.167l1.947,6.521a2.186,2.186,0,0,0,2.537,1.418l7.943-1.413.022,0A2.013,2.013,0,0,0,2975.082,1955.145Zm-12.737-5.677c.663-.172,1.573-.425,2.574-.7,2.054-.57,4.609-1.279,6.052-1.568a1.63,1.63,0,0,1,1.811.787,33.673,33.673,0,0,1,1.651,7.265,1.355,1.355,0,0,1-1.178,1.458l-.016,0-7.942,1.413a1.532,1.532,0,0,1-1.791-.958l-1.947-6.521a.838.838,0,0,1,.082-.655,1.128,1.128,0,0,1,.7-.521Z" transform="translate(-2947.232 -1917.763)" fill="#fff"/>
          <path id="Trazado_101484" data-name="Trazado 101484" d="M2978.275,1963.415c1.644-.427,5.2-1.474,6.908-1.817a1.562,1.562,0,0,1,1.736.772,27.463,27.463,0,0,1,1.342,5.878,1.342,1.342,0,0,1-1.168,1.468l-6.347,1.129a1.489,1.489,0,0,1-1.73-.949l-1.555-5.211A1.048,1.048,0,0,1,2978.275,1963.415Z" transform="translate(-2962.185 -1931.202)" fill="#fff" opacity="0.6"/>
          <g id="Grupo_54067" data-name="Grupo 54067" transform="translate(31.602 24.765)" opacity="0.6">
            <path id="Trazado_101485" data-name="Trazado 101485" d="M2534.1,1916.107a.942.942,0,0,0-.738,1.407l.654,1.377a1.814,1.814,0,0,0,1.867.95l38.621-7.252a1.292,1.292,0,0,0,1.027-1.538l-.075-.357a1.4,1.4,0,0,0-1.577-1.081Z" transform="translate(-2533.244 -1909.595)" fill="#fff"/>
          </g>
          <path id="Trazado_101486" data-name="Trazado 101486" d="M2992.168,1928.112h0a1.238,1.238,0,0,1,1.764.142l2.09,2.509a.4.4,0,0,0,.692-.161l2.257-9.363a.44.44,0,0,1,.863.031,17.343,17.343,0,0,1-2.732,12.8s-2.5-.467-5.141-4.228A1.3,1.3,0,0,1,2992.168,1928.112Z" transform="translate(-2975.546 -1894.92)" fill="#fd0"/>
          <path id="Trazado_101487" data-name="Trazado 101487" d="M2921.269,2279.448c-.5-3.095-1.006-5.994-1.708-7.445a2.267,2.267,0,0,0-2.5-1.153l-.032.006c-1.466.294-3.927.977-6.1,1.579-1,.277-1.9.528-2.564.7h0a1.79,1.79,0,0,0-1.113.835,1.49,1.49,0,0,0-.139,1.167l1.946,6.521a2.187,2.187,0,0,0,2.537,1.417l7.942-1.413.022,0A2.013,2.013,0,0,0,2921.269,2279.448Zm-12.737-5.677c.663-.172,1.573-.424,2.574-.7,2.054-.569,4.61-1.278,6.052-1.568a1.638,1.638,0,0,1,1.81.787,33.669,33.669,0,0,1,1.65,7.265,1.355,1.355,0,0,1-1.178,1.458l-.016,0-7.942,1.413a1.532,1.532,0,0,1-1.791-.958l-1.946-6.521a.834.834,0,0,1,.082-.655,1.127,1.127,0,0,1,.7-.522Z" transform="translate(-2887.624 -2207.146)" fill="#fff"/>
          <path id="Trazado_101488" data-name="Trazado 101488" d="M2924.46,2287.719c1.644-.427,5.195-1.474,6.907-1.818a1.562,1.562,0,0,1,1.735.773,27.422,27.422,0,0,1,1.342,5.878,1.342,1.342,0,0,1-1.167,1.468l-6.347,1.129a1.49,1.49,0,0,1-1.729-.949l-1.555-5.211A1.047,1.047,0,0,1,2924.46,2287.719Z" transform="translate(-2902.575 -2220.586)" fill="#fff" opacity="0.6"/>
          <g id="Grupo_54068" data-name="Grupo 54068" transform="translate(37.397 59.685)" opacity="0.6">
            <path id="Trazado_101489" data-name="Trazado 101489" d="M2480.284,2240.412a.942.942,0,0,0-.738,1.407l.654,1.377a1.814,1.814,0,0,0,1.867.95l38.622-7.253a1.291,1.291,0,0,0,1.027-1.538l-.075-.358a1.4,1.4,0,0,0-1.577-1.081Z" transform="translate(-2479.429 -2233.9)" fill="#fff"/>
          </g>
          <path id="Trazado_101490" data-name="Trazado 101490" d="M2938.354,2252.417h0a1.238,1.238,0,0,1,1.764.142l2.09,2.509a.4.4,0,0,0,.692-.161l2.257-9.363a.441.441,0,0,1,.863.031,17.348,17.348,0,0,1-2.733,12.8s-2.5-.467-5.14-4.228A1.3,1.3,0,0,1,2938.354,2252.417Z" transform="translate(-2915.937 -2184.304)" fill="#fd0"/>
          <path id="Trazado_101491" data-name="Trazado 101491" d="M2899.7,2432.3c-.5-3.095-1.006-5.993-1.707-7.445a2.3,2.3,0,0,0-2.533-1.147c-1.467.295-4.036,1.007-6.1,1.58-1,.276-1.9.528-2.561.7h0a1.792,1.792,0,0,0-1.113.836,1.493,1.493,0,0,0-.14,1.167l1.947,6.521a2.187,2.187,0,0,0,2.537,1.418l7.943-1.412.021,0A2.014,2.014,0,0,0,2899.7,2432.3Zm-12.737-5.677c.662-.172,1.572-.424,2.572-.7,2.054-.57,4.611-1.279,6.055-1.569a1.649,1.649,0,0,1,1.81.787,33.662,33.662,0,0,1,1.651,7.265,1.385,1.385,0,0,1-1.194,1.461l-7.943,1.413a1.532,1.532,0,0,1-1.791-.958l-1.946-6.521a.836.836,0,0,1,.082-.655,1.129,1.129,0,0,1,.7-.522Z" transform="translate(-2863.739 -2343.545)" fill="#fff"/>
          <path id="Trazado_101492" data-name="Trazado 101492" d="M2902.9,2440.538c1.644-.426,5.195-1.474,6.908-1.818a1.562,1.562,0,0,1,1.735.773,27.4,27.4,0,0,1,1.342,5.877,1.342,1.342,0,0,1-1.167,1.469l-6.347,1.129a1.489,1.489,0,0,1-1.73-.949l-1.555-5.211A1.047,1.047,0,0,1,2902.9,2440.538Z" transform="translate(-2878.69 -2356.95)" fill="#fff" opacity="0.6"/>
          <g id="Grupo_54069" data-name="Grupo 54069" transform="translate(39.719 76.14)" opacity="0.6">
            <path id="Trazado_101493" data-name="Trazado 101493" d="M2458.72,2393.23a.942.942,0,0,0-.738,1.407l.654,1.376a1.814,1.814,0,0,0,1.867.951l38.622-7.252a1.292,1.292,0,0,0,1.027-1.538l-.075-.357a1.4,1.4,0,0,0-1.577-1.081Z" transform="translate(-2457.865 -2386.719)" fill="#fff"/>
          </g>
          <path id="Trazado_101494" data-name="Trazado 101494" d="M2916.79,2405.236h0a1.238,1.238,0,0,1,1.764.142l2.09,2.509a.4.4,0,0,0,.692-.161l2.257-9.363a.44.44,0,0,1,.863.031,17.345,17.345,0,0,1-2.733,12.8s-2.5-.467-5.141-4.228A1.3,1.3,0,0,1,2916.79,2405.236Z" transform="translate(-2892.05 -2320.667)" fill="#fd0"/>
          <path id="Trazado_101495" data-name="Trazado 101495" d="M2878.725,2590.169c-.5-3.095-1.006-5.994-1.707-7.446a2.3,2.3,0,0,0-2.533-1.147c-1.466.294-3.927.977-6.1,1.579-1,.277-1.9.528-2.563.7h0a1.79,1.79,0,0,0-1.113.835,1.487,1.487,0,0,0-.139,1.167l1.946,6.521a2.187,2.187,0,0,0,2.537,1.418l7.942-1.413.022,0A2.013,2.013,0,0,0,2878.725,2590.169Zm-12.736-5.677c.663-.172,1.573-.425,2.574-.7,2.054-.569,4.609-1.279,6.052-1.568a1.659,1.659,0,0,1,1.811.787,33.694,33.694,0,0,1,1.65,7.265,1.355,1.355,0,0,1-1.178,1.458l-.016,0-7.942,1.412a1.532,1.532,0,0,1-1.792-.958l-1.946-6.521a.837.837,0,0,1,.082-.655,1.127,1.127,0,0,1,.705-.521Z" transform="translate(-2840.499 -2484.416)" fill="#fff"/>
          <path id="Trazado_101496" data-name="Trazado 101496" d="M2881.917,2598.369c1.644-.427,5.2-1.474,6.908-1.818a1.563,1.563,0,0,1,1.736.773,27.426,27.426,0,0,1,1.342,5.878,1.342,1.342,0,0,1-1.168,1.468l-6.347,1.129a1.489,1.489,0,0,1-1.729-.949l-1.555-5.211A1.047,1.047,0,0,1,2881.917,2598.369Z" transform="translate(-2855.452 -2497.785)" fill="#fff" opacity="0.6"/>
          <g id="Grupo_54070" data-name="Grupo 54070" transform="translate(41.978 93.135)" opacity="0.6">
            <path id="Trazado_101497" data-name="Trazado 101497" d="M2437.741,2551.061a.942.942,0,0,0-.738,1.407l.654,1.377a1.815,1.815,0,0,0,1.867.951l38.621-7.252a1.292,1.292,0,0,0,1.027-1.538l-.075-.358a1.4,1.4,0,0,0-1.577-1.081Z" transform="translate(-2436.885 -2544.55)" fill="#fff"/>
          </g>
          <path id="Trazado_101498" data-name="Trazado 101498" d="M2895.811,2563.067h0a1.238,1.238,0,0,1,1.764.142l2.09,2.51a.4.4,0,0,0,.692-.161l2.257-9.363a.44.44,0,0,1,.863.031,17.344,17.344,0,0,1-2.733,12.8s-2.5-.468-5.141-4.228A1.3,1.3,0,0,1,2895.811,2563.067Z" transform="translate(-2868.813 -2461.503)" fill="#fd0"/>
        </g>
        <path id="Trazado_101499" data-name="Trazado 101499" d="M2830.743,1574.174l-8.147.528-1.814-7.268a3.161,3.161,0,0,1,1.711-3.627,7.282,7.282,0,0,1,6.548.3C2834.6,1566.825,2830.743,1574.174,2830.743,1574.174Zm-2.624-5.885a2.028,2.028,0,1,0-1.695,2.314A2.027,2.027,0,0,0,2828.119,1568.289Z" transform="translate(-2784.249 -1563.175)" fill="url(#linear-gradient-2)"/>
        <g id="Grupo_54072" data-name="Grupo 54072" transform="translate(37.368 0.765)">
          <path id="Trazado_101500" data-name="Trazado 101500" d="M2870.238,1578.013a.4.4,0,0,0,.293-.488l-.289-1.158a.4.4,0,0,0-.781.195l.289,1.158a.4.4,0,0,0,.489.293Zm-.566-2.268a.4.4,0,0,0,.294-.488l-.22-.879a2.417,2.417,0,0,1,1.3-2.768,5.488,5.488,0,0,1,2.634-.518.4.4,0,0,0,.04-.8,6.292,6.292,0,0,0-3.017.594,3.225,3.225,0,0,0-1.743,3.692l.219.879a.4.4,0,0,0,.488.293Z" transform="translate(-2868.868 -1570.278)" fill="#bdd0fb"/>
        </g>
        <path id="Trazado_101501" data-name="Trazado 101501" d="M2722.583,1652.182l-.573-3.706a2.288,2.288,0,0,1,1.99-2.622l25.69-3.072a2.227,2.227,0,0,1,2.44,1.739l.763,3.528Z" transform="translate(-2694.47 -1634.196)" fill="url(#linear-gradient-3)"/>
        <path id="Trazado_101502" data-name="Trazado 101502" d="M2919.912,1670.758a.234.234,0,0,1-.069-.463l1.1-.17a.231.231,0,0,1,.266.2.233.233,0,0,1-.2.267l-1.1.17Z" transform="translate(-2884.072 -1658.607)" fill="#bdd0fb"/>
        <path id="Trazado_101503" data-name="Trazado 101503" d="M2939.07,1676.83a.4.4,0,0,1-.318-.333l-.231-1.5a2.332,2.332,0,0,1,1.949-2.661l4.041-.624a.4.4,0,0,1,.123.8l-4.041.624a1.529,1.529,0,0,0-1.276,1.742l.232,1.5a.4.4,0,0,1-.478.456Z" transform="translate(-2909.863 -1660.021)" fill="#bdd0fb"/>
        <path id="Trazado_101504" data-name="Trazado 101504" d="M2630.62,1671.562l44.687-6.9a3.342,3.342,0,0,1,3.678,2.237l.072.213a2.87,2.87,0,0,1-2.282,3.752l-45.846,7.081a1.867,1.867,0,0,1-2.141-1.648l-.218-2.067A2.437,2.437,0,0,1,2630.62,1671.562Z" transform="translate(-2610.724 -1653.696)" fill="url(#linear-gradient-4)"/>
      </g>
      <g id="Grupo_54114" data-name="Grupo 54114" transform="translate(115.362 124.421)">
        <g id="Grupo_53877" data-name="Grupo 53877" transform="translate(0)">
          <rect id="Rect치ngulo_5185" data-name="Rect치ngulo 5185" width="193.628" height="17.763" transform="translate(9.234 109.428)" fill="#636363"/>
          <rect id="Rect치ngulo_5186" data-name="Rect치ngulo 5186" width="5.685" height="22.027" transform="translate(4.972 109.428)" fill="#c75c00"/>
          <path id="Trazado_100920" data-name="Trazado 100920" d="M356.741,932.479c0-4.233-4.472-7.779-9.323-7.779H164.7c-4.851,0-8.693,3.545-8.693,7.779v96.292c0,4.233,3.845,7.842,8.693,7.842H347.418c4.851,0,9.323-3.609,9.323-7.842Z" transform="translate(-156.01 -924.7)" fill="#e8e8e8"/>
          <path id="Trazado_100921" data-name="Trazado 100921" d="M362.657,947.81c0-3.874-3.339-7.04-7.914-7.04H182.374c-4.575,0-9.084,3.166-9.084,7.04v88.022c0,3.874,4.509,7.615,9.084,7.615H354.743a7.851,7.851,0,0,0,7.914-7.615Z" transform="translate(-168.321 -936.149)" fill="#0a9574"/>
          <path id="Trazado_100922" data-name="Trazado 100922" d="M920.157,1100.344l-12-37.02a2.19,2.19,0,0,0-2.145-1.484H857.76v87.755H923Z" transform="translate(-655.965 -1022.404)" fill="#e8e8e8"/>
          <path id="Trazado_100923" data-name="Trazado 100923" d="M954.993,1318.667a4.03,4.03,0,0,0-2.332-.639l-50.28.969-.222,14.286,50.237,1.233c1.84,0,3.436-.888,3.436-2.134v-12.1A1.8,1.8,0,0,0,954.993,1318.667Z" transform="translate(-687.598 -1204.923)" fill="#636363"/>
          <g id="Grupo_53869" data-name="Grupo 53869" transform="translate(214.754 44.543)">
            <path id="Trazado_100924" data-name="Trazado 100924" d="M942.9,1110.982l-7.255-28.779a2.367,2.367,0,0,0-2.185-1.823H905.082a2.468,2.468,0,0,0-2.254,2.5l.681,23.042a2.269,2.269,0,0,0,1.895,2.174l34.947,5.653a2.249,2.249,0,0,0,2.545-2.772Z" transform="translate(-902.827 -1080.156)" fill="#732be5"/>
            <path id="Trazado_100925" data-name="Trazado 100925" d="M1031.539,1079.6l-.371.06a2.254,2.254,0,0,0-1.808,2.809l7.908,29.409a2.257,2.257,0,0,0,2.594,1.63l2.5-.468Z" transform="translate(-992.919 -1079.6)" fill="#732be5"/>
          </g>
          <path id="Trazado_100926" data-name="Trazado 100926" d="M917.864,1205.888a2.131,2.131,0,0,1-2.131,2.131h-8.883a2.132,2.132,0,0,1-2.131-2.131v-1.067a2.132,2.132,0,0,1,2.131-2.131h8.883a2.132,2.132,0,0,1,2.131,2.131Z" transform="translate(-689.421 -1122.751)" fill="#c75c00"/>
          <path id="Trazado_100927" data-name="Trazado 100927" d="M861.124,971.711a3.229,3.229,0,0,0-2.274.7,2.922,2.922,0,0,0-1.09,1.973v23.246h29.423S885.6,973.5,861.124,971.711Z" transform="translate(-655.965 -958.187)" fill="#afafaf"/>
          <g id="Grupo_53871" data-name="Grupo 53871" transform="translate(209.099 105.902)">
            <g id="Grupo_53870" data-name="Grupo 53870" transform="translate(0)">
              <ellipse id="Elipse_4066" data-name="Elipse 4066" cx="22.864" cy="22.864" rx="22.864" ry="22.864" fill="#732be5"/>
              <ellipse id="Elipse_4067" data-name="Elipse 4067" cx="18.567" cy="18.567" rx="18.567" ry="18.567" transform="translate(2.367 6.427) rotate(-6.264)" fill="#afafaf"/>
              <path id="Trazado_100928" data-name="Trazado 100928" d="M958.618,1337.638a.338.338,0,0,1-.138-.029.357.357,0,0,1-.19-.466,16.09,16.09,0,0,0-22.668-20.3.355.355,0,0,1-.348-.618,16.8,16.8,0,0,1,23.672,21.2A.354.354,0,0,1,958.618,1337.638Z" transform="translate(-920.16 -1308.02)" fill="#f98521"/>
            </g>
            <ellipse id="Elipse_4068" data-name="Elipse 4068" cx="8.515" cy="8.515" rx="8.515" ry="8.515" transform="translate(12.254 28.55) rotate(-73.154)" fill="#732be5"/>
          </g>
          <g id="Grupo_53873" data-name="Grupo 53873" transform="translate(68.134 105.902)">
            <g id="Grupo_53872" data-name="Grupo 53872">
              <ellipse id="Elipse_4069" data-name="Elipse 4069" cx="22.864" cy="22.864" rx="22.864" ry="22.864" fill="#7913ea"/>
              <ellipse id="Elipse_4070" data-name="Elipse 4070" cx="18.568" cy="18.568" rx="18.568" ry="18.568" transform="translate(2.172 6.699) rotate(-7.019)" fill="#afafaf"/>
              <path id="Trazado_100929" data-name="Trazado 100929" d="M468.411,1337.638a.336.336,0,0,1-.138-.029.357.357,0,0,1-.19-.466,16.091,16.091,0,0,0-22.671-20.3.355.355,0,1,1-.348-.618,16.8,16.8,0,0,1,23.672,21.2A.347.347,0,0,1,468.411,1337.638Z" transform="translate(-429.95 -1308.02)" fill="#f98521"/>
            </g>
            <circle id="Elipse_4071" data-name="Elipse 4071" cx="8.515" cy="8.515" r="8.515" transform="translate(10.819 22.863) rotate(-45)" fill="#732be5"/>
          </g>
          <g id="Grupo_53875" data-name="Grupo 53875" transform="translate(15.833 105.902)">
            <g id="Grupo_53874" data-name="Grupo 53874">
              <ellipse id="Elipse_4072" data-name="Elipse 4072" cx="22.864" cy="22.864" rx="22.864" ry="22.864" fill="#732be5"/>
              <ellipse id="Elipse_4073" data-name="Elipse 4073" cx="18.567" cy="18.567" rx="18.567" ry="18.567" transform="translate(2.373 6.423) rotate(-6.264)" fill="#afafaf"/>
              <path id="Trazado_100930" data-name="Trazado 100930" d="M286.528,1337.638a.336.336,0,0,1-.138-.029.357.357,0,0,1-.19-.466,16.09,16.09,0,0,0-22.668-20.3.355.355,0,0,1-.348-.618,16.8,16.8,0,0,1,23.672,21.2A.351.351,0,0,1,286.528,1337.638Z" transform="translate(-248.07 -1308.02)" fill="#f98521"/>
            </g>
            <ellipse id="Elipse_4074" data-name="Elipse 4074" cx="8.515" cy="8.515" rx="8.515" ry="8.515" transform="translate(12.251 28.551) rotate(-73.154)" fill="#732be5"/>
          </g>
          <g id="Grupo_53876" data-name="Grupo 53876" transform="translate(256.862 100.189)">
            <path id="Trazado_100931" data-name="Trazado 100931" d="M1059.563,1283.29a2.257,2.257,0,0,1-2.257,2.257h-5.789a2.257,2.257,0,0,1-2.257-2.257v-7.923a2.258,2.258,0,0,1,2.257-2.257h5.789a2.257,2.257,0,0,1,2.257,2.257Z" transform="translate(-1049.26 -1273.11)" fill="#f98521"/>
            <path id="Trazado_100932" data-name="Trazado 100932" d="M1053.888,1273.12v11.724h-1.855a3.1,3.1,0,0,1-2.763-2.645v-7.425c0-1.245,1.519-1.654,2.763-1.654Z" transform="translate(-1049.267 -1273.117)" fill="#fff" opacity="0.8"/>
          </g>
          <path id="Trazado_100933" data-name="Trazado 100933" d="M870.466,1132.07a.356.356,0,0,1-.357-.356v-52.226a.357.357,0,1,1,.713,0v52.23A.354.354,0,0,1,870.466,1132.07Z" transform="translate(-664.764 -1034.723)" fill="#f98521"/>
          <path id="Trazado_100934" data-name="Trazado 100934" d="M887.6,1005.673a.358.358,0,0,1-.336-.239c-1.964-5.691-5.829-13.188-13.087-16.6a15.98,15.98,0,0,0-7.856-1.639.355.355,0,1,1-.083-.7,16.426,16.426,0,0,1,8.241,1.7c7.482,3.517,11.448,11.192,13.455,17.012a.355.355,0,0,1-.219.452A.386.386,0,0,1,887.6,1005.673Z" transform="translate(-661.78 -968.693)" fill="#fff"/>
        </g>
        <g id="Grupo_53879" data-name="Grupo 53879" transform="translate(8.017 45.874)">
          <path id="Trazado_100935" data-name="Trazado 100935" d="M267.207,1142.178a8.884,8.884,0,0,0,9.052-8.883V1093.77a9.47,9.47,0,0,0-9.366-9.475c-15.586-.17-47.729-.178-74.029,2.039a7.119,7.119,0,0,0-6.51,6.844l-2.459,38.214a9.049,9.049,0,0,0,8.871,9.375Z" transform="translate(-183.889 -1084.229)" fill="#02dba8"/>
          <path id="Trazado_100936" data-name="Trazado 100936" d="M426.571,1124.9c.066,3.365-.035,8.7-.115,12.147a3.042,3.042,0,0,1-3.4,2.95l-12.825-1.5a3.045,3.045,0,0,1-2.657-3.476l1.573-10.5a3.044,3.044,0,0,1,3.011-2.594h11.367A3.047,3.047,0,0,1,426.571,1124.9Z" transform="translate(-343.228 -1111.081)" fill="#fff" opacity="0.84"/>
          <path id="Trazado_100937" data-name="Trazado 100937" d="M324.03,1118.337l-10.7,1.153a2.413,2.413,0,0,1-2.666-2.574L313,1085.089c4.486-.141,8.909-.247,13.179-.319v31.169A2.407,2.407,0,0,1,324.03,1118.337Z" transform="translate(-274.204 -1084.614)" fill="#fff" opacity="0.37"/>
          <path id="Trazado_100938" data-name="Trazado 100938" d="M336.583,1113.071a1.075,1.075,0,0,1-1.073,1.015.457.457,0,0,1-.063,0,1.077,1.077,0,0,1-1.012-1.136l1.613-27.778c.725-.017,1.441-.035,2.16-.049Z" transform="translate(-291.143 -1084.864)" fill="#fff"/>
          <g id="Grupo_53878" data-name="Grupo 53878" transform="translate(69.178 14.017)">
            <path id="Trazado_100939" data-name="Trazado 100939" d="M452.205,1143.694a.363.363,0,0,0,.359-.336l.555-8.751a.358.358,0,0,0-.336-.38.35.35,0,0,0-.38.337l-.555,8.75a.358.358,0,0,0,.336.38Z" transform="translate(-443.972 -1133.866)" fill="#732be5"/>
            <path id="Trazado_100940" data-name="Trazado 100940" d="M448.229,1143.275a.359.359,0,0,0,.359-.348l.291-8.917a.36.36,0,0,0-.348-.371.342.342,0,0,0-.371.348l-.29,8.917a.359.359,0,0,0,.348.371Z" transform="translate(-441.138 -1133.447)" fill="#732be5"/>
            <path id="Trazado_100941" data-name="Trazado 100941" d="M442.891,1143.284a.359.359,0,0,1-.342-.374c.141-3,.414-8.707.417-8.9a.359.359,0,0,1,.719,0c0,.146-.348,7.468-.42,8.934a.358.358,0,0,1-.359.342A.023.023,0,0,0,442.891,1143.284Zm.069-9.277h0Z" transform="translate(-437.347 -1133.456)" fill="#732be5"/>
            <path id="Trazado_100942" data-name="Trazado 100942" d="M433.7,1143.167a.717.717,0,0,0,.716-.693c.3-8.638.25-8.834.216-8.963a.718.718,0,0,0-1.4.285c.023.52-.138,5.547-.244,8.63a.717.717,0,0,0,.69.742Z" transform="translate(-430.536 -1132.98)" fill="#732be5"/>
            <path id="Trazado_100943" data-name="Trazado 100943" d="M429.179,1143.689a.359.359,0,0,0,.359-.359v-8.75a.359.359,0,0,0-.719,0v8.75A.361.361,0,0,0,429.179,1143.689Z" transform="translate(-427.566 -1133.862)" fill="#732be5"/>
            <path id="Trazado_100944" data-name="Trazado 100944" d="M424.819,1143.642a.36.36,0,0,0,.359-.351c.069-3.04.23-8.006.374-8.6a.352.352,0,0,0-.014-.371.358.358,0,0,0-.5-.1c-.2.13-.382.25-.581,9.061a.362.362,0,0,0,.351.368Z" transform="translate(-424.46 -1133.815)" fill="#732be5"/>
            <path id="Trazado_100945" data-name="Trazado 100945" d="M458.034,1143.6a.717.717,0,0,0,.716-.682l.477-9.187a.717.717,0,0,0-.679-.753.726.726,0,0,0-.753.678l-.477,9.188a.717.717,0,0,0,.679.753A.148.148,0,0,0,458.034,1143.6Z" transform="translate(-447.868 -1132.975)" fill="#732be5"/>
          </g>
        </g>
        <g id="Grupo_53881" data-name="Grupo 53881" transform="translate(99.15 49.189)">
          <path id="Trazado_100946" data-name="Trazado 100946" d="M584.126,1153.711a8.884,8.884,0,0,0,9.052-8.883V1105.3a9.47,9.47,0,0,0-9.366-9.475c-15.586-.17-47.729-.178-74.029,2.039a7.118,7.118,0,0,0-6.51,6.844l-2.459,38.214a9.049,9.049,0,0,0,8.871,9.374Z" transform="translate(-500.809 -1095.759)" fill="#02dba8"/>
          <path id="Trazado_100947" data-name="Trazado 100947" d="M743.491,1136.439c.066,3.364-.034,8.7-.115,12.146a3.042,3.042,0,0,1-3.4,2.951l-12.825-1.5a3.046,3.046,0,0,1-2.657-3.477l1.573-10.5a3.047,3.047,0,0,1,3.011-2.594h11.367A3.042,3.042,0,0,1,743.491,1136.439Z" transform="translate(-660.148 -1122.618)" fill="#fff" opacity="0.84"/>
          <path id="Trazado_100948" data-name="Trazado 100948" d="M640.95,1129.867l-10.7,1.153a2.413,2.413,0,0,1-2.666-2.574l2.338-31.827c4.486-.141,8.909-.247,13.179-.319v31.169A2.407,2.407,0,0,1,640.95,1129.867Z" transform="translate(-591.124 -1096.144)" fill="#fff" opacity="0.37"/>
          <path id="Trazado_100949" data-name="Trazado 100949" d="M653.5,1124.6a1.075,1.075,0,0,1-1.073,1.015.456.456,0,0,1-.063,0,1.077,1.077,0,0,1-1.012-1.136l1.613-27.778c.725-.018,1.44-.035,2.16-.049Z" transform="translate(-608.063 -1096.394)" fill="#fff"/>
          <g id="Grupo_53880" data-name="Grupo 53880" transform="translate(69.178 14.017)">
            <path id="Trazado_100950" data-name="Trazado 100950" d="M769.125,1155.223a.363.363,0,0,0,.359-.336l.555-8.75a.357.357,0,0,0-.336-.379.349.349,0,0,0-.38.336l-.555,8.751a.357.357,0,0,0,.336.379Z" transform="translate(-760.892 -1145.396)" fill="#732be5"/>
            <path id="Trazado_100951" data-name="Trazado 100951" d="M765.149,1154.8a.36.36,0,0,0,.359-.348l.29-8.917a.36.36,0,0,0-.348-.371.341.341,0,0,0-.371.348l-.29,8.917a.36.36,0,0,0,.348.371Z" transform="translate(-758.058 -1144.977)" fill="#732be5"/>
            <path id="Trazado_100952" data-name="Trazado 100952" d="M759.811,1154.813a.36.36,0,0,1-.342-.374c.141-3,.414-8.707.417-8.9a.359.359,0,0,1,.719,0c0,.147-.348,7.468-.42,8.935a.358.358,0,0,1-.359.342S759.817,1154.813,759.811,1154.813Zm.069-9.274h0Z" transform="translate(-754.267 -1144.986)" fill="#732be5"/>
            <path id="Trazado_100953" data-name="Trazado 100953" d="M750.625,1154.7a.717.717,0,0,0,.716-.693c.3-8.638.25-8.834.216-8.964a.718.718,0,0,0-1.4.285c.023.52-.138,5.547-.244,8.629a.717.717,0,0,0,.69.742Z" transform="translate(-747.456 -1144.51)" fill="#732be5"/>
            <path id="Trazado_100954" data-name="Trazado 100954" d="M746.1,1155.219a.359.359,0,0,0,.36-.36v-8.75a.359.359,0,0,0-.719,0v8.75A.361.361,0,0,0,746.1,1155.219Z" transform="translate(-744.486 -1145.392)" fill="#732be5"/>
            <path id="Trazado_100955" data-name="Trazado 100955" d="M741.739,1155.172a.359.359,0,0,0,.359-.35c.069-3.039.23-8.005.374-8.6a.351.351,0,0,0-.014-.37.358.358,0,0,0-.5-.1c-.2.13-.383.25-.581,9.061a.361.361,0,0,0,.351.368Z" transform="translate(-741.38 -1145.345)" fill="#732be5"/>
            <path id="Trazado_100956" data-name="Trazado 100956" d="M774.953,1155.129a.717.717,0,0,0,.716-.681l.478-9.188a.717.717,0,0,0-.679-.753.726.726,0,0,0-.753.679l-.477,9.187a.718.718,0,0,0,.679.754A.16.16,0,0,0,774.953,1155.129Z" transform="translate(-764.788 -1144.505)" fill="#732be5"/>
          </g>
        </g>
        <g id="Grupo_53883" data-name="Grupo 53883" transform="translate(12.042 6.194)">
          <path id="Trazado_100957" data-name="Trazado 100957" d="M262.751,980.7V952.939a6.651,6.651,0,0,0-6.577-6.654c-10.944-.118-33.518-.127-51.988,1.432a5,5,0,0,0-4.572,4.8l-1.725,26.838a6.352,6.352,0,0,0,6.229,6.582l52.278.992A6.239,6.239,0,0,0,262.751,980.7Z" transform="translate(-197.885 -946.239)" fill="#02dba8"/>
          <path id="Trazado_100958" data-name="Trazado 100958" d="M368.3,974.8c.046,2.361-.023,6.111-.08,8.532a2.138,2.138,0,0,1-2.387,2.073l-9.006-1.055a2.14,2.14,0,0,1-1.866-2.442l1.1-7.376a2.141,2.141,0,0,1,2.116-1.823h7.983A2.136,2.136,0,0,1,368.3,974.8Z" transform="translate(-309.776 -965.098)" fill="#fff" opacity="0.84"/>
          <path id="Trazado_100959" data-name="Trazado 100959" d="M296.284,970.184l-7.514.811a1.7,1.7,0,0,1-1.872-1.809l1.642-22.352c3.149-.1,6.257-.173,9.254-.224V968.5A1.69,1.69,0,0,1,296.284,970.184Z" transform="translate(-261.298 -946.503)" fill="#fff" opacity="0.37"/>
          <path id="Trazado_100960" data-name="Trazado 100960" d="M305.1,966.482a.756.756,0,0,1-.753.713.218.218,0,0,1-.043,0,.754.754,0,0,1-.71-.8l1.133-19.508,1.515-.035Z" transform="translate(-273.197 -946.674)" fill="#fff"/>
          <g id="Grupo_53882" data-name="Grupo 53882" transform="translate(48.579 9.842)">
            <path id="Trazado_100961" data-name="Trazado 100961" d="M386.3,988a.25.25,0,0,0,.25-.236l.391-6.145a.253.253,0,0,0-.236-.267.246.246,0,0,0-.267.236l-.391,6.145a.253.253,0,0,0,.236.267Z" transform="translate(-380.519 -981.094)" fill="#732be5"/>
            <path id="Trazado_100962" data-name="Trazado 100962" d="M383.513,987.7a.253.253,0,0,0,.253-.244l.2-6.263a.253.253,0,0,0-.244-.262.239.239,0,0,0-.262.244l-.2,6.263a.253.253,0,0,0,.244.262Z" transform="translate(-378.532 -980.795)" fill="#732be5"/>
            <path id="Trazado_100963" data-name="Trazado 100963" d="M379.767,987.706a.25.25,0,0,1-.239-.265c.1-2.1.29-6.116.293-6.252a.253.253,0,0,1,.506,0c0,.1-.245,5.245-.293,6.275a.252.252,0,0,1-.25.241Zm.046-6.513h0Z" transform="translate(-375.874 -980.804)" fill="#732be5"/>
            <path id="Trazado_100964" data-name="Trazado 100964" d="M373.313,987.618a.5.5,0,0,0,.5-.486c.213-6.068.175-6.2.152-6.295a.5.5,0,0,0-.986.2c.017.365-.1,3.894-.173,6.059a.5.5,0,0,0,.486.52S373.307,987.618,373.313,987.618Z" transform="translate(-371.087 -980.466)" fill="#732be5"/>
            <path id="Trazado_100965" data-name="Trazado 100965" d="M370.133,987.991a.253.253,0,0,0,.253-.253v-6.145a.253.253,0,0,0-.506,0v6.145A.252.252,0,0,0,370.133,987.991Z" transform="translate(-369 -981.089)" fill="#732be5"/>
            <path id="Trazado_100966" data-name="Trazado 100966" d="M367.07,987.957a.252.252,0,0,0,.253-.247c.049-2.134.161-5.622.262-6.042a.259.259,0,0,0-.009-.262.249.249,0,0,0-.348-.072c-.138.089-.267.176-.408,6.364a.255.255,0,0,0,.247.259Z" transform="translate(-366.82 -981.054)" fill="#732be5"/>
            <path id="Trazado_100967" data-name="Trazado 100967" d="M390.392,987.926a.5.5,0,0,0,.5-.477l.336-6.453a.5.5,0,0,0-1.006-.052l-.337,6.453a.5.5,0,0,0,.477.529Z" transform="translate(-383.254 -980.466)" fill="#732be5"/>
          </g>
        </g>
        <g id="Grupo_53885" data-name="Grupo 53885" transform="translate(77.272 7.022)">
          <path id="Trazado_100968" data-name="Trazado 100968" d="M480.79,983.577V955.819c0-3.646-2.533-6.614-5.685-6.654-9.458-.118-28.969-.126-44.931,1.432a4.743,4.743,0,0,0-3.951,4.8l-1.492,26.838c-.112,3.548,2.315,6.516,5.383,6.582l45.181.992C478.315,989.88,480.79,987.068,480.79,983.577Z" transform="translate(-424.727 -949.118)" fill="#02dba8"/>
          <path id="Trazado_100969" data-name="Trazado 100969" d="M572.027,977.681c.04,2.361-.02,6.111-.069,8.532a1.96,1.96,0,0,1-2.061,2.073l-7.784-1.055a2.1,2.1,0,0,1-1.613-2.441l.955-7.376a1.96,1.96,0,0,1,1.829-1.823h6.9A2,2,0,0,1,572.027,977.681Z" transform="translate(-521.441 -967.978)" fill="#fff" opacity="0.84"/>
          <path id="Trazado_100970" data-name="Trazado 100970" d="M509.8,973.064l-6.493.811a1.58,1.58,0,0,1-1.616-1.809l1.421-22.352c2.723-.1,5.406-.173,8-.225v21.889A1.629,1.629,0,0,1,509.8,973.064Z" transform="translate(-479.555 -949.383)" fill="#fff" opacity="0.37"/>
          <path id="Trazado_100971" data-name="Trazado 100971" d="M517.4,969.362a.7.7,0,0,1-.653.713.181.181,0,0,1-.037,0,.727.727,0,0,1-.615-.8l.981-19.508,1.311-.034Z" transform="translate(-489.822 -949.554)" fill="#fff"/>
          <g id="Grupo_53884" data-name="Grupo 53884" transform="translate(41.99 9.842)">
            <path id="Trazado_100972" data-name="Trazado 100972" d="M587.584,990.877a.236.236,0,0,0,.219-.236l.336-6.145a.242.242,0,0,0-.2-.268.225.225,0,0,0-.23.236l-.337,6.145a.242.242,0,0,0,.2.268Z" transform="translate(-582.589 -983.974)" fill="#732be5"/>
            <path id="Trazado_100973" data-name="Trazado 100973" d="M585.175,990.578a.236.236,0,0,0,.218-.245l.176-6.263a.244.244,0,0,0-.21-.262c-.138-.009-.222.1-.224.245l-.175,6.263a.245.245,0,0,0,.21.262Z" transform="translate(-580.874 -983.675)" fill="#732be5"/>
            <path id="Trazado_100974" data-name="Trazado 100974" d="M581.927,990.576a.239.239,0,0,1-.207-.264c.086-2.1.25-6.116.253-6.252a.221.221,0,1,1,.437,0c0,.1-.213,5.245-.253,6.274a.236.236,0,0,1-.218.242A.021.021,0,0,1,581.927,990.576Zm.043-6.513h0Z" transform="translate(-578.565 -983.676)" fill="#732be5"/>
            <path id="Trazado_100975" data-name="Trazado 100975" d="M576.346,990.5a.47.47,0,0,0,.434-.486c.184-6.068.152-6.2.129-6.295a.431.431,0,0,0-.535-.354.508.508,0,0,0-.316.552c.014.365-.083,3.893-.15,6.059a.477.477,0,0,0,.42.521A.042.042,0,0,0,576.346,990.5Z" transform="translate(-574.425 -983.346)" fill="#732be5"/>
            <path id="Trazado_100976" data-name="Trazado 100976" d="M573.609,990.871a.237.237,0,0,0,.219-.253v-6.145a.221.221,0,1,0-.437,0v6.145A.239.239,0,0,0,573.609,990.871Z" transform="translate(-572.631 -983.969)" fill="#732be5"/>
            <path id="Trazado_100977" data-name="Trazado 100977" d="M570.966,990.837a.237.237,0,0,0,.218-.247c.043-2.134.138-5.622.227-6.042a.29.29,0,0,0-.009-.262.2.2,0,0,0-.3-.072c-.118.089-.23.175-.351,6.364a.241.241,0,0,0,.213.259Z" transform="translate(-570.75 -983.935)" fill="#732be5"/>
            <path id="Trazado_100978" data-name="Trazado 100978" d="M591.123,990.806a.469.469,0,0,0,.434-.477l.29-6.453a.482.482,0,0,0-.411-.529.468.468,0,0,0-.457.478l-.291,6.453a.483.483,0,0,0,.411.529Z" transform="translate(-584.955 -983.346)" fill="#732be5"/>
          </g>
        </g>
        <g id="Grupo_53887" data-name="Grupo 53887" transform="translate(133.596 8.733)">
          <path id="Trazado_100979" data-name="Trazado 100979" d="M676.661,989.527V961.769c0-3.646-2.533-6.614-5.685-6.654-9.458-.118-28.969-.126-44.931,1.432a4.743,4.743,0,0,0-3.951,4.8L620.6,988.19c-.112,3.549,2.315,6.516,5.383,6.582l45.181.992C674.182,995.833,676.661,993.021,676.661,989.527Z" transform="translate(-620.597 -955.069)" fill="#02dba8"/>
          <path id="Trazado_100980" data-name="Trazado 100980" d="M767.9,983.641c.04,2.361-.02,6.11-.069,8.532a1.96,1.96,0,0,1-2.062,2.073l-7.784-1.055a2.1,2.1,0,0,1-1.613-2.441l.955-7.376a1.959,1.959,0,0,1,1.829-1.823h6.9A2,2,0,0,1,767.9,983.641Z" transform="translate(-717.311 -973.935)" fill="#fff" opacity="0.84"/>
          <path id="Trazado_100981" data-name="Trazado 100981" d="M705.659,979.024l-6.493.811a1.58,1.58,0,0,1-1.616-1.808l1.421-22.352c2.723-.1,5.406-.172,8-.224v21.889A1.626,1.626,0,0,1,705.659,979.024Z" transform="translate(-675.418 -955.34)" fill="#fff" opacity="0.37"/>
          <path id="Trazado_100982" data-name="Trazado 100982" d="M713.273,975.312a.7.7,0,0,1-.653.713.171.171,0,0,1-.037,0,.727.727,0,0,1-.615-.8l.981-19.508,1.311-.035Z" transform="translate(-685.692 -955.504)" fill="#fff"/>
          <g id="Grupo_53886" data-name="Grupo 53886" transform="translate(41.987 9.845)">
            <path id="Trazado_100983" data-name="Trazado 100983" d="M783.439,996.826h.014a.236.236,0,0,0,.219-.236l.336-6.145a.241.241,0,0,0-.2-.267.225.225,0,0,0-.23.236l-.336,6.145A.238.238,0,0,0,783.439,996.826Z" transform="translate(-778.455 -989.927)" fill="#732be5"/>
            <path id="Trazado_100984" data-name="Trazado 100984" d="M781.045,996.528a.236.236,0,0,0,.218-.245l.175-6.263a.244.244,0,0,0-.21-.262c-.138-.009-.221.1-.224.244l-.175,6.263a.244.244,0,0,0,.21.262Z" transform="translate(-776.741 -989.628)" fill="#732be5"/>
            <path id="Trazado_100985" data-name="Trazado 100985" d="M777.8,996.536a.239.239,0,0,1-.207-.264c.086-2.105.25-6.117.253-6.252a.221.221,0,1,1,.437,0c0,.1-.213,5.245-.253,6.275a.236.236,0,0,1-.219.242A.02.02,0,0,0,777.8,996.536Zm.04-6.513h0Z" transform="translate(-774.432 -989.636)" fill="#732be5"/>
            <path id="Trazado_100986" data-name="Trazado 100986" d="M772.192,996.458h.014a.47.47,0,0,0,.434-.486c.184-6.068.152-6.2.129-6.295a.431.431,0,0,0-.535-.354.508.508,0,0,0-.316.552c.014.365-.083,3.893-.149,6.059A.487.487,0,0,0,772.192,996.458Z" transform="translate(-770.286 -989.306)" fill="#732be5"/>
            <path id="Trazado_100987" data-name="Trazado 100987" d="M769.468,996.821a.237.237,0,0,0,.219-.253v-6.145a.221.221,0,1,0-.437,0v6.145A.241.241,0,0,0,769.468,996.821Z" transform="translate(-768.491 -989.921)" fill="#732be5"/>
            <path id="Trazado_100988" data-name="Trazado 100988" d="M766.826,996.787a.237.237,0,0,0,.218-.247c.043-2.134.138-5.622.227-6.042a.29.29,0,0,0-.009-.261.2.2,0,0,0-.3-.072c-.118.089-.23.175-.351,6.364a.241.241,0,0,0,.213.259Z" transform="translate(-766.61 -989.888)" fill="#732be5"/>
            <path id="Trazado_100989" data-name="Trazado 100989" d="M786.959,996.766h.023a.47.47,0,0,0,.434-.477l.29-6.453a.482.482,0,0,0-.411-.529.468.468,0,0,0-.457.477l-.29,6.453A.483.483,0,0,0,786.959,996.766Z" transform="translate(-780.814 -989.306)" fill="#732be5"/>
          </g>
        </g>
      </g>
      <path id="Trazado_101505" data-name="Trazado 101505" d="M973.205,816.466a.942.942,0,0,0,.892-1.243q-.181-.538-.375-1.072a.942.942,0,1,0-1.77.642q.186.514.361,1.031A.942.942,0,0,0,973.205,816.466Zm-1.7-4.36a.942.942,0,0,0,.86-1.325q-.231-.518-.472-1.033a.942.942,0,0,0-1.7.8q.234.5.457,1A.942.942,0,0,0,971.5,812.106Zm-2.085-4.19a.942.942,0,0,0,.824-1.4q-.273-.495-.556-.985a.942.942,0,0,0-1.631.942q.274.475.538.953A.942.942,0,0,0,969.419,807.916Zm-2.42-4a.942.942,0,0,0,.786-1.46q-.311-.471-.63-.938a.942.942,0,1,0-1.554,1.064q.31.453.611.91A.941.941,0,0,0,967,803.914Zm-2.715-3.81a.942.942,0,0,0,.746-1.515q-.343-.447-.694-.89a.942.942,0,1,0-1.476,1.171q.342.43.675.866A.94.94,0,0,0,964.284,800.1Zm-2.971-3.615a.942.942,0,0,0,.707-1.563q-.371-.423-.75-.842a.942.942,0,0,0-1.4,1.264q.369.408.731.82A.939.939,0,0,0,961.313,796.489Zm-3.194-3.421a.942.942,0,0,0,.669-1.6q-.4-.4-.8-.794a.942.942,0,1,0-1.32,1.344q.393.386.78.776A.94.94,0,0,0,958.12,793.069Zm-3.387-3.229a.942.942,0,0,0,.631-1.641q-.417-.377-.841-.748a.942.942,0,1,0-1.243,1.415q.414.364.823.732A.938.938,0,0,0,954.732,789.839Zm-3.557-3.041a.942.942,0,0,0,.594-1.673q-.437-.354-.878-.7a.942.942,0,1,0-1.169,1.477q.432.342.86.689A.938.938,0,0,0,951.175,786.8Zm-3.713-2.861a.942.942,0,0,0,.557-1.7q-.455-.333-.913-.661a.942.942,0,0,0-1.1,1.532q.451.322.9.648A.938.938,0,0,0,947.462,783.937Zm-3.847-2.679a.942.942,0,0,0,.521-1.727q-.469-.311-.941-.616a.942.942,0,0,0-1.023,1.581q.464.3.925.605A.938.938,0,0,0,943.615,781.258Zm-3.963-2.5a.942.942,0,0,0,.485-1.75q-.482-.289-.967-.572a.942.942,0,1,0-.951,1.626q.476.278.949.562A.938.938,0,0,0,939.652,778.762Zm-4.066-2.314a.942.942,0,0,0,.449-1.77q-.493-.267-.989-.528a.942.942,0,0,0-.878,1.666q.487.256.972.518A.938.938,0,0,0,935.586,776.448Zm-4.159-2.13a.942.942,0,0,0,.411-1.789q-.5-.244-1.009-.483a.942.942,0,1,0-.8,1.7q.5.235.992.475A.937.937,0,0,0,931.428,774.318Zm-4.252-1.948a.942.942,0,0,0,.374-1.807q-.517-.223-1.034-.44a.942.942,0,0,0-.728,1.737q.508.213,1.016.432A.941.941,0,0,0,927.176,772.37Zm-4.338-1.759a.942.942,0,0,0,.334-1.822q-.526-.2-1.053-.393a.942.942,0,1,0-.649,1.768q.517.19,1.034.386A.942.942,0,0,0,922.838,770.611Zm-4.414-1.559a.942.942,0,0,0,.292-1.837q-.535-.175-1.07-.343a.942.942,0,1,0-.565,1.8q.525.165,1.051.337A.944.944,0,0,0,918.424,769.051Zm-4.483-1.347a.942.942,0,0,0,.248-1.85q-.544-.149-1.087-.29a.942.942,0,0,0-.474,1.823q.532.138,1.065.284A.944.944,0,0,0,913.941,767.7Zm-4.546-1.117a.942.942,0,0,0,.2-1.862q-.553-.12-1.1-.232a.942.942,0,1,0-.375,1.846q.537.109,1.077.227A.943.943,0,0,0,909.4,766.587Zm-24.322-.7a.942.942,0,0,0,.206-.023q.525-.118,1.062-.22a.942.942,0,1,0-.355-1.85q-.564.108-1.117.232a.942.942,0,0,0,.2,1.861Zm19.721-.159a.942.942,0,0,0,.145-1.872q-.56-.088-1.115-.167a.942.942,0,0,0-.264,1.865q.542.077,1.088.163A.958.958,0,0,0,904.8,765.724Zm-4.645-.577a.942.942,0,0,0,.084-1.88q-.566-.051-1.126-.092a.942.942,0,1,0-.137,1.878q.544.04,1.094.089C900.094,765.146,900.122,765.147,900.151,765.147Zm-10.459,0c.032,0,.064,0,.1,0q.538-.055,1.085-.1a.942.942,0,0,0-.145-1.878q-.57.044-1.132.1a.942.942,0,0,0,.095,1.879Zm5.785-.243a.942.942,0,0,0,.013-1.883q-.384-.005-.765-.005h-.367a.942.942,0,0,0,.006,1.883h.361q.368,0,.739.005Z" transform="translate(-662.374 -728.189)" fill="#fff"/>
      <g id="Grupo_54115" data-name="Grupo 54115" transform="translate(298.86 51.793)">
        <g id="Grupo_53896" data-name="Grupo 53896" transform="translate(0 0)">
          <g id="Grupo_53892" data-name="Grupo 53892" transform="translate(0.362 0.221)">
            <ellipse id="Elipse_4077" data-name="Elipse 4077" cx="12.466" cy="12.466" rx="12.466" ry="12.466" transform="translate(0.001)" fill="#fd0"/>
            <path id="Trazado_100999" data-name="Trazado 100999" d="M730.365,1102.523h24.91s.992,6.919-10.134,25.872a2.723,2.723,0,0,1-4.664.009C729.353,1109.45,730.365,1102.523,730.365,1102.523Z" transform="translate(-730.341 -1090.725)" fill="#fd0"/>
          </g>
          <g id="Grupo_53893" data-name="Grupo 53893">
            <path id="Trazado_101000" data-name="Trazado 101000" d="M738.69,993.142v.07h0a3.091,3.091,0,0,0,2.643-1.526c6.5-11.078,8.887-18.083,9.74-22a12.563,12.563,0,0,0,.427-2.692,6.259,6.259,0,0,0,.011-1.359l-.033-.2a12.828,12.828,0,0,0-25.6.127,5.614,5.614,0,0,0-.021.687v.046a12.851,12.851,0,0,0,.514,3.6c.883,3.916,3.281,10.852,9.674,21.743A3.02,3.02,0,0,0,738.69,993.142ZM750.811,966.1c0,.187,0,.454-.035.856h0a11.76,11.76,0,0,1-.406,2.541l0,.014c-.841,3.866-3.2,10.784-9.659,21.787a2.343,2.343,0,0,1-2.017,1.148l0,.361v-.362a2.457,2.457,0,0,1-2.022-1.158c-6.352-10.822-8.723-17.7-9.593-21.563l-.006-.022a12.066,12.066,0,0,1-.416-3.412l.073-.051v0a4.772,4.772,0,0,0-.055-.607l-.034-.021a12.089,12.089,0,0,1,24.141.126l.01.368Z" transform="translate(-725.855 -953.525)" fill="#fff" opacity="0.8"/>
          </g>
          <circle id="Elipse_4078" data-name="Elipse 4078" cx="7.198" cy="7.198" r="7.198" transform="translate(12.789 22.827) rotate(-135)" fill="#fff"/>
          <g id="Grupo_53895" data-name="Grupo 53895" transform="translate(5.189 5.046)">
            <g id="Grupo_53894" data-name="Grupo 53894">
              <path id="Trazado_101001" data-name="Trazado 101001" d="M799.046,1031.286a7.6,7.6,0,1,0-7.6-7.6A7.609,7.609,0,0,0,799.046,1031.286Zm0-14.4a6.8,6.8,0,1,1-6.8,6.8A6.8,6.8,0,0,1,799.046,1016.889Z" transform="translate(-791.445 -1016.085)" fill="#4d4720"/>
            </g>
          </g>
        </g>
        <g id="Grupo_53897" data-name="Grupo 53897" transform="translate(12.301 2.247)">
          <path id="Trazado_101002" data-name="Trazado 101002" d="M806.838,984.285a.121.121,0,0,0,.079-.212,11.171,11.171,0,0,0-7.275-2.693.121.121,0,1,0,0,.241,10.929,10.929,0,0,1,7.118,2.635A.121.121,0,0,0,806.838,984.285Z" transform="translate(-799.521 -981.38)" fill="#fff"/>
        </g>
        <g id="Grupo_53898" data-name="Grupo 53898" transform="translate(21.699 7.481)">
          <path id="Trazado_101003" data-name="Trazado 101003" d="M753.51,1052.324a.121.121,0,0,0,.121-.121,11.143,11.143,0,0,0-1.671-5.88.121.121,0,1,0-.205.127,10.9,10.9,0,0,1,1.635,5.753A.121.121,0,0,0,753.51,1052.324Z" transform="translate(-751.736 -1046.265)" fill="#fff"/>
        </g>
      </g>
      <g id="Grupo_54116" data-name="Grupo 54116" transform="translate(206.546 10.356)">
        <g id="Grupo_53904" data-name="Grupo 53904" transform="translate(0)">
          <g id="Grupo_53900" data-name="Grupo 53900" transform="translate(0.263 0.161)">
            <ellipse id="Elipse_4079" data-name="Elipse 4079" cx="9.075" cy="9.075" rx="9.075" ry="9.075" transform="translate(0.001)" fill="#fd0"/>
            <path id="Trazado_101004" data-name="Trazado 101004" d="M1875.791,568.138h18.133s.722,5.037-7.377,18.833a1.982,1.982,0,0,1-3.4.007C1875.054,573.18,1875.791,568.138,1875.791,568.138Z" transform="translate(-1875.774 -559.55)" fill="#fd0"/>
          </g>
          <g id="Grupo_53901" data-name="Grupo 53901">
            <path id="Trazado_101005" data-name="Trazado 101005" d="M1881.852,488.516v.051h0a2.251,2.251,0,0,0,1.924-1.111c4.734-8.064,6.469-13.163,7.09-16.016a9.162,9.162,0,0,0,.311-1.959,4.577,4.577,0,0,0,.008-.989l-.024-.145a9.338,9.338,0,0,0-18.634.093,4.073,4.073,0,0,0-.015.5v.033a9.349,9.349,0,0,0,.374,2.624c.643,2.851,2.388,7.9,7.042,15.828A2.2,2.2,0,0,0,1881.852,488.516Zm8.823-19.681c0,.136,0,.33-.026.623h0a8.552,8.552,0,0,1-.3,1.85l0,.01c-.612,2.815-2.329,7.85-7.031,15.86a1.705,1.705,0,0,1-1.468.836v0a1.788,1.788,0,0,1-1.472-.843c-4.624-7.877-6.35-12.884-6.983-15.7l0-.016a8.777,8.777,0,0,1-.3-2.484l.053-.037v0a3.523,3.523,0,0,0-.04-.442l-.025-.015a8.8,8.8,0,0,1,17.573.092l.007.268Z" transform="translate(-1872.509 -459.678)" fill="#fff" opacity="0.8"/>
          </g>
          <ellipse id="Elipse_4080" data-name="Elipse 4080" cx="5.24" cy="5.24" rx="5.24" ry="5.24" transform="matrix(-0.957, -0.29, 0.29, -0.957, 12.806, 15.739)" fill="#fff"/>
          <g id="Grupo_53903" data-name="Grupo 53903" transform="translate(3.777 3.673)">
            <g id="Grupo_53902" data-name="Grupo 53902">
              <path id="Trazado_101006" data-name="Trazado 101006" d="M1925.787,516.282a5.533,5.533,0,1,0-5.532-5.533A5.539,5.539,0,0,0,1925.787,516.282Zm0-10.48a4.947,4.947,0,1,1-4.947,4.947A4.953,4.953,0,0,1,1925.787,505.8Z" transform="translate(-1920.254 -505.217)" fill="#676138"/>
            </g>
          </g>
        </g>
        <g id="Grupo_53905" data-name="Grupo 53905" transform="translate(8.954 1.636)">
          <path id="Trazado_101007" data-name="Trazado 101007" d="M1931.459,482.07a.087.087,0,0,0,.066-.031.088.088,0,0,0-.009-.124,8.132,8.132,0,0,0-5.3-1.96.088.088,0,0,0,0,.176,7.956,7.956,0,0,1,5.181,1.918A.088.088,0,0,0,1931.459,482.07Z" transform="translate(-1926.133 -479.955)" fill="#fff"/>
        </g>
        <g id="Grupo_53906" data-name="Grupo 53906" transform="translate(15.795 5.445)">
          <path id="Trazado_101008" data-name="Trazado 101008" d="M1892.64,531.6a.088.088,0,0,0,.088-.088,8.113,8.113,0,0,0-1.216-4.281.088.088,0,1,0-.149.092,7.938,7.938,0,0,1,1.19,4.188A.088.088,0,0,0,1892.64,531.6Z" transform="translate(-1891.349 -527.186)" fill="#fff"/>
        </g>
      </g>
    </g>
    <rect id="Rect치ngulo_5361" data-name="Rect치ngulo 5361" width="443" height="378" transform="translate(-7503 -2947)" fill="none"/>
  </g>
</svg>
