<svg xmlns="http://www.w3.org/2000/svg" xmlns:xlink="http://www.w3.org/1999/xlink" width="443" height="377" viewBox="0 0 443 377">
  <defs>
    <linearGradient id="linear-gradient" x1="0.788" y1="2.444" x2="-0.106" y2="1.332" gradientUnits="objectBoundingBox">
      <stop offset="0" stop-color="#dae3fe"/>
      <stop offset="1" stop-color="#e9effd"/>
    </linearGradient>
    <linearGradient id="linear-gradient-2" x1="0.508" y1="-1.223" x2="0.499" y2="0.713" gradientUnits="objectBoundingBox">
      <stop offset="0" stop-color="#4f52ff"/>
      <stop offset="1" stop-color="#4042e2"/>
    </linearGradient>
    <linearGradient id="linear-gradient-3" x1="-7.305" y1="0.495" x2="2.508" y2="0.501" xlink:href="#linear-gradient-2"/>
    <linearGradient id="linear-gradient-4" x1="0.484" y1="-0.248" x2="0.465" y2="-1.159" xlink:href="#linear-gradient-2"/>
    <linearGradient id="linear-gradient-5" x1="0.566" y1="-0.806" x2="0.546" y2="-0.405" xlink:href="#linear-gradient-2"/>
    <linearGradient id="linear-gradient-6" x1="8.441" y1="-0.2" x2="-3.718" y2="0.872" xlink:href="#linear-gradient-2"/>
    <linearGradient id="linear-gradient-7" x1="0.233" y1="-0.089" x2="1.011" y2="1.627" xlink:href="#linear-gradient-2"/>
    <linearGradient id="linear-gradient-9" x1="0.231" y1="-0.094" x2="1.009" y2="1.622" xlink:href="#linear-gradient-2"/>
    <linearGradient id="linear-gradient-10" x1="8.441" y1="-0.2" x2="-3.718" y2="0.872" xlink:href="#linear-gradient-2"/>
    <linearGradient id="linear-gradient-11" x1="0.229" y1="-0.099" x2="1.006" y2="1.617" xlink:href="#linear-gradient-2"/>
    <linearGradient id="linear-gradient-13" x1="0.227" y1="-0.103" x2="1.004" y2="1.613" xlink:href="#linear-gradient-2"/>
    <linearGradient id="linear-gradient-15" x1="0.225" y1="-0.108" x2="1.002" y2="1.609" xlink:href="#linear-gradient-2"/>
    <linearGradient id="linear-gradient-17" x1="0.223" y1="-0.112" x2="1" y2="1.604" xlink:href="#linear-gradient-2"/>
    <linearGradient id="linear-gradient-19" x1="0.221" y1="-0.116" x2="0.999" y2="1.601" xlink:href="#linear-gradient-2"/>
    <linearGradient id="linear-gradient-21" x1="0.219" y1="-0.12" x2="0.997" y2="1.596" xlink:href="#linear-gradient-2"/>
    <linearGradient id="linear-gradient-23" x1="0.217" y1="-0.125" x2="0.994" y2="1.591" xlink:href="#linear-gradient-2"/>
    <linearGradient id="linear-gradient-25" x1="0.215" y1="-0.13" x2="0.992" y2="1.587" xlink:href="#linear-gradient-2"/>
    <linearGradient id="linear-gradient-27" x1="0.213" y1="-0.134" x2="0.99" y2="1.582" xlink:href="#linear-gradient-2"/>
    <linearGradient id="linear-gradient-29" x1="0.211" y1="-0.138" x2="0.988" y2="1.578" xlink:href="#linear-gradient-2"/>
    <linearGradient id="linear-gradient-31" x1="0.209" y1="-0.143" x2="0.986" y2="1.573" xlink:href="#linear-gradient-2"/>
    <linearGradient id="linear-gradient-32" x1="1.332" y1="16.526" x2="-1.524" y2="20.227" gradientUnits="objectBoundingBox">
      <stop offset="0" stop-color="#09005d"/>
      <stop offset="1" stop-color="#1a0f91"/>
    </linearGradient>
    <linearGradient id="linear-gradient-33" x1="-18.829" y1="35.868" x2="-19.896" y2="40.474" xlink:href="#linear-gradient-32"/>
    <linearGradient id="linear-gradient-34" x1="0.141" y1="-2.38" x2="0.21" y2="4.007" xlink:href="#linear-gradient-32"/>
    <linearGradient id="linear-gradient-35" x1="124.062" y1="0.242" x2="125.485" y2="1.595" xlink:href="#linear-gradient-32"/>
  </defs>
  <g id="Grupo_54061" data-name="Grupo 54061" transform="translate(7514 1870)">
    <rect id="Rectángulo_5169" data-name="Rectángulo 5169" width="443" height="377" transform="translate(-7514 -1870)" fill="none"/>
    <g id="Grupo_54060" data-name="Grupo 54060" transform="translate(-7494.674 -1848)">
      <path id="Trazado_101310" data-name="Trazado 101310" d="M489.688,872.744a107.119,107.119,0,0,1,13.5,16.438c37.593,53.667,27.133,117.539,24.566,131.115-3.791,20.049-11.118,58.8-42.63,87-47.676,42.656-123.247,36.571-173.312,4.069-9.158-5.945-59.974-37.333-68.5-101.764-5.157-38.993,4.466-84.551,30.838-117.674C329.517,822.4,442.258,826.565,489.688,872.744Z" transform="translate(-252.798 -830.248)" fill="url(#linear-gradient)"/>
      <path id="Trazado_101507" data-name="Trazado 101507" d="M510.942,182.587c-10.547,3.506-20.94,7.837-31.652,10.79-9.8,2.7-20.563,2.046-30.732,1.579-21.533-.989-42.873-4.685-63.844-9.663-28.734-6.821-57.284-19.638-86.98-20.621-19.091-.632-35.345,3.261-48.679,17.74-3.7,4.019-7,8.558-8.783,13.772-3.477,10.186.3,23.235,3.378,33.071,4.211,13.472,12.717,33.073.616,44.9-10.1,9.868-21.9,15.926-29.421,28.418a77.627,77.627,0,0,0-10.586,37.238c-.507,14.871,2.608,29.611,7.419,43.6,4.531,13.171,10.467,21.355,23.6,27.111,12.49,5.476,29.542,2.93,42.779,2.93H460.163c27.8,0,56.5,2,84.183-.649,13.491-1.29,27.405-4.157,38.472-12.37,11.421-8.475,18.254-22.405,18.754-36.454.681-19.126-11.673-36.1-12.167-54.705-.262-9.891,4.085-21.758,6.378-31.352q3.737-15.636,8.494-31.009c2.281-7.372,4.759-14.82,4.939-22.529.4-17.052-11.067-33.009-26.218-41.1s-33.321-9.175-50.283-6.287A147.593,147.593,0,0,0,510.942,182.587Z" transform="translate(-212.939 -117.708)" fill="#f3f5f8"/>
      <g id="Grupo_54012" data-name="Grupo 54012" transform="translate(7.198 20.659)">
        <ellipse id="Elipse_4105" data-name="Elipse 4105" cx="122.378" cy="132.095" rx="122.378" ry="132.095" transform="translate(0 244.521) rotate(-87.486)" fill="#732be5"/>
        <ellipse id="Elipse_4106" data-name="Elipse 4106" cx="103.654" cy="97.92" rx="103.654" ry="97.92" transform="translate(26.532 21.305)" fill="#732be5" opacity="0.11"/>
        <g id="Grupo_54011" data-name="Grupo 54011" transform="translate(17.215 8.921)" opacity="0.68">
          <path id="Trazado_101311" data-name="Trazado 101311" d="M1215.7,1001.692a371.228,371.228,0,0,1-5.289,64.466c-.958,5.313-2.07,10.6-3.395,15.838a152.442,152.442,0,0,1-4.744,15.5c-.943,2.534-1.973,5.039-3.133,7.488a58.213,58.213,0,0,1-3.946,7.11,29.091,29.091,0,0,1-5.307,6.2,15.1,15.1,0,0,1-3.466,2.238,10.355,10.355,0,0,1-4.038.955,10.162,10.162,0,0,1-4.082-.753,14.181,14.181,0,0,1-3.545-2.115,27.609,27.609,0,0,1-5.421-6.1,56.2,56.2,0,0,1-4.01-7.076c-1.175-2.441-2.22-4.94-3.172-7.471a149.057,149.057,0,0,1-4.795-15.481c-1.338-5.234-2.461-10.519-3.427-15.831-1.928-10.625-3.24-21.353-4.123-32.11s-1.311-21.552-1.357-32.346c-.022-5.4.111-10.792.3-16.185s.487-10.782.877-16.164c.786-10.763,1.966-21.5,3.726-32.153.883-5.324,1.914-10.626,3.155-15.881a152.623,152.623,0,0,1,4.487-15.562c.9-2.546,1.89-5.066,3.016-7.525a54.918,54.918,0,0,1,3.862-7.138,26.563,26.563,0,0,1,5.307-6.15,13.542,13.542,0,0,1,3.505-2.105,9.876,9.876,0,0,1,4.028-.72,10.66,10.66,0,0,1,3.981.937,15.573,15.573,0,0,1,3.463,2.167,29.621,29.621,0,0,1,5.423,6.046,57.912,57.912,0,0,1,4.121,6.99c1.223,2.413,2.312,4.889,3.318,7.4a147.51,147.51,0,0,1,5.094,15.375c1.433,5.206,2.647,10.471,3.7,15.766A339.779,339.779,0,0,1,1215.7,1001.692Zm-1.262,0c.015-10.759-.4-21.521-1.3-32.243a310.039,310.039,0,0,0-4.237-31.982c-1-5.285-2.164-10.539-3.546-15.736a146.951,146.951,0,0,0-4.937-15.343c-.978-2.5-2.039-4.972-3.233-7.376a57.3,57.3,0,0,0-4.022-6.959,29.171,29.171,0,0,0-5.283-6,15.172,15.172,0,0,0-3.35-2.138,10.058,10.058,0,0,0-3.829-.93,9.414,9.414,0,0,0-3.865.723,13.125,13.125,0,0,0-3.378,2.071,26.1,26.1,0,0,0-5.157,6.086,54.346,54.346,0,0,0-3.762,7.1c-1.1,2.45-2.055,4.961-2.931,7.5a151.959,151.959,0,0,0-4.332,15.526c-1.191,5.244-2.172,10.536-3.007,15.85-1.663,10.631-2.747,21.349-3.438,32.087s-.952,21.5-.934,32.265q-.03,16.138,1.157,32.25c.815,10.727,2.058,21.427,3.914,32.023.93,5.3,2.016,10.566,3.316,15.782a148.289,148.289,0,0,0,4.672,15.415c.93,2.517,1.951,5,3.1,7.422a55.442,55.442,0,0,0,3.91,7,26.9,26.9,0,0,0,5.235,5.973,13.485,13.485,0,0,0,3.358,2.033,9.311,9.311,0,0,0,3.806.721,9.679,9.679,0,0,0,3.768-.918,14.4,14.4,0,0,0,3.289-2.155,28.379,28.379,0,0,0,5.128-6.075,72.609,72.609,0,0,0,6.9-14.476,151.582,151.582,0,0,0,4.617-15.432c1.285-5.219,2.359-10.491,3.28-15.789,1.842-10.6,3.07-21.3,3.885-32.027S1214.437,1012.453,1214.434,1001.692Z" transform="translate(-1061.997 -881.968)" fill="#732be5" style="mix-blend-mode: soft-light;isolation: isolate"/>
          <path id="Trazado_101312" data-name="Trazado 101312" d="M854.263,997.346a157.161,157.161,0,0,1-5.561,41.162,132.6,132.6,0,0,1-17.186,37.759,108.68,108.68,0,0,1-13.137,16.119,92.066,92.066,0,0,1-16.179,13.048,78.04,78.04,0,0,1-18.887,8.643,70.449,70.449,0,0,1-41.07.015,78.074,78.074,0,0,1-18.9-8.632,92.148,92.148,0,0,1-16.2-13.04A108.774,108.774,0,0,1,693.99,1076.3a132.629,132.629,0,0,1-17.219-37.771,157.259,157.259,0,0,1-5.574-41.186,155.606,155.606,0,0,1,5.592-41.181,132.724,132.724,0,0,1,17.24-37.749,108.7,108.7,0,0,1,13.159-16.1,91.917,91.917,0,0,1,16.193-13.022,78.31,78.31,0,0,1,18.887-8.607,70.247,70.247,0,0,1,41.024,0,77.972,77.972,0,0,1,18.872,8.632,92.127,92.127,0,0,1,16.174,13.032,108.663,108.663,0,0,1,13.139,16.105,132.567,132.567,0,0,1,17.2,37.739A157.14,157.14,0,0,1,854.263,997.346Zm-1.446,0a155.786,155.786,0,0,0-5.384-40.81,132.146,132.146,0,0,0-16.753-37.555,107.778,107.778,0,0,0-12.9-16.082,89.916,89.916,0,0,0-15.952-13.049,77.387,77.387,0,0,0-18.7-8.617,68.494,68.494,0,0,0-40.691,0,77.046,77.046,0,0,0-18.685,8.642,90.107,90.107,0,0,0-15.933,13.059,107.732,107.732,0,0,0-12.882,16.084,132,132,0,0,0-16.718,37.544,150.609,150.609,0,0,0-4.023,20.215,161.686,161.686,0,0,0-1.351,20.569,155.683,155.683,0,0,0,5.393,40.78,132.092,132.092,0,0,0,16.739,37.523,107.669,107.669,0,0,0,12.883,16.07,89.864,89.864,0,0,0,15.929,13.04,77.287,77.287,0,0,0,18.673,8.617,68.3,68.3,0,0,0,40.645.014,77.294,77.294,0,0,0,18.685-8.606,89.911,89.911,0,0,0,15.947-13.033,107.709,107.709,0,0,0,12.9-16.067,132.106,132.106,0,0,0,16.772-37.534A155.775,155.775,0,0,0,852.817,997.346Z" transform="translate(-646.14 -877.623)" fill="#732be5" style="mix-blend-mode: soft-light;isolation: isolate"/>
          <path id="Trazado_101313" data-name="Trazado 101313" d="M550.869,1437.358l27.531-.175,27.531-.1,55.063-.08,55.063.088,27.531.109,27.531.189a.064.064,0,0,1,0,.128l-27.531.189-27.531.109-55.063.088-55.063-.08-27.531-.1-27.531-.175a.1.1,0,0,1,0-.19Z" transform="translate(-541.206 -1365.048)" fill="#732be5" style="mix-blend-mode: soft-light;isolation: isolate"/>
          <path id="Trazado_101314" data-name="Trazado 101314" d="M799.171,1078.872l19.547-.176,19.546-.1c6.516-.043,13.031-.038,19.547-.051l19.546-.029,39.093.088,19.546.109,19.546.189a.064.064,0,0,1,0,.128l-19.546.189-19.546.109-39.093.088-19.546-.029c-6.516-.013-13.031-.009-19.547-.051l-19.546-.1-19.547-.176a.1.1,0,0,1,0-.19Z" transform="translate(-757.57 -1052.676)" fill="#732be5" style="mix-blend-mode: soft-light;isolation: isolate"/>
          <path id="Trazado_101315" data-name="Trazado 101315" d="M476.489,1795.843l29.923-.175,29.923-.1,59.847-.08,59.846.088,29.923.109,29.924.19a.064.064,0,0,1,0,.128l-29.924.19-29.923.109-59.846.088-59.847-.08-29.923-.1-29.923-.175a.1.1,0,0,1,0-.19Z" transform="translate(-476.394 -1677.42)" fill="#732be5" style="mix-blend-mode: soft-light;isolation: isolate"/>
          <path id="Trazado_101316" data-name="Trazado 101316" d="M550.869,2154.326l27.531-.175,27.531-.1,55.063-.08,55.063.088,27.531.109,27.531.189a.064.064,0,0,1,0,.128l-27.531.189-27.531.109-55.063.088-55.063-.08-27.531-.1-27.531-.175a.1.1,0,0,1,0-.19Z" transform="translate(-541.206 -1989.791)" fill="#732be5" style="mix-blend-mode: soft-light;isolation: isolate"/>
          <path id="Trazado_101317" data-name="Trazado 101317" d="M984.55,2514.033H828.178a.333.333,0,1,1,0-.667H984.55a.333.333,0,1,1,0,.667Z" transform="translate(-782.637 -2302.958)" fill="#732be5" style="mix-blend-mode: soft-light;isolation: isolate"/>
        </g>
      </g>
      <g id="Grupo_54025" data-name="Grupo 54025" transform="translate(95.253 39.028)">
        <path id="Trazado_101318" data-name="Trazado 101318" d="M1121.841,1328.517c1.529-.226,3.167-.2,4.138-1.338a8.311,8.311,0,0,0,.939-1.76,6.24,6.24,0,0,1,8.841-2.156,8.689,8.689,0,0,0,1.23.862,4.039,4.039,0,0,0,1.66.334,10.549,10.549,0,0,0,5.473-1.21c1.506-1.041,1.416-3.128,2.063-4.735,1.674-4.152,7.9-5.5,11.147-2.42,2.622,2.493,3.844,5.111,7.569,6.155,3.674,1.03,8.185,1.029,11.441-1.167,1.064-.718,1.978-1.654,3.1-2.271,2.316-1.272,5.168-1.015,7.728-.358s5.055,1.681,7.692,1.847c2.473.156,4.967-.454,7.421-.115a9.8,9.8,0,0,1,6.188,3.477,1.923,1.923,0,0,1,.477.9c.122.856-.763,1.48-1.527,1.885l-4.027,2.132a10.426,10.426,0,0,0-2.816,1.911,3.53,3.53,0,0,0-1.024,3.118c.282,1.194,1.339,2.015,2.082,2.992a6.4,6.4,0,0,1,1.223,4.714c-.2,1.389-.828,2.914-.077,4.1a1.331,1.331,0,0,1,.271.545.963.963,0,0,1-.344.7c-2.294,2.45-5.691,3.581-9.024,3.979s-6.707.155-10.058.335a34.129,34.129,0,0,1-6.584.109c-2.21-.312-4.365-1.244-6.589-1.041a30.344,30.344,0,0,0-7.177,1.612,7.9,7.9,0,0,0-4.183,4.3,19.993,19.993,0,0,0-.692,4.033,5.3,5.3,0,0,1-1.768,3.583c-1.1.813-2.962.658-3.535-.584-.248-.536-.222-1.168-.474-1.7-.465-.988-1.677-1.327-2.748-1.537a12.446,12.446,0,0,1-5.036-1.719c-1.448-1.051-2.363-3.083-1.55-4.677.471-.922,1.45-1.6,1.611-2.621a2.989,2.989,0,0,0-.739-2.165,8.546,8.546,0,0,0-6.883-3.318c-.909.017-5.772,1.981-6.214.3-.641-2.427,3.9-4.319,2.732-6.541a2.7,2.7,0,0,0-.991-.952c-2.191-1.4-5.352-1.105-7.832-1.334-1.024-.094-3.12-.044-3.918-.781-1.04-.96-1.374-3.749-1.54-5.074a2.134,2.134,0,0,1,.193-1.472,1.852,1.852,0,0,1,1.033-.652A7.607,7.607,0,0,1,1121.841,1328.517Z" transform="translate(-1100.23 -1267.672)" fill="#fd0" opacity="0.35"/>
        <circle id="Elipse_4107" data-name="Elipse 4107" cx="7.544" cy="7.544" r="7.544" transform="translate(42.351 76.015) rotate(-45)" fill="#fd0"/>
        <circle id="Elipse_4108" data-name="Elipse 4108" cx="5.801" cy="5.801" r="5.801" transform="translate(100.528 30.165) rotate(-45)" fill="#fd0"/>
        <circle id="Elipse_4109" data-name="Elipse 4109" cx="5.801" cy="5.801" r="5.801" transform="matrix(0.23, -0.973, 0.973, 0.23, 143.651, 67.472)" fill="#fd0"/>
        <circle id="Elipse_4110" data-name="Elipse 4110" cx="5.801" cy="5.801" r="5.801" transform="translate(2.619 104.181) rotate(-22.5)" fill="#fd0"/>
        <circle id="Elipse_4111" data-name="Elipse 4111" cx="5.801" cy="5.801" r="5.801" transform="translate(0 52.539) rotate(-45)" fill="#fd0"/>
        <circle id="Elipse_4112" data-name="Elipse 4112" cx="5.801" cy="5.801" r="5.801" transform="translate(16.837 0)" fill="#fd0"/>
        <g id="Grupo_54014" data-name="Grupo 54014" transform="translate(61.883 61.461)">
          <g id="Grupo_54013" data-name="Grupo 54013" transform="translate(5.132)">
            <path id="Trazado_101319" data-name="Trazado 101319" d="M2070.5,1436.72l-1.976-.233h-.009a.66.66,0,0,1,.15-1.311l2,.221a.667.667,0,1,1-.147,1.325h-.014Z" transform="translate(-1993.7 -1434.361)" fill="#fd0"/>
            <path id="Trazado_101320" data-name="Trazado 101320" d="M2039.678,1433.85l-1.982-.179h-.009a.645.645,0,0,1,.112-1.286l2,.167a.653.653,0,0,1-.109,1.3h-.013Z" transform="translate(-1966.83 -1431.93)" fill="#fd0"/>
            <path id="Trazado_101321" data-name="Trazado 101321" d="M2008.776,1431.8l-1.988-.127h-.008a.631.631,0,0,1,.076-1.26l2,.114a.638.638,0,1,1-.072,1.275h-.013Z" transform="translate(-1939.895 -1430.217)" fill="#fd0"/>
            <path id="Trazado_101322" data-name="Trazado 101322" d="M1977.827,1430.561l-1.991-.076h-.008a.617.617,0,0,1,.043-1.234l2.007.062a.624.624,0,0,1-.039,1.248h-.012Z" transform="translate(-1912.922 -1429.202)" fill="#fd0"/>
            <path id="Trazado_101323" data-name="Trazado 101323" d="M1946.87,1430.105l-1.991-.026h-.007a.6.6,0,0,1,.011-1.206l2.006.012a.61.61,0,0,1-.007,1.22h-.012Z" transform="translate(-1885.946 -1428.873)" fill="#fd0"/>
            <path id="Trazado_101324" data-name="Trazado 101324" d="M1915.9,1430.169l-1.992.024h-.007a.589.589,0,0,1-.019-1.178l2.006-.038a.6.6,0,1,1,.023,1.192h-.012Z" transform="translate(-1858.961 -1428.964)" fill="#fd0"/>
            <path id="Trazado_101325" data-name="Trazado 101325" d="M1884.945,1430.927l-1.991.074h-.007a.575.575,0,0,1-.046-1.149l2-.088a.582.582,0,1,1,.051,1.163h-.011Z" transform="translate(-1831.986 -1429.648)" fill="#fd0"/>
            <path id="Trazado_101326" data-name="Trazado 101326" d="M1854.019,1432.456l-1.989.123h-.007a.561.561,0,0,1-.073-1.119l2-.138a.568.568,0,0,1,.078,1.133h-.011Z" transform="translate(-1805.041 -1431.006)" fill="#fd0"/>
            <path id="Trazado_101327" data-name="Trazado 101327" d="M1823.14,1434.754l-1.985.172h-.007a.547.547,0,0,1-.1-1.089l2-.188a.554.554,0,1,1,.1,1.1h-.011Z" transform="translate(-1778.138 -1433.033)" fill="#fd0"/>
            <path id="Trazado_101328" data-name="Trazado 101328" d="M1792.337,1437.824l-1.981.222h-.007a.533.533,0,0,1-.122-1.058l1.992-.238a.54.54,0,0,1,.128,1.072h-.01Z" transform="translate(-1751.303 -1435.734)" fill="#fd0"/>
            <path id="Trazado_101329" data-name="Trazado 101329" d="M1761.622,1441.67l-1.974.272h-.007a.519.519,0,0,1-.145-1.027l1.986-.288a.526.526,0,1,1,.151,1.041h-.01Z" transform="translate(-1724.548 -1439.111)" fill="#fd0"/>
            <path id="Trazado_101330" data-name="Trazado 101330" d="M1731.022,1446.294l-1.967.322h-.006a.5.5,0,0,1-.167-1l1.978-.338a.512.512,0,0,1,.173,1.009h-.01Z" transform="translate(-1697.892 -1443.166)" fill="#fd0"/>
            <path id="Trazado_101331" data-name="Trazado 101331" d="M1700.565,1451.705l-1.957.373h-.007a.49.49,0,0,1-.187-.963l1.967-.389a.5.5,0,0,1,.193.976h-.01Z" transform="translate(-1671.366 -1447.908)" fill="#fd0"/>
            <path id="Trazado_101332" data-name="Trazado 101332" d="M1670.276,1457.906l-1.947.424h-.006a.476.476,0,0,1-.206-.93l1.956-.441a.483.483,0,1,1,.212.943h-.009Z" transform="translate(-1644.985 -1453.338)" fill="#fd0"/>
            <path id="Trazado_101333" data-name="Trazado 101333" d="M1640.16,1464.909l-1.935.476h-.006a.462.462,0,0,1-.224-.9l1.944-.493a.469.469,0,0,1,.231.91h0Z" transform="translate(-1618.758 -1459.466)" fill="#fd0"/>
            <path id="Trazado_101334" data-name="Trazado 101334" d="M1610.252,1472.724l-1.922.529-.006,0a.448.448,0,0,1-.241-.863l1.93-.546a.455.455,0,1,1,.248.876h0Z" transform="translate(-1592.714 -1466.303)" fill="#fd0"/>
            <path id="Trazado_101335" data-name="Trazado 101335" d="M1580.571,1481.36l-1.907.582-.006,0a.434.434,0,0,1-.256-.83l1.915-.6a.441.441,0,0,1,.263.842h0Z" transform="translate(-1566.87 -1473.855)" fill="#fd0"/>
            <path id="Trazado_101336" data-name="Trazado 101336" d="M1551.15,1490.824l-1.89.635-.006,0a.42.42,0,0,1-.27-.8l1.9-.653a.427.427,0,0,1,.278.808h0Z" transform="translate(-1541.255 -1482.128)" fill="#fd0"/>
            <path id="Trazado_101337" data-name="Trazado 101337" d="M1522.019,1501.125l-1.871.69-.006,0a.406.406,0,0,1-.283-.761l1.877-.707a.413.413,0,1,1,.291.773h0Z" transform="translate(-1515.894 -1491.132)" fill="#fd0"/>
            <path id="Trazado_101338" data-name="Trazado 101338" d="M1493.205,1512.271l-1.85.744-.005,0a.392.392,0,0,1-.295-.726l1.856-.762a.4.4,0,1,1,.3.738h0Z" transform="translate(-1490.812 -1500.871)" fill="#fd0"/>
          </g>
          <path id="Trazado_101339" data-name="Trazado 101339" d="M1456.243,1512.686a.518.518,0,0,1-.115-.013l-4.829-1.138a.5.5,0,0,1-.141-.917l4.054-2.411a.5.5,0,1,1,.511.86l-2.99,1.778,3.624.854a.5.5,0,0,1-.114.987Z" transform="translate(-1450.913 -1497.942)" fill="#fd0"/>
        </g>
        <g id="Grupo_54016" data-name="Grupo 54016" transform="translate(58.146 33.659)">
          <g id="Grupo_54015" data-name="Grupo 54015" transform="translate(1.183)">
            <path id="Trazado_101340" data-name="Trazado 101340" d="M1431.082,1454.349l.772-1.864a.356.356,0,1,1,.658.272v0l-.008.018-.78,1.823-.007.016a.345.345,0,0,1-.635-.267Z" transform="translate(-1431.056 -1421.454)" fill="#fd0"/>
            <path id="Trazado_101341" data-name="Trazado 101341" d="M1443.661,1426.346l.945-1.783a.379.379,0,1,1,.67.355v0l-.009.017-.949,1.741-.008.015a.368.368,0,0,1-.648-.348Z" transform="translate(-1442.002 -1397.141)" fill="#fd0"/>
            <path id="Trazado_101342" data-name="Trazado 101342" d="M1458.833,1399.727l1.1-1.691a.4.4,0,1,1,.675.439v0l-.011.016-1.1,1.65-.01.014a.391.391,0,0,1-.653-.43Z" transform="translate(-1455.206 -1374.042)" fill="#fd0"/>
            <path id="Trazado_101343" data-name="Trazado 101343" d="M1476.333,1374.606l1.238-1.593a.425.425,0,1,1,.672.522v0l-.012.015-1.235,1.552-.01.013a.414.414,0,0,1-.651-.512Z" transform="translate(-1470.433 -1352.254)" fill="#fd0"/>
            <path id="Trazado_101344" data-name="Trazado 101344" d="M1495.882,1351.049l1.358-1.491a.449.449,0,0,1,.664.6l0,0-.013.014-1.353,1.451-.011.012a.437.437,0,0,1-.643-.592Z" transform="translate(-1487.444 -1331.831)" fill="#fd0"/>
            <path id="Trazado_101345" data-name="Trazado 101345" d="M1517.223,1329.083l1.463-1.388a.472.472,0,0,1,.65.685l0,0-.014.013-1.455,1.348-.012.011a.46.46,0,0,1-.629-.671Z" transform="translate(-1506.014 -1312.795)" fill="#fd0"/>
            <path id="Trazado_101346" data-name="Trazado 101346" d="M1540.126,1308.719l1.555-1.284a.495.495,0,0,1,.63.763l0,0-.015.012-1.544,1.246-.013.01a.483.483,0,0,1-.611-.749Z" transform="translate(-1525.943 -1295.155)" fill="#fd0"/>
            <path id="Trazado_101347" data-name="Trazado 101347" d="M1564.39,1289.956l1.635-1.181a.518.518,0,1,1,.606.84l0,0-.016.011-1.622,1.143-.013.009a.506.506,0,0,1-.588-.824Z" transform="translate(-1547.056 -1278.909)" fill="#fd0"/>
            <path id="Trazado_101348" data-name="Trazado 101348" d="M1589.844,1272.8l1.706-1.077a.541.541,0,0,1,.578.915l0,0-.017.01-1.69,1.04-.014.009a.529.529,0,0,1-.56-.9Z" transform="translate(-1569.204 -1264.065)" fill="#fd0"/>
            <path id="Trazado_101349" data-name="Trazado 101349" d="M1616.349,1257.278l1.769-.971a.564.564,0,0,1,.543.989l0,0-.018.01-1.75.935-.015.008a.552.552,0,0,1-.526-.972Z" transform="translate(-1592.264 -1250.642)" fill="#fd0"/>
            <path id="Trazado_101350" data-name="Trazado 101350" d="M1643.785,1243.431l1.826-.862a.587.587,0,0,1,.5,1.062l0,0-.019.009-1.8.826-.016.007a.576.576,0,0,1-.485-1.044Z" transform="translate(-1616.134 -1238.683)" fill="#fd0"/>
            <path id="Trazado_101351" data-name="Trazado 101351" d="M1672.061,1231.352l1.878-.746a.61.61,0,0,1,.45,1.135h0l-.021.008-1.85.71-.018.007a.6.6,0,0,1-.435-1.115Z" transform="translate(-1640.731 -1228.271)" fill="#fd0"/>
            <path id="Trazado_101352" data-name="Trazado 101352" d="M1701.093,1221.2l1.927-.618a.634.634,0,1,1,.387,1.207h0l-.025.008-1.891.582-.021.006a.622.622,0,0,1-.373-1.187Z" transform="translate(-1665.981 -1219.544)" fill="#fd0"/>
            <path id="Trazado_101353" data-name="Trazado 101353" d="M1730.8,1213.227l1.973-.47a.657.657,0,0,1,.3,1.277h0l-.03.007-1.925.435-.026.006a.645.645,0,0,1-.292-1.256Z" transform="translate(-1691.815 -1212.739)" fill="#fd0"/>
          </g>
          <path id="Trazado_101354" data-name="Trazado 101354" d="M1422.372,1455.48a.5.5,0,0,1-.5-.5l-.01-4.717a.5.5,0,0,1,.5-.5h0a.5.5,0,0,1,.5.5l.007,3.479,2.58-2.684a.5.5,0,0,1,.721.693l-3.438,3.577A.5.5,0,0,1,1422.372,1455.48Z" transform="translate(-1421.861 -1419.274)" fill="#fd0"/>
        </g>
        <circle id="Elipse_4113" data-name="Elipse 4113" cx="5.801" cy="5.801" r="5.801" transform="translate(103.404 124.481) rotate(-68.048)" fill="#fd0"/>
        <g id="Grupo_54018" data-name="Grupo 54018" transform="translate(59.428 81.558)">
          <g id="Grupo_54017" data-name="Grupo 54017" transform="translate(3.008 1.684)">
            <path id="Trazado_101355" data-name="Trazado 101355" d="M1455.609,1598.2l2,.253a.356.356,0,1,1-.089.707h0l-.019,0-1.965-.271-.017,0a.345.345,0,0,1,.09-.683Z" transform="translate(-1455.221 -1598.198)" fill="#fd0"/>
            <path id="Trazado_101356" data-name="Trazado 101356" d="M1486.208,1602.832l1.969.441a.379.379,0,1,1-.166.74h0l-.019,0-1.93-.456-.016,0a.368.368,0,0,1,.165-.717Z" transform="translate(-1481.831 -1602.228)" fill="#fd0"/>
            <path id="Trazado_101357" data-name="Trazado 101357" d="M1516.228,1610.314l1.921.615a.4.4,0,0,1-.245.767h0l-.018-.006-1.881-.626-.016-.006a.391.391,0,0,1,.243-.743Z" transform="translate(-1507.936 -1608.739)" fill="#fd0"/>
            <path id="Trazado_101358" data-name="Trazado 101358" d="M1545.456,1620.421l1.863.774a.426.426,0,1,1-.326.786h0l-.018-.008-1.823-.782-.016-.007a.414.414,0,0,1,.322-.763Z" transform="translate(-1533.35 -1617.535)" fill="#fd0"/>
            <path id="Trazado_101359" data-name="Trazado 101359" d="M1573.741,1632.913l1.8.917a.449.449,0,1,1-.408.8h0l-.017-.009-1.756-.922-.015-.008a.437.437,0,0,1,.4-.776Z" transform="translate(-1557.941 -1628.406)" fill="#fd0"/>
            <path id="Trazado_101360" data-name="Trazado 101360" d="M1600.972,1647.553l1.725,1.045a.472.472,0,1,1-.489.807h0l-.016-.01-1.685-1.048-.014-.009a.46.46,0,0,1,.482-.784Z" transform="translate(-1581.615 -1641.146)" fill="#fd0"/>
            <path id="Trazado_101361" data-name="Trazado 101361" d="M1627.072,1664.12l1.649,1.161a.495.495,0,0,1-.57.809l0,0-.016-.011-1.609-1.161-.013-.01a.483.483,0,0,1,.561-.787Z" transform="translate(-1604.302 -1655.564)" fill="#fd0"/>
            <path id="Trazado_101362" data-name="Trazado 101362" d="M1651.983,1682.422l1.57,1.266a.518.518,0,1,1-.65.807l0,0-.015-.012-1.531-1.263-.013-.01a.506.506,0,0,1,.64-.785Z" transform="translate(-1625.955 -1671.49)" fill="#fd0"/>
            <path id="Trazado_101363" data-name="Trazado 101363" d="M1675.662,1702.3l1.489,1.361a.541.541,0,1,1-.73.8l0,0-.014-.013-1.449-1.356-.012-.011a.529.529,0,0,1,.719-.777Z" transform="translate(-1646.534 -1688.786)" fill="#fd0"/>
            <path id="Trazado_101364" data-name="Trazado 101364" d="M1698.057,1723.612l1.4,1.45a.564.564,0,0,1-.811.785l0,0-.014-.015-1.364-1.441-.012-.012a.553.553,0,0,1,.8-.764Z" transform="translate(-1665.993 -1707.333)" fill="#fd0"/>
            <path id="Trazado_101365" data-name="Trazado 101365" d="M1719.1,1746.263l1.313,1.534a.587.587,0,1,1-.892.764l0,0-.014-.017-1.272-1.521-.012-.013a.576.576,0,0,1,.879-.744Z" transform="translate(-1684.277 -1727.041)" fill="#fd0"/>
            <path id="Trazado_101366" data-name="Trazado 101366" d="M1738.712,1770.176l1.215,1.615a.61.61,0,0,1-.976.734l0,0-.014-.019-1.173-1.6-.011-.016a.6.6,0,0,1,.961-.714Z" transform="translate(-1701.307 -1747.846)" fill="#fd0"/>
            <path id="Trazado_101367" data-name="Trazado 101367" d="M1756.739,1795.305l1.1,1.7a.633.633,0,0,1-1.062.691l0,0-.014-.022-1.061-1.671-.012-.018a.622.622,0,0,1,1.046-.673Z" transform="translate(-1716.958 -1769.705)" fill="#fd0"/>
            <path id="Trazado_101368" data-name="Trazado 101368" d="M1772.969,1821.631l.974,1.778a.656.656,0,1,1-1.152.631l0,0-.014-.027-.928-1.742-.012-.023a.645.645,0,0,1,1.135-.613Z" transform="translate(-1731.041 -1792.598)" fill="#fd0"/>
          </g>
          <path id="Trazado_101369" data-name="Trazado 101369" d="M1436.691,1589.733a.5.5,0,0,1-.239-.061l-4.357-2.372a.5.5,0,0,1,.106-.921l4.547-1.255a.5.5,0,0,1,.266.964l-3.354.926,3.27,1.781a.5.5,0,0,1-.239.939Z" transform="translate(-1431.834 -1585.106)" fill="#fd0"/>
        </g>
        <g id="Grupo_54020" data-name="Grupo 54020" transform="translate(24.997 11.007)">
          <g id="Grupo_54019" data-name="Grupo 54019">
            <path id="Trazado_101370" data-name="Trazado 101370" d="M1338.639,1435.92l-.618-1.9a.439.439,0,0,1,.834-.273v0l.6,1.909a.43.43,0,0,1-.82.262Z" transform="translate(-1315.637 -1382.401)" fill="#fd0"/>
            <path id="Trazado_101371" data-name="Trazado 101371" d="M1328.917,1406.219l-.628-1.9a.455.455,0,0,1,.863-.288l0,0,.613,1.906a.447.447,0,0,1-.85.276Z" transform="translate(-1307.156 -1356.503)" fill="#fd0"/>
            <path id="Trazado_101372" data-name="Trazado 101372" d="M1319.016,1376.581l-.64-1.893v0a.472.472,0,0,1,.893-.3v0l.626,1.9a.463.463,0,0,1-.879.293Z" transform="translate(-1298.516 -1330.66)" fill="#fd0"/>
            <path id="Trazado_101373" data-name="Trazado 101373" d="M1308.874,1347.028l-.657-1.887v0a.488.488,0,1,1,.921-.321v0l.643,1.9a.48.48,0,0,1-.907.312Z" transform="translate(-1289.662 -1304.891)" fill="#fd0"/>
            <path id="Trazado_101374" data-name="Trazado 101374" d="M1298.432,1317.584l-.677-1.879v0a.5.5,0,1,1,.949-.342v0l.663,1.89a.5.5,0,0,1-.935.333Z" transform="translate(-1280.543 -1279.217)" fill="#fd0"/>
            <path id="Trazado_101375" data-name="Trazado 101375" d="M1287.624,1288.273l-.7-1.869v0a.521.521,0,1,1,.975-.366v0l.689,1.882a.512.512,0,0,1-.961.356Z" transform="translate(-1271.101 -1253.659)" fill="#fd0"/>
            <path id="Trazado_101376" data-name="Trazado 101376" d="M1276.384,1259.128l-.73-1.857,0,0a.537.537,0,1,1,1-.393v0l.718,1.872a.529.529,0,0,1-.986.383Z" transform="translate(-1261.277 -1228.247)" fill="#fd0"/>
            <path id="Trazado_101377" data-name="Trazado 101377" d="M1264.645,1230.182l-.764-1.843,0,0a.554.554,0,1,1,1.023-.424l0,0,.752,1.859a.545.545,0,0,1-1.009.414Z" transform="translate(-1251.015 -1203.009)" fill="#fd0"/>
            <path id="Trazado_101378" data-name="Trazado 101378" d="M1252.338,1201.474l-.8-1.826,0-.006a.57.57,0,0,1,1.044-.458l0,0,.791,1.844a.562.562,0,0,1-1.031.447Z" transform="translate(-1240.253 -1177.979)" fill="#fd0"/>
            <path id="Trazado_101379" data-name="Trazado 101379" d="M1239.4,1173.047l-.842-1.806,0-.007a.586.586,0,1,1,1.063-.5l0,0,.833,1.826a.578.578,0,0,1-1.05.484Z" transform="translate(-1228.937 -1153.194)" fill="#fd0"/>
            <path id="Trazado_101380" data-name="Trazado 101380" d="M1225.775,1144.944l-.887-1.784,0-.007a.6.6,0,0,1,1.079-.536l0,0,.879,1.8a.594.594,0,0,1-1.066.525Z" transform="translate(-1217.018 -1128.693)" fill="#fd0"/>
            <path id="Trazado_101381" data-name="Trazado 101381" d="M1211.414,1117.212l-.934-1.758,0-.008a.619.619,0,1,1,1.093-.581l0,0,.928,1.781a.611.611,0,0,1-1.081.569Z" transform="translate(-1204.455 -1104.516)" fill="#fd0"/>
            <path id="Trazado_101382" data-name="Trazado 101382" d="M1196.28,1089.895l-.984-1.73,0-.008a.635.635,0,1,1,1.1-.628l0,0,.979,1.755a.627.627,0,0,1-1.093.616Z" transform="translate(-1191.214 -1080.702)" fill="#fd0"/>
            <path id="Trazado_101383" data-name="Trazado 101383" d="M1180.346,1063.036l-1.036-1.7-.005-.009a.652.652,0,0,1,1.114-.678l0,0,1.031,1.725a.644.644,0,0,1-1.1.666Z" transform="translate(-1177.273 -1057.289)" fill="#fd0"/>
            <path id="Trazado_101384" data-name="Trazado 101384" d="M1165.132,1039l-.863-1.328,0-.007a.667.667,0,0,1,1.118-.727l0,0,.861,1.349a.66.66,0,0,1-1.11.715Z" transform="translate(-1164.157 -1036.64)" fill="#fd0"/>
          </g>
          <path id="Trazado_101385" data-name="Trazado 101385" d="M1331.277,1440.254a.5.5,0,0,1-.334-.129l-3.4-3.059a.5.5,0,1,1,.669-.743l2.519,2.267-.144-3.776a.5.5,0,0,1,.481-.519.508.508,0,0,1,.519.481l.189,4.958a.5.5,0,0,1-.5.519Z" transform="translate(-1306.383 -1383.145)" fill="#fd0"/>
        </g>
        <g id="Grupo_54022" data-name="Grupo 54022" transform="translate(15.876 55.187)">
          <g id="Grupo_54021" data-name="Grupo 54021">
            <path id="Trazado_101386" data-name="Trazado 101386" d="M1292.51,1476.843l-1.58-1.21-.008-.006a.359.359,0,1,1,.436-.569l.006,0,1.569,1.254a.338.338,0,0,1-.416.533Z" transform="translate(-1265.373 -1462.778)" fill="#fd0"/>
            <path id="Trazado_101387" data-name="Trazado 101387" d="M1267,1458.43l-1.646-1.116-.01-.007a.4.4,0,1,1,.449-.662l.007,0,1.641,1.163a.379.379,0,0,1-.431.623Z" transform="translate(-1243.053 -1446.739)" fill="#fd0"/>
            <path id="Trazado_101388" data-name="Trazado 101388" d="M1240.452,1441.555l-1.708-1.014-.011-.007a.441.441,0,0,1,.45-.758l.008,0,1.709,1.063a.42.42,0,0,1-.436.718Z" transform="translate(-1219.83 -1432.045)" fill="#fd0"/>
            <path id="Trazado_101389" data-name="Trazado 101389" d="M1212.954,1426.313l-1.765-.907-.013-.007a.482.482,0,1,1,.441-.858l.009,0,1.771.957a.461.461,0,0,1-.43.817Z" transform="translate(-1195.779 -1418.778)" fill="#fd0"/>
            <path id="Trazado_101390" data-name="Trazado 101390" d="M1184.611,1412.745l-1.816-.8-.014-.006a.523.523,0,1,1,.421-.958l.01,0,1.827.849a.5.5,0,0,1-.413.916Z" transform="translate(-1170.992 -1406.97)" fill="#fd0"/>
            <path id="Trazado_101391" data-name="Trazado 101391" d="M1155.53,1400.844l-1.859-.693-.015-.005a.564.564,0,0,1,.394-1.057l.011,0,1.874.742a.544.544,0,0,1-.389,1.015Z" transform="translate(-1145.566 -1396.614)" fill="#fd0"/>
            <path id="Trazado_101392" data-name="Trazado 101392" d="M1125.841,1390.571l-1.895-.589-.015,0a.605.605,0,1,1,.36-1.156l.012,0,1.912.638a.585.585,0,0,1-.358,1.113Z" transform="translate(-1119.614 -1387.674)" fill="#fd0"/>
            <path id="Trazado_101393" data-name="Trazado 101393" d="M1095.674,1381.861l-1.922-.491-.015,0a.647.647,0,0,1,.32-1.253l.013,0,1.942.539a.626.626,0,0,1-.321,1.209Z" transform="translate(-1093.25 -1380.093)" fill="#fd0"/>
          </g>
          <path id="Trazado_101394" data-name="Trazado 101394" d="M1291.451,1470.68l-.049,0-4.937-.488a.5.5,0,0,1,.1-.995l3.706.366-2.253-2.651a.5.5,0,1,1,.762-.647l3.055,3.594a.5.5,0,0,1-.381.824Z" transform="translate(-1261.218 -1455.025)" fill="#fd0"/>
        </g>
        <g id="Grupo_54024" data-name="Grupo 54024" transform="translate(15.014 80.13)">
          <g id="Grupo_54023" data-name="Grupo 54023" transform="translate(0 1.339)">
            <path id="Trazado_101395" data-name="Trazado 101395" d="M1303.626,1585.148l-.924.365-.006,0a.385.385,0,1,1-.283-.717l.006,0,.942-.354a.377.377,0,0,1,.272.7Z" transform="translate(-1274.433 -1584.418)" fill="#fd0"/>
            <path id="Trazado_101396" data-name="Trazado 101396" d="M1276.323,1593.591l-1.767.812-.012.005a.417.417,0,0,1-.348-.759l.006,0,1.8-.792a.4.4,0,0,1,.329.732Z" transform="translate(-1249.847 -1591.739)" fill="#fd0"/>
            <path id="Trazado_101397" data-name="Trazado 101397" d="M1248.933,1606.282l-1.714.917-.011.006a.45.45,0,0,1-.425-.793l.007,0,1.752-.9a.433.433,0,0,1,.4.767Z" transform="translate(-1225.965 -1602.753)" fill="#fd0"/>
            <path id="Trazado_101398" data-name="Trazado 101398" d="M1222.4,1620.607l-1.657,1.016-.012.007a.482.482,0,1,1-.5-.821l.007,0,1.7-1a.466.466,0,0,1,.481.8Z" transform="translate(-1202.835 -1615.194)" fill="#fd0"/>
            <path id="Trazado_101399" data-name="Trazado 101399" d="M1196.8,1636.467l-1.6,1.109-.012.008a.514.514,0,0,1-.586-.844l.007,0,1.637-1.1a.5.5,0,0,1,.561.822Z" transform="translate(-1180.513 -1628.975)" fill="#fd0"/>
            <path id="Trazado_101400" data-name="Trazado 101400" d="M1172.149,1653.771l-1.533,1.2-.011.009a.546.546,0,1,1-.672-.861l.007-.005,1.575-1.188a.53.53,0,0,1,.645.84Z" transform="translate(-1159.024 -1644.016)" fill="#fd0"/>
            <path id="Trazado_101401" data-name="Trazado 101401" d="M1148.522,1672.416l-1.466,1.276-.011.01a.578.578,0,1,1-.759-.872l.007-.006,1.509-1.271a.562.562,0,0,1,.731.854Z" transform="translate(-1138.429 -1660.229)" fill="#fd0"/>
            <path id="Trazado_101402" data-name="Trazado 101402" d="M1125.948,1692.3l-1.4,1.35-.011.011a.61.61,0,1,1-.848-.878l.007-.007,1.442-1.348a.594.594,0,0,1,.819.861Z" transform="translate(-1118.752 -1677.525)" fill="#fd0"/>
            <path id="Trazado_101403" data-name="Trazado 101403" d="M1104.459,1713.335l-1.326,1.418-.011.012a.642.642,0,0,1-.938-.878l.007-.008,1.371-1.419a.626.626,0,0,1,.908.863Z" transform="translate(-1100.021 -1695.824)" fill="#fd0"/>
            <path id="Trazado_101404" data-name="Trazado 101404" d="M1088.373,1735.42l-.645.753-.005.006a.667.667,0,0,1-1.012-.868l.007-.008.669-.755a.658.658,0,0,1,.993.865Z" transform="translate(-1086.549 -1715.044)" fill="#fd0"/>
          </g>
          <path id="Trazado_101405" data-name="Trazado 101405" d="M1293.192,1578.489a.5.5,0,0,1-.335-.871l2.761-2.5-3.477-.113a.5.5,0,0,1,.033-1l4.714.154a.5.5,0,0,1,.319.871l-3.679,3.328A.5.5,0,0,1,1293.192,1578.489Z" transform="translate(-1265.274 -1574.008)" fill="#fd0"/>
        </g>
      </g>
      <g id="Grupo_54036" data-name="Grupo 54036" transform="translate(27.862 147.198)">
        <g id="Grupo_54027" data-name="Grupo 54027" transform="translate(1.166 105.715)">
          <path id="Trazado_101406" data-name="Trazado 101406" d="M577.1,2696.7H478.389c-.546,0-6.909,3.032-6.909,3.032l4.962.295v46.816a1.952,1.952,0,0,0,1.947,1.947h97.133a2.288,2.288,0,0,0,2.288-2.288v-49.1A.707.707,0,0,0,577.1,2696.7Z" transform="translate(-470.988 -2696.697)" fill="#02dba8"/>
          <path id="Trazado_101407" data-name="Trazado 101407" d="M1234.193,2755.73l6.3-2.693a1.045,1.045,0,0,0,.634-.961v-49.9l-8.411,1.679Z" transform="translate(-1134.302 -2701.474)" fill="#02dba8"/>
          <rect id="Rectángulo_5217" data-name="Rectángulo 5217" width="101.343" height="51.972" rx="4.782" transform="translate(0 2.384)" fill="#01cc9d"/>
          <rect id="Rectángulo_5218" data-name="Rectángulo 5218" width="96.394" height="46.537" rx="2.805" transform="translate(2.644 5.073)" fill="#02dba8"/>
          <g id="Grupo_54026" data-name="Grupo 54026" transform="translate(6 5.058)">
            <rect id="Rectángulo_5219" data-name="Rectángulo 5219" width="2.977" height="46.537" transform="translate(0 0.015)" fill="#0a8366"/>
            <rect id="Rectángulo_5220" data-name="Rectángulo 5220" width="2.977" height="46.537" transform="translate(0.851 0.015)" fill="#09bf94"/>
            <rect id="Rectángulo_5221" data-name="Rectángulo 5221" width="2.977" height="46.537" transform="translate(7.182 0.015)" fill="#0a8366"/>
            <rect id="Rectángulo_5222" data-name="Rectángulo 5222" width="2.977" height="46.537" transform="translate(8.033 0.015)" fill="#09bf94"/>
            <rect id="Rectángulo_5223" data-name="Rectángulo 5223" width="2.977" height="46.537" transform="translate(14.332 0.044)" fill="#0a8366"/>
            <rect id="Rectángulo_5224" data-name="Rectángulo 5224" width="2.977" height="46.537" transform="translate(15.183 0.044)" fill="#09bf94"/>
            <rect id="Rectángulo_5225" data-name="Rectángulo 5225" width="2.977" height="46.537" transform="translate(21.514 0.044)" fill="#0a8366"/>
            <rect id="Rectángulo_5226" data-name="Rectángulo 5226" width="2.977" height="46.537" transform="translate(22.365 0.044)" fill="#09bf94"/>
            <rect id="Rectángulo_5227" data-name="Rectángulo 5227" width="2.977" height="46.537" transform="translate(28.413 0.044)" fill="#0a8366"/>
            <rect id="Rectángulo_5228" data-name="Rectángulo 5228" width="2.977" height="46.537" transform="translate(29.263 0.044)" fill="#09bf94"/>
            <rect id="Rectángulo_5229" data-name="Rectángulo 5229" width="2.977" height="46.537" transform="translate(35.595 0.044)" fill="#0a8366"/>
            <rect id="Rectángulo_5230" data-name="Rectángulo 5230" width="2.977" height="46.537" transform="translate(36.446 0.044)" fill="#09bf94"/>
            <rect id="Rectángulo_5231" data-name="Rectángulo 5231" width="2.977" height="46.537" transform="translate(42.667)" fill="#0a8366"/>
            <rect id="Rectángulo_5232" data-name="Rectángulo 5232" width="2.977" height="46.537" transform="translate(43.518)" fill="#09bf94"/>
            <rect id="Rectángulo_5233" data-name="Rectángulo 5233" width="2.977" height="46.537" transform="translate(49.849)" fill="#0a8366"/>
            <rect id="Rectángulo_5234" data-name="Rectángulo 5234" width="2.977" height="46.537" transform="translate(50.7)" fill="#09bf94"/>
            <rect id="Rectángulo_5235" data-name="Rectángulo 5235" width="2.977" height="46.537" transform="translate(56.999 0.029)" fill="#0a8366"/>
            <rect id="Rectángulo_5236" data-name="Rectángulo 5236" width="2.977" height="46.537" transform="translate(57.85 0.029)" fill="#09bf94"/>
            <rect id="Rectángulo_5237" data-name="Rectángulo 5237" width="2.977" height="46.537" transform="translate(64.181 0.029)" fill="#0a8366"/>
            <rect id="Rectángulo_5238" data-name="Rectángulo 5238" width="2.977" height="46.537" transform="translate(65.032 0.029)" fill="#09bf94"/>
            <rect id="Rectángulo_5239" data-name="Rectángulo 5239" width="2.977" height="46.537" transform="translate(71.08 0.029)" fill="#0a8366"/>
            <rect id="Rectángulo_5240" data-name="Rectángulo 5240" width="2.977" height="46.537" transform="translate(71.931 0.029)" fill="#09bf94"/>
            <rect id="Rectángulo_5241" data-name="Rectángulo 5241" width="2.977" height="46.537" transform="translate(78.262 0.029)" fill="#0a8366"/>
            <rect id="Rectángulo_5242" data-name="Rectángulo 5242" width="2.977" height="46.537" transform="translate(79.113 0.029)" fill="#09bf94"/>
            <rect id="Rectángulo_5243" data-name="Rectángulo 5243" width="2.977" height="46.537" transform="translate(85.586 0.029)" fill="#0a8366"/>
            <rect id="Rectángulo_5244" data-name="Rectángulo 5244" width="2.977" height="46.537" transform="translate(86.436 0.029)" fill="#09bf94"/>
          </g>
        </g>
        <g id="Grupo_54123" data-name="Grupo 54123" transform="translate(104.886 52.859)">
          <path id="Trazado_101406-2" data-name="Trazado 101406" d="M577.1,2696.7H478.389c-.546,0-6.909,3.032-6.909,3.032l4.962.295v46.816a1.952,1.952,0,0,0,1.947,1.947h97.133a2.288,2.288,0,0,0,2.288-2.288v-49.1A.707.707,0,0,0,577.1,2696.7Z" transform="translate(-470.988 -2696.697)" fill="#02dba8"/>
          <path id="Trazado_101407-2" data-name="Trazado 101407" d="M1234.193,2755.73l6.3-2.693a1.045,1.045,0,0,0,.634-.961v-49.9l-8.411,1.679Z" transform="translate(-1134.302 -2701.474)" fill="#02dba8"/>
          <rect id="Rectángulo_5217-2" data-name="Rectángulo 5217" width="101.343" height="51.972" rx="4.782" transform="translate(0 2.384)" fill="#01cc9d"/>
          <rect id="Rectángulo_5218-2" data-name="Rectángulo 5218" width="96.394" height="46.537" rx="2.805" transform="translate(2.644 5.073)" fill="#02dba8"/>
          <g id="Grupo_54026-2" data-name="Grupo 54026" transform="translate(6 5.058)">
            <rect id="Rectángulo_5219-2" data-name="Rectángulo 5219" width="2.977" height="46.537" transform="translate(0 0.015)" fill="#0a8366"/>
            <rect id="Rectángulo_5220-2" data-name="Rectángulo 5220" width="2.977" height="46.537" transform="translate(0.851 0.015)" fill="#09bf94"/>
            <rect id="Rectángulo_5221-2" data-name="Rectángulo 5221" width="2.977" height="46.537" transform="translate(7.182 0.015)" fill="#0a8366"/>
            <rect id="Rectángulo_5222-2" data-name="Rectángulo 5222" width="2.977" height="46.537" transform="translate(8.033 0.015)" fill="#09bf94"/>
            <rect id="Rectángulo_5223-2" data-name="Rectángulo 5223" width="2.977" height="46.537" transform="translate(14.332 0.044)" fill="#0a8366"/>
            <rect id="Rectángulo_5224-2" data-name="Rectángulo 5224" width="2.977" height="46.537" transform="translate(15.183 0.044)" fill="#09bf94"/>
            <rect id="Rectángulo_5225-2" data-name="Rectángulo 5225" width="2.977" height="46.537" transform="translate(21.514 0.044)" fill="#0a8366"/>
            <rect id="Rectángulo_5226-2" data-name="Rectángulo 5226" width="2.977" height="46.537" transform="translate(22.365 0.044)" fill="#09bf94"/>
            <rect id="Rectángulo_5227-2" data-name="Rectángulo 5227" width="2.977" height="46.537" transform="translate(28.413 0.044)" fill="#0a8366"/>
            <rect id="Rectángulo_5228-2" data-name="Rectángulo 5228" width="2.977" height="46.537" transform="translate(29.263 0.044)" fill="#09bf94"/>
            <rect id="Rectángulo_5229-2" data-name="Rectángulo 5229" width="2.977" height="46.537" transform="translate(35.595 0.044)" fill="#0a8366"/>
            <rect id="Rectángulo_5230-2" data-name="Rectángulo 5230" width="2.977" height="46.537" transform="translate(36.446 0.044)" fill="#09bf94"/>
            <rect id="Rectángulo_5231-2" data-name="Rectángulo 5231" width="2.977" height="46.537" transform="translate(42.667)" fill="#0a8366"/>
            <rect id="Rectángulo_5232-2" data-name="Rectángulo 5232" width="2.977" height="46.537" transform="translate(43.518)" fill="#09bf94"/>
            <rect id="Rectángulo_5233-2" data-name="Rectángulo 5233" width="2.977" height="46.537" transform="translate(49.849)" fill="#0a8366"/>
            <rect id="Rectángulo_5234-2" data-name="Rectángulo 5234" width="2.977" height="46.537" transform="translate(50.7)" fill="#09bf94"/>
            <rect id="Rectángulo_5235-2" data-name="Rectángulo 5235" width="2.977" height="46.537" transform="translate(56.999 0.029)" fill="#0a8366"/>
            <rect id="Rectángulo_5236-2" data-name="Rectángulo 5236" width="2.977" height="46.537" transform="translate(57.85 0.029)" fill="#09bf94"/>
            <rect id="Rectángulo_5237-2" data-name="Rectángulo 5237" width="2.977" height="46.537" transform="translate(64.181 0.029)" fill="#0a8366"/>
            <rect id="Rectángulo_5238-2" data-name="Rectángulo 5238" width="2.977" height="46.537" transform="translate(65.032 0.029)" fill="#09bf94"/>
            <rect id="Rectángulo_5239-2" data-name="Rectángulo 5239" width="2.977" height="46.537" transform="translate(71.08 0.029)" fill="#0a8366"/>
            <rect id="Rectángulo_5240-2" data-name="Rectángulo 5240" width="2.977" height="46.537" transform="translate(71.931 0.029)" fill="#09bf94"/>
            <rect id="Rectángulo_5241-2" data-name="Rectángulo 5241" width="2.977" height="46.537" transform="translate(78.262 0.029)" fill="#0a8366"/>
            <rect id="Rectángulo_5242-2" data-name="Rectángulo 5242" width="2.977" height="46.537" transform="translate(79.113 0.029)" fill="#09bf94"/>
            <rect id="Rectángulo_5243-2" data-name="Rectángulo 5243" width="2.977" height="46.537" transform="translate(85.586 0.029)" fill="#0a8366"/>
            <rect id="Rectángulo_5244-2" data-name="Rectángulo 5244" width="2.977" height="46.537" transform="translate(86.436 0.029)" fill="#09bf94"/>
          </g>
        </g>
        <g id="Grupo_54029" data-name="Grupo 54029" transform="translate(0 52.087)">
          <path id="Trazado_101408" data-name="Trazado 101408" d="M568.036,2279.788H469.321c-.546,0-6.909,3.032-6.909,3.032l4.962.295v46.816a1.952,1.952,0,0,0,1.947,1.947h97.134a2.288,2.288,0,0,0,2.287-2.288v-49.1A.707.707,0,0,0,568.036,2279.788Z" transform="translate(-461.92 -2279.788)" fill="#0da3ad"/>
          <path id="Trazado_101409" data-name="Trazado 101409" d="M1225.125,2338.82l6.3-2.693a1.045,1.045,0,0,0,.634-.961v-49.9l-8.41,1.679Z" transform="translate(-1125.235 -2284.564)" fill="#0da3ad"/>
          <rect id="Rectángulo_5245" data-name="Rectángulo 5245" width="101.343" height="51.972" rx="4.782" transform="translate(0 2.384)" fill="#02cddb"/>
          <rect id="Rectángulo_5246" data-name="Rectángulo 5246" width="96.394" height="46.537" rx="2.805" transform="translate(2.644 5.073)" fill="#3ce3ef"/>
          <g id="Grupo_54028" data-name="Grupo 54028" transform="translate(6 5.058)">
            <rect id="Rectángulo_5247" data-name="Rectángulo 5247" width="2.977" height="46.537" transform="translate(0 0.015)" fill="#147d84"/>
            <rect id="Rectángulo_5248" data-name="Rectángulo 5248" width="2.977" height="46.537" transform="translate(0.851 0.015)" fill="#0da3ad"/>
            <rect id="Rectángulo_5249" data-name="Rectángulo 5249" width="2.977" height="46.537" transform="translate(7.182 0.015)" fill="#147d84"/>
            <rect id="Rectángulo_5250" data-name="Rectángulo 5250" width="2.977" height="46.537" transform="translate(8.033 0.015)" fill="#0da3ad"/>
            <rect id="Rectángulo_5251" data-name="Rectángulo 5251" width="2.977" height="46.537" transform="translate(14.332 0.044)" fill="#147d84"/>
            <rect id="Rectángulo_5252" data-name="Rectángulo 5252" width="2.977" height="46.537" transform="translate(15.183 0.044)" fill="#0da3ad"/>
            <rect id="Rectángulo_5253" data-name="Rectángulo 5253" width="2.977" height="46.537" transform="translate(21.514 0.044)" fill="#147d84"/>
            <rect id="Rectángulo_5254" data-name="Rectángulo 5254" width="2.977" height="46.537" transform="translate(22.365 0.044)" fill="#0da3ad"/>
            <rect id="Rectángulo_5255" data-name="Rectángulo 5255" width="2.977" height="46.537" transform="translate(28.413 0.044)" fill="#147d84"/>
            <rect id="Rectángulo_5256" data-name="Rectángulo 5256" width="2.977" height="46.537" transform="translate(29.263 0.044)" fill="#0da3ad"/>
            <path id="Trazado_101506" data-name="Trazado 101506" d="M0,0H2.977V46.537H0Z" transform="translate(35.595 0.044)" fill="#147d84"/>
            <rect id="Rectángulo_5258" data-name="Rectángulo 5258" width="2.977" height="46.537" transform="translate(36.446 0.044)" fill="#0da3ad"/>
            <rect id="Rectángulo_5259" data-name="Rectángulo 5259" width="2.977" height="46.537" transform="translate(42.667)" fill="#147d84"/>
            <rect id="Rectángulo_5260" data-name="Rectángulo 5260" width="2.977" height="46.537" transform="translate(43.518)" fill="#0da3ad"/>
            <rect id="Rectángulo_5261" data-name="Rectángulo 5261" width="2.977" height="46.537" transform="translate(49.849)" fill="#147d84"/>
            <rect id="Rectángulo_5262" data-name="Rectángulo 5262" width="2.977" height="46.537" transform="translate(50.7)" fill="#0da3ad"/>
            <rect id="Rectángulo_5263" data-name="Rectángulo 5263" width="2.977" height="46.537" transform="translate(56.999 0.029)" fill="#147d84"/>
            <rect id="Rectángulo_5264" data-name="Rectángulo 5264" width="2.977" height="46.537" transform="translate(57.85 0.029)" fill="#0da3ad"/>
            <rect id="Rectángulo_5265" data-name="Rectángulo 5265" width="2.977" height="46.537" transform="translate(64.182 0.029)" fill="#147d84"/>
            <rect id="Rectángulo_5266" data-name="Rectángulo 5266" width="2.977" height="46.537" transform="translate(65.032 0.029)" fill="#0da3ad"/>
            <rect id="Rectángulo_5267" data-name="Rectángulo 5267" width="2.977" height="46.537" transform="translate(71.08 0.029)" fill="#147d84"/>
            <rect id="Rectángulo_5268" data-name="Rectángulo 5268" width="2.977" height="46.537" transform="translate(71.931 0.029)" fill="#0da3ad"/>
            <rect id="Rectángulo_5269" data-name="Rectángulo 5269" width="2.977" height="46.537" transform="translate(78.262 0.029)" fill="#147d84"/>
            <rect id="Rectángulo_5270" data-name="Rectángulo 5270" width="2.977" height="46.537" transform="translate(79.113 0.029)" fill="#0da3ad"/>
            <rect id="Rectángulo_5271" data-name="Rectángulo 5271" width="2.977" height="46.537" transform="translate(85.586 0.029)" fill="#147d84"/>
            <rect id="Rectángulo_5272" data-name="Rectángulo 5272" width="2.977" height="46.537" transform="translate(86.436 0.029)" fill="#0da3ad"/>
          </g>
        </g>
        <g id="Grupo_54122" data-name="Grupo 54122" transform="translate(104 0)">
          <path id="Trazado_101408-2" data-name="Trazado 101408" d="M568.036,2279.788H469.321c-.546,0-6.909,3.032-6.909,3.032l4.962.295v46.816a1.952,1.952,0,0,0,1.947,1.947h97.134a2.288,2.288,0,0,0,2.287-2.288v-49.1A.707.707,0,0,0,568.036,2279.788Z" transform="translate(-461.92 -2279.788)" fill="#0da3ad"/>
          <path id="Trazado_101409-2" data-name="Trazado 101409" d="M1225.125,2338.82l6.3-2.693a1.045,1.045,0,0,0,.634-.961v-49.9l-8.41,1.679Z" transform="translate(-1125.235 -2284.564)" fill="#0da3ad"/>
          <rect id="Rectángulo_5245-2" data-name="Rectángulo 5245" width="101.343" height="51.972" rx="4.782" transform="translate(0 2.384)" fill="#02cddb"/>
          <rect id="Rectángulo_5246-2" data-name="Rectángulo 5246" width="96.394" height="46.537" rx="2.805" transform="translate(2.644 5.073)" fill="#3ce3ef"/>
          <g id="Grupo_54028-2" data-name="Grupo 54028" transform="translate(6 5.058)">
            <rect id="Rectángulo_5247-2" data-name="Rectángulo 5247" width="2.977" height="46.537" transform="translate(0 0.015)" fill="#147d84"/>
            <rect id="Rectángulo_5248-2" data-name="Rectángulo 5248" width="2.977" height="46.537" transform="translate(0.851 0.015)" fill="#0da3ad"/>
            <rect id="Rectángulo_5249-2" data-name="Rectángulo 5249" width="2.977" height="46.537" transform="translate(7.182 0.015)" fill="#147d84"/>
            <rect id="Rectángulo_5250-2" data-name="Rectángulo 5250" width="2.977" height="46.537" transform="translate(8.033 0.015)" fill="#0da3ad"/>
            <rect id="Rectángulo_5251-2" data-name="Rectángulo 5251" width="2.977" height="46.537" transform="translate(14.332 0.044)" fill="#147d84"/>
            <rect id="Rectángulo_5252-2" data-name="Rectángulo 5252" width="2.977" height="46.537" transform="translate(15.183 0.044)" fill="#0da3ad"/>
            <rect id="Rectángulo_5253-2" data-name="Rectángulo 5253" width="2.977" height="46.537" transform="translate(21.514 0.044)" fill="#147d84"/>
            <rect id="Rectángulo_5254-2" data-name="Rectángulo 5254" width="2.977" height="46.537" transform="translate(22.365 0.044)" fill="#0da3ad"/>
            <rect id="Rectángulo_5255-2" data-name="Rectángulo 5255" width="2.977" height="46.537" transform="translate(28.413 0.044)" fill="#147d84"/>
            <rect id="Rectángulo_5256-2" data-name="Rectángulo 5256" width="2.977" height="46.537" transform="translate(29.263 0.044)" fill="#0da3ad"/>
            <path id="Trazado_101506-2" data-name="Trazado 101506" d="M0,0H2.977V46.537H0Z" transform="translate(35.595 0.044)" fill="#147d84"/>
            <rect id="Rectángulo_5258-2" data-name="Rectángulo 5258" width="2.977" height="46.537" transform="translate(36.446 0.044)" fill="#0da3ad"/>
            <rect id="Rectángulo_5259-2" data-name="Rectángulo 5259" width="2.977" height="46.537" transform="translate(42.667)" fill="#147d84"/>
            <rect id="Rectángulo_5260-2" data-name="Rectángulo 5260" width="2.977" height="46.537" transform="translate(43.518)" fill="#0da3ad"/>
            <rect id="Rectángulo_5261-2" data-name="Rectángulo 5261" width="2.977" height="46.537" transform="translate(49.849)" fill="#147d84"/>
            <rect id="Rectángulo_5262-2" data-name="Rectángulo 5262" width="2.977" height="46.537" transform="translate(50.7)" fill="#0da3ad"/>
            <rect id="Rectángulo_5263-2" data-name="Rectángulo 5263" width="2.977" height="46.537" transform="translate(56.999 0.029)" fill="#147d84"/>
            <rect id="Rectángulo_5264-2" data-name="Rectángulo 5264" width="2.977" height="46.537" transform="translate(57.85 0.029)" fill="#0da3ad"/>
            <rect id="Rectángulo_5265-2" data-name="Rectángulo 5265" width="2.977" height="46.537" transform="translate(64.182 0.029)" fill="#147d84"/>
            <rect id="Rectángulo_5266-2" data-name="Rectángulo 5266" width="2.977" height="46.537" transform="translate(65.032 0.029)" fill="#0da3ad"/>
            <rect id="Rectángulo_5267-2" data-name="Rectángulo 5267" width="2.977" height="46.537" transform="translate(71.08 0.029)" fill="#147d84"/>
            <rect id="Rectángulo_5268-2" data-name="Rectángulo 5268" width="2.977" height="46.537" transform="translate(71.931 0.029)" fill="#0da3ad"/>
            <rect id="Rectángulo_5269-2" data-name="Rectángulo 5269" width="2.977" height="46.537" transform="translate(78.262 0.029)" fill="#147d84"/>
            <rect id="Rectángulo_5270-2" data-name="Rectángulo 5270" width="2.977" height="46.537" transform="translate(79.113 0.029)" fill="#0da3ad"/>
            <rect id="Rectángulo_5271-2" data-name="Rectángulo 5271" width="2.977" height="46.537" transform="translate(85.586 0.029)" fill="#147d84"/>
            <rect id="Rectángulo_5272-2" data-name="Rectángulo 5272" width="2.977" height="46.537" transform="translate(86.436 0.029)" fill="#0da3ad"/>
          </g>
        </g>
        <g id="Grupo_54031" data-name="Grupo 54031" transform="translate(104.886 104.582)">
          <path id="Trazado_101410" data-name="Trazado 101410" d="M1383.431,2687.886h-98.716c-.546,0-6.909,3.032-6.909,3.032l4.962.295v46.816a1.952,1.952,0,0,0,1.947,1.947h97.134a2.288,2.288,0,0,0,2.287-2.288v-49.1A.707.707,0,0,0,1383.431,2687.886Z" transform="translate(-1277.314 -2687.886)" fill="url(#linear-gradient-2)"/>
          <path id="Trazado_101411" data-name="Trazado 101411" d="M2040.519,2746.918l6.3-2.693a1.045,1.045,0,0,0,.634-.961v-49.9l-8.41,1.679Z" transform="translate(-1940.629 -2692.662)" fill="url(#linear-gradient-3)"/>
          <rect id="Rectángulo_5273" data-name="Rectángulo 5273" width="101.343" height="51.972" rx="4.782" transform="translate(0 2.384)" fill="url(#linear-gradient-4)"/>
          <rect id="Rectángulo_5274" data-name="Rectángulo 5274" width="96.394" height="46.537" rx="2.805" transform="translate(2.644 5.073)" fill="url(#linear-gradient-5)"/>
          <g id="Grupo_54030" data-name="Grupo 54030" transform="translate(6 5.058)">
            <rect id="Rectángulo_5275" data-name="Rectángulo 5275" width="2.977" height="46.537" transform="translate(0 0.015)" fill="url(#linear-gradient-6)"/>
            <rect id="Rectángulo_5276" data-name="Rectángulo 5276" width="2.977" height="46.537" transform="translate(0.851 0.015)" fill="url(#linear-gradient-7)"/>
            <rect id="Rectángulo_5277" data-name="Rectángulo 5277" width="2.977" height="46.537" transform="translate(7.182 0.015)" fill="url(#linear-gradient-6)"/>
            <rect id="Rectángulo_5278" data-name="Rectángulo 5278" width="2.977" height="46.537" transform="translate(8.033 0.015)" fill="url(#linear-gradient-9)"/>
            <rect id="Rectángulo_5279" data-name="Rectángulo 5279" width="2.977" height="46.537" transform="translate(14.332 0.044)" fill="url(#linear-gradient-10)"/>
            <rect id="Rectángulo_5280" data-name="Rectángulo 5280" width="2.977" height="46.537" transform="translate(15.183 0.044)" fill="url(#linear-gradient-11)"/>
            <rect id="Rectángulo_5281" data-name="Rectángulo 5281" width="2.977" height="46.537" transform="translate(21.514 0.044)" fill="url(#linear-gradient-10)"/>
            <rect id="Rectángulo_5282" data-name="Rectángulo 5282" width="2.977" height="46.537" transform="translate(22.365 0.044)" fill="url(#linear-gradient-13)"/>
            <rect id="Rectángulo_5283" data-name="Rectángulo 5283" width="2.977" height="46.537" transform="translate(28.413 0.044)" fill="url(#linear-gradient-10)"/>
            <rect id="Rectángulo_5284" data-name="Rectángulo 5284" width="2.977" height="46.537" transform="translate(29.263 0.044)" fill="url(#linear-gradient-15)"/>
            <rect id="Rectángulo_5285" data-name="Rectángulo 5285" width="2.977" height="46.537" transform="translate(35.595 0.044)" fill="url(#linear-gradient-10)"/>
            <rect id="Rectángulo_5286" data-name="Rectángulo 5286" width="2.977" height="46.537" transform="translate(36.446 0.044)" fill="url(#linear-gradient-17)"/>
            <rect id="Rectángulo_5287" data-name="Rectángulo 5287" width="2.977" height="46.537" transform="translate(42.667)" fill="url(#linear-gradient-6)"/>
            <rect id="Rectángulo_5288" data-name="Rectángulo 5288" width="2.977" height="46.537" transform="translate(43.518)" fill="url(#linear-gradient-19)"/>
            <rect id="Rectángulo_5289" data-name="Rectángulo 5289" width="2.977" height="46.537" transform="translate(49.849)" fill="url(#linear-gradient-6)"/>
            <rect id="Rectángulo_5290" data-name="Rectángulo 5290" width="2.977" height="46.537" transform="translate(50.7)" fill="url(#linear-gradient-21)"/>
            <rect id="Rectángulo_5291" data-name="Rectángulo 5291" width="2.977" height="46.537" transform="translate(56.999 0.029)" fill="url(#linear-gradient-10)"/>
            <rect id="Rectángulo_5292" data-name="Rectángulo 5292" width="2.977" height="46.537" transform="translate(57.85 0.029)" fill="url(#linear-gradient-23)"/>
            <rect id="Rectángulo_5293" data-name="Rectángulo 5293" width="2.977" height="46.537" transform="translate(64.181 0.029)" fill="url(#linear-gradient-10)"/>
            <rect id="Rectángulo_5294" data-name="Rectángulo 5294" width="2.977" height="46.537" transform="translate(65.032 0.029)" fill="url(#linear-gradient-25)"/>
            <rect id="Rectángulo_5295" data-name="Rectángulo 5295" width="2.977" height="46.537" transform="translate(71.08 0.029)" fill="url(#linear-gradient-10)"/>
            <rect id="Rectángulo_5296" data-name="Rectángulo 5296" width="2.977" height="46.537" transform="translate(71.931 0.029)" fill="url(#linear-gradient-27)"/>
            <rect id="Rectángulo_5297" data-name="Rectángulo 5297" width="2.977" height="46.537" transform="translate(78.262 0.029)" fill="url(#linear-gradient-10)"/>
            <rect id="Rectángulo_5298" data-name="Rectángulo 5298" width="2.977" height="46.537" transform="translate(79.113 0.029)" fill="url(#linear-gradient-29)"/>
            <rect id="Rectángulo_5299" data-name="Rectángulo 5299" width="2.977" height="46.537" transform="translate(85.586 0.029)" fill="url(#linear-gradient-10)"/>
            <rect id="Rectángulo_5300" data-name="Rectángulo 5300" width="2.977" height="46.537" transform="translate(86.436 0.029)" fill="url(#linear-gradient-31)"/>
          </g>
        </g>
      </g>
      <g id="Grupo_54117" data-name="Grupo 54117" transform="translate(226.56 119.28) rotate(-11)">
        <path id="Trazado_101472" data-name="Trazado 101472" d="M110.963,12.184,32.711.1a8.2,8.2,0,0,0-9.285,6.444L.127,119.1a6.049,6.049,0,0,0,4.892,7.187l89.434,15.483a5.742,5.742,0,0,0,6.654-4.781L118.743,22.807A9.311,9.311,0,0,0,110.963,12.184Z" transform="translate(0 11.11)" fill="#02cddb"/>
        <path id="Trazado_101473" data-name="Trazado 101473" d="M.221,19.288h0l10.056,1.42a6.3,6.3,0,0,0,7.085-5.26L19.7.3a.259.259,0,0,0-.216-.3.263.263,0,0,0-.3.216L16.852,15.37a5.784,5.784,0,0,1-6.5,4.826L.295,18.776a.259.259,0,0,0-.073.512Z" transform="translate(81.417 129.68)" fill="#fff"/>
        <path id="Trazado_101474" data-name="Trazado 101474" d="M.221,2.969a.259.259,0,0,0,.293-.216L.893.3A.259.259,0,0,0,.677,0h0A.259.259,0,0,0,.382.219L0,2.673a.259.259,0,0,0,.216.3Z" transform="translate(101.332 122.531)" fill="#bdd0fb"/>
        <g id="Grupo_54071" data-name="Grupo 54071" transform="translate(5.753 13.85)">
          <path id="Trazado_101475" data-name="Trazado 101475" d="M105.11,8.487c-10.91-.2-48.348-1.4-78.37-8.42a2.5,2.5,0,0,0-3.021,1.92L.062,115.007a2.878,2.878,0,0,0,2.21,3.4c12.661,2.73,64.833,13.781,83.906,14.714a2.28,2.28,0,0,0,2.361-1.919L107.73,11.621A2.7,2.7,0,0,0,105.11,8.487Z" fill="#7d97f4"/>
          <path id="Trazado_101476" data-name="Trazado 101476" d="M101.153,8.167c-10.5-.194-46.528-1.343-75.418-8.1a2.406,2.406,0,0,0-2.908,1.848L.059,110.677a2.769,2.769,0,0,0,2.127,3.275c12.185,2.627,62.391,13.262,80.746,14.16a2.194,2.194,0,0,0,2.273-1.846L103.674,11.183A2.6,2.6,0,0,0,101.153,8.167Z" transform="translate(2.357 3.099)" fill="#fff" opacity="0.6"/>
          <g id="Grupo_54064" data-name="Grupo 54064" transform="translate(26.838 11.432)" opacity="0.6">
            <path id="Trazado_101477" data-name="Trazado 101477" d="M1.281,1.6C.486,1.478-.085,1.026.01.6S.835-.088,1.63.028L66.773,9.565c.795.116.993.628.441,1.138a3.334,3.334,0,0,1-2.448.7Z" fill="#fff"/>
          </g>
          <g id="Grupo_54065" data-name="Grupo 54065" transform="translate(26.16 15.815)" opacity="0.6">
            <path id="Trazado_101478" data-name="Trazado 101478" d="M66.773,9.565c.795.116.993.628.44,1.138a3.332,3.332,0,0,1-2.448.7L1.28,1.6C.486,1.478-.085,1.026.01.6S.835-.088,1.63.028Z" fill="#fff"/>
          </g>
          <path id="Trazado_101479" data-name="Trazado 101479" d="M.024,9.548C.577,6.129,1.136,2.927,1.911,1.323A2.507,2.507,0,0,1,4.673.049l.036.007C6.328.381,9.047,1.135,11.445,1.8c1.1.306,2.1.584,2.833.773h0a1.978,1.978,0,0,1,1.229.923,1.647,1.647,0,0,1,.154,1.289l-2.15,7.2a2.416,2.416,0,0,1-2.8,1.566L1.934,11.994l-.024,0A2.224,2.224,0,0,1,.024,9.548Zm14.07-6.271c-.732-.19-1.738-.469-2.844-.777C8.982,1.872,6.159,1.089,4.565.769a1.8,1.8,0,0,0-2,.87C1.834,3.155,1.286,6.3.742,9.665a1.5,1.5,0,0,0,1.3,1.61l.017,0,8.773,1.561a1.693,1.693,0,0,0,1.979-1.058l2.15-7.2a.925.925,0,0,0-.091-.723,1.241,1.241,0,0,0-.778-.576Z" transform="translate(74.099 51.553)" fill="#fff"/>
          <path id="Trazado_101480" data-name="Trazado 101480" d="M11.046,2.047C9.23,1.575,5.307.419,3.415.038A1.727,1.727,0,0,0,1.5.892,30.3,30.3,0,0,0,.016,7.385a1.483,1.483,0,0,0,1.29,1.623l7.011,1.247a1.645,1.645,0,0,0,1.911-1.048L11.946,3.45A1.157,1.157,0,0,0,11.046,2.047Z" transform="translate(76.068 53.345)" fill="#fff" opacity="0.6"/>
          <g id="Grupo_54066" data-name="Grupo 54066" transform="translate(23.233 47.163)" opacity="0.6">
            <path id="Trazado_101481" data-name="Trazado 101481" d="M45.8,7.194a1.04,1.04,0,0,1,.815,1.554l-.723,1.521a2,2,0,0,1-2.062,1.05L1.166,3.307a1.427,1.427,0,0,1-1.135-1.7l.083-.4A1.549,1.549,0,0,1,1.857.019Z" fill="#fff"/>
          </g>
          <path id="Trazado_101482" data-name="Trazado 101482" d="M.629,8.785h0a1.952,1.952,0,0,1,2.5.173l2.96,3.057a.6.6,0,0,0,.979-.2L10.261.411a.649.649,0,0,1,1.222.038A18.741,18.741,0,0,1,7.614,16.04S4.08,15.47.336,10.888A1.431,1.431,0,0,1,.629,8.785Z" transform="translate(76.831 47.486)" fill="#fd0"/>
          <path id="Trazado_101483" data-name="Trazado 101483" d="M.024,9.548C.577,6.129,1.137,2.927,1.911,1.323A2.506,2.506,0,0,1,4.673.049l.036.007C6.329.381,9.047,1.135,11.446,1.8c1.1.305,2.1.583,2.832.772h0a1.976,1.976,0,0,1,1.229.923,1.646,1.646,0,0,1,.154,1.289l-2.15,7.2a2.415,2.415,0,0,1-2.8,1.566l-8.774-1.56-.024,0A2.224,2.224,0,0,1,.024,9.548ZM14.095,3.277c-.732-.19-1.738-.469-2.844-.776C8.982,1.872,6.159,1.089,4.566.769a1.8,1.8,0,0,0-2,.87C1.834,3.155,1.286,6.3.742,9.664a1.5,1.5,0,0,0,1.3,1.611l.017,0,8.774,1.56a1.692,1.692,0,0,0,1.979-1.058l2.15-7.2a.927.927,0,0,0-.091-.723,1.246,1.246,0,0,0-.779-.576Z" transform="translate(76.976 31.747)" fill="#fff"/>
          <path id="Trazado_101484" data-name="Trazado 101484" d="M11.047,2.046C9.23,1.575,5.308.418,3.416.039A1.725,1.725,0,0,0,1.5.892,30.348,30.348,0,0,0,.016,7.386a1.482,1.482,0,0,0,1.29,1.622l7.011,1.247a1.645,1.645,0,0,0,1.911-1.049l1.718-5.756A1.157,1.157,0,0,0,11.047,2.046Z" transform="translate(78.945 33.539)" fill="#fff" opacity="0.6"/>
          <g id="Grupo_54067" data-name="Grupo 54067" transform="translate(26.109 27.357)" opacity="0.6">
            <path id="Trazado_101485" data-name="Trazado 101485" d="M45.8,7.193a1.041,1.041,0,0,1,.815,1.555l-.723,1.521a2,2,0,0,1-2.062,1.05L1.166,3.307a1.427,1.427,0,0,1-1.135-1.7l.083-.4A1.548,1.548,0,0,1,1.856.019Z" fill="#fff"/>
          </g>
          <path id="Trazado_101486" data-name="Trazado 101486" d="M.628,8.785h0a1.953,1.953,0,0,1,2.5.172l2.96,3.057a.6.6,0,0,0,.979-.2L10.261.411a.649.649,0,0,1,1.221.038A18.739,18.739,0,0,1,7.614,16.04S4.08,15.47.335,10.888A1.432,1.432,0,0,1,.628,8.785Z" transform="translate(81.583 28.045)" fill="#fd0"/>
          <path id="Trazado_101487" data-name="Trazado 101487" d="M.024,9.548C.577,6.129,1.136,2.927,1.911,1.323A2.5,2.5,0,0,1,4.672.049l.036.007C6.328.381,9.046,1.135,11.445,1.8c1.1.305,2.1.583,2.833.772h0a1.977,1.977,0,0,1,1.229.923,1.645,1.645,0,0,1,.153,1.289l-2.149,7.2a2.416,2.416,0,0,1-2.8,1.566l-8.774-1.56-.024,0A2.223,2.223,0,0,1,.024,9.548Zm14.07-6.271c-.732-.19-1.738-.469-2.843-.776C8.982,1.872,6.158,1.089,4.565.77a1.809,1.809,0,0,0-2,.87C1.833,3.155,1.285,6.3.742,9.664a1.5,1.5,0,0,0,1.3,1.611l.018,0,8.773,1.561a1.692,1.692,0,0,0,1.979-1.058l2.15-7.2a.921.921,0,0,0-.09-.723,1.244,1.244,0,0,0-.778-.576Z" transform="translate(70.574 70.324)" fill="#fff"/>
          <path id="Trazado_101488" data-name="Trazado 101488" d="M1.079,2.464C3.158,1.9,7.651.5,9.818.047a1.943,1.943,0,0,1,2.2,1.028c.71,1.547,1.235,4.806,1.7,7.818a1.769,1.769,0,0,1-1.477,1.953l-8.03,1.5a1.873,1.873,0,0,1-2.188-1.263L.048,4.153A1.4,1.4,0,0,1,1.079,2.464Z" transform="translate(71.087 70.46)" fill="#fff" opacity="0.6"/>
          <g id="Grupo_54068" data-name="Grupo 54068" transform="translate(19.708 65.934)" opacity="0.6">
            <path id="Trazado_101489" data-name="Trazado 101489" d="M45.8,7.193a1.04,1.04,0,0,1,.815,1.554l-.723,1.521a2,2,0,0,1-2.062,1.05L1.166,3.307a1.426,1.426,0,0,1-1.135-1.7l.083-.4A1.548,1.548,0,0,1,1.857.019Z" fill="#fff"/>
          </g>
          <path id="Trazado_101490" data-name="Trazado 101490" d="M.628,8.785h0a1.952,1.952,0,0,1,2.5.173l2.959,3.057a.6.6,0,0,0,.98-.2L10.261.411a.649.649,0,0,1,1.222.038,18.743,18.743,0,0,1-3.869,15.59S4.08,15.47.335,10.888A1.431,1.431,0,0,1,.628,8.785Z" transform="translate(73.067 66.21)" fill="#fd0"/>
          <path id="Trazado_101491" data-name="Trazado 101491" d="M.024,9.543C.576,6.125,1.136,2.923,1.91,1.319A2.542,2.542,0,0,1,4.708.052C6.328.377,9.167,1.164,11.448,1.8c1.1.3,2.1.583,2.83.771h0a1.98,1.98,0,0,1,1.229.924,1.649,1.649,0,0,1,.154,1.289l-2.15,7.2a2.416,2.416,0,0,1-2.8,1.566L1.933,11.99l-.023,0A2.225,2.225,0,0,1,.024,9.543Zm14.07-6.271c-.732-.19-1.736-.468-2.841-.775C8.984,1.868,6.16,1.084,4.564.765a1.821,1.821,0,0,0-2,.87C1.833,3.151,1.285,6.3.742,9.659a1.53,1.53,0,0,0,1.319,1.614l8.774,1.56a1.692,1.692,0,0,0,1.978-1.058l2.15-7.2a.924.924,0,0,0-.09-.723,1.247,1.247,0,0,0-.778-.576Z" transform="translate(68.01 88.507)" fill="#fff"/>
          <path id="Trazado_101492" data-name="Trazado 101492" d="M11.046,2.046C9.23,1.575,5.308.418,3.415.038A1.726,1.726,0,0,0,1.5.892,30.261,30.261,0,0,0,.016,7.385a1.482,1.482,0,0,0,1.29,1.622l7.011,1.247a1.645,1.645,0,0,0,1.911-1.049l1.717-5.756A1.157,1.157,0,0,0,11.046,2.046Z" transform="translate(69.979 90.293)" fill="#fff" opacity="0.6"/>
          <g id="Grupo_54069" data-name="Grupo 54069" transform="translate(17.143 84.112)" opacity="0.6">
            <path id="Trazado_101493" data-name="Trazado 101493" d="M45.8,7.193a1.04,1.04,0,0,1,.814,1.554l-.723,1.521a2,2,0,0,1-2.062,1.05L1.166,3.307a1.427,1.427,0,0,1-1.134-1.7l.083-.394A1.548,1.548,0,0,1,1.857.019Z" fill="#fff"/>
          </g>
          <path id="Trazado_101494" data-name="Trazado 101494" d="M.628,8.785h0a1.954,1.954,0,0,1,2.5.173l2.959,3.057a.6.6,0,0,0,.98-.2L10.261.411a.649.649,0,0,1,1.222.038,18.74,18.74,0,0,1-3.87,15.59S4.081,15.47.335,10.887A1.431,1.431,0,0,1,.628,8.785Z" transform="translate(68.635 84.026)" fill="#fd0"/>
          <path id="Trazado_101495" data-name="Trazado 101495" d="M.024,9.539C.576,6.12,1.136,2.917,1.91,1.314A2.535,2.535,0,0,1,4.708.047c1.619.325,4.338,1.079,6.737,1.745,1.1.306,2.1.584,2.832.772h0a1.977,1.977,0,0,1,1.229.923,1.644,1.644,0,0,1,.154,1.289l-2.15,7.2a2.416,2.416,0,0,1-2.8,1.566L1.934,11.985l-.024,0A2.224,2.224,0,0,1,.024,9.539Zm14.07-6.271c-.732-.19-1.738-.469-2.843-.776C8.982,1.863,6.159,1.08,4.566.76a1.832,1.832,0,0,0-2,.869C1.833,3.146,1.285,6.291.742,9.655a1.5,1.5,0,0,0,1.3,1.61l.017,0,8.773,1.56a1.693,1.693,0,0,0,1.979-1.058l2.15-7.2a.924.924,0,0,0-.09-.723,1.245,1.245,0,0,0-.779-.576Z" transform="translate(65.513 107.285)" fill="#fff"/>
          <path id="Trazado_101496" data-name="Trazado 101496" d="M1.078,2.464C3.158,1.9,7.651.5,9.817.046a1.945,1.945,0,0,1,2.2,1.028c.71,1.547,1.235,4.806,1.7,7.819a1.769,1.769,0,0,1-1.477,1.952l-8.03,1.5a1.871,1.871,0,0,1-2.188-1.262L.048,4.153A1.4,1.4,0,0,1,1.078,2.464Z" transform="translate(61.938 106.618)" fill="#fff" opacity="0.6"/>
          <g id="Grupo_54070" data-name="Grupo 54070" transform="translate(14.647 102.886)" opacity="0.6">
            <path id="Trazado_101497" data-name="Trazado 101497" d="M45.8,7.193a1.04,1.04,0,0,1,.815,1.555l-.722,1.521a2,2,0,0,1-2.062,1.05L1.166,3.308a1.427,1.427,0,0,1-1.135-1.7l.083-.4A1.548,1.548,0,0,1,1.857.019Z" fill="#fff"/>
          </g>
          <path id="Trazado_101498" data-name="Trazado 101498" d="M.629,8.785h0a1.954,1.954,0,0,1,2.5.173l2.959,3.057a.6.6,0,0,0,.979-.2L10.262.411a.649.649,0,0,1,1.221.038A18.74,18.74,0,0,1,7.614,16.04s-3.533-.57-7.278-5.152A1.431,1.431,0,0,1,.629,8.785Z" transform="translate(63.916 102.368)" fill="#fd0"/>
        </g>
        <path id="Trazado_101499" data-name="Trazado 101499" d="M1.438,12.151l9,.583,2-8.029A3.491,3.491,0,0,0,10.552.7a8.044,8.044,0,0,0-7.233.333C-2.82,4.032,1.438,12.151,1.438,12.151Zm2.9-6.5A2.24,2.24,0,1,1,6.208,8.206,2.239,2.239,0,0,1,4.336,5.65Z" transform="translate(66.054 0)" fill="url(#linear-gradient-32)"/>
        <g id="Grupo_54072" data-name="Grupo 54072" transform="translate(71.785 0.845)">
          <path id="Trazado_101500" data-name="Trazado 101500" d="M4.274,8.544A.444.444,0,0,1,3.95,8L4.27,6.726a.445.445,0,1,1,.863.215L4.814,8.22a.445.445,0,0,1-.54.324ZM4.9,6.038A.445.445,0,0,1,4.575,5.5l.243-.971A2.67,2.67,0,0,0,3.376,1.47,6.062,6.062,0,0,0,.467.9.445.445,0,0,1,0,.475.449.449,0,0,1,.423.009,6.951,6.951,0,0,1,3.756.665,3.562,3.562,0,0,1,5.682,4.743l-.242.971a.444.444,0,0,1-.539.324Z" fill="#bdd0fb"/>
        </g>
        <path id="Trazado_101501" data-name="Trazado 101501" d="M33.484,10.4l.633-4.094a2.528,2.528,0,0,0-2.2-2.9L3.539.018a2.46,2.46,0,0,0-2.7,1.921L0,5.837Z" transform="translate(54.313 9.468)" fill="url(#linear-gradient-33)"/>
        <path id="Trazado_101502" data-name="Trazado 101502" d="M1.435.7A.259.259,0,0,0,1.512.19L.3,0A.255.255,0,0,0,0,.219a.258.258,0,0,0,.216.3L1.433.7Z" transform="translate(77.826 12.722)" fill="#bdd0fb"/>
        <path id="Trazado_101503" data-name="Trazado 101503" d="M6.522,5.659a.444.444,0,0,0,.352-.368l.256-1.656A2.576,2.576,0,0,0,4.976.694L.513.005a.445.445,0,0,0-.136.88l4.464.689A1.689,1.689,0,0,1,6.25,3.5L5.994,5.155a.444.444,0,0,0,.528.5Z" transform="translate(80.067 12.91)" fill="#bdd0fb"/>
        <path id="Trazado_101504" data-name="Trazado 101504" d="M53.675,7.67,4.309.044A3.692,3.692,0,0,0,.246,2.515L.167,2.75A3.171,3.171,0,0,0,2.688,6.894l50.646,7.823A2.062,2.062,0,0,0,55.7,12.9l.241-2.283A2.692,2.692,0,0,0,53.675,7.67Z" transform="translate(43.2 12.067)" fill="url(#linear-gradient-34)"/>
      </g>
      <g id="Grupo_54118" data-name="Grupo 54118" transform="translate(182.312 227.992)">
        <g id="Grupo_54057" data-name="Grupo 54057">
          <rect id="Rectángulo_5357" data-name="Rectángulo 5357" width="175.032" height="10.62" transform="translate(3.54 69.03)" fill="#636363"/>
          <rect id="Rectángulo_5358" data-name="Rectángulo 5358" width="3.54" height="14.553" transform="translate(0 66.67)" fill="url(#linear-gradient-35)"/>
          <path id="Trazado_101449" data-name="Trazado 101449" d="M1694.981,2507.778c0-2.652-2.641-4.822-6.913-4.822H1527.161c-4.272,0-7.8,2.17-7.8,4.822V2568.1c0,2.652,3.53,4.865,7.8,4.865h160.907c4.272,0,6.913-2.214,6.913-4.865Z" transform="translate(-1519.359 -2502.956)" fill="#afafaf"/>
          <path id="Trazado_101450" data-name="Trazado 101450" d="M1725.686,2531.525c0-2.426-3.34-4.106-7.369-4.106h-151.8c-4.028,0-7.411,1.679-7.411,4.106v55.143c0,2.426,3.383,4.274,7.411,4.274h151.8c4.028,0,7.369-1.848,7.369-4.274Z" transform="translate(-1553.997 -2524.272)" fill="#e8e8e8"/>
          <path id="Trazado_101451" data-name="Trazado 101451" d="M2938.379,2702.181l-7.934-24.211c-.2-.615-.772-.719-1.418-.719h-32.133v57.229h43.364Z" transform="translate(-2719.698 -2654.831)" fill="#e8e8e8"/>
          <path id="Trazado_101452" data-name="Trazado 101452" d="M2999.919,3054.18a3.259,3.259,0,0,0-1.712-.421l-33.321.64-.19,9.444,33.527.815c1.217,0,2.592-.587,2.592-1.41v-8C3000.814,3054.846,3000.346,3054.46,2999.919,3054.18Z" transform="translate(-2778.779 -2982.907)" fill="#636363"/>
          <g id="Grupo_54047" data-name="Grupo 54047" transform="translate(186.002 25.53)">
            <path id="Trazado_101453" data-name="Trazado 101453" d="M2991.839,2723.384l-4.8-18.98a1.525,1.525,0,0,0-1.445-1.163h-18.755a1.555,1.555,0,0,0-1.49,1.591l.45,15.219a1.5,1.5,0,0,0,1.252,1.432l23.1,3.734a1.489,1.489,0,0,0,1.682-1.834Z" transform="translate(-2965.353 -2703.008)" fill="#732be5"/>
            <path id="Trazado_101454" data-name="Trazado 101454" d="M3153.7,2701.427l-.245.04a1.49,1.49,0,0,0-1.2,1.857l5.228,19.439a1.49,1.49,0,0,0,1.713,1.078l1.651-.31Z" transform="translate(-3128.177 -2701.427)" fill="#732be5"/>
          </g>
          <rect id="Rectángulo_5359" data-name="Rectángulo 5359" width="8.653" height="2.95" rx="1.475" transform="translate(186.242 49.166)" fill="#fd0"/>
          <path id="Trazado_101455" data-name="Trazado 101455" d="M2899.357,2543.009a2.4,2.4,0,0,0-1.623.394c-.368.342-.84.736-.84,1.238v15.63h19.689S2915.539,2544.19,2899.357,2543.009Z" transform="translate(-2719.698 -2537.851)" fill="#afafaf"/>
          <g id="Grupo_54049" data-name="Grupo 54049" transform="translate(181.529 65.355)">
            <g id="Grupo_54048" data-name="Grupo 54048" transform="translate(0 0)">
              <circle id="Elipse_4114" data-name="Elipse 4114" cx="15.113" cy="15.113" r="15.113" transform="matrix(0.999, -0.05, 0.05, 0.999, 0, 1.506)" fill="#732be5"/>
              <circle id="Elipse_4115" data-name="Elipse 4115" cx="12.273" cy="12.273" r="12.273" transform="translate(2.788 4.413) rotate(-3.797)" fill="#f6f6f6"/>
              <path id="Trazado_101456" data-name="Trazado 101456" d="M3027.361,3062.464a.414.414,0,0,1-.381-.574,10.457,10.457,0,0,0-14.734-13.195.413.413,0,0,1-.4-.721,11.285,11.285,0,0,1,15.9,14.237A.413.413,0,0,1,3027.361,3062.464Z" transform="translate(-3001.204 -3041.974)" fill="#bdd0fb"/>
            </g>
            <circle id="Elipse_4116" data-name="Elipse 4116" cx="5.629" cy="5.629" r="5.629" transform="translate(8.92 19.769) rotate(-74.518)" fill="#732be5"/>
          </g>
          <g id="Grupo_54051" data-name="Grupo 54051" transform="translate(37.678 65.698)">
            <g id="Grupo_54050" data-name="Grupo 54050" transform="translate(0 0)">
              <circle id="Elipse_4117" data-name="Elipse 4117" cx="15.113" cy="15.113" r="15.113" transform="translate(0 1.672) rotate(-3.17)" fill="#732be5"/>
              <circle id="Elipse_4118" data-name="Elipse 4118" cx="12.273" cy="12.273" r="12.273" transform="translate(2.682 4.706) rotate(-4.731)" fill="#f6f6f6"/>
              <path id="Trazado_101457" data-name="Trazado 101457" d="M1909.664,3065.74a.421.421,0,0,1-.161-.032.413.413,0,0,1-.22-.542,10.457,10.457,0,0,0-14.734-13.195.413.413,0,0,1-.4-.721,11.285,11.285,0,0,1,15.9,14.237A.413.413,0,0,1,1909.664,3065.74Z" transform="translate(-1883.429 -3045.171)" fill="#bdd0fb"/>
            </g>
            <circle id="Elipse_4119" data-name="Elipse 4119" cx="5.629" cy="5.629" r="5.629" transform="translate(8.999 19.848) rotate(-74.518)" fill="#732be5"/>
          </g>
          <g id="Grupo_54053" data-name="Grupo 54053" transform="translate(122.845 65.698)">
            <g id="Grupo_54052" data-name="Grupo 54052" transform="translate(0 0)">
              <circle id="Elipse_4120" data-name="Elipse 4120" cx="15.113" cy="15.113" r="15.113" transform="translate(0 1.672) rotate(-3.17)" fill="#732be5"/>
              <circle id="Elipse_4121" data-name="Elipse 4121" cx="12.273" cy="12.273" r="12.273" transform="translate(2.682 4.706) rotate(-4.731)" fill="#f6f6f6"/>
              <path id="Trazado_101458" data-name="Trazado 101458" d="M2571.758,3065.74a.424.424,0,0,1-.161-.032.413.413,0,0,1-.219-.542,10.457,10.457,0,0,0-14.734-13.194.413.413,0,0,1-.4-.721,11.285,11.285,0,0,1,15.9,14.238A.414.414,0,0,1,2571.758,3065.74Z" transform="translate(-2545.523 -3045.171)" fill="#bdd0fb"/>
            </g>
            <circle id="Elipse_4122" data-name="Elipse 4122" cx="5.629" cy="5.629" r="5.629" transform="translate(8.999 19.848) rotate(-74.518)" fill="#732be5"/>
          </g>
          <g id="Grupo_54055" data-name="Grupo 54055" transform="translate(3.184 65.777)">
            <g id="Grupo_54054" data-name="Grupo 54054" transform="translate(0 0)">
              <circle id="Elipse_4123" data-name="Elipse 4123" cx="15.113" cy="15.113" r="15.113" transform="matrix(0.999, -0.05, 0.05, 0.999, 0, 1.506)" fill="#732be5"/>
              <circle id="Elipse_4124" data-name="Elipse 4124" cx="12.273" cy="12.273" r="12.273" transform="translate(2.788 4.413) rotate(-3.797)" fill="#f6f6f6"/>
              <path id="Trazado_101459" data-name="Trazado 101459" d="M1640.891,3065.74a.424.424,0,0,1-.161-.032.414.414,0,0,1-.219-.542,10.457,10.457,0,0,0-14.735-13.194.413.413,0,0,1-.4-.721,11.286,11.286,0,0,1,15.9,14.238A.414.414,0,0,1,1640.891,3065.74Z" transform="translate(-1614.735 -3045.25)" fill="#bdd0fb"/>
            </g>
            <circle id="Elipse_4125" data-name="Elipse 4125" cx="5.629" cy="5.629" r="5.629" transform="translate(9.076 20.032) rotate(-76.718)" fill="#732be5"/>
          </g>
          <g id="Grupo_54056" data-name="Grupo 54056" transform="translate(213.382 61.36)">
            <rect id="Rectángulo_5360" data-name="Rectángulo 5360" width="7.08" height="7.473" rx="3.54" transform="translate(0.59)" fill="#fd0"/>
            <path id="Trazado_101460" data-name="Trazado 101460" d="M3181.554,2979.972v8.653h-1.062c-.823,0-2.281-.876-2.281-1.7v-4.908c0-.823,1.458-2.047,2.281-2.047Z" transform="translate(-3178.211 -2979.972)" fill="#fd0" opacity="0.8"/>
          </g>
          <path id="Trazado_101461" data-name="Trazado 101461" d="M2912.439,2735.664a.413.413,0,0,1-.413-.413v-34.81a.413.413,0,1,1,.827,0v34.81A.413.413,0,0,1,2912.439,2735.664Z" transform="translate(-2732.884 -2674.677)" fill="#fff" opacity="0.35"/>
          <path id="Trazado_101462" data-name="Trazado 101462" d="M2923.95,2575.5a.414.414,0,0,1-.391-.278c-4.432-12.843-13.278-11.98-13.653-11.938a.413.413,0,0,1-.1-.821c.1-.013,9.874-1.01,14.531,12.489a.414.414,0,0,1-.256.526A.422.422,0,0,1,2923.95,2575.5Z" transform="translate(-2730.635 -2554.79)" fill="#fff" opacity="0.35"/>
        </g>
      </g>
    </g>
  </g>
</svg>
