<svg xmlns="http://www.w3.org/2000/svg" width="904" height="846.154" viewBox="0 0 904 846.154">
  <g id="Grupo_53747" data-name="Grupo 53747" transform="translate(-231 -3692)">
    <g id="Grupo_53691" data-name="Grupo 53691" transform="translate(231 3692)">
      <path id="Trazado_100422" data-name="Trazado 100422" d="M903.005,1V845.155H.995V1H903.005M904,0H0V846.154H904V0Z" fill="none"/>
    </g>
    <g id="Grupo_53746" data-name="Grupo 53746" transform="translate(231 3692)">
      <circle id="Elipse_4017" data-name="Elipse 4017" cx="280.25" cy="280.25" r="280.25" transform="translate(172.21 167.21)" fill="#732be5"/>
      <g id="Grupo_53692" data-name="Grupo 53692">
        <path id="Trazado_100423" data-name="Trazado 100423" d="M680.32,727.98a343.939,343.939,0,0,1-172.27,71.34,36.74,36.74,0,0,1-41.18-36.42V544.83c0-32.7,39.56-49.06,62.66-25.91L683.54,673.27A36.667,36.667,0,0,1,680.32,727.98Z" fill="#efedee" stroke="#fff" stroke-miterlimit="10" stroke-width="3"/>
        <path id="Trazado_100424" data-name="Trazado 100424" d="M698.91,660.98,544.7,506.43c-23.07-23.12-6.69-62.6,25.97-62.6H789.02a36.741,36.741,0,0,1,36.41,41.19,343.938,343.938,0,0,1-71.81,172.85A36.663,36.663,0,0,1,698.91,660.98Z" fill="#efedee" stroke="#fff" stroke-miterlimit="10" stroke-width="3"/>
        <path id="Trazado_100425" data-name="Trazado 100425" d="M684.63,134.05A343.94,343.94,0,0,0,512.36,62.71a36.74,36.74,0,0,0-41.18,36.42V317.2c0,32.7,39.56,49.06,62.66,25.91L687.85,188.76A36.667,36.667,0,0,0,684.63,134.05Z" fill="#efedee" stroke="#fff" stroke-miterlimit="10" stroke-width="3"/>
        <path id="Trazado_100426" data-name="Trazado 100426" d="M703.22,204.12,549.01,358.67c-23.07,23.12-6.69,62.6,25.97,62.6H793.33a36.741,36.741,0,0,0,36.41-41.19,343.938,343.938,0,0,0-71.81-172.85A36.655,36.655,0,0,0,703.22,204.12Z" fill="#efedee" stroke="#fff" stroke-miterlimit="10" stroke-width="3"/>
        <path id="Trazado_100427" data-name="Trazado 100427" d="M233.94,723.08a343.94,343.94,0,0,0,172.27,71.34A36.74,36.74,0,0,0,447.39,758V539.93c0-32.7-39.56-49.06-62.66-25.91L230.71,668.37A36.676,36.676,0,0,0,233.94,723.08Z" fill="#efedee" stroke="#fff" stroke-miterlimit="10" stroke-width="3"/>
        <path id="Trazado_100428" data-name="Trazado 100428" d="M208.69,660.68,362.9,506.13c23.07-23.12,6.69-62.6-25.97-62.6H118.58a36.741,36.741,0,0,0-36.41,41.19,343.938,343.938,0,0,0,71.81,172.85A36.655,36.655,0,0,0,208.69,660.68Z" fill="#efedee" stroke="#fff" stroke-miterlimit="10" stroke-width="3"/>
        <path id="Trazado_100429" data-name="Trazado 100429" d="M231.12,129.44A343.94,343.94,0,0,1,403.39,58.1a36.74,36.74,0,0,1,41.18,36.42V312.59c0,32.7-39.56,49.06-62.66,25.91L227.89,184.15A36.667,36.667,0,0,1,231.12,129.44Z" fill="#efedee" stroke="#fff" stroke-miterlimit="10" stroke-width="3"/>
        <path id="Trazado_100430" data-name="Trazado 100430" d="M211.76,201.04,365.97,355.59c23.07,23.12,6.69,62.6-25.97,62.6H121.65A36.741,36.741,0,0,1,85.24,377a343.937,343.937,0,0,1,71.81-172.85A36.67,36.67,0,0,1,211.76,201.04Z" fill="#efedee" stroke="#fff" stroke-miterlimit="10" stroke-width="3"/>
      </g>
      <circle id="Elipse_4018" data-name="Elipse 4018" cx="214.18" cy="214.18" r="214.18" transform="translate(241.77 214.53)" fill="#732be5"/>
      <circle id="Elipse_4019" data-name="Elipse 4019" cx="207.75" cy="207.75" r="207.75" transform="translate(248.2 220.96)" fill="#fff"/>
      <g id="Grupo_53700" data-name="Grupo 53700">
        <g id="Grupo_53699" data-name="Grupo 53699">
          <g id="Grupo_53694" data-name="Grupo 53694">
            <path id="Trazado_100431" data-name="Trazado 100431" d="M592.18,513.71H325.42a11.871,11.871,0,0,1-11.87-11.87V344.07a11.871,11.871,0,0,1,11.87-11.87H592.18a11.871,11.871,0,0,1,11.87,11.87V501.85A11.869,11.869,0,0,1,592.18,513.71Z" fill="#732be5"/>
            <g id="Grupo_53693" data-name="Grupo 53693">
              <path id="Unión_3" data-name="Unión 3" d="M8814.459,8194.479A14.454,14.454,0,0,1,8800,8180.021v-14.6l.009,0V8115.11L8912.131,8022h149.45a14.456,14.456,0,0,1,14.459,14.462v68.518l-.011,0v75.039a14.455,14.455,0,0,1-14.46,14.459ZM8800,8036.461A14.455,14.455,0,0,1,8814.459,8022h97.66L8800,8115.11Z" transform="translate(-8479.22 -7682.84)" fill="#fff" opacity="0.95"/>
            </g>
            <path id="Trazado_100435" data-name="Trazado 100435" d="M617.85,525.21H294.06a23.656,23.656,0,0,1-23.66-23.66H641.51A23.663,23.663,0,0,1,617.85,525.21Z" fill="#732be5"/>
          </g>
          <g id="Grupo_53696" data-name="Grupo 53696">
            <rect id="Rectángulo_5077" data-name="Rectángulo 5077" width="130.17" height="14.85" transform="translate(339.15 348.57)" fill="#b2bef6" opacity="0.43"/>
            <rect id="Rectángulo_5078" data-name="Rectángulo 5078" width="82.46" height="14.85" transform="translate(497.71 348.57)" fill="#b2bef6" opacity="0.43"/>
            <rect id="Rectángulo_5079" data-name="Rectángulo 5079" width="81.88" height="63.41" transform="translate(344.08 378.34)" fill="#b2bef6" opacity="0.43"/>
            <rect id="Rectángulo_5080" data-name="Rectángulo 5080" width="81.88" height="63.41" transform="translate(498.25 378.34)" fill="#b2bef6" opacity="0.43"/>
            <circle id="Elipse_4020" data-name="Elipse 4020" cx="14.54" cy="14.54" r="14.54" transform="matrix(0.229, -0.974, 0.974, 0.229, 341.138, 482.735)" fill="#b2bef6" opacity="0.43"/>
            <circle id="Elipse_4021" data-name="Elipse 4021" cx="14.54" cy="14.54" r="14.54" transform="translate(383.672 471.916) rotate(-45)" fill="#b2bef6" opacity="0.43"/>
            <g id="Grupo_53695" data-name="Grupo 53695">
              <path id="Trazado_100436" data-name="Trazado 100436" d="M497.65,410.03H420.07a12.2,12.2,0,0,1-12.2-12.2v-9.59a11.924,11.924,0,0,1,11.92-11.92h77.86a12.2,12.2,0,0,1,12.2,12.2v9.31A12.2,12.2,0,0,1,497.65,410.03Z" fill="#b2bef6"/>
              <text id="ORDER" transform="translate(432.906 397.131)" fill="#fff" font-size="13.148" font-family="RobotoSlab-Bold, Roboto Slab" font-weight="700"><tspan x="0" y="0">ORDER</tspan></text>
            </g>
          </g>
          <g id="Grupo_53698" data-name="Grupo 53698">
            <path id="Trazado_100437" data-name="Trazado 100437" d="M359.45,364.64l-42.62,16.72,15.58,52.7,52.61-21.05ZM339.42,378.2a1.73,1.73,0,1,1,1.73-1.73A1.731,1.731,0,0,1,339.42,378.2Z" fill="#02b8c4"/>
            <g id="Grupo_53697" data-name="Grupo 53697">
              <path id="Trazado_100438" data-name="Trazado 100438" d="M340.43,375.62a33.111,33.111,0,0,1-1.82-17.78,35.847,35.847,0,0,1,2.77-8.62,16.893,16.893,0,0,0,1.89-8.2,14.238,14.238,0,0,0-3.24-8.09c-.58-.7-1.57.3-1,1a12.66,12.66,0,0,1,2.85,7.51c.12,3.07-1.12,5.65-2.31,8.4a34.233,34.233,0,0,0-.49,26.16c.32.83,1.68.47,1.35-.38Z" fill="#02b8c4"/>
            </g>
          </g>
        </g>
      </g>
      <g id="Grupo_53701" data-name="Grupo 53701">
        <rect id="Rectángulo_5081" data-name="Rectángulo 5081" width="125.91" height="61.57" transform="translate(485.88 118.02)" fill="none"/>
        <g id="Grupo">
          <text id="Acceso_a_" data-name="Acceso a " transform="translate(516.093 130.211)" fill="#12263f" font-size="16" font-family="Roboto-Regular, Roboto"><tspan x="0" y="0">Acceso a </tspan></text>
          <text id="múltiples_" data-name="múltiples " transform="translate(515.633 149.211)" fill="#12263f" font-size="16" font-family="Roboto-Regular, Roboto"><tspan x="0" y="0">múltiples </tspan></text>
          <text id="productos" transform="translate(512.233 168.211)" fill="#12263f" font-size="16" font-family="Roboto-Regular, Roboto"><tspan x="0" y="0">productos</tspan></text>
        </g>
      </g>
      <circle id="Elipse_4022" data-name="Elipse 4022" cx="54.78" cy="54.78" r="54.78" transform="translate(319.54 20.03)" fill="#efedee" stroke="#732be5" stroke-miterlimit="10" stroke-width="3"/>
      <g id="Grupo_53704" data-name="Grupo 53704">
        <circle id="Elipse_4023" data-name="Elipse 4023" cx="34.94" cy="34.94" r="34.94" transform="translate(339.38 39.87)" fill="#fff"/>
        <g id="Grupo_53703" data-name="Grupo 53703">
          <circle id="Elipse_4024" data-name="Elipse 4024" cx="25.89" cy="25.89" r="25.89" transform="translate(348.43 48.92)" fill="#732be5"/>
          <g id="Grupo_53702" data-name="Grupo 53702">
            <text id="_1" data-name="1" transform="translate(365.11 84.106)" fill="#fff" font-size="31.804" font-family="Roboto-Black, Roboto" font-weight="800"><tspan x="0" y="0">1</tspan></text>
          </g>
        </g>
      </g>
      <g id="Grupo_53705" data-name="Grupo 53705">
        <rect id="Rectángulo_5082" data-name="Rectángulo 5082" width="120.23" height="43.15" transform="translate(652.89 292.95)" fill="none"/>
        <g id="Grupo-2" data-name="Grupo">
          <text id="Productos_más_" data-name="Productos más " transform="translate(658.302 305.133)" fill="#12263f" font-size="16" font-family="Roboto-Regular, Roboto"><tspan x="0" y="0">Productos más </tspan></text>
          <text id="económicos" transform="translate(669.062 324.133)" fill="#12263f" font-size="16" font-family="Roboto-Regular, Roboto"><tspan x="0" y="0">económicos</tspan></text>
        </g>
      </g>
      <g id="Grupo_53706" data-name="Grupo 53706">
        <rect id="Rectángulo_5083" data-name="Rectángulo 5083" width="101.02" height="33.74" transform="translate(675.15 508.34)" fill="none"/>
        <g id="Grupo-3" data-name="Grupo">
          <text id="Feedback_de_" data-name="Feedback de " transform="translate(680.363 520.527)" fill="#12263f" font-size="16" font-family="Roboto-Regular, Roboto"><tspan x="0" y="0">Feedback de </tspan></text>
          <text id="los_usuarios" data-name="los usuarios" transform="translate(681.703 539.527)" fill="#12263f" font-size="16" font-family="Roboto-Regular, Roboto"><tspan x="0" y="0">los usuarios</tspan></text>
        </g>
      </g>
      <g id="Grupo_53707" data-name="Grupo 53707">
        <rect id="Rectángulo_5084" data-name="Rectángulo 5084" width="135.55" height="34.37" transform="translate(493.87 669.68)" fill="none"/>
        <g id="Grupo-4" data-name="Grupo">
          <text id="Oferta_de_servicios_" data-name="Oferta de servicios " transform="translate(494.62 681.868)" fill="#12263f" font-size="16" font-family="Roboto-Regular, Roboto"><tspan x="0" y="0">Oferta de servicios </tspan></text>
          <text id="personalizada" transform="translate(511.03 700.868)" fill="#12263f" font-size="16" font-family="Roboto-Regular, Roboto"><tspan x="0" y="0">personalizada</tspan></text>
        </g>
      </g>
      <g id="Grupo_53708" data-name="Grupo 53708">
        <rect id="Rectángulo_5085" data-name="Rectángulo 5085" width="124.83" height="53.83" transform="translate(311.27 671.64)" fill="none"/>
        <g id="Grupo-5" data-name="Grupo">
          <text id="Comodidad_y_" data-name="Comodidad y " transform="translate(326.469 683.824)" fill="#12263f" font-size="16" font-family="Roboto-Regular, Roboto"><tspan x="0" y="0">Comodidad y </tspan></text>
          <text id="agilidad_en_la_" data-name="agilidad en la " transform="translate(326.079 702.824)" fill="#12263f" font-size="16" font-family="Roboto-Regular, Roboto"><tspan x="0" y="0">agilidad en la </tspan></text>
          <text id="compra" transform="translate(346.219 721.824)" fill="#12263f" font-size="16" font-family="Roboto-Regular, Roboto"><tspan x="0" y="0">compra</tspan></text>
        </g>
      </g>
      <g id="Grupo_53709" data-name="Grupo 53709">
        <rect id="Rectángulo_5086" data-name="Rectángulo 5086" width="58.54" height="38.58" transform="translate(148.47 321.87)" fill="none"/>
        <g id="Grupo-6" data-name="Grupo">
          <text id="Soporte_" data-name="Soporte " transform="translate(149.526 334.055)" fill="#12263f" font-size="16" font-family="Roboto-Regular, Roboto"><tspan x="0" y="0">Soporte </tspan></text>
          <text id="en_línea" data-name="en línea" transform="translate(149.856 353.055)" fill="#12263f" font-size="16" font-family="Roboto-Regular, Roboto"><tspan x="0" y="0">en línea</tspan></text>
        </g>
      </g>
      <g id="Grupo_53710" data-name="Grupo 53710">
        <rect id="Rectángulo_5087" data-name="Rectángulo 5087" width="125.8" height="38.42" transform="translate(122.96 546.31)" fill="none"/>
        <g id="Grupo-7" data-name="Grupo">
          <text id="Comparación_de_" data-name="Comparación de " transform="translate(127.094 558.496)" fill="#12263f" font-size="16" font-family="Roboto-Regular, Roboto"><tspan x="0" y="0">Comparación de </tspan></text>
          <text id="los_productos" data-name="los productos" transform="translate(136.524 577.496)" fill="#12263f" font-size="16" font-family="Roboto-Regular, Roboto"><tspan x="0" y="0">los productos</tspan></text>
        </g>
      </g>
      <g id="Grupo_53711" data-name="Grupo 53711">
        <rect id="Rectángulo_5088" data-name="Rectángulo 5088" width="143.71" height="75.35" transform="translate(264.86 141.92)" fill="none"/>
        <g id="Grupo-8" data-name="Grupo">
          <text id="Mercado_abierto_las_" data-name="Mercado abierto las " transform="translate(265.33 154.111)" fill="#12263f" font-size="16" font-family="Roboto-Regular, Roboto"><tspan x="0" y="0">Mercado abierto las </tspan></text>
          <text id="_24_horas_todos_los_" data-name="24 horas todos los " transform="translate(270 173.111)" fill="#12263f" font-size="16" font-family="Roboto-Regular, Roboto"><tspan x="0" y="0">24 horas todos los </tspan></text>
          <text id="días_del_año" data-name="días del año" transform="translate(293.35 192.111)" fill="#12263f" font-size="16" font-family="Roboto-Regular, Roboto"><tspan x="0" y="0">días del año</tspan></text>
        </g>
      </g>
      <g id="Grupo_53715" data-name="Grupo 53715">
        <circle id="Elipse_4025" data-name="Elipse 4025" cx="46.15" cy="46.15" r="46.15" transform="translate(327.54 222.22)" fill="#bb426a" stroke="#fff" stroke-miterlimit="10" stroke-width="3"/>
        <circle id="Elipse_4026" data-name="Elipse 4026" cx="42.18" cy="42.18" r="42.18" transform="translate(331.51 226.19)" fill="#9f3759"/>
        <circle id="Elipse_4027" data-name="Elipse 4027" cx="35.15" cy="35.15" r="35.15" transform="translate(338.54 233.22)" fill="#cd7e8e"/>
        <g id="Grupo_53714" data-name="Grupo 53714">
          <g id="Grupo_53712" data-name="Grupo 53712">
            <path id="Trazado_100439" data-name="Trazado 100439" d="M370.93,293.88H359.5v-2.49l5.06-5.56a10.388,10.388,0,0,0,1.49-2.06,3.441,3.441,0,0,0,.47-1.57,2.409,2.409,0,0,0-.43-1.52,1.648,1.648,0,0,0-1.38-.56,1.546,1.546,0,0,0-1.38.73,3.26,3.26,0,0,0-.49,1.86H359.1l-.02-.07a5.114,5.114,0,0,1,1.5-3.87,5.538,5.538,0,0,1,4.14-1.59,5.985,5.985,0,0,1,4.17,1.33,4.681,4.681,0,0,1,1.47,3.66,4.816,4.816,0,0,1-.81,2.76,34.466,34.466,0,0,1-2.98,3.55l-2,2.4.02.06h6.35v2.94Z" fill="#f3e187"/>
            <path id="Trazado_100440" data-name="Trazado 100440" d="M382.89,287.45h1.66v2.96h-1.66v3.47h-3.82v-3.47h-6.54l-.23-2.35,6.77-10.6v-.03h3.82v10.02Zm-7.31,0h3.49v-5.12l-.07-.01-.42.85Z" fill="#f3e187"/>
          </g>
          <g id="Grupo_53713" data-name="Grupo 53713">
            <path id="Trazado_100441" data-name="Trazado 100441" d="M373.69,242.85a23.469,23.469,0,0,0-16.21,40.46,9.113,9.113,0,0,1,.22-2.21,21.77,21.77,0,1,1,27.38,3.78,8.764,8.764,0,0,1,.25,1.84,23.479,23.479,0,0,0-11.64-43.87Z" fill="#f3e187"/>
          </g>
        </g>
        <path id="Trazado_100442" data-name="Trazado 100442" d="M405.01,265.85c-2.54.91-5.09,1.66-7.64,2.42l-3.84,1.07-3.85.95c-1.28.31-2.55.76-3.82,1.17a10.5,10.5,0,0,1-3.9.45,18.2,18.2,0,0,1-4.03-.76,14.663,14.663,0,0,1-4.16-2.01l-.08-.8a14.418,14.418,0,0,1,3.65-2.83,18.062,18.062,0,0,1,3.78-1.58,10.327,10.327,0,0,1,3.91-.37c1.33.13,2.67.31,3.98.35l3.96.13,3.97.25c2.65.22,5.31.42,7.98.77Z" fill="#bb426a"/>
        <path id="Trazado_100443" data-name="Trazado 100443" d="M373.99,243.31c.47,2.14.83,4.29,1.2,6.43l.49,3.22.4,3.22c.13,1.07.37,2.14.57,3.22a9.409,9.409,0,0,1,.03,3.22,16.265,16.265,0,0,1-.88,3.22,12.388,12.388,0,0,1-1.82,3.22h-.6a12.076,12.076,0,0,1-1.82-3.22,15.9,15.9,0,0,1-.88-3.22,9.414,9.414,0,0,1,.03-3.22c.2-1.07.44-2.14.57-3.22l.4-3.22.49-3.22c.37-2.14.73-4.29,1.2-6.43Z" fill="#bb426a"/>
      </g>
      <circle id="Elipse_4028" data-name="Elipse 4028" cx="54.78" cy="54.78" r="54.78" transform="translate(601.09 94.03)" fill="#efedee" stroke="#732be5" stroke-miterlimit="10" stroke-width="3"/>
      <circle id="Elipse_4029" data-name="Elipse 4029" cx="54.78" cy="54.78" r="54.78" transform="translate(744.79 322.25)" fill="#efedee" stroke="#732be5" stroke-miterlimit="10" stroke-width="3"/>
      <circle id="Elipse_4030" data-name="Elipse 4030" cx="54.78" cy="54.78" r="54.78" transform="translate(684.11 570.16)" fill="#efedee" stroke="#732be5" stroke-miterlimit="10" stroke-width="3"/>
      <circle id="Elipse_4031" data-name="Elipse 4031" cx="54.78" cy="54.78" r="54.78" transform="translate(456.79 717.44)" fill="#efedee" stroke="#732be5" stroke-miterlimit="10" stroke-width="3"/>
      <circle id="Elipse_4032" data-name="Elipse 4032" cx="54.78" cy="54.78" r="54.78" transform="translate(201.13 643.77)" fill="#efedee" stroke="#732be5" stroke-miterlimit="10" stroke-width="3"/>
      <circle id="Elipse_4033" data-name="Elipse 4033" cx="54.78" cy="54.78" r="54.78" transform="translate(54.53 423.83)" fill="#efedee" stroke="#732be5" stroke-miterlimit="10" stroke-width="3"/>
      <circle id="Elipse_4034" data-name="Elipse 4034" cx="54.78" cy="54.78" r="54.78" transform="translate(122.96 180.72)" fill="#efedee" stroke="#732be5" stroke-miterlimit="10" stroke-width="3"/>
      <g id="Grupo_53720" data-name="Grupo 53720">
        <g id="Grupo_53717" data-name="Grupo 53717">
          <path id="Trazado_100444" data-name="Trazado 100444" d="M536.55,488.46a.97.97,0,0,1-.97-.89,51.9,51.9,0,0,0-8.27-24.09c-3.96-5.79-8.68-9.24-12.62-9.24h-.01c-14.35.03-17.36,32.99-17.39,33.32a.979.979,0,0,1-1.95-.17c.12-1.43,3.2-35.08,19.34-35.11h.02c4.66,0,9.84,3.68,14.24,10.09a53.9,53.9,0,0,1,8.6,25.01.978.978,0,0,1-.88,1.07A.493.493,0,0,1,536.55,488.46Z" fill="#8400ad"/>
          <path id="Trazado_100445" data-name="Trazado 100445" d="M476.75,556.29l18.9,9.57,11.45-35.13-18.87-47.1-5.35,1.31-8.12,67.65A3.661,3.661,0,0,0,476.75,556.29Z" fill="#9700c7"/>
          <path id="Trazado_100446" data-name="Trazado 100446" d="M507.09,530.73l-18.87-47.1-3.16.77a101.888,101.888,0,0,0,.05,15.23c1.26,16.04,5.46,20.5,3.43,31.69-1.69,9.3-5.39,10.57-5.06,16.82.35,6.82,5.11,12.52,10.76,17.01l1.39.71Z" fill="#8400ad"/>
          <path id="Trazado_100447" data-name="Trazado 100447" d="M488.23,483.62h70.46L582,558.9l-86.35,6.96Z" fill="#c200ff"/>
          <path id="Trazado_100448" data-name="Trazado 100448" d="M510.06,490.08a.97.97,0,0,1-.95-.76c-.2-.85-4.83-21.02,1.7-30.92a11.355,11.355,0,0,1,7.77-5.15c16.87-2.97,27.26,33.27,27.7,34.81a.981.981,0,0,1-1.89.53c-.1-.36-10.33-36.08-25.47-33.41a9.333,9.333,0,0,0-6.47,4.3c-6.07,9.2-1.47,29.2-1.43,29.4a.984.984,0,0,1-.73,1.18A1.94,1.94,0,0,1,510.06,490.08Z" fill="#8400ad"/>
          <g id="Grupo_53716" data-name="Grupo 53716">
            <path id="Trazado_100449" data-name="Trazado 100449" d="M558.69,483.62H523.74a9.45,9.45,0,0,0-3.06,6.04c-.55,10.65,23.94,14.15,26.3,28.75,1.7,10.53-8.78,22.68-18.13,28.09-9.85,5.7-16.53,2.82-23.19,9.15a21.805,21.805,0,0,0-5.77,9.87L582,558.9Z" fill="#9100bf"/>
          </g>
          <circle id="Elipse_4035" data-name="Elipse 4035" cx="2.74" cy="2.74" r="2.74" transform="translate(507.32 487.48)" fill="#9700c7"/>
          <circle id="Elipse_4036" data-name="Elipse 4036" cx="2.74" cy="2.74" r="2.74" transform="translate(543.04 487.23)" fill="#9700c7"/>
        </g>
        <g id="Grupo_53718" data-name="Grupo 53718">
          <circle id="Elipse_4037" data-name="Elipse 4037" cx="26.42" cy="26.42" r="26.42" transform="translate(444.489 510.094) rotate(-57.974)" fill="#02ba8e"/>
          <text id="_" data-name="%" transform="translate(465.008 507.441) rotate(20.341)" fill="#fff" font-size="31.983" font-family="RobotoSlab-Bold, Roboto Slab" font-weight="700" opacity="0.99"><tspan x="0" y="0">%</tspan></text>
        </g>
        <g id="Grupo_53719" data-name="Grupo 53719">
          <path id="Trazado_100450" data-name="Trazado 100450" d="M571.46,545.44a20.917,20.917,0,1,1-28.13-9.15A20.92,20.92,0,0,1,571.46,545.44Z" fill="#02b8c4"/>
          <text id="_2" data-name="$" transform="translate(553.928 566.716) rotate(-49.307)" fill="#fff" font-size="25.325" font-family="RobotoSlab-Bold, Roboto Slab" font-weight="700" opacity="0.99"><tspan x="0" y="0">$</tspan></text>
        </g>
      </g>
      <g id="Grupo_53723" data-name="Grupo 53723">
        <circle id="Elipse_4038" data-name="Elipse 4038" cx="34.94" cy="34.94" r="34.94" transform="translate(620.93 113.87)" fill="#fff"/>
        <g id="Grupo_53722" data-name="Grupo 53722">
          <circle id="Elipse_4039" data-name="Elipse 4039" cx="25.89" cy="25.89" r="25.89" transform="translate(629.98 122.92)" fill="#fd0"/>
          <g id="Grupo_53721" data-name="Grupo 53721">
            <text id="_2-2" data-name="2" transform="translate(646.662 158.106)" fill="#732be5" font-size="31.804" font-family="Roboto-Black, Roboto" font-weight="800"><tspan x="0" y="0">2</tspan></text>
          </g>
        </g>
      </g>
      <g id="Grupo_53726" data-name="Grupo 53726">
        <circle id="Elipse_4040" data-name="Elipse 4040" cx="34.94" cy="34.94" r="34.94" transform="translate(764.63 342.09)" fill="#fff"/>
        <g id="Grupo_53725" data-name="Grupo 53725">
          <circle id="Elipse_4041" data-name="Elipse 4041" cx="25.89" cy="25.89" r="25.89" transform="translate(773.68 351.14)" fill="#732be5"/>
          <g id="Grupo_53724" data-name="Grupo 53724">
            <text id="_3" data-name="3" transform="translate(790.357 386.324)" fill="#fff" font-size="31.804" font-family="Roboto-Black, Roboto" font-weight="800"><tspan x="0" y="0">3</tspan></text>
          </g>
        </g>
      </g>
      <g id="Grupo_53729" data-name="Grupo 53729">
        <circle id="Elipse_4042" data-name="Elipse 4042" cx="34.94" cy="34.94" r="34.94" transform="translate(703.95 590)" fill="#fff"/>
        <g id="Grupo_53728" data-name="Grupo 53728">
          <circle id="Elipse_4043" data-name="Elipse 4043" cx="25.89" cy="25.89" r="25.89" transform="translate(713 599.05)" fill="#fd0"/>
          <g id="Grupo_53727" data-name="Grupo 53727">
            <text id="_4" data-name="4" transform="translate(729.684 634.234)" fill="#732be5" font-size="31.804" font-family="Roboto-Black, Roboto" font-weight="800"><tspan x="0" y="0">4</tspan></text>
          </g>
        </g>
      </g>
      <g id="Grupo_53732" data-name="Grupo 53732">
        <circle id="Elipse_4044" data-name="Elipse 4044" cx="34.94" cy="34.94" r="34.94" transform="translate(476.63 737.28)" fill="#fff"/>
        <g id="Grupo_53731" data-name="Grupo 53731">
          <circle id="Elipse_4045" data-name="Elipse 4045" cx="25.89" cy="25.89" r="25.89" transform="translate(485.68 746.33)" fill="#732be5"/>
          <g id="Grupo_53730" data-name="Grupo 53730">
            <text id="_5" data-name="5" transform="translate(502.366 781.512)" fill="#fff" font-size="31.804" font-family="Roboto-Black, Roboto" font-weight="800"><tspan x="0" y="0">5</tspan></text>
          </g>
        </g>
      </g>
      <g id="Grupo_53735" data-name="Grupo 53735">
        <circle id="Elipse_4046" data-name="Elipse 4046" cx="34.94" cy="34.94" r="34.94" transform="translate(220.97 663.61)" fill="#fff"/>
        <g id="Grupo_53734" data-name="Grupo 53734">
          <circle id="Elipse_4047" data-name="Elipse 4047" cx="25.89" cy="25.89" r="25.89" transform="translate(230.02 672.66)" fill="#fd0"/>
          <g id="Grupo_53733" data-name="Grupo 53733">
            <text id="_6" data-name="6" transform="translate(246.7 707.845)" fill="#732be5" font-size="31.804" font-family="Roboto-Black, Roboto" font-weight="800"><tspan x="0" y="0">6</tspan></text>
          </g>
        </g>
      </g>
      <g id="Grupo_53738" data-name="Grupo 53738">
        <circle id="Elipse_4048" data-name="Elipse 4048" cx="34.94" cy="34.94" r="34.94" transform="translate(74.37 443.67)" fill="#fff"/>
        <g id="Grupo_53737" data-name="Grupo 53737">
          <circle id="Elipse_4049" data-name="Elipse 4049" cx="25.89" cy="25.89" r="25.89" transform="translate(83.42 452.72)" fill="#732be5"/>
          <g id="Grupo_53736" data-name="Grupo 53736">
            <text id="_7" data-name="7" transform="translate(100.099 487.903)" fill="#fff" font-size="31.804" font-family="Roboto-Black, Roboto" font-weight="800"><tspan x="0" y="0">7</tspan></text>
          </g>
        </g>
      </g>
      <g id="Grupo_53741" data-name="Grupo 53741">
        <circle id="Elipse_4050" data-name="Elipse 4050" cx="34.94" cy="34.94" r="34.94" transform="translate(142.8 200.56)" fill="#fff"/>
        <g id="Grupo_53740" data-name="Grupo 53740">
          <circle id="Elipse_4051" data-name="Elipse 4051" cx="25.89" cy="25.89" r="25.89" transform="translate(151.85 209.61)" fill="#fd0"/>
          <g id="Grupo_53739" data-name="Grupo 53739">
            <text id="_8" data-name="8" transform="translate(168.533 244.795)" fill="#732be5" font-size="31.804" font-family="Roboto-Black, Roboto" font-weight="800"><tspan x="0" y="0">8</tspan></text>
          </g>
        </g>
      </g>
      <g id="Grupo_53743" data-name="Grupo 53743">
        <path id="Trazado_100451" data-name="Trazado 100451" d="M595.78,250.72a6.069,6.069,0,0,0-3.08-6.44l-46.77-25.77a6.136,6.136,0,0,0-9.06,6.09l6.26,53.03a6.14,6.14,0,0,0,11.36,2.44l6.62-11,15.22,22.62a5.263,5.263,0,0,0,3.4,2.25,5.136,5.136,0,0,0,1.03.1,5.268,5.268,0,0,0,2.96-.91l8.07-5.43a5.336,5.336,0,0,0,1.44-7.4l-15.22-22.62,12.68-1.99A5.994,5.994,0,0,0,595.78,250.72Z" fill="#fff"/>
        <path id="Trazado_100452" data-name="Trazado 100452" d="M591.49,246.47,544.72,220.7a3.637,3.637,0,0,0-5.37,3.61l6.26,53.03a3.639,3.639,0,0,0,6.73,1.45l8.64-14.36,17.42,25.88a2.821,2.821,0,0,0,3.92.77l8.07-5.43a2.821,2.821,0,0,0,.77-3.92l-17.42-25.88,16.56-2.6A3.636,3.636,0,0,0,591.49,246.47Z" fill="#02b8c4"/>
        <g id="Grupo_53742" data-name="Grupo 53742">
          <path id="Trazado_100453" data-name="Trazado 100453" d="M572.06,239.04l-17.62-9.74a.759.759,0,0,0-.73,1.33l17.62,9.74a.759.759,0,0,0,.73-1.33Z" fill="#fff"/>
          <path id="Trazado_100454" data-name="Trazado 100454" d="M551.51,227.67l-4.45-2.46a.754.754,0,1,0-.73,1.32l4.45,2.46a.754.754,0,1,0,.73-1.32Z" fill="#fff"/>
        </g>
      </g>
      <g id="Grupo_53745" data-name="Grupo 53745">
        <path id="Trazado_100455" data-name="Trazado 100455" d="M307.42,483.98l-32.25-32.25-44.06,11.8L219.3,507.6l32.26,32.25,44.06-11.8Z" fill="#fff399"/>
        <path id="Trazado_100456" data-name="Trazado 100456" d="M251.56,539.85l11.8-44.06,44.06-11.81-11.8,44.07Z" fill="#ffd13e"/>
        <path id="Trazado_100457" data-name="Trazado 100457" d="M257.52,534.94l1.12-4.18,16.47-4.48-1.14,4.25Z" fill="#272343"/>
        <path id="Trazado_100458" data-name="Trazado 100458" d="M275.11,530.27l1.12-4.18,5.88-1.63-1.14,4.25Z" fill="#fff"/>
        <path id="Trazado_100459" data-name="Trazado 100459" d="M271.92,493.5l-8.56,2.29-11.81,44.06,44.06-11.81,4.16-15.53c-6.81,9.07-19.29,10.01-24.93,5.31C268.86,512.84,269.09,501.69,271.92,493.5Z" fill="#ff9100" opacity="0.1"/>
        <path id="Trazado_100460" data-name="Trazado 100460" d="M231.11,463.53l32.25,32.26-11.8,44.06L219.3,507.6Z" fill="#ffe05f"/>
        <path id="Trazado_100461" data-name="Trazado 100461" d="M244.28,476.71l5.91,5.9-4.28,16.07-5.9-5.9Z" fill="#272343"/>
        <path id="Trazado_100462" data-name="Trazado 100462" d="M244.28,476.71l5.91,5.9,42.78-13.09-5.91-5.9Z" fill="#534f7f"/>
        <path id="Trazado_100463" data-name="Trazado 100463" d="M254.6,487.03s-3.39,14.47-12.43,14.66c-7.23.15-15.93-7.49-16.03-19.62L219.3,507.6l32.26,32.26,11.81-44.06Z" fill="#ff9100" opacity="0.1"/>
        <path id="Trazado_100464" data-name="Trazado 100464" d="M238.78,461.48s11.89,34.5,66.01,19.87l2.64,2.64L263.37,495.8l-32.26-32.26Z" fill="#ff9100" opacity="0.1"/>
        <g id="Grupo_53744" data-name="Grupo 53744">
          <path id="Trazado_100465" data-name="Trazado 100465" d="M236.63,450.1a1.4,1.4,0,0,0-.84.65l-2.14,3.78a1.379,1.379,0,0,0,2.4,1.36l2.14-3.78a.944.944,0,0,0,.1-.23,1.43,1.43,0,0,0,.03-.82,1.379,1.379,0,0,0-1.69-.96Z" fill="#732be5"/>
          <path id="Trazado_100466" data-name="Trazado 100466" d="M214.69,456.61a1.375,1.375,0,0,0,.52,1.88l3.78,2.14a1.386,1.386,0,0,0,1.88-.52.944.944,0,0,0,.1-.23,1.382,1.382,0,0,0-.62-1.66l-3.78-2.14A1.38,1.38,0,0,0,214.69,456.61Z" fill="#732be5"/>
          <path id="Trazado_100467" data-name="Trazado 100467" d="M214.08,467.72a1.381,1.381,0,0,0,.74,2.66l4.18-1.16a1.369,1.369,0,0,0,.93-.88,1.427,1.427,0,0,0,.03-.82,1.357,1.357,0,0,0-.65-.83,1.372,1.372,0,0,0-1.05-.13Z" fill="#732be5"/>
          <path id="Trazado_100468" data-name="Trazado 100468" d="M226.56,449.62h0a1.357,1.357,0,0,0-.65-.83,1.372,1.372,0,0,0-1.05-.13,1.388,1.388,0,0,0-.96,1.7l1.16,4.18a1.434,1.434,0,0,0,.65.84,1.419,1.419,0,0,0,1.05.13,1.369,1.369,0,0,0,.93-.88,1.427,1.427,0,0,0,.03-.82Z" fill="#732be5"/>
        </g>
      </g>
    </g>
  </g>
</svg>
