<svg xmlns="http://www.w3.org/2000/svg" xmlns:xlink="http://www.w3.org/1999/xlink" width="904.001" height="1488.875" viewBox="0 0 904.001 1488.875">
  <defs>
    <linearGradient id="linear-gradient" x1="9.662" y1="0.5" x2="10.662" y2="0.5" gradientUnits="objectBoundingBox">
      <stop offset="0" stop-color="#e6eced"/>
      <stop offset="1" stop-color="#c8d1dd"/>
    </linearGradient>
  </defs>
  <g id="Grupo_53645" data-name="Grupo 53645" transform="translate(-313 -1061.282)">
    <rect id="Rectángulo_5037" data-name="Rectángulo 5037" width="821.449" height="175.875" transform="translate(392.244 1061.282)" fill="#f6f6f6"/>
    <rect id="Rectángulo_5038" data-name="Rectángulo 5038" width="6.615" height="137.941" transform="translate(1210.386 1080.967)" fill="#732be5"/>
    <rect id="Rectángulo_5039" data-name="Rectángulo 5039" width="821.449" height="175.875" transform="translate(392.244 1437.498)" fill="#f6f6f6"/>
    <rect id="Rectángulo_5040" data-name="Rectángulo 5040" width="6.615" height="137.941" transform="translate(1210.386 1456.465)" fill="#732be5"/>
    <rect id="Rectángulo_5041" data-name="Rectángulo 5041" width="822.449" height="175.875" transform="translate(1138.756 1426.157) rotate(-180)" fill="#f6f6f6"/>
    <rect id="Rectángulo_5042" data-name="Rectángulo 5042" width="6.615" height="137.941" transform="translate(319.614 1406.797) rotate(-180)" fill="#732be5"/>
    <rect id="Rectángulo_5043" data-name="Rectángulo 5043" width="822.449" height="175.875" transform="translate(391.244 1811.412)" fill="#f6f6f6"/>
    <rect id="Rectángulo_5044" data-name="Rectángulo 5044" width="6.615" height="137.941" transform="translate(1210.386 1830.053)" fill="#732be5"/>
    <rect id="Rectángulo_5045" data-name="Rectángulo 5045" width="821.449" height="175.875" transform="translate(1137.756 1799.33) rotate(-180)" fill="#f6f6f6"/>
    <rect id="Rectángulo_5046" data-name="Rectángulo 5046" width="6.615" height="137.941" transform="translate(319.614 1780.206) rotate(-180)" fill="#732be5"/>
    <rect id="Rectángulo_5047" data-name="Rectángulo 5047" width="822.449" height="175.875" transform="translate(391.244 2186.281)" fill="#f6f6f6"/>
    <rect id="Rectángulo_5048" data-name="Rectángulo 5048" width="6.615" height="137.941" transform="translate(1210.386 2205.52)" fill="#732be5"/>
    <rect id="Rectángulo_5049" data-name="Rectángulo 5049" width="821.449" height="175.875" transform="translate(1137.756 2175.243) rotate(-180)" fill="#f6f6f6"/>
    <rect id="Rectángulo_5050" data-name="Rectángulo 5050" width="6.615" height="137.941" transform="translate(319.614 2155.782) rotate(-180)" fill="#732be5"/>
    <rect id="Rectángulo_5051" data-name="Rectángulo 5051" width="821.449" height="175.875" transform="translate(1137.756 2550.156) rotate(-180)" fill="#f6f6f6"/>
    <rect id="Rectángulo_5052" data-name="Rectángulo 5052" width="6.615" height="137.941" transform="translate(319.614 2531.223) rotate(-180)" fill="#732be5"/>
    <text id="Ubicuidad:_a_través_del_comercio_electrónico_la_información_se_encuentra_disponible_en_diferentes_escenarios_como_son_el_trabajo_y_el_hogar_utilizando_dispositivos_móviles_tablets_o_dispositivos_electrónicos_permitiendo_sea_ilimitado_tanto_en_ubicación_" data-name="Ubicuidad: a través del comercio electrónico la información se encuentra disponible en diferentes escenarios como son el trabajo y el hogar, utilizando dispositivos móviles, tablets o dispositivos electrónicos, permitiendo sea ilimitado tanto en ubicación " transform="translate(505.765 1091)" fill="#12263f" font-size="16" font-family="Roboto-Black, Roboto" font-weight="800"><tspan x="0" y="17">Ubicuidad:</tspan><tspan y="17" xml:space="preserve" font-family="Roboto-Regular, Roboto" font-weight="400"> a través del comercio electrónico la información se encuentra disponible </tspan><tspan x="0" y="41" font-family="Roboto-Regular, Roboto" font-weight="400">en diferentes escenarios como son el trabajo y el hogar, utilizando dispositivos </tspan><tspan x="0" y="65" font-family="Roboto-Regular, Roboto" font-weight="400">móviles, tablets o dispositivos electrónicos, permitiendo sea ilimitado tanto en </tspan><tspan x="0" y="89" font-family="Roboto-Regular, Roboto" font-weight="400">ubicación como en información, facilitando al cliente realizar cualquier tipo de </tspan><tspan x="0" y="113" font-family="Roboto-Regular, Roboto" font-weight="400">consulta, investigación y compra.</tspan></text>
    <text id="Alcance_global:_el_entorno_de_estas_tecnologías_va_más_allá_de_los_límites_locales_regionales_nacionales_creando_un_marketplace_es_decir_un_mercado_en_línea_entre_millones_de_usuarios_y_negocios_en_todo_el_mundo." data-name="Alcance global: el entorno de estas tecnologías va más allá de los límites locales, regionales, nacionales creando un marketplace, es decir un mercado en línea, entre millones de usuarios y negocios en todo el mundo." transform="translate(414.277 1302.281)" fill="#12263f" font-size="16" font-family="Roboto-Black, Roboto" font-weight="800"><tspan x="0" y="17">Alcance global:</tspan><tspan y="17" xml:space="preserve" font-family="Roboto-Regular, Roboto" font-weight="400"> el entorno de estas tecnologías va más allá de los límites locales, </tspan><tspan x="0" y="41" font-family="Roboto-Regular, Roboto" font-weight="400">regionales, nacionales creando un marketplace, es decir un mercado en línea, entre </tspan><tspan x="0" y="65" font-family="Roboto-Regular, Roboto" font-weight="400">millones de usuarios y negocios en todo el mundo.</tspan></text>
    <text id="Estándares_universales:_posibilita_el_uso_de_internet_a_nivel_de_hardware_y_software_para_todo_el_mundo_en_formatos_estándares_definidos." data-name="Estándares universales: posibilita el uso de internet a nivel de hardware y software para todo el mundo en formatos estándares definidos." transform="translate(505.765 1502.492)" fill="#12263f" font-size="16" font-family="Roboto-Black, Roboto" font-weight="800"><tspan x="0" y="17">Estándares universales:</tspan><tspan y="17" xml:space="preserve" font-family="Roboto-Regular, Roboto" font-weight="400"> posibilita el uso de internet a nivel de hardware y software </tspan><tspan x="0" y="41" font-family="Roboto-Regular, Roboto" font-weight="400">para todo el mundo en formatos estándares definidos.</tspan></text>
    <text id="Riqueza:_la_comercialización_se_da_mediante_mensajes_de_video_audio_y_texto_integrando_a_los_interlocutores_generando_un_escenario_apto_para_consumo_y_comercialización._" data-name="Riqueza: la comercialización se da mediante mensajes de video, audio y texto integrando a los interlocutores, generando un escenario apto para  consumo y comercialización. " transform="translate(414.277 1675.453)" fill="#12263f" font-size="16" font-family="Roboto-Black, Roboto" font-weight="800"><tspan x="0" y="17">Riqueza: </tspan><tspan y="17" font-family="Roboto-Regular, Roboto" font-weight="400">la comercialización se da mediante mensajes de video, audio y texto </tspan><tspan x="0" y="41" xml:space="preserve" font-family="Roboto-Regular, Roboto" font-weight="400">integrando a los interlocutores, generando un escenario apto para  consumo y </tspan><tspan x="0" y="65" font-family="Roboto-Regular, Roboto" font-weight="400">comercialización. </tspan></text>
    <text id="Interactividad:_garantiza_la_interacción_entre_proveedores_y_consumidores_facilitando_la_consulta_publicidad_transferencia_de_información_y_la_negociación._" data-name="Interactividad: garantiza la interacción entre proveedores y consumidores facilitando la consulta, publicidad, transferencia de información y la negociación.
" transform="translate(505.765 1877.413)" fill="#12263f" font-size="16" font-family="Roboto-Black, Roboto" font-weight="800"><tspan x="0" y="17">Interactividad: </tspan><tspan y="17" font-family="Roboto-Regular, Roboto" font-weight="400">garantiza la interacción entre proveedores y consumidores facilitando </tspan></text>
    <text id="Densidad_de_la_información:_es_generador_de_un_importante_volumen_de_información_de_alta_calidad_y_a_su_vez_optimiza_costos_de_comunicación_procesamiento_y_almacenamiento_donde_sus_puntos_más_determinantes_son_la_precisión_calidad_y_actualización_de_la" data-name="Densidad de la información:  es generador de un importante volumen de información de alta calidad y a su vez optimiza costos de comunicación, procesamiento y almacenamiento donde sus puntos más determinantes son la precisión, calidad  y actualización de la" transform="translate(414.277 2039.372)" fill="#12263f" font-size="16" font-family="Roboto-Black, Roboto" font-weight="800"><tspan x="0" y="17">Densidad de la información</tspan><tspan y="17" xml:space="preserve" font-family="Roboto-Regular, Roboto" font-weight="400">:  es generador de un importante volumen de información </tspan><tspan x="0" y="41" font-family="Roboto-Regular, Roboto" font-weight="400">de alta calidad y a su vez optimiza costos de comunicación, procesamiento y </tspan><tspan x="0" y="65" xml:space="preserve" font-family="Roboto-Regular, Roboto" font-weight="400">almacenamiento donde sus puntos más determinantes son la precisión, calidad  y </tspan><tspan x="0" y="89" font-family="Roboto-Regular, Roboto" font-weight="400">actualización de la misma.</tspan></text>
    <text id="Personalización:_entregar_mensajes_de_diferente_tipo_a_individuos_y_grupos_objetivos_dependiendo_de_la_necesidades_del_entorno_o_escenario._" data-name="Personalización: entregar mensajes de diferente tipo a individuos y grupos objetivos, dependiendo de la necesidades del entorno o escenario.
" transform="translate(505.765 2249.334)" fill="#12263f" font-size="16" font-family="Roboto-Black, Roboto" font-weight="800"><tspan x="0" y="17">Personalización</tspan><tspan y="17" font-family="Roboto-Regular, Roboto" font-weight="400">: entregar mensajes de diferente tipo a individuos y grupos objetivos, </tspan><tspan x="0" y="41" font-family="Roboto-Regular, Roboto" font-weight="400">dependiendo de la necesidades del entorno o escenario.</tspan></text>
    <text id="Tecnología_social:_se_genera_contenido_que_soporta_usuarios_y_redes_sociales_bajo_modelos_de_negocios." data-name="Tecnología social: se genera contenido que soporta usuarios y redes sociales bajo modelos de negocios." transform="translate(414.277 2436.281)" fill="#12263f" font-size="16" font-family="Roboto-Black, Roboto" font-weight="800"><tspan x="0" y="17">Tecnología social</tspan><tspan y="17" font-family="Roboto-Regular, Roboto" font-weight="400">: se genera contenido que soporta usuarios y redes sociales bajo </tspan><tspan x="0" y="41" font-family="Roboto-Regular, Roboto" font-weight="400">modelos de negocios.</tspan></text>
    <g id="Grupo_53579" data-name="Grupo 53579" transform="translate(314 1065.282)">
      <rect id="Rectángulo_5053" data-name="Rectángulo 5053" width="167" height="167" fill="none"/>
      <g id="Grupo_53578" data-name="Grupo 53578" transform="translate(10.344 9.28)">
        <g id="Grupo_53573" data-name="Grupo 53573">
          <g id="Grupo_53572" data-name="Grupo 53572">
            <circle id="Elipse_3952" data-name="Elipse 3952" cx="62.408" cy="62.408" r="62.408" transform="translate(11.817 11.812)" fill="#732be5" opacity="0.5"/>
            <g id="Grupo_53571" data-name="Grupo 53571">
              <path id="Trazado_100259" data-name="Trazado 100259" d="M232.28,149.386a68.313,68.313,0,0,1,67.946-68.311V75.166a74.221,74.221,0,0,0,0,148.44V217.7A68.313,68.313,0,0,1,232.28,149.386Z" transform="translate(-226.371 -75.166)" fill="#732be5"/>
            </g>
          </g>
          <circle id="Elipse_3953" data-name="Elipse 3953" cx="72.088" cy="72.088" r="72.088" transform="translate(2.137 2.132)" fill="none" stroke="#732be5" stroke-miterlimit="10" stroke-width="1" stroke-dasharray="12"/>
        </g>
        <g id="Grupo_53577" data-name="Grupo 53577" transform="translate(38.336 8.569)">
          <g id="Grupo_53574" data-name="Grupo 53574">
            <path id="Trazado_100260" data-name="Trazado 100260" d="M324.159,90.24q6.72,56.794,13.44,112.4a2.869,2.869,0,0,1-2.554,3.269q-27.008,2.562-54.015,5.236c-3.211.156-4.975-1.639-5.181-3.435q-6.917-60.032-13.834-121.32c-.207-1.835,1.348-3.412,4.559-3.255q27.14,1.935,54.281,3.819A3.8,3.8,0,0,1,324.159,90.24Z" transform="translate(-261.996 -83.129)" fill="#360d75"/>
            <path id="Trazado_100261" data-name="Trazado 100261" d="M326.511,90.162q6.762,57.043,13.525,112.886a2.887,2.887,0,0,1-2.571,3.284q-28.043,2.374-56.087,4.844a3.326,3.326,0,0,1-3.482-3q-6.96-60.307-13.921-121.885a2.63,2.63,0,0,1,2.745-3.141q28.233,1.884,56.465,3.721A3.818,3.818,0,0,1,326.511,90.162Z" transform="translate(-261.847 -83.128)" fill="#5515ba"/>
            <path id="Trazado_100262" data-name="Trazado 100262" d="M325.233,95.879q6.265,52.851,12.527,104.67a2.686,2.686,0,0,1-2.4,3.063q-26.372,2.158-52.746,4.4a3.111,3.111,0,0,1-3.243-2.805Q272.932,149.5,266.5,92.711a2.47,2.47,0,0,1,2.556-2.944q26.537,1.545,53.076,3.058A3.526,3.526,0,0,1,325.233,95.879Z" transform="translate(-261.655 -82.624)" fill="#e8b210"/>
            <path id="Trazado_100263" data-name="Trazado 100263" d="M321.9,92.822q-26.224-1.495-52.447-3.022a40.1,40.1,0,0,0,3.071,9.936c5.8,12.581,14.319,13.274,17.651,24.237,3.434,11.295-4.31,14.83-.527,25.027,4.105,11.067,14.173,9.464,19.495,21.6,4.587,10.462-1.317,15.245,3.425,21.6,5.2,6.969,14.816,4.606,24.8,6.966q-6.181-51.146-12.361-103.3A3.526,3.526,0,0,0,321.9,92.822Z" transform="translate(-261.428 -82.621)" fill="#cf9e0e"/>
          </g>
          <path id="Trazado_100264" data-name="Trazado 100264" d="M294.611,88.375a.879.879,0,0,1-.919,1.048,1.345,1.345,0,0,1-1.178-1.177.877.877,0,0,1,.92-1.047A1.345,1.345,0,0,1,294.611,88.375Z" transform="translate(-259.674 -82.819)" fill="#ff73b5"/>
          <ellipse id="Elipse_3954" data-name="Elipse 3954" cx="4.046" cy="4.774" rx="4.046" ry="4.774" transform="translate(37.207 30.057)" fill="#ff73b5"/>
          <ellipse id="Elipse_3955" data-name="Elipse 3955" cx="4.046" cy="4.774" rx="4.046" ry="4.774" transform="translate(53.314 30.057)" fill="#ff73b5"/>
          <ellipse id="Elipse_3956" data-name="Elipse 3956" cx="4.104" cy="4.774" rx="4.104" ry="4.774" transform="translate(45.158 30.057)" fill="#d8dce6"/>
          <ellipse id="Elipse_3957" data-name="Elipse 3957" cx="4.046" cy="4.774" rx="4.046" ry="4.774" transform="translate(69.421 30.057)" fill="#ff73b5"/>
          <ellipse id="Elipse_3958" data-name="Elipse 3958" cx="4.104" cy="4.774" rx="4.104" ry="4.774" transform="translate(61.265 30.057)" fill="#d8dce6"/>
          <ellipse id="Elipse_3959" data-name="Elipse 3959" cx="4.104" cy="4.774" rx="4.104" ry="4.774" transform="translate(77.372 30.057)" fill="#d8dce6"/>
          <ellipse id="Elipse_3960" data-name="Elipse 3960" cx="4.104" cy="4.774" rx="4.104" ry="4.774" transform="translate(29.051 30.057)" fill="#d8dce6"/>
          <path id="Trazado_100265" data-name="Trazado 100265" d="M265.74,89.327l25.109,28.808h64.808l-31.4-25.159Z" transform="translate(-261.711 -82.657)" fill="#ff73b5"/>
          <g id="Grupo_53575" data-name="Grupo 53575" transform="translate(4.029 6.67)">
            <path id="Trazado_100266" data-name="Trazado 100266" d="M265.74,89.327l25.109,28.808h8.12L272.495,89.748Z" transform="translate(-265.74 -89.327)" fill="#f4f6f9"/>
            <path id="Trazado_100267" data-name="Trazado 100267" d="M278.756,90.138l27.225,27.934H314L286.062,90.594Z" transform="translate(-264.75 -89.265)" fill="#f4f6f9"/>
            <path id="Trazado_100268" data-name="Trazado 100268" d="M292.385,90.988l28.621,27.02h8.06L299.8,91.451Z" transform="translate(-263.713 -89.2)" fill="#f4f6f9"/>
            <path id="Trazado_100269" data-name="Trazado 100269" d="M313.75,92.32l-7.53-.469,29.872,26.091h8.1Z" transform="translate(-262.66 -89.135)" fill="#f4f6f9"/>
          </g>
          <path id="Trazado_100270" data-name="Trazado 100270" d="M341.514,116.1a4.007,4.007,0,1,0,8.009,0Z" transform="translate(-255.944 -80.62)" fill="#ff73b5"/>
          <path id="Trazado_100271" data-name="Trazado 100271" d="M314.9,133.52c-3.5-8.077-12.4-12-19.861-8.762s-10.673,12.412-7.168,20.489,12.4,12,19.861,8.763S318.407,141.6,314.9,133.52ZM303.9,145.031l.3,2.275-2.187.287-.279-2.119a9.066,9.066,0,0,1-3.918-.461l.326-2.7a7.938,7.938,0,0,0,3.832.494c1.272-.167,2.077-.772,1.96-1.664-.111-.848-.9-1.289-2.619-1.63-2.492-.49-4.268-1.391-4.552-3.554-.258-1.963.923-3.685,3.248-4.467l-.278-2.119,2.186-.287.258,1.964a8.108,8.108,0,0,1,3.332.31l-.316,2.606a7.466,7.466,0,0,0-3.312-.337c-1.45.19-1.836.877-1.754,1.5.1.736.939,1.1,2.929,1.566,2.779.589,4.01,1.674,4.274,3.682C307.586,142.368,306.4,144.248,303.9,145.031Z" transform="translate(-260.135 -80.047)" fill="#f4f6f9" opacity="0.63"/>
          <g id="Grupo_53576" data-name="Grupo 53576" transform="translate(24.725 83.611)" opacity="0.63">
            <path id="Trazado_100272" data-name="Trazado 100272" d="M323.023,174.548l-34.163,1.035a2.428,2.428,0,0,1-2.475-2.063L285,164.413a2.43,2.43,0,0,1,2.346-2.794l34.2-.792A2.43,2.43,0,0,1,324,162.891l1.347,8.865A2.428,2.428,0,0,1,323.023,174.548Z" transform="translate(-284.972 -160.826)" fill="#f4f6f9"/>
            <path id="Trazado_100273" data-name="Trazado 100273" d="M323.991,180.88l-34.142,1.168a2.43,2.43,0,0,1-2.486-2.063l-.013-.085a2.43,2.43,0,0,1,2.326-2.794l34.156-1.083a2.429,2.429,0,0,1,2.478,2.063h0A2.43,2.43,0,0,1,323.991,180.88Z" transform="translate(-284.793 -159.67)" fill="#f4f6f9"/>
          </g>
        </g>
      </g>
    </g>
    <g id="Grupo_53586" data-name="Grupo 53586" transform="translate(1050 1254.281)">
      <g id="Grupo_53585" data-name="Grupo 53585" transform="translate(9.612 8.414)">
        <g id="Grupo_53582" data-name="Grupo 53582" transform="translate(0 0.42)">
          <g id="Grupo_53581" data-name="Grupo 53581" transform="translate(8.995)">
            <circle id="Elipse_3961" data-name="Elipse 3961" cx="63.899" cy="63.899" r="63.899" transform="translate(0 10.976)" fill="#732be5" opacity="0.5"/>
            <g id="Grupo_53580" data-name="Grupo 53580" transform="translate(70.148)">
              <path id="Trazado_100274" data-name="Trazado 100274" d="M941.42,337.93c0-37.939-28.238-68.715-63.141-68.915v-5.96c37.936.2,68.632,33.645,68.632,74.875s-30.7,74.676-68.632,74.877v-5.961C913.182,406.645,941.42,375.87,941.42,337.93Z" transform="translate(-878.279 -263.055)" fill="#732be5"/>
            </g>
          </g>
          <circle id="Elipse_3962" data-name="Elipse 3962" cx="72.895" cy="72.895" r="72.895" transform="translate(0 1.981)" fill="none" stroke="#732be5" stroke-miterlimit="10" stroke-width="1" stroke-dasharray="12"/>
        </g>
        <g id="Grupo_53584" data-name="Grupo 53584" transform="translate(26.22)">
          <path id="Trazado_100275" data-name="Trazado 100275" d="M832.343,286.631v38.455c0,13.465,8.524,29.838,19.043,36.57,1.485.952,2.962,1.894,4.447,2.845l10.57,28.209,10.569-14.671q2.227,1.413,4.447,2.844c.429.275.858.531,1.279.759,4.752,2.644,9.026,2.745,12.2.714l.247-.164c3.3-2.269,5.33-6.934,5.33-13.5V330.245c0-13.473-8.531-29.848-19.051-36.58q-15.012-9.6-30.033-19.218c-5.156-3.3-9.835-3.677-13.259-1.61-.066.037-.14.082-.206.127C834.472,275.17,832.343,279.9,832.343,286.631Z" transform="translate(-832.343 -262.635)" fill="#02cddb"/>
          <path id="Trazado_100276" data-name="Trazado 100276" d="M910.338,373.489c3.449-2.2,5.577-6.946,5.577-13.673V321.342c0-13.472-8.523-29.854-19.042-36.59q-15.013-9.61-30.033-19.237c-5.264-3.368-10.025-3.678-13.465-1.473q-7.637,4.874-15.248,9.766c3.424-2.069,8.1-1.693,13.259,1.611q15.012,9.61,30.033,19.227c10.52,6.736,19.051,23.118,19.051,36.6V369.71c0,6.571-2.03,11.238-5.33,13.508Q902.739,378.357,910.338,373.489Z" transform="translate(-832.343 -262.635)" fill="#02b8c4"/>
          <path id="Trazado_100277" data-name="Trazado 100277" d="M876.972,367.659,866.4,380.9l15.453-8.924.842-1.065c-.421-.206-.85-.437-1.279-.685Q879.2,368.939,876.972,367.659Z" transform="translate(-832.343 -250.824)" fill="#02b8c4"/>
          <g id="Grupo_53583" data-name="Grupo 53583" transform="translate(17.764 49.221)">
            <path id="Trazado_100278" data-name="Trazado 100278" d="M863.9,308.549a1.026,1.026,0,0,0-.887-.144l-.886.375-4.828-2.79c-1.86-1.074-3.456-.61-3.721,1.085l-.436,2.785,2.532,1.463.386-2.462c.083-.565.622-.719,1.239-.362l5.347,3.089a1.021,1.021,0,0,0,.886.144l.887-.374,3.976,2.3.886,1.4a2.673,2.673,0,0,0,.886.879l5.347,3.089a2.714,2.714,0,0,1,1.244,1.8l.381,2.906,2.532,1.462-.436-3.289a8.093,8.093,0,0,0-3.721-5.383l-4.828-2.789-.886-1.4a2.682,2.682,0,0,0-.886-.879Zm-12.535,2.793c-.691-.4-1.254-.161-1.254.53v2.508a2.608,2.608,0,0,0,1.254,1.979l.21.121,1.95,12.825a5.4,5.4,0,0,0,2.471,3.525l20.821,12.028c1.228.709,2.271.425,2.477-.666l1.949-10.574.2.119c.691.4,1.254.161,1.254-.53V330.7a2.608,2.608,0,0,0-1.254-1.979Zm21.309,18.581a2.6,2.6,0,0,1,1.253,1.978v6.271c0,.691-.562.929-1.253.53a2.6,2.6,0,0,1-1.253-1.978v-6.271c0-.691.562-.929,1.253-.53ZM866.4,326.3a2.608,2.608,0,0,1,1.253,1.978v6.271c0,.691-.563.929-1.253.53a2.606,2.606,0,0,1-1.254-1.978v-6.271c0-.691.563-.929,1.254-.53Zm-6.268-3.621a2.608,2.608,0,0,1,1.254,1.979v6.271c0,.691-.563.929-1.254.53a2.608,2.608,0,0,1-1.253-1.979v-6.27c0-.691.563-.93,1.253-.531Z" transform="translate(-850.107 -305.414)" fill="#fbfafc"/>
          </g>
        </g>
      </g>
      <rect id="Rectángulo_5054" data-name="Rectángulo 5054" width="167" height="167" fill="none"/>
    </g>
    <g id="Grupo_53592" data-name="Grupo 53592" transform="translate(314 1447.912)">
      <g id="Grupo_53591" data-name="Grupo 53591" transform="translate(9.612 8.624)">
        <g id="Grupo_53589" data-name="Grupo 53589">
          <g id="Grupo_53588" data-name="Grupo 53588">
            <circle id="Elipse_3963" data-name="Elipse 3963" cx="63.899" cy="63.899" r="63.899" transform="translate(10.981 10.977)" fill="#732be5" opacity="0.5"/>
            <g id="Grupo_53587" data-name="Grupo 53587">
              <path id="Trazado_100279" data-name="Trazado 100279" d="M231.862,525.82C231.862,487.88,260.1,457.1,295,456.9v-5.96c-37.936.2-68.632,33.645-68.632,74.877s30.7,74.675,68.632,74.875v-5.96C260.1,594.534,231.862,563.758,231.862,525.82Z" transform="translate(-226.371 -450.943)" fill="#732be5"/>
            </g>
          </g>
          <circle id="Elipse_3964" data-name="Elipse 3964" cx="72.895" cy="72.895" r="72.895" transform="translate(1.986 1.981)" fill="none" stroke="#732be5" stroke-miterlimit="10" stroke-width="1" stroke-dasharray="12"/>
        </g>
        <g id="Grupo_53590" data-name="Grupo 53590" transform="translate(19.887 1.824)">
          <path id="Trazado_100280" data-name="Trazado 100280" d="M254.235,507.381c-.4-1.9-.795-4.079-1.32-5.772l.612-.117,1.09.757c2.967,12.838,2.889,12.435,2.889,12.519l6.007,2.793c.1,0-1.173.244,10.158-2.12l69.324-35.2,3.271,8.449c5.655,24.541,4.372,19.065,4.763,20.7l-86.177,43.749C259.325,528.967,254.37,508.027,254.235,507.381Z" transform="translate(-246.258 -452.767)" fill="#596876"/>
          <path id="Trazado_100281" data-name="Trazado 100281" d="M263.583,496.948l-9.17,5.3,16.759,13.192,9.17-5.3Z" transform="translate(-246.258 -452.767)" fill="#f4f6f9"/>
          <path id="Trazado_100282" data-name="Trazado 100282" d="M267.168,531.766l13.134-7.575a2.889,2.889,0,0,1,4.274,1.925l1.525,7.477a2.887,2.887,0,0,1-1.387,3.079l-13.133,7.575a2.888,2.888,0,0,1-4.273-1.925l-1.526-7.479A2.887,2.887,0,0,1,267.168,531.766Z" transform="translate(-243.373 -452.767)" fill="#0ef"/>
          <path id="Trazado_100283" data-name="Trazado 100283" d="M272.753,491.648l-9.17,5.3,16.759,13.192,9.187-5.3C272.322,491.3,272.837,491.648,272.753,491.648Z" transform="translate(-243.5 -452.767)" fill="#ff73b5"/>
          <path id="Trazado_100284" data-name="Trazado 100284" d="M281.94,486.348l-9.17,5.3,16.759,13.192,9.17-5.284Z" transform="translate(-242.038 -452.767)" fill="#f4f6f9"/>
          <path id="Trazado_100285" data-name="Trazado 100285" d="M281.94,486.348,298.7,499.556l9.187-5.3-16.776-13.209Z" transform="translate(-240.577 -452.767)" fill="#ff73b5"/>
          <path id="Trazado_100286" data-name="Trazado 100286" d="M289.443,521.184l1.535,7.478a2.889,2.889,0,0,0,4.275,1.921l13.135-7.588a2.891,2.891,0,0,0,1.385-3.083l-1.535-7.467a2.888,2.888,0,0,0-4.273-1.92L290.83,518.1A2.889,2.889,0,0,0,289.443,521.184Z" transform="translate(-239.866 -452.767)" fill="#e8b210"/>
          <path id="Trazado_100287" data-name="Trazado 100287" d="M291.111,481.047l16.776,13.209,9.17-5.3L300.3,475.747Z" transform="translate(-239.118 -452.767)" fill="#f4f6f9"/>
          <path id="Trazado_100288" data-name="Trazado 100288" d="M290.051,555.084l2.709,1.548V552.1c-.909.522-1.8,1.044-2.709,1.565Z" transform="translate(-240.949 -452.767)" fill="#a5b3bf"/>
          <path id="Trazado_100289" data-name="Trazado 100289" d="M292.76,552.1v4.527l10.062-5.8V546.3C300.642,547.557,294.648,551.009,292.76,552.1Z" transform="translate(-240.16 -452.767)" fill="#c8d1dd"/>
          <path id="Trazado_100290" data-name="Trazado 100290" d="M302.822,550.827l-10.062,5.8-2.709-1.548-7.1,4.105,7.589,4.375a9.474,9.474,0,0,0,8.6.286l16.2-9.338a2.6,2.6,0,0,0,1.514-2.222,1.481,1.481,0,0,0-.017-.387,2.676,2.676,0,0,0-.757-1.379c-.659-.72-.613-.6-8.85-5.368l-4.409,2.558Z" transform="translate(-239.714 -452.767)" fill="#dfe3e7"/>
          <path id="Trazado_100291" data-name="Trazado 100291" d="M312.576,507.837l1.526,7.476a2.888,2.888,0,0,0,4.275,1.924l13.133-7.587a2.89,2.89,0,0,0,1.386-3.079l-1.525-7.476a2.89,2.89,0,0,0-4.276-1.924l-13.133,7.588A2.888,2.888,0,0,0,312.576,507.837Z" transform="translate(-234.447 -452.767)" fill="#00ffc4"/>
          <path id="Trazado_100292" data-name="Trazado 100292" d="M315.341,554.512l-16.2,9.338a9.477,9.477,0,0,1-8.6-.286l-7.589-4.375V562.3c8.206,4.731,8.2,4.849,9.642,5.216a9.246,9.246,0,0,0,6.545-.538c17.708-10.224,16.34-9.4,16.776-9.759a2.446,2.446,0,0,0,.959-1.818V552.29h-.017A2.6,2.6,0,0,1,315.341,554.512Z" transform="translate(-239.713 -452.767)" fill="#a5b3bf"/>
          <path id="Trazado_100293" data-name="Trazado 100293" d="M322.9,452.829a2.253,2.253,0,0,0-1.683.27l-72.858,42.066a4.931,4.931,0,0,0-2,4.98c13.739,67.635,12.8,63.182,13.023,63.806a2.4,2.4,0,0,0,1.5,1.43c6.946,1.839,4.927,1.479,4.425.976h-.017a2.278,2.278,0,0,1-.555-.757c-.272-.271-.533-1.9-1.245-5.418-.021-.085-.342-1.537-.656-3.079-1.269-5.961,3.94,19.456-11.257-55.561a4.047,4.047,0,0,1,0-1.767,1.788,1.788,0,0,1,.118-.521,2.06,2.06,0,0,1,.168-.522,1.461,1.461,0,0,1,.084-.252,4.378,4.378,0,0,1,2.187-2.222c6.173-3.517,72.371-41.867,72.808-41.965a1.975,1.975,0,0,1,.774-.117.065.065,0,0,1,.051.016.626.626,0,0,1,.185.017C327.856,454.209,328.88,454.429,322.9,452.829Z" transform="translate(-246.258 -452.767)" fill="#a5b3bf"/>
          <path id="Trazado_100294" data-name="Trazado 100294" d="M329.425,461.108c-.65-2.886-.719-4.025-1.044-4.61a1.11,1.11,0,0,0-1.413-.556c-.484.153-.763.508-1.969,1.111-.706.4-1.413.841-2.137,1.262-2.567,1.508-55.93,32.223-56.015,32.273-3.012,1.784-6.041,3.618-8.985,5.283-3.833,2.136-4.169,2.318-4.526,2.743a3.3,3.3,0,0,0-.421,2.995l.538-.117.959.757c14.192-8.2,62.823-36.295,73.414-42.386Z" transform="translate(-246.258 -452.767)" fill="#596876"/>
          <path id="Trazado_100295" data-name="Trazado 100295" d="M350.573,509.383,264.96,553.132c-4.838-21.291-10.476-45.407-10.548-45.751-.361-1.733-.665-3.416-1.141-5.2-.364-1.18-.678-2.589.3-3.567a3.917,3.917,0,0,1,1.1-.74c1.369-.707,2.68-1.346,4.011-2,3.325-1.665,6.746-3.5,10.148-5.283.106-.056,67.8-34.617,67.9-34.646a1.323,1.323,0,0,1,1.6.556c.37.59.329,1.266,1.179,4.61l1.824,1.279c-.132-.6-1.291-5.684-1.5-6.428a2.737,2.737,0,0,0-1.007-1.363.1.1,0,0,0-.058-.033,2.029,2.029,0,0,0-.379-.2c-.2-.07-.354-.118-.361-.118h-.037a.029.029,0,0,0-.038,0,.741.741,0,0,0-.323-.051,2.075,2.075,0,0,0-.59.017c-.8.118-81.811,41.7-83.2,42.369a5.037,5.037,0,0,0-1.027.774,4.881,4.881,0,0,0-1.234,2.423,3.69,3.69,0,0,0,0,1.767c15.5,67.638,14.493,63.391,14.842,64.041a2.53,2.53,0,0,0,1.6,1.212,2.639,2.639,0,0,0,1.691-.185c.094-.028,72.761-37.183,72.881-37.254,10.281-5.259,9.844-4.905,10.471-5.553a.991.991,0,0,0,.285-.269.919.919,0,0,0,.114-.134,3.443,3.443,0,0,0,.323-.472,4.7,4.7,0,0,0,.723-1.951c.115-1.073.016-1.175-.57-3.753-.019-.1-.058-.2-.076-.3-.113-.43-1.976-8.694-6.652-28.924l-1.368.69C351.172,511.973,350.1,507.407,350.573,509.383Z" transform="translate(-246.258 -452.767)" fill="url(#linear-gradient)"/>
          <path id="Trazado_100296" data-name="Trazado 100296" d="M335.415,478.355l.869,2.483a5.2,5.2,0,1,0,9.822-3.437l-1.521-4.346Z" transform="translate(-234.447 -452.767)" fill="#ff73b5"/>
          <path id="Trazado_100297" data-name="Trazado 100297" d="M336.951,482.744l-1.536-4.389-9.187,5.3.894,2.557a5.212,5.212,0,0,0,9.829-3.468Z" transform="translate(-234.447 -452.767)" fill="#f4f6f9"/>
          <path id="Trazado_100298" data-name="Trazado 100298" d="M300.3,475.747l16.759,13.209,9.17-5.3-16.759-13.209Z" transform="translate(-237.657 -452.767)" fill="#ff73b5"/>
          <path id="Trazado_100299" data-name="Trazado 100299" d="M318.639,465.146c.084.084-.4-.314,16.776,13.209l9.17-5.3c-17.384-13.692-14.9-11.742-16.759-13.192Z" transform="translate(-234.447 -452.767)" fill="#ff73b5"/>
          <path id="Trazado_100300" data-name="Trazado 100300" d="M318.639,465.146l-9.171,5.3,16.76,13.208,9.187-5.3C318.208,464.811,318.722,465.23,318.639,465.146Z" transform="translate(-234.447 -452.767)" fill="#f4f6f9"/>
          <path id="Trazado_100301" data-name="Trazado 100301" d="M271.172,515.441l-16.76-13.192c2.609,12.834,2.541,12.435,2.541,12.519,3.16,1.67,5.516,2.921,7.371,3.907A4.727,4.727,0,0,0,271.172,515.441Z" transform="translate(-246.258 -452.767)" fill="#ff73b5"/>
          <path id="Trazado_100302" data-name="Trazado 100302" d="M280.342,510.14l.868,2.479a5.211,5.211,0,1,0,9.837-3.443l-1.518-4.336Z" transform="translate(-241.742 -452.767)" fill="#ff73b5"/>
          <path id="Trazado_100303" data-name="Trazado 100303" d="M281.863,514.486l-1.521-4.346-9.17,5.3.869,2.483a5.2,5.2,0,1,0,9.822-3.438Z" transform="translate(-242.957 -452.767)" fill="#f4f6f9"/>
          <path id="Trazado_100304" data-name="Trazado 100304" d="M289.529,504.84l.87,2.485a5.2,5.2,0,1,0,9.819-3.44l-1.518-4.329Z" transform="translate(-240.526 -452.767)" fill="#f4f6f9"/>
          <path id="Trazado_100305" data-name="Trazado 100305" d="M298.7,499.556l.865,2.467a5.207,5.207,0,0,0,9.831-3.438l-1.509-4.329Z" transform="translate(-239.31 -452.767)" fill="#ff73b5"/>
          <path id="Trazado_100306" data-name="Trazado 100306" d="M318.573,493.277l-1.516-4.321-9.17,5.3.857,2.459a5.206,5.206,0,1,0,9.829-3.438Z" transform="translate(-238.094 -452.767)" fill="#f4f6f9"/>
          <path id="Trazado_100307" data-name="Trazado 100307" d="M325.434,494.223A5.2,5.2,0,0,0,327.747,488l-1.519-4.341-9.171,5.3.87,2.481A5.2,5.2,0,0,0,325.434,494.223Z" transform="translate(-236.879 -452.767)" fill="#ff73b5"/>
        </g>
      </g>
      <rect id="Rectángulo_5055" data-name="Rectángulo 5055" width="167" height="167" fill="none"/>
    </g>
    <g id="Grupo_53599" data-name="Grupo 53599" transform="translate(1049 1633.641)">
      <g id="Grupo_53598" data-name="Grupo 53598" transform="translate(9.612 8.624)">
        <g id="Grupo_53595" data-name="Grupo 53595">
          <g id="Grupo_53594" data-name="Grupo 53594" transform="translate(8.995)">
            <circle id="Elipse_3965" data-name="Elipse 3965" cx="63.899" cy="63.899" r="63.899" transform="translate(0 10.977)" fill="#732be5" opacity="0.5"/>
            <g id="Grupo_53593" data-name="Grupo 53593" transform="translate(70.148)">
              <path id="Trazado_100308" data-name="Trazado 100308" d="M940.42,711.65c0-37.939-28.238-68.715-63.141-68.916v-5.96c37.936.2,68.632,33.645,68.632,74.877s-30.7,74.675-68.632,74.875v-5.96C912.182,780.364,940.42,749.588,940.42,711.65Z" transform="translate(-877.279 -636.773)" fill="#732be5"/>
            </g>
          </g>
          <circle id="Elipse_3966" data-name="Elipse 3966" cx="72.895" cy="72.895" r="72.895" transform="translate(0 1.981)" fill="none" stroke="#732be5" stroke-miterlimit="10" stroke-width="1" stroke-dasharray="12"/>
        </g>
        <g id="Grupo_53597" data-name="Grupo 53597" transform="translate(16.844 26.479)">
          <path id="Trazado_100309" data-name="Trazado 100309" d="M832.019,738.026l-5.228-1.213,9.907-6.476h4.342Z" transform="translate(-826.791 -657.998)" fill="#ff459d"/>
          <path id="Trazado_100310" data-name="Trazado 100310" d="M857.285,663.26c-16.842,9.729-30.494,29.647-30.494,44.495,0,7.315,3.324,12.024,8.707,13.762-.057,6.69-6.722,13.61-8.707,15.3,0,0,2.178.921,7.986-2.434a40.635,40.635,0,0,0,14.465-13.691,44.39,44.39,0,0,0,8.043-3.67c16.841-9.729,30.494-29.647,30.494-44.495s-13.653-18.992-30.494-9.263Z" transform="translate(-826.791 -657.998)" fill="#ff459d"/>
          <path id="Trazado_100311" data-name="Trazado 100311" d="M895.062,700.632c-13.235,7.646-23.964,23.3-23.964,34.966s10.729,14.925,23.964,7.28a47.719,47.719,0,0,0,6.321-4.419c2.086.945,5.572.974,11.367-2.374a18.8,18.8,0,0,0,6.275-5.338c-1.559.478-6.8,1.091-6.841-4.115,4.229-6.253,6.841-12.971,6.841-18.72,0-11.668-10.728-14.925-23.963-7.28Z" transform="translate(-826.791 -657.998)" fill="#5109c3"/>
          <path id="Trazado_100312" data-name="Trazado 100312" d="M862.512,664.473c-16.841,9.729-30.493,29.647-30.493,44.495,0,7.315,3.323,12.024,8.706,13.762-.056,6.69-6.721,13.61-8.706,15.3,0,0,2.178.921,7.986-2.434A40.621,40.621,0,0,0,854.469,721.9a44.362,44.362,0,0,0,8.043-3.67c16.842-9.729,30.494-29.647,30.494-44.495s-13.652-18.992-30.494-9.263Z" transform="translate(-826.791 -657.998)" fill="#ff73b5"/>
          <path id="Trazado_100313" data-name="Trazado 100313" d="M900.29,701.845c-13.235,7.645-23.964,23.3-23.964,34.966s10.729,14.925,23.964,7.28a47.73,47.73,0,0,0,6.321-4.419c2.085.945,5.572.974,11.366-2.374a18.8,18.8,0,0,0,6.276-5.338c-1.559.478-6.8,1.091-6.842-4.115,4.23-6.253,6.842-12.971,6.842-18.72,0-11.668-10.729-14.925-23.963-7.28Z" transform="translate(-826.791 -657.998)" fill="#732be5"/>
          <g id="Grupo_53596" data-name="Grupo 53596" transform="translate(18.074 14.18)">
            <path id="Trazado_100314" data-name="Trazado 100314" d="M855.152,690.16,851.59,692.6l.459,14.794-3.128,2.138-.458-14.794-3.5,2.392-.1-3.215,10.188-6.967Z" transform="translate(-844.865 -672.178)" fill="#fff"/>
            <path id="Trazado_100315" data-name="Trazado 100315" d="M860.318,702q-2.274,1.555-3.623.6t-1.435-3.78l-.015-.47a13.787,13.787,0,0,1,1.062-5.828,9.536,9.536,0,0,1,3.461-4.327q2.025-1.384,3.191-.527t1.253,3.679l.068,2.189-5.736,3.923-.017.086a1.588,1.588,0,0,0,.636,1.3q.529.3,1.483-.352a9.806,9.806,0,0,0,1.487-1.219,20.147,20.147,0,0,0,1.346-1.564l.828,2.035A13.565,13.565,0,0,1,862.6,700,13.2,13.2,0,0,1,860.318,702Zm-.451-10.592a2.9,2.9,0,0,0-1.085,1.393,5.913,5.913,0,0,0-.358,2.007l.02.049,2.7-1.847-.01-.322a2.418,2.418,0,0,0-.322-1.384C860.621,691.074,860.307,691.107,859.867,691.408Z" transform="translate(-844.865 -672.178)" fill="#fff"/>
            <path id="Trazado_100316" data-name="Trazado 100316" d="M869.438,685.861l.055-.038,1.146-4.813,3.506-2.4-2.7,8.6,3.217,4.71-3.507,2.4-1.459-3.158-.054.037-1.206,4.982-3.508,2.4,2.8-8.823-3.121-4.624,3.489-2.386Z" transform="translate(-844.865 -672.178)" fill="#fff"/>
            <path id="Trazado_100317" data-name="Trazado 100317" d="M878.585,672.178l.1,3.328,1.584-1.083.089,2.894-1.583,1.083.191,6.135c.014.479.1.774.25.884s.35.082.6-.087a4.049,4.049,0,0,0,.383-.287c.1-.082.216-.2.364-.35l.308,2.948q-.466.483-.845.81a10.059,10.059,0,0,1-.9.684q-1.545,1.055-2.379.5t-.909-2.941l-.191-6.16-1.4.955-.09-2.894,1.4-.955-.1-3.328Z" transform="translate(-844.865 -672.178)" fill="#fff"/>
          </g>
          <path id="Trazado_100318" data-name="Trazado 100318" d="M891.588,721.607l7.283,12.575,10.12-17.09Z" transform="translate(-826.791 -657.998)" fill="#fff"/>
        </g>
      </g>
      <rect id="Rectángulo_5056" data-name="Rectángulo 5056" width="167" height="167" fill="none"/>
    </g>
    <g id="Grupo_53607" data-name="Grupo 53607" transform="translate(313 1820.221)">
      <g id="Grupo_53606" data-name="Grupo 53606" transform="translate(9.612 7.415)">
        <g id="Grupo_53602" data-name="Grupo 53602" transform="translate(0 2.417)">
          <g id="Grupo_53601" data-name="Grupo 53601">
            <circle id="Elipse_3967" data-name="Elipse 3967" cx="63.899" cy="63.899" r="63.899" transform="translate(10.981 10.977)" fill="#732be5" opacity="0.5"/>
            <g id="Grupo_53600" data-name="Grupo 53600">
              <path id="Trazado_100319" data-name="Trazado 100319" d="M230.862,899.537c0-37.939,28.238-68.714,63.141-68.915v-5.961c-37.936.2-68.632,33.646-68.632,74.876s30.7,74.675,68.632,74.877v-5.961C259.1,968.252,230.862,937.477,230.862,899.537Z" transform="translate(-225.371 -824.661)" fill="#732be5"/>
            </g>
          </g>
          <circle id="Elipse_3968" data-name="Elipse 3968" cx="72.895" cy="72.895" r="72.895" transform="translate(1.986 1.981)" fill="none" stroke="#732be5" stroke-miterlimit="10" stroke-width="1" stroke-dasharray="12"/>
        </g>
        <g id="Grupo_53605" data-name="Grupo 53605" transform="translate(37.834)">
          <g id="Grupo_53603" data-name="Grupo 53603">
            <path id="Trazado_100320" data-name="Trazado 100320" d="M325.583,912.476A94.153,94.153,0,0,1,324,925.629a24.283,24.283,0,0,1-16.846,19.163,67.607,67.607,0,0,1-18.719,2.878h-.307c-6.656-.042-13.83-3.809-19.026-9.2-3.989-4.159-6.815-9.27-7.291-14.381-.148-1.619-.243-3.375-.243-5.322,0-9.143,5.4-16.359,12.634-20.867a6.078,6.078,0,0,0,2.529,2,8.718,8.718,0,0,0,3.514.656,6.569,6.569,0,0,0,2.931-.667c1.248,4.762,6.444,7.608,11.375,7.608,6.91,0,9.735-4.645,10.846-11.322a6.091,6.091,0,0,0,2.5-1.482,21.789,21.789,0,0,0,4.433-6.7C321.953,888.561,325.583,902.889,325.583,912.476Z" transform="translate(-257.605 -810.433)" fill="#5515ba"/>
            <path id="Trazado_100321" data-name="Trazado 100321" d="M319.051,847.924c1.782,3.089,3.1,6.024,3.1,9.558,0,3.254-1.274,8.492-4.517,8.492a3.222,3.222,0,0,1-.707-.08,15.914,15.914,0,0,0,.554-4.552c0-2.09-.221-4.211-.221-6.149,0-2.335,1.871-3.786,1.871-6.1A8.106,8.106,0,0,0,319.051,847.924Z" transform="translate(-257.605 -819.419)" fill="#283c48"/>
            <path id="Trazado_100322" data-name="Trazado 100322" d="M315.32,858.916c-.054.072-.11.145-.168.217a18.886,18.886,0,0,0-2.078,1.8,17.446,17.446,0,0,1-3.138,1.565.561.561,0,0,1-.731-.463c0-2.79,3.808-4.988,5.756-7.365.058-.072.116-.143.171-.217.045-.058.088-.116.13-.174a.476.476,0,0,1,.844.14A4.871,4.871,0,0,1,315.32,858.916Z" transform="translate(-257.605 -819.03)" fill="#7f542e"/>
            <path id="Trazado_100323" data-name="Trazado 100323" d="M315.32,858.916l-.005.093c-.055.04-.11.08-.163.124C315.21,859.061,315.266,858.988,315.32,858.916Z" transform="translate(-257.605 -818.785)" fill="#d49063"/>
            <path id="Trazado_100324" data-name="Trazado 100324" d="M315.132,854.453c-.055.074-.113.145-.171.217-1.832-3.626-5.112-4.324-7.711-4.738a9.831,9.831,0,0,0-4.978.511c-2.392.889-4.975,1.459-6.882,3.241a9.7,9.7,0,0,0-1.1,1.238l-.007.009c-.048.064-.1.131-.145.2l-.008.008c-1.472,1.792-5.562,1.337-.4-10.973,1.953-4.661-1.147-7.3-3.492-10.758a32.936,32.936,0,0,1,8.91-2.987c1.4-.058,2.873-.384,4.292-.384,4.043,0,5.783,3.409,7.806,6.747a7.409,7.409,0,0,0,.859,1.738,30.6,30.6,0,0,1,4.29,3.918,11.117,11.117,0,0,1,2.661,5.485,8.106,8.106,0,0,1,.083,1.164c0,2.319-1.871,3.77-1.871,6.1,0,1.938.221,4.059.221,6.149a15.914,15.914,0,0,1-.554,4.552,9.08,9.08,0,0,1-.964,2.179h0c-.29-2.069-.767-2.864-.767-5.651,0-1.142.072-2.276.117-3.413l.005-.093a4.871,4.871,0,0,0,.786-4.5.476.476,0,0,0-.844-.14C315.22,854.337,315.177,854.4,315.132,854.453Z" transform="translate(-257.605 -822.244)" fill="#a26d42"/>
            <path id="Trazado_100325" data-name="Trazado 100325" d="M307.25,849.932c2.6.414,5.879,1.112,7.711,4.738-1.948,2.377-5.756,4.575-5.756,7.365a.561.561,0,0,0,.731.463,17.446,17.446,0,0,0,3.138-1.565,14.984,14.984,0,0,0-4.177,7.212,11.574,11.574,0,0,0-.2,1.173,10.754,10.754,0,0,0-.075,1.272c0,7.342,3.644,6.27,3.644,9.3,0,.982-.7,3.095-2.389,3.095-1.255,0-2.651-.974-3.569-.974H306.3a.687.687,0,0,0-.174,1.344c1.191.366,2.438.945,2.438,2.261a2.635,2.635,0,0,1-.118.748,11.944,11.944,0,0,1-5.743.947,7.9,7.9,0,0,1-2.106-.289,12.162,12.162,0,0,0,6.619,2.081c.146,0,.291,0,.435-.01a10.726,10.726,0,0,0-3.8,2.587,9.843,9.843,0,0,1-6.466,2.252,24.674,24.674,0,0,1-8.893-1.97q-.783-.361-1.554-.754v0c-.7-6.2-4.408-11.426-4.408-16.763a11.608,11.608,0,0,1,.261-2.46,3.989,3.989,0,0,1,2.29-2.814c4.162-1.819,5.886-9.668,9.054-14.036l.008-.008a1.873,1.873,0,0,0,.145-.2l.007-.009a9.7,9.7,0,0,1,1.1-1.238c1.907-1.782,4.49-2.352,6.882-3.241A9.831,9.831,0,0,1,307.25,849.932Zm2.563,27.162a1.627,1.627,0,0,0-1.089-.394,1.91,1.91,0,0,0-1.961,1.779,3.458,3.458,0,0,0,.266,1.077C307.193,878.44,308.8,877.373,309.813,877.094ZM302.446,866c0-1.173-.733-1.981-2.314-1.981-7.362,0-12.669,5.389-13.95,6.818,3.532-1.72,10.553-3.012,10.568-3.013C298.41,867.53,302.446,868.028,302.446,866Zm-5.414,7.932a.4.4,0,0,0-.591-.462c-.152.092-.3.181-.458.266a30.971,30.971,0,0,1-5.22,1.88c-.752.211-1.471.389-2.081.512a.534.534,0,0,0-.27.9,7.04,7.04,0,0,0,3.7,2.1l0,0a3.638,3.638,0,0,0,.464.032C295.214,879.164,296.431,875.847,297.032,873.929Z" transform="translate(-257.605 -818.239)" fill="#e6a57a"/>
            <path id="Trazado_100326" data-name="Trazado 100326" d="M314.058,864.854a.287.287,0,0,1,.479.239c-.186,2.061-.836,4.609-4.114,4.609h-.017a1.831,1.831,0,0,1-.63-1.373,2.167,2.167,0,0,1,.1-.633A17.726,17.726,0,0,0,314.058,864.854Z" transform="translate(-257.605 -818.075)" fill="#655fbf"/>
            <path id="Trazado_100327" data-name="Trazado 100327" d="M313.074,860.933a18.886,18.886,0,0,1,2.078-1.8A8.938,8.938,0,0,1,313.074,860.933Z" transform="translate(-257.605 -818.72)" fill="#7f542e"/>
            <path id="Trazado_100328" data-name="Trazado 100328" d="M310.952,885.152a1.911,1.911,0,0,1-1.723,1.815c.3.054.6.072.9.108-.083,1.619-.884,1.418-2.479,2.023-.144.007-.289.01-.435.01a12.162,12.162,0,0,1-6.619-2.081,7.9,7.9,0,0,0,2.106.289,11.944,11.944,0,0,0,5.743-.947A21.588,21.588,0,0,0,310.952,885.152Z" transform="translate(-257.605 -816.127)" fill="#b25055"/>
            <path id="Trazado_100329" data-name="Trazado 100329" d="M309.776,868.329a1.831,1.831,0,0,0,.63,1.373,3.953,3.953,0,0,1-1.705-.384,11.574,11.574,0,0,1,.2-1.173q.512-.218.979-.449A2.167,2.167,0,0,0,309.776,868.329Z" transform="translate(-257.605 -817.894)" fill="#f0dfbe"/>
            <path id="Trazado_100330" data-name="Trazado 100330" d="M308.724,876.7a1.627,1.627,0,0,1,1.089.394c-1.014.279-2.62,1.346-2.784,2.462a3.458,3.458,0,0,1-.266-1.077A1.91,1.91,0,0,1,308.724,876.7Z" transform="translate(-257.605 -816.997)" fill="#f1bc98"/>
            <path id="Trazado_100331" data-name="Trazado 100331" d="M261.848,867.114a3.829,3.829,0,0,0-2.231,3.84c0,2.605,1.466,5.942,3.49,8.688l.005.007a5.252,5.252,0,0,0,.855,1.083c1.988,2.357,4.344,4.055,6.356,4.055,1.669,0,3.532-1.164,3.532-4.031,0-6.112-7.388-13.712-11.429-13.712A2.016,2.016,0,0,0,261.848,867.114Zm47.408-37.061a19.619,19.619,0,0,0-8.747-1.94c-18.571,0-30.432,20.832-31.185,31.972-.5,7.375,7,14.119,7,21.086,0,3.065-1.269,6.017-4.432,6.017a11.026,11.026,0,0,1-4.355-1.167h-.005c-4.306-2.578-8.183-8.1-9.474-12.5a10.092,10.092,0,0,1-.456-2.8c0-3.009,1.521-5.426,3.459-7.744.71-.853,1.478-1.691,2.246-2.542,2.327-6.643,7.98-24.381,20.481-32.592a25.5,25.5,0,0,1,10.652-4.042,26.624,26.624,0,0,1,3.577-.239,12.97,12.97,0,0,1,5.073,1.09A27.947,27.947,0,0,1,309.256,830.053Z" transform="translate(-257.605 -822.244)" fill="#596876"/>
            <path id="Trazado_100332" data-name="Trazado 100332" d="M304.14,896.437a6.489,6.489,0,0,0,1.258-.256c-1.119,6.678-3.943,11.324-10.849,11.324-4.932,0-10.128-2.854-11.374-7.614a6.292,6.292,0,0,0,.848-.514c1.18,3.843,5.458,6.2,9.786,6.2C298.429,905.582,303.106,902.891,304.14,896.437Z" transform="translate(-257.605 -814.591)" fill="#9f3759"/>
            <path id="Trazado_100333" data-name="Trazado 100333" d="M302.192,896.334a6.491,6.491,0,0,0,1.948.1c-1.034,6.454-5.711,9.145-10.331,9.145-4.328,0-8.606-2.362-9.786-6.2a7.8,7.8,0,0,0,3.021-6.208,17.753,17.753,0,0,0-.111-1.956q.771.393,1.554.754A65.73,65.73,0,0,0,302.192,896.334Z" transform="translate(-257.605 -814.909)" fill="#c78154"/>
            <path id="Trazado_100334" data-name="Trazado 100334" d="M300.132,864.016c1.581,0,2.314.808,2.314,1.981,0,2.031-4.036,1.533-5.7,1.824-.015,0-7.036,1.293-10.568,3.013C287.463,869.405,292.77,864.016,300.132,864.016Z" transform="translate(-257.605 -818.084)" fill="#7f542e"/>
            <path id="Trazado_100335" data-name="Trazado 100335" d="M296.441,873.467a.4.4,0,0,1,.591.462c-.6,1.918-1.818,5.235-4.456,5.235a3.638,3.638,0,0,1-.464-.032l0,0a2.421,2.421,0,0,1-1.607-2.425,2.092,2.092,0,0,1,.261-1.092,30.971,30.971,0,0,0,5.22-1.88C296.138,873.648,296.289,873.559,296.441,873.467Z" transform="translate(-257.605 -817.194)" fill="#655fbf"/>
            <path id="Trazado_100336" data-name="Trazado 100336" d="M286.933,891.211v0a17.753,17.753,0,0,1,.111,1.956,7.8,7.8,0,0,1-3.021,6.208,6.292,6.292,0,0,1-.848.514,6.512,6.512,0,0,1-2.937.666c-2.638,0-4.721-.849-6.042-2.656a8.558,8.558,0,0,1-1.463-3.888c-8.112-1.8-14.727-10.85-14.727-19.2q0-.654.055-1.3c1.291,4.406,5.168,9.923,9.474,12.5h.005a9.129,9.129,0,0,0,4.618,1.45c3.934,0,6.916-1.988,6.916-6.792,0-5.029-3.515-9.807-5.33-14.248a20.041,20.041,0,0,1-.955-6.171c0-9.884,6.267-21.215,17.444-26.853,2.345,3.462,5.445,6.1,3.492,10.758-5.157,12.31-1.067,12.765.4,10.973-3.168,4.368-4.892,12.217-9.054,14.036a3.989,3.989,0,0,0-2.29,2.814,11.608,11.608,0,0,0-.261,2.46C282.525,879.785,286.236,885.013,286.933,891.211Z" transform="translate(-257.605 -822.244)" fill="#c48b5e"/>
            <path id="Trazado_100337" data-name="Trazado 100337" d="M288.487,891.967a24.674,24.674,0,0,0,8.893,1.97,9.843,9.843,0,0,0,6.466-2.252,10.726,10.726,0,0,1,3.8-2.587c1.6-.605,2.4-.4,2.479-2.023-.3-.036-.6-.054-.9-.108a1.911,1.911,0,0,0,1.723-1.815,21.588,21.588,0,0,1-2.507,1.217,2.635,2.635,0,0,0,.118-.748c0-1.316-1.247-1.895-2.438-2.261a.687.687,0,0,1,.174-1.344h.013c.918,0,2.314.974,3.569.974,1.689,0,2.389-2.113,2.389-3.095,0-3.035-3.644-1.963-3.644-9.3a10.754,10.754,0,0,1,.075-1.272,3.953,3.953,0,0,0,1.705.384h.017c3.278,0,3.928-2.548,4.114-4.609a.287.287,0,0,0-.479-.239,17.726,17.726,0,0,1-4.182,2.842q-.468.233-.979.449a14.984,14.984,0,0,1,4.177-7.212,8.938,8.938,0,0,0,2.078-1.8c.053-.044.108-.084.163-.124-.045,1.137-.117,2.271-.117,3.413,0,2.787.477,3.582.767,5.651a26.415,26.415,0,0,1,.217,3.705c0,1.17-.051,2.349-.133,3.513a56.814,56.814,0,0,1-3.73,12.7,21.823,21.823,0,0,1-4.427,6.707,6.261,6.261,0,0,1-2.494,1.478,6.4,6.4,0,0,1-3.206.153A65.73,65.73,0,0,1,288.487,891.967Z" transform="translate(-257.605 -817.308)" fill="#d49063"/>
            <path id="Trazado_100338" data-name="Trazado 100338" d="M290.5,876.705a2.421,2.421,0,0,0,1.607,2.425,7.04,7.04,0,0,1-3.7-2.1.534.534,0,0,1,.27-.9c.61-.123,1.329-.3,2.081-.512A2.092,2.092,0,0,0,290.5,876.705Z" transform="translate(-257.605 -817.073)" fill="#f0dfbe"/>
            <path id="Trazado_100339" data-name="Trazado 100339" d="M287.754,822.244a23.1,23.1,0,0,1,6.689,1.559,25.5,25.5,0,0,0-10.652,4.042,18.718,18.718,0,0,0-8.081-1.7c-.648,0-1.351.052-2.04.07v0A27.244,27.244,0,0,1,287.754,822.244Z" transform="translate(-257.605 -822.244)" fill="#a26d42"/>
            <path id="Trazado_100340" data-name="Trazado 100340" d="M275.71,826.143a18.718,18.718,0,0,1,8.081,1.7c-12.5,8.211-18.154,25.949-20.481,32.592-.768.851-1.536,1.689-2.246,2.542v0a24.771,24.771,0,0,1-2.035-8.946c0-12.87,6.152-22.69,14.642-27.82v0C274.359,826.2,275.062,826.143,275.71,826.143Z" transform="translate(-257.605 -822.244)" fill="#c48b5e"/>
            <path id="Trazado_100341" data-name="Trazado 100341" d="M271.895,887.188c3.163,0,4.432-2.952,4.432-6.017,0-6.967-7.5-13.711-7-21.086.753-11.14,12.614-31.972,31.185-31.972a19.619,19.619,0,0,1,8.747,1.94h0a38.569,38.569,0,0,1,7.132,12.385,30.6,30.6,0,0,0-4.29-3.918,7.409,7.409,0,0,1-.859-1.738c-2.023-3.338-3.763-6.747-7.806-6.747-1.419,0-2.889.326-4.292.384a32.936,32.936,0,0,0-8.91,2.987c-11.177,5.638-17.444,16.969-17.444,26.853a20.041,20.041,0,0,0,.955,6.171c1.815,4.441,5.33,9.219,5.33,14.248,0,4.8-2.982,6.792-6.916,6.792a9.129,9.129,0,0,1-4.618-1.45A11.026,11.026,0,0,0,271.895,887.188Z" transform="translate(-257.605 -822.244)" fill="#283c48"/>
            <path id="Trazado_100342" data-name="Trazado 100342" d="M269.324,879.132a2.642,2.642,0,0,1-2.588,2.929,2.406,2.406,0,0,1-.457-.052,12.588,12.588,0,0,1-4.314-4.872,3.03,3.03,0,0,1,.867-3.662,2.588,2.588,0,0,1,1.573-.543C266.159,872.932,269.324,876.555,269.324,879.132Z" transform="translate(-257.605 -817.096)" fill="#1a2738"/>
            <path id="Trazado_100343" data-name="Trazado 100343" d="M263.967,880.732c-.3-.348-.58-.711-.855-1.083l-.005-.007c-2.024-2.746-3.49-6.083-3.49-8.688a3.829,3.829,0,0,1,2.231-3.84,2.016,2.016,0,0,1,.578-.07c4.041,0,11.429,7.6,11.429,13.712,0,2.867-1.863,4.031-3.532,4.031C268.311,884.787,265.955,883.089,263.967,880.732Zm-2-3.595a12.588,12.588,0,0,0,4.314,4.872,2.406,2.406,0,0,0,.457.052,2.642,2.642,0,0,0,2.588-2.929c0-2.577-3.165-6.2-4.919-6.2a2.588,2.588,0,0,0-1.573.543A3.03,3.03,0,0,0,261.965,877.137Z" transform="translate(-257.605 -817.33)" fill="#c95b68"/>
          </g>
          <path id="Trazado_100344" data-name="Trazado 100344" d="M325.583,912.476A94.153,94.153,0,0,1,324,925.629a24.283,24.283,0,0,1-16.846,19.163,67.607,67.607,0,0,1-18.719,2.878h-.307c-6.656-.042-13.83-3.809-19.026-9.2.561.074,1.143.159,1.735.254,52.644,8.042,34.56-42.549,34.56-42.549a6.091,6.091,0,0,0,2.5-1.482,21.789,21.789,0,0,0,4.433-6.7C321.953,888.561,325.583,902.889,325.583,912.476Z" transform="translate(-257.605 -810.433)" fill="#3b0f82"/>
          <g id="Grupo_53604" data-name="Grupo 53604" transform="translate(7.378 60.714)">
            <path id="Trazado_100345" data-name="Trazado 100345" d="M298.875,890.7a2.6,2.6,0,0,1-2.169,1.6c-.275.043-.5.085-.678.106-1.608.286-.052.159-4.285.476a11.974,11.974,0,0,1-2.508.032,23.214,23.214,0,0,1-5-.55,15.3,15.3,0,0,1-2.444-.6,16.58,16.58,0,0,1-2.381-.8,27.284,27.284,0,0,1-14.37-13.153.519.519,0,0,1,.254-.7.372.372,0,0,1,.211-.053.515.515,0,0,1,.445.223,29.233,29.233,0,0,0,14.465,10.941,19.577,19.577,0,0,0,2.169.614,13.323,13.323,0,0,0,2.212.455,22.152,22.152,0,0,0,4.507.349c1.482.053.53.095,4.54-.243,2.18-.159,3.037-1.186,4.783.285A.861.861,0,0,1,298.875,890.7Z" transform="translate(-264.983 -877.047)" fill="#504a5e"/>
            <path id="Trazado_100346" data-name="Trazado 100346" d="M298.875,890.7a2.6,2.6,0,0,1-2.169,1.6c-.275.043-.5.085-.678.106a.913.913,0,0,0,.456-.751c0-1.048-1.069-1.27-2.106-1.27-.72,0-.826.074-2.476.074-12.074,0-20.063-4.2-26.4-13.407a.515.515,0,0,1,.445.223,29.233,29.233,0,0,0,14.465,10.941,19.577,19.577,0,0,0,2.169.614,13.323,13.323,0,0,0,2.212.455,22.152,22.152,0,0,0,4.507.349c1.482.053.53.095,4.54-.243,2.18-.159,3.037-1.186,4.783.285A.861.861,0,0,1,298.875,890.7Z" transform="translate(-264.983 -877.047)" fill="#383442"/>
          </g>
        </g>
      </g>
      <rect id="Rectángulo_5057" data-name="Rectángulo 5057" width="167" height="167" fill="none"/>
    </g>
    <g id="Grupo_53632" data-name="Grupo 53632" transform="translate(1050.001 2004.948)">
      <g id="Grupo_53631" data-name="Grupo 53631" transform="translate(2.277 4.354)">
        <g id="Grupo_53610" data-name="Grupo 53610" transform="translate(14.671 8.54)">
          <g id="Grupo_53609" data-name="Grupo 53609" transform="translate(8.995)">
            <circle id="Elipse_3969" data-name="Elipse 3969" cx="63.899" cy="63.899" r="63.899" transform="translate(0 10.977)" fill="#732be5" opacity="0.5"/>
            <g id="Grupo_53608" data-name="Grupo 53608" transform="translate(70.148)">
              <path id="Trazado_100347" data-name="Trazado 100347" d="M940.42,1087.426c0-37.939-28.238-68.715-63.141-68.915v-5.961c37.936.2,68.632,33.646,68.632,74.876s-30.7,74.676-68.632,74.876v-5.961C912.182,1156.14,940.42,1125.365,940.42,1087.426Z" transform="translate(-877.279 -1012.549)" fill="#732be5"/>
            </g>
          </g>
          <circle id="Elipse_3970" data-name="Elipse 3970" cx="72.895" cy="72.895" r="72.895" transform="translate(0 1.982)" fill="none" stroke="#732be5" stroke-miterlimit="10" stroke-width="1" stroke-dasharray="12"/>
        </g>
        <g id="Grupo_53630" data-name="Grupo 53630">
          <g id="Grupo_53619" data-name="Grupo 53619" transform="translate(0 11.754)">
            <g id="Grupo_53618" data-name="Grupo 53618">
              <g id="Grupo_53617" data-name="Grupo 53617" style="isolation: isolate">
                <g id="Grupo_53611" data-name="Grupo 53611" transform="translate(0 36.477)" opacity="0.1">
                  <path id="Trazado_100348" data-name="Trazado 100348" d="M797.834,1090.579l88.082,53.859a4.924,4.924,0,0,0,5.155.008l46.5-28.249a5.556,5.556,0,0,0,.012-9.364L849.5,1052.973a4.924,4.924,0,0,0-5.155-.008l-46.5,28.249A5.556,5.556,0,0,0,797.834,1090.579Z" transform="translate(-795.275 -1052.24)" fill="#606060"/>
                </g>
                <g id="Grupo_53612" data-name="Grupo 53612" transform="translate(8.362 36.394)">
                  <path id="Trazado_100349" data-name="Trazado 100349" d="M803.637,1040.347l.122,43.2,73.754,42.861-.122-43.2Z" transform="translate(-803.637 -1040.347)" fill="#fee04c"/>
                </g>
                <g id="Grupo_53613" data-name="Grupo 53613" transform="translate(93.927 54.672)">
                  <path id="Trazado_100350" data-name="Trazado 100350" d="M877.391,1083.208l.122,43.2,42.579-24.583-.122-43.2Z" transform="translate(-877.391 -1058.625)" fill="#e8b210"/>
                </g>
                <g id="Grupo_53614" data-name="Grupo 53614" transform="translate(8.362)">
                  <path id="Trazado_100351" data-name="Trazado 100351" d="M803.637,1040.347l81.242,42.861,46.9-24.583-81.242-42.861Z" transform="translate(-803.637 -1015.763)" fill="#e8ae10"/>
                </g>
                <g id="Grupo_53615" data-name="Grupo 53615" transform="translate(45.639 20.765)">
                  <path id="Trazado_100352" data-name="Trazado 100352" d="M835.008,1058.578l11.011,6.4,42.579-24.583-11.086-6.356Z" transform="translate(-835.008 -1034.037)" fill="#02b8c4"/>
                </g>
                <g id="Grupo_53616" data-name="Grupo 53616" transform="translate(29.791 9.172)">
                  <path id="Trazado_100353" data-name="Trazado 100353" d="M904.326,1067.657l-11.094,6.352-74.058-42.757,11.156-6.316Z" transform="translate(-819.174 -1024.936)" fill="#02b8c4"/>
                </g>
              </g>
            </g>
            <path id="Trazado_100354" data-name="Trazado 100354" d="M846.02,1108.1v-43.124l-11.011-6.4V1101.7Z" transform="translate(-791.43 -1008.335)" fill="#02b8c4"/>
            <path id="Trazado_100355" data-name="Trazado 100355" d="M893.236,1117.323V1074.07l11.011-6.4v43.256Z" transform="translate(-785.795 -1003.952)" fill="#02b8c4"/>
          </g>
          <g id="Grupo_53629" data-name="Grupo 53629" transform="translate(42.548)">
            <g id="Grupo_53620" data-name="Grupo 53620" transform="translate(0 16.344)" opacity="0.5" style="mix-blend-mode: multiply;isolation: isolate">
              <path id="Trazado_100356" data-name="Trazado 100356" d="M832.906,1035.953l37.468,21.774a2.26,2.26,0,0,0,2.266,0l19.719-11.385a2.261,2.261,0,0,0,.005-3.913L854.9,1020.659a2.26,2.26,0,0,0-2.266,0l-19.719,11.384A2.261,2.261,0,0,0,832.906,1035.953Z" transform="translate(-831.781 -1020.353)" fill="#350d73" opacity="0.26"/>
            </g>
            <g id="Grupo_53628" data-name="Grupo 53628" transform="translate(4.502)">
              <g id="Grupo_53627" data-name="Grupo 53627">
                <g id="Grupo_53626" data-name="Grupo 53626" style="isolation: isolate">
                  <g id="Grupo_53621" data-name="Grupo 53621" transform="translate(0 11.137)">
                    <path id="Trazado_100357" data-name="Trazado 100357" d="M836.282,1015.147l.055,19.571,33.414,19.418-.055-19.571Z" transform="translate(-836.282 -1015.147)" fill="#fee04c"/>
                  </g>
                  <g id="Grupo_53622" data-name="Grupo 53622" transform="translate(33.414 19.418)">
                    <path id="Trazado_100358" data-name="Trazado 100358" d="M869.7,1034.565l.055,19.571L889.043,1043l-.055-19.571Z" transform="translate(-869.697 -1023.427)" fill="#e8b210"/>
                  </g>
                  <g id="Grupo_53623" data-name="Grupo 53623">
                    <path id="Trazado_100359" data-name="Trazado 100359" d="M836.282,1015.147l33.414,19.418,19.291-11.137-33.414-19.418Z" transform="translate(-836.282 -1004.009)" fill="#e8ae10"/>
                  </g>
                  <g id="Grupo_53624" data-name="Grupo 53624" transform="translate(14.213 8.279)">
                    <path id="Trazado_100360" data-name="Trazado 100360" d="M850.5,1023.406l4.989,2.9,19.291-11.137-5.022-2.88Z" transform="translate(-850.495 -1012.288)" fill="#02b8c4"/>
                  </g>
                  <g id="Grupo_53625" data-name="Grupo 53625" transform="translate(7.039 4.155)">
                    <path id="Trazado_100361" data-name="Trazado 100361" d="M881.9,1027.52l-5.026,2.878-33.552-19.371,5.054-2.861Z" transform="translate(-843.321 -1008.165)" fill="#02b8c4"/>
                  </g>
                </g>
              </g>
              <path id="Trazado_100362" data-name="Trazado 100362" d="M855.484,1045.842v-19.537l-4.989-2.9v19.539Z" transform="translate(-836.282 -1004.009)" fill="#02b8c4"/>
              <path id="Trazado_100363" data-name="Trazado 100363" d="M876.875,1050.021v-19.6l4.989-2.9v19.6Z" transform="translate(-836.282 -1004.009)" fill="#02b8c4"/>
            </g>
          </g>
        </g>
      </g>
      <rect id="Rectángulo_5058" data-name="Rectángulo 5058" width="167" height="167" fill="none"/>
    </g>
    <g id="Grupo_53638" data-name="Grupo 53638" transform="translate(313 2194.365)">
      <g id="Grupo_53637" data-name="Grupo 53637" transform="translate(9.612 6.093)">
        <g id="Grupo_53635" data-name="Grupo 53635" transform="translate(0 5.063)">
          <g id="Grupo_53634" data-name="Grupo 53634">
            <path id="Trazado_102494" data-name="Trazado 102494" d="M63.9,0A63.9,63.9,0,1,1,0,63.9,63.9,63.9,0,0,1,63.9,0Z" transform="translate(10.981 10.977)" fill="#732be5" opacity="0.5"/>
            <g id="Grupo_53633" data-name="Grupo 53633">
              <path id="Trazado_100364" data-name="Trazado 100364" d="M230.862,1275.313c0-37.938,28.238-68.714,63.141-68.915v-5.96c-37.936.2-68.632,33.645-68.632,74.875s30.7,74.676,68.632,74.877v-5.96C259.1,1344.028,230.862,1313.253,230.862,1275.313Z" transform="translate(-225.371 -1200.438)" fill="#732be5"/>
            </g>
          </g>
          <circle id="Elipse_3972" data-name="Elipse 3972" cx="72.895" cy="72.895" r="72.895" transform="translate(1.986 1.981)" fill="none" stroke="#732be5" stroke-miterlimit="10" stroke-width="1" stroke-dasharray="12"/>
        </g>
        <g id="Grupo_53636" data-name="Grupo 53636" transform="translate(29.827)">
          <path id="Trazado_100365" data-name="Trazado 100365" d="M332.392,1217.64v34.3c0,12.01-8.424,26.615-18.821,32.621-1.468.848-2.928,1.689-4.4,2.537l-10.447,25.164-10.446-13.088q-2.2,1.26-4.395,2.538c-.424.244-.848.473-1.264.677-4.7,2.358-8.921,2.448-12.053.636l-.244-.147c-3.262-2.023-5.268-6.184-5.268-12.043v-34.293c0-12.019,8.432-26.624,18.829-32.63q14.838-8.566,29.683-17.142c5.1-2.946,9.72-3.28,13.1-1.436.065.032.138.073.2.114C330.288,1207.416,332.392,1211.635,332.392,1217.64Z" transform="translate(-249.793 -1195.375)" fill="#02dba8"/>
          <path id="Trazado_100366" data-name="Trazado 100366" d="M255.306,1294.207c-3.409-1.966-5.513-6.193-5.513-12.19v-34.3c0-12.01,8.424-26.616,18.821-32.621q14.838-8.566,29.683-17.151c5.2-3,9.908-3.28,13.309-1.313q7.547,4.344,15.07,8.706c-3.385-1.844-8.008-1.51-13.1,1.436q-14.838,8.567-29.683,17.142c-10.4,6.006-18.829,20.611-18.829,32.63v34.293c0,5.859,2.006,10.02,5.268,12.043Q262.817,1298.548,255.306,1294.207Z" transform="translate(-249.793 -1195.375)" fill="#01a37d"/>
          <path id="Trazado_100367" data-name="Trazado 100367" d="M288.283,1299.176l10.446,13.088-15.273-8.821-.832-1.052c.416-.2.84-.433,1.264-.677Q286.078,1300.44,288.283,1299.176Z" transform="translate(-249.793 -1195.375)" fill="#01a37d"/>
          <path id="Trazado_100368" data-name="Trazado 100368" d="M309.438,1240.376c-3.979-3.564-11.759-.729-17.376,6.333s-6.945,15.676-2.965,19.24c3.444,3.085,9.736,1.372,15.008-3.723l7.206,6.454c.824.738,2.476.1,3.689-1.426s1.529-3.361.7-4.1l-7.2-6.454C312.348,1250.33,312.883,1243.461,309.438,1240.376Zm-4.7,17.684c-4.263,5.36-10.167,7.512-13.188,4.807s-2.012-9.243,2.251-14.6,10.167-7.512,13.187-4.807S309,1252.7,304.736,1258.06Z" transform="translate(-249.793 -1195.375)" fill="#01a37d"/>
        </g>
      </g>
      <rect id="Rectángulo_5059" data-name="Rectángulo 5059" width="167" height="167" fill="none"/>
    </g>
    <g id="Grupo_53644" data-name="Grupo 53644" transform="translate(1049 2378.281)">
      <g id="Grupo_53643" data-name="Grupo 53643" transform="translate(9.612 8.624)">
        <g id="Grupo_53641" data-name="Grupo 53641">
          <g id="Grupo_53640" data-name="Grupo 53640" transform="translate(8.995)">
            <circle id="Elipse_3973" data-name="Elipse 3973" cx="63.899" cy="63.899" r="63.899" transform="translate(0 10.977)" fill="#732be5" opacity="0.5"/>
            <g id="Grupo_53639" data-name="Grupo 53639" transform="translate(70.148)">
              <path id="Trazado_100369" data-name="Trazado 100369" d="M940.42,1463.2c0-37.939-28.238-68.715-63.141-68.915v-5.961c37.936.2,68.632,33.646,68.632,74.876s-30.7,74.675-68.632,74.875v-5.96C912.182,1531.917,940.42,1501.142,940.42,1463.2Z" transform="translate(-877.279 -1388.326)" fill="#732be5"/>
            </g>
          </g>
          <circle id="Elipse_3974" data-name="Elipse 3974" cx="72.895" cy="72.895" r="72.895" transform="translate(0 1.981)" fill="none" stroke="#732be5" stroke-miterlimit="10" stroke-width="1" stroke-dasharray="12"/>
        </g>
        <g id="Grupo_53642" data-name="Grupo 53642" transform="translate(35.329 12.212)">
          <path id="Trazado_100370" data-name="Trazado 100370" d="M904.733,1457.693v12.09c0-3.334-3.318-6.037-7.414-6.037C901.415,1463.746,904.733,1461.027,904.733,1457.693Z" transform="translate(-840.267 -1400.538)" fill="#02b8c4"/>
          <path id="Trazado_100371" data-name="Trazado 100371" d="M904.733,1447.322v10.371c0-3.349-3.318-6.052-7.414-6.052H880.347v-.059c.177-.543,3.686-11.135,3.686-20.889v-1.513h13.286c4.1,0,7.414,2.7,7.414,6.053Z" transform="translate(-840.267 -1400.538)" fill="#02b8c4"/>
          <path id="Trazado_100372" data-name="Trazado 100372" d="M903.295,1473.367v7.86a6.054,6.054,0,0,0-4.023-5.392h-1.821A7.978,7.978,0,0,0,903.295,1473.367Z" transform="translate(-840.267 -1400.538)" fill="#02b8c4"/>
          <path id="Trazado_100373" data-name="Trazado 100373" d="M895.9,1487.279a9.061,9.061,0,0,0,2.863-.456v5.509a5.761,5.761,0,0,0-3.024-4.877v-.176Z" transform="translate(-840.267 -1400.538)" fill="#02b8c4"/>
          <path id="Trazado_100374" data-name="Trazado 100374" d="M884.033,1430.693c0,9.754-3.509,20.346-3.686,20.889v.059h16.972c4.1,0,7.414,2.7,7.414,6.052,0,3.334-3.318,6.053-7.414,6.053,4.1,0,7.414,2.7,7.414,6.037a5.278,5.278,0,0,1-1.438,3.584,7.978,7.978,0,0,1-5.844,2.468h1.821a6.054,6.054,0,0,1,4.023,5.392c0,2.512-1.865,4.671-4.537,5.582v.014a9.061,9.061,0,0,1-2.863.456h-5.329l5.168.176a5.761,5.761,0,0,1,3.024,4.877c0,3.335-3.318,6.038-7.4,6.038H860.7c-11.291,0-20.437-7.478-20.437-16.7v-17.539c0-6.141,4.581-11.649,11.569-13.912,6.665-2.145,14.505-7.33,18.543-19.523,3.362-10.165,12.567-9.827,13.565-1.513A12.274,12.274,0,0,1,884.033,1430.693Z" transform="translate(-840.267 -1400.538)" fill="#02cddb"/>
          <path id="Trazado_100375" data-name="Trazado 100375" d="M851.836,1450.216c-6.988,2.263-11.569,7.771-11.569,13.912v-22.461c0-6.141,4.581-11.649,11.569-13.911,6.665-2.145,14.505-7.331,18.543-19.523,3.553-10.754,13.654-9.755,13.654,0v20.947h-.089c-1-8.314-10.2-8.652-13.565,1.513C866.341,1442.886,858.5,1448.071,851.836,1450.216Z" transform="translate(-840.267 -1400.538)" fill="#02b8c4"/>
        </g>
      </g>
      <rect id="Rectángulo_5060" data-name="Rectángulo 5060" width="167" height="167" fill="none"/>
    </g>
  </g>
</svg>
