<svg id="Grupo_53607" data-name="Grupo 53607" xmlns="http://www.w3.org/2000/svg" width="167" height="167" viewBox="0 0 167 167">
  <g id="Grupo_53606" data-name="Grupo 53606" transform="translate(9.612 7.415)">
    <g id="Grupo_53602" data-name="Grupo 53602" transform="translate(0 2.417)">
      <g id="Grupo_53601" data-name="Grupo 53601">
        <circle id="Elipse_3967" data-name="Elipse 3967" cx="63.899" cy="63.899" r="63.899" transform="translate(10.981 10.977)" fill="#732be5" opacity="0.5"/>
        <g id="Grupo_53600" data-name="Grupo 53600">
          <path id="Trazado_100319" data-name="Trazado 100319" d="M230.862,899.537c0-37.939,28.238-68.714,63.141-68.915v-5.961c-37.936.2-68.632,33.646-68.632,74.876s30.7,74.675,68.632,74.877v-5.961C259.1,968.252,230.862,937.477,230.862,899.537Z" transform="translate(-225.371 -824.661)" fill="#732be5"/>
        </g>
      </g>
      <circle id="Elipse_3968" data-name="Elipse 3968" cx="72.895" cy="72.895" r="72.895" transform="translate(1.986 1.981)" fill="none" stroke="#732be5" stroke-miterlimit="10" stroke-width="1" stroke-dasharray="12"/>
    </g>
    <g id="Grupo_53605" data-name="Grupo 53605" transform="translate(37.834 -9.298)">
      <g id="Grupo_53603" data-name="Grupo 53603" transform="translate(1.422 9.048)">
        <path id="Trazado_100320" data-name="Trazado 100320" d="M330.376,914.309a101.2,101.2,0,0,1-1.706,14.138,26.1,26.1,0,0,1-18.107,20.6,72.668,72.668,0,0,1-20.12,3.093h-.33c-7.154-.045-14.865-4.094-20.45-9.883-4.288-4.47-7.325-9.964-7.837-15.458-.159-1.74-.261-3.628-.261-5.721,0-9.827,5.8-17.584,13.58-22.429a6.532,6.532,0,0,0,2.718,2.15,9.371,9.371,0,0,0,3.777.705,7.062,7.062,0,0,0,3.15-.717c1.341,5.119,6.926,8.178,12.227,8.178,7.427,0,10.464-4.993,11.658-12.17a6.547,6.547,0,0,0,2.685-1.593,23.42,23.42,0,0,0,4.765-7.2C326.474,888.6,330.376,904,330.376,914.309Z" transform="translate(-258.706 -818.651)" fill="#5515ba"/>
        <path id="Trazado_100321" data-name="Trazado 100321" d="M319.21,847.924c1.915,3.32,3.335,6.475,3.335,10.274,0,3.5-1.369,9.128-4.855,9.128a3.464,3.464,0,0,1-.76-.086,17.105,17.105,0,0,0,.6-4.893c0-2.246-.238-4.526-.238-6.609,0-2.51,2.011-4.069,2.011-6.562A8.718,8.718,0,0,0,319.21,847.924Z" transform="translate(-255.445 -820.364)" fill="#283c48"/>
        <path id="Trazado_100322" data-name="Trazado 100322" d="M315.778,859.278c-.058.077-.118.156-.181.233a20.3,20.3,0,0,0-2.234,1.935,18.752,18.752,0,0,1-3.373,1.682.6.6,0,0,1-.786-.5c0-3,4.093-5.361,6.187-7.916.062-.077.125-.154.184-.233.048-.062.095-.125.14-.187a.511.511,0,0,1,.907.151A5.236,5.236,0,0,1,315.778,859.278Z" transform="translate(-255.391 -820.365)" fill="#7f542e"/>
        <path id="Trazado_100323" data-name="Trazado 100323" d="M315.333,858.916l-.005.1c-.059.043-.118.086-.175.133C315.214,859.072,315.275,858.993,315.333,858.916Z" transform="translate(-254.825 -825.505)" fill="#d49063"/>
        <path id="Trazado_100324" data-name="Trazado 100324" d="M317,856.024c-.059.079-.121.154-.184.231-1.969-3.859-5.495-4.6-8.288-5.043a10.665,10.665,0,0,0-5.351.544c-2.571.946-5.347,1.553-7.4,3.45a10.364,10.364,0,0,0-1.182,1.318l-.008.01c-.052.068-.105.139-.156.212l-.009.009c-1.582,1.907-5.978,1.423-.435-11.679,2.1-4.961-1.233-7.766-3.753-11.45a35.64,35.64,0,0,1,9.577-3.179c1.508-.062,3.088-.409,4.613-.409,4.346,0,6.216,3.628,8.39,7.181a7.857,7.857,0,0,0,.923,1.85,32.783,32.783,0,0,1,4.611,4.17,11.786,11.786,0,0,1,2.86,5.838,8.545,8.545,0,0,1,.089,1.239c0,2.468-2.011,4.013-2.011,6.5,0,2.063.238,4.32.238,6.545a16.781,16.781,0,0,1-.6,4.845,9.618,9.618,0,0,1-1.036,2.319h0c-.312-2.2-.824-3.048-.824-6.015,0-1.215.077-2.422.126-3.633l.005-.1a5.143,5.143,0,0,0,.845-4.786.513.513,0,0,0-.907-.149C317.091,855.9,317.044,855.963,317,856.024Z" transform="translate(-257.005 -821.594)" fill="#a26d42"/>
        <path id="Trazado_100325" data-name="Trazado 100325" d="M309.1,849.941c2.794.445,6.319,1.2,8.288,5.093-2.094,2.555-6.187,4.918-6.187,7.916a.6.6,0,0,0,.786.5,18.752,18.752,0,0,0,3.373-1.682,16.106,16.106,0,0,0-4.49,7.752,12.432,12.432,0,0,0-.211,1.261,11.556,11.556,0,0,0-.081,1.367c0,7.892,3.917,6.739,3.917,10,0,1.056-.752,3.327-2.568,3.327-1.349,0-2.849-1.047-3.836-1.047h-.014a.738.738,0,0,0-.187,1.445c1.28.393,2.621,1.016,2.621,2.43a2.831,2.831,0,0,1-.127.8,12.838,12.838,0,0,1-6.173,1.018,8.5,8.5,0,0,1-2.264-.311,13.073,13.073,0,0,0,7.115,2.237c.157,0,.313,0,.468-.011a11.529,11.529,0,0,0-4.089,2.781,10.58,10.58,0,0,1-6.95,2.421,26.521,26.521,0,0,1-9.559-2.118q-.842-.388-1.67-.81v0c-.749-6.662-4.738-12.281-4.738-18.018a12.478,12.478,0,0,1,.281-2.644,4.288,4.288,0,0,1,2.461-3.025c4.474-1.955,6.327-10.392,9.732-15.087l.009-.009a2.009,2.009,0,0,0,.156-.214l.008-.01a10.429,10.429,0,0,1,1.182-1.331c2.05-1.915,4.826-2.528,7.4-3.484A10.567,10.567,0,0,1,309.1,849.941Zm2.755,29.2a1.749,1.749,0,0,0-1.171-.423,2.053,2.053,0,0,0-2.108,1.912,3.717,3.717,0,0,0,.286,1.158C309.04,880.583,310.766,879.436,311.856,879.137Zm-7.919-11.928c0-1.261-.788-2.129-2.487-2.129-7.913,0-13.617,5.793-14.994,7.328,3.8-1.849,11.343-3.237,11.359-3.239C299.6,868.857,303.938,869.392,303.938,867.209Zm-5.819,8.526a.431.431,0,0,0-.635-.5c-.163.1-.326.195-.492.286a33.291,33.291,0,0,1-5.611,2.021c-.808.227-1.581.418-2.237.55a.574.574,0,0,0-.29.972,7.568,7.568,0,0,0,3.974,2.258l0,0a3.9,3.9,0,0,0,.5.034C296.164,881.362,297.472,877.8,298.118,875.735Z" transform="translate(-256.57 -821.328)" fill="#e6a57a"/>
        <path id="Trazado_100326" data-name="Trazado 100326" d="M314.379,864.86a.308.308,0,0,1,.515.257c-.2,2.215-.9,4.954-4.422,4.954h-.018a1.968,1.968,0,0,1-.677-1.476,2.33,2.33,0,0,1,.108-.68A19.051,19.051,0,0,0,314.379,864.86Z" transform="translate(-254.686 -819.974)" fill="#655fbf"/>
        <path id="Trazado_100327" data-name="Trazado 100327" d="M313.074,861.068a20.3,20.3,0,0,1,2.234-1.935A9.605,9.605,0,0,1,313.074,861.068Z" transform="translate(-254.981 -825.419)" fill="#7f542e"/>
        <path id="Trazado_100328" data-name="Trazado 100328" d="M313.112,885.152a2.31,2.31,0,0,1-2.082,2.194c.364.065.724.087,1.088.131-.1,1.957-1.068,1.714-3,2.445-.174.008-.349.012-.526.012a14.7,14.7,0,0,1-8-2.515,9.552,9.552,0,0,0,2.545.349c2.507,0,4.6,0,6.941-1.144A26.1,26.1,0,0,0,313.112,885.152Z" transform="translate(-256.237 -819.064)" fill="#b25055"/>
        <path id="Trazado_100329" data-name="Trazado 100329" d="M309.857,868.376a1.968,1.968,0,0,0,.677,1.476,4.248,4.248,0,0,1-1.833-.413,12.431,12.431,0,0,1,.211-1.261q.55-.234,1.052-.483A2.33,2.33,0,0,0,309.857,868.376Z" transform="translate(-254.767 -819.561)" fill="#f0dfbe"/>
        <path id="Trazado_100330" data-name="Trazado 100330" d="M308.871,876.7a1.749,1.749,0,0,1,1.171.423c-1.09.3-2.816,1.447-2.992,2.646a3.717,3.717,0,0,1-.286-1.158A2.053,2.053,0,0,1,308.871,876.7Z" transform="translate(-255.01 -819.385)" fill="#f1bc98"/>
        <path id="Trazado_100331" data-name="Trazado 100331" d="M262.088,869.192a4.008,4.008,0,0,0-2.357,4.023c0,2.729,1.549,6.225,3.687,9.1l.005.007a5.511,5.511,0,0,0,.9,1.135c2.1,2.469,4.589,4.248,6.715,4.248,1.763,0,3.732-1.22,3.732-4.223,0-6.4-7.805-14.366-12.075-14.366A2.148,2.148,0,0,0,262.088,869.192Zm50.086-38.829a20.871,20.871,0,0,0-9.241-2.033c-19.62,0-32.151,21.826-32.946,33.5-.529,7.727,7.4,14.793,7.4,22.092,0,3.211-1.341,6.3-4.682,6.3A11.725,11.725,0,0,1,268.1,889H268.1c-4.549-2.7-8.645-8.481-10.009-13.1a10.492,10.492,0,0,1-.482-2.929c0-3.153,1.607-5.685,3.654-8.114.75-.894,1.561-1.772,2.373-2.663,2.458-6.96,8.431-25.544,21.638-34.147a27.077,27.077,0,0,1,11.254-4.235,28.348,28.348,0,0,1,3.779-.25,13.8,13.8,0,0,1,5.36,1.142A29.458,29.458,0,0,1,312.173,830.363Z" transform="translate(-257.605 -821.544)" fill="#596876"/>
        <path id="Trazado_100332" data-name="Trazado 100332" d="M305.71,896.456a6.961,6.961,0,0,0,1.352-.275c-1.2,7.178-4.238,12.172-11.661,12.172-5.3,0-10.886-3.068-12.226-8.184a6.765,6.765,0,0,0,.912-.552c1.268,4.131,5.867,6.67,10.519,6.67C299.571,906.286,304.6,903.393,305.71,896.456Z" transform="translate(-257.22 -818.207)" fill="#9f3759"/>
        <path id="Trazado_100333" data-name="Trazado 100333" d="M303.552,896.717a6.976,6.976,0,0,0,2.094.111c-1.111,6.937-6.139,9.83-11.1,9.83-4.652,0-9.25-2.539-10.519-6.67a8.38,8.38,0,0,0,3.247-6.673,19.085,19.085,0,0,0-.119-2.1q.829.422,1.67.81A70.643,70.643,0,0,0,303.552,896.717Z" transform="translate(-257.156 -818.922)" fill="#c78154"/>
        <path id="Trazado_100334" data-name="Trazado 100334" d="M301.176,864.016c1.7,0,2.487.868,2.487,2.129,0,2.183-4.338,1.648-6.122,1.961-.016,0-7.563,1.39-11.359,3.239C287.559,869.809,293.263,864.016,301.176,864.016Z" transform="translate(-256.497 -820.23)" fill="#7f542e"/>
        <path id="Trazado_100335" data-name="Trazado 100335" d="M296.886,873.471a.431.431,0,0,1,.635.5c-.646,2.062-1.954,5.627-4.79,5.627a3.9,3.9,0,0,1-.5-.034l0,0a2.6,2.6,0,0,1-1.727-2.607,2.248,2.248,0,0,1,.281-1.174,33.291,33.291,0,0,0,5.611-2.021C296.56,873.666,296.722,873.57,296.886,873.471Z" transform="translate(-255.596 -819.585)" fill="#655fbf"/>
        <path id="Trazado_100336" data-name="Trazado 100336" d="M290.468,895.539v0a18.213,18.213,0,0,1,.125,2.1,8.245,8.245,0,0,1-3.4,6.673,7.161,7.161,0,0,1-.955.552,7.629,7.629,0,0,1-3.309.716c-2.972,0-5.319-.913-6.807-2.855a8.952,8.952,0,0,1-1.648-4.179c-5.456-1.157-9.656-6.173-12.282-12.231a30.134,30.134,0,0,1-2.474-11.443c0-.469-.042.461,0,0a30.05,30.05,0,0,0,5.016,10.32c.719.923,1.784,2.726,3.113,3.485l2.029,1.675a6.173,6.173,0,0,0,3.949,1.162c4.432,0,7.791-2.137,7.791-7.3,0-5.406-3.96-10.541-6-15.315a20.636,20.636,0,0,1-1.076-6.633c0-10.624,7.06-22.8,19.652-28.863,2.642,3.721,6.134,6.554,3.934,11.563-5.81,13.232-1.2,13.721.456,11.795-3.569,4.7-5.511,13.132-10.2,15.087a4.338,4.338,0,0,0-2.58,3.025,11.927,11.927,0,0,0-.294,2.644C285.5,883.257,289.683,888.877,290.468,895.539Z" transform="translate(-259.327 -822.535)" fill="#c48b5e"/>
        <path id="Trazado_100337" data-name="Trazado 100337" d="M288.487,894.435a26.521,26.521,0,0,0,9.559,2.118,10.58,10.58,0,0,0,6.95-2.421,11.529,11.529,0,0,1,4.089-2.781c1.714-.65,2.575-.434,2.665-2.174-.324-.039-.644-.058-.967-.116a2.054,2.054,0,0,0,1.852-1.951,23.193,23.193,0,0,1-2.695,1.308,2.831,2.831,0,0,0,.127-.8c0-1.414-1.34-2.037-2.621-2.43a.738.738,0,0,1,.187-1.445h.014c.987,0,2.487,1.047,3.836,1.047,1.815,0,2.568-2.271,2.568-3.327,0-3.262-3.917-2.11-3.917-10a11.556,11.556,0,0,1,.081-1.367,4.249,4.249,0,0,0,1.833.413h.018c3.523,0,4.222-2.739,4.422-4.954a.308.308,0,0,0-.515-.257,19.051,19.051,0,0,1-4.5,3.055q-.5.25-1.052.483a16.106,16.106,0,0,1,4.49-7.752,9.605,9.605,0,0,0,2.234-1.935c.057-.047.116-.09.175-.133-.048,1.222-.126,2.441-.126,3.669,0,3,.513,3.85.824,6.074a28.394,28.394,0,0,1,.233,3.982c0,1.258-.055,2.525-.143,3.776a61.068,61.068,0,0,1-4.009,13.656,23.456,23.456,0,0,1-4.758,7.209,6.729,6.729,0,0,1-2.681,1.589,6.876,6.876,0,0,1-3.446.164A70.65,70.65,0,0,1,288.487,894.435Z" transform="translate(-256.018 -820.647)" fill="#d49063"/>
        <path id="Trazado_100338" data-name="Trazado 100338" d="M290.671,876.787a2.6,2.6,0,0,0,1.727,2.607,7.568,7.568,0,0,1-3.974-2.258.574.574,0,0,1,.29-.972c.656-.132,1.428-.324,2.237-.55A2.248,2.248,0,0,0,290.671,876.787Z" transform="translate(-255.765 -819.29)" fill="#f0dfbe"/>
        <path id="Trazado_100339" data-name="Trazado 100339" d="M288.808,822.244a38.343,38.343,0,0,1,8.918,2.068c-4.311.588-9.836,1.757-13.178,3.952a20.12,20.12,0,0,0-8.686-1.829c-.7,0-1.452.056-2.193.075v0A29.284,29.284,0,0,1,288.808,822.244Z" transform="translate(-255.074 -822.244)" fill="#a26d42"/>
        <path id="Trazado_100340" data-name="Trazado 100340" d="M276.959,826.143a20.12,20.12,0,0,1,8.686,1.829C272.208,836.8,266.132,855.864,263.631,863c-.826.915-1.651,1.815-2.414,2.732v0a26.625,26.625,0,0,1-2.187-9.616c0-13.834,6.613-24.389,15.738-29.9v0C275.507,826.2,276.262,826.143,276.959,826.143Z" transform="translate(-256.17 -821.952)" fill="#c48b5e"/>
        <path id="Trazado_100341" data-name="Trazado 100341" d="M272.221,889.891c3.4,0,4.764-3.087,4.764-6.292,0-7.286-8.066-14.338-7.527-22.051.809-11.65,13.558-33.435,33.52-33.435a21.576,21.576,0,0,1,9.4,2.029h0a40.094,40.094,0,0,1,7.666,12.952,32.611,32.611,0,0,0-4.611-4.1,7.667,7.667,0,0,1-.923-1.818c-2.174-3.491-4.045-7.056-8.39-7.056-1.525,0-3.105.341-4.613.4a36.083,36.083,0,0,0-9.577,3.124c-12.014,5.9-18.75,17.745-18.75,28.082a20.438,20.438,0,0,0,1.026,6.453c1.951,4.644,5.729,9.641,5.729,14.9,0,5.024-3.205,7.1-7.434,7.1a10.007,10.007,0,0,1-4.964-1.516A12.112,12.112,0,0,0,272.221,889.891Z" transform="translate(-257.811 -821.204)" fill="#283c48"/>
        <path id="Trazado_100342" data-name="Trazado 100342" d="M271.036,881.556c0,2.228-1.137,4.074-3.168,4.074a2.6,2.6,0,0,1-.559-.072,16.993,16.993,0,0,1-5.281-6.776,4.6,4.6,0,0,1,1.061-5.094,2.936,2.936,0,0,1,1.926-.755C267.162,872.932,271.036,877.971,271.036,881.556Z" transform="translate(-257.819 -820.734)" fill="#1a2738"/>
        <path id="Trazado_100343" data-name="Trazado 100343" d="M264.293,881.757c-.317-.374-.623-.764-.919-1.164l-.005-.007c-2.176-2.952-3.751-6.538-3.751-9.339a4.116,4.116,0,0,1,2.4-4.128,2.166,2.166,0,0,1,.621-.075c4.344,0,12.285,8.169,12.285,14.739,0,3.082-2,4.333-3.8,4.333C268.962,886.115,266.43,884.29,264.293,881.757Zm-2.152-3.864a13.531,13.531,0,0,0,4.637,5.237,2.586,2.586,0,0,0,.491.056c1.783,0,2.782-1.426,2.782-3.148,0-2.77-3.4-6.664-5.287-6.664a2.782,2.782,0,0,0-1.691.584A3.257,3.257,0,0,0,262.141,877.893Z" transform="translate(-257.54 -819.594)" fill="#c95b68"/>
      </g>
      <path id="Trazado_100344" data-name="Trazado 100344" d="M329.812,914.309a101.2,101.2,0,0,1-1.706,14.138A26.1,26.1,0,0,1,310,949.044a72.668,72.668,0,0,1-20.12,3.093h-.33c-7.154-.045-14.865-4.094-20.45-9.883.6.08,1.229.171,1.865.273,56.585,8.644,37.147-45.735,37.147-45.735A6.547,6.547,0,0,0,310.8,895.2a23.42,23.42,0,0,0,4.765-7.2C325.91,888.6,329.812,904,329.812,914.309Z" transform="translate(-256.72 -809.603)" fill="#3b0f82"/>
      <g id="Grupo_53604" data-name="Grupo 53604" transform="translate(11.049 67.806)">
        <path id="Trazado_100345" data-name="Trazado 100345" d="M301.412,891.721a2.793,2.793,0,0,1-2.331,1.717c-.3.046-.535.091-.729.114-1.728.307-.056.171-4.606.512a12.873,12.873,0,0,1-2.7.034,24.953,24.953,0,0,1-5.38-.591,16.443,16.443,0,0,1-2.627-.648,17.824,17.824,0,0,1-2.559-.864,29.327,29.327,0,0,1-15.446-14.138.557.557,0,0,1,.273-.751.4.4,0,0,1,.227-.057.554.554,0,0,1,.478.24,31.422,31.422,0,0,0,15.548,11.76,21.043,21.043,0,0,0,2.331.66,14.318,14.318,0,0,0,2.378.489,23.811,23.811,0,0,0,4.844.375c1.593.057.57.1,4.88-.261,2.343-.171,3.264-1.275,5.141.306A.925.925,0,0,1,301.412,891.721Z" transform="translate(-264.983 -877.047)" fill="#504a5e"/>
        <path id="Trazado_100346" data-name="Trazado 100346" d="M301.374,891.721a2.793,2.793,0,0,1-2.331,1.717c-.3.046-.535.091-.729.114a.982.982,0,0,0,.49-.807c0-1.126-1.149-1.365-2.264-1.365-.774,0-.888.08-2.661.08-12.978,0-21.565-4.516-28.379-14.411a.554.554,0,0,1,.478.24,31.422,31.422,0,0,0,15.548,11.76,21.043,21.043,0,0,0,2.331.66,14.318,14.318,0,0,0,2.378.489,23.811,23.811,0,0,0,4.844.375c1.593.057.57.1,4.88-.261,2.343-.171,3.264-1.275,5.141.306A.925.925,0,0,1,301.374,891.721Z" transform="translate(-264.945 -877.047)" fill="#383442"/>
      </g>
    </g>
  </g>
  <rect id="Rectángulo_5057" data-name="Rectángulo 5057" width="167" height="167" fill="none"/>
</svg>
