<svg xmlns="http://www.w3.org/2000/svg" xmlns:xlink="http://www.w3.org/1999/xlink" width="352" height="145.217" viewBox="0 0 352 145.217">
  <defs>
    <linearGradient id="linear-gradient" x1="57.51" y1="-4.74" x2="57.108" y2="-4.833" gradientUnits="objectBoundingBox">
      <stop offset="0" stop-color="#09005d"/>
      <stop offset="1" stop-color="#1a0e8f"/>
    </linearGradient>
    <linearGradient id="linear-gradient-2" x1="28.764" y1="1.469" x2="28.766" y2="1.608" gradientUnits="objectBoundingBox">
      <stop offset="0" stop-color="#4042e2"/>
      <stop offset="1" stop-color="#4f52ff"/>
    </linearGradient>
    <linearGradient id="linear-gradient-3" x1="30.488" y1="1.636" x2="30.488" y2="1.606" xlink:href="#linear-gradient-2"/>
    <linearGradient id="linear-gradient-4" x1="38.633" y1="0.869" x2="38.607" y2="0.869" gradientUnits="objectBoundingBox">
      <stop offset="0" stop-color="#09005d"/>
      <stop offset="1" stop-color="#1a0f91"/>
    </linearGradient>
    <linearGradient id="linear-gradient-5" x1="42.011" y1="0.005" x2="41.984" y2="0.005" xlink:href="#linear-gradient-4"/>
    <linearGradient id="linear-gradient-6" x1="354.69" y1="1.466" x2="360.72" y2="1.433" gradientUnits="objectBoundingBox">
      <stop offset="0" stop-color="#233894"/>
      <stop offset="0.996" stop-color="#dd397a"/>
    </linearGradient>
    <linearGradient id="linear-gradient-7" x1="40.242" y1="4.244" x2="40.259" y2="2.311" xlink:href="#linear-gradient-6"/>
    <linearGradient id="linear-gradient-8" x1="37.052" y1="4.106" x2="37.078" y2="3.914" xlink:href="#linear-gradient-2"/>
    <linearGradient id="linear-gradient-9" x1="-416.933" y1="-2.599" x2="-420.624" y2="-2.377" xlink:href="#linear-gradient-4"/>
    <linearGradient id="linear-gradient-10" x1="148.103" y1="-16.84" x2="148.3" y2="-18.285" xlink:href="#linear-gradient-4"/>
    <linearGradient id="linear-gradient-11" x1="65.836" y1="3.635" x2="65.894" y2="3.503" xlink:href="#linear-gradient-2"/>
    <linearGradient id="linear-gradient-12" x1="19.519" y1="1.592" x2="19.523" y2="1.591" xlink:href="#linear-gradient-4"/>
    <linearGradient id="linear-gradient-13" x1="32.728" y1="1.469" x2="32.729" y2="1.608" xlink:href="#linear-gradient-2"/>
    <linearGradient id="linear-gradient-14" x1="34.452" y1="1.636" x2="34.452" y2="1.606" xlink:href="#linear-gradient-2"/>
    <linearGradient id="linear-gradient-15" x1="44.062" y1="0.845" x2="44.035" y2="0.845" xlink:href="#linear-gradient-4"/>
    <linearGradient id="linear-gradient-16" x1="47.569" y1="-0.141" x2="47.543" y2="-0.141" xlink:href="#linear-gradient-4"/>
    <linearGradient id="linear-gradient-17" x1="398.189" y1="1.466" x2="404.219" y2="1.433" xlink:href="#linear-gradient-6"/>
    <linearGradient id="linear-gradient-18" x1="45.338" y1="4.244" x2="45.355" y2="2.311" xlink:href="#linear-gradient-6"/>
    <linearGradient id="linear-gradient-19" x1="42.006" y1="4.106" x2="42.032" y2="3.914" xlink:href="#linear-gradient-2"/>
    <linearGradient id="linear-gradient-20" x1="-470.199" y1="-2.103" x2="-473.89" y2="-1.881" xlink:href="#linear-gradient-4"/>
    <linearGradient id="linear-gradient-21" x1="167.672" y1="-20.763" x2="167.869" y2="-22.209" xlink:href="#linear-gradient-4"/>
    <linearGradient id="linear-gradient-22" x1="74.439" y1="3.635" x2="74.496" y2="3.503" xlink:href="#linear-gradient-2"/>
    <linearGradient id="linear-gradient-23" x1="22.074" y1="1.592" x2="22.078" y2="1.591" xlink:href="#linear-gradient-4"/>
    <linearGradient id="linear-gradient-24" x1="36.635" y1="1.469" x2="36.637" y2="1.608" xlink:href="#linear-gradient-2"/>
    <linearGradient id="linear-gradient-25" x1="38.359" y1="1.636" x2="38.359" y2="1.606" xlink:href="#linear-gradient-2"/>
    <linearGradient id="linear-gradient-26" x1="49.412" y1="0.822" x2="49.386" y2="0.822" xlink:href="#linear-gradient-4"/>
    <linearGradient id="linear-gradient-27" x1="53.048" y1="-0.284" x2="53.022" y2="-0.284" xlink:href="#linear-gradient-4"/>
    <linearGradient id="linear-gradient-28" x1="441.063" y1="1.466" x2="447.094" y2="1.433" xlink:href="#linear-gradient-6"/>
    <linearGradient id="linear-gradient-29" x1="50.361" y1="4.244" x2="50.378" y2="2.311" xlink:href="#linear-gradient-6"/>
    <linearGradient id="linear-gradient-30" x1="46.889" y1="4.106" x2="46.914" y2="3.914" xlink:href="#linear-gradient-2"/>
    <linearGradient id="linear-gradient-31" x1="-522.7" y1="-1.615" x2="-526.391" y2="-1.393" xlink:href="#linear-gradient-4"/>
    <linearGradient id="linear-gradient-32" x1="186.949" y1="-24.631" x2="187.146" y2="-26.077" xlink:href="#linear-gradient-4"/>
    <linearGradient id="linear-gradient-33" x1="82.918" y1="3.635" x2="82.976" y2="3.503" xlink:href="#linear-gradient-2"/>
    <linearGradient id="linear-gradient-34" x1="24.592" y1="1.592" x2="24.596" y2="1.591" xlink:href="#linear-gradient-4"/>
  </defs>
  <g id="Grupo_54380" data-name="Grupo 54380" transform="translate(-783 -12384.392)">
    <g id="Grupo_54376" data-name="Grupo 54376" transform="translate(783 12384.392)">
      <g id="Grupo_54057" data-name="Grupo 54057" transform="translate(0 0)">
        <rect id="Rectángulo_5428" data-name="Rectángulo 5428" width="280.913" height="13.41" transform="translate(71.087 82.176)" fill="#636363"/>
        <rect id="Rectángulo_5429" data-name="Rectángulo 5429" width="280.913" height="10.004" transform="translate(71.087 94.166)" fill="#adadad"/>
        <rect id="Rectángulo_5357" data-name="Rectángulo 5357" width="277.483" height="16.836" transform="translate(68.905 101.284)" fill="#636363"/>
        <rect id="Rectángulo_5358" data-name="Rectángulo 5358" width="5.612" height="23.071" transform="translate(346.388 97.543)" fill="url(#linear-gradient)"/>
        <path id="Trazado_101451" data-name="Trazado 101451" d="M5930,61.278,5942.576,22.9c.316-.975,1.224-1.14,2.248-1.14h50.942v90.727h-68.746Z" transform="translate(-5924.678 5.636)" fill="#e6e6e6"/>
        <path id="Trazado_101452" data-name="Trazado 101452" d="M6023.281,549.094a5.169,5.169,0,0,1,2.714-.667l52.825,1.014.3,14.972-53.151,1.292c-1.93,0-4.109-.93-4.109-2.235V550.788C6021.862,550.15,6022.6,549.538,6023.281,549.094Z" transform="translate(-6021.86 -444.254)" fill="#636363"/>
        <g id="Grupo_54047" data-name="Grupo 54047" transform="translate(5.334 32.322)">
          <path id="Trazado_101453" data-name="Trazado 101453" d="M6022.8,90.043l7.61-30.09a2.417,2.417,0,0,1,2.29-1.844h29.733a2.465,2.465,0,0,1,2.362,2.522l-.713,24.127a2.378,2.378,0,0,1-1.984,2.27l-36.621,5.919a2.36,2.36,0,0,1-2.667-2.907Z" transform="translate(-6012.997 -57.741)" fill="#722be3"/>
          <path id="Trazado_101454" data-name="Trazado 101454" d="M6295.4,55.577l.388.064a2.362,2.362,0,0,1,1.953,2.71c-.013.079-.03.156-.05.233L6289.4,89.4a2.362,2.362,0,0,1-2.716,1.709l-2.617-.492Z" transform="translate(-6284.067 -55.577)" fill="#722be3"/>
        </g>
        <path id="Rectángulo_5359" data-name="Rectángulo 5359" d="M6036.774,312.613h-9.041a2.338,2.338,0,0,0-2.338,2.338h0a2.338,2.338,0,0,0,2.338,2.338h9.041a2.338,2.338,0,0,0,2.338-2.338h0A2.338,2.338,0,0,0,6036.774,312.613Z" transform="translate(-5982.368 -242.82)" fill="#f5db34"/>
        <path id="Trazado_101455" data-name="Trazado 101455" d="M5954.328-166.117a3.8,3.8,0,0,1,2.573.625c.583.542,1.333,1.167,1.333,1.963v24.778h-31.214S5928.674-164.245,5954.328-166.117Z" transform="translate(-5887.146 166.143)" fill="#adadad"/>
        <g id="Grupo_54049" data-name="Grupo 54049" transform="translate(15.119 96.618)">
          <g id="Grupo_54048" data-name="Grupo 54048">
            <ellipse id="Elipse_4114" data-name="Elipse 4114" cx="23.965" cy="23.965" rx="23.965" ry="23.965" fill="#722be3"/>
            <ellipse id="Elipse_4115" data-name="Elipse 4115" cx="19.457" cy="19.457" rx="19.457" ry="19.457" transform="translate(4.519 4.505)" fill="#f4f4f4"/>
            <path id="Trazado_101456" data-name="Trazado 101456" d="M6089.812,563.567a.657.657,0,0,0,.656-.658.678.678,0,0,0-.052-.252,16.578,16.578,0,0,1,23.358-20.919.655.655,0,0,0,.634-1.143,17.891,17.891,0,0,0-25.208,22.57A.656.656,0,0,0,6089.812,563.567Z" transform="translate(-6082.181 -532.243)" fill="#bbcef9"/>
          </g>
          <ellipse id="Elipse_4116" data-name="Elipse 4116" cx="8.924" cy="8.924" rx="8.924" ry="8.924" transform="translate(15.051 15.039)" fill="#722be3"/>
        </g>
        <g id="Grupo_54051" data-name="Grupo 54051" transform="translate(243.062 97.291)">
          <g id="Grupo_54050" data-name="Grupo 54050">
            <ellipse id="Elipse_4117" data-name="Elipse 4117" cx="23.959" cy="23.959" rx="23.959" ry="23.959" fill="#722be3"/>
            <ellipse id="Elipse_4118" data-name="Elipse 4118" cx="19.457" cy="19.457" rx="19.457" ry="19.457" transform="translate(4.503 4.5)" fill="#f4f4f4"/>
            <path id="Trazado_101457" data-name="Trazado 101457" d="M4526.311,568.155a.663.663,0,0,0,.255-.051.654.654,0,0,0,.349-.857v0a16.578,16.578,0,0,1,23.358-20.918.655.655,0,0,0,.635-1.143,17.89,17.89,0,0,0-25.207,22.57A.655.655,0,0,0,4526.311,568.155Z" transform="translate(-4518.695 -536.836)" fill="#bbcef9"/>
          </g>
          <ellipse id="Elipse_4119" data-name="Elipse 4119" cx="8.924" cy="8.924" rx="8.924" ry="8.924" transform="translate(15.034 15.035)" fill="#722be3"/>
        </g>
        <g id="Grupo_54053" data-name="Grupo 54053" transform="translate(108.044 97.291)">
          <g id="Grupo_54052" data-name="Grupo 54052">
            <ellipse id="Elipse_4120" data-name="Elipse 4120" cx="23.959" cy="23.959" rx="23.959" ry="23.959" fill="#722be3"/>
            <ellipse id="Elipse_4121" data-name="Elipse 4121" cx="19.457" cy="19.457" rx="19.457" ry="19.457" transform="translate(4.503 4.5)" fill="#f4f4f4"/>
            <path id="Trazado_101458" data-name="Trazado 101458" d="M5452.5,568.162a.669.669,0,0,0,.255-.051.656.656,0,0,0,.348-.858h0a16.577,16.577,0,0,1,23.357-20.917.655.655,0,0,0,.635-1.143,17.891,17.891,0,0,0-25.208,22.572A.658.658,0,0,0,5452.5,568.162Z" transform="translate(-5444.889 -536.842)" fill="#bbcef9"/>
          </g>
          <ellipse id="Elipse_4122" data-name="Elipse 4122" cx="8.924" cy="8.924" rx="8.924" ry="8.924" transform="translate(15.034 15.035)" fill="#722be3"/>
        </g>
        <g id="Grupo_54055" data-name="Grupo 54055" transform="translate(297.854 97.287)">
          <g id="Grupo_54054" data-name="Grupo 54054" transform="translate(0)">
            <ellipse id="Elipse_4123" data-name="Elipse 4123" cx="23.965" cy="23.965" rx="23.965" ry="23.965" fill="#722be3"/>
            <ellipse id="Elipse_4124" data-name="Elipse 4124" cx="19.457" cy="19.457" rx="19.457" ry="19.457" transform="translate(4.519 4.505)" fill="#f4f4f4"/>
            <path id="Trazado_101459" data-name="Trazado 101459" d="M4150.338,568.173a.674.674,0,0,0,.255-.051.655.655,0,0,0,.347-.859,16.578,16.578,0,0,1,23.36-20.917.655.655,0,0,0,.635-1.143,17.892,17.892,0,0,0-25.207,22.572A.657.657,0,0,0,4150.338,568.173Z" transform="translate(-4142.705 -536.849)" fill="#bbcef9"/>
          </g>
          <ellipse id="Elipse_4125" data-name="Elipse 4125" cx="8.924" cy="8.924" rx="8.924" ry="8.924" transform="translate(15.051 15.039)" fill="#722be3"/>
        </g>
        <g id="Grupo_54056" data-name="Grupo 54056" transform="translate(1.56 89.122)">
          <path id="Rectángulo_5360" data-name="Rectángulo 5360" d="M6332.563,445.22h0a5.612,5.612,0,0,0-5.612,5.612v.623a5.612,5.612,0,0,0,5.612,5.612h0a5.612,5.612,0,0,0,5.612-5.612v-.623A5.612,5.612,0,0,0,6332.563,445.22Z" transform="translate(-6326.95 -445.217)" fill="#f5db34"/>
          <path id="Trazado_101460" data-name="Trazado 101460" d="M6320.535,445.2v13.718h1.684c1.3,0,3.616-1.389,3.616-2.7v-7.781c0-1.3-2.312-3.245-3.616-3.245Z" transform="translate(-6313.675 -445.198)" fill="#f5db34" opacity="0.8" style="isolation: isolate"/>
        </g>
        <path id="Trazado_101461" data-name="Trazado 101461" d="M5948.838,110.12a.654.654,0,0,0,.654-.655h0V54.28a.655.655,0,1,0-1.31,0v55.185a.654.654,0,0,0,.653.655Z" transform="translate(-5881.492 -21.586)" fill="#fff" opacity="0.35" style="isolation: isolate"/>
        <path id="Trazado_101462" data-name="Trazado 101462" d="M5945.191-118.141a.657.657,0,0,0,.62-.441c7.026-20.36,21.05-18.992,21.645-18.926a.656.656,0,0,0,.73-.572.655.655,0,0,0-.571-.73h0c-.159-.02-15.654-1.6-23.037,19.8a.657.657,0,0,0,.406.834A.678.678,0,0,0,5945.191-118.141Z" transform="translate(-5899.658 142.823)" fill="#fff" opacity="0.35" style="isolation: isolate"/>
      </g>
      <g id="Grupo_54376-2" data-name="Grupo 54376" transform="translate(256.85 25.765)">
        <path id="Trazado_101225" data-name="Trazado 101225" d="M4139.006,189.647v-16.31h27.419v32.209a1.223,1.223,0,0,1-1.223,1.223h-61.349a1.158,1.158,0,0,1-1.158-1.158V189.647Z" transform="translate(-4086.237 -149.612)" fill="#732be5"/>
        <path id="Trazado_101226" data-name="Trazado 101226" d="M4133.644,336.751a.7.7,0,0,1-.708-.7v-.007a10.64,10.64,0,1,1,21.281,0v.007a.7.7,0,0,1-.708.7Z" transform="translate(-4078.437 -279.514)" fill="url(#linear-gradient-2)"/>
        <path id="Trazado_101227" data-name="Trazado 101227" d="M4388.248,338.445a.7.7,0,0,1-.708-.7v-.007a10.641,10.641,0,0,1,21.281,0v.007a.7.7,0,0,1-.708.7Z" transform="translate(-4370.157 -280.962)" fill="url(#linear-gradient-3)"/>
        <g id="Grupo_53973" data-name="Grupo 53973" transform="translate(57.422 48.697)">
          <g id="Grupo_53972" data-name="Grupo 53972" transform="translate(0)">
            <ellipse id="Elipse_4090" data-name="Elipse 4090" cx="7.715" cy="7.715" rx="7.715" ry="7.715" fill="url(#linear-gradient-4)"/>
            <ellipse id="Elipse_4091" data-name="Elipse 4091" cx="6.266" cy="6.266" rx="6.266" ry="6.266" transform="translate(1.449 1.449)" fill="#7d97f4"/>
            <path id="Trazado_101228" data-name="Trazado 101228" d="M4187.564,366.148a.219.219,0,0,1-.2-.134,5.768,5.768,0,0,1,8.128-7.279.219.219,0,1,1-.214.382,5.331,5.331,0,0,0-7.511,6.726.22.22,0,0,1-.2.3Z" transform="translate(-4185.113 -356.054)" fill="#bdd0fb"/>
          </g>
          <ellipse id="Elipse_4092" data-name="Elipse 4092" cx="2.873" cy="2.873" rx="2.873" ry="2.873" transform="translate(4.842 4.842)" fill="#732be5"/>
        </g>
        <g id="Grupo_53975" data-name="Grupo 53975" transform="translate(20.308 49.389)">
          <g id="Grupo_53974" data-name="Grupo 53974" transform="translate(0)">
            <ellipse id="Elipse_4093" data-name="Elipse 4093" cx="7.715" cy="7.715" rx="7.715" ry="7.715" fill="url(#linear-gradient-5)"/>
            <ellipse id="Elipse_4094" data-name="Elipse 4094" cx="6.265" cy="6.265" rx="6.265" ry="6.265" transform="translate(1.45 1.447)" fill="#7d97f4"/>
            <path id="Trazado_101229" data-name="Trazado 101229" d="M4442.149,370.891a.219.219,0,0,1-.2-.134,5.768,5.768,0,0,1,8.128-7.279.219.219,0,1,1-.213.383,5.331,5.331,0,0,0-7.511,6.725.219.219,0,0,1-.2.3Z" transform="translate(-4439.698 -360.798)" fill="#bdd0fb"/>
          </g>
          <ellipse id="Elipse_4095" data-name="Elipse 4095" cx="2.873" cy="2.873" rx="2.873" ry="2.873" transform="translate(4.842 4.841)" fill="#732be5"/>
        </g>
        <path id="Trazado_101230" data-name="Trazado 101230" d="M4090.211,166.9H4119.3V164.4a.718.718,0,0,0-.718-.718h-28.367Z" transform="translate(-4037.288 -141.368)" fill="#7d97f4"/>
        <path id="Rectángulo_5203" data-name="Rectángulo 5203" d="M4503.058,102.821h-3.438V129.41h5.865V105.248a2.427,2.427,0,0,0-2.427-2.427Z" transform="translate(-4483.16 -89.376)" fill="#732be5"/>
        <rect id="Rectángulo_5204" data-name="Rectángulo 5204" width="1.407" height="26.229" transform="translate(15.052 25.014)" fill="url(#linear-gradient-6)"/>
        <path id="Rectángulo_5205" data-name="Rectángulo 5205" d="M4556.312,349.378h-14.318a2.141,2.141,0,0,0-2.142,2.141h16.459v-2.141Z" transform="translate(-4539.853 -299.989)" fill="url(#linear-gradient-7)"/>
        <rect id="Rectángulo_5206" data-name="Rectángulo 5206" width="16.944" height="7.549" transform="translate(35.738 32.486)" fill="url(#linear-gradient-8)"/>
        <rect id="Rectángulo_5207" data-name="Rectángulo 5207" width="1.015" height="5.104" transform="matrix(-0.929, -0.37, 0.37, -0.929, 30.178, 31.408)" fill="url(#linear-gradient-9)"/>
        <path id="Rectángulo_5208" data-name="Rectángulo 5208" d="M4426.781,182.745l-3.266-1.727h0l-.018.033a1.189,1.189,0,0,0,.5,1.608h0l3.3,1.745h0A1.228,1.228,0,0,0,4426.781,182.745Z" transform="translate(-4393.993 -156.173)" fill="url(#linear-gradient-10)"/>
        <path id="Trazado_101231" data-name="Trazado 101231" d="M4434.984,230.353h9.573V222.8a1.24,1.24,0,0,0-1.24-1.24h-4.873Z" transform="translate(-4412.81 -190.802)" fill="url(#linear-gradient-11)"/>
        <path id="Trazado_101244" data-name="Trazado 101244" d="M4313.958,48.617V10.59h-18.186a4.321,4.321,0,0,0-3.894,3.326l-11.021,34.34a3.185,3.185,0,0,0,.29,2.607,2.088,2.088,0,0,0,1.771,1.077h28.358C4312.755,51.94,4313.958,50.449,4313.958,48.617Zm-19.609-33.672c.264-.825.824-1.358,1.423-1.358h15.555V48.617a.534.534,0,0,1-.092.327h-27.8Z" transform="translate(-4259.72 -10.59)" fill="url(#linear-gradient-12)"/>
      </g>
      <g id="Grupo_54377" data-name="Grupo 54377" transform="translate(170.855 25.765)">
        <path id="Trazado_101225-2" data-name="Trazado 101225" d="M4728.9,189.647v-16.31h27.419v32.209a1.222,1.222,0,0,1-1.223,1.223h-61.348a1.158,1.158,0,0,1-1.158-1.158V189.647Z" transform="translate(-4676.131 -149.612)" fill="#732be5"/>
        <path id="Trazado_101226-2" data-name="Trazado 101226" d="M4723.538,336.751a.7.7,0,0,1-.708-.7v-.007a10.64,10.64,0,1,1,21.28,0v.007a.7.7,0,0,1-.708.7Z" transform="translate(-4668.332 -279.514)" fill="url(#linear-gradient-13)"/>
        <path id="Trazado_101227-2" data-name="Trazado 101227" d="M4978.143,338.445a.7.7,0,0,1-.707-.7v-.007a10.64,10.64,0,1,1,21.28,0v.007a.7.7,0,0,1-.708.7Z" transform="translate(-4960.053 -280.962)" fill="url(#linear-gradient-14)"/>
        <g id="Grupo_53973-2" data-name="Grupo 53973" transform="translate(57.422 48.697)">
          <g id="Grupo_53972-2" data-name="Grupo 53972" transform="translate(0)">
            <ellipse id="Elipse_4090-2" data-name="Elipse 4090" cx="7.715" cy="7.715" rx="7.715" ry="7.715" fill="url(#linear-gradient-15)"/>
            <ellipse id="Elipse_4091-2" data-name="Elipse 4091" cx="6.266" cy="6.266" rx="6.266" ry="6.266" transform="translate(1.449 1.449)" fill="#7d97f4"/>
            <path id="Trazado_101228-2" data-name="Trazado 101228" d="M4777.46,366.148a.22.22,0,0,1-.2-.134,5.769,5.769,0,0,1,8.129-7.279.219.219,0,1,1-.215.382,5.331,5.331,0,0,0-7.51,6.726.22.22,0,0,1-.117.287.222.222,0,0,1-.086.017Z" transform="translate(-4775.008 -356.054)" fill="#bdd0fb"/>
          </g>
          <ellipse id="Elipse_4092-2" data-name="Elipse 4092" cx="2.873" cy="2.873" rx="2.873" ry="2.873" transform="translate(4.842 4.842)" fill="#732be5"/>
        </g>
        <g id="Grupo_53975-2" data-name="Grupo 53975" transform="translate(20.308 49.389)">
          <g id="Grupo_53974-2" data-name="Grupo 53974" transform="translate(0)">
            <ellipse id="Elipse_4093-2" data-name="Elipse 4093" cx="7.715" cy="7.715" rx="7.715" ry="7.715" fill="url(#linear-gradient-16)"/>
            <ellipse id="Elipse_4094-2" data-name="Elipse 4094" cx="6.265" cy="6.265" rx="6.265" ry="6.265" transform="translate(1.45 1.447)" fill="#7d97f4"/>
            <path id="Trazado_101229-2" data-name="Trazado 101229" d="M5032.042,370.891a.219.219,0,0,1-.2-.134,5.769,5.769,0,0,1,8.128-7.279.219.219,0,1,1-.214.383,5.331,5.331,0,0,0-7.51,6.725.22.22,0,0,1-.2.3Z" transform="translate(-5029.591 -360.798)" fill="#bdd0fb"/>
          </g>
          <ellipse id="Elipse_4095-2" data-name="Elipse 4095" cx="2.873" cy="2.873" rx="2.873" ry="2.873" transform="translate(4.842 4.841)" fill="#732be5"/>
        </g>
        <path id="Trazado_101230-2" data-name="Trazado 101230" d="M4680.1,166.9h29.086V164.4a.718.718,0,0,0-.718-.718H4680.1Z" transform="translate(-4627.182 -141.368)" fill="#7d97f4"/>
        <path id="Rectángulo_5203-2" data-name="Rectángulo 5203" d="M5092.952,102.821h-3.437V129.41h5.865V105.248a2.427,2.427,0,0,0-2.427-2.427Z" transform="translate(-5073.056 -89.376)" fill="#732be5"/>
        <rect id="Rectángulo_5204-2" data-name="Rectángulo 5204" width="1.407" height="26.229" transform="translate(15.052 25.014)" fill="url(#linear-gradient-17)"/>
        <path id="Rectángulo_5205-2" data-name="Rectángulo 5205" d="M5146.206,349.378h-14.317a2.141,2.141,0,0,0-2.142,2.141h16.459v-2.141Z" transform="translate(-5129.747 -299.989)" fill="url(#linear-gradient-18)"/>
        <rect id="Rectángulo_5206-2" data-name="Rectángulo 5206" width="16.944" height="7.549" transform="translate(35.738 32.486)" fill="url(#linear-gradient-19)"/>
        <rect id="Rectángulo_5207-2" data-name="Rectángulo 5207" width="1.015" height="5.104" transform="matrix(-0.929, -0.37, 0.37, -0.929, 30.178, 31.408)" fill="url(#linear-gradient-20)"/>
        <path id="Rectángulo_5208-2" data-name="Rectángulo 5208" d="M5016.675,182.745l-3.265-1.727h0l-.018.033a1.189,1.189,0,0,0,.5,1.608h0l3.3,1.745h0A1.229,1.229,0,0,0,5016.675,182.745Z" transform="translate(-4983.888 -156.173)" fill="url(#linear-gradient-21)"/>
        <path id="Trazado_101231-2" data-name="Trazado 101231" d="M5024.878,230.353h9.572V222.8a1.24,1.24,0,0,0-1.24-1.24h-4.873Z" transform="translate(-5002.703 -190.802)" fill="url(#linear-gradient-22)"/>
        <path id="Trazado_101244-2" data-name="Trazado 101244" d="M4903.853,48.617V10.59h-18.186a4.322,4.322,0,0,0-3.895,3.326l-11.02,34.34a3.188,3.188,0,0,0,.289,2.607,2.089,2.089,0,0,0,1.771,1.077h28.357C4902.65,51.94,4903.853,50.449,4903.853,48.617Zm-19.609-33.672c.265-.825.823-1.358,1.423-1.358h15.556V48.617a.541.541,0,0,1-.092.327h-27.8Z" transform="translate(-4849.615 -10.59)" fill="url(#linear-gradient-23)"/>
      </g>
      <g id="Grupo_54378" data-name="Grupo 54378" transform="translate(86.094 25.765)">
        <path id="Trazado_101225-3" data-name="Trazado 101225" d="M5310.322,189.647v-16.31h27.419v32.209a1.223,1.223,0,0,1-1.223,1.223h-61.349a1.158,1.158,0,0,1-1.157-1.158V189.647Z" transform="translate(-5257.554 -149.612)" fill="#732be5"/>
        <path id="Trazado_101226-3" data-name="Trazado 101226" d="M5304.959,336.751a.7.7,0,0,1-.707-.7v-.007a10.64,10.64,0,1,1,21.28,0v.007a.7.7,0,0,1-.708.7Z" transform="translate(-5249.754 -279.514)" fill="url(#linear-gradient-24)"/>
        <path id="Trazado_101227-3" data-name="Trazado 101227" d="M5559.564,338.445a.7.7,0,0,1-.708-.7v-.007a10.64,10.64,0,1,1,21.28,0v.007a.7.7,0,0,1-.707.7Z" transform="translate(-5541.474 -280.962)" fill="url(#linear-gradient-25)"/>
        <g id="Grupo_53973-3" data-name="Grupo 53973" transform="translate(57.422 48.697)">
          <g id="Grupo_53972-3" data-name="Grupo 53972" transform="translate(0)">
            <ellipse id="Elipse_4090-3" data-name="Elipse 4090" cx="7.715" cy="7.715" rx="7.715" ry="7.715" fill="url(#linear-gradient-26)"/>
            <ellipse id="Elipse_4091-3" data-name="Elipse 4091" cx="6.266" cy="6.266" rx="6.266" ry="6.266" transform="translate(1.449 1.449)" fill="#7d97f4"/>
            <path id="Trazado_101228-3" data-name="Trazado 101228" d="M5358.882,366.148a.22.22,0,0,1-.2-.134,5.769,5.769,0,0,1,8.129-7.279.219.219,0,0,1-.215.382,5.331,5.331,0,0,0-7.511,6.726.219.219,0,0,1-.117.287.214.214,0,0,1-.085.017Z" transform="translate(-5356.429 -356.054)" fill="#bdd0fb"/>
          </g>
          <ellipse id="Elipse_4092-3" data-name="Elipse 4092" cx="2.873" cy="2.873" rx="2.873" ry="2.873" transform="translate(4.842 4.842)" fill="#732be5"/>
        </g>
        <g id="Grupo_53975-3" data-name="Grupo 53975" transform="translate(20.308 49.389)">
          <g id="Grupo_53974-3" data-name="Grupo 53974" transform="translate(0)">
            <ellipse id="Elipse_4093-3" data-name="Elipse 4093" cx="7.715" cy="7.715" rx="7.715" ry="7.715" fill="url(#linear-gradient-27)"/>
            <ellipse id="Elipse_4094-3" data-name="Elipse 4094" cx="6.265" cy="6.265" rx="6.265" ry="6.265" transform="translate(1.45 1.447)" fill="#7d97f4"/>
            <path id="Trazado_101229-3" data-name="Trazado 101229" d="M5613.465,370.891a.221.221,0,0,1-.2-.134,5.769,5.769,0,0,1,8.129-7.279.219.219,0,0,1-.214.383,5.331,5.331,0,0,0-7.511,6.725.219.219,0,0,1-.2.3Z" transform="translate(-5611.013 -360.798)" fill="#bdd0fb"/>
          </g>
          <ellipse id="Elipse_4095-3" data-name="Elipse 4095" cx="2.873" cy="2.873" rx="2.873" ry="2.873" transform="translate(4.842 4.841)" fill="#732be5"/>
        </g>
        <path id="Trazado_101230-3" data-name="Trazado 101230" d="M5261.526,166.9h29.085V164.4a.718.718,0,0,0-.719-.718h-28.366Z" transform="translate(-5208.604 -141.368)" fill="#7d97f4"/>
        <path id="Rectángulo_5203-3" data-name="Rectángulo 5203" d="M5674.375,102.821h-3.439V129.41h5.866V105.248a2.427,2.427,0,0,0-2.427-2.427Z" transform="translate(-5654.478 -89.376)" fill="#732be5"/>
        <rect id="Rectángulo_5204-3" data-name="Rectángulo 5204" width="1.407" height="26.229" transform="translate(15.052 25.014)" fill="url(#linear-gradient-28)"/>
        <path id="Rectángulo_5205-3" data-name="Rectángulo 5205" d="M5727.628,349.378H5713.31a2.141,2.141,0,0,0-2.14,2.141h16.458v-2.141Z" transform="translate(-5711.17 -299.989)" fill="url(#linear-gradient-29)"/>
        <rect id="Rectángulo_5206-3" data-name="Rectángulo 5206" width="16.944" height="7.549" transform="translate(35.738 32.486)" fill="url(#linear-gradient-30)"/>
        <rect id="Rectángulo_5207-3" data-name="Rectángulo 5207" width="1.015" height="5.104" transform="matrix(-0.929, -0.37, 0.37, -0.929, 30.178, 31.408)" fill="url(#linear-gradient-31)"/>
        <path id="Rectángulo_5208-3" data-name="Rectángulo 5208" d="M5598.1,182.745l-3.266-1.727h0l-.018.033a1.19,1.19,0,0,0,.495,1.608h0l3.3,1.745h0A1.227,1.227,0,0,0,5598.1,182.745Z" transform="translate(-5565.311 -156.173)" fill="url(#linear-gradient-32)"/>
        <path id="Trazado_101231-3" data-name="Trazado 101231" d="M5606.3,230.353h9.572V222.8a1.24,1.24,0,0,0-1.24-1.24h-4.873Z" transform="translate(-5584.126 -190.802)" fill="url(#linear-gradient-33)"/>
        <path id="Trazado_101244-3" data-name="Trazado 101244" d="M5485.275,48.617V10.59H5467.09a4.321,4.321,0,0,0-3.894,3.326l-11.02,34.34a3.185,3.185,0,0,0,.289,2.607,2.089,2.089,0,0,0,1.772,1.077h28.357C5484.073,51.94,5485.275,50.449,5485.275,48.617Zm-19.609-33.672c.265-.825.823-1.358,1.424-1.358h15.555V48.617a.537.537,0,0,1-.092.327h-27.8Z" transform="translate(-5431.037 -10.59)" fill="url(#linear-gradient-34)"/>
      </g>
    </g>
  </g>
</svg>
