<svg xmlns="http://www.w3.org/2000/svg" width="899.414" height="443.854" viewBox="0 0 899.414 443.854">
  <g id="Grupo_54937" data-name="Grupo 54937" transform="translate(-249.796 -7430.359)">
    <g id="Grupo_54903" data-name="Grupo 54903" transform="translate(704.71 7430.744)">
      <rect id="Rectángulo_5527" data-name="Rectángulo 5527" width="369.084" height="73.771" transform="translate(74 73.885) rotate(90)" fill="#dd811b" stroke="#000" stroke-miterlimit="10" stroke-width="1"/>
      <rect id="Rectángulo_5528" data-name="Rectángulo 5528" width="369.542" height="73.771" transform="translate(74 0.115)" fill="#dd811b" stroke="#000" stroke-miterlimit="10" stroke-width="1"/>
      <g id="Grupo_54858" data-name="Grupo 54858" transform="translate(90.458 12.655)">
        <g id="Grupo_54856" data-name="Grupo 54856" transform="translate(2.32)">
          <g id="Grupo_54855" data-name="Grupo 54855">
            <path id="Trazado_102499" data-name="Trazado 102499" d="M908.383,77.236c1.476,2.209,1.287,3.525-1.513,8.888a4.063,4.063,0,0,0,3.818-3.924,68.893,68.893,0,0,0-.472-9.817c-.233-2.439-.215-4.785,1.1-6.92a18.567,18.567,0,0,1,2.122-2.319c-1.7,6.394-.872,9.3,3.162,11.783-.267-1.668-1.468-3.268.106-5.093-.043,2.184,1.111,3.35,2.532,4.389a21.053,21.053,0,0,1,8.793,13.505c1.035,5.6-.608,10.174-5.095,13.648a18.6,18.6,0,0,1-4.84,2.6c.53-.617,1.1-1.207,1.582-1.856a6.228,6.228,0,0,0,.222-7.662,36.724,36.724,0,0,1-1.909-4.063c.094,1.03.186,1.929.256,2.829.066.854.4,1.836.09,2.531a10.055,10.055,0,0,1-2,2.31c-.653-.62-1.74-1.167-1.859-1.875a8.257,8.257,0,0,1,.511-3.472c.609-2.085,1.511-4.094,2-6.2.3-1.325-.476-2.448-2.136-3.364,1.1,2,.091,2.952-1.054,4.009-2.256,2.086-4.057,4.46-3.516,7.876l-.558.109-1.046-3.236a5.144,5.144,0,0,0,.328,6.4c1.793,2.229,2.037,3.512,1.121,5.886-4.477-.73-9.685-5.545-10.659-9.852-1.032-4.57,1.237-9.778,5.282-12.889C906.177,80.359,907.167,78.68,908.383,77.236Z" transform="translate(-899.214 -63.145)"/>
          </g>
        </g>
        <g id="Grupo_54857" data-name="Grupo 54857" transform="translate(0 42.806)">
          <line id="Línea_193" data-name="Línea 193" x2="30.906" transform="translate(1.423 1.423)"/>
          <path id="Trazado_102500" data-name="Trazado 102500" d="M928.518,121.8H897.613a1.423,1.423,0,0,1,0-2.846h30.905a1.423,1.423,0,0,1,0,2.846Z" transform="translate(-896.19 -118.951)"/>
        </g>
      </g>
      <g id="Grupo_54862" data-name="Grupo 54862" transform="translate(20.582 82.532)">
        <g id="Grupo_54860" data-name="Grupo 54860" transform="translate(2.32)">
          <g id="Grupo_54859" data-name="Grupo 54859">
            <path id="Trazado_102501" data-name="Trazado 102501" d="M817.286,168.334c1.476,2.21,1.287,3.525-1.512,8.888a4.063,4.063,0,0,0,3.818-3.924,68.885,68.885,0,0,0-.473-9.817c-.233-2.439-.215-4.784,1.1-6.92a18.534,18.534,0,0,1,2.122-2.318c-1.7,6.394-.873,9.3,3.162,11.783-.267-1.668-1.469-3.268.106-5.093-.043,2.184,1.112,3.35,2.532,4.389a21.051,21.051,0,0,1,8.794,13.505c1.035,5.6-.608,10.174-5.095,13.648a18.6,18.6,0,0,1-4.84,2.6c.53-.617,1.1-1.207,1.582-1.855a6.23,6.23,0,0,0,.222-7.662,36.523,36.523,0,0,1-1.909-4.063c.094,1.03.186,1.929.256,2.829.066.854.4,1.836.09,2.531a10.069,10.069,0,0,1-2,2.31c-.653-.62-1.741-1.167-1.859-1.875a8.23,8.23,0,0,1,.511-3.471c.609-2.086,1.511-4.095,2-6.2.3-1.324-.476-2.448-2.136-3.364,1.1,2,.089,2.952-1.054,4.009-2.256,2.086-4.057,4.46-3.516,7.876l-.559.109-1.045-3.236a5.144,5.144,0,0,0,.327,6.4c1.793,2.229,2.037,3.512,1.121,5.887-4.477-.731-9.685-5.546-10.659-9.853-1.033-4.57,1.236-9.778,5.282-12.889C815.08,171.456,816.07,169.778,817.286,168.334Z" transform="translate(-808.117 -154.243)"/>
          </g>
        </g>
        <g id="Grupo_54861" data-name="Grupo 54861" transform="translate(0 42.805)">
          <line id="Línea_194" data-name="Línea 194" x2="30.906" transform="translate(1.423 1.423)"/>
          <path id="Trazado_102502" data-name="Trazado 102502" d="M837.421,212.894H806.516a1.423,1.423,0,0,1,0-2.846h30.905a1.423,1.423,0,0,1,0,2.846Z" transform="translate(-805.093 -210.048)"/>
        </g>
      </g>
      <g id="Grupo_54863" data-name="Grupo 54863" transform="translate(156.13 18.907)">
        <path id="Trazado_102503" data-name="Trazado 102503" d="M1006.338,91.766c1.7-2.5,3.853-4.035,7.066-3.334.5.11.641-.34.882-.622.807-1.9,1.194-3.94,2.032-5.826a4.682,4.682,0,0,1,1.117-1.793l3.092-8.092c.188-.492.28-1.043,1.072-.69.768.343.448.792.252,1.277q-2.436,6.041-4.861,12.084c-.47,1.175-.811,2.4-1.342,3.549-.548,1.181.829,1.309,1.045,2.26-1.274-.28-2.047.934-3.232.911-.917-.018-.359.515-.421.889-.189,1.131-.683,2.053-2.058,1.376a4.748,4.748,0,0,0-3.436-.394C1006.456,93.351,1005.971,92.881,1006.338,91.766Z" transform="translate(-987.492 -71.296)"/>
        <path id="Trazado_102504" data-name="Trazado 102504" d="M1007.14,101.872c.947.442,1.847.66,2.693-.257.912-.988,1.621-.067,2.148.456.959.952,2.035.752,2.526-.077.839-1.415,1.362-.715,2.068-.051.284.267.605.494.91.739.224,1.348-.689,1.883-1.685,2.359-3.469,2.07-6.307,1.7-8.695-1.127a1.913,1.913,0,0,1-1.008-1.434C1006.205,101.866,1006.471,101.521,1007.14,101.872Z" transform="translate(-987.465 -78.255)"/>
        <path id="Trazado_102505" data-name="Trazado 102505" d="M1021.97,93.717c.05-1.877-1.358.069-1.756-.694.42-.947,1.41-1.865,2.1-1.867a4.374,4.374,0,0,0,2.712-.442l-.593,1.484,9.546-5.926c.615,1.243-.367,1.485-.994,1.833-3.687,2.048-7.394,4.059-11.094,6.083A.294.294,0,0,1,1021.97,93.717Z" transform="translate(-990.753 -74.785)"/>
        <path id="Trazado_102506" data-name="Trazado 102506" d="M998.411,104.312c1.2-.495,2.839.309,3.686-1.24l.675,1.284-7.675,3.79c1.058-1.5,2.855-1.78,4.423-2.873a7.371,7.371,0,0,1-2.633-.12c-.281-.121-1.175-.311-.685.7.174.357-.339.692-.582.545-2.506-1.516-4.753.442-7.134.471a5.071,5.071,0,0,1-.994-.364C991.4,105.493,994.9,104.881,998.411,104.312Z" transform="translate(-983.131 -78.698)"/>
        <path id="Trazado_102507" data-name="Trazado 102507" d="M1019.731,81.914c-.927,2.59-1.573,5.3-3.149,7.618.269-2.679,1.26-5.191,1.976-8.045l-1.518,1.21c-.24-.9-1.8-1.434-.368-2.625,1.035-.859,1.578-.336,2.038.64.435-.68.333-1.5,1.02-2.021C1020.741,79.877,1018.755,80.883,1019.731,81.914Z" transform="translate(-989.789 -73.019)"/>
        <path id="Trazado_102508" data-name="Trazado 102508" d="M1025.971,104.049c1.571.189,3.156.311,4.708.6.587.109,1.781-.239,1.614.875-.173,1.151-1.123.38-1.738.314-.646-.07-1.284-.221-1.926-.337-.13,1.944-1.661.593-2.452,1.055.255.8,1.417.548,1.769,1.717l-2.728-1.445a1.272,1.272,0,0,1-1.191-1.783C1024.273,104.452,1024.823,103.376,1025.971,104.049Z" transform="translate(-991.616 -78.876)"/>
        <path id="Trazado_102509" data-name="Trazado 102509" d="M1036.471,97.347q7.61-1.136,15.221-2.263c.469-.069,1.179-.476,1.355.22.2.786-.616.679-1.081.734-4.9.579-9.8,1.137-14.7,1.7C1036.9,97.809,1036.427,98.107,1036.471,97.347Z" transform="translate(-994.54 -76.795)"/>
        <path id="Trazado_102510" data-name="Trazado 102510" d="M1030.849,95.384l17.239-3.851.158.714c-5.5,1.424-11.124,2.356-16.7,3.484C1031.2,95.851,1030.772,96.125,1030.849,95.384Z" transform="translate(-993.229 -76.01)"/>
        <path id="Trazado_102511" data-name="Trazado 102511" d="M1027.431,86.62c1.442-1.57,4.281-4.665,7.129-7.75.264-.287.592-.606.99-.18.449.481-.079.681-.327.905C1032.119,82.4,1029,85.2,1027.431,86.62Z" transform="translate(-992.434 -72.97)"/>
        <path id="Trazado_102512" data-name="Trazado 102512" d="M1045.661,84.649a3.56,3.56,0,0,1,1.235,3.6c-.958-.094-1.757-1.411-2.845-.222-.268.292-1-.172-1.056-.8-.051-.568.179-1.155.832-1.079C1044.951,86.281,1045.255,85.5,1045.661,84.649Z" transform="translate(-996.058 -74.407)"/>
        <path id="Trazado_102513" data-name="Trazado 102513" d="M1033.455,99.976c.583.614,2.264-.1,1.947,1.6-.646.966-1.568.561-2.423.487-.13-.025-.294-.007-.383-.081-.627-.519-1.937.67-2.112-.729-.137-1.1,1.248-.693,1.672-1.323A1.339,1.339,0,0,1,1033.455,99.976Z" transform="translate(-993.144 -77.933)"/>
        <path id="Trazado_102514" data-name="Trazado 102514" d="M991.931,103.843l.73.376-10.793,1.212-.063-.5a45.741,45.741,0,0,1,6.278-.713c.363-.018,1.17.455.866-.746-.148-.588.727-.96,1.462-.52C990.916,103.256,991.425,103.547,991.931,103.843Z" transform="translate(-981.806 -78.626)"/>
        <path id="Trazado_102515" data-name="Trazado 102515" d="M1033.74,102.611c.8-.209,1.7.084,2.423-.487,2.439.739,4.943.2,7.41.384,1.668.126,3.376-.214,5.032.789a28.114,28.114,0,0,1-2.878-.015c-3.614-.372-7.235-.382-10.861-.4A5.017,5.017,0,0,1,1033.74,102.611Z" transform="translate(-993.904 -78.478)"/>
        <path id="Trazado_102516" data-name="Trazado 102516" d="M1003.4,109.345c-2.392-.706-3.215,1.684-4.842,2.513-.6.305-1.255,1.483-1.7.859-.619-.871.75-1.091,1.267-1.5,1.491-1.187,3.1-2.229,4.634-3.357.506-.37.821-.4,1.265.141.225.277.717.354.549.856C1004.384,109.415,1003.905,109.4,1003.4,109.345Z" transform="translate(-985.276 -79.749)"/>
        <path id="Trazado_102517" data-name="Trazado 102517" d="M1021.955,107.778a2.208,2.208,0,0,1,2.417.314l4,2.579-.291.45C1026.034,110.012,1023.524,109.813,1021.955,107.778Z" transform="translate(-991.159 -79.74)"/>
        <path id="Trazado_102518" data-name="Trazado 102518" d="M1032.156,99.581l-1.3-.044c-1.918-.952-3.841.689-5.96-.179l8.879-1.269.8.391c-.749.535-1.635.232-2.436.4C1031.261,99.074,1032.17,99.342,1032.156,99.581Z" transform="translate(-991.844 -77.538)"/>
        <path id="Trazado_102519" data-name="Trazado 102519" d="M1020.218,88.558q1.618-2.841,3.233-5.685c.179-.316.433-.566.773-.387.393.208.187.567.015.831q-1.8,2.745-3.619,5.478Z" transform="translate(-990.754 -73.889)"/>
        <path id="Trazado_102520" data-name="Trazado 102520" d="M1023.466,96.667a1.727,1.727,0,0,0,.068-.361l6.261-2.539.261.65A35.7,35.7,0,0,1,1023.466,96.667Z" transform="translate(-991.511 -76.531)"/>
        <path id="Trazado_102521" data-name="Trazado 102521" d="M1000.725,101.546c-.291,1.341-1.148,1.609-2.344,1.238-.382-.3-1-.5-.685-1.153a1.026,1.026,0,0,1,1.177-.428C999.494,101.292,1000.108,101.43,1000.725,101.546Z" transform="translate(-985.488 -78.257)"/>
        <path id="Trazado_102522" data-name="Trazado 102522" d="M992.362,109.618c.471.223,1.388-.39,1.375.576-.01.715-.927.888-1.446,1.082-.359.134-.833-.561-.834-1.126C991.456,109.522,991.827,109.383,992.362,109.618Z" transform="translate(-984.055 -80.198)"/>
        <path id="Trazado_102523" data-name="Trazado 102523" d="M1004.186,100.435a1.82,1.82,0,0,1,.059.323,14.376,14.376,0,0,1-5.383-.924C1000.728,99.37,1002.4,100.368,1004.186,100.435Z" transform="translate(-985.779 -77.915)"/>
        <path id="Trazado_102524" data-name="Trazado 102524" d="M988.591,101.093h6.077l-.007.256H988.58Z" transform="translate(-983.384 -78.237)"/>
        <path id="Trazado_102525" data-name="Trazado 102525" d="M1025.326,87.4c-.49-.2-.839-.492-.69-1.053.135-.505.273-1.112.991-.977.592.111.605.651.532,1.112S1025.874,87.361,1025.326,87.4Z" transform="translate(-991.776 -74.571)"/>
        <path id="Trazado_102526" data-name="Trazado 102526" d="M1037.512,92.777c-.765.036-1.62.452-2.156-.346-.084-.126.185-.687.407-.788C1036.786,91.184,1036.967,92.258,1037.512,92.777Z" transform="translate(-994.277 -76.01)"/>
      </g>
      <g id="Grupo_54864" data-name="Grupo 54864" transform="translate(7.672 166.449)">
        <path id="Trazado_102527" data-name="Trazado 102527" d="M812.794,284.115c1.7-2.5,3.853-4.035,7.065-3.333.5.11.64-.341.883-.623.806-1.9,1.194-3.939,2.032-5.825a4.681,4.681,0,0,1,1.117-1.794q1.547-4.045,3.092-8.092c.188-.492.28-1.043,1.073-.69.769.342.448.792.253,1.277q-2.437,6.04-4.862,12.084c-.469,1.174-.81,2.4-1.341,3.548-.548,1.182.829,1.309,1.045,2.26-1.274-.28-2.047.934-3.232.911-.916-.018-.358.515-.42.89-.189,1.13-.684,2.052-2.059,1.376A4.746,4.746,0,0,0,814,285.71C812.912,285.7,812.427,285.231,812.794,284.115Z" transform="translate(-793.949 -263.646)"/>
        <path id="Trazado_102528" data-name="Trazado 102528" d="M813.6,294.221c.947.443,1.845.66,2.693-.257.911-.987,1.622-.067,2.148.456.959.952,2.035.753,2.527-.077.839-1.416,1.362-.716,2.068-.051.284.267.605.493.91.739.223,1.347-.689,1.882-1.685,2.358-3.469,2.071-6.307,1.7-8.694-1.127a1.912,1.912,0,0,1-1.009-1.433C812.661,294.216,812.927,293.87,813.6,294.221Z" transform="translate(-793.921 -270.605)"/>
        <path id="Trazado_102529" data-name="Trazado 102529" d="M828.426,286.066c.051-1.877-1.358.07-1.756-.694.42-.946,1.41-1.865,2.1-1.866a4.376,4.376,0,0,0,2.712-.443l-.593,1.484,9.546-5.926c.615,1.243-.367,1.484-.995,1.833-3.686,2.047-7.393,4.059-11.094,6.083A.293.293,0,0,1,828.426,286.066Z" transform="translate(-797.209 -267.134)"/>
        <path id="Trazado_102530" data-name="Trazado 102530" d="M804.867,296.661c1.2-.494,2.839.309,3.686-1.24l.675,1.284-7.675,3.79c1.058-1.5,2.856-1.78,4.424-2.873a7.369,7.369,0,0,1-2.633-.12c-.281-.12-1.175-.311-.684.7.173.358-.34.692-.582.545-2.506-1.515-4.753.442-7.133.471a5.048,5.048,0,0,1-.994-.363C797.856,297.843,801.357,297.23,804.867,296.661Z" transform="translate(-789.587 -271.048)"/>
        <path id="Trazado_102531" data-name="Trazado 102531" d="M826.187,274.263c-.927,2.59-1.573,5.3-3.149,7.619.269-2.679,1.26-5.192,1.976-8.046l-1.518,1.21c-.24-.9-1.8-1.434-.368-2.625,1.036-.859,1.578-.335,2.038.641.435-.68.333-1.5,1.02-2.022C827.2,272.227,825.211,273.232,826.187,274.263Z" transform="translate(-796.245 -265.368)"/>
        <path id="Trazado_102532" data-name="Trazado 102532" d="M832.427,296.4c1.572.189,3.155.311,4.708.6.587.109,1.781-.239,1.614.874-.173,1.151-1.123.38-1.737.314-.646-.07-1.284-.221-1.926-.337-.13,1.945-1.661.593-2.451,1.055.255.8,1.416.548,1.769,1.718l-2.728-1.445a1.272,1.272,0,0,1-1.191-1.784C830.728,296.8,831.279,295.726,832.427,296.4Z" transform="translate(-798.072 -271.226)"/>
        <path id="Trazado_102533" data-name="Trazado 102533" d="M842.927,289.7q7.61-1.136,15.221-2.263c.469-.068,1.18-.476,1.356.22.2.787-.616.68-1.081.734-4.9.58-9.8,1.137-14.7,1.7C843.36,290.159,842.883,290.457,842.927,289.7Z" transform="translate(-800.996 -269.145)"/>
        <path id="Trazado_102534" data-name="Trazado 102534" d="M837.305,287.734l17.239-3.852.158.715c-5.505,1.424-11.125,2.356-16.7,3.483C837.654,288.2,837.228,288.475,837.305,287.734Z" transform="translate(-799.685 -268.36)"/>
        <path id="Trazado_102535" data-name="Trazado 102535" d="M833.886,278.969c1.443-1.57,4.282-4.664,7.129-7.75.265-.286.592-.606.99-.18.448.48-.079.68-.327.905C838.575,274.755,835.46,277.553,833.886,278.969Z" transform="translate(-798.89 -265.32)"/>
        <path id="Trazado_102536" data-name="Trazado 102536" d="M852.116,277a3.558,3.558,0,0,1,1.235,3.6c-.957-.094-1.756-1.412-2.845-.223-.268.292-1-.172-1.056-.8-.051-.568.179-1.155.832-1.079C851.407,278.631,851.711,277.845,852.116,277Z" transform="translate(-802.514 -266.756)"/>
        <path id="Trazado_102537" data-name="Trazado 102537" d="M839.91,292.325c.584.614,2.264-.1,1.948,1.6-.647.966-1.568.562-2.423.487-.13-.025-.294-.008-.383-.081-.627-.518-1.937.67-2.112-.73-.137-1.1,1.249-.693,1.672-1.323A1.34,1.34,0,0,1,839.91,292.325Z" transform="translate(-799.599 -270.282)"/>
        <path id="Trazado_102538" data-name="Trazado 102538" d="M798.387,296.193l.73.375-10.793,1.213-.063-.5a45.737,45.737,0,0,1,6.278-.712c.362-.018,1.17.454.866-.747-.148-.587.726-.96,1.462-.519C797.372,295.606,797.881,295.9,798.387,296.193Z" transform="translate(-788.262 -270.976)"/>
        <path id="Trazado_102539" data-name="Trazado 102539" d="M840.2,294.961c.8-.209,1.7.084,2.423-.487,2.438.739,4.943.2,7.41.384,1.667.125,3.376-.214,5.031.789a28.359,28.359,0,0,1-2.878-.015c-3.613-.373-7.235-.382-10.86-.4A4.977,4.977,0,0,1,840.2,294.961Z" transform="translate(-800.36 -270.827)"/>
        <path id="Trazado_102540" data-name="Trazado 102540" d="M809.854,301.7c-2.392-.707-3.216,1.683-4.842,2.513-.6.3-1.254,1.482-1.7.859-.619-.871.75-1.091,1.267-1.5,1.49-1.187,3.1-2.229,4.634-3.357.505-.37.82-.4,1.265.141.225.276.717.354.549.856C810.84,301.765,810.36,301.753,809.854,301.7Z" transform="translate(-791.732 -272.099)"/>
        <path id="Trazado_102541" data-name="Trazado 102541" d="M828.411,300.127a2.209,2.209,0,0,1,2.417.314l4,2.58-.292.449C832.489,302.361,829.98,302.163,828.411,300.127Z" transform="translate(-797.615 -272.09)"/>
        <path id="Trazado_102542" data-name="Trazado 102542" d="M838.611,291.93l-1.3-.044c-1.918-.951-3.841.69-5.96-.179l8.879-1.269.8.392c-.748.535-1.634.231-2.436.4C837.716,291.423,838.626,291.691,838.611,291.93Z" transform="translate(-798.3 -269.887)"/>
        <path id="Trazado_102543" data-name="Trazado 102543" d="M826.674,280.908q1.617-2.842,3.232-5.685c.18-.316.433-.566.773-.387.393.209.187.567.014.831q-1.8,2.745-3.619,5.478Z" transform="translate(-797.21 -266.239)"/>
        <path id="Trazado_102544" data-name="Trazado 102544" d="M829.922,289.017a1.782,1.782,0,0,0,.067-.36l6.261-2.539.261.651A35.7,35.7,0,0,1,829.922,289.017Z" transform="translate(-797.967 -268.88)"/>
        <path id="Trazado_102545" data-name="Trazado 102545" d="M807.181,293.9c-.291,1.341-1.148,1.609-2.344,1.238-.382-.3-1-.5-.685-1.153a1.026,1.026,0,0,1,1.177-.428C805.95,293.642,806.564,293.779,807.181,293.9Z" transform="translate(-791.944 -270.607)"/>
        <path id="Trazado_102546" data-name="Trazado 102546" d="M798.819,301.968c.471.223,1.388-.39,1.375.575-.01.715-.927.889-1.446,1.082-.359.134-.833-.561-.834-1.127C797.912,301.872,798.283,301.733,798.819,301.968Z" transform="translate(-790.511 -272.548)"/>
        <path id="Trazado_102547" data-name="Trazado 102547" d="M810.642,292.784a1.866,1.866,0,0,1,.059.323,14.361,14.361,0,0,1-5.383-.924C807.184,291.72,808.852,292.718,810.642,292.784Z" transform="translate(-792.235 -270.265)"/>
        <path id="Trazado_102548" data-name="Trazado 102548" d="M795.047,293.443h6.077l-.008.256h-6.081Z" transform="translate(-789.84 -270.587)"/>
        <path id="Trazado_102549" data-name="Trazado 102549" d="M831.782,279.753c-.49-.2-.84-.493-.69-1.053.135-.505.273-1.113.991-.978.591.111.605.652.532,1.113S832.33,279.711,831.782,279.753Z" transform="translate(-798.231 -266.92)"/>
        <path id="Trazado_102550" data-name="Trazado 102550" d="M843.968,285.126c-.765.036-1.62.452-2.155-.346-.084-.126.185-.687.407-.788C843.242,283.533,843.423,284.607,843.968,285.126Z" transform="translate(-800.733 -268.359)"/>
      </g>
      <path id="Trazado_102551" data-name="Trazado 102551" d="M1194.263,88.222l3.332,2.8a16.5,16.5,0,0,0-.749-10.649c2.421.281,3.071,2.436,4.43,4.137.84-3.861,1.641-7.491.17-11.2l.332-.21,3.56,3.482c.212-1.345.485-2.581.583-3.831.149-1.891.133-3.795.276-5.685a4.02,4.02,0,0,1,.771-1.81c.623,5.385,4.459,9.462,5.536,14.605l.369-.056c-.225-1.895-.449-3.789-.68-5.747a4.393,4.393,0,0,1,2.827,2.253,17.325,17.325,0,0,1,2.3,8.014c.069.94.012,1.89.144,2.859,1.39-1.4.937-3.314,1.366-5.2a7.381,7.381,0,0,1,2.661,5.219c.188,1.908.041,3.849.041,5.765l.5-.778c.1.051.22.089.219.12a58.613,58.613,0,0,1-.423,8c-.6,3.288-4.337,6.3-7.665,6.719a11.647,11.647,0,0,1-2.581.245,8.082,8.082,0,0,1-2.121-.956,12.018,12.018,0,0,0,5.762-7.9l-1.984,1.76,1.3-6.058-.233-.01-3.208,4.858-.423-.123a8.645,8.645,0,0,1,.4-2.431c1.411-2.922.386-5.432-1.209-8.252-.163,1.891-.218,3.464-.456,5.009s-.655,3.038-1.075,4.917l-2.435-4.947a6.168,6.168,0,0,0-.569,4.529c.307,1.471.828,2.9,1.288,4.455-3.05-1.194-3.751-3.833-4.386-6.577a14.29,14.29,0,0,0-.224,6.378,5.814,5.814,0,0,0,3.757,4.767c-.07.228-.079.361-.12.371-4.373,1.167-7.878-.7-9.009-5.02-.552-2.1-.675-4.315-1.04-6.471C1195.213,93.262,1194.767,90.969,1194.263,88.222Zm13.187-15.955c.033,3.869-.62,7.509.25,11.231C1209.733,81.241,1209.622,74.991,1207.45,72.267Z" transform="translate(-875.168 -50.98)"/>
      <path id="Trazado_102552" data-name="Trazado 102552" d="M1303,86.372c3.993,4.808,7.906,9.52,11.822,14.232.56.673,1.134,1.337,1.688,2.015,1.4,1.71,1.357,3.446-.1,4.639-1.332,1.091-3.137.809-4.458-.767q-5.856-6.991-11.677-14.011c-.348-.418-.72-.816-1.2-1.356-1.619,1.923-3.2,3.782-4.759,5.654q-4,4.794-7.982,9.6c-1.388,1.668-3.182,2.007-4.579.874s-1.448-2.987-.072-4.646q6.187-7.463,12.4-14.908c.344-.413.66-.848,1.064-1.368L1286.715,76.2c-1.716-2.064-3.441-4.119-5.141-6.2-1.286-1.572-1.192-3.377.193-4.512,1.334-1.093,3.049-.893,4.345.644,3.953,4.69,7.864,9.416,11.794,14.127.348.417.717.818,1.2,1.368.608-.713,1.169-1.36,1.718-2.018q5.628-6.754,11.252-13.512c.839-1.007,1.966-1.672,3.167-1.1a3.968,3.968,0,0,1,2.087,2.194,4,4,0,0,1-.9,2.923C1312.063,75.532,1307.584,80.852,1303,86.372Z" transform="translate(-895.296 -50.874)"/>
      <path id="Trazado_102553" data-name="Trazado 102553" d="M822.723,571.427l11.822,14.232c.56.674,1.134,1.337,1.688,2.016,1.4,1.71,1.357,3.445-.1,4.638-1.332,1.091-3.138.809-4.458-.767q-5.857-6.991-11.678-14.011c-.348-.418-.72-.815-1.2-1.356-1.619,1.923-3.2,3.782-4.759,5.654q-4,4.795-7.982,9.6c-1.389,1.669-3.184,2.007-4.58.875s-1.446-2.986-.07-4.646q6.187-7.463,12.4-14.908c.343-.413.66-.848,1.064-1.368l-8.424-10.134c-1.716-2.064-3.443-4.118-5.142-6.2-1.286-1.572-1.193-3.377.193-4.512,1.334-1.093,3.049-.893,4.345.643,3.953,4.69,7.864,9.416,11.794,14.127.348.417.716.818,1.2,1.368.608-.713,1.171-1.36,1.719-2.018q5.628-6.754,11.251-13.512c.839-1.007,1.966-1.672,3.168-1.1a3.013,3.013,0,0,1,1.188,5.117C831.787,560.587,827.308,565.908,822.723,571.427Z" transform="translate(-783.416 -163.867)"/>
      <g id="Grupo_54865" data-name="Grupo 54865" transform="translate(237.169 18.66)">
        <path id="Trazado_102554" data-name="Trazado 102554" d="M1123.971,83.556c-.112,1.2-.2,2.4-.339,3.591a8.941,8.941,0,0,0,.519,5.058c1.278,2.771-.25,5.047-3.317,5.385a4.741,4.741,0,0,1-1.2.068c-1.1-.166-1.3.482-1.3,1.345.005.713.03,1.424.042,2.136.019,1.106-.077,2.049-1.511,2.3a24.524,24.524,0,0,0-2.833,1.018,8.391,8.391,0,0,1-6.08-.536,17.28,17.28,0,0,1-2.311-1.3,1.2,1.2,0,0,1-.372-.765,9.515,9.515,0,0,1,.021-1.059c-.042-1.059.267-2.406-.266-3.092-.5-.64-1.907-.549-2.9-.83a3.792,3.792,0,0,1-2.485-5.694,8.143,8.143,0,0,0,.573-4.388,31.014,31.014,0,0,1-.058-6.126c.715-5.2,4.24-8.458,9.513-8.817a22.057,22.057,0,0,1,6.221.411C1121.33,73.473,1124.2,77.647,1123.971,83.556Zm-14,8.632a3.78,3.78,0,0,0-3.6-4.021,3.622,3.622,0,0,0-3.395,3.755A3.818,3.818,0,0,0,1106.527,96,3.566,3.566,0,0,0,1109.974,92.188Zm6.482-4.074a3.59,3.59,0,0,0-3.432,3.838,3.807,3.807,0,0,0,3.5,3.995,3.65,3.65,0,0,0,3.519-3.782A3.836,3.836,0,0,0,1116.456,88.114ZM1113.1,99.472c-.2-1.266-.335-2.547-.613-3.8-.237-1.068-.916-.894-1.572-.348a4.188,4.188,0,0,0-.954,3.581c.136.316.592.493.9.734C1111.4,98.489,1112.021,99.766,1113.1,99.472Z" transform="translate(-1090.174 -71.164)"/>
        <path id="Trazado_102555" data-name="Trazado 102555" d="M1095.407,100.392l1.219,2.9a11.836,11.836,0,0,1-1,.684,4.009,4.009,0,0,0-2.162,2.8,3.7,3.7,0,0,1-1.876,2,2.675,2.675,0,0,1-2.217-.143c-.4-.232-.38-1.194-.619-2.1-.614-.251-1.62-.621-1.2-2,.4-1.3,1.848-2.742,2.974-2.424,1.761.5,2.844-.469,4.076-1.283C1094.857,100.66,1095.135,100.538,1095.407,100.392Z" transform="translate(-1087.457 -77.827)"/>
        <path id="Trazado_102556" data-name="Trazado 102556" d="M1096.5,80.508c-.568-.364-1.037-.621-1.455-.94a3.736,3.736,0,0,0-3.9-.838c-1.506.548-3.742-1.544-3.466-3.125.1-.554.77-1.007,1.189-1.517.176-.615.219-1.79.615-1.925a3.908,3.908,0,0,1,2.622.184,2.794,2.794,0,0,1,1.471,1.735,3.756,3.756,0,0,0,2.35,2.828c1.128.544,1.483,1.25.9,2.4A6.95,6.95,0,0,0,1096.5,80.508Z" transform="translate(-1087.503 -71.216)"/>
        <path id="Trazado_102557" data-name="Trazado 102557" d="M1132.2,79.449l-1.078-3.093c.374-.259.751-.564,1.166-.8a3.525,3.525,0,0,0,2.1-2.679,2.523,2.523,0,0,1,1.381-1.632,3.579,3.579,0,0,1,2.486-.085c.434.176.51,1.232.855,2.193,1.168.735,1.42,1.269.905,2.44a2.756,2.756,0,0,1-3.412,1.763,1.985,1.985,0,0,0-2.078.327C1133.829,78.421,1133.063,78.874,1132.2,79.449Z" transform="translate(-1097.629 -70.974)"/>
        <path id="Trazado_102558" data-name="Trazado 102558" d="M1140.24,107.441c-.261.756-.346,1.882-.763,2.021a4.805,4.805,0,0,1-2.616-.18,1.694,1.694,0,0,1-1.052-1.1c-.279-2.152-1.69-3.305-3.524-4.169l.977-2.613c.5.317.96.579,1.389.884a3.1,3.1,0,0,0,3.268.669c1.473-.571,3.69,1.425,3.442,2.984C1141.268,106.523,1140.574,107.016,1140.24,107.441Z" transform="translate(-1097.899 -78.061)"/>
      </g>
      <g id="Grupo_54866" data-name="Grupo 54866" transform="translate(19.064 242.722)">
        <path id="Trazado_102559" data-name="Trazado 102559" d="M839.628,375.664c-.111,1.2-.2,2.4-.338,3.591a8.93,8.93,0,0,0,.519,5.058c1.278,2.771-.25,5.047-3.316,5.385a4.751,4.751,0,0,1-1.2.069c-1.1-.166-1.3.482-1.3,1.345.006.712.031,1.423.043,2.136.019,1.105-.077,2.048-1.511,2.3a24.536,24.536,0,0,0-2.833,1.018,8.392,8.392,0,0,1-6.08-.535,17.233,17.233,0,0,1-2.31-1.3,1.192,1.192,0,0,1-.371-.765,8.988,8.988,0,0,1,.02-1.059c-.042-1.059.267-2.406-.267-3.092-.5-.64-1.908-.548-2.9-.83a3.792,3.792,0,0,1-2.485-5.694,8.124,8.124,0,0,0,.574-4.388,31.052,31.052,0,0,1-.058-6.126c.716-5.2,4.241-8.458,9.515-8.817a22.042,22.042,0,0,1,6.22.412C836.988,365.581,839.852,369.755,839.628,375.664Zm-14,8.632a3.78,3.78,0,0,0-3.6-4.022,3.622,3.622,0,0,0-3.394,3.756,3.816,3.816,0,0,0,3.543,4.076A3.564,3.564,0,0,0,825.631,384.3Zm6.482-4.074a3.59,3.59,0,0,0-3.431,3.837,3.807,3.807,0,0,0,3.5,4,3.651,3.651,0,0,0,3.52-3.782A3.837,3.837,0,0,0,832.113,380.222Zm-3.351,11.358c-.2-1.266-.335-2.547-.613-3.8-.238-1.068-.916-.894-1.573-.348a4.194,4.194,0,0,0-.954,3.582c.136.315.593.493.9.734C827.06,390.6,827.678,391.874,828.762,391.58Z" transform="translate(-805.831 -363.272)"/>
        <path id="Trazado_102560" data-name="Trazado 102560" d="M811.064,392.5l1.218,2.9a11.425,11.425,0,0,1-1,.684,4.009,4.009,0,0,0-2.161,2.8,3.7,3.7,0,0,1-1.877,2,2.673,2.673,0,0,1-2.218-.143c-.4-.231-.379-1.194-.618-2.1-.614-.251-1.621-.621-1.2-2,.4-1.3,1.848-2.741,2.974-2.424,1.761.5,2.843-.469,4.075-1.283C810.514,392.769,810.792,392.646,811.064,392.5Z" transform="translate(-803.114 -369.935)"/>
        <path id="Trazado_102561" data-name="Trazado 102561" d="M812.16,372.616c-.569-.364-1.036-.62-1.456-.94a3.735,3.735,0,0,0-3.9-.838c-1.506.548-3.742-1.544-3.466-3.124.1-.555.77-1.008,1.189-1.518.176-.615.22-1.79.615-1.924a3.915,3.915,0,0,1,2.623.185,2.8,2.8,0,0,1,1.471,1.735,3.753,3.753,0,0,0,2.349,2.827c1.128.545,1.484,1.25.906,2.4A6.9,6.9,0,0,0,812.16,372.616Z" transform="translate(-803.16 -363.325)"/>
        <path id="Trazado_102562" data-name="Trazado 102562" d="M847.857,371.557l-1.078-3.093c.373-.259.751-.563,1.166-.8a3.524,3.524,0,0,0,2.1-2.679,2.528,2.528,0,0,1,1.382-1.631,3.58,3.58,0,0,1,2.487-.085c.433.176.509,1.232.854,2.193,1.169.735,1.42,1.27.906,2.44a2.757,2.757,0,0,1-3.412,1.763,1.985,1.985,0,0,0-2.078.326C849.487,370.529,848.721,370.983,847.857,371.557Z" transform="translate(-813.286 -363.082)"/>
        <path id="Trazado_102563" data-name="Trazado 102563" d="M855.9,399.549c-.261.755-.347,1.882-.764,2.021a4.8,4.8,0,0,1-2.616-.18,1.7,1.7,0,0,1-1.052-1.1c-.28-2.152-1.689-3.306-3.524-4.17l.977-2.613c.5.316.96.579,1.388.884a3.1,3.1,0,0,0,3.268.669c1.474-.571,3.69,1.426,3.443,2.984C856.926,398.632,856.231,399.124,855.9,399.549Z" transform="translate(-813.557 -370.17)"/>
      </g>
      <path id="Trazado_102564" data-name="Trazado 102564" d="M809.614,473.845l3.332,2.8a16.5,16.5,0,0,0-.75-10.648c2.421.28,3.071,2.435,4.431,4.136.841-3.861,1.642-7.491.17-11.2l.332-.21,3.56,3.482c.212-1.345.485-2.581.584-3.831.149-1.891.133-3.795.276-5.686a4.011,4.011,0,0,1,.771-1.81c.622,5.385,4.459,9.462,5.536,14.605l.369-.056c-.224-1.895-.448-3.789-.68-5.747a4.4,4.4,0,0,1,2.827,2.253,17.338,17.338,0,0,1,2.3,8.014c.069.94.012,1.89.145,2.859,1.389-1.4.936-3.314,1.365-5.2a7.386,7.386,0,0,1,2.662,5.219c.187,1.908.041,3.849.041,5.765l.5-.778c.1.052.221.089.219.12a58.5,58.5,0,0,1-.423,8c-.6,3.288-4.337,6.3-7.664,6.719a11.653,11.653,0,0,1-2.582.245,8.089,8.089,0,0,1-2.121-.956,12.017,12.017,0,0,0,5.763-7.9l-1.984,1.76,1.3-6.058-.233-.01-3.209,4.858-.423-.123a8.637,8.637,0,0,1,.4-2.431c1.41-2.922.386-5.432-1.209-8.252-.163,1.891-.218,3.464-.456,5.009s-.655,3.038-1.075,4.917l-2.435-4.948a6.169,6.169,0,0,0-.57,4.529c.308,1.471.828,2.9,1.289,4.455-3.05-1.193-3.751-3.833-4.385-6.577a14.294,14.294,0,0,0-.224,6.378,5.815,5.815,0,0,0,3.757,4.767c-.071.228-.079.36-.12.371-4.372,1.167-7.878-.7-9.009-5.019-.552-2.1-.675-4.316-1.04-6.471C810.564,478.886,810.118,476.592,809.614,473.845ZM822.8,457.89c.032,3.869-.62,7.509.249,11.231C825.084,466.864,824.973,460.614,822.8,457.89Z" transform="translate(-785.564 -140.811)"/>
      <g id="Grupo_54872" data-name="Grupo 54872" transform="translate(73.656)">
        <g id="Grupo_54867" data-name="Grupo 54867" transform="translate(295.771)">
          <rect id="Rectángulo_5529" data-name="Rectángulo 5529" width="0.458" height="442.514"/>
        </g>
        <g id="Grupo_54868" data-name="Grupo 54868" transform="translate(223.375 0.226)">
          <rect id="Rectángulo_5530" data-name="Rectángulo 5530" width="0.458" height="442.514"/>
        </g>
        <g id="Grupo_54869" data-name="Grupo 54869" transform="translate(148.229 0.226)">
          <rect id="Rectángulo_5531" data-name="Rectángulo 5531" width="0.458" height="442.514"/>
        </g>
        <g id="Grupo_54870" data-name="Grupo 54870" transform="translate(74.458 0.226)">
          <rect id="Rectángulo_5532" data-name="Rectángulo 5532" width="0.458" height="442.514"/>
        </g>
        <g id="Grupo_54871" data-name="Grupo 54871" transform="translate(0 221.539)">
          <rect id="Rectángulo_5533" data-name="Rectángulo 5533" width="0.586" height="221.43"/>
        </g>
      </g>
      <line id="Línea_195" data-name="Línea 195" y2="442.625" transform="translate(444 0.115)" fill="none" stroke="#000" stroke-miterlimit="10" stroke-width="1"/>
      <g id="Grupo_54877" data-name="Grupo 54877" transform="translate(0 147.656)">
        <g id="Grupo_54873" data-name="Grupo 54873">
          <rect id="Rectángulo_5534" data-name="Rectángulo 5534" width="443.544" height="0.458"/>
        </g>
        <g id="Grupo_54874" data-name="Grupo 54874" transform="translate(0.227 72.396)">
          <rect id="Rectángulo_5535" data-name="Rectángulo 5535" width="443.544" height="0.458"/>
        </g>
        <g id="Grupo_54875" data-name="Grupo 54875" transform="translate(0.227 147.542)">
          <rect id="Rectángulo_5536" data-name="Rectángulo 5536" width="443.544" height="0.458"/>
        </g>
        <g id="Grupo_54876" data-name="Grupo 54876" transform="translate(0.227 221.313)">
          <rect id="Rectángulo_5537" data-name="Rectángulo 5537" width="443.544" height="0.458"/>
        </g>
      </g>
      <line id="Línea_196" data-name="Línea 196" x2="443.542" transform="translate(0.229 442.969)" fill="none" stroke="#000" stroke-miterlimit="10" stroke-width="1"/>
      <g id="Grupo_54878" data-name="Grupo 54878" transform="translate(101.738 101.505)">
        <path id="Trazado_102565" data-name="Trazado 102565" d="M917.474,196.536v-6.527H910.9v-4.5h6.578v-6.526h4.384V185.5h6.6v4.5h-6.6v6.527Z" transform="translate(-910.896 -178.978)"/>
      </g>
      <g id="Grupo_54879" data-name="Grupo 54879" transform="translate(175.738 173.302)">
        <path id="Trazado_102566" data-name="Trazado 102566" d="M1013.947,290.138v-6.526h-6.578v-4.506h6.578V272.58h4.384v6.526h6.594v4.506h-6.594v6.526Z" transform="translate(-1007.369 -272.58)"/>
      </g>
      <g id="Grupo_54880" data-name="Grupo 54880" transform="translate(397.524 101.505)">
        <path id="Trazado_102567" data-name="Trazado 102567" d="M1303.089,196.536v-6.527h-6.578v-4.5h6.578v-6.526h4.385V185.5h6.595v4.5h-6.595v6.527Z" transform="translate(-1296.511 -178.978)"/>
      </g>
      <g id="Grupo_54881" data-name="Grupo 54881" transform="translate(327.351 107.877)">
        <path id="Trazado_102568" data-name="Trazado 102568" d="M1205.027,192.1v-4.813h13.478V192.1Z" transform="translate(-1205.027 -187.285)"/>
      </g>
      <g id="Grupo_54882" data-name="Grupo 54882" transform="translate(252.969 107.877)">
        <path id="Trazado_102569" data-name="Trazado 102569" d="M1108.055,192.1v-4.813h13.478V192.1Z" transform="translate(-1108.055 -187.285)"/>
      </g>
      <g id="Grupo_54883" data-name="Grupo 54883" transform="translate(177.777 107.877)">
        <path id="Trazado_102570" data-name="Trazado 102570" d="M1010.028,192.1v-4.813h13.478V192.1Z" transform="translate(-1010.028 -187.285)"/>
      </g>
      <g id="Grupo_54884" data-name="Grupo 54884" transform="translate(103.778 179.756)">
        <path id="Trazado_102571" data-name="Trazado 102571" d="M913.555,285.807v-4.814h13.478v4.814Z" transform="translate(-913.555 -280.993)"/>
      </g>
      <g id="Grupo_54885" data-name="Grupo 54885" transform="translate(252.969 179.756)">
        <path id="Trazado_102572" data-name="Trazado 102572" d="M1108.055,285.807v-4.814h13.478v4.814Z" transform="translate(-1108.055 -280.993)"/>
      </g>
      <g id="Grupo_54886" data-name="Grupo 54886" transform="translate(327.351 179.756)">
        <path id="Trazado_102573" data-name="Trazado 102573" d="M1205.027,285.807v-4.814h13.478v4.814Z" transform="translate(-1205.027 -280.993)"/>
      </g>
      <g id="Grupo_54887" data-name="Grupo 54887" transform="translate(399.564 179.756)">
        <path id="Trazado_102574" data-name="Trazado 102574" d="M1299.17,285.807v-4.814h13.479v4.814Z" transform="translate(-1299.17 -280.993)"/>
      </g>
      <g id="Grupo_54888" data-name="Grupo 54888" transform="translate(327.351 253.86)">
        <path id="Trazado_102575" data-name="Trazado 102575" d="M1205.027,382.417V377.6h13.478v4.814Z" transform="translate(-1205.027 -377.603)"/>
      </g>
      <g id="Grupo_54889" data-name="Grupo 54889" transform="translate(252.969 330.014)">
        <path id="Trazado_102576" data-name="Trazado 102576" d="M1108.055,481.7v-4.814h13.478V481.7Z" transform="translate(-1108.055 -476.884)"/>
      </g>
      <g id="Grupo_54890" data-name="Grupo 54890" transform="translate(177.777 400.728)">
        <path id="Trazado_102577" data-name="Trazado 102577" d="M1010.028,573.888v-4.814h13.478v4.814Z" transform="translate(-1010.028 -569.074)"/>
      </g>
      <g id="Grupo_54891" data-name="Grupo 54891" transform="translate(177.777 253.86)">
        <path id="Trazado_102578" data-name="Trazado 102578" d="M1010.028,382.417V377.6h13.478v4.814Z" transform="translate(-1010.028 -377.603)"/>
      </g>
      <g id="Grupo_54892" data-name="Grupo 54892" transform="translate(103.778 253.86)">
        <path id="Trazado_102579" data-name="Trazado 102579" d="M913.555,382.417V377.6h13.478v4.814Z" transform="translate(-913.555 -377.603)"/>
      </g>
      <g id="Grupo_54893" data-name="Grupo 54893" transform="translate(177.777 330.014)">
        <path id="Trazado_102580" data-name="Trazado 102580" d="M1010.028,481.7v-4.814h13.478V481.7Z" transform="translate(-1010.028 -476.884)"/>
      </g>
      <g id="Grupo_54894" data-name="Grupo 54894" transform="translate(103.778 330.014)">
        <path id="Trazado_102581" data-name="Trazado 102581" d="M913.555,481.7v-4.814h13.478V481.7Z" transform="translate(-913.555 -476.884)"/>
      </g>
      <g id="Grupo_54895" data-name="Grupo 54895" transform="translate(250.929 247.488)">
        <path id="Trazado_102582" data-name="Trazado 102582" d="M1111.974,386.854v-6.526H1105.4v-4.5h6.578V369.3h4.385v6.527h6.6v4.5h-6.6v6.526Z" transform="translate(-1105.396 -369.296)"/>
      </g>
      <g id="Grupo_54896" data-name="Grupo 54896" transform="translate(325.312 323.642)">
        <path id="Trazado_102583" data-name="Trazado 102583" d="M1208.946,486.135v-6.526h-6.578v-4.5h6.578v-6.527h4.385V475.1h6.595v4.5h-6.595v6.526Z" transform="translate(-1202.368 -468.577)"/>
      </g>
      <g id="Grupo_54897" data-name="Grupo 54897" transform="translate(398.15 319.6)">
        <path id="Trazado_102584" data-name="Trazado 102584" d="M1305.48,463.307a6.861,6.861,0,0,1,5.7,2.6q2.45,3.083,2.449,10.226,0,7.126-2.466,10.244a6.851,6.851,0,0,1-5.687,2.569,7.185,7.185,0,0,1-5.909-2.817q-2.245-2.818-2.245-10.046,0-7.092,2.467-10.209A6.85,6.85,0,0,1,1305.48,463.307Zm0,3.992a2.4,2.4,0,0,0-1.559.556,3.741,3.741,0,0,0-1.062,2,40.766,40.766,0,0,0-.052,12.358,4.274,4.274,0,0,0,1.122,2.2,2.464,2.464,0,0,0,3.109-.009,3.74,3.74,0,0,0,1.063-2,40.732,40.732,0,0,0,.05-12.342,4.337,4.337,0,0,0-1.121-2.21A2.372,2.372,0,0,0,1305.48,467.3Z" transform="translate(-1297.326 -463.307)"/>
      </g>
      <g id="Grupo_54898" data-name="Grupo 54898" transform="translate(325.937 390.314)">
        <path id="Trazado_102585" data-name="Trazado 102585" d="M1211.337,555.5a6.865,6.865,0,0,1,5.7,2.6q2.448,3.084,2.449,10.226,0,7.126-2.467,10.243a6.851,6.851,0,0,1-5.686,2.57,7.186,7.186,0,0,1-5.91-2.818q-2.245-2.818-2.244-10.046,0-7.091,2.467-10.209A6.846,6.846,0,0,1,1211.337,555.5Zm0,3.991a2.4,2.4,0,0,0-1.559.557,3.732,3.732,0,0,0-1.062,2,40.735,40.735,0,0,0-.051,12.358,4.257,4.257,0,0,0,1.121,2.2,2.465,2.465,0,0,0,3.109-.008,3.738,3.738,0,0,0,1.063-2,40.664,40.664,0,0,0,.051-12.341,4.337,4.337,0,0,0-1.122-2.21A2.371,2.371,0,0,0,1211.337,559.488Z" transform="translate(-1203.183 -555.497)"/>
      </g>
      <g id="Grupo_54899" data-name="Grupo 54899" transform="translate(397.524 247.488)">
        <path id="Trazado_102586" data-name="Trazado 102586" d="M1303.089,386.854v-6.526h-6.578v-4.5h6.578V369.3h4.385v6.527h6.595v4.5h-6.595v6.526Z" transform="translate(-1296.511 -369.296)"/>
      </g>
      <g id="Grupo_54900" data-name="Grupo 54900" transform="translate(250.929 394.357)">
        <path id="Trazado_102587" data-name="Trazado 102587" d="M1111.974,578.325V571.8H1105.4v-4.506h6.578v-6.526h4.385v6.526h6.6V571.8h-6.6v6.526Z" transform="translate(-1105.396 -560.767)"/>
      </g>
      <g id="Grupo_54901" data-name="Grupo 54901" transform="translate(101.738 394.357)">
        <path id="Trazado_102588" data-name="Trazado 102588" d="M917.474,578.325V571.8H910.9v-4.506h6.578v-6.526h4.384v6.526h6.6V571.8h-6.6v6.526Z" transform="translate(-910.896 -560.767)"/>
      </g>
      <g id="Grupo_54902" data-name="Grupo 54902" transform="translate(397.524 394.357)">
        <path id="Trazado_102589" data-name="Trazado 102589" d="M1303.089,578.325V571.8h-6.578v-4.506h6.578v-6.526h4.385v6.526h6.595V571.8h-6.595v6.526Z" transform="translate(-1296.511 -560.767)"/>
      </g>
    </g>
    <g id="Grupo_54935" data-name="Grupo 54935" transform="translate(250 7519.283)">
      <g id="Grupo_54847" data-name="Grupo 54847" transform="translate(71.722 0.061)">
        <rect id="Rectángulo_5523" data-name="Rectángulo 5523" width="0.471" height="311.19" transform="translate(0)"/>
      </g>
      <g id="Grupo_54851" data-name="Grupo 54851" transform="translate(0 92.887)">
        <g id="Grupo_54848" data-name="Grupo 54848">
          <rect id="Rectángulo_5524" data-name="Rectángulo 5524" width="445" height="0.586"/>
        </g>
        <g id="Grupo_54849" data-name="Grupo 54849" transform="translate(0 123.488)">
          <rect id="Rectángulo_5525" data-name="Rectángulo 5525" width="445" height="0.586"/>
        </g>
        <g id="Grupo_54850" data-name="Grupo 54850" transform="translate(0 217.839)">
          <rect id="Rectángulo_5526" data-name="Rectángulo 5526" width="445" height="0.586"/>
        </g>
      </g>
      <g id="Grupo_54852" data-name="Grupo 54852" transform="translate(36 149.499)">
        <path id="Trazado_102496" data-name="Trazado 102496" d="M75.109,364.758V358.6H92.347v6.157Z" transform="translate(-75.109 -358.601)"/>
      </g>
      <g id="Grupo_54853" data-name="Grupo 54853" transform="translate(34 247.054)">
        <path id="Trazado_102497" data-name="Trazado 102497" d="M83.244,497.935a8.777,8.777,0,0,1,7.295,3.33q3.133,3.943,3.133,13.079,0,9.113-3.155,13.1a8.762,8.762,0,0,1-7.273,3.287,9.189,9.189,0,0,1-7.558-3.6q-2.871-3.6-2.87-12.849,0-9.071,3.155-13.057A8.759,8.759,0,0,1,83.244,497.935Zm0,5.105a3.075,3.075,0,0,0-1.994.711,4.78,4.78,0,0,0-1.358,2.552,52.16,52.16,0,0,0-.066,15.806,5.46,5.46,0,0,0,1.435,2.816,3.153,3.153,0,0,0,3.977-.011,4.78,4.78,0,0,0,1.359-2.552,52.019,52.019,0,0,0,.065-15.785,5.54,5.54,0,0,0-1.435-2.826A3.03,3.03,0,0,0,83.244,503.04Z" transform="translate(-72.816 -497.935)"/>
      </g>
      <g id="Grupo_54854" data-name="Grupo 54854" transform="translate(33 29.247)">
        <path id="Trazado_102498" data-name="Trazado 102498" d="M87.205,228.591v-8.347H78.792v-5.762h8.413v-8.347h5.608v8.347h8.435v5.762H92.813v8.347Z" transform="translate(-78.792 -206.135)"/>
      </g>
      <rect id="Rectángulo_5538" data-name="Rectángulo 5538" width="444.704" height="310.725" transform="translate(0.296)" fill="none" stroke="#000" stroke-miterlimit="10" stroke-width="1"/>
      <path id="Trazado_102627" data-name="Trazado 102627" d="M3.8,9.88A5.731,5.731,0,0,1,1.514,8.773,2.116,2.116,0,0,1,.8,7.151a2.236,2.236,0,0,1,.873-1.806,3.469,3.469,0,0,1,2.269-.714A3.786,3.786,0,0,1,5.64,5,2.792,2.792,0,0,1,6.8,6.015,2.6,2.6,0,0,1,7.2,7.43H5.979a1.69,1.69,0,0,0-.533-1.322,2.168,2.168,0,0,0-1.5-.481,2.22,2.22,0,0,0-1.406.4,1.326,1.326,0,0,0-.5,1.1,1.193,1.193,0,0,0,.479.957A4.7,4.7,0,0,0,4.142,8.8a7.569,7.569,0,0,1,1.8.715,2.736,2.736,0,0,1,.965.911,2.325,2.325,0,0,1,.314,1.225,2.159,2.159,0,0,1-.876,1.8,3.735,3.735,0,0,1-2.342.676,4.344,4.344,0,0,1-1.777-.365,2.991,2.991,0,0,1-1.273-1,2.44,2.44,0,0,1-.448-1.441H1.733a1.592,1.592,0,0,0,.619,1.323,2.606,2.606,0,0,0,1.654.486,2.4,2.4,0,0,0,1.479-.394A1.278,1.278,0,0,0,6,11.664a1.255,1.255,0,0,0-.476-1.051A5.489,5.489,0,0,0,3.8,9.88ZM8.29,10.5a4.057,4.057,0,0,1,.4-1.815,2.96,2.96,0,0,1,1.1-1.244A3.007,3.007,0,0,1,11.407,7a2.9,2.9,0,0,1,2.269.971,3.736,3.736,0,0,1,.866,2.583v.083a4.092,4.092,0,0,1-.384,1.8,2.916,2.916,0,0,1-1.1,1.241,3.041,3.041,0,0,1-1.641.444,2.889,2.889,0,0,1-2.263-.971,3.718,3.718,0,0,1-.866-2.571Zm1.181.14A2.938,2.938,0,0,0,10,12.477a1.8,1.8,0,0,0,2.841-.01,3.213,3.213,0,0,0,.527-1.965,2.933,2.933,0,0,0-.536-1.831,1.705,1.705,0,0,0-1.425-.7,1.686,1.686,0,0,0-1.4.692A3.189,3.189,0,0,0,9.471,10.642ZM17.291,14H16.117V4.25h1.174Zm6.119,0a2.467,2.467,0,0,1-.165-.724,2.62,2.62,0,0,1-1.955.851,2.424,2.424,0,0,1-1.666-.574,1.859,1.859,0,0,1-.651-1.457,1.942,1.942,0,0,1,.816-1.666,3.846,3.846,0,0,1,2.295-.594h1.143V9.3a1.319,1.319,0,0,0-.368-.981,1.48,1.48,0,0,0-1.085-.365,1.712,1.712,0,0,0-1.054.317.935.935,0,0,0-.425.768H19.113a1.621,1.621,0,0,1,.365-.993,2.491,2.491,0,0,1,.99-.759A3.331,3.331,0,0,1,21.842,7,2.715,2.715,0,0,1,23.7,7.6a2.141,2.141,0,0,1,.7,1.635v3.161a3.865,3.865,0,0,0,.241,1.5V14Zm-1.949-.9a2.064,2.064,0,0,0,1.047-.286,1.728,1.728,0,0,0,.717-.743V10.667h-.92q-2.158,0-2.158,1.263a1.069,1.069,0,0,0,.368.863A1.415,1.415,0,0,0,21.461,13.1Zm5.884-5.973.032.762A2.536,2.536,0,0,1,29.415,7a1.964,1.964,0,0,1,1.961,1.1,2.6,2.6,0,0,1,.892-.8,2.634,2.634,0,0,1,1.3-.3q2.26,0,2.3,2.393V14H34.69V9.468a1.577,1.577,0,0,0-.336-1.1A1.482,1.482,0,0,0,33.224,8a1.557,1.557,0,0,0-1.085.39,1.584,1.584,0,0,0-.5,1.051V14H30.456V9.5A1.31,1.31,0,0,0,28.99,8a1.571,1.571,0,0,0-1.581.984V14H26.235V7.132Zm13.14,7a3,3,0,0,1-2.272-.917,3.4,3.4,0,0,1-.876-2.453v-.216a4.121,4.121,0,0,1,.39-1.825,3.045,3.045,0,0,1,1.092-1.257A2.745,2.745,0,0,1,40.339,7a2.572,2.572,0,0,1,2.082.882,3.82,3.82,0,0,1,.743,2.526V10.9H38.511a2.441,2.441,0,0,0,.594,1.641,1.866,1.866,0,0,0,1.444.625,2.045,2.045,0,0,0,1.054-.254,2.648,2.648,0,0,0,.755-.673l.717.559A2.884,2.884,0,0,1,40.485,14.127ZM40.339,7.97a1.566,1.566,0,0,0-1.193.517,2.515,2.515,0,0,0-.6,1.45h3.44V9.849a2.237,2.237,0,0,0-.482-1.387A1.475,1.475,0,0,0,40.339,7.97Zm5.294-.838L45.671,8A2.5,2.5,0,0,1,47.728,7q2.177,0,2.2,2.457V14H48.75V9.455a1.581,1.581,0,0,0-.34-1.1A1.361,1.361,0,0,0,47.373,8a1.7,1.7,0,0,0-1,.3,2.069,2.069,0,0,0-.673.8V14H44.522V7.132Zm7.655-1.663V7.132h1.282V8.04H53.289V12.3a.953.953,0,0,0,.171.62.721.721,0,0,0,.584.207,2.843,2.843,0,0,0,.559-.076V14a3.424,3.424,0,0,1-.9.126,1.462,1.462,0,0,1-1.187-.476,2.045,2.045,0,0,1-.4-1.352V8.04h-1.25V7.132h1.25V5.469Zm5.5,8.658a3,3,0,0,1-2.272-.917,3.4,3.4,0,0,1-.876-2.453v-.216a4.121,4.121,0,0,1,.39-1.825,3.045,3.045,0,0,1,1.092-1.257A2.745,2.745,0,0,1,58.646,7a2.572,2.572,0,0,1,2.082.882,3.82,3.82,0,0,1,.743,2.526V10.9H56.818a2.441,2.441,0,0,0,.594,1.641,1.866,1.866,0,0,0,1.444.625,2.045,2.045,0,0,0,1.054-.254,2.648,2.648,0,0,0,.755-.673l.717.559A2.884,2.884,0,0,1,58.792,14.127ZM58.646,7.97a1.566,1.566,0,0,0-1.193.517,2.515,2.515,0,0,0-.6,1.45H60.3V9.849a2.237,2.237,0,0,0-.482-1.387A1.475,1.475,0,0,0,58.646,7.97Zm13.2,2.672a4.113,4.113,0,0,1-.717,2.526,2.3,2.3,0,0,1-1.942.958,2.519,2.519,0,0,1-1.968-.793v3.307H66.047V7.132H67.12l.057.762A2.419,2.419,0,0,1,69.17,7a2.342,2.342,0,0,1,1.958.933,4.157,4.157,0,0,1,.72,2.6Zm-1.174-.133a3.035,3.035,0,0,0-.5-1.834A1.6,1.6,0,0,0,68.821,8a1.726,1.726,0,0,0-1.6.946v3.282a1.73,1.73,0,0,0,1.612.939,1.587,1.587,0,0,0,1.343-.67A3.313,3.313,0,0,0,70.675,10.509ZM73.03,10.5a4.057,4.057,0,0,1,.4-1.815,2.96,2.96,0,0,1,1.1-1.244A3.007,3.007,0,0,1,76.146,7a2.9,2.9,0,0,1,2.269.971,3.736,3.736,0,0,1,.866,2.583v.083a4.092,4.092,0,0,1-.384,1.8,2.916,2.916,0,0,1-1.1,1.241,3.041,3.041,0,0,1-1.641.444,2.889,2.889,0,0,1-2.263-.971,3.718,3.718,0,0,1-.866-2.571Zm1.181.14a2.938,2.938,0,0,0,.53,1.834,1.8,1.8,0,0,0,2.841-.01,3.213,3.213,0,0,0,.527-1.965,2.933,2.933,0,0,0-.536-1.831,1.705,1.705,0,0,0-1.425-.7,1.686,1.686,0,0,0-1.4.692A3.189,3.189,0,0,0,74.21,10.642Zm6.259-.133a4.023,4.023,0,0,1,.749-2.542A2.548,2.548,0,0,1,85.09,7.83V4.25h1.174V14H85.186l-.057-.736a2.391,2.391,0,0,1-1.961.863,2.346,2.346,0,0,1-1.946-.978,4.069,4.069,0,0,1-.752-2.552Zm1.174.133a3.046,3.046,0,0,0,.482,1.828,1.56,1.56,0,0,0,1.333.66,1.713,1.713,0,0,0,1.631-1V8.973A1.726,1.726,0,0,0,83.472,8a1.567,1.567,0,0,0-1.346.667A3.354,3.354,0,0,0,81.644,10.642Zm9.763-2.457a3.519,3.519,0,0,0-.578-.044,1.547,1.547,0,0,0-1.568.984V14H88.086V7.132h1.143l.019.793A1.829,1.829,0,0,1,90.886,7a1.2,1.2,0,0,1,.521.089ZM96.726,14a2.467,2.467,0,0,1-.165-.724,2.62,2.62,0,0,1-1.955.851,2.424,2.424,0,0,1-1.666-.574,1.859,1.859,0,0,1-.651-1.457,1.942,1.942,0,0,1,.816-1.666A3.846,3.846,0,0,1,95.4,9.836h1.143V9.3a1.319,1.319,0,0,0-.368-.981,1.48,1.48,0,0,0-1.085-.365,1.712,1.712,0,0,0-1.054.317.935.935,0,0,0-.425.768H92.428a1.621,1.621,0,0,1,.365-.993,2.491,2.491,0,0,1,.99-.759A3.331,3.331,0,0,1,95.158,7a2.715,2.715,0,0,1,1.86.594,2.141,2.141,0,0,1,.7,1.635v3.161a3.865,3.865,0,0,0,.241,1.5V14Zm-1.949-.9a2.064,2.064,0,0,0,1.047-.286,1.728,1.728,0,0,0,.717-.743V10.667h-.92q-2.158,0-2.158,1.263a1.069,1.069,0,0,0,.368.863A1.415,1.415,0,0,0,94.777,13.1ZM95.862,4.25h1.422l-1.7,1.866-.946,0Zm4.805,2.882.038.863A2.5,2.5,0,0,1,102.762,7q2.177,0,2.2,2.457V14h-1.174V9.455a1.581,1.581,0,0,0-.34-1.1A1.361,1.361,0,0,0,102.407,8a1.7,1.7,0,0,0-1,.3,2.069,2.069,0,0,0-.673.8V14H99.557V7.132ZM114.188,14a2.467,2.467,0,0,1-.165-.724,2.62,2.62,0,0,1-1.955.851,2.424,2.424,0,0,1-1.666-.574,1.859,1.859,0,0,1-.651-1.457,1.942,1.942,0,0,1,.816-1.666,3.846,3.846,0,0,1,2.295-.594H114V9.3a1.319,1.319,0,0,0-.368-.981,1.48,1.48,0,0,0-1.085-.365,1.712,1.712,0,0,0-1.054.317.935.935,0,0,0-.425.768h-1.181a1.621,1.621,0,0,1,.365-.993,2.491,2.491,0,0,1,.99-.759A3.331,3.331,0,0,1,112.62,7a2.715,2.715,0,0,1,1.86.594,2.141,2.141,0,0,1,.7,1.635v3.161a3.865,3.865,0,0,0,.241,1.5V14Zm-1.949-.9a2.064,2.064,0,0,0,1.047-.286,1.728,1.728,0,0,0,.717-.743V10.667h-.92q-2.158,0-2.158,1.263a1.069,1.069,0,0,0,.368.863A1.415,1.415,0,0,0,112.239,13.1Zm6.056.9h-1.174V4.25h1.174Zm2.983-6.868.032.762A2.536,2.536,0,0,1,123.348,7a1.964,1.964,0,0,1,1.961,1.1,2.6,2.6,0,0,1,.892-.8,2.634,2.634,0,0,1,1.3-.3q2.26,0,2.3,2.393V14h-1.174V9.468a1.577,1.577,0,0,0-.336-1.1A1.482,1.482,0,0,0,127.156,8a1.557,1.557,0,0,0-1.085.39,1.584,1.584,0,0,0-.5,1.051V14h-1.181V9.5A1.31,1.31,0,0,0,122.922,8a1.571,1.571,0,0,0-1.581.984V14h-1.174V7.132ZM135.808,14a2.467,2.467,0,0,1-.165-.724,2.62,2.62,0,0,1-1.955.851,2.424,2.424,0,0,1-1.666-.574,1.859,1.859,0,0,1-.651-1.457,1.942,1.942,0,0,1,.816-1.666,3.846,3.846,0,0,1,2.295-.594h1.143V9.3a1.319,1.319,0,0,0-.368-.981,1.48,1.48,0,0,0-1.085-.365,1.712,1.712,0,0,0-1.054.317.935.935,0,0,0-.425.768h-1.181a1.621,1.621,0,0,1,.365-.993,2.491,2.491,0,0,1,.99-.759A3.331,3.331,0,0,1,134.24,7a2.715,2.715,0,0,1,1.86.594,2.141,2.141,0,0,1,.7,1.635v3.161a3.865,3.865,0,0,0,.241,1.5V14Zm-1.949-.9a2.064,2.064,0,0,0,1.047-.286,1.728,1.728,0,0,0,.717-.743V10.667h-.92q-2.158,0-2.158,1.263a1.069,1.069,0,0,0,.368.863A1.415,1.415,0,0,0,133.859,13.1Zm7.535.063a1.692,1.692,0,0,0,1.1-.381,1.34,1.34,0,0,0,.521-.952h1.111a2.13,2.13,0,0,1-.406,1.124,2.676,2.676,0,0,1-1,.851,2.885,2.885,0,0,1-1.323.317,2.829,2.829,0,0,1-2.231-.936,3.729,3.729,0,0,1-.828-2.561v-.2a4.135,4.135,0,0,1,.368-1.784,2.8,2.8,0,0,1,1.057-1.212A3,3,0,0,1,141.388,7a2.755,2.755,0,0,1,1.92.692,2.473,2.473,0,0,1,.816,1.8h-1.111a1.618,1.618,0,0,0-.5-1.095,1.57,1.57,0,0,0-1.12-.428A1.644,1.644,0,0,0,140,8.614a3.026,3.026,0,0,0-.492,1.863V10.7A2.965,2.965,0,0,0,140,12.527,1.651,1.651,0,0,0,141.394,13.168Zm6.9.958a3,3,0,0,1-2.272-.917,3.4,3.4,0,0,1-.876-2.453v-.216a4.121,4.121,0,0,1,.39-1.825,3.045,3.045,0,0,1,1.092-1.257A2.745,2.745,0,0,1,148.148,7a2.572,2.572,0,0,1,2.082.882,3.82,3.82,0,0,1,.743,2.526V10.9H146.32a2.441,2.441,0,0,0,.594,1.641,1.866,1.866,0,0,0,1.444.625,2.045,2.045,0,0,0,1.054-.254,2.647,2.647,0,0,0,.755-.673l.717.559A2.884,2.884,0,0,1,148.294,14.127Zm-.146-6.157a1.566,1.566,0,0,0-1.193.517,2.515,2.515,0,0,0-.6,1.45h3.44V9.849a2.237,2.237,0,0,0-.482-1.387A1.475,1.475,0,0,0,148.148,7.97Zm5.294-.838L153.48,8A2.5,2.5,0,0,1,155.537,7q2.177,0,2.2,2.457V14h-1.174V9.455a1.581,1.581,0,0,0-.34-1.1A1.361,1.361,0,0,0,155.181,8a1.7,1.7,0,0,0-1,.3,2.069,2.069,0,0,0-.673.8V14h-1.174V7.132ZM163.744,14a2.467,2.467,0,0,1-.165-.724,2.62,2.62,0,0,1-1.955.851,2.424,2.424,0,0,1-1.666-.574,1.859,1.859,0,0,1-.651-1.457,1.942,1.942,0,0,1,.816-1.666,3.846,3.846,0,0,1,2.295-.594h1.143V9.3a1.319,1.319,0,0,0-.368-.981,1.48,1.48,0,0,0-1.085-.365,1.712,1.712,0,0,0-1.054.317.935.935,0,0,0-.425.768h-1.181a1.621,1.621,0,0,1,.365-.993,2.491,2.491,0,0,1,.99-.759A3.331,3.331,0,0,1,162.176,7a2.715,2.715,0,0,1,1.86.594,2.141,2.141,0,0,1,.7,1.635v3.161a3.865,3.865,0,0,0,.241,1.5V14Zm-1.949-.9a2.064,2.064,0,0,0,1.047-.286,1.728,1.728,0,0,0,.717-.743V10.667h-.92q-2.158,0-2.158,1.263a1.069,1.069,0,0,0,.368.863A1.415,1.415,0,0,0,161.8,13.1Zm8.1-4.919a3.519,3.519,0,0,0-.578-.044,1.547,1.547,0,0,0-1.568.984V14h-1.174V7.132h1.143l.019.793A1.829,1.829,0,0,1,169.375,7a1.2,1.2,0,0,1,.521.089Zm5.078,3.993a.865.865,0,0,0-.359-.74,3.452,3.452,0,0,0-1.25-.454,5.912,5.912,0,0,1-1.416-.457,2.014,2.014,0,0,1-.774-.635,1.518,1.518,0,0,1-.251-.876,1.782,1.782,0,0,1,.714-1.428A2.789,2.789,0,0,1,173.462,7a2.87,2.87,0,0,1,1.895.6,1.915,1.915,0,0,1,.727,1.542H174.9a1.06,1.06,0,0,0-.409-.832,1.534,1.534,0,0,0-1.031-.349,1.605,1.605,0,0,0-1,.279.879.879,0,0,0-.362.73.712.712,0,0,0,.336.641,4.139,4.139,0,0,0,1.216.413,6.334,6.334,0,0,1,1.425.47,2.079,2.079,0,0,1,.809.657,1.615,1.615,0,0,1,.263.936,1.758,1.758,0,0,1-.736,1.476,3.089,3.089,0,0,1-1.911.555,3.459,3.459,0,0,1-1.46-.292,2.375,2.375,0,0,1-.993-.816,1.966,1.966,0,0,1-.359-1.133h1.174a1.216,1.216,0,0,0,.473.936,1.835,1.835,0,0,0,1.165.346,1.894,1.894,0,0,0,1.07-.27A.829.829,0,0,0,174.973,12.178Zm5.554,1.949a3,3,0,0,1-2.272-.917,3.4,3.4,0,0,1-.876-2.453v-.216a4.121,4.121,0,0,1,.39-1.825,3.045,3.045,0,0,1,1.092-1.257A2.745,2.745,0,0,1,180.381,7a2.572,2.572,0,0,1,2.082.882,3.82,3.82,0,0,1,.743,2.526V10.9h-4.653a2.441,2.441,0,0,0,.594,1.641,1.866,1.866,0,0,0,1.444.625,2.045,2.045,0,0,0,1.054-.254,2.647,2.647,0,0,0,.755-.673l.717.559A2.884,2.884,0,0,1,180.527,14.127Zm-.146-6.157a1.566,1.566,0,0,0-1.193.517,2.515,2.515,0,0,0-.6,1.45h3.44V9.849a2.237,2.237,0,0,0-.482-1.387A1.475,1.475,0,0,0,180.381,7.97ZM189,7.132v7.662q0,1.98-1.8,1.98a2.191,2.191,0,0,1-.717-.114v-.934a2.27,2.27,0,0,0,.533.051.8.8,0,0,0,.6-.213,1.052,1.052,0,0,0,.206-.74V7.132ZM187.7,5.31a.7.7,0,0,1,.175-.479.642.642,0,0,1,.511-.2.666.666,0,0,1,.521.2.694.694,0,0,1,.178.482.671.671,0,0,1-.178.476.678.678,0,0,1-.521.19.657.657,0,0,1-.514-.19A.685.685,0,0,1,187.7,5.31Zm7.427,8.011a2.494,2.494,0,0,1-2.012.806,2.135,2.135,0,0,1-1.673-.638,2.761,2.761,0,0,1-.581-1.888V7.132h1.174v4.437q0,1.562,1.27,1.562a1.758,1.758,0,0,0,1.79-1v-5h1.174V14h-1.117Zm4.037-6.189L199.2,8A2.5,2.5,0,0,1,201.259,7q2.177,0,2.2,2.457V14h-1.174V9.455a1.581,1.581,0,0,0-.34-1.1A1.361,1.361,0,0,0,200.9,8a1.7,1.7,0,0,0-1,.3,2.069,2.069,0,0,0-.673.8V14h-1.174V7.132Zm7.655-1.663V7.132H208.1V8.04h-1.282V12.3a.953.953,0,0,0,.171.62.721.721,0,0,0,.584.207,2.843,2.843,0,0,0,.559-.076V14a3.424,3.424,0,0,1-.9.126,1.462,1.462,0,0,1-1.187-.476,2.045,2.045,0,0,1-.4-1.352V8.04h-1.25V7.132h1.25V5.469Zm2.215,5.034a4.057,4.057,0,0,1,.4-1.815,2.959,2.959,0,0,1,1.1-1.244A3.007,3.007,0,0,1,212.151,7a2.9,2.9,0,0,1,2.269.971,3.736,3.736,0,0,1,.866,2.583v.083a4.092,4.092,0,0,1-.384,1.8,2.916,2.916,0,0,1-1.1,1.241,3.041,3.041,0,0,1-1.641.444,2.889,2.889,0,0,1-2.263-.971,3.718,3.718,0,0,1-.866-2.571Zm1.181.14a2.938,2.938,0,0,0,.53,1.834,1.8,1.8,0,0,0,2.841-.01,3.213,3.213,0,0,0,.527-1.965,2.933,2.933,0,0,0-.536-1.831,1.705,1.705,0,0,0-1.425-.7,1.686,1.686,0,0,0-1.4.692A3.189,3.189,0,0,0,210.215,10.642Zm10.543,1.536a.865.865,0,0,0-.359-.74,3.452,3.452,0,0,0-1.25-.454,5.912,5.912,0,0,1-1.416-.457,2.014,2.014,0,0,1-.774-.635,1.518,1.518,0,0,1-.251-.876,1.782,1.782,0,0,1,.714-1.428A2.789,2.789,0,0,1,219.248,7a2.87,2.87,0,0,1,1.895.6,1.915,1.915,0,0,1,.727,1.542h-1.181a1.06,1.06,0,0,0-.409-.832,1.534,1.534,0,0,0-1.031-.349,1.605,1.605,0,0,0-1,.279.879.879,0,0,0-.362.73.712.712,0,0,0,.336.641,4.139,4.139,0,0,0,1.216.413,6.334,6.334,0,0,1,1.425.47,2.079,2.079,0,0,1,.809.657,1.615,1.615,0,0,1,.263.936,1.758,1.758,0,0,1-.736,1.476,3.089,3.089,0,0,1-1.911.555,3.459,3.459,0,0,1-1.46-.292,2.375,2.375,0,0,1-.993-.816,1.966,1.966,0,0,1-.359-1.133h1.174a1.216,1.216,0,0,0,.473.936,1.835,1.835,0,0,0,1.165.346,1.894,1.894,0,0,0,1.07-.27A.829.829,0,0,0,220.759,12.178Zm2.666,3.663-.667-.457a3.063,3.063,0,0,0,.622-1.714V12.61h1.149v.92a2.891,2.891,0,0,1-.314,1.282A3,3,0,0,1,223.425,15.841ZM5.129,32a2.467,2.467,0,0,1-.165-.724,2.62,2.62,0,0,1-1.955.851,2.424,2.424,0,0,1-1.666-.574A1.859,1.859,0,0,1,.692,30.1a1.942,1.942,0,0,1,.816-1.666A3.846,3.846,0,0,1,3.8,27.836H4.945V27.3a1.319,1.319,0,0,0-.368-.981,1.48,1.48,0,0,0-1.085-.365,1.712,1.712,0,0,0-1.054.317.935.935,0,0,0-.425.768H.832a1.621,1.621,0,0,1,.365-.993,2.491,2.491,0,0,1,.99-.759A3.331,3.331,0,0,1,3.561,25a2.715,2.715,0,0,1,1.86.594,2.141,2.141,0,0,1,.7,1.635v3.161a3.865,3.865,0,0,0,.241,1.5V32ZM3.18,31.1a2.064,2.064,0,0,0,1.047-.286,1.728,1.728,0,0,0,.717-.743V28.667h-.92q-2.158,0-2.158,1.263a1.069,1.069,0,0,0,.368.863A1.415,1.415,0,0,0,3.18,31.1Zm4.494-2.6a4.023,4.023,0,0,1,.749-2.542A2.369,2.369,0,0,1,10.385,25a2.382,2.382,0,0,1,1.911.825V22.25H13.47V32H12.391l-.057-.736a2.391,2.391,0,0,1-1.961.863,2.346,2.346,0,0,1-1.946-.978A4.069,4.069,0,0,1,7.674,28.6Zm1.174.133a3.046,3.046,0,0,0,.482,1.828,1.56,1.56,0,0,0,1.333.66,1.713,1.713,0,0,0,1.631-1V26.973A1.726,1.726,0,0,0,10.677,26a1.567,1.567,0,0,0-1.346.667A3.354,3.354,0,0,0,8.849,28.642Zm6.132-.14a4.057,4.057,0,0,1,.4-1.815,2.96,2.96,0,0,1,1.1-1.244A3.007,3.007,0,0,1,18.1,25a2.9,2.9,0,0,1,2.269.971,3.736,3.736,0,0,1,.866,2.583v.083a4.092,4.092,0,0,1-.384,1.8,2.916,2.916,0,0,1-1.1,1.241,3.041,3.041,0,0,1-1.641.444,2.889,2.889,0,0,1-2.263-.971,3.718,3.718,0,0,1-.866-2.571Zm1.181.14a2.938,2.938,0,0,0,.53,1.834,1.8,1.8,0,0,0,2.841-.01,3.213,3.213,0,0,0,.527-1.965,2.933,2.933,0,0,0-.536-1.831,1.705,1.705,0,0,0-1.425-.7,1.686,1.686,0,0,0-1.4.692A3.189,3.189,0,0,0,16.161,28.642Zm12.346,0a4.113,4.113,0,0,1-.717,2.526,2.3,2.3,0,0,1-1.942.958,2.519,2.519,0,0,1-1.968-.793v3.307H22.706V25.132h1.073l.057.762A2.419,2.419,0,0,1,25.829,25a2.342,2.342,0,0,1,1.958.933,4.157,4.157,0,0,1,.72,2.6Zm-1.174-.133a3.035,3.035,0,0,0-.5-1.834A1.6,1.6,0,0,0,25.479,26a1.726,1.726,0,0,0-1.6.946v3.282a1.73,1.73,0,0,0,1.612.939,1.587,1.587,0,0,0,1.343-.67A3.312,3.312,0,0,0,27.333,28.509Zm4.259-5.04v1.663h1.282v.908H31.592V30.3a.953.953,0,0,0,.171.62.721.721,0,0,0,.584.207,2.843,2.843,0,0,0,.559-.076V32a3.424,3.424,0,0,1-.9.126,1.462,1.462,0,0,1-1.187-.476,2.045,2.045,0,0,1-.4-1.352V26.04h-1.25v-.908h1.25V23.469ZM38.486,32a2.467,2.467,0,0,1-.165-.724,2.62,2.62,0,0,1-1.955.851,2.424,2.424,0,0,1-1.666-.574,1.859,1.859,0,0,1-.651-1.457,1.942,1.942,0,0,1,.816-1.666,3.846,3.846,0,0,1,2.295-.594H38.3V27.3a1.319,1.319,0,0,0-.368-.981,1.48,1.48,0,0,0-1.085-.365,1.712,1.712,0,0,0-1.054.317.935.935,0,0,0-.425.768H34.188a1.621,1.621,0,0,1,.365-.993,2.491,2.491,0,0,1,.99-.759A3.331,3.331,0,0,1,36.918,25a2.715,2.715,0,0,1,1.86.594,2.141,2.141,0,0,1,.7,1.635v3.161a3.865,3.865,0,0,0,.241,1.5V32Zm-1.949-.9a2.064,2.064,0,0,0,1.047-.286,1.728,1.728,0,0,0,.717-.743V28.667h-.92q-2.158,0-2.158,1.263a1.069,1.069,0,0,0,.368.863A1.415,1.415,0,0,0,36.537,31.1Zm5.891-5.973.038.863A2.5,2.5,0,0,1,44.522,25q2.177,0,2.2,2.457V32H45.544V27.455a1.581,1.581,0,0,0-.34-1.1A1.361,1.361,0,0,0,44.167,26a1.7,1.7,0,0,0-1,.3,2.069,2.069,0,0,0-.673.8V32H41.317V25.132ZM48.2,28.509a4.023,4.023,0,0,1,.749-2.542,2.548,2.548,0,0,1,3.872-.136V22.25H54V32H52.92l-.057-.736a2.391,2.391,0,0,1-1.961.863,2.346,2.346,0,0,1-1.946-.978A4.069,4.069,0,0,1,48.2,28.6Zm1.174.133a3.046,3.046,0,0,0,.482,1.828,1.56,1.56,0,0,0,1.333.66,1.713,1.713,0,0,0,1.631-1V26.973A1.726,1.726,0,0,0,51.207,26a1.567,1.567,0,0,0-1.346.667A3.354,3.354,0,0,0,49.378,28.642Zm6.132-.14a4.057,4.057,0,0,1,.4-1.815,2.96,2.96,0,0,1,1.1-1.244A3.007,3.007,0,0,1,58.627,25a2.9,2.9,0,0,1,2.269.971,3.736,3.736,0,0,1,.866,2.583v.083a4.092,4.092,0,0,1-.384,1.8,2.916,2.916,0,0,1-1.1,1.241,3.041,3.041,0,0,1-1.641.444,2.889,2.889,0,0,1-2.263-.971,3.718,3.718,0,0,1-.866-2.571Zm1.181.14a2.938,2.938,0,0,0,.53,1.834,1.8,1.8,0,0,0,2.841-.01,3.213,3.213,0,0,0,.527-1.965,2.933,2.933,0,0,0-.536-1.831,1.705,1.705,0,0,0-1.425-.7,1.686,1.686,0,0,0-1.4.692A3.189,3.189,0,0,0,56.691,28.642Zm12.518,2.526a1.691,1.691,0,0,0,1.1-.381,1.34,1.34,0,0,0,.521-.952h1.111a2.13,2.13,0,0,1-.406,1.124,2.676,2.676,0,0,1-1,.851,2.885,2.885,0,0,1-1.323.317,2.829,2.829,0,0,1-2.231-.936,3.729,3.729,0,0,1-.828-2.561v-.2a4.135,4.135,0,0,1,.368-1.784,2.8,2.8,0,0,1,1.057-1.212A3,3,0,0,1,69.2,25a2.755,2.755,0,0,1,1.92.692,2.473,2.473,0,0,1,.816,1.8H70.827a1.618,1.618,0,0,0-.5-1.095,1.57,1.57,0,0,0-1.12-.428,1.644,1.644,0,0,0-1.387.644,3.026,3.026,0,0,0-.492,1.863V28.7a2.966,2.966,0,0,0,.489,1.828A1.651,1.651,0,0,0,69.208,31.168ZM74.534,32H73.36V25.132h1.174Zm-1.27-8.69a.7.7,0,0,1,.175-.482.655.655,0,0,1,.517-.2.666.666,0,0,1,.521.2.694.694,0,0,1,.178.482.671.671,0,0,1-.178.476.678.678,0,0,1-.521.19.667.667,0,0,1-.517-.19A.678.678,0,0,1,73.265,23.31Zm6,8.817a3,3,0,0,1-2.272-.917,3.4,3.4,0,0,1-.876-2.453v-.216a4.121,4.121,0,0,1,.39-1.825A3.045,3.045,0,0,1,77.6,25.459,2.745,2.745,0,0,1,79.117,25a2.572,2.572,0,0,1,2.082.882,3.82,3.82,0,0,1,.743,2.526V28.9H77.289a2.441,2.441,0,0,0,.594,1.641,1.866,1.866,0,0,0,1.444.625,2.045,2.045,0,0,0,1.054-.254,2.648,2.648,0,0,0,.755-.673l.717.559A2.884,2.884,0,0,1,79.263,32.127Zm-.146-6.157a1.566,1.566,0,0,0-1.193.517,2.515,2.515,0,0,0-.6,1.45h3.44v-.089a2.237,2.237,0,0,0-.482-1.387A1.475,1.475,0,0,0,79.117,25.97Zm7.5.216a3.519,3.519,0,0,0-.578-.044,1.547,1.547,0,0,0-1.568.984V32H83.3V25.132h1.143l.019.793A1.829,1.829,0,0,1,86.1,25a1.2,1.2,0,0,1,.521.089Zm2.99-2.717v1.663h1.282v.908H89.61V30.3a.953.953,0,0,0,.171.62.721.721,0,0,0,.584.207,2.843,2.843,0,0,0,.559-.076V32a3.424,3.424,0,0,1-.9.126,1.462,1.462,0,0,1-1.187-.476,2.045,2.045,0,0,1-.4-1.352V26.04h-1.25v-.908h1.25V23.469ZM96.5,32a2.467,2.467,0,0,1-.165-.724,2.62,2.62,0,0,1-1.955.851,2.424,2.424,0,0,1-1.666-.574,1.859,1.859,0,0,1-.651-1.457,1.942,1.942,0,0,1,.816-1.666,3.846,3.846,0,0,1,2.295-.594h1.143V27.3a1.319,1.319,0,0,0-.368-.981,1.48,1.48,0,0,0-1.085-.365,1.712,1.712,0,0,0-1.054.317.935.935,0,0,0-.425.768H92.206a1.621,1.621,0,0,1,.365-.993,2.491,2.491,0,0,1,.99-.759A3.331,3.331,0,0,1,94.936,25a2.715,2.715,0,0,1,1.86.594,2.141,2.141,0,0,1,.7,1.635v3.161a3.865,3.865,0,0,0,.241,1.5V32Zm-1.949-.9a2.064,2.064,0,0,0,1.047-.286,1.728,1.728,0,0,0,.717-.743V28.667H95.4q-2.158,0-2.158,1.263a1.069,1.069,0,0,0,.368.863A1.415,1.415,0,0,0,94.555,31.1Zm8.779-.927a.864.864,0,0,0-.359-.74,3.452,3.452,0,0,0-1.25-.454,5.912,5.912,0,0,1-1.416-.457,2.014,2.014,0,0,1-.774-.635,1.518,1.518,0,0,1-.251-.876A1.782,1.782,0,0,1,100,25.589,2.789,2.789,0,0,1,101.823,25a2.87,2.87,0,0,1,1.895.6,1.915,1.915,0,0,1,.727,1.542h-1.181a1.06,1.06,0,0,0-.409-.832,1.534,1.534,0,0,0-1.031-.349,1.606,1.606,0,0,0-1,.279.879.879,0,0,0-.362.73.712.712,0,0,0,.336.641,4.139,4.139,0,0,0,1.216.413,6.334,6.334,0,0,1,1.425.47,2.079,2.079,0,0,1,.809.657,1.615,1.615,0,0,1,.263.936,1.758,1.758,0,0,1-.736,1.476,3.089,3.089,0,0,1-1.911.555,3.459,3.459,0,0,1-1.46-.292,2.375,2.375,0,0,1-.993-.816,1.966,1.966,0,0,1-.359-1.133h1.174a1.216,1.216,0,0,0,.473.936,1.835,1.835,0,0,0,1.165.346,1.894,1.894,0,0,0,1.07-.27A.829.829,0,0,0,103.333,30.178Zm7.027-5.046.032.762A2.536,2.536,0,0,1,112.43,25a1.964,1.964,0,0,1,1.961,1.1,2.6,2.6,0,0,1,.892-.8,2.634,2.634,0,0,1,1.3-.3q2.26,0,2.3,2.393V32H117.7V27.468a1.577,1.577,0,0,0-.336-1.1,1.482,1.482,0,0,0-1.13-.365,1.557,1.557,0,0,0-1.085.39,1.584,1.584,0,0,0-.5,1.051V32h-1.181V27.5A1.31,1.31,0,0,0,112,26a1.571,1.571,0,0,0-1.581.984V32H109.25V25.132Zm13.14,7a3,3,0,0,1-2.272-.917,3.4,3.4,0,0,1-.876-2.453v-.216a4.121,4.121,0,0,1,.39-1.825,3.045,3.045,0,0,1,1.092-1.257,2.745,2.745,0,0,1,1.52-.454,2.572,2.572,0,0,1,2.082.882,3.82,3.82,0,0,1,.743,2.526V28.9h-4.653a2.441,2.441,0,0,0,.594,1.641,1.866,1.866,0,0,0,1.444.625,2.045,2.045,0,0,0,1.054-.254,2.648,2.648,0,0,0,.755-.673l.717.559A2.884,2.884,0,0,1,123.5,32.127Zm-.146-6.157a1.566,1.566,0,0,0-1.193.517,2.515,2.515,0,0,0-.6,1.45H125v-.089a2.237,2.237,0,0,0-.482-1.387A1.475,1.475,0,0,0,123.354,25.97Zm3.9,2.539A4.023,4.023,0,0,1,128,25.967a2.548,2.548,0,0,1,3.872-.136V22.25h1.174V32h-1.079l-.057-.736a2.391,2.391,0,0,1-1.961.863A2.346,2.346,0,0,1,128,31.149a4.069,4.069,0,0,1-.752-2.552Zm1.174.133a3.046,3.046,0,0,0,.482,1.828,1.56,1.56,0,0,0,1.333.66,1.713,1.713,0,0,0,1.631-1V26.973A1.726,1.726,0,0,0,130.254,26a1.567,1.567,0,0,0-1.346.667A3.354,3.354,0,0,0,128.426,28.642ZM136.145,32H134.97V25.132h1.174Zm-1.27-8.69a.7.7,0,0,1,.175-.482.655.655,0,0,1,.517-.2.666.666,0,0,1,.521.2.694.694,0,0,1,.178.482.671.671,0,0,1-.178.476.678.678,0,0,1-.521.19.667.667,0,0,1-.517-.19A.678.678,0,0,1,134.875,23.31Zm2.863,5.2a4.023,4.023,0,0,1,.749-2.542,2.548,2.548,0,0,1,3.872-.136V22.25h1.174V32h-1.079l-.057-.736a2.391,2.391,0,0,1-1.961.863,2.346,2.346,0,0,1-1.946-.978,4.069,4.069,0,0,1-.752-2.552Zm1.174.133a3.046,3.046,0,0,0,.482,1.828,1.56,1.56,0,0,0,1.333.66,1.713,1.713,0,0,0,1.631-1V26.973A1.726,1.726,0,0,0,140.74,26a1.567,1.567,0,0,0-1.346.667A3.354,3.354,0,0,0,138.912,28.642ZM149.6,32a2.467,2.467,0,0,1-.165-.724,2.62,2.62,0,0,1-1.955.851,2.424,2.424,0,0,1-1.666-.574,1.859,1.859,0,0,1-.651-1.457,1.942,1.942,0,0,1,.816-1.666,3.846,3.846,0,0,1,2.295-.594h1.143V27.3a1.319,1.319,0,0,0-.368-.981,1.48,1.48,0,0,0-1.085-.365,1.712,1.712,0,0,0-1.054.317.935.935,0,0,0-.425.768H145.3a1.621,1.621,0,0,1,.365-.993,2.491,2.491,0,0,1,.99-.759A3.331,3.331,0,0,1,148.027,25a2.715,2.715,0,0,1,1.86.594,2.141,2.141,0,0,1,.7,1.635v3.161a3.865,3.865,0,0,0,.241,1.5V32Zm-1.949-.9a2.064,2.064,0,0,0,1.047-.286,1.728,1.728,0,0,0,.717-.743V28.667h-.92q-2.158,0-2.158,1.263a1.069,1.069,0,0,0,.368.863A1.415,1.415,0,0,0,147.646,31.1Zm8.779-.927a.865.865,0,0,0-.359-.74,3.452,3.452,0,0,0-1.25-.454,5.912,5.912,0,0,1-1.416-.457,2.014,2.014,0,0,1-.774-.635,1.518,1.518,0,0,1-.251-.876,1.782,1.782,0,0,1,.714-1.428A2.789,2.789,0,0,1,154.915,25a2.87,2.87,0,0,1,1.895.6,1.915,1.915,0,0,1,.727,1.542h-1.181a1.06,1.06,0,0,0-.409-.832,1.534,1.534,0,0,0-1.031-.349,1.605,1.605,0,0,0-1,.279.879.879,0,0,0-.362.73.712.712,0,0,0,.336.641,4.139,4.139,0,0,0,1.216.413,6.334,6.334,0,0,1,1.425.47,2.079,2.079,0,0,1,.809.657,1.615,1.615,0,0,1,.263.936,1.758,1.758,0,0,1-.736,1.476,3.089,3.089,0,0,1-1.911.555,3.459,3.459,0,0,1-1.46-.292,2.375,2.375,0,0,1-.993-.816,1.966,1.966,0,0,1-.359-1.133h1.174a1.216,1.216,0,0,0,.473.936,1.835,1.835,0,0,0,1.165.346,1.894,1.894,0,0,0,1.07-.27A.829.829,0,0,0,156.425,30.178Z" transform="translate(93 133.465)"/>
      <path id="Trazado_102628" data-name="Trazado 102628" d="M8.176,14H6.951L2.3,6.878V14H1.073V4.758H2.3l4.666,7.154V4.758H8.176Zm1.669-3.5a4.057,4.057,0,0,1,.4-1.815,2.96,2.96,0,0,1,1.1-1.244A3.007,3.007,0,0,1,12.962,7a2.9,2.9,0,0,1,2.269.971A3.736,3.736,0,0,1,16.1,10.56v.083a4.092,4.092,0,0,1-.384,1.8,2.916,2.916,0,0,1-1.1,1.241,3.041,3.041,0,0,1-1.641.444,2.889,2.889,0,0,1-2.263-.971,3.718,3.718,0,0,1-.866-2.571Zm1.181.14a2.938,2.938,0,0,0,.53,1.834,1.8,1.8,0,0,0,2.841-.01,3.213,3.213,0,0,0,.527-1.965,2.933,2.933,0,0,0-.536-1.831,1.705,1.705,0,0,0-1.425-.7,1.686,1.686,0,0,0-1.4.692A3.189,3.189,0,0,0,11.026,10.642Zm9.477-.133a4.023,4.023,0,0,1,.749-2.542,2.548,2.548,0,0,1,3.872-.136V4.25H26.3V14H25.219l-.057-.736a2.391,2.391,0,0,1-1.961.863,2.346,2.346,0,0,1-1.946-.978A4.069,4.069,0,0,1,20.5,10.6Zm1.174.133a3.046,3.046,0,0,0,.482,1.828,1.56,1.56,0,0,0,1.333.66,1.713,1.713,0,0,0,1.631-1V8.973A1.726,1.726,0,0,0,23.505,8a1.567,1.567,0,0,0-1.346.667A3.354,3.354,0,0,0,21.677,10.642Zm9.293,3.485A3,3,0,0,1,28.7,13.21a3.4,3.4,0,0,1-.876-2.453v-.216a4.121,4.121,0,0,1,.39-1.825A3.045,3.045,0,0,1,29.3,7.459,2.745,2.745,0,0,1,30.824,7a2.572,2.572,0,0,1,2.082.882,3.82,3.82,0,0,1,.743,2.526V10.9H29a2.441,2.441,0,0,0,.594,1.641,1.866,1.866,0,0,0,1.444.625,2.045,2.045,0,0,0,1.054-.254,2.648,2.648,0,0,0,.755-.673l.717.559A2.884,2.884,0,0,1,30.97,14.127ZM30.824,7.97a1.566,1.566,0,0,0-1.193.517,2.515,2.515,0,0,0-.6,1.45h3.44V9.849a2.237,2.237,0,0,0-.482-1.387A1.475,1.475,0,0,0,30.824,7.97Zm10,2.672a4.084,4.084,0,0,1-.724,2.53,2.312,2.312,0,0,1-1.942.955,2.394,2.394,0,0,1-2.012-.92L36.086,14H35.007V4.25h1.174V7.887A2.381,2.381,0,0,1,38.143,7a2.326,2.326,0,0,1,1.965.946,4.206,4.206,0,0,1,.714,2.59Zm-1.174-.133a3.173,3.173,0,0,0-.463-1.854A1.534,1.534,0,0,0,37.851,8a1.724,1.724,0,0,0-1.669,1.079v2.971a1.772,1.772,0,0,0,1.682,1.079,1.526,1.526,0,0,0,1.314-.654A3.374,3.374,0,0,0,39.647,10.509Zm5.5,3.618a3,3,0,0,1-2.272-.917A3.4,3.4,0,0,1,42,10.756v-.216a4.121,4.121,0,0,1,.39-1.825,3.045,3.045,0,0,1,1.092-1.257A2.745,2.745,0,0,1,45,7a2.572,2.572,0,0,1,2.082.882,3.82,3.82,0,0,1,.743,2.526V10.9H43.177a2.441,2.441,0,0,0,.594,1.641,1.866,1.866,0,0,0,1.444.625,2.045,2.045,0,0,0,1.054-.254,2.648,2.648,0,0,0,.755-.673l.717.559A2.884,2.884,0,0,1,45.151,14.127ZM45,7.97a1.566,1.566,0,0,0-1.193.517,2.515,2.515,0,0,0-.6,1.45h3.44V9.849a2.237,2.237,0,0,0-.482-1.387A1.475,1.475,0,0,0,45,7.97ZM50.3,7.132,50.337,8A2.5,2.5,0,0,1,52.394,7q2.177,0,2.2,2.457V14H53.416V9.455a1.581,1.581,0,0,0-.34-1.1A1.361,1.361,0,0,0,52.038,8a1.7,1.7,0,0,0-1,.3,2.069,2.069,0,0,0-.673.8V14H49.188V7.132ZM63.819,14a2.467,2.467,0,0,1-.165-.724,2.62,2.62,0,0,1-1.955.851,2.424,2.424,0,0,1-1.666-.574,1.859,1.859,0,0,1-.651-1.457,1.942,1.942,0,0,1,.816-1.666,3.846,3.846,0,0,1,2.295-.594h1.143V9.3a1.319,1.319,0,0,0-.368-.981,1.48,1.48,0,0,0-1.085-.365,1.712,1.712,0,0,0-1.054.317.935.935,0,0,0-.425.768H59.522a1.621,1.621,0,0,1,.365-.993,2.491,2.491,0,0,1,.99-.759A3.331,3.331,0,0,1,62.251,7a2.715,2.715,0,0,1,1.86.594,2.141,2.141,0,0,1,.7,1.635v3.161a3.865,3.865,0,0,0,.241,1.5V14Zm-1.949-.9a2.064,2.064,0,0,0,1.047-.286,1.728,1.728,0,0,0,.717-.743V10.667h-.92q-2.158,0-2.158,1.263a1.069,1.069,0,0,0,.368.863A1.415,1.415,0,0,0,61.871,13.1Zm6.056.9H66.752V4.25h1.174ZM70.91,7.132l.032.762A2.536,2.536,0,0,1,72.979,7a1.964,1.964,0,0,1,1.961,1.1,2.6,2.6,0,0,1,.892-.8,2.634,2.634,0,0,1,1.3-.3q2.26,0,2.3,2.393V14H78.254V9.468a1.577,1.577,0,0,0-.336-1.1A1.482,1.482,0,0,0,76.788,8a1.557,1.557,0,0,0-1.085.39,1.584,1.584,0,0,0-.5,1.051V14H74.02V9.5A1.31,1.31,0,0,0,72.554,8a1.571,1.571,0,0,0-1.581.984V14H69.8V7.132ZM85.439,14a2.467,2.467,0,0,1-.165-.724,2.62,2.62,0,0,1-1.955.851,2.424,2.424,0,0,1-1.666-.574A1.859,1.859,0,0,1,81,12.1a1.942,1.942,0,0,1,.816-1.666,3.846,3.846,0,0,1,2.295-.594h1.143V9.3a1.319,1.319,0,0,0-.368-.981A1.48,1.48,0,0,0,83.8,7.951a1.712,1.712,0,0,0-1.054.317.935.935,0,0,0-.425.768H81.142a1.621,1.621,0,0,1,.365-.993,2.491,2.491,0,0,1,.99-.759A3.331,3.331,0,0,1,83.872,7a2.715,2.715,0,0,1,1.86.594,2.141,2.141,0,0,1,.7,1.635v3.161a3.865,3.865,0,0,0,.241,1.5V14Zm-1.949-.9a2.064,2.064,0,0,0,1.047-.286,1.728,1.728,0,0,0,.717-.743V10.667h-.92q-2.158,0-2.158,1.263a1.069,1.069,0,0,0,.368.863A1.415,1.415,0,0,0,83.491,13.1Zm7.535.063a1.691,1.691,0,0,0,1.1-.381,1.34,1.34,0,0,0,.521-.952h1.111a2.13,2.13,0,0,1-.406,1.124,2.676,2.676,0,0,1-1,.851,2.885,2.885,0,0,1-1.323.317,2.829,2.829,0,0,1-2.231-.936,3.729,3.729,0,0,1-.828-2.561v-.2a4.135,4.135,0,0,1,.368-1.784,2.8,2.8,0,0,1,1.057-1.212A3,3,0,0,1,91.019,7a2.755,2.755,0,0,1,1.92.692,2.473,2.473,0,0,1,.816,1.8H92.644a1.618,1.618,0,0,0-.5-1.095,1.57,1.57,0,0,0-1.12-.428,1.644,1.644,0,0,0-1.387.644,3.026,3.026,0,0,0-.492,1.863V10.7a2.966,2.966,0,0,0,.489,1.828A1.651,1.651,0,0,0,91.025,13.168Zm6.9.958a3,3,0,0,1-2.272-.917,3.4,3.4,0,0,1-.876-2.453v-.216a4.121,4.121,0,0,1,.39-1.825,3.045,3.045,0,0,1,1.092-1.257A2.745,2.745,0,0,1,97.779,7a2.572,2.572,0,0,1,2.082.882,3.82,3.82,0,0,1,.743,2.526V10.9H95.951a2.441,2.441,0,0,0,.594,1.641,1.866,1.866,0,0,0,1.444.625,2.045,2.045,0,0,0,1.054-.254,2.648,2.648,0,0,0,.755-.673l.717.559A2.884,2.884,0,0,1,97.925,14.127ZM97.779,7.97a1.566,1.566,0,0,0-1.193.517,2.515,2.515,0,0,0-.6,1.45h3.44V9.849a2.237,2.237,0,0,0-.482-1.387A1.475,1.475,0,0,0,97.779,7.97Zm5.294-.838.038.863A2.5,2.5,0,0,1,105.168,7q2.177,0,2.2,2.457V14H106.19V9.455a1.581,1.581,0,0,0-.34-1.1A1.361,1.361,0,0,0,104.813,8a1.7,1.7,0,0,0-1,.3,2.069,2.069,0,0,0-.673.8V14h-1.174V7.132ZM113.375,14a2.467,2.467,0,0,1-.165-.724,2.62,2.62,0,0,1-1.955.851,2.424,2.424,0,0,1-1.666-.574,1.859,1.859,0,0,1-.651-1.457,1.942,1.942,0,0,1,.816-1.666,3.846,3.846,0,0,1,2.295-.594h1.143V9.3a1.319,1.319,0,0,0-.368-.981,1.48,1.48,0,0,0-1.085-.365,1.712,1.712,0,0,0-1.054.317.935.935,0,0,0-.425.768h-1.181a1.621,1.621,0,0,1,.365-.993,2.491,2.491,0,0,1,.99-.759A3.331,3.331,0,0,1,111.808,7a2.715,2.715,0,0,1,1.86.594,2.141,2.141,0,0,1,.7,1.635v3.161a3.865,3.865,0,0,0,.241,1.5V14Zm-1.949-.9a2.064,2.064,0,0,0,1.047-.286,1.728,1.728,0,0,0,.717-.743V10.667h-.92q-2.158,0-2.158,1.263a1.069,1.069,0,0,0,.368.863A1.415,1.415,0,0,0,111.427,13.1Zm8.1-4.919a3.519,3.519,0,0,0-.578-.044,1.547,1.547,0,0,0-1.568.984V14h-1.174V7.132h1.143l.019.793A1.829,1.829,0,0,1,119.006,7a1.2,1.2,0,0,1,.521.089Zm5.078,3.993a.864.864,0,0,0-.359-.74,3.452,3.452,0,0,0-1.25-.454,5.912,5.912,0,0,1-1.416-.457,2.014,2.014,0,0,1-.774-.635,1.518,1.518,0,0,1-.251-.876,1.782,1.782,0,0,1,.714-1.428A2.789,2.789,0,0,1,123.094,7a2.87,2.87,0,0,1,1.895.6,1.915,1.915,0,0,1,.727,1.542h-1.181a1.06,1.06,0,0,0-.409-.832,1.534,1.534,0,0,0-1.031-.349,1.606,1.606,0,0,0-1,.279.879.879,0,0,0-.362.73.712.712,0,0,0,.336.641,4.139,4.139,0,0,0,1.216.413,6.334,6.334,0,0,1,1.425.47,2.079,2.079,0,0,1,.809.657,1.615,1.615,0,0,1,.263.936,1.758,1.758,0,0,1-.736,1.476,3.089,3.089,0,0,1-1.911.555,3.459,3.459,0,0,1-1.46-.292,2.375,2.375,0,0,1-.993-.816,1.966,1.966,0,0,1-.359-1.133h1.174a1.216,1.216,0,0,0,.473.936,1.835,1.835,0,0,0,1.165.346,1.894,1.894,0,0,0,1.07-.27A.829.829,0,0,0,124.6,12.178Zm5.554,1.949a3,3,0,0,1-2.272-.917,3.4,3.4,0,0,1-.876-2.453v-.216a4.121,4.121,0,0,1,.39-1.825,3.045,3.045,0,0,1,1.092-1.257A2.745,2.745,0,0,1,130.013,7a2.572,2.572,0,0,1,2.082.882,3.82,3.82,0,0,1,.743,2.526V10.9h-4.653a2.441,2.441,0,0,0,.594,1.641,1.866,1.866,0,0,0,1.444.625,2.045,2.045,0,0,0,1.054-.254,2.647,2.647,0,0,0,.755-.673l.717.559A2.884,2.884,0,0,1,130.159,14.127Zm-.146-6.157a1.566,1.566,0,0,0-1.193.517,2.515,2.515,0,0,0-.6,1.45h3.44V9.849a2.237,2.237,0,0,0-.482-1.387A1.475,1.475,0,0,0,130.013,7.97Zm8.614-.838v7.662q0,1.98-1.8,1.98a2.191,2.191,0,0,1-.717-.114v-.934a2.27,2.27,0,0,0,.533.051.8.8,0,0,0,.6-.213,1.052,1.052,0,0,0,.206-.74V7.132ZM137.332,5.31a.7.7,0,0,1,.175-.479.642.642,0,0,1,.511-.2.666.666,0,0,1,.521.2.694.694,0,0,1,.178.482.671.671,0,0,1-.178.476.678.678,0,0,1-.521.19.657.657,0,0,1-.514-.19A.685.685,0,0,1,137.332,5.31Zm7.427,8.011a2.494,2.494,0,0,1-2.012.806,2.135,2.135,0,0,1-1.673-.638,2.761,2.761,0,0,1-.581-1.888V7.132h1.174v4.437q0,1.562,1.27,1.562a1.758,1.758,0,0,0,1.79-1v-5H145.9V14h-1.117ZM148.8,7.132l.038.863A2.5,2.5,0,0,1,150.89,7q2.177,0,2.2,2.457V14h-1.174V9.455a1.581,1.581,0,0,0-.34-1.1A1.361,1.361,0,0,0,150.535,8a1.7,1.7,0,0,0-1,.3,2.069,2.069,0,0,0-.673.8V14h-1.174V7.132Zm7.655-1.663V7.132h1.282V8.04h-1.282V12.3a.953.953,0,0,0,.171.62.721.721,0,0,0,.584.207,2.843,2.843,0,0,0,.559-.076V14a3.424,3.424,0,0,1-.9.126,1.462,1.462,0,0,1-1.187-.476,2.045,2.045,0,0,1-.4-1.352V8.04h-1.25V7.132h1.25V5.469ZM163.344,14a2.467,2.467,0,0,1-.165-.724,2.62,2.62,0,0,1-1.955.851,2.424,2.424,0,0,1-1.666-.574,1.859,1.859,0,0,1-.651-1.457,1.942,1.942,0,0,1,.816-1.666,3.846,3.846,0,0,1,2.295-.594h1.143V9.3a1.319,1.319,0,0,0-.368-.981,1.48,1.48,0,0,0-1.085-.365,1.712,1.712,0,0,0-1.054.317.935.935,0,0,0-.425.768h-1.181a1.621,1.621,0,0,1,.365-.993,2.491,2.491,0,0,1,.99-.759A3.331,3.331,0,0,1,161.776,7a2.715,2.715,0,0,1,1.86.594,2.141,2.141,0,0,1,.7,1.635v3.161a3.865,3.865,0,0,0,.241,1.5V14Zm-1.949-.9a2.064,2.064,0,0,0,1.047-.286,1.728,1.728,0,0,0,.717-.743V10.667h-.92q-2.158,0-2.158,1.263a1.069,1.069,0,0,0,.368.863A1.415,1.415,0,0,0,161.4,13.1Zm8.779-.927a.865.865,0,0,0-.359-.74,3.452,3.452,0,0,0-1.25-.454,5.912,5.912,0,0,1-1.416-.457,2.014,2.014,0,0,1-.774-.635,1.518,1.518,0,0,1-.251-.876,1.782,1.782,0,0,1,.714-1.428A2.789,2.789,0,0,1,168.664,7a2.87,2.87,0,0,1,1.895.6,1.915,1.915,0,0,1,.727,1.542H170.1a1.06,1.06,0,0,0-.409-.832,1.534,1.534,0,0,0-1.031-.349,1.605,1.605,0,0,0-1,.279.879.879,0,0,0-.362.73.712.712,0,0,0,.336.641,4.139,4.139,0,0,0,1.216.413,6.334,6.334,0,0,1,1.425.47,2.079,2.079,0,0,1,.809.657,1.615,1.615,0,0,1,.263.936,1.758,1.758,0,0,1-.736,1.476,3.089,3.089,0,0,1-1.911.555,3.459,3.459,0,0,1-1.46-.292,2.375,2.375,0,0,1-.993-.816,1.966,1.966,0,0,1-.359-1.133h1.174a1.216,1.216,0,0,0,.473.936,1.835,1.835,0,0,0,1.165.346,1.894,1.894,0,0,0,1.07-.27A.829.829,0,0,0,170.174,12.178Z" transform="translate(93 253.453)"/>
      <path id="Trazado_102626" data-name="Trazado 102626" d="M3.8,9.88A5.731,5.731,0,0,1,1.514,8.773,2.116,2.116,0,0,1,.8,7.151a2.236,2.236,0,0,1,.873-1.806,3.469,3.469,0,0,1,2.269-.714A3.786,3.786,0,0,1,5.64,5,2.792,2.792,0,0,1,6.8,6.015,2.6,2.6,0,0,1,7.2,7.43H5.979a1.69,1.69,0,0,0-.533-1.322,2.168,2.168,0,0,0-1.5-.481,2.22,2.22,0,0,0-1.406.4,1.326,1.326,0,0,0-.5,1.1,1.193,1.193,0,0,0,.479.957A4.7,4.7,0,0,0,4.142,8.8a7.569,7.569,0,0,1,1.8.715,2.736,2.736,0,0,1,.965.911,2.325,2.325,0,0,1,.314,1.225,2.159,2.159,0,0,1-.876,1.8,3.735,3.735,0,0,1-2.342.676,4.344,4.344,0,0,1-1.777-.365,2.991,2.991,0,0,1-1.273-1,2.44,2.44,0,0,1-.448-1.441H1.733a1.592,1.592,0,0,0,.619,1.323,2.606,2.606,0,0,0,1.654.486,2.4,2.4,0,0,0,1.479-.394A1.278,1.278,0,0,0,6,11.664a1.255,1.255,0,0,0-.476-1.051A5.489,5.489,0,0,0,3.8,9.88Zm7.655,4.247a3,3,0,0,1-2.272-.917A3.4,3.4,0,0,1,8.3,10.756v-.216a4.121,4.121,0,0,1,.39-1.825A3.045,3.045,0,0,1,9.785,7.459,2.745,2.745,0,0,1,11.305,7a2.572,2.572,0,0,1,2.082.882,3.82,3.82,0,0,1,.743,2.526V10.9H9.477a2.441,2.441,0,0,0,.594,1.641,1.866,1.866,0,0,0,1.444.625,2.045,2.045,0,0,0,1.054-.254,2.648,2.648,0,0,0,.755-.673l.717.559A2.884,2.884,0,0,1,11.451,14.127ZM11.305,7.97a1.566,1.566,0,0,0-1.193.517,2.515,2.515,0,0,0-.6,1.45h3.44V9.849a2.237,2.237,0,0,0-.482-1.387A1.475,1.475,0,0,0,11.305,7.97Zm13.2,2.672a4.113,4.113,0,0,1-.717,2.526,2.3,2.3,0,0,1-1.942.958,2.519,2.519,0,0,1-1.968-.793v3.307H18.707V7.132h1.073l.057.762A2.419,2.419,0,0,1,21.83,7a2.342,2.342,0,0,1,1.958.933,4.157,4.157,0,0,1,.72,2.6Zm-1.174-.133a3.035,3.035,0,0,0-.5-1.834A1.6,1.6,0,0,0,21.48,8a1.726,1.726,0,0,0-1.6.946v3.282a1.73,1.73,0,0,0,1.612.939,1.587,1.587,0,0,0,1.343-.67A3.312,3.312,0,0,0,23.334,10.509Zm6.906,2.812a2.494,2.494,0,0,1-2.012.806,2.135,2.135,0,0,1-1.673-.638,2.761,2.761,0,0,1-.581-1.888V7.132h1.174v4.437q0,1.562,1.27,1.562a1.758,1.758,0,0,0,1.79-1v-5h1.174V14H30.266Zm5.776.806a3,3,0,0,1-2.272-.917,3.4,3.4,0,0,1-.876-2.453v-.216a4.121,4.121,0,0,1,.39-1.825A3.045,3.045,0,0,1,34.35,7.459,2.745,2.745,0,0,1,35.871,7a2.572,2.572,0,0,1,2.082.882,3.82,3.82,0,0,1,.743,2.526V10.9H34.042a2.441,2.441,0,0,0,.594,1.641,1.866,1.866,0,0,0,1.444.625,2.045,2.045,0,0,0,1.054-.254,2.648,2.648,0,0,0,.755-.673l.717.559A2.884,2.884,0,0,1,36.017,14.127ZM35.871,7.97a1.566,1.566,0,0,0-1.193.517,2.515,2.515,0,0,0-.6,1.45h3.44V9.849a2.237,2.237,0,0,0-.482-1.387A1.475,1.475,0,0,0,35.871,7.97Zm3.9,2.539a4.023,4.023,0,0,1,.749-2.542,2.548,2.548,0,0,1,3.872-.136V4.25h1.174V14H44.484l-.057-.736a2.391,2.391,0,0,1-1.961.863,2.346,2.346,0,0,1-1.946-.978,4.069,4.069,0,0,1-.752-2.552Zm1.174.133a3.046,3.046,0,0,0,.482,1.828,1.56,1.56,0,0,0,1.333.66,1.713,1.713,0,0,0,1.631-1V8.973A1.726,1.726,0,0,0,42.771,8a1.567,1.567,0,0,0-1.346.667A3.354,3.354,0,0,0,40.942,10.642Zm9.293,3.485a3,3,0,0,1-2.272-.917,3.4,3.4,0,0,1-.876-2.453v-.216a4.121,4.121,0,0,1,.39-1.825,3.045,3.045,0,0,1,1.092-1.257A2.745,2.745,0,0,1,50.089,7a2.572,2.572,0,0,1,2.082.882,3.82,3.82,0,0,1,.743,2.526V10.9H48.261a2.441,2.441,0,0,0,.594,1.641,1.866,1.866,0,0,0,1.444.625,2.045,2.045,0,0,0,1.054-.254,2.648,2.648,0,0,0,.755-.673l.717.559A2.884,2.884,0,0,1,50.235,14.127ZM50.089,7.97a1.566,1.566,0,0,0-1.193.517,2.515,2.515,0,0,0-.6,1.45h3.44V9.849a2.237,2.237,0,0,0-.482-1.387A1.475,1.475,0,0,0,50.089,7.97Zm5.294-.838L55.421,8A2.5,2.5,0,0,1,57.478,7q2.177,0,2.2,2.457V14H58.5V9.455a1.581,1.581,0,0,0-.34-1.1A1.361,1.361,0,0,0,57.123,8a1.7,1.7,0,0,0-1,.3,2.069,2.069,0,0,0-.673.8V14H54.272V7.132ZM68.9,14a2.467,2.467,0,0,1-.165-.724,2.62,2.62,0,0,1-1.955.851,2.424,2.424,0,0,1-1.666-.574,1.859,1.859,0,0,1-.651-1.457,1.942,1.942,0,0,1,.816-1.666,3.846,3.846,0,0,1,2.295-.594H68.72V9.3a1.319,1.319,0,0,0-.368-.981,1.48,1.48,0,0,0-1.085-.365,1.712,1.712,0,0,0-1.054.317.935.935,0,0,0-.425.768H64.606a1.621,1.621,0,0,1,.365-.993,2.491,2.491,0,0,1,.99-.759A3.331,3.331,0,0,1,67.336,7,2.715,2.715,0,0,1,69.2,7.6a2.141,2.141,0,0,1,.7,1.635v3.161a3.865,3.865,0,0,0,.241,1.5V14Zm-1.949-.9A2.064,2.064,0,0,0,68,12.819a1.728,1.728,0,0,0,.717-.743V10.667H67.8q-2.158,0-2.158,1.263a1.069,1.069,0,0,0,.368.863A1.415,1.415,0,0,0,66.955,13.1Zm6.056.9H71.836V4.25h1.174Zm2.983-6.868.032.762A2.536,2.536,0,0,1,78.063,7a1.964,1.964,0,0,1,1.961,1.1,2.6,2.6,0,0,1,.892-.8,2.634,2.634,0,0,1,1.3-.3q2.26,0,2.3,2.393V14H83.338V9.468A1.577,1.577,0,0,0,83,8.366,1.482,1.482,0,0,0,81.872,8a1.557,1.557,0,0,0-1.085.39,1.584,1.584,0,0,0-.5,1.051V14H79.1V9.5A1.31,1.31,0,0,0,77.638,8a1.571,1.571,0,0,0-1.581.984V14H74.883V7.132ZM90.524,14a2.467,2.467,0,0,1-.165-.724,2.62,2.62,0,0,1-1.955.851,2.424,2.424,0,0,1-1.666-.574,1.859,1.859,0,0,1-.651-1.457,1.942,1.942,0,0,1,.816-1.666A3.846,3.846,0,0,1,89.2,9.836H90.34V9.3a1.319,1.319,0,0,0-.368-.981,1.48,1.48,0,0,0-1.085-.365,1.712,1.712,0,0,0-1.054.317.935.935,0,0,0-.425.768H86.227a1.621,1.621,0,0,1,.365-.993,2.491,2.491,0,0,1,.99-.759A3.331,3.331,0,0,1,88.956,7a2.715,2.715,0,0,1,1.86.594,2.141,2.141,0,0,1,.7,1.635v3.161a3.865,3.865,0,0,0,.241,1.5V14Zm-1.949-.9a2.064,2.064,0,0,0,1.047-.286,1.728,1.728,0,0,0,.717-.743V10.667h-.92q-2.158,0-2.158,1.263a1.069,1.069,0,0,0,.368.863A1.415,1.415,0,0,0,88.575,13.1Zm7.535.063a1.691,1.691,0,0,0,1.1-.381,1.34,1.34,0,0,0,.521-.952h1.111a2.13,2.13,0,0,1-.406,1.124,2.676,2.676,0,0,1-1,.851,2.885,2.885,0,0,1-1.323.317,2.829,2.829,0,0,1-2.231-.936,3.729,3.729,0,0,1-.828-2.561v-.2a4.135,4.135,0,0,1,.368-1.784,2.8,2.8,0,0,1,1.057-1.212A3,3,0,0,1,96.1,7a2.755,2.755,0,0,1,1.92.692,2.473,2.473,0,0,1,.816,1.8H97.729a1.618,1.618,0,0,0-.5-1.095A1.57,1.57,0,0,0,96.1,7.97a1.644,1.644,0,0,0-1.387.644,3.026,3.026,0,0,0-.492,1.863V10.7a2.966,2.966,0,0,0,.489,1.828A1.651,1.651,0,0,0,96.11,13.168Zm6.9.958a3,3,0,0,1-2.272-.917,3.4,3.4,0,0,1-.876-2.453v-.216a4.121,4.121,0,0,1,.39-1.825,3.045,3.045,0,0,1,1.092-1.257A2.745,2.745,0,0,1,102.864,7a2.572,2.572,0,0,1,2.082.882,3.82,3.82,0,0,1,.743,2.526V10.9h-4.653a2.441,2.441,0,0,0,.594,1.641,1.866,1.866,0,0,0,1.444.625,2.045,2.045,0,0,0,1.054-.254,2.648,2.648,0,0,0,.755-.673l.717.559A2.884,2.884,0,0,1,103.01,14.127Zm-.146-6.157a1.566,1.566,0,0,0-1.193.517,2.515,2.515,0,0,0-.6,1.45h3.44V9.849a2.237,2.237,0,0,0-.482-1.387A1.475,1.475,0,0,0,102.864,7.97Zm5.294-.838L108.2,8A2.5,2.5,0,0,1,110.252,7q2.177,0,2.2,2.457V14h-1.174V9.455a1.581,1.581,0,0,0-.34-1.1A1.361,1.361,0,0,0,109.9,8a1.7,1.7,0,0,0-1,.3,2.069,2.069,0,0,0-.673.8V14h-1.174V7.132ZM118.46,14a2.467,2.467,0,0,1-.165-.724,2.62,2.62,0,0,1-1.955.851,2.424,2.424,0,0,1-1.666-.574,1.859,1.859,0,0,1-.651-1.457,1.942,1.942,0,0,1,.816-1.666,3.846,3.846,0,0,1,2.295-.594h1.143V9.3a1.319,1.319,0,0,0-.368-.981,1.48,1.48,0,0,0-1.085-.365,1.712,1.712,0,0,0-1.054.317.935.935,0,0,0-.425.768h-1.181a1.621,1.621,0,0,1,.365-.993,2.491,2.491,0,0,1,.99-.759A3.331,3.331,0,0,1,116.892,7a2.715,2.715,0,0,1,1.86.594,2.141,2.141,0,0,1,.7,1.635v3.161a3.865,3.865,0,0,0,.241,1.5V14Zm-1.949-.9a2.064,2.064,0,0,0,1.047-.286,1.728,1.728,0,0,0,.717-.743V10.667h-.92q-2.158,0-2.158,1.263a1.069,1.069,0,0,0,.368.863A1.415,1.415,0,0,0,116.511,13.1Zm8.1-4.919a3.519,3.519,0,0,0-.578-.044,1.547,1.547,0,0,0-1.568.984V14h-1.174V7.132h1.143l.019.793A1.829,1.829,0,0,1,124.09,7a1.2,1.2,0,0,1,.521.089Zm5.51-1.054v7.662q0,1.98-1.8,1.98a2.191,2.191,0,0,1-.717-.114v-.934a2.27,2.27,0,0,0,.533.051.8.8,0,0,0,.6-.213,1.052,1.052,0,0,0,.206-.74V7.132ZM128.826,5.31A.7.7,0,0,1,129,4.831a.642.642,0,0,1,.511-.2.666.666,0,0,1,.521.2.694.694,0,0,1,.178.482.671.671,0,0,1-.178.476.678.678,0,0,1-.521.19.657.657,0,0,1-.514-.19A.685.685,0,0,1,128.826,5.31Zm7.427,8.011a2.494,2.494,0,0,1-2.012.806,2.135,2.135,0,0,1-1.673-.638,2.761,2.761,0,0,1-.581-1.888V7.132h1.174v4.437q0,1.562,1.27,1.562a1.758,1.758,0,0,0,1.79-1v-5H137.4V14h-1.117Zm4.037-6.189.038.863A2.5,2.5,0,0,1,142.384,7q2.177,0,2.2,2.457V14h-1.174V9.455a1.581,1.581,0,0,0-.34-1.1A1.361,1.361,0,0,0,142.029,8a1.7,1.7,0,0,0-1,.3,2.069,2.069,0,0,0-.673.8V14h-1.174V7.132Zm7.655-1.663V7.132h1.282V8.04h-1.282V12.3a.953.953,0,0,0,.171.62.721.721,0,0,0,.584.207,2.843,2.843,0,0,0,.559-.076V14a3.424,3.424,0,0,1-.9.126,1.462,1.462,0,0,1-1.187-.476,2.045,2.045,0,0,1-.4-1.352V8.04h-1.25V7.132h1.25V5.469ZM150.16,10.5a4.057,4.057,0,0,1,.4-1.815,2.959,2.959,0,0,1,1.1-1.244A3.007,3.007,0,0,1,153.277,7a2.9,2.9,0,0,1,2.269.971,3.736,3.736,0,0,1,.866,2.583v.083a4.092,4.092,0,0,1-.384,1.8,2.916,2.916,0,0,1-1.1,1.241,3.041,3.041,0,0,1-1.641.444,2.889,2.889,0,0,1-2.263-.971,3.718,3.718,0,0,1-.866-2.571Zm1.181.14a2.938,2.938,0,0,0,.53,1.834,1.8,1.8,0,0,0,2.841-.01,3.213,3.213,0,0,0,.527-1.965,2.933,2.933,0,0,0-.536-1.831,1.705,1.705,0,0,0-1.425-.7,1.686,1.686,0,0,0-1.4.692A3.189,3.189,0,0,0,151.341,10.642Zm10.543,1.536a.865.865,0,0,0-.359-.74,3.452,3.452,0,0,0-1.25-.454,5.912,5.912,0,0,1-1.416-.457,2.014,2.014,0,0,1-.774-.635,1.518,1.518,0,0,1-.251-.876,1.782,1.782,0,0,1,.714-1.428A2.789,2.789,0,0,1,160.374,7a2.87,2.87,0,0,1,1.895.6A1.915,1.915,0,0,1,163,9.15h-1.181a1.06,1.06,0,0,0-.409-.832,1.534,1.534,0,0,0-1.031-.349,1.605,1.605,0,0,0-1,.279.879.879,0,0,0-.362.73.712.712,0,0,0,.336.641,4.139,4.139,0,0,0,1.216.413,6.334,6.334,0,0,1,1.425.47,2.079,2.079,0,0,1,.809.657,1.615,1.615,0,0,1,.263.936,1.758,1.758,0,0,1-.736,1.476,3.089,3.089,0,0,1-1.911.555,3.459,3.459,0,0,1-1.46-.292,2.375,2.375,0,0,1-.993-.816,1.966,1.966,0,0,1-.359-1.133h1.174a1.216,1.216,0,0,0,.473.936,1.835,1.835,0,0,0,1.165.346,1.894,1.894,0,0,0,1.07-.27A.829.829,0,0,0,161.884,12.178Z" transform="translate(93 36.703)"/>
    </g>
    <path id="Trazado_102629" data-name="Trazado 102629" d="M100.583,6.2l2.856,8.9,2.848-8.9h4.061V19h-3.094V16.012l.3-6.117L104.459,19H102.42l-3.1-9.114.3,6.126V19H96.532V6.2ZM117.529,19a3.344,3.344,0,0,1-.281-.853,2.754,2.754,0,0,1-2.285,1.028,3.374,3.374,0,0,1-2.285-.813,2.588,2.588,0,0,1-.94-2.043,2.66,2.66,0,0,1,1.143-2.338,5.821,5.821,0,0,1,3.322-.791h.914v-.5q0-1.316-1.134-1.316a.927.927,0,0,0-1.055,1.042h-2.962a2.655,2.655,0,0,1,1.173-2.239,4.931,4.931,0,0,1,2.993-.86,4.323,4.323,0,0,1,2.874.888,3.086,3.086,0,0,1,1.081,2.435v4.21a4.311,4.311,0,0,0,.4,2V19Zm-1.854-1.934a1.652,1.652,0,0,0,.918-.237,1.487,1.487,0,0,0,.523-.536V14.772h-.861q-1.547,0-1.547,1.389a.848.848,0,0,0,.272.655A.986.986,0,0,0,115.674,17.066Zm9.5-9.94V9.49h1.564v2.057h-1.564V15.9a1.111,1.111,0,0,0,.193.747,1.037,1.037,0,0,0,.765.211,4.345,4.345,0,0,0,.738-.053v2.118a5.466,5.466,0,0,1-1.67.255,3.1,3.1,0,0,1-2.259-.721,2.954,2.954,0,0,1-.729-2.188v-4.72H121V9.49h1.213V7.126Zm8.481,5.045-.976-.07a1.752,1.752,0,0,0-1.793.879V19h-2.962V9.49H130.7l.1,1.222a2.294,2.294,0,0,1,2.083-1.4,2.888,2.888,0,0,1,.826.105ZM137.849,19h-2.971V9.49h2.971ZM134.7,7.038A1.322,1.322,0,0,1,135.16,6a1.943,1.943,0,0,1,2.373,0,1.322,1.322,0,0,1,.457,1.037,1.322,1.322,0,0,1-.457,1.037,1.943,1.943,0,0,1-2.373,0A1.322,1.322,0,0,1,134.7,7.038Zm8.464,9.677H147.5V19h-8.077V17.348l4.219-5.572h-4.034V9.49h7.8v1.6Zm9.879-2.54a5.809,5.809,0,0,1,.976-3.56,3.211,3.211,0,0,1,2.725-1.3,2.731,2.731,0,0,1,2.145,1V5.5h2.971V19H159.2l-.149-1.02a2.8,2.8,0,0,1-2.32,1.2,3.205,3.205,0,0,1-2.689-1.3A5.993,5.993,0,0,1,153.045,14.175Zm2.962.185q0,2.531,1.477,2.531a1.458,1.458,0,0,0,1.406-.826V12.443A1.419,1.419,0,0,0,157.5,11.6q-1.371,0-1.485,2.215Zm12.138,4.816a4.889,4.889,0,0,1-3.542-1.305,4.507,4.507,0,0,1-1.354-3.4v-.246a5.84,5.84,0,0,1,.541-2.575,3.955,3.955,0,0,1,1.578-1.727,4.763,4.763,0,0,1,2.461-.611,4.117,4.117,0,0,1,3.164,1.244,4.887,4.887,0,0,1,1.16,3.467v1.151h-5.889a2.135,2.135,0,0,0,.694,1.257,2.066,2.066,0,0,0,1.389.457,2.662,2.662,0,0,0,2.2-.984l1.354,1.6a3.784,3.784,0,0,1-1.569,1.217A5.3,5.3,0,0,1,168.145,19.176Zm-.334-7.576q-1.3,0-1.547,1.723h2.988v-.229a1.467,1.467,0,0,0-.36-1.1A1.434,1.434,0,0,0,167.811,11.6Zm18.844,2.716a5.735,5.735,0,0,1-1,3.538,3.2,3.2,0,0,1-2.694,1.323,2.742,2.742,0,0,1-2.153-.958v4.438h-2.962V9.49h2.769l.088.879a2.742,2.742,0,0,1,2.241-1.055,3.224,3.224,0,0,1,2.733,1.3,5.805,5.805,0,0,1,.976,3.564Zm-2.962-.185q0-2.531-1.477-2.531a1.394,1.394,0,0,0-1.406.756V16.1a1.439,1.439,0,0,0,1.424.791q1.415,0,1.459-2.443Zm10.02-1.96-.976-.07a1.752,1.752,0,0,0-1.793.879V19h-2.962V9.49h2.777l.1,1.222a2.294,2.294,0,0,1,2.083-1.4,2.888,2.888,0,0,1,.826.105Zm.378,1.986a5.613,5.613,0,0,1,.554-2.536,3.96,3.96,0,0,1,1.591-1.709,4.791,4.791,0,0,1,2.435-.6,4.373,4.373,0,0,1,3.366,1.323,5.076,5.076,0,0,1,1.23,3.6v.105a4.925,4.925,0,0,1-1.235,3.529,4.384,4.384,0,0,1-3.344,1.305,4.434,4.434,0,0,1-3.261-1.217,4.761,4.761,0,0,1-1.327-3.3Zm2.962.185a3.538,3.538,0,0,0,.413,1.934,1.376,1.376,0,0,0,1.222.615q1.582,0,1.617-2.435v-.3q0-2.558-1.635-2.558-1.485,0-1.608,2.206Zm7.146-.167a5.809,5.809,0,0,1,.976-3.56,3.211,3.211,0,0,1,2.725-1.3,2.731,2.731,0,0,1,2.145,1V5.5h2.971V19H210.35l-.149-1.02a2.8,2.8,0,0,1-2.32,1.2,3.205,3.205,0,0,1-2.689-1.3A5.993,5.993,0,0,1,204.2,14.175Zm2.962.185q0,2.531,1.477,2.531a1.458,1.458,0,0,0,1.406-.826V12.443a1.419,1.419,0,0,0-1.389-.844q-1.371,0-1.485,2.215Zm13.2,3.612a3.054,3.054,0,0,1-2.54,1.2,3,3,0,0,1-2.369-.91,3.826,3.826,0,0,1-.8-2.615V9.49h2.962v6.179a1.065,1.065,0,0,0,1.187,1.222,1.548,1.548,0,0,0,1.45-.729V9.49h2.979V19h-2.777Zm8.508-1.081a1.317,1.317,0,0,0,.967-.338,1.241,1.241,0,0,0,.334-.945h2.777a3.288,3.288,0,0,1-1.121,2.566,4.168,4.168,0,0,1-2.887,1,4.22,4.22,0,0,1-3.27-1.3,5.125,5.125,0,0,1-1.2-3.6v-.123a5.792,5.792,0,0,1,.532-2.544,3.872,3.872,0,0,1,1.534-1.7,4.573,4.573,0,0,1,2.373-.593,4.116,4.116,0,0,1,2.944,1.028,3.647,3.647,0,0,1,1.09,2.786h-2.777a1.626,1.626,0,0,0-.36-1.134,1.244,1.244,0,0,0-.967-.4q-1.151,0-1.345,1.468a10.357,10.357,0,0,0-.062,1.283,4.068,4.068,0,0,0,.343,1.986A1.187,1.187,0,0,0,228.869,16.891Zm8.78-9.765V9.49h1.564v2.057h-1.564V15.9a1.111,1.111,0,0,0,.193.747,1.037,1.037,0,0,0,.765.211,4.345,4.345,0,0,0,.738-.053v2.118a5.466,5.466,0,0,1-1.67.255,3.1,3.1,0,0,1-2.259-.721,2.954,2.954,0,0,1-.729-2.188v-4.72h-1.213V9.49h1.213V7.126Zm2.092,7.031a5.613,5.613,0,0,1,.554-2.536,3.96,3.96,0,0,1,1.591-1.709,4.791,4.791,0,0,1,2.435-.6,4.373,4.373,0,0,1,3.366,1.323,5.076,5.076,0,0,1,1.23,3.6v.105a4.925,4.925,0,0,1-1.235,3.529,4.384,4.384,0,0,1-3.344,1.305,4.434,4.434,0,0,1-3.261-1.217,4.761,4.761,0,0,1-1.327-3.3Zm2.962.185a3.538,3.538,0,0,0,.413,1.934,1.376,1.376,0,0,0,1.222.615q1.582,0,1.617-2.435v-.3q0-2.558-1.635-2.558-1.485,0-1.608,2.206Zm12.5,1.986a.684.684,0,0,0-.4-.606,6.016,6.016,0,0,0-1.5-.475,6.853,6.853,0,0,1-1.828-.646,3.062,3.062,0,0,1-1.1-.971A2.319,2.319,0,0,1,250,12.32a2.628,2.628,0,0,1,1.081-2.158,4.453,4.453,0,0,1,2.83-.848,4.934,4.934,0,0,1,3.023.853,2.666,2.666,0,0,1,1.143,2.241H255.1q0-1.143-1.2-1.143a1.194,1.194,0,0,0-.782.259.8.8,0,0,0-.316.646.737.737,0,0,0,.387.642,3.654,3.654,0,0,0,1.235.4,10.671,10.671,0,0,1,1.49.378,2.706,2.706,0,0,1,2.145,2.646,2.491,2.491,0,0,1-1.156,2.118,5.068,5.068,0,0,1-2.993.817,5.172,5.172,0,0,1-2.18-.439,3.645,3.645,0,0,1-1.494-1.2,2.707,2.707,0,0,1-.536-1.591h2.769a1.145,1.145,0,0,0,.439.962,1.808,1.808,0,0,0,1.081.3,1.422,1.422,0,0,0,.91-.246A.787.787,0,0,0,255.2,16.328Zm17.552-2.013a5.735,5.735,0,0,1-1,3.538,3.2,3.2,0,0,1-2.694,1.323,2.742,2.742,0,0,1-2.153-.958v4.438h-2.962V9.49h2.769l.088.879a2.742,2.742,0,0,1,2.241-1.055,3.224,3.224,0,0,1,2.733,1.3,5.805,5.805,0,0,1,.976,3.564Zm-2.962-.185q0-2.531-1.477-2.531a1.394,1.394,0,0,0-1.406.756V16.1a1.439,1.439,0,0,0,1.424.791q1.415,0,1.459-2.443Zm8.868,5.045a4.889,4.889,0,0,1-3.542-1.305,4.507,4.507,0,0,1-1.354-3.4v-.246a5.84,5.84,0,0,1,.541-2.575,3.955,3.955,0,0,1,1.578-1.727,4.763,4.763,0,0,1,2.461-.611,4.117,4.117,0,0,1,3.164,1.244,4.887,4.887,0,0,1,1.16,3.467v1.151h-5.889a2.135,2.135,0,0,0,.694,1.257,2.066,2.066,0,0,0,1.389.457,2.662,2.662,0,0,0,2.2-.984l1.354,1.6a3.784,3.784,0,0,1-1.569,1.217A5.3,5.3,0,0,1,278.659,19.176Zm-.334-7.576q-1.3,0-1.547,1.723h2.988v-.229a1.467,1.467,0,0,0-.36-1.1A1.434,1.434,0,0,0,278.325,11.6Zm8.657,7.4h-2.971V5.5h2.971Zm4.948,0h-2.971V9.49h2.971ZM288.784,7.038A1.322,1.322,0,0,1,289.241,6a1.943,1.943,0,0,1,2.373,0,1.322,1.322,0,0,1,.457,1.037,1.322,1.322,0,0,1-.457,1.037,1.943,1.943,0,0,1-2.373,0A1.322,1.322,0,0,1,288.784,7.038Zm4.623,7.137a6.421,6.421,0,0,1,.475-2.549,3.821,3.821,0,0,1,1.362-1.709,3.591,3.591,0,0,1,2.065-.6,2.855,2.855,0,0,1,2.32,1l.105-.826h2.689V18.64a4.009,4.009,0,0,1-.584,2.184,3.75,3.75,0,0,1-1.692,1.424,6.219,6.219,0,0,1-2.566.5,5.365,5.365,0,0,1-2.026-.4,3.657,3.657,0,0,1-1.5-1.028l1.239-1.74a2.716,2.716,0,0,0,2.18.976,1.764,1.764,0,0,0,1.969-2.021v-.3a2.781,2.781,0,0,1-2.153.94,3.437,3.437,0,0,1-2.812-1.332,5.517,5.517,0,0,1-1.072-3.564Zm2.971.185a3.383,3.383,0,0,0,.439,1.85,1.387,1.387,0,0,0,1.23.681,1.573,1.573,0,0,0,1.4-.642v-4a1.534,1.534,0,0,0-1.38-.65,1.4,1.4,0,0,0-1.239.708A3.858,3.858,0,0,0,296.377,14.359Zm13.482-2.188-.976-.07a1.752,1.752,0,0,0-1.793.879V19h-2.962V9.49h2.777l.1,1.222a2.294,2.294,0,0,1,2.083-1.4,2.888,2.888,0,0,1,.826.105Zm.378,1.986a5.613,5.613,0,0,1,.554-2.536,3.96,3.96,0,0,1,1.591-1.709,4.791,4.791,0,0,1,2.435-.6,4.373,4.373,0,0,1,3.366,1.323,5.076,5.076,0,0,1,1.23,3.6v.105a4.925,4.925,0,0,1-1.235,3.529,4.384,4.384,0,0,1-3.344,1.305,4.434,4.434,0,0,1-3.261-1.217,4.761,4.761,0,0,1-1.327-3.3Zm2.962.185a3.538,3.538,0,0,0,.413,1.934,1.376,1.376,0,0,0,1.222.615q1.582,0,1.617-2.435v-.3q0-2.558-1.635-2.558-1.485,0-1.608,2.206Zm12.5,1.986a.684.684,0,0,0-.4-.606,6.016,6.016,0,0,0-1.5-.475,6.853,6.853,0,0,1-1.828-.646,3.062,3.062,0,0,1-1.1-.971,2.319,2.319,0,0,1-.378-1.31,2.628,2.628,0,0,1,1.081-2.158,4.453,4.453,0,0,1,2.83-.848,4.934,4.934,0,0,1,3.023.853,2.666,2.666,0,0,1,1.143,2.241H325.6q0-1.143-1.2-1.143a1.194,1.194,0,0,0-.782.259.8.8,0,0,0-.316.646.737.737,0,0,0,.387.642,3.654,3.654,0,0,0,1.235.4,10.671,10.671,0,0,1,1.49.378,2.706,2.706,0,0,1,2.145,2.646,2.491,2.491,0,0,1-1.156,2.118,5.068,5.068,0,0,1-2.993.817,5.172,5.172,0,0,1-2.18-.439,3.645,3.645,0,0,1-1.494-1.2,2.707,2.707,0,0,1-.536-1.591h2.769a1.145,1.145,0,0,0,.439.962,1.808,1.808,0,0,0,1.081.3,1.422,1.422,0,0,0,.91-.246A.787.787,0,0,0,325.7,16.328Zm3.867-2.171a5.613,5.613,0,0,1,.554-2.536,3.96,3.96,0,0,1,1.591-1.709,4.791,4.791,0,0,1,2.435-.6,4.373,4.373,0,0,1,3.366,1.323,5.076,5.076,0,0,1,1.23,3.6v.105a4.925,4.925,0,0,1-1.235,3.529,4.384,4.384,0,0,1-3.344,1.305,4.434,4.434,0,0,1-3.261-1.217,4.761,4.761,0,0,1-1.327-3.3Zm2.962.185a3.538,3.538,0,0,0,.413,1.934,1.376,1.376,0,0,0,1.222.615q1.582,0,1.617-2.435v-.3q0-2.558-1.635-2.558-1.485,0-1.608,2.206Zm12.5,1.986a.684.684,0,0,0-.4-.606,6.016,6.016,0,0,0-1.5-.475A6.853,6.853,0,0,1,341.3,14.6a3.062,3.062,0,0,1-1.1-.971,2.319,2.319,0,0,1-.378-1.31,2.628,2.628,0,0,1,1.081-2.158,4.453,4.453,0,0,1,2.83-.848,4.934,4.934,0,0,1,3.023.853,2.666,2.666,0,0,1,1.143,2.241h-2.971q0-1.143-1.2-1.143a1.194,1.194,0,0,0-.782.259.8.8,0,0,0-.316.646.737.737,0,0,0,.387.642,3.654,3.654,0,0,0,1.235.4,10.671,10.671,0,0,1,1.49.378,2.706,2.706,0,0,1,2.145,2.646,2.491,2.491,0,0,1-1.156,2.118,5.068,5.068,0,0,1-2.993.817,5.172,5.172,0,0,1-2.18-.439,3.645,3.645,0,0,1-1.494-1.2,2.707,2.707,0,0,1-.536-1.591h2.769a1.145,1.145,0,0,0,.439.962,1.808,1.808,0,0,0,1.081.3,1.422,1.422,0,0,0,.91-.246A.787.787,0,0,0,345.025,16.328Z" transform="translate(231 7451.099)" fill="#12263f"/>
  </g>
</svg>
